M48
;DRILL file {KiCad (5.0.0)} date 03/24/20 20:17:20
;FORMAT={-:-/ absolute / metric / decimal}
FMAT,2
METRIC,TZ
T1C0.400
T2C1.000
%
G90
G05
M71
T1
X88.32Y-117.54
X89.81Y-91.65
X90.04Y-95.37
X91.2Y-100.14
X91.33Y-101.63
X91.52Y-89.73
X92.9Y-114.89
X94.17Y-117.88
X94.35Y-112.69
X94.35Y-116.31
X94.79Y-98.63
X96.49Y-111.5
X98.46Y-104.48
X100.93Y-108.07
X101.15Y-93.06
X101.94Y-104.5
X101.96Y-94.57
X102.05Y-96.91
X103.11Y-91.59
X103.11Y-118.08
X103.97Y-107.71
X105.14Y-101.53
X107.06Y-113.11
X108.81Y-89.15
X108.91Y-84.53
X108.96Y-111.28
X109.03Y-108.23
X109.13Y-95.48
X109.17Y-99.8
X109.21Y-104.24
X110.47Y-114.24
T2
X78.74Y-81.259
X78.74Y-83.799
X78.74Y-86.339
X78.74Y-88.879
X78.74Y-91.419
X78.74Y-93.959
X78.74Y-96.499
X78.74Y-99.039
X78.74Y-101.579
X78.74Y-104.119
X78.74Y-106.659
X78.74Y-109.199
X78.74Y-111.739
X78.74Y-114.279
X78.74Y-116.819
X78.74Y-119.359
X124.46Y-81.28
X124.46Y-83.82
X124.46Y-86.36
X124.46Y-88.9
X124.46Y-91.44
X124.46Y-93.98
X124.46Y-96.52
X124.46Y-99.06
X124.46Y-101.6
X124.46Y-104.14
X124.46Y-106.68
X124.46Y-109.22
X124.46Y-111.76
X124.46Y-114.3
X124.46Y-116.84
X124.46Y-119.38
T0
M30
