%FSLAX45Y45*%
G04 Gerber Fmt 4.5, Leading zero omitted, Abs format (unit mm)*
G04 Created by KiCad (PCBNEW (5.0.0)) date 03/24/20 20:01:33*
%MOMM*%
%LPD*%
G01*
G04 APERTURE LIST*
%ADD10C,0.150000*%
%ADD11C,0.200000*%
%ADD12C,0.300000*%
G04 APERTURE END LIST*
D10*
X7666000Y-7901000D02*
X12658000Y-7898000D01*
X7668000Y-12167000D02*
X7666000Y-7901000D01*
X12661000Y-12166000D02*
X7668000Y-12167000D01*
X12658000Y-7898000D02*
X12661000Y-12166000D01*
D11*
D12*
X7944928Y-12640214D02*
X7944928Y-12340214D01*
X8016357Y-12340214D01*
X8059214Y-12354500D01*
X8087786Y-12383071D01*
X8102071Y-12411643D01*
X8116357Y-12468786D01*
X8116357Y-12511643D01*
X8102071Y-12568786D01*
X8087786Y-12597357D01*
X8059214Y-12625929D01*
X8016357Y-12640214D01*
X7944928Y-12640214D01*
X8244928Y-12640214D02*
X8244928Y-12440214D01*
X8244928Y-12497357D02*
X8259214Y-12468786D01*
X8273500Y-12454500D01*
X8302071Y-12440214D01*
X8330643Y-12440214D01*
X8430643Y-12640214D02*
X8430643Y-12440214D01*
X8430643Y-12340214D02*
X8416357Y-12354500D01*
X8430643Y-12368786D01*
X8444928Y-12354500D01*
X8430643Y-12340214D01*
X8430643Y-12368786D01*
X8616357Y-12640214D02*
X8587786Y-12625929D01*
X8573500Y-12597357D01*
X8573500Y-12340214D01*
X8773500Y-12640214D02*
X8744928Y-12625929D01*
X8730643Y-12597357D01*
X8730643Y-12340214D01*
X9116357Y-12640214D02*
X9116357Y-12340214D01*
X9216357Y-12554500D01*
X9316357Y-12340214D01*
X9316357Y-12640214D01*
X9587786Y-12640214D02*
X9587786Y-12483071D01*
X9573500Y-12454500D01*
X9544928Y-12440214D01*
X9487786Y-12440214D01*
X9459214Y-12454500D01*
X9587786Y-12625929D02*
X9559214Y-12640214D01*
X9487786Y-12640214D01*
X9459214Y-12625929D01*
X9444928Y-12597357D01*
X9444928Y-12568786D01*
X9459214Y-12540214D01*
X9487786Y-12525929D01*
X9559214Y-12525929D01*
X9587786Y-12511643D01*
X9730643Y-12440214D02*
X9730643Y-12740214D01*
X9730643Y-12454500D02*
X9759214Y-12440214D01*
X9816357Y-12440214D01*
X9844928Y-12454500D01*
X9859214Y-12468786D01*
X9873500Y-12497357D01*
X9873500Y-12583071D01*
X9859214Y-12611643D01*
X9844928Y-12625929D01*
X9816357Y-12640214D01*
X9759214Y-12640214D01*
X9730643Y-12625929D01*
X10002071Y-12611643D02*
X10016357Y-12625929D01*
X10002071Y-12640214D01*
X9987786Y-12625929D01*
X10002071Y-12611643D01*
X10002071Y-12640214D01*
X10002071Y-12454500D02*
X10016357Y-12468786D01*
X10002071Y-12483071D01*
X9987786Y-12468786D01*
X10002071Y-12454500D01*
X10002071Y-12483071D01*
M02*
