M48
;DRILL file {KiCad (5.0.0)} date 04/23/20 21:26:06
;FORMAT={-:-/ absolute / metric / decimal}
FMAT,2
METRIC,TZ
T1C0.400
T2C0.550
T3C0.850
T4C0.990
T5C1.000
%
G90
G05
M71
T1
X115.32Y-102.89
X115.37Y-70.73
X115.38Y-74.48
X115.44Y-89.75
X115.48Y-77.59
X115.52Y-80.44
X116.15Y-116.69
X116.15Y-119.74
X116.18Y-66.83
X116.18Y-106.83
X116.18Y-109.65
X116.4Y-96.43
X116.78Y-63.58
X116.83Y-121.83
X117.43Y-82.17
X117.51Y-83.75
X118.78Y-81.35
X118.81Y-114.98
X119.93Y-109.48
X119.97Y-70.01
X120.07Y-118.72
X120.16Y-122.49
X120.18Y-62.83
X120.18Y-66.83
X121.25Y-76.07
X121.39Y-97.19
X122.62Y-87.54
X123.57Y-78.53
X124.Y-81.3
X124.12Y-109.54
X124.16Y-122.49
X124.18Y-62.83
X124.18Y-66.83
X124.18Y-70.83
X124.18Y-74.83
X124.18Y-90.83
X124.18Y-114.83
X124.18Y-118.83
X124.41Y-76.13
X125.06Y-86.09
X125.4Y-106.29
X126.02Y-89.9
X126.06Y-87.58
X127.12Y-107.99
X127.51Y-96.8
X127.53Y-80.73
X128.16Y-122.49
X128.18Y-62.83
X128.18Y-66.83
X128.18Y-78.83
X128.18Y-102.83
X128.18Y-110.83
X128.18Y-114.83
X128.18Y-118.83
X128.69Y-94.88
X128.71Y-69.81
X129.81Y-102.72
X129.94Y-86.91
X130.15Y-76.15
X130.67Y-91.01
X130.68Y-93.12
X131.25Y-84.26
X131.58Y-94.78
X131.95Y-88.18
X132.16Y-122.49
X132.18Y-62.83
X132.18Y-66.83
X132.18Y-74.83
X132.18Y-102.83
X132.18Y-114.83
X132.58Y-77.98
X132.77Y-69.82
X133.02Y-118.04
X134.39Y-77.38
X134.63Y-84.99
X135.51Y-87.99
X135.55Y-92.79
X136.16Y-122.49
X136.18Y-62.83
X136.18Y-66.83
X136.18Y-78.83
X136.18Y-94.83
X136.18Y-102.83
X136.18Y-114.83
X136.18Y-118.83
X136.89Y-97.5
X137.3Y-69.81
X137.96Y-88.19
X138.39Y-86.93
X138.7Y-78.79
X138.83Y-76.12
X139.07Y-74.55
X139.28Y-94.31
X139.67Y-77.96
X139.69Y-90.54
X139.7Y-88.09
X139.89Y-86.72
X139.95Y-83.03
X140.16Y-122.49
X140.18Y-62.83
X140.18Y-66.83
X141.11Y-69.86
X141.47Y-88.19
X141.59Y-90.99
X141.84Y-74.5
X142.18Y-76.11
X142.48Y-86.87
X142.73Y-108.86
X143.42Y-90.74
X143.75Y-98.5
X143.9Y-89.04
X144.16Y-122.49
X144.18Y-62.83
X144.18Y-66.83
X144.18Y-94.83
X144.18Y-102.83
X144.18Y-110.83
X144.18Y-118.83
X144.58Y-91.04
X144.82Y-96.02
X145.Y-97.61
X145.14Y-69.89
X145.26Y-94.13
X145.64Y-89.72
X146.07Y-98.78
X146.28Y-91.03
X146.62Y-113.37
X146.77Y-108.86
X147.29Y-105.87
X147.31Y-95.04
X147.73Y-86.94
X148.16Y-122.49
X148.18Y-62.83
X148.18Y-66.83
X148.18Y-106.83
X148.31Y-77.95
X148.54Y-83.73
X148.74Y-79.08
X149.12Y-76.14
X149.14Y-105.41
X149.55Y-69.88
X149.58Y-74.49
X149.58Y-83.36
X149.69Y-113.28
X149.78Y-110.72
X150.59Y-107.1
X151.2Y-98.46
X151.265Y-108.265
X151.4Y-115.86
X151.44Y-93.4
X151.74Y-74.09
X151.78Y-82.86
X151.8Y-68.3
X151.81Y-76.94
X152.16Y-122.49
X152.18Y-62.83
X152.18Y-66.83
X152.18Y-106.83
X152.18Y-110.83
X152.18Y-119.8
X152.32Y-113.32
X153.06Y-89.91
X153.43Y-98.77
X153.52Y-101.39
X153.54Y-92.21
X153.63Y-74.41
X153.88Y-82.98
X154.55Y-86.63
X154.72Y-116.14
X154.83Y-102.29
X154.92Y-108.18
X155.18Y-113.24
X156.16Y-122.49
X156.18Y-62.83
X156.18Y-66.83
X156.18Y-86.83
X156.18Y-94.83
X156.18Y-106.83
X156.18Y-110.83
X156.18Y-119.8
X156.26Y-92.63
X156.29Y-91.24
X156.29Y-98.75
X157.16Y-116.19
X157.25Y-104.41
X158.67Y-108.25
X159.61Y-88.74
X159.62Y-91.32
X160.16Y-122.49
X160.18Y-62.83
X160.18Y-66.83
X160.18Y-70.83
X160.18Y-74.83
X160.18Y-78.83
X160.18Y-82.83
X160.18Y-86.83
X160.18Y-119.8
X160.49Y-99.91
X161.24Y-90.86
X161.24Y-94.09
X161.31Y-101.25
X162.47Y-86.68
X163.12Y-94.11
X163.14Y-90.84
X163.43Y-88.14
X163.51Y-95.89
X163.84Y-62.32
X163.84Y-101.46
X164.16Y-122.49
X164.18Y-66.83
X164.18Y-70.83
X164.18Y-74.83
X164.18Y-78.83
X164.18Y-82.83
X164.18Y-98.83
X164.18Y-110.83
X164.18Y-119.8
X166.15Y-121.25
X166.8Y-63.38
X167.12Y-66.81
X167.12Y-70.81
X167.12Y-74.81
X167.12Y-78.81
X167.12Y-82.81
X167.12Y-86.81
X167.12Y-114.81
X167.12Y-118.81
X167.29Y-110.79
X167.32Y-102.78
X167.33Y-106.8
X167.42Y-97.34
T4
X120.Y-78.36
X120.Y-82.86
X126.5Y-78.36
X126.5Y-82.86
T5
X155.945Y-70.265
X155.945Y-72.805
X155.945Y-75.345
X134.93Y-71.88
X137.47Y-71.88
X140.01Y-71.88
X117.47Y-71.88
X120.01Y-71.88
X122.55Y-71.88
X155.945Y-78.965
X155.945Y-81.505
X155.945Y-84.045
X129.79Y-111.47
X132.33Y-111.47
X134.87Y-111.47
X137.41Y-111.47
X139.95Y-111.47
X142.49Y-111.47
X143.972Y-71.88
X146.512Y-71.88
X149.052Y-71.88
X126.2Y-71.88
X128.74Y-71.88
X131.28Y-71.88
X152.39Y-118.04
X154.93Y-118.04
X157.47Y-118.04
X160.01Y-118.04
X162.55Y-118.04
X165.09Y-118.04
T2
X141.015Y-120.375G85X141.015Y-121.025
G05
X148.765Y-120.375G85X148.765Y-121.025
G05
T3
X141.165Y-116.625G85X141.165Y-117.175
G05
X148.615Y-116.625G85X148.615Y-117.175
G05
T5
X117.04Y-111.86G85X117.04Y-113.36
G05
X120.54Y-105.61G85X122.54Y-105.61
G05
X120.89Y-111.61G85X122.19Y-111.61
G05
X126.04Y-111.86G85X126.04Y-113.36
G05
T0
M30
