G04 #@! TF.GenerationSoftware,KiCad,Pcbnew,(5.0.0)*
G04 #@! TF.CreationDate,2019-10-23T21:11:43+11:00*
G04 #@! TF.ProjectId,DAQ Board,44415120426F6172642E6B696361645F,rev?*
G04 #@! TF.SameCoordinates,Original*
G04 #@! TF.FileFunction,Copper,L2,Inr,Plane*
G04 #@! TF.FilePolarity,Positive*
%FSLAX46Y46*%
G04 Gerber Fmt 4.6, Leading zero omitted, Abs format (unit mm)*
G04 Created by KiCad (PCBNEW (5.0.0)) date 10/23/19 21:11:43*
%MOMM*%
%LPD*%
G01*
G04 APERTURE LIST*
G04 #@! TA.AperFunction,ViaPad*
%ADD10C,0.600000*%
G04 #@! TD*
G04 #@! TA.AperFunction,ViaPad*
%ADD11C,1.750000*%
G04 #@! TD*
G04 #@! TA.AperFunction,ViaPad*
%ADD12R,1.700000X1.700000*%
G04 #@! TD*
G04 #@! TA.AperFunction,ViaPad*
%ADD13O,1.700000X1.700000*%
G04 #@! TD*
G04 #@! TA.AperFunction,ViaPad*
%ADD14C,2.000000*%
G04 #@! TD*
G04 #@! TA.AperFunction,ViaPad*
%ADD15C,1.600000*%
G04 #@! TD*
G04 #@! TA.AperFunction,ViaPad*
%ADD16O,1.600000X1.600000*%
G04 #@! TD*
G04 #@! TA.AperFunction,ViaPad*
%ADD17O,1.450000X2.000000*%
G04 #@! TD*
G04 #@! TA.AperFunction,ViaPad*
%ADD18O,1.150000X1.800000*%
G04 #@! TD*
G04 #@! TA.AperFunction,ViaPad*
%ADD19R,4.000000X2.000000*%
G04 #@! TD*
G04 #@! TA.AperFunction,ViaPad*
%ADD20O,3.300000X2.000000*%
G04 #@! TD*
G04 #@! TA.AperFunction,ViaPad*
%ADD21O,2.000000X3.500000*%
G04 #@! TD*
G04 #@! TA.AperFunction,ViaPad*
%ADD22C,0.800000*%
G04 #@! TD*
G04 #@! TA.AperFunction,Conductor*
%ADD23C,0.254000*%
G04 #@! TD*
G04 APERTURE END LIST*
D10*
G04 #@! TO.N,/GND*
G04 #@! TO.C,*
X203590000Y-85830000D03*
G04 #@! TD*
G04 #@! TO.N,/GND*
G04 #@! TO.C,*
X198590000Y-85830000D03*
G04 #@! TD*
G04 #@! TO.N,/GND*
G04 #@! TO.C,*
X193590000Y-85830000D03*
G04 #@! TD*
G04 #@! TO.N,/GND*
G04 #@! TO.C,*
X188590000Y-85830000D03*
G04 #@! TD*
G04 #@! TO.N,/GND*
G04 #@! TO.C,*
X183590000Y-85830000D03*
G04 #@! TD*
G04 #@! TO.N,/GND*
G04 #@! TO.C,*
X178590000Y-85830000D03*
G04 #@! TD*
G04 #@! TO.N,/GND*
G04 #@! TO.C,*
X173590000Y-85830000D03*
G04 #@! TD*
G04 #@! TO.N,/GND*
G04 #@! TO.C,*
X203590000Y-80830000D03*
G04 #@! TD*
G04 #@! TO.N,/GND*
G04 #@! TO.C,*
X198590000Y-80830000D03*
G04 #@! TD*
G04 #@! TO.N,/GND*
G04 #@! TO.C,*
X193590000Y-80830000D03*
G04 #@! TD*
G04 #@! TO.N,/GND*
G04 #@! TO.C,*
X188590000Y-80830000D03*
G04 #@! TD*
G04 #@! TO.N,/GND*
G04 #@! TO.C,*
X183590000Y-80830000D03*
G04 #@! TD*
G04 #@! TO.N,/GND*
G04 #@! TO.C,*
X178590000Y-80830000D03*
G04 #@! TD*
G04 #@! TO.N,/GND*
G04 #@! TO.C,*
X173590000Y-80830000D03*
G04 #@! TD*
G04 #@! TO.N,/GND*
G04 #@! TO.C,*
X198590000Y-75830000D03*
G04 #@! TD*
G04 #@! TO.N,/GND*
G04 #@! TO.C,*
X193590000Y-75830000D03*
G04 #@! TD*
G04 #@! TO.N,/GND*
G04 #@! TO.C,*
X188590000Y-75830000D03*
G04 #@! TD*
G04 #@! TO.N,/GND*
G04 #@! TO.C,*
X183590000Y-75830000D03*
G04 #@! TD*
G04 #@! TO.N,/GND*
G04 #@! TO.C,*
X178590000Y-75830000D03*
G04 #@! TD*
G04 #@! TO.N,/GND*
G04 #@! TO.C,*
X173590000Y-75830000D03*
G04 #@! TD*
G04 #@! TO.N,/GND*
G04 #@! TO.C,*
X198590000Y-70830000D03*
G04 #@! TD*
G04 #@! TO.N,/GND*
G04 #@! TO.C,*
X193590000Y-70830000D03*
G04 #@! TD*
G04 #@! TO.N,/GND*
G04 #@! TO.C,*
X188590000Y-70830000D03*
G04 #@! TD*
G04 #@! TO.N,/GND*
G04 #@! TO.C,*
X183590000Y-70830000D03*
G04 #@! TD*
G04 #@! TO.N,/GND*
G04 #@! TO.C,*
X178590000Y-70830000D03*
G04 #@! TD*
D11*
G04 #@! TO.N,Net-(R7-Pad2)*
G04 #@! TO.C,SW7*
X133560000Y-104965000D03*
G04 #@! TO.N,Net-(J1-Pad5)*
X131060000Y-104965000D03*
G04 #@! TO.N,/ADC1299/AVDD*
X136060000Y-104965000D03*
G04 #@! TD*
G04 #@! TO.N,Net-(R3-Pad2)*
G04 #@! TO.C,SW3*
X133560000Y-87185000D03*
G04 #@! TO.N,Net-(J1-Pad1)*
X131060000Y-87185000D03*
G04 #@! TO.N,/ADC1299/AVDD*
X136060000Y-87185000D03*
G04 #@! TD*
G04 #@! TO.N,Net-(R4-Pad2)*
G04 #@! TO.C,SW4*
X133560000Y-91630000D03*
G04 #@! TO.N,Net-(J1-Pad2)*
X131060000Y-91630000D03*
G04 #@! TO.N,/ADC1299/AVDD*
X136060000Y-91630000D03*
G04 #@! TD*
G04 #@! TO.N,Net-(R5-Pad2)*
G04 #@! TO.C,SW5*
X133560000Y-96075000D03*
G04 #@! TO.N,Net-(J1-Pad3)*
X131060000Y-96075000D03*
G04 #@! TO.N,/ADC1299/AVDD*
X136060000Y-96075000D03*
G04 #@! TD*
G04 #@! TO.N,Net-(R6-Pad2)*
G04 #@! TO.C,SW6*
X133560000Y-100520000D03*
G04 #@! TO.N,Net-(J1-Pad4)*
X131060000Y-100520000D03*
G04 #@! TO.N,/ADC1299/AVDD*
X136060000Y-100520000D03*
G04 #@! TD*
G04 #@! TO.N,Net-(R8-Pad2)*
G04 #@! TO.C,SW8*
X133560000Y-109410000D03*
G04 #@! TO.N,Net-(J1-Pad6)*
X131060000Y-109410000D03*
G04 #@! TO.N,/ADC1299/AVDD*
X136060000Y-109410000D03*
G04 #@! TD*
G04 #@! TO.N,Net-(R9-Pad2)*
G04 #@! TO.C,SW9*
X133560000Y-113855000D03*
G04 #@! TO.N,Net-(J1-Pad7)*
X131060000Y-113855000D03*
G04 #@! TO.N,/ADC1299/AVDD*
X136060000Y-113855000D03*
G04 #@! TD*
G04 #@! TO.N,Net-(R10-Pad2)*
G04 #@! TO.C,SW10*
X133560000Y-118300000D03*
G04 #@! TO.N,Net-(J1-Pad8)*
X131060000Y-118300000D03*
G04 #@! TO.N,/ADC1299/AVDD*
X136060000Y-118300000D03*
G04 #@! TD*
G04 #@! TO.N,Net-(R11-Pad2)*
G04 #@! TO.C,SW11*
X133615880Y-122745000D03*
G04 #@! TO.N,Net-(J1-Pad9)*
X131115880Y-122745000D03*
G04 #@! TO.N,/ADC1299/AVDD*
X136115880Y-122745000D03*
G04 #@! TD*
D12*
G04 #@! TO.N,Net-(J1-Pad1)*
G04 #@! TO.C,J1*
X121440000Y-94800000D03*
D13*
G04 #@! TO.N,Net-(J1-Pad2)*
X121440000Y-97340000D03*
G04 #@! TO.N,Net-(J1-Pad3)*
X121440000Y-99880000D03*
G04 #@! TO.N,Net-(J1-Pad4)*
X121440000Y-102420000D03*
G04 #@! TO.N,Net-(J1-Pad5)*
X121440000Y-104960000D03*
G04 #@! TO.N,Net-(J1-Pad6)*
X121440000Y-107500000D03*
G04 #@! TO.N,Net-(J1-Pad7)*
X121440000Y-110040000D03*
G04 #@! TO.N,Net-(J1-Pad8)*
X121440000Y-112580000D03*
G04 #@! TO.N,Net-(J1-Pad9)*
X121440000Y-115120000D03*
G04 #@! TD*
D14*
G04 #@! TO.N,/GND*
G04 #@! TO.C,PB1*
X158590000Y-71090000D03*
X158590000Y-75590000D03*
G04 #@! TO.N,/ADC1299/~RESET*
X165090000Y-75590000D03*
X165090000Y-71090000D03*
G04 #@! TD*
D13*
G04 #@! TO.N,Net-(J5-Pad6)*
G04 #@! TO.C,J5*
X209650000Y-84620000D03*
G04 #@! TO.N,/HC05_TX*
X209650000Y-82080000D03*
G04 #@! TO.N,/HC05_RX*
X209650000Y-79540000D03*
G04 #@! TO.N,/GND*
X209650000Y-77000000D03*
G04 #@! TO.N,/+5V*
X209650000Y-74460000D03*
D12*
G04 #@! TO.N,Net-(J5-Pad1)*
X209650000Y-71920000D03*
G04 #@! TD*
D15*
G04 #@! TO.N,Net-(F1-Pad1)*
G04 #@! TO.C,F1*
X140470000Y-83310000D03*
D16*
G04 #@! TO.N,/VIN_RAW*
X140470000Y-70610000D03*
G04 #@! TD*
D17*
G04 #@! TO.N,/GND*
G04 #@! TO.C,J2*
X196813585Y-121731237D03*
X204263585Y-121731237D03*
D18*
X196663585Y-125531237D03*
X204413585Y-125531237D03*
G04 #@! TD*
D12*
G04 #@! TO.N,Net-(J3-Pad1)*
G04 #@! TO.C,J3*
X129660000Y-71050000D03*
D13*
G04 #@! TO.N,/GND*
X132200000Y-71050000D03*
G04 #@! TD*
D19*
G04 #@! TO.N,/GND*
G04 #@! TO.C,J4*
X148780000Y-70350000D03*
D20*
G04 #@! TO.N,/VIN_RAW*
X148780000Y-76350000D03*
D21*
G04 #@! TO.N,N/C*
X144280000Y-77350000D03*
X153280000Y-77350000D03*
G04 #@! TD*
D12*
G04 #@! TO.N,/ADC1299/MISO*
G04 #@! TO.C,J6*
X176800000Y-102650000D03*
D13*
G04 #@! TO.N,/+5V*
X179340000Y-102650000D03*
G04 #@! TO.N,/ADC1299/SCLK*
X176800000Y-105190000D03*
G04 #@! TO.N,/ADC1299/MOSI*
X179340000Y-105190000D03*
G04 #@! TO.N,/ADC1299/~RESET*
X176800000Y-107730000D03*
G04 #@! TO.N,/GND*
X179340000Y-107730000D03*
G04 #@! TD*
D10*
G04 #@! TO.N,/GND*
G04 #@! TO.C,*
X173590000Y-70830000D03*
G04 #@! TD*
D22*
G04 #@! TO.N,/ADC1299/MID_SUPPLY*
X157510000Y-119790000D03*
X151720000Y-110340000D03*
G04 #@! TO.N,Net-(ADC1-Pad17)*
X146710000Y-99703000D03*
X146710000Y-104148000D03*
X146710000Y-108593000D03*
X146710000Y-113038000D03*
X146710000Y-117483000D03*
X146710000Y-124595000D03*
X146710000Y-95258000D03*
X146710000Y-90813000D03*
G04 #@! TO.N,/ADC1299/AVDD*
X164060000Y-114600000D03*
X159520000Y-122200000D03*
X154610000Y-121120000D03*
X154610000Y-96860000D03*
X161420000Y-87880000D03*
X151500000Y-112790000D03*
X165520000Y-98190000D03*
G04 #@! TO.N,/GND*
X157630000Y-100850000D03*
X155670000Y-109010000D03*
X191310000Y-96510000D03*
G04 #@! TO.N,/ADC1299/MOSI*
X185480000Y-101250000D03*
G04 #@! TO.N,/ADC1299/~PWDN*
X166290000Y-107780000D03*
X185510000Y-96290000D03*
G04 #@! TO.N,/ADC1299/~RESET*
X178210000Y-110900000D03*
X165110000Y-107290000D03*
X197449112Y-99159112D03*
G04 #@! TO.N,/ADC1299/START*
X183050000Y-98740000D03*
X185480000Y-98060000D03*
G04 #@! TO.N,/ADC1299/~CS*
X165070000Y-105790000D03*
X184580000Y-99590000D03*
G04 #@! TO.N,/ADC1299/SCLK*
X166260000Y-105270000D03*
G04 #@! TO.N,/ADC1299/MISO*
X165460000Y-103890000D03*
G04 #@! TO.N,/ADC1299/~DRDY*
X166080000Y-101090000D03*
X184590000Y-97240000D03*
G04 #@! TO.N,/ADC1299/DVDD*
X170330000Y-98190000D03*
X166540000Y-112370000D03*
G04 #@! TO.N,/+5V*
X207880000Y-95120000D03*
X203140000Y-98400000D03*
X190350000Y-90300000D03*
X207810000Y-117320000D03*
X210830000Y-117320000D03*
X204710000Y-115420000D03*
X197810000Y-112790000D03*
X188910000Y-105510000D03*
X187210000Y-104240000D03*
X170260000Y-84670000D03*
G04 #@! TO.N,/VIN*
X187200000Y-126380000D03*
X154260000Y-83400000D03*
X137170000Y-81140000D03*
X148050000Y-83890000D03*
X183440000Y-119960000D03*
G04 #@! TO.N,Net-(J2-Pad2)*
X199850000Y-115760000D03*
X201280000Y-115760000D03*
G04 #@! TO.N,/Arduino Nano/TX*
X207300000Y-103370000D03*
X201530000Y-96410000D03*
G04 #@! TO.N,/Arduino Nano/RX*
X209930000Y-103400000D03*
X202370000Y-97480000D03*
G04 #@! TD*
D23*
G04 #@! TO.N,/GND*
G36*
X139798773Y-69332640D02*
X139435423Y-69575423D01*
X139118260Y-70050091D01*
X139006887Y-70610000D01*
X139118260Y-71169909D01*
X139435423Y-71644577D01*
X139910091Y-71961740D01*
X140328667Y-72045000D01*
X140611333Y-72045000D01*
X141029909Y-71961740D01*
X141504577Y-71644577D01*
X141821740Y-71169909D01*
X141927990Y-70635750D01*
X146145000Y-70635750D01*
X146145000Y-71476310D01*
X146241673Y-71709699D01*
X146420302Y-71888327D01*
X146653691Y-71985000D01*
X148494250Y-71985000D01*
X148653000Y-71826250D01*
X148653000Y-70477000D01*
X148907000Y-70477000D01*
X148907000Y-71826250D01*
X149065750Y-71985000D01*
X150906309Y-71985000D01*
X151139698Y-71888327D01*
X151318327Y-71709699D01*
X151415000Y-71476310D01*
X151415000Y-70825461D01*
X156944092Y-70825461D01*
X156968144Y-71475460D01*
X157170613Y-71964264D01*
X157437468Y-72062927D01*
X158410395Y-71090000D01*
X158769605Y-71090000D01*
X159742532Y-72062927D01*
X160009387Y-71964264D01*
X160235908Y-71354539D01*
X160214085Y-70764778D01*
X163455000Y-70764778D01*
X163455000Y-71415222D01*
X163703914Y-72016153D01*
X164163847Y-72476086D01*
X164764778Y-72725000D01*
X165415222Y-72725000D01*
X166016153Y-72476086D01*
X166476086Y-72016153D01*
X166542659Y-71855431D01*
X201785000Y-71855431D01*
X201785000Y-72744569D01*
X202125259Y-73566026D01*
X202753974Y-74194741D01*
X203575431Y-74535000D01*
X204464569Y-74535000D01*
X204645634Y-74460000D01*
X208135908Y-74460000D01*
X208251161Y-75039418D01*
X208579375Y-75530625D01*
X208898478Y-75743843D01*
X208768642Y-75804817D01*
X208378355Y-76233076D01*
X208208524Y-76643110D01*
X208329845Y-76873000D01*
X209523000Y-76873000D01*
X209523000Y-76853000D01*
X209777000Y-76853000D01*
X209777000Y-76873000D01*
X210970155Y-76873000D01*
X211091476Y-76643110D01*
X210921645Y-76233076D01*
X210531358Y-75804817D01*
X210401522Y-75743843D01*
X210720625Y-75530625D01*
X211048839Y-75039418D01*
X211164092Y-74460000D01*
X211048839Y-73880582D01*
X210720625Y-73389375D01*
X210702381Y-73377184D01*
X210747765Y-73368157D01*
X210957809Y-73227809D01*
X211098157Y-73017765D01*
X211147440Y-72770000D01*
X211147440Y-71070000D01*
X211098157Y-70822235D01*
X210957809Y-70612191D01*
X210747765Y-70471843D01*
X210500000Y-70422560D01*
X208800000Y-70422560D01*
X208552235Y-70471843D01*
X208342191Y-70612191D01*
X208201843Y-70822235D01*
X208152560Y-71070000D01*
X208152560Y-72770000D01*
X208201843Y-73017765D01*
X208342191Y-73227809D01*
X208552235Y-73368157D01*
X208597619Y-73377184D01*
X208579375Y-73389375D01*
X208251161Y-73880582D01*
X208135908Y-74460000D01*
X204645634Y-74460000D01*
X205286026Y-74194741D01*
X205914741Y-73566026D01*
X206255000Y-72744569D01*
X206255000Y-71855431D01*
X205914741Y-71033974D01*
X205286026Y-70405259D01*
X204464569Y-70065000D01*
X203575431Y-70065000D01*
X202753974Y-70405259D01*
X202125259Y-71033974D01*
X201785000Y-71855431D01*
X166542659Y-71855431D01*
X166725000Y-71415222D01*
X166725000Y-70764778D01*
X166476086Y-70163847D01*
X166016153Y-69703914D01*
X165415222Y-69455000D01*
X164764778Y-69455000D01*
X164163847Y-69703914D01*
X163703914Y-70163847D01*
X163455000Y-70764778D01*
X160214085Y-70764778D01*
X160211856Y-70704540D01*
X160009387Y-70215736D01*
X159742532Y-70117073D01*
X158769605Y-71090000D01*
X158410395Y-71090000D01*
X157437468Y-70117073D01*
X157170613Y-70215736D01*
X156944092Y-70825461D01*
X151415000Y-70825461D01*
X151415000Y-70635750D01*
X151256250Y-70477000D01*
X148907000Y-70477000D01*
X148653000Y-70477000D01*
X146303750Y-70477000D01*
X146145000Y-70635750D01*
X141927990Y-70635750D01*
X141933113Y-70610000D01*
X141821740Y-70050091D01*
X141504577Y-69575423D01*
X141142568Y-69333536D01*
X146145000Y-69336872D01*
X146145000Y-70064250D01*
X146303750Y-70223000D01*
X148653000Y-70223000D01*
X148653000Y-70203000D01*
X148907000Y-70203000D01*
X148907000Y-70223000D01*
X151256250Y-70223000D01*
X151415000Y-70064250D01*
X151415000Y-69937468D01*
X157617073Y-69937468D01*
X158590000Y-70910395D01*
X159562927Y-69937468D01*
X159464264Y-69670613D01*
X158854539Y-69444092D01*
X158204540Y-69468144D01*
X157715736Y-69670613D01*
X157617073Y-69937468D01*
X151415000Y-69937468D01*
X151415000Y-69340385D01*
X210783578Y-69379969D01*
X211253714Y-69439820D01*
X211646015Y-69600356D01*
X211983398Y-69856956D01*
X212242874Y-70192136D01*
X212406758Y-70583052D01*
X212469973Y-71047862D01*
X212440014Y-125074871D01*
X212380349Y-125543548D01*
X212219814Y-125935846D01*
X211963213Y-126273232D01*
X211628033Y-126532707D01*
X211237117Y-126696591D01*
X210771106Y-126759970D01*
X205217621Y-126755647D01*
X205482878Y-126436617D01*
X205623585Y-125983237D01*
X205623585Y-125658237D01*
X204540585Y-125658237D01*
X204540585Y-125678237D01*
X204286585Y-125678237D01*
X204286585Y-125658237D01*
X203203585Y-125658237D01*
X203203585Y-125983237D01*
X203344292Y-126436617D01*
X203608508Y-126754395D01*
X197472633Y-126749619D01*
X197732878Y-126436617D01*
X197873585Y-125983237D01*
X197873585Y-125658237D01*
X196790585Y-125658237D01*
X196790585Y-125678237D01*
X196536585Y-125678237D01*
X196536585Y-125658237D01*
X195453585Y-125658237D01*
X195453585Y-125983237D01*
X195594292Y-126436617D01*
X195853489Y-126748358D01*
X188170174Y-126742378D01*
X188235000Y-126585874D01*
X188235000Y-126174126D01*
X188077431Y-125793720D01*
X187786280Y-125502569D01*
X187405874Y-125345000D01*
X186994126Y-125345000D01*
X186613720Y-125502569D01*
X186322569Y-125793720D01*
X186165000Y-126174126D01*
X186165000Y-126585874D01*
X186229200Y-126740867D01*
X120936521Y-126690044D01*
X120466285Y-126630180D01*
X120073987Y-126469645D01*
X119736601Y-126213044D01*
X119477126Y-125877864D01*
X119313242Y-125486948D01*
X119249973Y-125021742D01*
X119248955Y-123185431D01*
X120415000Y-123185431D01*
X120415000Y-124074569D01*
X120755259Y-124896026D01*
X121383974Y-125524741D01*
X122205431Y-125865000D01*
X123094569Y-125865000D01*
X123916026Y-125524741D01*
X124544741Y-124896026D01*
X124754706Y-124389126D01*
X145675000Y-124389126D01*
X145675000Y-124800874D01*
X145832569Y-125181280D01*
X146123720Y-125472431D01*
X146504126Y-125630000D01*
X146915874Y-125630000D01*
X147296280Y-125472431D01*
X147587431Y-125181280D01*
X147629698Y-125079237D01*
X195453585Y-125079237D01*
X195453585Y-125404237D01*
X196536585Y-125404237D01*
X196536585Y-124162687D01*
X196790585Y-124162687D01*
X196790585Y-125404237D01*
X197873585Y-125404237D01*
X197873585Y-125079237D01*
X203203585Y-125079237D01*
X203203585Y-125404237D01*
X204286585Y-125404237D01*
X204286585Y-124162687D01*
X204540585Y-124162687D01*
X204540585Y-125404237D01*
X205623585Y-125404237D01*
X205623585Y-125079237D01*
X205482878Y-124625857D01*
X205179381Y-124260835D01*
X204759299Y-124039742D01*
X204727262Y-124037602D01*
X204540585Y-124162687D01*
X204286585Y-124162687D01*
X204099908Y-124037602D01*
X204067871Y-124039742D01*
X203647789Y-124260835D01*
X203344292Y-124625857D01*
X203203585Y-125079237D01*
X197873585Y-125079237D01*
X197732878Y-124625857D01*
X197429381Y-124260835D01*
X197009299Y-124039742D01*
X196977262Y-124037602D01*
X196790585Y-124162687D01*
X196536585Y-124162687D01*
X196349908Y-124037602D01*
X196317871Y-124039742D01*
X195897789Y-124260835D01*
X195594292Y-124625857D01*
X195453585Y-125079237D01*
X147629698Y-125079237D01*
X147745000Y-124800874D01*
X147745000Y-124389126D01*
X147587431Y-124008720D01*
X147296280Y-123717569D01*
X146915874Y-123560000D01*
X146504126Y-123560000D01*
X146123720Y-123717569D01*
X145832569Y-124008720D01*
X145675000Y-124389126D01*
X124754706Y-124389126D01*
X124885000Y-124074569D01*
X124885000Y-123185431D01*
X124578155Y-122444642D01*
X129605880Y-122444642D01*
X129605880Y-123045358D01*
X129835764Y-123600346D01*
X130260534Y-124025116D01*
X130815522Y-124255000D01*
X131416238Y-124255000D01*
X131971226Y-124025116D01*
X132365880Y-123630462D01*
X132760534Y-124025116D01*
X133315522Y-124255000D01*
X133916238Y-124255000D01*
X134471226Y-124025116D01*
X134865880Y-123630462D01*
X135260534Y-124025116D01*
X135815522Y-124255000D01*
X136416238Y-124255000D01*
X136971226Y-124025116D01*
X137395996Y-123600346D01*
X137625880Y-123045358D01*
X137625880Y-122444642D01*
X137395996Y-121889654D01*
X136971226Y-121464884D01*
X136416238Y-121235000D01*
X135815522Y-121235000D01*
X135260534Y-121464884D01*
X134865880Y-121859538D01*
X134471226Y-121464884D01*
X133916238Y-121235000D01*
X133315522Y-121235000D01*
X132760534Y-121464884D01*
X132365880Y-121859538D01*
X131971226Y-121464884D01*
X131416238Y-121235000D01*
X130815522Y-121235000D01*
X130260534Y-121464884D01*
X129835764Y-121889654D01*
X129605880Y-122444642D01*
X124578155Y-122444642D01*
X124544741Y-122363974D01*
X123916026Y-121735259D01*
X123094569Y-121395000D01*
X122205431Y-121395000D01*
X121383974Y-121735259D01*
X120755259Y-122363974D01*
X120415000Y-123185431D01*
X119248955Y-123185431D01*
X119247696Y-120914126D01*
X153575000Y-120914126D01*
X153575000Y-121325874D01*
X153732569Y-121706280D01*
X154023720Y-121997431D01*
X154404126Y-122155000D01*
X154815874Y-122155000D01*
X155196280Y-121997431D01*
X155199585Y-121994126D01*
X158485000Y-121994126D01*
X158485000Y-122405874D01*
X158642569Y-122786280D01*
X158933720Y-123077431D01*
X159314126Y-123235000D01*
X159725874Y-123235000D01*
X160106280Y-123077431D01*
X160397431Y-122786280D01*
X160555000Y-122405874D01*
X160555000Y-121994126D01*
X160498714Y-121858237D01*
X195453585Y-121858237D01*
X195453585Y-122133237D01*
X195605710Y-122644019D01*
X195941723Y-123057704D01*
X196410469Y-123311313D01*
X196476327Y-123323756D01*
X196686585Y-123200755D01*
X196686585Y-121858237D01*
X196940585Y-121858237D01*
X196940585Y-123200755D01*
X197150843Y-123323756D01*
X197155690Y-123322840D01*
X197292392Y-123527430D01*
X197634748Y-123756185D01*
X197936650Y-123816237D01*
X198140520Y-123816237D01*
X198442422Y-123756185D01*
X198784778Y-123527430D01*
X199013533Y-123185074D01*
X199093861Y-122781237D01*
X201983309Y-122781237D01*
X202063637Y-123185074D01*
X202292392Y-123527430D01*
X202634748Y-123756185D01*
X202936650Y-123816237D01*
X203140520Y-123816237D01*
X203442422Y-123756185D01*
X203784778Y-123527430D01*
X203921480Y-123322840D01*
X203926327Y-123323756D01*
X204136585Y-123200755D01*
X204136585Y-121858237D01*
X204390585Y-121858237D01*
X204390585Y-123200755D01*
X204600843Y-123323756D01*
X204666701Y-123311313D01*
X204899368Y-123185431D01*
X206885000Y-123185431D01*
X206885000Y-124074569D01*
X207225259Y-124896026D01*
X207853974Y-125524741D01*
X208675431Y-125865000D01*
X209564569Y-125865000D01*
X210386026Y-125524741D01*
X211014741Y-124896026D01*
X211355000Y-124074569D01*
X211355000Y-123185431D01*
X211014741Y-122363974D01*
X210386026Y-121735259D01*
X209564569Y-121395000D01*
X208675431Y-121395000D01*
X207853974Y-121735259D01*
X207225259Y-122363974D01*
X206885000Y-123185431D01*
X204899368Y-123185431D01*
X205135447Y-123057704D01*
X205471460Y-122644019D01*
X205623585Y-122133237D01*
X205623585Y-121858237D01*
X204390585Y-121858237D01*
X204136585Y-121858237D01*
X203520168Y-121858237D01*
X203442422Y-121806289D01*
X203140520Y-121746237D01*
X202936650Y-121746237D01*
X202634748Y-121806289D01*
X202292392Y-122035044D01*
X202063637Y-122377400D01*
X201983309Y-122781237D01*
X199093861Y-122781237D01*
X199013533Y-122377400D01*
X198784778Y-122035044D01*
X198442422Y-121806289D01*
X198140520Y-121746237D01*
X197936650Y-121746237D01*
X197634748Y-121806289D01*
X197557002Y-121858237D01*
X196940585Y-121858237D01*
X196686585Y-121858237D01*
X195453585Y-121858237D01*
X160498714Y-121858237D01*
X160397431Y-121613720D01*
X160112948Y-121329237D01*
X195453585Y-121329237D01*
X195453585Y-121604237D01*
X196686585Y-121604237D01*
X196686585Y-120261719D01*
X196940585Y-120261719D01*
X196940585Y-121604237D01*
X198173585Y-121604237D01*
X198173585Y-121329237D01*
X202903585Y-121329237D01*
X202903585Y-121604237D01*
X204136585Y-121604237D01*
X204136585Y-120261719D01*
X204390585Y-120261719D01*
X204390585Y-121604237D01*
X205623585Y-121604237D01*
X205623585Y-121329237D01*
X205471460Y-120818455D01*
X205135447Y-120404770D01*
X204666701Y-120151161D01*
X204600843Y-120138718D01*
X204390585Y-120261719D01*
X204136585Y-120261719D01*
X203926327Y-120138718D01*
X203860469Y-120151161D01*
X203391723Y-120404770D01*
X203055710Y-120818455D01*
X202903585Y-121329237D01*
X198173585Y-121329237D01*
X198021460Y-120818455D01*
X197685447Y-120404770D01*
X197216701Y-120151161D01*
X197150843Y-120138718D01*
X196940585Y-120261719D01*
X196686585Y-120261719D01*
X196476327Y-120138718D01*
X196410469Y-120151161D01*
X195941723Y-120404770D01*
X195605710Y-120818455D01*
X195453585Y-121329237D01*
X160112948Y-121329237D01*
X160106280Y-121322569D01*
X159725874Y-121165000D01*
X159314126Y-121165000D01*
X158933720Y-121322569D01*
X158642569Y-121613720D01*
X158485000Y-121994126D01*
X155199585Y-121994126D01*
X155487431Y-121706280D01*
X155645000Y-121325874D01*
X155645000Y-120914126D01*
X155487431Y-120533720D01*
X155196280Y-120242569D01*
X154815874Y-120085000D01*
X154404126Y-120085000D01*
X154023720Y-120242569D01*
X153732569Y-120533720D01*
X153575000Y-120914126D01*
X119247696Y-120914126D01*
X119246079Y-117999642D01*
X129550000Y-117999642D01*
X129550000Y-118600358D01*
X129779884Y-119155346D01*
X130204654Y-119580116D01*
X130759642Y-119810000D01*
X131360358Y-119810000D01*
X131915346Y-119580116D01*
X132310000Y-119185462D01*
X132704654Y-119580116D01*
X133259642Y-119810000D01*
X133860358Y-119810000D01*
X134415346Y-119580116D01*
X134810000Y-119185462D01*
X135204654Y-119580116D01*
X135759642Y-119810000D01*
X136360358Y-119810000D01*
X136905665Y-119584126D01*
X156475000Y-119584126D01*
X156475000Y-119995874D01*
X156632569Y-120376280D01*
X156923720Y-120667431D01*
X157304126Y-120825000D01*
X157715874Y-120825000D01*
X158096280Y-120667431D01*
X158387431Y-120376280D01*
X158545000Y-119995874D01*
X158545000Y-119754126D01*
X182405000Y-119754126D01*
X182405000Y-120165874D01*
X182562569Y-120546280D01*
X182853720Y-120837431D01*
X183234126Y-120995000D01*
X183645874Y-120995000D01*
X184026280Y-120837431D01*
X184317431Y-120546280D01*
X184475000Y-120165874D01*
X184475000Y-119754126D01*
X184317431Y-119373720D01*
X184026280Y-119082569D01*
X183645874Y-118925000D01*
X183234126Y-118925000D01*
X182853720Y-119082569D01*
X182562569Y-119373720D01*
X182405000Y-119754126D01*
X158545000Y-119754126D01*
X158545000Y-119584126D01*
X158387431Y-119203720D01*
X158096280Y-118912569D01*
X157715874Y-118755000D01*
X157304126Y-118755000D01*
X156923720Y-118912569D01*
X156632569Y-119203720D01*
X156475000Y-119584126D01*
X136905665Y-119584126D01*
X136915346Y-119580116D01*
X137340116Y-119155346D01*
X137570000Y-118600358D01*
X137570000Y-117999642D01*
X137340116Y-117444654D01*
X137172588Y-117277126D01*
X145675000Y-117277126D01*
X145675000Y-117688874D01*
X145832569Y-118069280D01*
X146123720Y-118360431D01*
X146504126Y-118518000D01*
X146915874Y-118518000D01*
X147296280Y-118360431D01*
X147587431Y-118069280D01*
X147745000Y-117688874D01*
X147745000Y-117277126D01*
X147677484Y-117114126D01*
X206775000Y-117114126D01*
X206775000Y-117525874D01*
X206932569Y-117906280D01*
X207223720Y-118197431D01*
X207604126Y-118355000D01*
X208015874Y-118355000D01*
X208396280Y-118197431D01*
X208687431Y-117906280D01*
X208845000Y-117525874D01*
X208845000Y-117114126D01*
X209795000Y-117114126D01*
X209795000Y-117525874D01*
X209952569Y-117906280D01*
X210243720Y-118197431D01*
X210624126Y-118355000D01*
X211035874Y-118355000D01*
X211416280Y-118197431D01*
X211707431Y-117906280D01*
X211865000Y-117525874D01*
X211865000Y-117114126D01*
X211707431Y-116733720D01*
X211416280Y-116442569D01*
X211035874Y-116285000D01*
X210624126Y-116285000D01*
X210243720Y-116442569D01*
X209952569Y-116733720D01*
X209795000Y-117114126D01*
X208845000Y-117114126D01*
X208687431Y-116733720D01*
X208396280Y-116442569D01*
X208015874Y-116285000D01*
X207604126Y-116285000D01*
X207223720Y-116442569D01*
X206932569Y-116733720D01*
X206775000Y-117114126D01*
X147677484Y-117114126D01*
X147587431Y-116896720D01*
X147296280Y-116605569D01*
X146915874Y-116448000D01*
X146504126Y-116448000D01*
X146123720Y-116605569D01*
X145832569Y-116896720D01*
X145675000Y-117277126D01*
X137172588Y-117277126D01*
X136915346Y-117019884D01*
X136360358Y-116790000D01*
X135759642Y-116790000D01*
X135204654Y-117019884D01*
X134810000Y-117414538D01*
X134415346Y-117019884D01*
X133860358Y-116790000D01*
X133259642Y-116790000D01*
X132704654Y-117019884D01*
X132310000Y-117414538D01*
X131915346Y-117019884D01*
X131360358Y-116790000D01*
X130759642Y-116790000D01*
X130204654Y-117019884D01*
X129779884Y-117444654D01*
X129550000Y-117999642D01*
X119246079Y-117999642D01*
X119234620Y-97340000D01*
X119925908Y-97340000D01*
X120041161Y-97919418D01*
X120369375Y-98410625D01*
X120667761Y-98610000D01*
X120369375Y-98809375D01*
X120041161Y-99300582D01*
X119925908Y-99880000D01*
X120041161Y-100459418D01*
X120369375Y-100950625D01*
X120667761Y-101150000D01*
X120369375Y-101349375D01*
X120041161Y-101840582D01*
X119925908Y-102420000D01*
X120041161Y-102999418D01*
X120369375Y-103490625D01*
X120667761Y-103690000D01*
X120369375Y-103889375D01*
X120041161Y-104380582D01*
X119925908Y-104960000D01*
X120041161Y-105539418D01*
X120369375Y-106030625D01*
X120667761Y-106230000D01*
X120369375Y-106429375D01*
X120041161Y-106920582D01*
X119925908Y-107500000D01*
X120041161Y-108079418D01*
X120369375Y-108570625D01*
X120667761Y-108770000D01*
X120369375Y-108969375D01*
X120041161Y-109460582D01*
X119925908Y-110040000D01*
X120041161Y-110619418D01*
X120369375Y-111110625D01*
X120667761Y-111310000D01*
X120369375Y-111509375D01*
X120041161Y-112000582D01*
X119925908Y-112580000D01*
X120041161Y-113159418D01*
X120369375Y-113650625D01*
X120667761Y-113850000D01*
X120369375Y-114049375D01*
X120041161Y-114540582D01*
X119925908Y-115120000D01*
X120041161Y-115699418D01*
X120369375Y-116190625D01*
X120860582Y-116518839D01*
X121293744Y-116605000D01*
X121586256Y-116605000D01*
X122019418Y-116518839D01*
X122510625Y-116190625D01*
X122838839Y-115699418D01*
X122954092Y-115120000D01*
X122838839Y-114540582D01*
X122510625Y-114049375D01*
X122212239Y-113850000D01*
X122510625Y-113650625D01*
X122574758Y-113554642D01*
X129550000Y-113554642D01*
X129550000Y-114155358D01*
X129779884Y-114710346D01*
X130204654Y-115135116D01*
X130759642Y-115365000D01*
X131360358Y-115365000D01*
X131915346Y-115135116D01*
X132310000Y-114740462D01*
X132704654Y-115135116D01*
X133259642Y-115365000D01*
X133860358Y-115365000D01*
X134415346Y-115135116D01*
X134810000Y-114740462D01*
X135204654Y-115135116D01*
X135759642Y-115365000D01*
X136360358Y-115365000D01*
X136915346Y-115135116D01*
X137340116Y-114710346D01*
X137471098Y-114394126D01*
X163025000Y-114394126D01*
X163025000Y-114805874D01*
X163182569Y-115186280D01*
X163473720Y-115477431D01*
X163854126Y-115635000D01*
X164265874Y-115635000D01*
X164461121Y-115554126D01*
X198815000Y-115554126D01*
X198815000Y-115965874D01*
X198972569Y-116346280D01*
X199263720Y-116637431D01*
X199644126Y-116795000D01*
X200055874Y-116795000D01*
X200436280Y-116637431D01*
X200565000Y-116508711D01*
X200693720Y-116637431D01*
X201074126Y-116795000D01*
X201485874Y-116795000D01*
X201866280Y-116637431D01*
X202157431Y-116346280D01*
X202315000Y-115965874D01*
X202315000Y-115554126D01*
X202174168Y-115214126D01*
X203675000Y-115214126D01*
X203675000Y-115625874D01*
X203832569Y-116006280D01*
X204123720Y-116297431D01*
X204504126Y-116455000D01*
X204915874Y-116455000D01*
X205296280Y-116297431D01*
X205587431Y-116006280D01*
X205745000Y-115625874D01*
X205745000Y-115214126D01*
X205587431Y-114833720D01*
X205296280Y-114542569D01*
X204915874Y-114385000D01*
X204504126Y-114385000D01*
X204123720Y-114542569D01*
X203832569Y-114833720D01*
X203675000Y-115214126D01*
X202174168Y-115214126D01*
X202157431Y-115173720D01*
X201866280Y-114882569D01*
X201485874Y-114725000D01*
X201074126Y-114725000D01*
X200693720Y-114882569D01*
X200565000Y-115011289D01*
X200436280Y-114882569D01*
X200055874Y-114725000D01*
X199644126Y-114725000D01*
X199263720Y-114882569D01*
X198972569Y-115173720D01*
X198815000Y-115554126D01*
X164461121Y-115554126D01*
X164646280Y-115477431D01*
X164937431Y-115186280D01*
X165095000Y-114805874D01*
X165095000Y-114394126D01*
X164937431Y-114013720D01*
X164646280Y-113722569D01*
X164265874Y-113565000D01*
X163854126Y-113565000D01*
X163473720Y-113722569D01*
X163182569Y-114013720D01*
X163025000Y-114394126D01*
X137471098Y-114394126D01*
X137570000Y-114155358D01*
X137570000Y-113554642D01*
X137340116Y-112999654D01*
X137172588Y-112832126D01*
X145675000Y-112832126D01*
X145675000Y-113243874D01*
X145832569Y-113624280D01*
X146123720Y-113915431D01*
X146504126Y-114073000D01*
X146915874Y-114073000D01*
X147296280Y-113915431D01*
X147587431Y-113624280D01*
X147745000Y-113243874D01*
X147745000Y-112832126D01*
X147642276Y-112584126D01*
X150465000Y-112584126D01*
X150465000Y-112995874D01*
X150622569Y-113376280D01*
X150913720Y-113667431D01*
X151294126Y-113825000D01*
X151705874Y-113825000D01*
X152086280Y-113667431D01*
X152377431Y-113376280D01*
X152535000Y-112995874D01*
X152535000Y-112584126D01*
X152377431Y-112203720D01*
X152337837Y-112164126D01*
X165505000Y-112164126D01*
X165505000Y-112575874D01*
X165662569Y-112956280D01*
X165953720Y-113247431D01*
X166334126Y-113405000D01*
X166745874Y-113405000D01*
X167126280Y-113247431D01*
X167417431Y-112956280D01*
X167571581Y-112584126D01*
X196775000Y-112584126D01*
X196775000Y-112995874D01*
X196932569Y-113376280D01*
X197223720Y-113667431D01*
X197604126Y-113825000D01*
X198015874Y-113825000D01*
X198396280Y-113667431D01*
X198687431Y-113376280D01*
X198845000Y-112995874D01*
X198845000Y-112584126D01*
X198687431Y-112203720D01*
X198396280Y-111912569D01*
X198015874Y-111755000D01*
X197604126Y-111755000D01*
X197223720Y-111912569D01*
X196932569Y-112203720D01*
X196775000Y-112584126D01*
X167571581Y-112584126D01*
X167575000Y-112575874D01*
X167575000Y-112164126D01*
X167417431Y-111783720D01*
X167126280Y-111492569D01*
X166745874Y-111335000D01*
X166334126Y-111335000D01*
X165953720Y-111492569D01*
X165662569Y-111783720D01*
X165505000Y-112164126D01*
X152337837Y-112164126D01*
X152086280Y-111912569D01*
X151705874Y-111755000D01*
X151294126Y-111755000D01*
X150913720Y-111912569D01*
X150622569Y-112203720D01*
X150465000Y-112584126D01*
X147642276Y-112584126D01*
X147587431Y-112451720D01*
X147296280Y-112160569D01*
X146915874Y-112003000D01*
X146504126Y-112003000D01*
X146123720Y-112160569D01*
X145832569Y-112451720D01*
X145675000Y-112832126D01*
X137172588Y-112832126D01*
X136915346Y-112574884D01*
X136360358Y-112345000D01*
X135759642Y-112345000D01*
X135204654Y-112574884D01*
X134810000Y-112969538D01*
X134415346Y-112574884D01*
X133860358Y-112345000D01*
X133259642Y-112345000D01*
X132704654Y-112574884D01*
X132310000Y-112969538D01*
X131915346Y-112574884D01*
X131360358Y-112345000D01*
X130759642Y-112345000D01*
X130204654Y-112574884D01*
X129779884Y-112999654D01*
X129550000Y-113554642D01*
X122574758Y-113554642D01*
X122838839Y-113159418D01*
X122954092Y-112580000D01*
X122838839Y-112000582D01*
X122510625Y-111509375D01*
X122212239Y-111310000D01*
X122510625Y-111110625D01*
X122838839Y-110619418D01*
X122954092Y-110040000D01*
X122838839Y-109460582D01*
X122604349Y-109109642D01*
X129550000Y-109109642D01*
X129550000Y-109710358D01*
X129779884Y-110265346D01*
X130204654Y-110690116D01*
X130759642Y-110920000D01*
X131360358Y-110920000D01*
X131915346Y-110690116D01*
X132310000Y-110295462D01*
X132704654Y-110690116D01*
X133259642Y-110920000D01*
X133860358Y-110920000D01*
X134415346Y-110690116D01*
X134810000Y-110295462D01*
X135204654Y-110690116D01*
X135759642Y-110920000D01*
X136360358Y-110920000D01*
X136915346Y-110690116D01*
X137340116Y-110265346D01*
X137394469Y-110134126D01*
X150685000Y-110134126D01*
X150685000Y-110545874D01*
X150842569Y-110926280D01*
X151133720Y-111217431D01*
X151514126Y-111375000D01*
X151925874Y-111375000D01*
X152306280Y-111217431D01*
X152597431Y-110926280D01*
X152693592Y-110694126D01*
X177175000Y-110694126D01*
X177175000Y-111105874D01*
X177332569Y-111486280D01*
X177623720Y-111777431D01*
X178004126Y-111935000D01*
X178415874Y-111935000D01*
X178796280Y-111777431D01*
X179087431Y-111486280D01*
X179245000Y-111105874D01*
X179245000Y-110694126D01*
X179087431Y-110313720D01*
X178796280Y-110022569D01*
X178415874Y-109865000D01*
X178004126Y-109865000D01*
X177623720Y-110022569D01*
X177332569Y-110313720D01*
X177175000Y-110694126D01*
X152693592Y-110694126D01*
X152755000Y-110545874D01*
X152755000Y-110134126D01*
X152597431Y-109753720D01*
X152306280Y-109462569D01*
X151925874Y-109305000D01*
X151514126Y-109305000D01*
X151133720Y-109462569D01*
X150842569Y-109753720D01*
X150685000Y-110134126D01*
X137394469Y-110134126D01*
X137570000Y-109710358D01*
X137570000Y-109109642D01*
X137340116Y-108554654D01*
X137172588Y-108387126D01*
X145675000Y-108387126D01*
X145675000Y-108798874D01*
X145832569Y-109179280D01*
X146123720Y-109470431D01*
X146504126Y-109628000D01*
X146915874Y-109628000D01*
X147296280Y-109470431D01*
X147587431Y-109179280D01*
X147745000Y-108798874D01*
X147745000Y-108387126D01*
X147587431Y-108006720D01*
X147296280Y-107715569D01*
X146915874Y-107558000D01*
X146504126Y-107558000D01*
X146123720Y-107715569D01*
X145832569Y-108006720D01*
X145675000Y-108387126D01*
X137172588Y-108387126D01*
X136915346Y-108129884D01*
X136360358Y-107900000D01*
X135759642Y-107900000D01*
X135204654Y-108129884D01*
X134810000Y-108524538D01*
X134415346Y-108129884D01*
X133860358Y-107900000D01*
X133259642Y-107900000D01*
X132704654Y-108129884D01*
X132310000Y-108524538D01*
X131915346Y-108129884D01*
X131360358Y-107900000D01*
X130759642Y-107900000D01*
X130204654Y-108129884D01*
X129779884Y-108554654D01*
X129550000Y-109109642D01*
X122604349Y-109109642D01*
X122510625Y-108969375D01*
X122212239Y-108770000D01*
X122510625Y-108570625D01*
X122838839Y-108079418D01*
X122954092Y-107500000D01*
X122838839Y-106920582D01*
X122510625Y-106429375D01*
X122212239Y-106230000D01*
X122510625Y-106030625D01*
X122838839Y-105539418D01*
X122954092Y-104960000D01*
X122895342Y-104664642D01*
X129550000Y-104664642D01*
X129550000Y-105265358D01*
X129779884Y-105820346D01*
X130204654Y-106245116D01*
X130759642Y-106475000D01*
X131360358Y-106475000D01*
X131915346Y-106245116D01*
X132310000Y-105850462D01*
X132704654Y-106245116D01*
X133259642Y-106475000D01*
X133860358Y-106475000D01*
X134415346Y-106245116D01*
X134810000Y-105850462D01*
X135204654Y-106245116D01*
X135759642Y-106475000D01*
X136360358Y-106475000D01*
X136915346Y-106245116D01*
X137340116Y-105820346D01*
X137437961Y-105584126D01*
X164035000Y-105584126D01*
X164035000Y-105995874D01*
X164192569Y-106376280D01*
X164376289Y-106560000D01*
X164232569Y-106703720D01*
X164075000Y-107084126D01*
X164075000Y-107495874D01*
X164232569Y-107876280D01*
X164523720Y-108167431D01*
X164904126Y-108325000D01*
X165315874Y-108325000D01*
X165383814Y-108296858D01*
X165412569Y-108366280D01*
X165703720Y-108657431D01*
X166084126Y-108815000D01*
X166495874Y-108815000D01*
X166876280Y-108657431D01*
X167167431Y-108366280D01*
X167325000Y-107985874D01*
X167325000Y-107574126D01*
X167167431Y-107193720D01*
X166876280Y-106902569D01*
X166495874Y-106745000D01*
X166084126Y-106745000D01*
X166016186Y-106773142D01*
X165987431Y-106703720D01*
X165803711Y-106520000D01*
X165947431Y-106376280D01*
X165988257Y-106277716D01*
X166054126Y-106305000D01*
X166465874Y-106305000D01*
X166846280Y-106147431D01*
X167137431Y-105856280D01*
X167295000Y-105475874D01*
X167295000Y-105190000D01*
X175285908Y-105190000D01*
X175401161Y-105769418D01*
X175729375Y-106260625D01*
X176027761Y-106460000D01*
X175729375Y-106659375D01*
X175401161Y-107150582D01*
X175285908Y-107730000D01*
X175401161Y-108309418D01*
X175729375Y-108800625D01*
X176220582Y-109128839D01*
X176653744Y-109215000D01*
X176946256Y-109215000D01*
X177379418Y-109128839D01*
X177870625Y-108800625D01*
X178071353Y-108500214D01*
X178458642Y-108925183D01*
X178983108Y-109171486D01*
X179213000Y-109050819D01*
X179213000Y-107857000D01*
X179467000Y-107857000D01*
X179467000Y-109050819D01*
X179696892Y-109171486D01*
X180221358Y-108925183D01*
X180611645Y-108496924D01*
X180781476Y-108086890D01*
X180660155Y-107857000D01*
X179467000Y-107857000D01*
X179213000Y-107857000D01*
X179193000Y-107857000D01*
X179193000Y-107603000D01*
X179213000Y-107603000D01*
X179213000Y-107583000D01*
X179467000Y-107583000D01*
X179467000Y-107603000D01*
X180660155Y-107603000D01*
X180781476Y-107373110D01*
X180611645Y-106963076D01*
X180221358Y-106534817D01*
X180091522Y-106473843D01*
X180410625Y-106260625D01*
X180738839Y-105769418D01*
X180831391Y-105304126D01*
X187875000Y-105304126D01*
X187875000Y-105715874D01*
X188032569Y-106096280D01*
X188323720Y-106387431D01*
X188704126Y-106545000D01*
X189115874Y-106545000D01*
X189496280Y-106387431D01*
X189787431Y-106096280D01*
X189945000Y-105715874D01*
X189945000Y-105304126D01*
X189787431Y-104923720D01*
X189496280Y-104632569D01*
X189115874Y-104475000D01*
X188704126Y-104475000D01*
X188323720Y-104632569D01*
X188032569Y-104923720D01*
X187875000Y-105304126D01*
X180831391Y-105304126D01*
X180854092Y-105190000D01*
X180738839Y-104610582D01*
X180410625Y-104119375D01*
X180283041Y-104034126D01*
X186175000Y-104034126D01*
X186175000Y-104445874D01*
X186332569Y-104826280D01*
X186623720Y-105117431D01*
X187004126Y-105275000D01*
X187415874Y-105275000D01*
X187796280Y-105117431D01*
X188087431Y-104826280D01*
X188245000Y-104445874D01*
X188245000Y-104034126D01*
X188087431Y-103653720D01*
X187796280Y-103362569D01*
X187415874Y-103205000D01*
X187004126Y-103205000D01*
X186623720Y-103362569D01*
X186332569Y-103653720D01*
X186175000Y-104034126D01*
X180283041Y-104034126D01*
X180112239Y-103920000D01*
X180410625Y-103720625D01*
X180738839Y-103229418D01*
X180751826Y-103164126D01*
X206265000Y-103164126D01*
X206265000Y-103575874D01*
X206422569Y-103956280D01*
X206713720Y-104247431D01*
X207094126Y-104405000D01*
X207505874Y-104405000D01*
X207886280Y-104247431D01*
X208177431Y-103956280D01*
X208335000Y-103575874D01*
X208335000Y-103194126D01*
X208895000Y-103194126D01*
X208895000Y-103605874D01*
X209052569Y-103986280D01*
X209343720Y-104277431D01*
X209724126Y-104435000D01*
X210135874Y-104435000D01*
X210516280Y-104277431D01*
X210807431Y-103986280D01*
X210965000Y-103605874D01*
X210965000Y-103194126D01*
X210807431Y-102813720D01*
X210516280Y-102522569D01*
X210135874Y-102365000D01*
X209724126Y-102365000D01*
X209343720Y-102522569D01*
X209052569Y-102813720D01*
X208895000Y-103194126D01*
X208335000Y-103194126D01*
X208335000Y-103164126D01*
X208177431Y-102783720D01*
X207886280Y-102492569D01*
X207505874Y-102335000D01*
X207094126Y-102335000D01*
X206713720Y-102492569D01*
X206422569Y-102783720D01*
X206265000Y-103164126D01*
X180751826Y-103164126D01*
X180854092Y-102650000D01*
X180738839Y-102070582D01*
X180410625Y-101579375D01*
X179919418Y-101251161D01*
X179486256Y-101165000D01*
X179193744Y-101165000D01*
X178760582Y-101251161D01*
X178269375Y-101579375D01*
X178257184Y-101597619D01*
X178248157Y-101552235D01*
X178107809Y-101342191D01*
X177897765Y-101201843D01*
X177650000Y-101152560D01*
X175950000Y-101152560D01*
X175702235Y-101201843D01*
X175492191Y-101342191D01*
X175351843Y-101552235D01*
X175302560Y-101800000D01*
X175302560Y-103500000D01*
X175351843Y-103747765D01*
X175492191Y-103957809D01*
X175702235Y-104098157D01*
X175747619Y-104107184D01*
X175729375Y-104119375D01*
X175401161Y-104610582D01*
X175285908Y-105190000D01*
X167295000Y-105190000D01*
X167295000Y-105064126D01*
X167137431Y-104683720D01*
X166846280Y-104392569D01*
X166465874Y-104235000D01*
X166437372Y-104235000D01*
X166495000Y-104095874D01*
X166495000Y-103684126D01*
X166337431Y-103303720D01*
X166046280Y-103012569D01*
X165665874Y-102855000D01*
X165254126Y-102855000D01*
X164873720Y-103012569D01*
X164582569Y-103303720D01*
X164425000Y-103684126D01*
X164425000Y-104095874D01*
X164582569Y-104476280D01*
X164862120Y-104755831D01*
X164483720Y-104912569D01*
X164192569Y-105203720D01*
X164035000Y-105584126D01*
X137437961Y-105584126D01*
X137570000Y-105265358D01*
X137570000Y-104664642D01*
X137340116Y-104109654D01*
X137172588Y-103942126D01*
X145675000Y-103942126D01*
X145675000Y-104353874D01*
X145832569Y-104734280D01*
X146123720Y-105025431D01*
X146504126Y-105183000D01*
X146915874Y-105183000D01*
X147296280Y-105025431D01*
X147587431Y-104734280D01*
X147745000Y-104353874D01*
X147745000Y-103942126D01*
X147587431Y-103561720D01*
X147296280Y-103270569D01*
X146915874Y-103113000D01*
X146504126Y-103113000D01*
X146123720Y-103270569D01*
X145832569Y-103561720D01*
X145675000Y-103942126D01*
X137172588Y-103942126D01*
X136915346Y-103684884D01*
X136360358Y-103455000D01*
X135759642Y-103455000D01*
X135204654Y-103684884D01*
X134810000Y-104079538D01*
X134415346Y-103684884D01*
X133860358Y-103455000D01*
X133259642Y-103455000D01*
X132704654Y-103684884D01*
X132310000Y-104079538D01*
X131915346Y-103684884D01*
X131360358Y-103455000D01*
X130759642Y-103455000D01*
X130204654Y-103684884D01*
X129779884Y-104109654D01*
X129550000Y-104664642D01*
X122895342Y-104664642D01*
X122838839Y-104380582D01*
X122510625Y-103889375D01*
X122212239Y-103690000D01*
X122510625Y-103490625D01*
X122838839Y-102999418D01*
X122954092Y-102420000D01*
X122838839Y-101840582D01*
X122510625Y-101349375D01*
X122212239Y-101150000D01*
X122510625Y-100950625D01*
X122838839Y-100459418D01*
X122886533Y-100219642D01*
X129550000Y-100219642D01*
X129550000Y-100820358D01*
X129779884Y-101375346D01*
X130204654Y-101800116D01*
X130759642Y-102030000D01*
X131360358Y-102030000D01*
X131915346Y-101800116D01*
X132310000Y-101405462D01*
X132704654Y-101800116D01*
X133259642Y-102030000D01*
X133860358Y-102030000D01*
X134415346Y-101800116D01*
X134810000Y-101405462D01*
X135204654Y-101800116D01*
X135759642Y-102030000D01*
X136360358Y-102030000D01*
X136915346Y-101800116D01*
X137340116Y-101375346D01*
X137543586Y-100884126D01*
X165045000Y-100884126D01*
X165045000Y-101295874D01*
X165202569Y-101676280D01*
X165493720Y-101967431D01*
X165874126Y-102125000D01*
X166285874Y-102125000D01*
X166666280Y-101967431D01*
X166957431Y-101676280D01*
X167115000Y-101295874D01*
X167115000Y-100884126D01*
X166957431Y-100503720D01*
X166666280Y-100212569D01*
X166285874Y-100055000D01*
X165874126Y-100055000D01*
X165493720Y-100212569D01*
X165202569Y-100503720D01*
X165045000Y-100884126D01*
X137543586Y-100884126D01*
X137570000Y-100820358D01*
X137570000Y-100219642D01*
X137340116Y-99664654D01*
X137172588Y-99497126D01*
X145675000Y-99497126D01*
X145675000Y-99908874D01*
X145832569Y-100289280D01*
X146123720Y-100580431D01*
X146504126Y-100738000D01*
X146915874Y-100738000D01*
X147296280Y-100580431D01*
X147587431Y-100289280D01*
X147745000Y-99908874D01*
X147745000Y-99497126D01*
X147587431Y-99116720D01*
X147296280Y-98825569D01*
X146915874Y-98668000D01*
X146504126Y-98668000D01*
X146123720Y-98825569D01*
X145832569Y-99116720D01*
X145675000Y-99497126D01*
X137172588Y-99497126D01*
X136915346Y-99239884D01*
X136360358Y-99010000D01*
X135759642Y-99010000D01*
X135204654Y-99239884D01*
X134810000Y-99634538D01*
X134415346Y-99239884D01*
X133860358Y-99010000D01*
X133259642Y-99010000D01*
X132704654Y-99239884D01*
X132310000Y-99634538D01*
X131915346Y-99239884D01*
X131360358Y-99010000D01*
X130759642Y-99010000D01*
X130204654Y-99239884D01*
X129779884Y-99664654D01*
X129550000Y-100219642D01*
X122886533Y-100219642D01*
X122954092Y-99880000D01*
X122838839Y-99300582D01*
X122510625Y-98809375D01*
X122212239Y-98610000D01*
X122510625Y-98410625D01*
X122795602Y-97984126D01*
X164485000Y-97984126D01*
X164485000Y-98395874D01*
X164642569Y-98776280D01*
X164933720Y-99067431D01*
X165314126Y-99225000D01*
X165725874Y-99225000D01*
X166106280Y-99067431D01*
X166397431Y-98776280D01*
X166555000Y-98395874D01*
X166555000Y-97984126D01*
X169295000Y-97984126D01*
X169295000Y-98395874D01*
X169452569Y-98776280D01*
X169743720Y-99067431D01*
X170124126Y-99225000D01*
X170535874Y-99225000D01*
X170916280Y-99067431D01*
X171207431Y-98776280D01*
X171307734Y-98534126D01*
X182015000Y-98534126D01*
X182015000Y-98945874D01*
X182172569Y-99326280D01*
X182463720Y-99617431D01*
X182844126Y-99775000D01*
X183255874Y-99775000D01*
X183545000Y-99655240D01*
X183545000Y-99795874D01*
X183702569Y-100176280D01*
X183993720Y-100467431D01*
X184374126Y-100625000D01*
X184641289Y-100625000D01*
X184602569Y-100663720D01*
X184445000Y-101044126D01*
X184445000Y-101455874D01*
X184602569Y-101836280D01*
X184893720Y-102127431D01*
X185274126Y-102285000D01*
X185685874Y-102285000D01*
X186066280Y-102127431D01*
X186357431Y-101836280D01*
X186515000Y-101455874D01*
X186515000Y-101044126D01*
X186357431Y-100663720D01*
X186066280Y-100372569D01*
X185685874Y-100215000D01*
X185418711Y-100215000D01*
X185457431Y-100176280D01*
X185615000Y-99795874D01*
X185615000Y-99384126D01*
X185495240Y-99095000D01*
X185685874Y-99095000D01*
X186028118Y-98953238D01*
X196414112Y-98953238D01*
X196414112Y-99364986D01*
X196571681Y-99745392D01*
X196862832Y-100036543D01*
X197243238Y-100194112D01*
X197654986Y-100194112D01*
X198035392Y-100036543D01*
X198326543Y-99745392D01*
X198484112Y-99364986D01*
X198484112Y-98953238D01*
X198326543Y-98572832D01*
X198035392Y-98281681D01*
X197654986Y-98124112D01*
X197243238Y-98124112D01*
X196862832Y-98281681D01*
X196571681Y-98572832D01*
X196414112Y-98953238D01*
X186028118Y-98953238D01*
X186066280Y-98937431D01*
X186357431Y-98646280D01*
X186515000Y-98265874D01*
X186515000Y-97854126D01*
X186357431Y-97473720D01*
X186066280Y-97182569D01*
X186063007Y-97181213D01*
X186096280Y-97167431D01*
X186387431Y-96876280D01*
X186545000Y-96495874D01*
X186545000Y-96204126D01*
X200495000Y-96204126D01*
X200495000Y-96615874D01*
X200652569Y-96996280D01*
X200943720Y-97287431D01*
X201324126Y-97445000D01*
X201335000Y-97445000D01*
X201335000Y-97685874D01*
X201492569Y-98066280D01*
X201783720Y-98357431D01*
X202105000Y-98490509D01*
X202105000Y-98605874D01*
X202262569Y-98986280D01*
X202553720Y-99277431D01*
X202934126Y-99435000D01*
X203345874Y-99435000D01*
X203726280Y-99277431D01*
X204017431Y-98986280D01*
X204175000Y-98605874D01*
X204175000Y-98194126D01*
X204017431Y-97813720D01*
X203726280Y-97522569D01*
X203405000Y-97389491D01*
X203405000Y-97274126D01*
X203247431Y-96893720D01*
X202956280Y-96602569D01*
X202575874Y-96445000D01*
X202565000Y-96445000D01*
X202565000Y-96204126D01*
X202407431Y-95823720D01*
X202116280Y-95532569D01*
X201735874Y-95375000D01*
X201324126Y-95375000D01*
X200943720Y-95532569D01*
X200652569Y-95823720D01*
X200495000Y-96204126D01*
X186545000Y-96204126D01*
X186545000Y-96084126D01*
X186387431Y-95703720D01*
X186096280Y-95412569D01*
X185715874Y-95255000D01*
X185304126Y-95255000D01*
X184923720Y-95412569D01*
X184632569Y-95703720D01*
X184475000Y-96084126D01*
X184475000Y-96205000D01*
X184384126Y-96205000D01*
X184003720Y-96362569D01*
X183712569Y-96653720D01*
X183555000Y-97034126D01*
X183555000Y-97445874D01*
X183712569Y-97826280D01*
X184003720Y-98117431D01*
X184384126Y-98275000D01*
X184448780Y-98275000D01*
X184564760Y-98555000D01*
X184374126Y-98555000D01*
X184085000Y-98674760D01*
X184085000Y-98534126D01*
X183927431Y-98153720D01*
X183636280Y-97862569D01*
X183255874Y-97705000D01*
X182844126Y-97705000D01*
X182463720Y-97862569D01*
X182172569Y-98153720D01*
X182015000Y-98534126D01*
X171307734Y-98534126D01*
X171365000Y-98395874D01*
X171365000Y-97984126D01*
X171207431Y-97603720D01*
X170916280Y-97312569D01*
X170535874Y-97155000D01*
X170124126Y-97155000D01*
X169743720Y-97312569D01*
X169452569Y-97603720D01*
X169295000Y-97984126D01*
X166555000Y-97984126D01*
X166397431Y-97603720D01*
X166106280Y-97312569D01*
X165725874Y-97155000D01*
X165314126Y-97155000D01*
X164933720Y-97312569D01*
X164642569Y-97603720D01*
X164485000Y-97984126D01*
X122795602Y-97984126D01*
X122838839Y-97919418D01*
X122954092Y-97340000D01*
X122838839Y-96760582D01*
X122510625Y-96269375D01*
X122492381Y-96257184D01*
X122537765Y-96248157D01*
X122747809Y-96107809D01*
X122888157Y-95897765D01*
X122912647Y-95774642D01*
X129550000Y-95774642D01*
X129550000Y-96375358D01*
X129779884Y-96930346D01*
X130204654Y-97355116D01*
X130759642Y-97585000D01*
X131360358Y-97585000D01*
X131915346Y-97355116D01*
X132310000Y-96960462D01*
X132704654Y-97355116D01*
X133259642Y-97585000D01*
X133860358Y-97585000D01*
X134415346Y-97355116D01*
X134810000Y-96960462D01*
X135204654Y-97355116D01*
X135759642Y-97585000D01*
X136360358Y-97585000D01*
X136915346Y-97355116D01*
X137340116Y-96930346D01*
X137454530Y-96654126D01*
X153575000Y-96654126D01*
X153575000Y-97065874D01*
X153732569Y-97446280D01*
X154023720Y-97737431D01*
X154404126Y-97895000D01*
X154815874Y-97895000D01*
X155196280Y-97737431D01*
X155487431Y-97446280D01*
X155645000Y-97065874D01*
X155645000Y-96654126D01*
X155487431Y-96273720D01*
X155196280Y-95982569D01*
X154815874Y-95825000D01*
X154404126Y-95825000D01*
X154023720Y-95982569D01*
X153732569Y-96273720D01*
X153575000Y-96654126D01*
X137454530Y-96654126D01*
X137570000Y-96375358D01*
X137570000Y-95774642D01*
X137340116Y-95219654D01*
X137172588Y-95052126D01*
X145675000Y-95052126D01*
X145675000Y-95463874D01*
X145832569Y-95844280D01*
X146123720Y-96135431D01*
X146504126Y-96293000D01*
X146915874Y-96293000D01*
X147296280Y-96135431D01*
X147587431Y-95844280D01*
X147745000Y-95463874D01*
X147745000Y-95052126D01*
X147687839Y-94914126D01*
X206845000Y-94914126D01*
X206845000Y-95325874D01*
X207002569Y-95706280D01*
X207293720Y-95997431D01*
X207674126Y-96155000D01*
X208085874Y-96155000D01*
X208466280Y-95997431D01*
X208757431Y-95706280D01*
X208915000Y-95325874D01*
X208915000Y-94914126D01*
X208757431Y-94533720D01*
X208466280Y-94242569D01*
X208085874Y-94085000D01*
X207674126Y-94085000D01*
X207293720Y-94242569D01*
X207002569Y-94533720D01*
X206845000Y-94914126D01*
X147687839Y-94914126D01*
X147587431Y-94671720D01*
X147296280Y-94380569D01*
X146915874Y-94223000D01*
X146504126Y-94223000D01*
X146123720Y-94380569D01*
X145832569Y-94671720D01*
X145675000Y-95052126D01*
X137172588Y-95052126D01*
X136915346Y-94794884D01*
X136360358Y-94565000D01*
X135759642Y-94565000D01*
X135204654Y-94794884D01*
X134810000Y-95189538D01*
X134415346Y-94794884D01*
X133860358Y-94565000D01*
X133259642Y-94565000D01*
X132704654Y-94794884D01*
X132310000Y-95189538D01*
X131915346Y-94794884D01*
X131360358Y-94565000D01*
X130759642Y-94565000D01*
X130204654Y-94794884D01*
X129779884Y-95219654D01*
X129550000Y-95774642D01*
X122912647Y-95774642D01*
X122937440Y-95650000D01*
X122937440Y-93950000D01*
X122888157Y-93702235D01*
X122747809Y-93492191D01*
X122537765Y-93351843D01*
X122290000Y-93302560D01*
X120590000Y-93302560D01*
X120342235Y-93351843D01*
X120132191Y-93492191D01*
X119991843Y-93702235D01*
X119942560Y-93950000D01*
X119942560Y-95650000D01*
X119991843Y-95897765D01*
X120132191Y-96107809D01*
X120342235Y-96248157D01*
X120387619Y-96257184D01*
X120369375Y-96269375D01*
X120041161Y-96760582D01*
X119925908Y-97340000D01*
X119234620Y-97340000D01*
X119231287Y-91329642D01*
X129550000Y-91329642D01*
X129550000Y-91930358D01*
X129779884Y-92485346D01*
X130204654Y-92910116D01*
X130759642Y-93140000D01*
X131360358Y-93140000D01*
X131915346Y-92910116D01*
X132310000Y-92515462D01*
X132704654Y-92910116D01*
X133259642Y-93140000D01*
X133860358Y-93140000D01*
X134415346Y-92910116D01*
X134810000Y-92515462D01*
X135204654Y-92910116D01*
X135759642Y-93140000D01*
X136360358Y-93140000D01*
X136915346Y-92910116D01*
X137340116Y-92485346D01*
X137570000Y-91930358D01*
X137570000Y-91329642D01*
X137340116Y-90774654D01*
X137172588Y-90607126D01*
X145675000Y-90607126D01*
X145675000Y-91018874D01*
X145832569Y-91399280D01*
X146123720Y-91690431D01*
X146504126Y-91848000D01*
X146915874Y-91848000D01*
X147296280Y-91690431D01*
X147587431Y-91399280D01*
X147745000Y-91018874D01*
X147745000Y-90607126D01*
X147587431Y-90226720D01*
X147454837Y-90094126D01*
X189315000Y-90094126D01*
X189315000Y-90505874D01*
X189472569Y-90886280D01*
X189763720Y-91177431D01*
X190144126Y-91335000D01*
X190555874Y-91335000D01*
X190936280Y-91177431D01*
X191227431Y-90886280D01*
X191385000Y-90505874D01*
X191385000Y-90094126D01*
X191227431Y-89713720D01*
X190936280Y-89422569D01*
X190555874Y-89265000D01*
X190144126Y-89265000D01*
X189763720Y-89422569D01*
X189472569Y-89713720D01*
X189315000Y-90094126D01*
X147454837Y-90094126D01*
X147296280Y-89935569D01*
X146915874Y-89778000D01*
X146504126Y-89778000D01*
X146123720Y-89935569D01*
X145832569Y-90226720D01*
X145675000Y-90607126D01*
X137172588Y-90607126D01*
X136915346Y-90349884D01*
X136360358Y-90120000D01*
X135759642Y-90120000D01*
X135204654Y-90349884D01*
X134810000Y-90744538D01*
X134415346Y-90349884D01*
X133860358Y-90120000D01*
X133259642Y-90120000D01*
X132704654Y-90349884D01*
X132310000Y-90744538D01*
X131915346Y-90349884D01*
X131360358Y-90120000D01*
X130759642Y-90120000D01*
X130204654Y-90349884D01*
X129779884Y-90774654D01*
X129550000Y-91329642D01*
X119231287Y-91329642D01*
X119228822Y-86884642D01*
X129550000Y-86884642D01*
X129550000Y-87485358D01*
X129779884Y-88040346D01*
X130204654Y-88465116D01*
X130759642Y-88695000D01*
X131360358Y-88695000D01*
X131915346Y-88465116D01*
X132310000Y-88070462D01*
X132704654Y-88465116D01*
X133259642Y-88695000D01*
X133860358Y-88695000D01*
X134415346Y-88465116D01*
X134810000Y-88070462D01*
X135204654Y-88465116D01*
X135759642Y-88695000D01*
X136360358Y-88695000D01*
X136915346Y-88465116D01*
X137340116Y-88040346D01*
X137491809Y-87674126D01*
X160385000Y-87674126D01*
X160385000Y-88085874D01*
X160542569Y-88466280D01*
X160833720Y-88757431D01*
X161214126Y-88915000D01*
X161625874Y-88915000D01*
X162006280Y-88757431D01*
X162297431Y-88466280D01*
X162455000Y-88085874D01*
X162455000Y-87674126D01*
X162297431Y-87293720D01*
X162006280Y-87002569D01*
X161625874Y-86845000D01*
X161214126Y-86845000D01*
X160833720Y-87002569D01*
X160542569Y-87293720D01*
X160385000Y-87674126D01*
X137491809Y-87674126D01*
X137570000Y-87485358D01*
X137570000Y-86884642D01*
X137340116Y-86329654D01*
X136915346Y-85904884D01*
X136360358Y-85675000D01*
X135759642Y-85675000D01*
X135204654Y-85904884D01*
X134810000Y-86299538D01*
X134415346Y-85904884D01*
X133860358Y-85675000D01*
X133259642Y-85675000D01*
X132704654Y-85904884D01*
X132310000Y-86299538D01*
X131915346Y-85904884D01*
X131360358Y-85675000D01*
X130759642Y-85675000D01*
X130204654Y-85904884D01*
X129779884Y-86329654D01*
X129550000Y-86884642D01*
X119228822Y-86884642D01*
X119226682Y-83024561D01*
X139035000Y-83024561D01*
X139035000Y-83595439D01*
X139253466Y-84122862D01*
X139657138Y-84526534D01*
X140184561Y-84745000D01*
X140755439Y-84745000D01*
X141282862Y-84526534D01*
X141686534Y-84122862D01*
X141868264Y-83684126D01*
X147015000Y-83684126D01*
X147015000Y-84095874D01*
X147172569Y-84476280D01*
X147463720Y-84767431D01*
X147844126Y-84925000D01*
X148255874Y-84925000D01*
X148636280Y-84767431D01*
X148927431Y-84476280D01*
X148932465Y-84464126D01*
X169225000Y-84464126D01*
X169225000Y-84875874D01*
X169382569Y-85256280D01*
X169673720Y-85547431D01*
X170054126Y-85705000D01*
X170465874Y-85705000D01*
X170846280Y-85547431D01*
X171137431Y-85256280D01*
X171295000Y-84875874D01*
X171295000Y-84464126D01*
X171137431Y-84083720D01*
X170846280Y-83792569D01*
X170465874Y-83635000D01*
X170054126Y-83635000D01*
X169673720Y-83792569D01*
X169382569Y-84083720D01*
X169225000Y-84464126D01*
X148932465Y-84464126D01*
X149085000Y-84095874D01*
X149085000Y-83684126D01*
X148927431Y-83303720D01*
X148817837Y-83194126D01*
X153225000Y-83194126D01*
X153225000Y-83605874D01*
X153382569Y-83986280D01*
X153673720Y-84277431D01*
X154054126Y-84435000D01*
X154465874Y-84435000D01*
X154846280Y-84277431D01*
X155137431Y-83986280D01*
X155295000Y-83605874D01*
X155295000Y-83194126D01*
X155137431Y-82813720D01*
X154846280Y-82522569D01*
X154465874Y-82365000D01*
X154054126Y-82365000D01*
X153673720Y-82522569D01*
X153382569Y-82813720D01*
X153225000Y-83194126D01*
X148817837Y-83194126D01*
X148636280Y-83012569D01*
X148255874Y-82855000D01*
X147844126Y-82855000D01*
X147463720Y-83012569D01*
X147172569Y-83303720D01*
X147015000Y-83684126D01*
X141868264Y-83684126D01*
X141905000Y-83595439D01*
X141905000Y-83024561D01*
X141686534Y-82497138D01*
X141282862Y-82093466D01*
X140755439Y-81875000D01*
X140184561Y-81875000D01*
X139657138Y-82093466D01*
X139253466Y-82497138D01*
X139035000Y-83024561D01*
X119226682Y-83024561D01*
X119225522Y-80934126D01*
X136135000Y-80934126D01*
X136135000Y-81345874D01*
X136292569Y-81726280D01*
X136583720Y-82017431D01*
X136964126Y-82175000D01*
X137375874Y-82175000D01*
X137756280Y-82017431D01*
X138047431Y-81726280D01*
X138205000Y-81345874D01*
X138205000Y-80934126D01*
X138047431Y-80553720D01*
X137756280Y-80262569D01*
X137375874Y-80105000D01*
X136964126Y-80105000D01*
X136583720Y-80262569D01*
X136292569Y-80553720D01*
X136135000Y-80934126D01*
X119225522Y-80934126D01*
X119223029Y-76438970D01*
X142645000Y-76438970D01*
X142645000Y-78261031D01*
X142739865Y-78737945D01*
X143101232Y-79278769D01*
X143642056Y-79640136D01*
X144280000Y-79767031D01*
X144917945Y-79640136D01*
X145458769Y-79278769D01*
X145820136Y-78737945D01*
X145915000Y-78261031D01*
X145915000Y-76438969D01*
X145897303Y-76350000D01*
X146462969Y-76350000D01*
X146589864Y-76987945D01*
X146951231Y-77528769D01*
X147492055Y-77890136D01*
X147968969Y-77985000D01*
X148325566Y-77985000D01*
X147967138Y-78133466D01*
X147563466Y-78537138D01*
X147345000Y-79064561D01*
X147345000Y-79635439D01*
X147563466Y-80162862D01*
X147967138Y-80566534D01*
X148494561Y-80785000D01*
X149065439Y-80785000D01*
X149592862Y-80566534D01*
X149996534Y-80162862D01*
X150215000Y-79635439D01*
X150215000Y-79064561D01*
X149996534Y-78537138D01*
X149592862Y-78133466D01*
X149234434Y-77985000D01*
X149591031Y-77985000D01*
X150067945Y-77890136D01*
X150608769Y-77528769D01*
X150970136Y-76987945D01*
X151079333Y-76438970D01*
X151645000Y-76438970D01*
X151645000Y-78261031D01*
X151739865Y-78737945D01*
X152101232Y-79278769D01*
X152642056Y-79640136D01*
X153280000Y-79767031D01*
X153917945Y-79640136D01*
X154067809Y-79540000D01*
X208135908Y-79540000D01*
X208251161Y-80119418D01*
X208579375Y-80610625D01*
X208877761Y-80810000D01*
X208579375Y-81009375D01*
X208251161Y-81500582D01*
X208135908Y-82080000D01*
X208251161Y-82659418D01*
X208579375Y-83150625D01*
X208877761Y-83350000D01*
X208579375Y-83549375D01*
X208251161Y-84040582D01*
X208135908Y-84620000D01*
X208251161Y-85199418D01*
X208579375Y-85690625D01*
X209070582Y-86018839D01*
X209503744Y-86105000D01*
X209796256Y-86105000D01*
X210229418Y-86018839D01*
X210720625Y-85690625D01*
X211048839Y-85199418D01*
X211164092Y-84620000D01*
X211048839Y-84040582D01*
X210720625Y-83549375D01*
X210422239Y-83350000D01*
X210720625Y-83150625D01*
X211048839Y-82659418D01*
X211164092Y-82080000D01*
X211048839Y-81500582D01*
X210720625Y-81009375D01*
X210422239Y-80810000D01*
X210720625Y-80610625D01*
X211048839Y-80119418D01*
X211164092Y-79540000D01*
X211048839Y-78960582D01*
X210720625Y-78469375D01*
X210401522Y-78256157D01*
X210531358Y-78195183D01*
X210921645Y-77766924D01*
X211091476Y-77356890D01*
X210970155Y-77127000D01*
X209777000Y-77127000D01*
X209777000Y-77147000D01*
X209523000Y-77147000D01*
X209523000Y-77127000D01*
X208329845Y-77127000D01*
X208208524Y-77356890D01*
X208378355Y-77766924D01*
X208768642Y-78195183D01*
X208898478Y-78256157D01*
X208579375Y-78469375D01*
X208251161Y-78960582D01*
X208135908Y-79540000D01*
X154067809Y-79540000D01*
X154458769Y-79278769D01*
X154820136Y-78737945D01*
X154915000Y-78261031D01*
X154915000Y-76742532D01*
X157617073Y-76742532D01*
X157715736Y-77009387D01*
X158325461Y-77235908D01*
X158975460Y-77211856D01*
X159464264Y-77009387D01*
X159562927Y-76742532D01*
X158590000Y-75769605D01*
X157617073Y-76742532D01*
X154915000Y-76742532D01*
X154915000Y-76438969D01*
X154820136Y-75962055D01*
X154458769Y-75421231D01*
X154315439Y-75325461D01*
X156944092Y-75325461D01*
X156968144Y-75975460D01*
X157170613Y-76464264D01*
X157437468Y-76562927D01*
X158410395Y-75590000D01*
X158769605Y-75590000D01*
X159742532Y-76562927D01*
X160009387Y-76464264D01*
X160235908Y-75854539D01*
X160214085Y-75264778D01*
X163455000Y-75264778D01*
X163455000Y-75915222D01*
X163703914Y-76516153D01*
X164163847Y-76976086D01*
X164764778Y-77225000D01*
X165415222Y-77225000D01*
X166016153Y-76976086D01*
X166476086Y-76516153D01*
X166725000Y-75915222D01*
X166725000Y-75264778D01*
X166476086Y-74663847D01*
X166016153Y-74203914D01*
X165415222Y-73955000D01*
X164764778Y-73955000D01*
X164163847Y-74203914D01*
X163703914Y-74663847D01*
X163455000Y-75264778D01*
X160214085Y-75264778D01*
X160211856Y-75204540D01*
X160009387Y-74715736D01*
X159742532Y-74617073D01*
X158769605Y-75590000D01*
X158410395Y-75590000D01*
X157437468Y-74617073D01*
X157170613Y-74715736D01*
X156944092Y-75325461D01*
X154315439Y-75325461D01*
X153917944Y-75059864D01*
X153280000Y-74932969D01*
X152642055Y-75059864D01*
X152101231Y-75421231D01*
X151739864Y-75962056D01*
X151645000Y-76438970D01*
X151079333Y-76438970D01*
X151097031Y-76350000D01*
X150970136Y-75712055D01*
X150608769Y-75171231D01*
X150067945Y-74809864D01*
X149591031Y-74715000D01*
X147968969Y-74715000D01*
X147492055Y-74809864D01*
X146951231Y-75171231D01*
X146589864Y-75712055D01*
X146462969Y-76350000D01*
X145897303Y-76350000D01*
X145820136Y-75962055D01*
X145458769Y-75421231D01*
X144917944Y-75059864D01*
X144280000Y-74932969D01*
X143642055Y-75059864D01*
X143101231Y-75421231D01*
X142739864Y-75962056D01*
X142645000Y-76438970D01*
X119223029Y-76438970D01*
X119220524Y-71925431D01*
X120415000Y-71925431D01*
X120415000Y-72814569D01*
X120755259Y-73636026D01*
X121383974Y-74264741D01*
X122205431Y-74605000D01*
X123094569Y-74605000D01*
X123499026Y-74437468D01*
X157617073Y-74437468D01*
X158590000Y-75410395D01*
X159562927Y-74437468D01*
X159464264Y-74170613D01*
X158854539Y-73944092D01*
X158204540Y-73968144D01*
X157715736Y-74170613D01*
X157617073Y-74437468D01*
X123499026Y-74437468D01*
X123916026Y-74264741D01*
X124544741Y-73636026D01*
X124885000Y-72814569D01*
X124885000Y-71925431D01*
X124544741Y-71103974D01*
X123916026Y-70475259D01*
X123251493Y-70200000D01*
X128162560Y-70200000D01*
X128162560Y-71900000D01*
X128211843Y-72147765D01*
X128352191Y-72357809D01*
X128562235Y-72498157D01*
X128810000Y-72547440D01*
X130510000Y-72547440D01*
X130757765Y-72498157D01*
X130967809Y-72357809D01*
X131108157Y-72147765D01*
X131128739Y-72044292D01*
X131433076Y-72321645D01*
X131843110Y-72491476D01*
X132073000Y-72370155D01*
X132073000Y-71177000D01*
X132327000Y-71177000D01*
X132327000Y-72370155D01*
X132556890Y-72491476D01*
X132966924Y-72321645D01*
X133053734Y-72242532D01*
X157617073Y-72242532D01*
X157715736Y-72509387D01*
X158325461Y-72735908D01*
X158975460Y-72711856D01*
X159464264Y-72509387D01*
X159562927Y-72242532D01*
X158590000Y-71269605D01*
X157617073Y-72242532D01*
X133053734Y-72242532D01*
X133395183Y-71931358D01*
X133641486Y-71406892D01*
X133520819Y-71177000D01*
X132327000Y-71177000D01*
X132073000Y-71177000D01*
X132053000Y-71177000D01*
X132053000Y-70923000D01*
X132073000Y-70923000D01*
X132073000Y-69729845D01*
X132327000Y-69729845D01*
X132327000Y-70923000D01*
X133520819Y-70923000D01*
X133641486Y-70693108D01*
X133395183Y-70168642D01*
X132966924Y-69778355D01*
X132556890Y-69608524D01*
X132327000Y-69729845D01*
X132073000Y-69729845D01*
X131843110Y-69608524D01*
X131433076Y-69778355D01*
X131128739Y-70055708D01*
X131108157Y-69952235D01*
X130967809Y-69742191D01*
X130757765Y-69601843D01*
X130510000Y-69552560D01*
X128810000Y-69552560D01*
X128562235Y-69601843D01*
X128352191Y-69742191D01*
X128211843Y-69952235D01*
X128162560Y-70200000D01*
X123251493Y-70200000D01*
X123094569Y-70135000D01*
X122205431Y-70135000D01*
X121383974Y-70475259D01*
X120755259Y-71103974D01*
X120415000Y-71925431D01*
X119220524Y-71925431D01*
X119220014Y-71006063D01*
X119279820Y-70536286D01*
X119440356Y-70143985D01*
X119696956Y-69806602D01*
X120032136Y-69547126D01*
X120423052Y-69383242D01*
X120887823Y-69320032D01*
X139798773Y-69332640D01*
X139798773Y-69332640D01*
G37*
X139798773Y-69332640D02*
X139435423Y-69575423D01*
X139118260Y-70050091D01*
X139006887Y-70610000D01*
X139118260Y-71169909D01*
X139435423Y-71644577D01*
X139910091Y-71961740D01*
X140328667Y-72045000D01*
X140611333Y-72045000D01*
X141029909Y-71961740D01*
X141504577Y-71644577D01*
X141821740Y-71169909D01*
X141927990Y-70635750D01*
X146145000Y-70635750D01*
X146145000Y-71476310D01*
X146241673Y-71709699D01*
X146420302Y-71888327D01*
X146653691Y-71985000D01*
X148494250Y-71985000D01*
X148653000Y-71826250D01*
X148653000Y-70477000D01*
X148907000Y-70477000D01*
X148907000Y-71826250D01*
X149065750Y-71985000D01*
X150906309Y-71985000D01*
X151139698Y-71888327D01*
X151318327Y-71709699D01*
X151415000Y-71476310D01*
X151415000Y-70825461D01*
X156944092Y-70825461D01*
X156968144Y-71475460D01*
X157170613Y-71964264D01*
X157437468Y-72062927D01*
X158410395Y-71090000D01*
X158769605Y-71090000D01*
X159742532Y-72062927D01*
X160009387Y-71964264D01*
X160235908Y-71354539D01*
X160214085Y-70764778D01*
X163455000Y-70764778D01*
X163455000Y-71415222D01*
X163703914Y-72016153D01*
X164163847Y-72476086D01*
X164764778Y-72725000D01*
X165415222Y-72725000D01*
X166016153Y-72476086D01*
X166476086Y-72016153D01*
X166542659Y-71855431D01*
X201785000Y-71855431D01*
X201785000Y-72744569D01*
X202125259Y-73566026D01*
X202753974Y-74194741D01*
X203575431Y-74535000D01*
X204464569Y-74535000D01*
X204645634Y-74460000D01*
X208135908Y-74460000D01*
X208251161Y-75039418D01*
X208579375Y-75530625D01*
X208898478Y-75743843D01*
X208768642Y-75804817D01*
X208378355Y-76233076D01*
X208208524Y-76643110D01*
X208329845Y-76873000D01*
X209523000Y-76873000D01*
X209523000Y-76853000D01*
X209777000Y-76853000D01*
X209777000Y-76873000D01*
X210970155Y-76873000D01*
X211091476Y-76643110D01*
X210921645Y-76233076D01*
X210531358Y-75804817D01*
X210401522Y-75743843D01*
X210720625Y-75530625D01*
X211048839Y-75039418D01*
X211164092Y-74460000D01*
X211048839Y-73880582D01*
X210720625Y-73389375D01*
X210702381Y-73377184D01*
X210747765Y-73368157D01*
X210957809Y-73227809D01*
X211098157Y-73017765D01*
X211147440Y-72770000D01*
X211147440Y-71070000D01*
X211098157Y-70822235D01*
X210957809Y-70612191D01*
X210747765Y-70471843D01*
X210500000Y-70422560D01*
X208800000Y-70422560D01*
X208552235Y-70471843D01*
X208342191Y-70612191D01*
X208201843Y-70822235D01*
X208152560Y-71070000D01*
X208152560Y-72770000D01*
X208201843Y-73017765D01*
X208342191Y-73227809D01*
X208552235Y-73368157D01*
X208597619Y-73377184D01*
X208579375Y-73389375D01*
X208251161Y-73880582D01*
X208135908Y-74460000D01*
X204645634Y-74460000D01*
X205286026Y-74194741D01*
X205914741Y-73566026D01*
X206255000Y-72744569D01*
X206255000Y-71855431D01*
X205914741Y-71033974D01*
X205286026Y-70405259D01*
X204464569Y-70065000D01*
X203575431Y-70065000D01*
X202753974Y-70405259D01*
X202125259Y-71033974D01*
X201785000Y-71855431D01*
X166542659Y-71855431D01*
X166725000Y-71415222D01*
X166725000Y-70764778D01*
X166476086Y-70163847D01*
X166016153Y-69703914D01*
X165415222Y-69455000D01*
X164764778Y-69455000D01*
X164163847Y-69703914D01*
X163703914Y-70163847D01*
X163455000Y-70764778D01*
X160214085Y-70764778D01*
X160211856Y-70704540D01*
X160009387Y-70215736D01*
X159742532Y-70117073D01*
X158769605Y-71090000D01*
X158410395Y-71090000D01*
X157437468Y-70117073D01*
X157170613Y-70215736D01*
X156944092Y-70825461D01*
X151415000Y-70825461D01*
X151415000Y-70635750D01*
X151256250Y-70477000D01*
X148907000Y-70477000D01*
X148653000Y-70477000D01*
X146303750Y-70477000D01*
X146145000Y-70635750D01*
X141927990Y-70635750D01*
X141933113Y-70610000D01*
X141821740Y-70050091D01*
X141504577Y-69575423D01*
X141142568Y-69333536D01*
X146145000Y-69336872D01*
X146145000Y-70064250D01*
X146303750Y-70223000D01*
X148653000Y-70223000D01*
X148653000Y-70203000D01*
X148907000Y-70203000D01*
X148907000Y-70223000D01*
X151256250Y-70223000D01*
X151415000Y-70064250D01*
X151415000Y-69937468D01*
X157617073Y-69937468D01*
X158590000Y-70910395D01*
X159562927Y-69937468D01*
X159464264Y-69670613D01*
X158854539Y-69444092D01*
X158204540Y-69468144D01*
X157715736Y-69670613D01*
X157617073Y-69937468D01*
X151415000Y-69937468D01*
X151415000Y-69340385D01*
X210783578Y-69379969D01*
X211253714Y-69439820D01*
X211646015Y-69600356D01*
X211983398Y-69856956D01*
X212242874Y-70192136D01*
X212406758Y-70583052D01*
X212469973Y-71047862D01*
X212440014Y-125074871D01*
X212380349Y-125543548D01*
X212219814Y-125935846D01*
X211963213Y-126273232D01*
X211628033Y-126532707D01*
X211237117Y-126696591D01*
X210771106Y-126759970D01*
X205217621Y-126755647D01*
X205482878Y-126436617D01*
X205623585Y-125983237D01*
X205623585Y-125658237D01*
X204540585Y-125658237D01*
X204540585Y-125678237D01*
X204286585Y-125678237D01*
X204286585Y-125658237D01*
X203203585Y-125658237D01*
X203203585Y-125983237D01*
X203344292Y-126436617D01*
X203608508Y-126754395D01*
X197472633Y-126749619D01*
X197732878Y-126436617D01*
X197873585Y-125983237D01*
X197873585Y-125658237D01*
X196790585Y-125658237D01*
X196790585Y-125678237D01*
X196536585Y-125678237D01*
X196536585Y-125658237D01*
X195453585Y-125658237D01*
X195453585Y-125983237D01*
X195594292Y-126436617D01*
X195853489Y-126748358D01*
X188170174Y-126742378D01*
X188235000Y-126585874D01*
X188235000Y-126174126D01*
X188077431Y-125793720D01*
X187786280Y-125502569D01*
X187405874Y-125345000D01*
X186994126Y-125345000D01*
X186613720Y-125502569D01*
X186322569Y-125793720D01*
X186165000Y-126174126D01*
X186165000Y-126585874D01*
X186229200Y-126740867D01*
X120936521Y-126690044D01*
X120466285Y-126630180D01*
X120073987Y-126469645D01*
X119736601Y-126213044D01*
X119477126Y-125877864D01*
X119313242Y-125486948D01*
X119249973Y-125021742D01*
X119248955Y-123185431D01*
X120415000Y-123185431D01*
X120415000Y-124074569D01*
X120755259Y-124896026D01*
X121383974Y-125524741D01*
X122205431Y-125865000D01*
X123094569Y-125865000D01*
X123916026Y-125524741D01*
X124544741Y-124896026D01*
X124754706Y-124389126D01*
X145675000Y-124389126D01*
X145675000Y-124800874D01*
X145832569Y-125181280D01*
X146123720Y-125472431D01*
X146504126Y-125630000D01*
X146915874Y-125630000D01*
X147296280Y-125472431D01*
X147587431Y-125181280D01*
X147629698Y-125079237D01*
X195453585Y-125079237D01*
X195453585Y-125404237D01*
X196536585Y-125404237D01*
X196536585Y-124162687D01*
X196790585Y-124162687D01*
X196790585Y-125404237D01*
X197873585Y-125404237D01*
X197873585Y-125079237D01*
X203203585Y-125079237D01*
X203203585Y-125404237D01*
X204286585Y-125404237D01*
X204286585Y-124162687D01*
X204540585Y-124162687D01*
X204540585Y-125404237D01*
X205623585Y-125404237D01*
X205623585Y-125079237D01*
X205482878Y-124625857D01*
X205179381Y-124260835D01*
X204759299Y-124039742D01*
X204727262Y-124037602D01*
X204540585Y-124162687D01*
X204286585Y-124162687D01*
X204099908Y-124037602D01*
X204067871Y-124039742D01*
X203647789Y-124260835D01*
X203344292Y-124625857D01*
X203203585Y-125079237D01*
X197873585Y-125079237D01*
X197732878Y-124625857D01*
X197429381Y-124260835D01*
X197009299Y-124039742D01*
X196977262Y-124037602D01*
X196790585Y-124162687D01*
X196536585Y-124162687D01*
X196349908Y-124037602D01*
X196317871Y-124039742D01*
X195897789Y-124260835D01*
X195594292Y-124625857D01*
X195453585Y-125079237D01*
X147629698Y-125079237D01*
X147745000Y-124800874D01*
X147745000Y-124389126D01*
X147587431Y-124008720D01*
X147296280Y-123717569D01*
X146915874Y-123560000D01*
X146504126Y-123560000D01*
X146123720Y-123717569D01*
X145832569Y-124008720D01*
X145675000Y-124389126D01*
X124754706Y-124389126D01*
X124885000Y-124074569D01*
X124885000Y-123185431D01*
X124578155Y-122444642D01*
X129605880Y-122444642D01*
X129605880Y-123045358D01*
X129835764Y-123600346D01*
X130260534Y-124025116D01*
X130815522Y-124255000D01*
X131416238Y-124255000D01*
X131971226Y-124025116D01*
X132365880Y-123630462D01*
X132760534Y-124025116D01*
X133315522Y-124255000D01*
X133916238Y-124255000D01*
X134471226Y-124025116D01*
X134865880Y-123630462D01*
X135260534Y-124025116D01*
X135815522Y-124255000D01*
X136416238Y-124255000D01*
X136971226Y-124025116D01*
X137395996Y-123600346D01*
X137625880Y-123045358D01*
X137625880Y-122444642D01*
X137395996Y-121889654D01*
X136971226Y-121464884D01*
X136416238Y-121235000D01*
X135815522Y-121235000D01*
X135260534Y-121464884D01*
X134865880Y-121859538D01*
X134471226Y-121464884D01*
X133916238Y-121235000D01*
X133315522Y-121235000D01*
X132760534Y-121464884D01*
X132365880Y-121859538D01*
X131971226Y-121464884D01*
X131416238Y-121235000D01*
X130815522Y-121235000D01*
X130260534Y-121464884D01*
X129835764Y-121889654D01*
X129605880Y-122444642D01*
X124578155Y-122444642D01*
X124544741Y-122363974D01*
X123916026Y-121735259D01*
X123094569Y-121395000D01*
X122205431Y-121395000D01*
X121383974Y-121735259D01*
X120755259Y-122363974D01*
X120415000Y-123185431D01*
X119248955Y-123185431D01*
X119247696Y-120914126D01*
X153575000Y-120914126D01*
X153575000Y-121325874D01*
X153732569Y-121706280D01*
X154023720Y-121997431D01*
X154404126Y-122155000D01*
X154815874Y-122155000D01*
X155196280Y-121997431D01*
X155199585Y-121994126D01*
X158485000Y-121994126D01*
X158485000Y-122405874D01*
X158642569Y-122786280D01*
X158933720Y-123077431D01*
X159314126Y-123235000D01*
X159725874Y-123235000D01*
X160106280Y-123077431D01*
X160397431Y-122786280D01*
X160555000Y-122405874D01*
X160555000Y-121994126D01*
X160498714Y-121858237D01*
X195453585Y-121858237D01*
X195453585Y-122133237D01*
X195605710Y-122644019D01*
X195941723Y-123057704D01*
X196410469Y-123311313D01*
X196476327Y-123323756D01*
X196686585Y-123200755D01*
X196686585Y-121858237D01*
X196940585Y-121858237D01*
X196940585Y-123200755D01*
X197150843Y-123323756D01*
X197155690Y-123322840D01*
X197292392Y-123527430D01*
X197634748Y-123756185D01*
X197936650Y-123816237D01*
X198140520Y-123816237D01*
X198442422Y-123756185D01*
X198784778Y-123527430D01*
X199013533Y-123185074D01*
X199093861Y-122781237D01*
X201983309Y-122781237D01*
X202063637Y-123185074D01*
X202292392Y-123527430D01*
X202634748Y-123756185D01*
X202936650Y-123816237D01*
X203140520Y-123816237D01*
X203442422Y-123756185D01*
X203784778Y-123527430D01*
X203921480Y-123322840D01*
X203926327Y-123323756D01*
X204136585Y-123200755D01*
X204136585Y-121858237D01*
X204390585Y-121858237D01*
X204390585Y-123200755D01*
X204600843Y-123323756D01*
X204666701Y-123311313D01*
X204899368Y-123185431D01*
X206885000Y-123185431D01*
X206885000Y-124074569D01*
X207225259Y-124896026D01*
X207853974Y-125524741D01*
X208675431Y-125865000D01*
X209564569Y-125865000D01*
X210386026Y-125524741D01*
X211014741Y-124896026D01*
X211355000Y-124074569D01*
X211355000Y-123185431D01*
X211014741Y-122363974D01*
X210386026Y-121735259D01*
X209564569Y-121395000D01*
X208675431Y-121395000D01*
X207853974Y-121735259D01*
X207225259Y-122363974D01*
X206885000Y-123185431D01*
X204899368Y-123185431D01*
X205135447Y-123057704D01*
X205471460Y-122644019D01*
X205623585Y-122133237D01*
X205623585Y-121858237D01*
X204390585Y-121858237D01*
X204136585Y-121858237D01*
X203520168Y-121858237D01*
X203442422Y-121806289D01*
X203140520Y-121746237D01*
X202936650Y-121746237D01*
X202634748Y-121806289D01*
X202292392Y-122035044D01*
X202063637Y-122377400D01*
X201983309Y-122781237D01*
X199093861Y-122781237D01*
X199013533Y-122377400D01*
X198784778Y-122035044D01*
X198442422Y-121806289D01*
X198140520Y-121746237D01*
X197936650Y-121746237D01*
X197634748Y-121806289D01*
X197557002Y-121858237D01*
X196940585Y-121858237D01*
X196686585Y-121858237D01*
X195453585Y-121858237D01*
X160498714Y-121858237D01*
X160397431Y-121613720D01*
X160112948Y-121329237D01*
X195453585Y-121329237D01*
X195453585Y-121604237D01*
X196686585Y-121604237D01*
X196686585Y-120261719D01*
X196940585Y-120261719D01*
X196940585Y-121604237D01*
X198173585Y-121604237D01*
X198173585Y-121329237D01*
X202903585Y-121329237D01*
X202903585Y-121604237D01*
X204136585Y-121604237D01*
X204136585Y-120261719D01*
X204390585Y-120261719D01*
X204390585Y-121604237D01*
X205623585Y-121604237D01*
X205623585Y-121329237D01*
X205471460Y-120818455D01*
X205135447Y-120404770D01*
X204666701Y-120151161D01*
X204600843Y-120138718D01*
X204390585Y-120261719D01*
X204136585Y-120261719D01*
X203926327Y-120138718D01*
X203860469Y-120151161D01*
X203391723Y-120404770D01*
X203055710Y-120818455D01*
X202903585Y-121329237D01*
X198173585Y-121329237D01*
X198021460Y-120818455D01*
X197685447Y-120404770D01*
X197216701Y-120151161D01*
X197150843Y-120138718D01*
X196940585Y-120261719D01*
X196686585Y-120261719D01*
X196476327Y-120138718D01*
X196410469Y-120151161D01*
X195941723Y-120404770D01*
X195605710Y-120818455D01*
X195453585Y-121329237D01*
X160112948Y-121329237D01*
X160106280Y-121322569D01*
X159725874Y-121165000D01*
X159314126Y-121165000D01*
X158933720Y-121322569D01*
X158642569Y-121613720D01*
X158485000Y-121994126D01*
X155199585Y-121994126D01*
X155487431Y-121706280D01*
X155645000Y-121325874D01*
X155645000Y-120914126D01*
X155487431Y-120533720D01*
X155196280Y-120242569D01*
X154815874Y-120085000D01*
X154404126Y-120085000D01*
X154023720Y-120242569D01*
X153732569Y-120533720D01*
X153575000Y-120914126D01*
X119247696Y-120914126D01*
X119246079Y-117999642D01*
X129550000Y-117999642D01*
X129550000Y-118600358D01*
X129779884Y-119155346D01*
X130204654Y-119580116D01*
X130759642Y-119810000D01*
X131360358Y-119810000D01*
X131915346Y-119580116D01*
X132310000Y-119185462D01*
X132704654Y-119580116D01*
X133259642Y-119810000D01*
X133860358Y-119810000D01*
X134415346Y-119580116D01*
X134810000Y-119185462D01*
X135204654Y-119580116D01*
X135759642Y-119810000D01*
X136360358Y-119810000D01*
X136905665Y-119584126D01*
X156475000Y-119584126D01*
X156475000Y-119995874D01*
X156632569Y-120376280D01*
X156923720Y-120667431D01*
X157304126Y-120825000D01*
X157715874Y-120825000D01*
X158096280Y-120667431D01*
X158387431Y-120376280D01*
X158545000Y-119995874D01*
X158545000Y-119754126D01*
X182405000Y-119754126D01*
X182405000Y-120165874D01*
X182562569Y-120546280D01*
X182853720Y-120837431D01*
X183234126Y-120995000D01*
X183645874Y-120995000D01*
X184026280Y-120837431D01*
X184317431Y-120546280D01*
X184475000Y-120165874D01*
X184475000Y-119754126D01*
X184317431Y-119373720D01*
X184026280Y-119082569D01*
X183645874Y-118925000D01*
X183234126Y-118925000D01*
X182853720Y-119082569D01*
X182562569Y-119373720D01*
X182405000Y-119754126D01*
X158545000Y-119754126D01*
X158545000Y-119584126D01*
X158387431Y-119203720D01*
X158096280Y-118912569D01*
X157715874Y-118755000D01*
X157304126Y-118755000D01*
X156923720Y-118912569D01*
X156632569Y-119203720D01*
X156475000Y-119584126D01*
X136905665Y-119584126D01*
X136915346Y-119580116D01*
X137340116Y-119155346D01*
X137570000Y-118600358D01*
X137570000Y-117999642D01*
X137340116Y-117444654D01*
X137172588Y-117277126D01*
X145675000Y-117277126D01*
X145675000Y-117688874D01*
X145832569Y-118069280D01*
X146123720Y-118360431D01*
X146504126Y-118518000D01*
X146915874Y-118518000D01*
X147296280Y-118360431D01*
X147587431Y-118069280D01*
X147745000Y-117688874D01*
X147745000Y-117277126D01*
X147677484Y-117114126D01*
X206775000Y-117114126D01*
X206775000Y-117525874D01*
X206932569Y-117906280D01*
X207223720Y-118197431D01*
X207604126Y-118355000D01*
X208015874Y-118355000D01*
X208396280Y-118197431D01*
X208687431Y-117906280D01*
X208845000Y-117525874D01*
X208845000Y-117114126D01*
X209795000Y-117114126D01*
X209795000Y-117525874D01*
X209952569Y-117906280D01*
X210243720Y-118197431D01*
X210624126Y-118355000D01*
X211035874Y-118355000D01*
X211416280Y-118197431D01*
X211707431Y-117906280D01*
X211865000Y-117525874D01*
X211865000Y-117114126D01*
X211707431Y-116733720D01*
X211416280Y-116442569D01*
X211035874Y-116285000D01*
X210624126Y-116285000D01*
X210243720Y-116442569D01*
X209952569Y-116733720D01*
X209795000Y-117114126D01*
X208845000Y-117114126D01*
X208687431Y-116733720D01*
X208396280Y-116442569D01*
X208015874Y-116285000D01*
X207604126Y-116285000D01*
X207223720Y-116442569D01*
X206932569Y-116733720D01*
X206775000Y-117114126D01*
X147677484Y-117114126D01*
X147587431Y-116896720D01*
X147296280Y-116605569D01*
X146915874Y-116448000D01*
X146504126Y-116448000D01*
X146123720Y-116605569D01*
X145832569Y-116896720D01*
X145675000Y-117277126D01*
X137172588Y-117277126D01*
X136915346Y-117019884D01*
X136360358Y-116790000D01*
X135759642Y-116790000D01*
X135204654Y-117019884D01*
X134810000Y-117414538D01*
X134415346Y-117019884D01*
X133860358Y-116790000D01*
X133259642Y-116790000D01*
X132704654Y-117019884D01*
X132310000Y-117414538D01*
X131915346Y-117019884D01*
X131360358Y-116790000D01*
X130759642Y-116790000D01*
X130204654Y-117019884D01*
X129779884Y-117444654D01*
X129550000Y-117999642D01*
X119246079Y-117999642D01*
X119234620Y-97340000D01*
X119925908Y-97340000D01*
X120041161Y-97919418D01*
X120369375Y-98410625D01*
X120667761Y-98610000D01*
X120369375Y-98809375D01*
X120041161Y-99300582D01*
X119925908Y-99880000D01*
X120041161Y-100459418D01*
X120369375Y-100950625D01*
X120667761Y-101150000D01*
X120369375Y-101349375D01*
X120041161Y-101840582D01*
X119925908Y-102420000D01*
X120041161Y-102999418D01*
X120369375Y-103490625D01*
X120667761Y-103690000D01*
X120369375Y-103889375D01*
X120041161Y-104380582D01*
X119925908Y-104960000D01*
X120041161Y-105539418D01*
X120369375Y-106030625D01*
X120667761Y-106230000D01*
X120369375Y-106429375D01*
X120041161Y-106920582D01*
X119925908Y-107500000D01*
X120041161Y-108079418D01*
X120369375Y-108570625D01*
X120667761Y-108770000D01*
X120369375Y-108969375D01*
X120041161Y-109460582D01*
X119925908Y-110040000D01*
X120041161Y-110619418D01*
X120369375Y-111110625D01*
X120667761Y-111310000D01*
X120369375Y-111509375D01*
X120041161Y-112000582D01*
X119925908Y-112580000D01*
X120041161Y-113159418D01*
X120369375Y-113650625D01*
X120667761Y-113850000D01*
X120369375Y-114049375D01*
X120041161Y-114540582D01*
X119925908Y-115120000D01*
X120041161Y-115699418D01*
X120369375Y-116190625D01*
X120860582Y-116518839D01*
X121293744Y-116605000D01*
X121586256Y-116605000D01*
X122019418Y-116518839D01*
X122510625Y-116190625D01*
X122838839Y-115699418D01*
X122954092Y-115120000D01*
X122838839Y-114540582D01*
X122510625Y-114049375D01*
X122212239Y-113850000D01*
X122510625Y-113650625D01*
X122574758Y-113554642D01*
X129550000Y-113554642D01*
X129550000Y-114155358D01*
X129779884Y-114710346D01*
X130204654Y-115135116D01*
X130759642Y-115365000D01*
X131360358Y-115365000D01*
X131915346Y-115135116D01*
X132310000Y-114740462D01*
X132704654Y-115135116D01*
X133259642Y-115365000D01*
X133860358Y-115365000D01*
X134415346Y-115135116D01*
X134810000Y-114740462D01*
X135204654Y-115135116D01*
X135759642Y-115365000D01*
X136360358Y-115365000D01*
X136915346Y-115135116D01*
X137340116Y-114710346D01*
X137471098Y-114394126D01*
X163025000Y-114394126D01*
X163025000Y-114805874D01*
X163182569Y-115186280D01*
X163473720Y-115477431D01*
X163854126Y-115635000D01*
X164265874Y-115635000D01*
X164461121Y-115554126D01*
X198815000Y-115554126D01*
X198815000Y-115965874D01*
X198972569Y-116346280D01*
X199263720Y-116637431D01*
X199644126Y-116795000D01*
X200055874Y-116795000D01*
X200436280Y-116637431D01*
X200565000Y-116508711D01*
X200693720Y-116637431D01*
X201074126Y-116795000D01*
X201485874Y-116795000D01*
X201866280Y-116637431D01*
X202157431Y-116346280D01*
X202315000Y-115965874D01*
X202315000Y-115554126D01*
X202174168Y-115214126D01*
X203675000Y-115214126D01*
X203675000Y-115625874D01*
X203832569Y-116006280D01*
X204123720Y-116297431D01*
X204504126Y-116455000D01*
X204915874Y-116455000D01*
X205296280Y-116297431D01*
X205587431Y-116006280D01*
X205745000Y-115625874D01*
X205745000Y-115214126D01*
X205587431Y-114833720D01*
X205296280Y-114542569D01*
X204915874Y-114385000D01*
X204504126Y-114385000D01*
X204123720Y-114542569D01*
X203832569Y-114833720D01*
X203675000Y-115214126D01*
X202174168Y-115214126D01*
X202157431Y-115173720D01*
X201866280Y-114882569D01*
X201485874Y-114725000D01*
X201074126Y-114725000D01*
X200693720Y-114882569D01*
X200565000Y-115011289D01*
X200436280Y-114882569D01*
X200055874Y-114725000D01*
X199644126Y-114725000D01*
X199263720Y-114882569D01*
X198972569Y-115173720D01*
X198815000Y-115554126D01*
X164461121Y-115554126D01*
X164646280Y-115477431D01*
X164937431Y-115186280D01*
X165095000Y-114805874D01*
X165095000Y-114394126D01*
X164937431Y-114013720D01*
X164646280Y-113722569D01*
X164265874Y-113565000D01*
X163854126Y-113565000D01*
X163473720Y-113722569D01*
X163182569Y-114013720D01*
X163025000Y-114394126D01*
X137471098Y-114394126D01*
X137570000Y-114155358D01*
X137570000Y-113554642D01*
X137340116Y-112999654D01*
X137172588Y-112832126D01*
X145675000Y-112832126D01*
X145675000Y-113243874D01*
X145832569Y-113624280D01*
X146123720Y-113915431D01*
X146504126Y-114073000D01*
X146915874Y-114073000D01*
X147296280Y-113915431D01*
X147587431Y-113624280D01*
X147745000Y-113243874D01*
X147745000Y-112832126D01*
X147642276Y-112584126D01*
X150465000Y-112584126D01*
X150465000Y-112995874D01*
X150622569Y-113376280D01*
X150913720Y-113667431D01*
X151294126Y-113825000D01*
X151705874Y-113825000D01*
X152086280Y-113667431D01*
X152377431Y-113376280D01*
X152535000Y-112995874D01*
X152535000Y-112584126D01*
X152377431Y-112203720D01*
X152337837Y-112164126D01*
X165505000Y-112164126D01*
X165505000Y-112575874D01*
X165662569Y-112956280D01*
X165953720Y-113247431D01*
X166334126Y-113405000D01*
X166745874Y-113405000D01*
X167126280Y-113247431D01*
X167417431Y-112956280D01*
X167571581Y-112584126D01*
X196775000Y-112584126D01*
X196775000Y-112995874D01*
X196932569Y-113376280D01*
X197223720Y-113667431D01*
X197604126Y-113825000D01*
X198015874Y-113825000D01*
X198396280Y-113667431D01*
X198687431Y-113376280D01*
X198845000Y-112995874D01*
X198845000Y-112584126D01*
X198687431Y-112203720D01*
X198396280Y-111912569D01*
X198015874Y-111755000D01*
X197604126Y-111755000D01*
X197223720Y-111912569D01*
X196932569Y-112203720D01*
X196775000Y-112584126D01*
X167571581Y-112584126D01*
X167575000Y-112575874D01*
X167575000Y-112164126D01*
X167417431Y-111783720D01*
X167126280Y-111492569D01*
X166745874Y-111335000D01*
X166334126Y-111335000D01*
X165953720Y-111492569D01*
X165662569Y-111783720D01*
X165505000Y-112164126D01*
X152337837Y-112164126D01*
X152086280Y-111912569D01*
X151705874Y-111755000D01*
X151294126Y-111755000D01*
X150913720Y-111912569D01*
X150622569Y-112203720D01*
X150465000Y-112584126D01*
X147642276Y-112584126D01*
X147587431Y-112451720D01*
X147296280Y-112160569D01*
X146915874Y-112003000D01*
X146504126Y-112003000D01*
X146123720Y-112160569D01*
X145832569Y-112451720D01*
X145675000Y-112832126D01*
X137172588Y-112832126D01*
X136915346Y-112574884D01*
X136360358Y-112345000D01*
X135759642Y-112345000D01*
X135204654Y-112574884D01*
X134810000Y-112969538D01*
X134415346Y-112574884D01*
X133860358Y-112345000D01*
X133259642Y-112345000D01*
X132704654Y-112574884D01*
X132310000Y-112969538D01*
X131915346Y-112574884D01*
X131360358Y-112345000D01*
X130759642Y-112345000D01*
X130204654Y-112574884D01*
X129779884Y-112999654D01*
X129550000Y-113554642D01*
X122574758Y-113554642D01*
X122838839Y-113159418D01*
X122954092Y-112580000D01*
X122838839Y-112000582D01*
X122510625Y-111509375D01*
X122212239Y-111310000D01*
X122510625Y-111110625D01*
X122838839Y-110619418D01*
X122954092Y-110040000D01*
X122838839Y-109460582D01*
X122604349Y-109109642D01*
X129550000Y-109109642D01*
X129550000Y-109710358D01*
X129779884Y-110265346D01*
X130204654Y-110690116D01*
X130759642Y-110920000D01*
X131360358Y-110920000D01*
X131915346Y-110690116D01*
X132310000Y-110295462D01*
X132704654Y-110690116D01*
X133259642Y-110920000D01*
X133860358Y-110920000D01*
X134415346Y-110690116D01*
X134810000Y-110295462D01*
X135204654Y-110690116D01*
X135759642Y-110920000D01*
X136360358Y-110920000D01*
X136915346Y-110690116D01*
X137340116Y-110265346D01*
X137394469Y-110134126D01*
X150685000Y-110134126D01*
X150685000Y-110545874D01*
X150842569Y-110926280D01*
X151133720Y-111217431D01*
X151514126Y-111375000D01*
X151925874Y-111375000D01*
X152306280Y-111217431D01*
X152597431Y-110926280D01*
X152693592Y-110694126D01*
X177175000Y-110694126D01*
X177175000Y-111105874D01*
X177332569Y-111486280D01*
X177623720Y-111777431D01*
X178004126Y-111935000D01*
X178415874Y-111935000D01*
X178796280Y-111777431D01*
X179087431Y-111486280D01*
X179245000Y-111105874D01*
X179245000Y-110694126D01*
X179087431Y-110313720D01*
X178796280Y-110022569D01*
X178415874Y-109865000D01*
X178004126Y-109865000D01*
X177623720Y-110022569D01*
X177332569Y-110313720D01*
X177175000Y-110694126D01*
X152693592Y-110694126D01*
X152755000Y-110545874D01*
X152755000Y-110134126D01*
X152597431Y-109753720D01*
X152306280Y-109462569D01*
X151925874Y-109305000D01*
X151514126Y-109305000D01*
X151133720Y-109462569D01*
X150842569Y-109753720D01*
X150685000Y-110134126D01*
X137394469Y-110134126D01*
X137570000Y-109710358D01*
X137570000Y-109109642D01*
X137340116Y-108554654D01*
X137172588Y-108387126D01*
X145675000Y-108387126D01*
X145675000Y-108798874D01*
X145832569Y-109179280D01*
X146123720Y-109470431D01*
X146504126Y-109628000D01*
X146915874Y-109628000D01*
X147296280Y-109470431D01*
X147587431Y-109179280D01*
X147745000Y-108798874D01*
X147745000Y-108387126D01*
X147587431Y-108006720D01*
X147296280Y-107715569D01*
X146915874Y-107558000D01*
X146504126Y-107558000D01*
X146123720Y-107715569D01*
X145832569Y-108006720D01*
X145675000Y-108387126D01*
X137172588Y-108387126D01*
X136915346Y-108129884D01*
X136360358Y-107900000D01*
X135759642Y-107900000D01*
X135204654Y-108129884D01*
X134810000Y-108524538D01*
X134415346Y-108129884D01*
X133860358Y-107900000D01*
X133259642Y-107900000D01*
X132704654Y-108129884D01*
X132310000Y-108524538D01*
X131915346Y-108129884D01*
X131360358Y-107900000D01*
X130759642Y-107900000D01*
X130204654Y-108129884D01*
X129779884Y-108554654D01*
X129550000Y-109109642D01*
X122604349Y-109109642D01*
X122510625Y-108969375D01*
X122212239Y-108770000D01*
X122510625Y-108570625D01*
X122838839Y-108079418D01*
X122954092Y-107500000D01*
X122838839Y-106920582D01*
X122510625Y-106429375D01*
X122212239Y-106230000D01*
X122510625Y-106030625D01*
X122838839Y-105539418D01*
X122954092Y-104960000D01*
X122895342Y-104664642D01*
X129550000Y-104664642D01*
X129550000Y-105265358D01*
X129779884Y-105820346D01*
X130204654Y-106245116D01*
X130759642Y-106475000D01*
X131360358Y-106475000D01*
X131915346Y-106245116D01*
X132310000Y-105850462D01*
X132704654Y-106245116D01*
X133259642Y-106475000D01*
X133860358Y-106475000D01*
X134415346Y-106245116D01*
X134810000Y-105850462D01*
X135204654Y-106245116D01*
X135759642Y-106475000D01*
X136360358Y-106475000D01*
X136915346Y-106245116D01*
X137340116Y-105820346D01*
X137437961Y-105584126D01*
X164035000Y-105584126D01*
X164035000Y-105995874D01*
X164192569Y-106376280D01*
X164376289Y-106560000D01*
X164232569Y-106703720D01*
X164075000Y-107084126D01*
X164075000Y-107495874D01*
X164232569Y-107876280D01*
X164523720Y-108167431D01*
X164904126Y-108325000D01*
X165315874Y-108325000D01*
X165383814Y-108296858D01*
X165412569Y-108366280D01*
X165703720Y-108657431D01*
X166084126Y-108815000D01*
X166495874Y-108815000D01*
X166876280Y-108657431D01*
X167167431Y-108366280D01*
X167325000Y-107985874D01*
X167325000Y-107574126D01*
X167167431Y-107193720D01*
X166876280Y-106902569D01*
X166495874Y-106745000D01*
X166084126Y-106745000D01*
X166016186Y-106773142D01*
X165987431Y-106703720D01*
X165803711Y-106520000D01*
X165947431Y-106376280D01*
X165988257Y-106277716D01*
X166054126Y-106305000D01*
X166465874Y-106305000D01*
X166846280Y-106147431D01*
X167137431Y-105856280D01*
X167295000Y-105475874D01*
X167295000Y-105190000D01*
X175285908Y-105190000D01*
X175401161Y-105769418D01*
X175729375Y-106260625D01*
X176027761Y-106460000D01*
X175729375Y-106659375D01*
X175401161Y-107150582D01*
X175285908Y-107730000D01*
X175401161Y-108309418D01*
X175729375Y-108800625D01*
X176220582Y-109128839D01*
X176653744Y-109215000D01*
X176946256Y-109215000D01*
X177379418Y-109128839D01*
X177870625Y-108800625D01*
X178071353Y-108500214D01*
X178458642Y-108925183D01*
X178983108Y-109171486D01*
X179213000Y-109050819D01*
X179213000Y-107857000D01*
X179467000Y-107857000D01*
X179467000Y-109050819D01*
X179696892Y-109171486D01*
X180221358Y-108925183D01*
X180611645Y-108496924D01*
X180781476Y-108086890D01*
X180660155Y-107857000D01*
X179467000Y-107857000D01*
X179213000Y-107857000D01*
X179193000Y-107857000D01*
X179193000Y-107603000D01*
X179213000Y-107603000D01*
X179213000Y-107583000D01*
X179467000Y-107583000D01*
X179467000Y-107603000D01*
X180660155Y-107603000D01*
X180781476Y-107373110D01*
X180611645Y-106963076D01*
X180221358Y-106534817D01*
X180091522Y-106473843D01*
X180410625Y-106260625D01*
X180738839Y-105769418D01*
X180831391Y-105304126D01*
X187875000Y-105304126D01*
X187875000Y-105715874D01*
X188032569Y-106096280D01*
X188323720Y-106387431D01*
X188704126Y-106545000D01*
X189115874Y-106545000D01*
X189496280Y-106387431D01*
X189787431Y-106096280D01*
X189945000Y-105715874D01*
X189945000Y-105304126D01*
X189787431Y-104923720D01*
X189496280Y-104632569D01*
X189115874Y-104475000D01*
X188704126Y-104475000D01*
X188323720Y-104632569D01*
X188032569Y-104923720D01*
X187875000Y-105304126D01*
X180831391Y-105304126D01*
X180854092Y-105190000D01*
X180738839Y-104610582D01*
X180410625Y-104119375D01*
X180283041Y-104034126D01*
X186175000Y-104034126D01*
X186175000Y-104445874D01*
X186332569Y-104826280D01*
X186623720Y-105117431D01*
X187004126Y-105275000D01*
X187415874Y-105275000D01*
X187796280Y-105117431D01*
X188087431Y-104826280D01*
X188245000Y-104445874D01*
X188245000Y-104034126D01*
X188087431Y-103653720D01*
X187796280Y-103362569D01*
X187415874Y-103205000D01*
X187004126Y-103205000D01*
X186623720Y-103362569D01*
X186332569Y-103653720D01*
X186175000Y-104034126D01*
X180283041Y-104034126D01*
X180112239Y-103920000D01*
X180410625Y-103720625D01*
X180738839Y-103229418D01*
X180751826Y-103164126D01*
X206265000Y-103164126D01*
X206265000Y-103575874D01*
X206422569Y-103956280D01*
X206713720Y-104247431D01*
X207094126Y-104405000D01*
X207505874Y-104405000D01*
X207886280Y-104247431D01*
X208177431Y-103956280D01*
X208335000Y-103575874D01*
X208335000Y-103194126D01*
X208895000Y-103194126D01*
X208895000Y-103605874D01*
X209052569Y-103986280D01*
X209343720Y-104277431D01*
X209724126Y-104435000D01*
X210135874Y-104435000D01*
X210516280Y-104277431D01*
X210807431Y-103986280D01*
X210965000Y-103605874D01*
X210965000Y-103194126D01*
X210807431Y-102813720D01*
X210516280Y-102522569D01*
X210135874Y-102365000D01*
X209724126Y-102365000D01*
X209343720Y-102522569D01*
X209052569Y-102813720D01*
X208895000Y-103194126D01*
X208335000Y-103194126D01*
X208335000Y-103164126D01*
X208177431Y-102783720D01*
X207886280Y-102492569D01*
X207505874Y-102335000D01*
X207094126Y-102335000D01*
X206713720Y-102492569D01*
X206422569Y-102783720D01*
X206265000Y-103164126D01*
X180751826Y-103164126D01*
X180854092Y-102650000D01*
X180738839Y-102070582D01*
X180410625Y-101579375D01*
X179919418Y-101251161D01*
X179486256Y-101165000D01*
X179193744Y-101165000D01*
X178760582Y-101251161D01*
X178269375Y-101579375D01*
X178257184Y-101597619D01*
X178248157Y-101552235D01*
X178107809Y-101342191D01*
X177897765Y-101201843D01*
X177650000Y-101152560D01*
X175950000Y-101152560D01*
X175702235Y-101201843D01*
X175492191Y-101342191D01*
X175351843Y-101552235D01*
X175302560Y-101800000D01*
X175302560Y-103500000D01*
X175351843Y-103747765D01*
X175492191Y-103957809D01*
X175702235Y-104098157D01*
X175747619Y-104107184D01*
X175729375Y-104119375D01*
X175401161Y-104610582D01*
X175285908Y-105190000D01*
X167295000Y-105190000D01*
X167295000Y-105064126D01*
X167137431Y-104683720D01*
X166846280Y-104392569D01*
X166465874Y-104235000D01*
X166437372Y-104235000D01*
X166495000Y-104095874D01*
X166495000Y-103684126D01*
X166337431Y-103303720D01*
X166046280Y-103012569D01*
X165665874Y-102855000D01*
X165254126Y-102855000D01*
X164873720Y-103012569D01*
X164582569Y-103303720D01*
X164425000Y-103684126D01*
X164425000Y-104095874D01*
X164582569Y-104476280D01*
X164862120Y-104755831D01*
X164483720Y-104912569D01*
X164192569Y-105203720D01*
X164035000Y-105584126D01*
X137437961Y-105584126D01*
X137570000Y-105265358D01*
X137570000Y-104664642D01*
X137340116Y-104109654D01*
X137172588Y-103942126D01*
X145675000Y-103942126D01*
X145675000Y-104353874D01*
X145832569Y-104734280D01*
X146123720Y-105025431D01*
X146504126Y-105183000D01*
X146915874Y-105183000D01*
X147296280Y-105025431D01*
X147587431Y-104734280D01*
X147745000Y-104353874D01*
X147745000Y-103942126D01*
X147587431Y-103561720D01*
X147296280Y-103270569D01*
X146915874Y-103113000D01*
X146504126Y-103113000D01*
X146123720Y-103270569D01*
X145832569Y-103561720D01*
X145675000Y-103942126D01*
X137172588Y-103942126D01*
X136915346Y-103684884D01*
X136360358Y-103455000D01*
X135759642Y-103455000D01*
X135204654Y-103684884D01*
X134810000Y-104079538D01*
X134415346Y-103684884D01*
X133860358Y-103455000D01*
X133259642Y-103455000D01*
X132704654Y-103684884D01*
X132310000Y-104079538D01*
X131915346Y-103684884D01*
X131360358Y-103455000D01*
X130759642Y-103455000D01*
X130204654Y-103684884D01*
X129779884Y-104109654D01*
X129550000Y-104664642D01*
X122895342Y-104664642D01*
X122838839Y-104380582D01*
X122510625Y-103889375D01*
X122212239Y-103690000D01*
X122510625Y-103490625D01*
X122838839Y-102999418D01*
X122954092Y-102420000D01*
X122838839Y-101840582D01*
X122510625Y-101349375D01*
X122212239Y-101150000D01*
X122510625Y-100950625D01*
X122838839Y-100459418D01*
X122886533Y-100219642D01*
X129550000Y-100219642D01*
X129550000Y-100820358D01*
X129779884Y-101375346D01*
X130204654Y-101800116D01*
X130759642Y-102030000D01*
X131360358Y-102030000D01*
X131915346Y-101800116D01*
X132310000Y-101405462D01*
X132704654Y-101800116D01*
X133259642Y-102030000D01*
X133860358Y-102030000D01*
X134415346Y-101800116D01*
X134810000Y-101405462D01*
X135204654Y-101800116D01*
X135759642Y-102030000D01*
X136360358Y-102030000D01*
X136915346Y-101800116D01*
X137340116Y-101375346D01*
X137543586Y-100884126D01*
X165045000Y-100884126D01*
X165045000Y-101295874D01*
X165202569Y-101676280D01*
X165493720Y-101967431D01*
X165874126Y-102125000D01*
X166285874Y-102125000D01*
X166666280Y-101967431D01*
X166957431Y-101676280D01*
X167115000Y-101295874D01*
X167115000Y-100884126D01*
X166957431Y-100503720D01*
X166666280Y-100212569D01*
X166285874Y-100055000D01*
X165874126Y-100055000D01*
X165493720Y-100212569D01*
X165202569Y-100503720D01*
X165045000Y-100884126D01*
X137543586Y-100884126D01*
X137570000Y-100820358D01*
X137570000Y-100219642D01*
X137340116Y-99664654D01*
X137172588Y-99497126D01*
X145675000Y-99497126D01*
X145675000Y-99908874D01*
X145832569Y-100289280D01*
X146123720Y-100580431D01*
X146504126Y-100738000D01*
X146915874Y-100738000D01*
X147296280Y-100580431D01*
X147587431Y-100289280D01*
X147745000Y-99908874D01*
X147745000Y-99497126D01*
X147587431Y-99116720D01*
X147296280Y-98825569D01*
X146915874Y-98668000D01*
X146504126Y-98668000D01*
X146123720Y-98825569D01*
X145832569Y-99116720D01*
X145675000Y-99497126D01*
X137172588Y-99497126D01*
X136915346Y-99239884D01*
X136360358Y-99010000D01*
X135759642Y-99010000D01*
X135204654Y-99239884D01*
X134810000Y-99634538D01*
X134415346Y-99239884D01*
X133860358Y-99010000D01*
X133259642Y-99010000D01*
X132704654Y-99239884D01*
X132310000Y-99634538D01*
X131915346Y-99239884D01*
X131360358Y-99010000D01*
X130759642Y-99010000D01*
X130204654Y-99239884D01*
X129779884Y-99664654D01*
X129550000Y-100219642D01*
X122886533Y-100219642D01*
X122954092Y-99880000D01*
X122838839Y-99300582D01*
X122510625Y-98809375D01*
X122212239Y-98610000D01*
X122510625Y-98410625D01*
X122795602Y-97984126D01*
X164485000Y-97984126D01*
X164485000Y-98395874D01*
X164642569Y-98776280D01*
X164933720Y-99067431D01*
X165314126Y-99225000D01*
X165725874Y-99225000D01*
X166106280Y-99067431D01*
X166397431Y-98776280D01*
X166555000Y-98395874D01*
X166555000Y-97984126D01*
X169295000Y-97984126D01*
X169295000Y-98395874D01*
X169452569Y-98776280D01*
X169743720Y-99067431D01*
X170124126Y-99225000D01*
X170535874Y-99225000D01*
X170916280Y-99067431D01*
X171207431Y-98776280D01*
X171307734Y-98534126D01*
X182015000Y-98534126D01*
X182015000Y-98945874D01*
X182172569Y-99326280D01*
X182463720Y-99617431D01*
X182844126Y-99775000D01*
X183255874Y-99775000D01*
X183545000Y-99655240D01*
X183545000Y-99795874D01*
X183702569Y-100176280D01*
X183993720Y-100467431D01*
X184374126Y-100625000D01*
X184641289Y-100625000D01*
X184602569Y-100663720D01*
X184445000Y-101044126D01*
X184445000Y-101455874D01*
X184602569Y-101836280D01*
X184893720Y-102127431D01*
X185274126Y-102285000D01*
X185685874Y-102285000D01*
X186066280Y-102127431D01*
X186357431Y-101836280D01*
X186515000Y-101455874D01*
X186515000Y-101044126D01*
X186357431Y-100663720D01*
X186066280Y-100372569D01*
X185685874Y-100215000D01*
X185418711Y-100215000D01*
X185457431Y-100176280D01*
X185615000Y-99795874D01*
X185615000Y-99384126D01*
X185495240Y-99095000D01*
X185685874Y-99095000D01*
X186028118Y-98953238D01*
X196414112Y-98953238D01*
X196414112Y-99364986D01*
X196571681Y-99745392D01*
X196862832Y-100036543D01*
X197243238Y-100194112D01*
X197654986Y-100194112D01*
X198035392Y-100036543D01*
X198326543Y-99745392D01*
X198484112Y-99364986D01*
X198484112Y-98953238D01*
X198326543Y-98572832D01*
X198035392Y-98281681D01*
X197654986Y-98124112D01*
X197243238Y-98124112D01*
X196862832Y-98281681D01*
X196571681Y-98572832D01*
X196414112Y-98953238D01*
X186028118Y-98953238D01*
X186066280Y-98937431D01*
X186357431Y-98646280D01*
X186515000Y-98265874D01*
X186515000Y-97854126D01*
X186357431Y-97473720D01*
X186066280Y-97182569D01*
X186063007Y-97181213D01*
X186096280Y-97167431D01*
X186387431Y-96876280D01*
X186545000Y-96495874D01*
X186545000Y-96204126D01*
X200495000Y-96204126D01*
X200495000Y-96615874D01*
X200652569Y-96996280D01*
X200943720Y-97287431D01*
X201324126Y-97445000D01*
X201335000Y-97445000D01*
X201335000Y-97685874D01*
X201492569Y-98066280D01*
X201783720Y-98357431D01*
X202105000Y-98490509D01*
X202105000Y-98605874D01*
X202262569Y-98986280D01*
X202553720Y-99277431D01*
X202934126Y-99435000D01*
X203345874Y-99435000D01*
X203726280Y-99277431D01*
X204017431Y-98986280D01*
X204175000Y-98605874D01*
X204175000Y-98194126D01*
X204017431Y-97813720D01*
X203726280Y-97522569D01*
X203405000Y-97389491D01*
X203405000Y-97274126D01*
X203247431Y-96893720D01*
X202956280Y-96602569D01*
X202575874Y-96445000D01*
X202565000Y-96445000D01*
X202565000Y-96204126D01*
X202407431Y-95823720D01*
X202116280Y-95532569D01*
X201735874Y-95375000D01*
X201324126Y-95375000D01*
X200943720Y-95532569D01*
X200652569Y-95823720D01*
X200495000Y-96204126D01*
X186545000Y-96204126D01*
X186545000Y-96084126D01*
X186387431Y-95703720D01*
X186096280Y-95412569D01*
X185715874Y-95255000D01*
X185304126Y-95255000D01*
X184923720Y-95412569D01*
X184632569Y-95703720D01*
X184475000Y-96084126D01*
X184475000Y-96205000D01*
X184384126Y-96205000D01*
X184003720Y-96362569D01*
X183712569Y-96653720D01*
X183555000Y-97034126D01*
X183555000Y-97445874D01*
X183712569Y-97826280D01*
X184003720Y-98117431D01*
X184384126Y-98275000D01*
X184448780Y-98275000D01*
X184564760Y-98555000D01*
X184374126Y-98555000D01*
X184085000Y-98674760D01*
X184085000Y-98534126D01*
X183927431Y-98153720D01*
X183636280Y-97862569D01*
X183255874Y-97705000D01*
X182844126Y-97705000D01*
X182463720Y-97862569D01*
X182172569Y-98153720D01*
X182015000Y-98534126D01*
X171307734Y-98534126D01*
X171365000Y-98395874D01*
X171365000Y-97984126D01*
X171207431Y-97603720D01*
X170916280Y-97312569D01*
X170535874Y-97155000D01*
X170124126Y-97155000D01*
X169743720Y-97312569D01*
X169452569Y-97603720D01*
X169295000Y-97984126D01*
X166555000Y-97984126D01*
X166397431Y-97603720D01*
X166106280Y-97312569D01*
X165725874Y-97155000D01*
X165314126Y-97155000D01*
X164933720Y-97312569D01*
X164642569Y-97603720D01*
X164485000Y-97984126D01*
X122795602Y-97984126D01*
X122838839Y-97919418D01*
X122954092Y-97340000D01*
X122838839Y-96760582D01*
X122510625Y-96269375D01*
X122492381Y-96257184D01*
X122537765Y-96248157D01*
X122747809Y-96107809D01*
X122888157Y-95897765D01*
X122912647Y-95774642D01*
X129550000Y-95774642D01*
X129550000Y-96375358D01*
X129779884Y-96930346D01*
X130204654Y-97355116D01*
X130759642Y-97585000D01*
X131360358Y-97585000D01*
X131915346Y-97355116D01*
X132310000Y-96960462D01*
X132704654Y-97355116D01*
X133259642Y-97585000D01*
X133860358Y-97585000D01*
X134415346Y-97355116D01*
X134810000Y-96960462D01*
X135204654Y-97355116D01*
X135759642Y-97585000D01*
X136360358Y-97585000D01*
X136915346Y-97355116D01*
X137340116Y-96930346D01*
X137454530Y-96654126D01*
X153575000Y-96654126D01*
X153575000Y-97065874D01*
X153732569Y-97446280D01*
X154023720Y-97737431D01*
X154404126Y-97895000D01*
X154815874Y-97895000D01*
X155196280Y-97737431D01*
X155487431Y-97446280D01*
X155645000Y-97065874D01*
X155645000Y-96654126D01*
X155487431Y-96273720D01*
X155196280Y-95982569D01*
X154815874Y-95825000D01*
X154404126Y-95825000D01*
X154023720Y-95982569D01*
X153732569Y-96273720D01*
X153575000Y-96654126D01*
X137454530Y-96654126D01*
X137570000Y-96375358D01*
X137570000Y-95774642D01*
X137340116Y-95219654D01*
X137172588Y-95052126D01*
X145675000Y-95052126D01*
X145675000Y-95463874D01*
X145832569Y-95844280D01*
X146123720Y-96135431D01*
X146504126Y-96293000D01*
X146915874Y-96293000D01*
X147296280Y-96135431D01*
X147587431Y-95844280D01*
X147745000Y-95463874D01*
X147745000Y-95052126D01*
X147687839Y-94914126D01*
X206845000Y-94914126D01*
X206845000Y-95325874D01*
X207002569Y-95706280D01*
X207293720Y-95997431D01*
X207674126Y-96155000D01*
X208085874Y-96155000D01*
X208466280Y-95997431D01*
X208757431Y-95706280D01*
X208915000Y-95325874D01*
X208915000Y-94914126D01*
X208757431Y-94533720D01*
X208466280Y-94242569D01*
X208085874Y-94085000D01*
X207674126Y-94085000D01*
X207293720Y-94242569D01*
X207002569Y-94533720D01*
X206845000Y-94914126D01*
X147687839Y-94914126D01*
X147587431Y-94671720D01*
X147296280Y-94380569D01*
X146915874Y-94223000D01*
X146504126Y-94223000D01*
X146123720Y-94380569D01*
X145832569Y-94671720D01*
X145675000Y-95052126D01*
X137172588Y-95052126D01*
X136915346Y-94794884D01*
X136360358Y-94565000D01*
X135759642Y-94565000D01*
X135204654Y-94794884D01*
X134810000Y-95189538D01*
X134415346Y-94794884D01*
X133860358Y-94565000D01*
X133259642Y-94565000D01*
X132704654Y-94794884D01*
X132310000Y-95189538D01*
X131915346Y-94794884D01*
X131360358Y-94565000D01*
X130759642Y-94565000D01*
X130204654Y-94794884D01*
X129779884Y-95219654D01*
X129550000Y-95774642D01*
X122912647Y-95774642D01*
X122937440Y-95650000D01*
X122937440Y-93950000D01*
X122888157Y-93702235D01*
X122747809Y-93492191D01*
X122537765Y-93351843D01*
X122290000Y-93302560D01*
X120590000Y-93302560D01*
X120342235Y-93351843D01*
X120132191Y-93492191D01*
X119991843Y-93702235D01*
X119942560Y-93950000D01*
X119942560Y-95650000D01*
X119991843Y-95897765D01*
X120132191Y-96107809D01*
X120342235Y-96248157D01*
X120387619Y-96257184D01*
X120369375Y-96269375D01*
X120041161Y-96760582D01*
X119925908Y-97340000D01*
X119234620Y-97340000D01*
X119231287Y-91329642D01*
X129550000Y-91329642D01*
X129550000Y-91930358D01*
X129779884Y-92485346D01*
X130204654Y-92910116D01*
X130759642Y-93140000D01*
X131360358Y-93140000D01*
X131915346Y-92910116D01*
X132310000Y-92515462D01*
X132704654Y-92910116D01*
X133259642Y-93140000D01*
X133860358Y-93140000D01*
X134415346Y-92910116D01*
X134810000Y-92515462D01*
X135204654Y-92910116D01*
X135759642Y-93140000D01*
X136360358Y-93140000D01*
X136915346Y-92910116D01*
X137340116Y-92485346D01*
X137570000Y-91930358D01*
X137570000Y-91329642D01*
X137340116Y-90774654D01*
X137172588Y-90607126D01*
X145675000Y-90607126D01*
X145675000Y-91018874D01*
X145832569Y-91399280D01*
X146123720Y-91690431D01*
X146504126Y-91848000D01*
X146915874Y-91848000D01*
X147296280Y-91690431D01*
X147587431Y-91399280D01*
X147745000Y-91018874D01*
X147745000Y-90607126D01*
X147587431Y-90226720D01*
X147454837Y-90094126D01*
X189315000Y-90094126D01*
X189315000Y-90505874D01*
X189472569Y-90886280D01*
X189763720Y-91177431D01*
X190144126Y-91335000D01*
X190555874Y-91335000D01*
X190936280Y-91177431D01*
X191227431Y-90886280D01*
X191385000Y-90505874D01*
X191385000Y-90094126D01*
X191227431Y-89713720D01*
X190936280Y-89422569D01*
X190555874Y-89265000D01*
X190144126Y-89265000D01*
X189763720Y-89422569D01*
X189472569Y-89713720D01*
X189315000Y-90094126D01*
X147454837Y-90094126D01*
X147296280Y-89935569D01*
X146915874Y-89778000D01*
X146504126Y-89778000D01*
X146123720Y-89935569D01*
X145832569Y-90226720D01*
X145675000Y-90607126D01*
X137172588Y-90607126D01*
X136915346Y-90349884D01*
X136360358Y-90120000D01*
X135759642Y-90120000D01*
X135204654Y-90349884D01*
X134810000Y-90744538D01*
X134415346Y-90349884D01*
X133860358Y-90120000D01*
X133259642Y-90120000D01*
X132704654Y-90349884D01*
X132310000Y-90744538D01*
X131915346Y-90349884D01*
X131360358Y-90120000D01*
X130759642Y-90120000D01*
X130204654Y-90349884D01*
X129779884Y-90774654D01*
X129550000Y-91329642D01*
X119231287Y-91329642D01*
X119228822Y-86884642D01*
X129550000Y-86884642D01*
X129550000Y-87485358D01*
X129779884Y-88040346D01*
X130204654Y-88465116D01*
X130759642Y-88695000D01*
X131360358Y-88695000D01*
X131915346Y-88465116D01*
X132310000Y-88070462D01*
X132704654Y-88465116D01*
X133259642Y-88695000D01*
X133860358Y-88695000D01*
X134415346Y-88465116D01*
X134810000Y-88070462D01*
X135204654Y-88465116D01*
X135759642Y-88695000D01*
X136360358Y-88695000D01*
X136915346Y-88465116D01*
X137340116Y-88040346D01*
X137491809Y-87674126D01*
X160385000Y-87674126D01*
X160385000Y-88085874D01*
X160542569Y-88466280D01*
X160833720Y-88757431D01*
X161214126Y-88915000D01*
X161625874Y-88915000D01*
X162006280Y-88757431D01*
X162297431Y-88466280D01*
X162455000Y-88085874D01*
X162455000Y-87674126D01*
X162297431Y-87293720D01*
X162006280Y-87002569D01*
X161625874Y-86845000D01*
X161214126Y-86845000D01*
X160833720Y-87002569D01*
X160542569Y-87293720D01*
X160385000Y-87674126D01*
X137491809Y-87674126D01*
X137570000Y-87485358D01*
X137570000Y-86884642D01*
X137340116Y-86329654D01*
X136915346Y-85904884D01*
X136360358Y-85675000D01*
X135759642Y-85675000D01*
X135204654Y-85904884D01*
X134810000Y-86299538D01*
X134415346Y-85904884D01*
X133860358Y-85675000D01*
X133259642Y-85675000D01*
X132704654Y-85904884D01*
X132310000Y-86299538D01*
X131915346Y-85904884D01*
X131360358Y-85675000D01*
X130759642Y-85675000D01*
X130204654Y-85904884D01*
X129779884Y-86329654D01*
X129550000Y-86884642D01*
X119228822Y-86884642D01*
X119226682Y-83024561D01*
X139035000Y-83024561D01*
X139035000Y-83595439D01*
X139253466Y-84122862D01*
X139657138Y-84526534D01*
X140184561Y-84745000D01*
X140755439Y-84745000D01*
X141282862Y-84526534D01*
X141686534Y-84122862D01*
X141868264Y-83684126D01*
X147015000Y-83684126D01*
X147015000Y-84095874D01*
X147172569Y-84476280D01*
X147463720Y-84767431D01*
X147844126Y-84925000D01*
X148255874Y-84925000D01*
X148636280Y-84767431D01*
X148927431Y-84476280D01*
X148932465Y-84464126D01*
X169225000Y-84464126D01*
X169225000Y-84875874D01*
X169382569Y-85256280D01*
X169673720Y-85547431D01*
X170054126Y-85705000D01*
X170465874Y-85705000D01*
X170846280Y-85547431D01*
X171137431Y-85256280D01*
X171295000Y-84875874D01*
X171295000Y-84464126D01*
X171137431Y-84083720D01*
X170846280Y-83792569D01*
X170465874Y-83635000D01*
X170054126Y-83635000D01*
X169673720Y-83792569D01*
X169382569Y-84083720D01*
X169225000Y-84464126D01*
X148932465Y-84464126D01*
X149085000Y-84095874D01*
X149085000Y-83684126D01*
X148927431Y-83303720D01*
X148817837Y-83194126D01*
X153225000Y-83194126D01*
X153225000Y-83605874D01*
X153382569Y-83986280D01*
X153673720Y-84277431D01*
X154054126Y-84435000D01*
X154465874Y-84435000D01*
X154846280Y-84277431D01*
X155137431Y-83986280D01*
X155295000Y-83605874D01*
X155295000Y-83194126D01*
X155137431Y-82813720D01*
X154846280Y-82522569D01*
X154465874Y-82365000D01*
X154054126Y-82365000D01*
X153673720Y-82522569D01*
X153382569Y-82813720D01*
X153225000Y-83194126D01*
X148817837Y-83194126D01*
X148636280Y-83012569D01*
X148255874Y-82855000D01*
X147844126Y-82855000D01*
X147463720Y-83012569D01*
X147172569Y-83303720D01*
X147015000Y-83684126D01*
X141868264Y-83684126D01*
X141905000Y-83595439D01*
X141905000Y-83024561D01*
X141686534Y-82497138D01*
X141282862Y-82093466D01*
X140755439Y-81875000D01*
X140184561Y-81875000D01*
X139657138Y-82093466D01*
X139253466Y-82497138D01*
X139035000Y-83024561D01*
X119226682Y-83024561D01*
X119225522Y-80934126D01*
X136135000Y-80934126D01*
X136135000Y-81345874D01*
X136292569Y-81726280D01*
X136583720Y-82017431D01*
X136964126Y-82175000D01*
X137375874Y-82175000D01*
X137756280Y-82017431D01*
X138047431Y-81726280D01*
X138205000Y-81345874D01*
X138205000Y-80934126D01*
X138047431Y-80553720D01*
X137756280Y-80262569D01*
X137375874Y-80105000D01*
X136964126Y-80105000D01*
X136583720Y-80262569D01*
X136292569Y-80553720D01*
X136135000Y-80934126D01*
X119225522Y-80934126D01*
X119223029Y-76438970D01*
X142645000Y-76438970D01*
X142645000Y-78261031D01*
X142739865Y-78737945D01*
X143101232Y-79278769D01*
X143642056Y-79640136D01*
X144280000Y-79767031D01*
X144917945Y-79640136D01*
X145458769Y-79278769D01*
X145820136Y-78737945D01*
X145915000Y-78261031D01*
X145915000Y-76438969D01*
X145897303Y-76350000D01*
X146462969Y-76350000D01*
X146589864Y-76987945D01*
X146951231Y-77528769D01*
X147492055Y-77890136D01*
X147968969Y-77985000D01*
X148325566Y-77985000D01*
X147967138Y-78133466D01*
X147563466Y-78537138D01*
X147345000Y-79064561D01*
X147345000Y-79635439D01*
X147563466Y-80162862D01*
X147967138Y-80566534D01*
X148494561Y-80785000D01*
X149065439Y-80785000D01*
X149592862Y-80566534D01*
X149996534Y-80162862D01*
X150215000Y-79635439D01*
X150215000Y-79064561D01*
X149996534Y-78537138D01*
X149592862Y-78133466D01*
X149234434Y-77985000D01*
X149591031Y-77985000D01*
X150067945Y-77890136D01*
X150608769Y-77528769D01*
X150970136Y-76987945D01*
X151079333Y-76438970D01*
X151645000Y-76438970D01*
X151645000Y-78261031D01*
X151739865Y-78737945D01*
X152101232Y-79278769D01*
X152642056Y-79640136D01*
X153280000Y-79767031D01*
X153917945Y-79640136D01*
X154067809Y-79540000D01*
X208135908Y-79540000D01*
X208251161Y-80119418D01*
X208579375Y-80610625D01*
X208877761Y-80810000D01*
X208579375Y-81009375D01*
X208251161Y-81500582D01*
X208135908Y-82080000D01*
X208251161Y-82659418D01*
X208579375Y-83150625D01*
X208877761Y-83350000D01*
X208579375Y-83549375D01*
X208251161Y-84040582D01*
X208135908Y-84620000D01*
X208251161Y-85199418D01*
X208579375Y-85690625D01*
X209070582Y-86018839D01*
X209503744Y-86105000D01*
X209796256Y-86105000D01*
X210229418Y-86018839D01*
X210720625Y-85690625D01*
X211048839Y-85199418D01*
X211164092Y-84620000D01*
X211048839Y-84040582D01*
X210720625Y-83549375D01*
X210422239Y-83350000D01*
X210720625Y-83150625D01*
X211048839Y-82659418D01*
X211164092Y-82080000D01*
X211048839Y-81500582D01*
X210720625Y-81009375D01*
X210422239Y-80810000D01*
X210720625Y-80610625D01*
X211048839Y-80119418D01*
X211164092Y-79540000D01*
X211048839Y-78960582D01*
X210720625Y-78469375D01*
X210401522Y-78256157D01*
X210531358Y-78195183D01*
X210921645Y-77766924D01*
X211091476Y-77356890D01*
X210970155Y-77127000D01*
X209777000Y-77127000D01*
X209777000Y-77147000D01*
X209523000Y-77147000D01*
X209523000Y-77127000D01*
X208329845Y-77127000D01*
X208208524Y-77356890D01*
X208378355Y-77766924D01*
X208768642Y-78195183D01*
X208898478Y-78256157D01*
X208579375Y-78469375D01*
X208251161Y-78960582D01*
X208135908Y-79540000D01*
X154067809Y-79540000D01*
X154458769Y-79278769D01*
X154820136Y-78737945D01*
X154915000Y-78261031D01*
X154915000Y-76742532D01*
X157617073Y-76742532D01*
X157715736Y-77009387D01*
X158325461Y-77235908D01*
X158975460Y-77211856D01*
X159464264Y-77009387D01*
X159562927Y-76742532D01*
X158590000Y-75769605D01*
X157617073Y-76742532D01*
X154915000Y-76742532D01*
X154915000Y-76438969D01*
X154820136Y-75962055D01*
X154458769Y-75421231D01*
X154315439Y-75325461D01*
X156944092Y-75325461D01*
X156968144Y-75975460D01*
X157170613Y-76464264D01*
X157437468Y-76562927D01*
X158410395Y-75590000D01*
X158769605Y-75590000D01*
X159742532Y-76562927D01*
X160009387Y-76464264D01*
X160235908Y-75854539D01*
X160214085Y-75264778D01*
X163455000Y-75264778D01*
X163455000Y-75915222D01*
X163703914Y-76516153D01*
X164163847Y-76976086D01*
X164764778Y-77225000D01*
X165415222Y-77225000D01*
X166016153Y-76976086D01*
X166476086Y-76516153D01*
X166725000Y-75915222D01*
X166725000Y-75264778D01*
X166476086Y-74663847D01*
X166016153Y-74203914D01*
X165415222Y-73955000D01*
X164764778Y-73955000D01*
X164163847Y-74203914D01*
X163703914Y-74663847D01*
X163455000Y-75264778D01*
X160214085Y-75264778D01*
X160211856Y-75204540D01*
X160009387Y-74715736D01*
X159742532Y-74617073D01*
X158769605Y-75590000D01*
X158410395Y-75590000D01*
X157437468Y-74617073D01*
X157170613Y-74715736D01*
X156944092Y-75325461D01*
X154315439Y-75325461D01*
X153917944Y-75059864D01*
X153280000Y-74932969D01*
X152642055Y-75059864D01*
X152101231Y-75421231D01*
X151739864Y-75962056D01*
X151645000Y-76438970D01*
X151079333Y-76438970D01*
X151097031Y-76350000D01*
X150970136Y-75712055D01*
X150608769Y-75171231D01*
X150067945Y-74809864D01*
X149591031Y-74715000D01*
X147968969Y-74715000D01*
X147492055Y-74809864D01*
X146951231Y-75171231D01*
X146589864Y-75712055D01*
X146462969Y-76350000D01*
X145897303Y-76350000D01*
X145820136Y-75962055D01*
X145458769Y-75421231D01*
X144917944Y-75059864D01*
X144280000Y-74932969D01*
X143642055Y-75059864D01*
X143101231Y-75421231D01*
X142739864Y-75962056D01*
X142645000Y-76438970D01*
X119223029Y-76438970D01*
X119220524Y-71925431D01*
X120415000Y-71925431D01*
X120415000Y-72814569D01*
X120755259Y-73636026D01*
X121383974Y-74264741D01*
X122205431Y-74605000D01*
X123094569Y-74605000D01*
X123499026Y-74437468D01*
X157617073Y-74437468D01*
X158590000Y-75410395D01*
X159562927Y-74437468D01*
X159464264Y-74170613D01*
X158854539Y-73944092D01*
X158204540Y-73968144D01*
X157715736Y-74170613D01*
X157617073Y-74437468D01*
X123499026Y-74437468D01*
X123916026Y-74264741D01*
X124544741Y-73636026D01*
X124885000Y-72814569D01*
X124885000Y-71925431D01*
X124544741Y-71103974D01*
X123916026Y-70475259D01*
X123251493Y-70200000D01*
X128162560Y-70200000D01*
X128162560Y-71900000D01*
X128211843Y-72147765D01*
X128352191Y-72357809D01*
X128562235Y-72498157D01*
X128810000Y-72547440D01*
X130510000Y-72547440D01*
X130757765Y-72498157D01*
X130967809Y-72357809D01*
X131108157Y-72147765D01*
X131128739Y-72044292D01*
X131433076Y-72321645D01*
X131843110Y-72491476D01*
X132073000Y-72370155D01*
X132073000Y-71177000D01*
X132327000Y-71177000D01*
X132327000Y-72370155D01*
X132556890Y-72491476D01*
X132966924Y-72321645D01*
X133053734Y-72242532D01*
X157617073Y-72242532D01*
X157715736Y-72509387D01*
X158325461Y-72735908D01*
X158975460Y-72711856D01*
X159464264Y-72509387D01*
X159562927Y-72242532D01*
X158590000Y-71269605D01*
X157617073Y-72242532D01*
X133053734Y-72242532D01*
X133395183Y-71931358D01*
X133641486Y-71406892D01*
X133520819Y-71177000D01*
X132327000Y-71177000D01*
X132073000Y-71177000D01*
X132053000Y-71177000D01*
X132053000Y-70923000D01*
X132073000Y-70923000D01*
X132073000Y-69729845D01*
X132327000Y-69729845D01*
X132327000Y-70923000D01*
X133520819Y-70923000D01*
X133641486Y-70693108D01*
X133395183Y-70168642D01*
X132966924Y-69778355D01*
X132556890Y-69608524D01*
X132327000Y-69729845D01*
X132073000Y-69729845D01*
X131843110Y-69608524D01*
X131433076Y-69778355D01*
X131128739Y-70055708D01*
X131108157Y-69952235D01*
X130967809Y-69742191D01*
X130757765Y-69601843D01*
X130510000Y-69552560D01*
X128810000Y-69552560D01*
X128562235Y-69601843D01*
X128352191Y-69742191D01*
X128211843Y-69952235D01*
X128162560Y-70200000D01*
X123251493Y-70200000D01*
X123094569Y-70135000D01*
X122205431Y-70135000D01*
X121383974Y-70475259D01*
X120755259Y-71103974D01*
X120415000Y-71925431D01*
X119220524Y-71925431D01*
X119220014Y-71006063D01*
X119279820Y-70536286D01*
X119440356Y-70143985D01*
X119696956Y-69806602D01*
X120032136Y-69547126D01*
X120423052Y-69383242D01*
X120887823Y-69320032D01*
X139798773Y-69332640D01*
G04 #@! TD*
M02*
