%FSLAX45Y45*%
G04 Gerber Fmt 4.5, Leading zero omitted, Abs format (unit mm)*
G04 Created by KiCad (PCBNEW (5.0.0)) date 10/23/19 21:11:49*
%MOMM*%
%LPD*%
G01*
G04 APERTURE LIST*
%ADD10C,0.150000*%
%ADD11C,0.200000*%
%ADD12C,0.300000*%
G04 APERTURE END LIST*
D10*
X21315000Y-12512000D02*
G75*
G02X21082017Y-12746983I-233983J-1000D01*
G01*
X11851017Y-7095983D02*
G75*
G02X12084000Y-6861000I233983J1000D01*
G01*
X21315000Y-12510000D02*
X21318000Y-7100000D01*
X12084000Y-6861000D02*
X21083000Y-6867000D01*
X21083017Y-6867017D02*
G75*
G02X21318000Y-7100000I1000J-233983D01*
G01*
X21081000Y-12747000D02*
X12088000Y-12740000D01*
X12088983Y-12739983D02*
G75*
G02X11854000Y-12507000I-1000J233983D01*
G01*
X11851000Y-7098000D02*
X11854000Y-12507000D01*
D11*
X20344000Y-8568000D02*
X20374000Y-8598000D01*
X20374000Y-8568000D02*
X20344000Y-8598000D01*
X18344000Y-7568000D02*
X18374000Y-7598000D01*
X18374000Y-7568000D02*
X18344000Y-7598000D01*
X18344000Y-8068000D02*
X18374000Y-8098000D01*
X18374000Y-8068000D02*
X18344000Y-8098000D01*
X17844000Y-7568000D02*
X17874000Y-7598000D01*
X17874000Y-7568000D02*
X17844000Y-7598000D01*
X19844000Y-7568000D02*
X19874000Y-7598000D01*
X19874000Y-7568000D02*
X19844000Y-7598000D01*
X19344000Y-8068000D02*
X19374000Y-8098000D01*
X19374000Y-8068000D02*
X19344000Y-8098000D01*
X19844000Y-8068000D02*
X19874000Y-8098000D01*
X19874000Y-8068000D02*
X19844000Y-8098000D01*
X18844000Y-8068000D02*
X18874000Y-8098000D01*
X18874000Y-8068000D02*
X18844000Y-8098000D01*
X19844000Y-7068000D02*
X19874000Y-7098000D01*
X19874000Y-7068000D02*
X19844000Y-7098000D01*
X17344000Y-7068000D02*
X17374000Y-7098000D01*
X17374000Y-7068000D02*
X17344000Y-7098000D01*
X20344000Y-8068000D02*
X20374000Y-8098000D01*
X20374000Y-8068000D02*
X20344000Y-8098000D01*
X19344000Y-7568000D02*
X19374000Y-7598000D01*
X19374000Y-7568000D02*
X19344000Y-7598000D01*
X17344000Y-8568000D02*
X17374000Y-8598000D01*
X17374000Y-8568000D02*
X17344000Y-8598000D01*
X17844000Y-7068000D02*
X17874000Y-7098000D01*
X17874000Y-7068000D02*
X17844000Y-7098000D01*
X17844000Y-8568000D02*
X17874000Y-8598000D01*
X17874000Y-8568000D02*
X17844000Y-8598000D01*
X18844000Y-7568000D02*
X18874000Y-7598000D01*
X18874000Y-7568000D02*
X18844000Y-7598000D01*
X18844000Y-8568000D02*
X18874000Y-8598000D01*
X18874000Y-8568000D02*
X18844000Y-8598000D01*
X19344000Y-8568000D02*
X19374000Y-8598000D01*
X19374000Y-8568000D02*
X19344000Y-8598000D01*
X18344000Y-7068000D02*
X18374000Y-7098000D01*
X18374000Y-7068000D02*
X18344000Y-7098000D01*
X18844000Y-7068000D02*
X18874000Y-7098000D01*
X18874000Y-7068000D02*
X18844000Y-7098000D01*
X18344000Y-8568000D02*
X18374000Y-8598000D01*
X18374000Y-8568000D02*
X18344000Y-8598000D01*
X17844000Y-8068000D02*
X17874000Y-8098000D01*
X17874000Y-8068000D02*
X17844000Y-8098000D01*
X17344000Y-7568000D02*
X17374000Y-7598000D01*
X17374000Y-7568000D02*
X17344000Y-7598000D01*
X19844000Y-8568000D02*
X19874000Y-8598000D01*
X19874000Y-8568000D02*
X19844000Y-8598000D01*
X17344000Y-8068000D02*
X17374000Y-8098000D01*
X17374000Y-8068000D02*
X17344000Y-8098000D01*
X19344000Y-7068000D02*
X19374000Y-7098000D01*
X19374000Y-7068000D02*
X19344000Y-7098000D01*
X13737000Y-8114000D02*
G75*
G03X13737000Y-8114000I-20000J0D01*
G01*
X14691000Y-9081300D02*
G75*
G03X14691000Y-9081300I-20000J0D01*
G01*
X14691000Y-9525800D02*
G75*
G03X14691000Y-9525800I-20000J0D01*
G01*
X14691000Y-9970300D02*
G75*
G03X14691000Y-9970300I-20000J0D01*
G01*
X14691000Y-10414800D02*
G75*
G03X14691000Y-10414800I-20000J0D01*
G01*
X14691000Y-10859300D02*
G75*
G03X14691000Y-10859300I-20000J0D01*
G01*
X14691000Y-11303800D02*
G75*
G03X14691000Y-11303800I-20000J0D01*
G01*
X14691000Y-11748300D02*
G75*
G03X14691000Y-11748300I-20000J0D01*
G01*
X14691000Y-12459500D02*
G75*
G03X14691000Y-12459500I-20000J0D01*
G01*
X14825000Y-8389000D02*
G75*
G03X14825000Y-8389000I-20000J0D01*
G01*
X15170000Y-11279000D02*
G75*
G03X15170000Y-11279000I-20000J0D01*
G01*
X15192000Y-11034000D02*
G75*
G03X15192000Y-11034000I-20000J0D01*
G01*
X15446000Y-8340000D02*
G75*
G03X15446000Y-8340000I-20000J0D01*
G01*
X15481000Y-9686000D02*
G75*
G03X15481000Y-9686000I-20000J0D01*
G01*
X15481000Y-12112000D02*
G75*
G03X15481000Y-12112000I-20000J0D01*
G01*
X15587000Y-10901000D02*
G75*
G03X15587000Y-10901000I-20000J0D01*
G01*
X15771000Y-11979000D02*
G75*
G03X15771000Y-11979000I-20000J0D01*
G01*
X15783000Y-10085000D02*
G75*
G03X15783000Y-10085000I-20000J0D01*
G01*
X15972000Y-12220000D02*
G75*
G03X15972000Y-12220000I-20000J0D01*
G01*
X16162000Y-8788000D02*
G75*
G03X16162000Y-8788000I-20000J0D01*
G01*
X16426000Y-11460000D02*
G75*
G03X16426000Y-11460000I-20000J0D01*
G01*
X16527000Y-10579000D02*
G75*
G03X16527000Y-10579000I-20000J0D01*
G01*
X16531000Y-10729000D02*
G75*
G03X16531000Y-10729000I-20000J0D01*
G01*
X16566000Y-10389000D02*
G75*
G03X16566000Y-10389000I-20000J0D01*
G01*
X16572000Y-9819000D02*
G75*
G03X16572000Y-9819000I-20000J0D01*
G01*
X16628000Y-10109000D02*
G75*
G03X16628000Y-10109000I-20000J0D01*
G01*
X16646000Y-10527000D02*
G75*
G03X16646000Y-10527000I-20000J0D01*
G01*
X16649000Y-10778000D02*
G75*
G03X16649000Y-10778000I-20000J0D01*
G01*
X16674000Y-11237000D02*
G75*
G03X16674000Y-11237000I-20000J0D01*
G01*
X17046000Y-8467000D02*
G75*
G03X17046000Y-8467000I-20000J0D01*
G01*
X17053000Y-9819000D02*
G75*
G03X17053000Y-9819000I-20000J0D01*
G01*
X17841000Y-11090000D02*
G75*
G03X17841000Y-11090000I-20000J0D01*
G01*
X18325000Y-9874000D02*
G75*
G03X18325000Y-9874000I-20000J0D01*
G01*
X18364000Y-11996000D02*
G75*
G03X18364000Y-11996000I-20000J0D01*
G01*
X18478000Y-9959000D02*
G75*
G03X18478000Y-9959000I-20000J0D01*
G01*
X18479000Y-9724000D02*
G75*
G03X18479000Y-9724000I-20000J0D01*
G01*
X18568000Y-9806000D02*
G75*
G03X18568000Y-9806000I-20000J0D01*
G01*
X18568000Y-10125000D02*
G75*
G03X18568000Y-10125000I-20000J0D01*
G01*
X18571000Y-9629000D02*
G75*
G03X18571000Y-9629000I-20000J0D01*
G01*
X18740000Y-12638000D02*
G75*
G03X18740000Y-12638000I-20000J0D01*
G01*
X18741000Y-10424000D02*
G75*
G03X18741000Y-10424000I-20000J0D01*
G01*
X18911000Y-10551000D02*
G75*
G03X18911000Y-10551000I-20000J0D01*
G01*
X19055000Y-9030000D02*
G75*
G03X19055000Y-9030000I-20000J0D01*
G01*
X19151000Y-9651000D02*
G75*
G03X19151000Y-9651000I-20000J0D01*
G01*
X19764911Y-9915911D02*
G75*
G03X19764911Y-9915911I-20000J0D01*
G01*
X19801000Y-11279000D02*
G75*
G03X19801000Y-11279000I-20000J0D01*
G01*
X20005000Y-11576000D02*
G75*
G03X20005000Y-11576000I-20000J0D01*
G01*
X20148000Y-11576000D02*
G75*
G03X20148000Y-11576000I-20000J0D01*
G01*
X20173000Y-9641000D02*
G75*
G03X20173000Y-9641000I-20000J0D01*
G01*
X20257000Y-9748000D02*
G75*
G03X20257000Y-9748000I-20000J0D01*
G01*
X20334000Y-9840000D02*
G75*
G03X20334000Y-9840000I-20000J0D01*
G01*
X20491000Y-11542000D02*
G75*
G03X20491000Y-11542000I-20000J0D01*
G01*
X20750000Y-10337000D02*
G75*
G03X20750000Y-10337000I-20000J0D01*
G01*
X20801000Y-11732000D02*
G75*
G03X20801000Y-11732000I-20000J0D01*
G01*
X20808000Y-9512000D02*
G75*
G03X20808000Y-9512000I-20000J0D01*
G01*
X21013000Y-10340000D02*
G75*
G03X21013000Y-10340000I-20000J0D01*
G01*
X21103000Y-11732000D02*
G75*
G03X21103000Y-11732000I-20000J0D01*
G01*
X19666359Y-12525624D02*
X19666359Y-12580624D01*
X19638859Y-12553124D02*
X19693859Y-12553124D01*
X19648859Y-12520624D02*
X19648859Y-12585624D01*
X19683859Y-12520624D02*
X19683859Y-12585624D01*
X19648859Y-12585624D02*
G75*
G03X19683859Y-12585624I17500J0D01*
G01*
X19683859Y-12520624D02*
G75*
G03X19648859Y-12520624I-17500J0D01*
G01*
X20441359Y-12525624D02*
X20441359Y-12580624D01*
X20413859Y-12553124D02*
X20468859Y-12553124D01*
X20423859Y-12520624D02*
X20423859Y-12585624D01*
X20458859Y-12520624D02*
X20458859Y-12585624D01*
X20423859Y-12585624D02*
G75*
G03X20458859Y-12585624I17500J0D01*
G01*
X20458859Y-12520624D02*
G75*
G03X20423859Y-12520624I-17500J0D01*
G01*
X14075284Y-7089284D02*
X14075284Y-7032715D01*
X14018715Y-7032715D01*
X14018715Y-7089284D01*
X14075284Y-7089284D01*
X14075284Y-8359284D02*
X14075284Y-8302715D01*
X14018715Y-8302715D01*
X14018715Y-8359284D01*
X14075284Y-8359284D01*
X19681359Y-12215624D02*
X19723859Y-12173124D01*
X19681359Y-12130624D01*
X19638859Y-12173124D01*
X19681359Y-12215624D01*
X19648859Y-12145624D02*
X19648859Y-12200624D01*
X19713859Y-12145624D02*
X19713859Y-12200624D01*
X19648859Y-12200624D02*
G75*
G03X19713859Y-12200624I32500J0D01*
G01*
X19713859Y-12145624D02*
G75*
G03X19648859Y-12145624I-32500J0D01*
G01*
X20426359Y-12215624D02*
X20468859Y-12173124D01*
X20426359Y-12130624D01*
X20383859Y-12173124D01*
X20426359Y-12215624D01*
X20393859Y-12145624D02*
X20393859Y-12200624D01*
X20458859Y-12145624D02*
X20458859Y-12200624D01*
X20393859Y-12200624D02*
G75*
G03X20458859Y-12200624I32500J0D01*
G01*
X20458859Y-12145624D02*
G75*
G03X20393859Y-12145624I-32500J0D01*
G01*
X15809500Y-7059500D02*
X15908500Y-7158500D01*
X15908500Y-7059500D02*
X15809500Y-7158500D01*
X15908500Y-7109000D02*
G75*
G03X15908500Y-7109000I-49500J0D01*
G01*
X15809500Y-7509500D02*
X15908500Y-7608500D01*
X15908500Y-7509500D02*
X15809500Y-7608500D01*
X15908500Y-7559000D02*
G75*
G03X15908500Y-7559000I-49500J0D01*
G01*
X16459500Y-7059500D02*
X16558500Y-7158500D01*
X16558500Y-7059500D02*
X16459500Y-7158500D01*
X16558500Y-7109000D02*
G75*
G03X16558500Y-7109000I-49500J0D01*
G01*
X16459500Y-7509500D02*
X16558500Y-7608500D01*
X16558500Y-7509500D02*
X16459500Y-7608500D01*
X16558500Y-7559000D02*
G75*
G03X16558500Y-7559000I-49500J0D01*
G01*
X12094000Y-9430000D02*
X12194000Y-9530000D01*
X12194000Y-9430000D02*
X12094000Y-9530000D01*
X12144000Y-9430000D02*
X12144000Y-9530000D01*
X12094000Y-9480000D02*
X12194000Y-9480000D01*
X12094000Y-9684000D02*
X12194000Y-9784000D01*
X12194000Y-9684000D02*
X12094000Y-9784000D01*
X12144000Y-9684000D02*
X12144000Y-9784000D01*
X12094000Y-9734000D02*
X12194000Y-9734000D01*
X12094000Y-9938000D02*
X12194000Y-10038000D01*
X12194000Y-9938000D02*
X12094000Y-10038000D01*
X12144000Y-9938000D02*
X12144000Y-10038000D01*
X12094000Y-9988000D02*
X12194000Y-9988000D01*
X12094000Y-10192000D02*
X12194000Y-10292000D01*
X12194000Y-10192000D02*
X12094000Y-10292000D01*
X12144000Y-10192000D02*
X12144000Y-10292000D01*
X12094000Y-10242000D02*
X12194000Y-10242000D01*
X12094000Y-10446000D02*
X12194000Y-10546000D01*
X12194000Y-10446000D02*
X12094000Y-10546000D01*
X12144000Y-10446000D02*
X12144000Y-10546000D01*
X12094000Y-10496000D02*
X12194000Y-10496000D01*
X12094000Y-10700000D02*
X12194000Y-10800000D01*
X12194000Y-10700000D02*
X12094000Y-10800000D01*
X12144000Y-10700000D02*
X12144000Y-10800000D01*
X12094000Y-10750000D02*
X12194000Y-10750000D01*
X12094000Y-10954000D02*
X12194000Y-11054000D01*
X12194000Y-10954000D02*
X12094000Y-11054000D01*
X12144000Y-10954000D02*
X12144000Y-11054000D01*
X12094000Y-11004000D02*
X12194000Y-11004000D01*
X12094000Y-11208000D02*
X12194000Y-11308000D01*
X12194000Y-11208000D02*
X12094000Y-11308000D01*
X12144000Y-11208000D02*
X12144000Y-11308000D01*
X12094000Y-11258000D02*
X12194000Y-11258000D01*
X12094000Y-11462000D02*
X12194000Y-11562000D01*
X12194000Y-11462000D02*
X12094000Y-11562000D01*
X12144000Y-11462000D02*
X12144000Y-11562000D01*
X12094000Y-11512000D02*
X12194000Y-11512000D01*
X12916000Y-7055000D02*
X13016000Y-7155000D01*
X13016000Y-7055000D02*
X12916000Y-7155000D01*
X12966000Y-7055000D02*
X12966000Y-7155000D01*
X12916000Y-7105000D02*
X13016000Y-7105000D01*
X13170000Y-7055000D02*
X13270000Y-7155000D01*
X13270000Y-7055000D02*
X13170000Y-7155000D01*
X13220000Y-7055000D02*
X13220000Y-7155000D01*
X13170000Y-7105000D02*
X13270000Y-7105000D01*
X17630000Y-10215000D02*
X17730000Y-10315000D01*
X17730000Y-10215000D02*
X17630000Y-10315000D01*
X17680000Y-10215000D02*
X17680000Y-10315000D01*
X17630000Y-10265000D02*
X17730000Y-10265000D01*
X17630000Y-10469000D02*
X17730000Y-10569000D01*
X17730000Y-10469000D02*
X17630000Y-10569000D01*
X17680000Y-10469000D02*
X17680000Y-10569000D01*
X17630000Y-10519000D02*
X17730000Y-10519000D01*
X17630000Y-10723000D02*
X17730000Y-10823000D01*
X17730000Y-10723000D02*
X17630000Y-10823000D01*
X17680000Y-10723000D02*
X17680000Y-10823000D01*
X17630000Y-10773000D02*
X17730000Y-10773000D01*
X17884000Y-10215000D02*
X17984000Y-10315000D01*
X17984000Y-10215000D02*
X17884000Y-10315000D01*
X17934000Y-10215000D02*
X17934000Y-10315000D01*
X17884000Y-10265000D02*
X17984000Y-10265000D01*
X17884000Y-10469000D02*
X17984000Y-10569000D01*
X17984000Y-10469000D02*
X17884000Y-10569000D01*
X17934000Y-10469000D02*
X17934000Y-10569000D01*
X17884000Y-10519000D02*
X17984000Y-10519000D01*
X17884000Y-10723000D02*
X17984000Y-10823000D01*
X17984000Y-10723000D02*
X17884000Y-10823000D01*
X17934000Y-10723000D02*
X17934000Y-10823000D01*
X17884000Y-10773000D02*
X17984000Y-10773000D01*
X13056000Y-9113000D02*
X13156000Y-9213000D01*
X13156000Y-9113000D02*
X13056000Y-9213000D01*
X13106000Y-9113000D02*
X13106000Y-9213000D01*
X13056000Y-9163000D02*
X13156000Y-9163000D01*
X13306000Y-9113000D02*
X13406000Y-9213000D01*
X13406000Y-9113000D02*
X13306000Y-9213000D01*
X13356000Y-9113000D02*
X13356000Y-9213000D01*
X13306000Y-9163000D02*
X13406000Y-9163000D01*
X13556000Y-9113000D02*
X13656000Y-9213000D01*
X13656000Y-9113000D02*
X13556000Y-9213000D01*
X13606000Y-9113000D02*
X13606000Y-9213000D01*
X13556000Y-9163000D02*
X13656000Y-9163000D01*
X13056000Y-11335500D02*
X13156000Y-11435500D01*
X13156000Y-11335500D02*
X13056000Y-11435500D01*
X13106000Y-11335500D02*
X13106000Y-11435500D01*
X13056000Y-11385500D02*
X13156000Y-11385500D01*
X13306000Y-11335500D02*
X13406000Y-11435500D01*
X13406000Y-11335500D02*
X13306000Y-11435500D01*
X13356000Y-11335500D02*
X13356000Y-11435500D01*
X13306000Y-11385500D02*
X13406000Y-11385500D01*
X13556000Y-11335500D02*
X13656000Y-11435500D01*
X13656000Y-11335500D02*
X13556000Y-11435500D01*
X13606000Y-11335500D02*
X13606000Y-11435500D01*
X13556000Y-11385500D02*
X13656000Y-11385500D01*
X13056000Y-8668500D02*
X13156000Y-8768500D01*
X13156000Y-8668500D02*
X13056000Y-8768500D01*
X13106000Y-8668500D02*
X13106000Y-8768500D01*
X13056000Y-8718500D02*
X13156000Y-8718500D01*
X13306000Y-8668500D02*
X13406000Y-8768500D01*
X13406000Y-8668500D02*
X13306000Y-8768500D01*
X13356000Y-8668500D02*
X13356000Y-8768500D01*
X13306000Y-8718500D02*
X13406000Y-8718500D01*
X13556000Y-8668500D02*
X13656000Y-8768500D01*
X13656000Y-8668500D02*
X13556000Y-8768500D01*
X13606000Y-8668500D02*
X13606000Y-8768500D01*
X13556000Y-8718500D02*
X13656000Y-8718500D01*
X13056000Y-10002000D02*
X13156000Y-10102000D01*
X13156000Y-10002000D02*
X13056000Y-10102000D01*
X13106000Y-10002000D02*
X13106000Y-10102000D01*
X13056000Y-10052000D02*
X13156000Y-10052000D01*
X13306000Y-10002000D02*
X13406000Y-10102000D01*
X13406000Y-10002000D02*
X13306000Y-10102000D01*
X13356000Y-10002000D02*
X13356000Y-10102000D01*
X13306000Y-10052000D02*
X13406000Y-10052000D01*
X13556000Y-10002000D02*
X13656000Y-10102000D01*
X13656000Y-10002000D02*
X13556000Y-10102000D01*
X13606000Y-10002000D02*
X13606000Y-10102000D01*
X13556000Y-10052000D02*
X13656000Y-10052000D01*
X14378000Y-7685000D02*
X14478000Y-7785000D01*
X14478000Y-7685000D02*
X14378000Y-7785000D01*
X14428000Y-7685000D02*
X14428000Y-7785000D01*
X14378000Y-7735000D02*
X14478000Y-7735000D01*
X14388000Y-7660000D02*
X14388000Y-7810000D01*
X14468000Y-7660000D02*
X14468000Y-7810000D01*
X14388000Y-7810000D02*
G75*
G03X14468000Y-7810000I40000J0D01*
G01*
X14468000Y-7660000D02*
G75*
G03X14388000Y-7660000I-40000J0D01*
G01*
X14828000Y-6985000D02*
X14928000Y-7085000D01*
X14928000Y-6985000D02*
X14828000Y-7085000D01*
X14878000Y-6985000D02*
X14878000Y-7085000D01*
X14828000Y-7035000D02*
X14928000Y-7035000D01*
X14778000Y-7075000D02*
X14978000Y-7075000D01*
X14778000Y-6995000D02*
X14978000Y-6995000D01*
X14978000Y-7075000D02*
G75*
G03X14978000Y-6995000I0J40000D01*
G01*
X14778000Y-6995000D02*
G75*
G03X14778000Y-7075000I0J-40000D01*
G01*
X14828000Y-7585000D02*
X14928000Y-7685000D01*
X14928000Y-7585000D02*
X14828000Y-7685000D01*
X14878000Y-7585000D02*
X14878000Y-7685000D01*
X14828000Y-7635000D02*
X14928000Y-7635000D01*
X14813000Y-7675000D02*
X14943000Y-7675000D01*
X14813000Y-7595000D02*
X14943000Y-7595000D01*
X14943000Y-7675000D02*
G75*
G03X14943000Y-7595000I0J40000D01*
G01*
X14813000Y-7595000D02*
G75*
G03X14813000Y-7675000I0J-40000D01*
G01*
X15278000Y-7685000D02*
X15378000Y-7785000D01*
X15378000Y-7685000D02*
X15278000Y-7785000D01*
X15328000Y-7685000D02*
X15328000Y-7785000D01*
X15278000Y-7735000D02*
X15378000Y-7735000D01*
X15288000Y-7660000D02*
X15288000Y-7810000D01*
X15368000Y-7660000D02*
X15368000Y-7810000D01*
X15288000Y-7810000D02*
G75*
G03X15368000Y-7810000I40000J0D01*
G01*
X15368000Y-7660000D02*
G75*
G03X15288000Y-7660000I-40000J0D01*
G01*
X13056000Y-10446500D02*
X13156000Y-10546500D01*
X13156000Y-10446500D02*
X13056000Y-10546500D01*
X13106000Y-10446500D02*
X13106000Y-10546500D01*
X13056000Y-10496500D02*
X13156000Y-10496500D01*
X13306000Y-10446500D02*
X13406000Y-10546500D01*
X13406000Y-10446500D02*
X13306000Y-10546500D01*
X13356000Y-10446500D02*
X13356000Y-10546500D01*
X13306000Y-10496500D02*
X13406000Y-10496500D01*
X13556000Y-10446500D02*
X13656000Y-10546500D01*
X13656000Y-10446500D02*
X13556000Y-10546500D01*
X13606000Y-10446500D02*
X13606000Y-10546500D01*
X13556000Y-10496500D02*
X13656000Y-10496500D01*
X13056000Y-11780000D02*
X13156000Y-11880000D01*
X13156000Y-11780000D02*
X13056000Y-11880000D01*
X13106000Y-11780000D02*
X13106000Y-11880000D01*
X13056000Y-11830000D02*
X13156000Y-11830000D01*
X13306000Y-11780000D02*
X13406000Y-11880000D01*
X13406000Y-11780000D02*
X13306000Y-11880000D01*
X13356000Y-11780000D02*
X13356000Y-11880000D01*
X13306000Y-11830000D02*
X13406000Y-11830000D01*
X13556000Y-11780000D02*
X13656000Y-11880000D01*
X13656000Y-11780000D02*
X13556000Y-11880000D01*
X13606000Y-11780000D02*
X13606000Y-11880000D01*
X13556000Y-11830000D02*
X13656000Y-11830000D01*
X13061588Y-12224500D02*
X13161588Y-12324500D01*
X13161588Y-12224500D02*
X13061588Y-12324500D01*
X13111588Y-12224500D02*
X13111588Y-12324500D01*
X13061588Y-12274500D02*
X13161588Y-12274500D01*
X13311588Y-12224500D02*
X13411588Y-12324500D01*
X13411588Y-12224500D02*
X13311588Y-12324500D01*
X13361588Y-12224500D02*
X13361588Y-12324500D01*
X13311588Y-12274500D02*
X13411588Y-12274500D01*
X13561588Y-12224500D02*
X13661588Y-12324500D01*
X13661588Y-12224500D02*
X13561588Y-12324500D01*
X13611588Y-12224500D02*
X13611588Y-12324500D01*
X13561588Y-12274500D02*
X13661588Y-12274500D01*
X20915000Y-7142000D02*
X21015000Y-7242000D01*
X21015000Y-7142000D02*
X20915000Y-7242000D01*
X20965000Y-7142000D02*
X20965000Y-7242000D01*
X20915000Y-7192000D02*
X21015000Y-7192000D01*
X20915000Y-7396000D02*
X21015000Y-7496000D01*
X21015000Y-7396000D02*
X20915000Y-7496000D01*
X20965000Y-7396000D02*
X20965000Y-7496000D01*
X20915000Y-7446000D02*
X21015000Y-7446000D01*
X20915000Y-7650000D02*
X21015000Y-7750000D01*
X21015000Y-7650000D02*
X20915000Y-7750000D01*
X20965000Y-7650000D02*
X20965000Y-7750000D01*
X20915000Y-7700000D02*
X21015000Y-7700000D01*
X20915000Y-7904000D02*
X21015000Y-8004000D01*
X21015000Y-7904000D02*
X20915000Y-8004000D01*
X20965000Y-7904000D02*
X20965000Y-8004000D01*
X20915000Y-7954000D02*
X21015000Y-7954000D01*
X20915000Y-8158000D02*
X21015000Y-8258000D01*
X21015000Y-8158000D02*
X20915000Y-8258000D01*
X20965000Y-8158000D02*
X20965000Y-8258000D01*
X20915000Y-8208000D02*
X21015000Y-8208000D01*
X20915000Y-8412000D02*
X21015000Y-8512000D01*
X21015000Y-8412000D02*
X20915000Y-8512000D01*
X20965000Y-8412000D02*
X20965000Y-8512000D01*
X20915000Y-8462000D02*
X21015000Y-8462000D01*
X13056000Y-10891000D02*
X13156000Y-10991000D01*
X13156000Y-10891000D02*
X13056000Y-10991000D01*
X13106000Y-10891000D02*
X13106000Y-10991000D01*
X13056000Y-10941000D02*
X13156000Y-10941000D01*
X13306000Y-10891000D02*
X13406000Y-10991000D01*
X13406000Y-10891000D02*
X13306000Y-10991000D01*
X13356000Y-10891000D02*
X13356000Y-10991000D01*
X13306000Y-10941000D02*
X13406000Y-10941000D01*
X13556000Y-10891000D02*
X13656000Y-10991000D01*
X13656000Y-10891000D02*
X13556000Y-10991000D01*
X13606000Y-10891000D02*
X13606000Y-10991000D01*
X13556000Y-10941000D02*
X13656000Y-10941000D01*
X13056000Y-9557500D02*
X13156000Y-9657500D01*
X13156000Y-9557500D02*
X13056000Y-9657500D01*
X13106000Y-9557500D02*
X13106000Y-9657500D01*
X13056000Y-9607500D02*
X13156000Y-9607500D01*
X13306000Y-9557500D02*
X13406000Y-9657500D01*
X13406000Y-9557500D02*
X13306000Y-9657500D01*
X13356000Y-9557500D02*
X13356000Y-9657500D01*
X13306000Y-9607500D02*
X13406000Y-9607500D01*
X13556000Y-9557500D02*
X13656000Y-9657500D01*
X13656000Y-9557500D02*
X13556000Y-9657500D01*
X13606000Y-9557500D02*
X13606000Y-9657500D01*
X13556000Y-9607500D02*
X13656000Y-9607500D01*
D12*
X12129928Y-13220214D02*
X12129928Y-12920214D01*
X12201357Y-12920214D01*
X12244214Y-12934500D01*
X12272786Y-12963071D01*
X12287071Y-12991643D01*
X12301357Y-13048786D01*
X12301357Y-13091643D01*
X12287071Y-13148786D01*
X12272786Y-13177357D01*
X12244214Y-13205929D01*
X12201357Y-13220214D01*
X12129928Y-13220214D01*
X12429928Y-13220214D02*
X12429928Y-13020214D01*
X12429928Y-13077357D02*
X12444214Y-13048786D01*
X12458500Y-13034500D01*
X12487071Y-13020214D01*
X12515643Y-13020214D01*
X12615643Y-13220214D02*
X12615643Y-13020214D01*
X12615643Y-12920214D02*
X12601357Y-12934500D01*
X12615643Y-12948786D01*
X12629928Y-12934500D01*
X12615643Y-12920214D01*
X12615643Y-12948786D01*
X12801357Y-13220214D02*
X12772786Y-13205929D01*
X12758500Y-13177357D01*
X12758500Y-12920214D01*
X12958500Y-13220214D02*
X12929928Y-13205929D01*
X12915643Y-13177357D01*
X12915643Y-12920214D01*
X13301357Y-13220214D02*
X13301357Y-12920214D01*
X13401357Y-13134500D01*
X13501357Y-12920214D01*
X13501357Y-13220214D01*
X13772786Y-13220214D02*
X13772786Y-13063071D01*
X13758500Y-13034500D01*
X13729928Y-13020214D01*
X13672786Y-13020214D01*
X13644214Y-13034500D01*
X13772786Y-13205929D02*
X13744214Y-13220214D01*
X13672786Y-13220214D01*
X13644214Y-13205929D01*
X13629928Y-13177357D01*
X13629928Y-13148786D01*
X13644214Y-13120214D01*
X13672786Y-13105929D01*
X13744214Y-13105929D01*
X13772786Y-13091643D01*
X13915643Y-13020214D02*
X13915643Y-13320214D01*
X13915643Y-13034500D02*
X13944214Y-13020214D01*
X14001357Y-13020214D01*
X14029928Y-13034500D01*
X14044214Y-13048786D01*
X14058500Y-13077357D01*
X14058500Y-13163071D01*
X14044214Y-13191643D01*
X14029928Y-13205929D01*
X14001357Y-13220214D01*
X13944214Y-13220214D01*
X13915643Y-13205929D01*
X14187071Y-13191643D02*
X14201357Y-13205929D01*
X14187071Y-13220214D01*
X14172786Y-13205929D01*
X14187071Y-13191643D01*
X14187071Y-13220214D01*
X14187071Y-13034500D02*
X14201357Y-13048786D01*
X14187071Y-13063071D01*
X14172786Y-13048786D01*
X14187071Y-13034500D01*
X14187071Y-13063071D01*
X11813500Y-13699500D02*
X11843500Y-13729500D01*
X11843500Y-13699500D02*
X11813500Y-13729500D01*
X12187071Y-13550214D02*
X12215643Y-13550214D01*
X12244214Y-13564500D01*
X12258500Y-13578786D01*
X12272786Y-13607357D01*
X12287071Y-13664500D01*
X12287071Y-13735929D01*
X12272786Y-13793071D01*
X12258500Y-13821643D01*
X12244214Y-13835929D01*
X12215643Y-13850214D01*
X12187071Y-13850214D01*
X12158500Y-13835929D01*
X12144214Y-13821643D01*
X12129928Y-13793071D01*
X12115643Y-13735929D01*
X12115643Y-13664500D01*
X12129928Y-13607357D01*
X12144214Y-13578786D01*
X12158500Y-13564500D01*
X12187071Y-13550214D01*
X12415643Y-13821643D02*
X12429928Y-13835929D01*
X12415643Y-13850214D01*
X12401357Y-13835929D01*
X12415643Y-13821643D01*
X12415643Y-13850214D01*
X12529928Y-13550214D02*
X12715643Y-13550214D01*
X12615643Y-13664500D01*
X12658500Y-13664500D01*
X12687071Y-13678786D01*
X12701357Y-13693071D01*
X12715643Y-13721643D01*
X12715643Y-13793071D01*
X12701357Y-13821643D01*
X12687071Y-13835929D01*
X12658500Y-13850214D01*
X12572786Y-13850214D01*
X12544214Y-13835929D01*
X12529928Y-13821643D01*
X12901357Y-13550214D02*
X12929928Y-13550214D01*
X12958500Y-13564500D01*
X12972786Y-13578786D01*
X12987071Y-13607357D01*
X13001357Y-13664500D01*
X13001357Y-13735929D01*
X12987071Y-13793071D01*
X12972786Y-13821643D01*
X12958500Y-13835929D01*
X12929928Y-13850214D01*
X12901357Y-13850214D01*
X12872786Y-13835929D01*
X12858500Y-13821643D01*
X12844214Y-13793071D01*
X12829928Y-13735929D01*
X12829928Y-13664500D01*
X12844214Y-13607357D01*
X12858500Y-13578786D01*
X12872786Y-13564500D01*
X12901357Y-13550214D01*
X13129928Y-13850214D02*
X13129928Y-13650214D01*
X13129928Y-13678786D02*
X13144214Y-13664500D01*
X13172786Y-13650214D01*
X13215643Y-13650214D01*
X13244214Y-13664500D01*
X13258500Y-13693071D01*
X13258500Y-13850214D01*
X13258500Y-13693071D02*
X13272786Y-13664500D01*
X13301357Y-13650214D01*
X13344214Y-13650214D01*
X13372786Y-13664500D01*
X13387071Y-13693071D01*
X13387071Y-13850214D01*
X13529928Y-13850214D02*
X13529928Y-13650214D01*
X13529928Y-13678786D02*
X13544214Y-13664500D01*
X13572786Y-13650214D01*
X13615643Y-13650214D01*
X13644214Y-13664500D01*
X13658500Y-13693071D01*
X13658500Y-13850214D01*
X13658500Y-13693071D02*
X13672786Y-13664500D01*
X13701357Y-13650214D01*
X13744214Y-13650214D01*
X13772786Y-13664500D01*
X13787071Y-13693071D01*
X13787071Y-13850214D01*
X14372786Y-13535929D02*
X14115643Y-13921643D01*
X14758500Y-13550214D02*
X14787071Y-13550214D01*
X14815643Y-13564500D01*
X14829928Y-13578786D01*
X14844214Y-13607357D01*
X14858500Y-13664500D01*
X14858500Y-13735929D01*
X14844214Y-13793071D01*
X14829928Y-13821643D01*
X14815643Y-13835929D01*
X14787071Y-13850214D01*
X14758500Y-13850214D01*
X14729928Y-13835929D01*
X14715643Y-13821643D01*
X14701357Y-13793071D01*
X14687071Y-13735929D01*
X14687071Y-13664500D01*
X14701357Y-13607357D01*
X14715643Y-13578786D01*
X14729928Y-13564500D01*
X14758500Y-13550214D01*
X14987071Y-13821643D02*
X15001357Y-13835929D01*
X14987071Y-13850214D01*
X14972786Y-13835929D01*
X14987071Y-13821643D01*
X14987071Y-13850214D01*
X15187071Y-13550214D02*
X15215643Y-13550214D01*
X15244214Y-13564500D01*
X15258500Y-13578786D01*
X15272786Y-13607357D01*
X15287071Y-13664500D01*
X15287071Y-13735929D01*
X15272786Y-13793071D01*
X15258500Y-13821643D01*
X15244214Y-13835929D01*
X15215643Y-13850214D01*
X15187071Y-13850214D01*
X15158500Y-13835929D01*
X15144214Y-13821643D01*
X15129928Y-13793071D01*
X15115643Y-13735929D01*
X15115643Y-13664500D01*
X15129928Y-13607357D01*
X15144214Y-13578786D01*
X15158500Y-13564500D01*
X15187071Y-13550214D01*
X15572786Y-13850214D02*
X15401357Y-13850214D01*
X15487071Y-13850214D02*
X15487071Y-13550214D01*
X15458500Y-13593071D01*
X15429928Y-13621643D01*
X15401357Y-13635929D01*
X15687071Y-13578786D02*
X15701357Y-13564500D01*
X15729928Y-13550214D01*
X15801357Y-13550214D01*
X15829928Y-13564500D01*
X15844214Y-13578786D01*
X15858500Y-13607357D01*
X15858500Y-13635929D01*
X15844214Y-13678786D01*
X15672786Y-13850214D01*
X15858500Y-13850214D01*
X15972786Y-13550214D02*
X15972786Y-13607357D01*
X16087071Y-13550214D02*
X16087071Y-13607357D01*
X16529928Y-13964500D02*
X16515643Y-13950214D01*
X16487071Y-13907357D01*
X16472786Y-13878786D01*
X16458500Y-13835929D01*
X16444214Y-13764500D01*
X16444214Y-13707357D01*
X16458500Y-13635929D01*
X16472786Y-13593071D01*
X16487071Y-13564500D01*
X16515643Y-13521643D01*
X16529928Y-13507357D01*
X16629928Y-13578786D02*
X16644214Y-13564500D01*
X16672786Y-13550214D01*
X16744214Y-13550214D01*
X16772786Y-13564500D01*
X16787071Y-13578786D01*
X16801357Y-13607357D01*
X16801357Y-13635929D01*
X16787071Y-13678786D01*
X16615643Y-13850214D01*
X16801357Y-13850214D01*
X17058500Y-13550214D02*
X17001357Y-13550214D01*
X16972786Y-13564500D01*
X16958500Y-13578786D01*
X16929928Y-13621643D01*
X16915643Y-13678786D01*
X16915643Y-13793071D01*
X16929928Y-13821643D01*
X16944214Y-13835929D01*
X16972786Y-13850214D01*
X17029928Y-13850214D01*
X17058500Y-13835929D01*
X17072786Y-13821643D01*
X17087071Y-13793071D01*
X17087071Y-13721643D01*
X17072786Y-13693071D01*
X17058500Y-13678786D01*
X17029928Y-13664500D01*
X16972786Y-13664500D01*
X16944214Y-13678786D01*
X16929928Y-13693071D01*
X16915643Y-13721643D01*
X17444214Y-13850214D02*
X17444214Y-13550214D01*
X17572786Y-13850214D02*
X17572786Y-13693071D01*
X17558500Y-13664500D01*
X17529928Y-13650214D01*
X17487071Y-13650214D01*
X17458500Y-13664500D01*
X17444214Y-13678786D01*
X17758500Y-13850214D02*
X17729928Y-13835929D01*
X17715643Y-13821643D01*
X17701357Y-13793071D01*
X17701357Y-13707357D01*
X17715643Y-13678786D01*
X17729928Y-13664500D01*
X17758500Y-13650214D01*
X17801357Y-13650214D01*
X17829928Y-13664500D01*
X17844214Y-13678786D01*
X17858500Y-13707357D01*
X17858500Y-13793071D01*
X17844214Y-13821643D01*
X17829928Y-13835929D01*
X17801357Y-13850214D01*
X17758500Y-13850214D01*
X18029928Y-13850214D02*
X18001357Y-13835929D01*
X17987071Y-13807357D01*
X17987071Y-13550214D01*
X18258500Y-13835929D02*
X18229928Y-13850214D01*
X18172786Y-13850214D01*
X18144214Y-13835929D01*
X18129928Y-13807357D01*
X18129928Y-13693071D01*
X18144214Y-13664500D01*
X18172786Y-13650214D01*
X18229928Y-13650214D01*
X18258500Y-13664500D01*
X18272786Y-13693071D01*
X18272786Y-13721643D01*
X18129928Y-13750214D01*
X18387071Y-13835929D02*
X18415643Y-13850214D01*
X18472786Y-13850214D01*
X18501357Y-13835929D01*
X18515643Y-13807357D01*
X18515643Y-13793071D01*
X18501357Y-13764500D01*
X18472786Y-13750214D01*
X18429928Y-13750214D01*
X18401357Y-13735929D01*
X18387071Y-13707357D01*
X18387071Y-13693071D01*
X18401357Y-13664500D01*
X18429928Y-13650214D01*
X18472786Y-13650214D01*
X18501357Y-13664500D01*
X18615643Y-13964500D02*
X18629928Y-13950214D01*
X18658500Y-13907357D01*
X18672786Y-13878786D01*
X18687071Y-13835929D01*
X18701357Y-13764500D01*
X18701357Y-13707357D01*
X18687071Y-13635929D01*
X18672786Y-13593071D01*
X18658500Y-13564500D01*
X18629928Y-13521643D01*
X18615643Y-13507357D01*
X11843500Y-14110500D02*
G75*
G03X11843500Y-14110500I-20000J0D01*
G01*
X12187071Y-13946214D02*
X12215643Y-13946214D01*
X12244214Y-13960500D01*
X12258500Y-13974786D01*
X12272786Y-14003357D01*
X12287071Y-14060500D01*
X12287071Y-14131929D01*
X12272786Y-14189071D01*
X12258500Y-14217643D01*
X12244214Y-14231929D01*
X12215643Y-14246214D01*
X12187071Y-14246214D01*
X12158500Y-14231929D01*
X12144214Y-14217643D01*
X12129928Y-14189071D01*
X12115643Y-14131929D01*
X12115643Y-14060500D01*
X12129928Y-14003357D01*
X12144214Y-13974786D01*
X12158500Y-13960500D01*
X12187071Y-13946214D01*
X12415643Y-14217643D02*
X12429928Y-14231929D01*
X12415643Y-14246214D01*
X12401357Y-14231929D01*
X12415643Y-14217643D01*
X12415643Y-14246214D01*
X12687071Y-14046214D02*
X12687071Y-14246214D01*
X12615643Y-13931929D02*
X12544214Y-14146214D01*
X12729928Y-14146214D01*
X12901357Y-13946214D02*
X12929928Y-13946214D01*
X12958500Y-13960500D01*
X12972786Y-13974786D01*
X12987071Y-14003357D01*
X13001357Y-14060500D01*
X13001357Y-14131929D01*
X12987071Y-14189071D01*
X12972786Y-14217643D01*
X12958500Y-14231929D01*
X12929928Y-14246214D01*
X12901357Y-14246214D01*
X12872786Y-14231929D01*
X12858500Y-14217643D01*
X12844214Y-14189071D01*
X12829928Y-14131929D01*
X12829928Y-14060500D01*
X12844214Y-14003357D01*
X12858500Y-13974786D01*
X12872786Y-13960500D01*
X12901357Y-13946214D01*
X13129928Y-14246214D02*
X13129928Y-14046214D01*
X13129928Y-14074786D02*
X13144214Y-14060500D01*
X13172786Y-14046214D01*
X13215643Y-14046214D01*
X13244214Y-14060500D01*
X13258500Y-14089071D01*
X13258500Y-14246214D01*
X13258500Y-14089071D02*
X13272786Y-14060500D01*
X13301357Y-14046214D01*
X13344214Y-14046214D01*
X13372786Y-14060500D01*
X13387071Y-14089071D01*
X13387071Y-14246214D01*
X13529928Y-14246214D02*
X13529928Y-14046214D01*
X13529928Y-14074786D02*
X13544214Y-14060500D01*
X13572786Y-14046214D01*
X13615643Y-14046214D01*
X13644214Y-14060500D01*
X13658500Y-14089071D01*
X13658500Y-14246214D01*
X13658500Y-14089071D02*
X13672786Y-14060500D01*
X13701357Y-14046214D01*
X13744214Y-14046214D01*
X13772786Y-14060500D01*
X13787071Y-14089071D01*
X13787071Y-14246214D01*
X14372786Y-13931929D02*
X14115643Y-14317643D01*
X14758500Y-13946214D02*
X14787071Y-13946214D01*
X14815643Y-13960500D01*
X14829928Y-13974786D01*
X14844214Y-14003357D01*
X14858500Y-14060500D01*
X14858500Y-14131929D01*
X14844214Y-14189071D01*
X14829928Y-14217643D01*
X14815643Y-14231929D01*
X14787071Y-14246214D01*
X14758500Y-14246214D01*
X14729928Y-14231929D01*
X14715643Y-14217643D01*
X14701357Y-14189071D01*
X14687071Y-14131929D01*
X14687071Y-14060500D01*
X14701357Y-14003357D01*
X14715643Y-13974786D01*
X14729928Y-13960500D01*
X14758500Y-13946214D01*
X14987071Y-14217643D02*
X15001357Y-14231929D01*
X14987071Y-14246214D01*
X14972786Y-14231929D01*
X14987071Y-14217643D01*
X14987071Y-14246214D01*
X15187071Y-13946214D02*
X15215643Y-13946214D01*
X15244214Y-13960500D01*
X15258500Y-13974786D01*
X15272786Y-14003357D01*
X15287071Y-14060500D01*
X15287071Y-14131929D01*
X15272786Y-14189071D01*
X15258500Y-14217643D01*
X15244214Y-14231929D01*
X15215643Y-14246214D01*
X15187071Y-14246214D01*
X15158500Y-14231929D01*
X15144214Y-14217643D01*
X15129928Y-14189071D01*
X15115643Y-14131929D01*
X15115643Y-14060500D01*
X15129928Y-14003357D01*
X15144214Y-13974786D01*
X15158500Y-13960500D01*
X15187071Y-13946214D01*
X15572786Y-14246214D02*
X15401357Y-14246214D01*
X15487071Y-14246214D02*
X15487071Y-13946214D01*
X15458500Y-13989071D01*
X15429928Y-14017643D01*
X15401357Y-14031929D01*
X15829928Y-13946214D02*
X15772786Y-13946214D01*
X15744214Y-13960500D01*
X15729928Y-13974786D01*
X15701357Y-14017643D01*
X15687071Y-14074786D01*
X15687071Y-14189071D01*
X15701357Y-14217643D01*
X15715643Y-14231929D01*
X15744214Y-14246214D01*
X15801357Y-14246214D01*
X15829928Y-14231929D01*
X15844214Y-14217643D01*
X15858500Y-14189071D01*
X15858500Y-14117643D01*
X15844214Y-14089071D01*
X15829928Y-14074786D01*
X15801357Y-14060500D01*
X15744214Y-14060500D01*
X15715643Y-14074786D01*
X15701357Y-14089071D01*
X15687071Y-14117643D01*
X15972786Y-13946214D02*
X15972786Y-14003357D01*
X16087071Y-13946214D02*
X16087071Y-14003357D01*
X16529928Y-14360500D02*
X16515643Y-14346214D01*
X16487071Y-14303357D01*
X16472786Y-14274786D01*
X16458500Y-14231929D01*
X16444214Y-14160500D01*
X16444214Y-14103357D01*
X16458500Y-14031929D01*
X16472786Y-13989071D01*
X16487071Y-13960500D01*
X16515643Y-13917643D01*
X16529928Y-13903357D01*
X16787071Y-13946214D02*
X16644214Y-13946214D01*
X16629928Y-14089071D01*
X16644214Y-14074786D01*
X16672786Y-14060500D01*
X16744214Y-14060500D01*
X16772786Y-14074786D01*
X16787071Y-14089071D01*
X16801357Y-14117643D01*
X16801357Y-14189071D01*
X16787071Y-14217643D01*
X16772786Y-14231929D01*
X16744214Y-14246214D01*
X16672786Y-14246214D01*
X16644214Y-14231929D01*
X16629928Y-14217643D01*
X16901357Y-13946214D02*
X17101357Y-13946214D01*
X16972786Y-14246214D01*
X17444214Y-14246214D02*
X17444214Y-13946214D01*
X17572786Y-14246214D02*
X17572786Y-14089071D01*
X17558500Y-14060500D01*
X17529928Y-14046214D01*
X17487071Y-14046214D01*
X17458500Y-14060500D01*
X17444214Y-14074786D01*
X17758500Y-14246214D02*
X17729928Y-14231929D01*
X17715643Y-14217643D01*
X17701357Y-14189071D01*
X17701357Y-14103357D01*
X17715643Y-14074786D01*
X17729928Y-14060500D01*
X17758500Y-14046214D01*
X17801357Y-14046214D01*
X17829928Y-14060500D01*
X17844214Y-14074786D01*
X17858500Y-14103357D01*
X17858500Y-14189071D01*
X17844214Y-14217643D01*
X17829928Y-14231929D01*
X17801357Y-14246214D01*
X17758500Y-14246214D01*
X18029928Y-14246214D02*
X18001357Y-14231929D01*
X17987071Y-14203357D01*
X17987071Y-13946214D01*
X18258500Y-14231929D02*
X18229928Y-14246214D01*
X18172786Y-14246214D01*
X18144214Y-14231929D01*
X18129928Y-14203357D01*
X18129928Y-14089071D01*
X18144214Y-14060500D01*
X18172786Y-14046214D01*
X18229928Y-14046214D01*
X18258500Y-14060500D01*
X18272786Y-14089071D01*
X18272786Y-14117643D01*
X18129928Y-14146214D01*
X18387071Y-14231929D02*
X18415643Y-14246214D01*
X18472786Y-14246214D01*
X18501357Y-14231929D01*
X18515643Y-14203357D01*
X18515643Y-14189071D01*
X18501357Y-14160500D01*
X18472786Y-14146214D01*
X18429928Y-14146214D01*
X18401357Y-14131929D01*
X18387071Y-14103357D01*
X18387071Y-14089071D01*
X18401357Y-14060500D01*
X18429928Y-14046214D01*
X18472786Y-14046214D01*
X18501357Y-14060500D01*
X18615643Y-14360500D02*
X18629928Y-14346214D01*
X18658500Y-14303357D01*
X18672786Y-14274786D01*
X18687071Y-14231929D01*
X18701357Y-14160500D01*
X18701357Y-14103357D01*
X18687071Y-14031929D01*
X18672786Y-13989071D01*
X18658500Y-13960500D01*
X18629928Y-13917643D01*
X18615643Y-13903357D01*
X11816000Y-14479000D02*
X11816000Y-14534000D01*
X11788500Y-14506500D02*
X11843500Y-14506500D01*
X12187071Y-14342214D02*
X12215643Y-14342214D01*
X12244214Y-14356500D01*
X12258500Y-14370786D01*
X12272786Y-14399357D01*
X12287071Y-14456500D01*
X12287071Y-14527929D01*
X12272786Y-14585071D01*
X12258500Y-14613643D01*
X12244214Y-14627929D01*
X12215643Y-14642214D01*
X12187071Y-14642214D01*
X12158500Y-14627929D01*
X12144214Y-14613643D01*
X12129928Y-14585071D01*
X12115643Y-14527929D01*
X12115643Y-14456500D01*
X12129928Y-14399357D01*
X12144214Y-14370786D01*
X12158500Y-14356500D01*
X12187071Y-14342214D01*
X12415643Y-14613643D02*
X12429928Y-14627929D01*
X12415643Y-14642214D01*
X12401357Y-14627929D01*
X12415643Y-14613643D01*
X12415643Y-14642214D01*
X12701357Y-14342214D02*
X12558500Y-14342214D01*
X12544214Y-14485071D01*
X12558500Y-14470786D01*
X12587071Y-14456500D01*
X12658500Y-14456500D01*
X12687071Y-14470786D01*
X12701357Y-14485071D01*
X12715643Y-14513643D01*
X12715643Y-14585071D01*
X12701357Y-14613643D01*
X12687071Y-14627929D01*
X12658500Y-14642214D01*
X12587071Y-14642214D01*
X12558500Y-14627929D01*
X12544214Y-14613643D01*
X12987071Y-14342214D02*
X12844214Y-14342214D01*
X12829928Y-14485071D01*
X12844214Y-14470786D01*
X12872786Y-14456500D01*
X12944214Y-14456500D01*
X12972786Y-14470786D01*
X12987071Y-14485071D01*
X13001357Y-14513643D01*
X13001357Y-14585071D01*
X12987071Y-14613643D01*
X12972786Y-14627929D01*
X12944214Y-14642214D01*
X12872786Y-14642214D01*
X12844214Y-14627929D01*
X12829928Y-14613643D01*
X13129928Y-14642214D02*
X13129928Y-14442214D01*
X13129928Y-14470786D02*
X13144214Y-14456500D01*
X13172786Y-14442214D01*
X13215643Y-14442214D01*
X13244214Y-14456500D01*
X13258500Y-14485071D01*
X13258500Y-14642214D01*
X13258500Y-14485071D02*
X13272786Y-14456500D01*
X13301357Y-14442214D01*
X13344214Y-14442214D01*
X13372786Y-14456500D01*
X13387071Y-14485071D01*
X13387071Y-14642214D01*
X13529928Y-14642214D02*
X13529928Y-14442214D01*
X13529928Y-14470786D02*
X13544214Y-14456500D01*
X13572786Y-14442214D01*
X13615643Y-14442214D01*
X13644214Y-14456500D01*
X13658500Y-14485071D01*
X13658500Y-14642214D01*
X13658500Y-14485071D02*
X13672786Y-14456500D01*
X13701357Y-14442214D01*
X13744214Y-14442214D01*
X13772786Y-14456500D01*
X13787071Y-14485071D01*
X13787071Y-14642214D01*
X14372786Y-14327929D02*
X14115643Y-14713643D01*
X14758500Y-14342214D02*
X14787071Y-14342214D01*
X14815643Y-14356500D01*
X14829928Y-14370786D01*
X14844214Y-14399357D01*
X14858500Y-14456500D01*
X14858500Y-14527929D01*
X14844214Y-14585071D01*
X14829928Y-14613643D01*
X14815643Y-14627929D01*
X14787071Y-14642214D01*
X14758500Y-14642214D01*
X14729928Y-14627929D01*
X14715643Y-14613643D01*
X14701357Y-14585071D01*
X14687071Y-14527929D01*
X14687071Y-14456500D01*
X14701357Y-14399357D01*
X14715643Y-14370786D01*
X14729928Y-14356500D01*
X14758500Y-14342214D01*
X14987071Y-14613643D02*
X15001357Y-14627929D01*
X14987071Y-14642214D01*
X14972786Y-14627929D01*
X14987071Y-14613643D01*
X14987071Y-14642214D01*
X15187071Y-14342214D02*
X15215643Y-14342214D01*
X15244214Y-14356500D01*
X15258500Y-14370786D01*
X15272786Y-14399357D01*
X15287071Y-14456500D01*
X15287071Y-14527929D01*
X15272786Y-14585071D01*
X15258500Y-14613643D01*
X15244214Y-14627929D01*
X15215643Y-14642214D01*
X15187071Y-14642214D01*
X15158500Y-14627929D01*
X15144214Y-14613643D01*
X15129928Y-14585071D01*
X15115643Y-14527929D01*
X15115643Y-14456500D01*
X15129928Y-14399357D01*
X15144214Y-14370786D01*
X15158500Y-14356500D01*
X15187071Y-14342214D01*
X15401357Y-14370786D02*
X15415643Y-14356500D01*
X15444214Y-14342214D01*
X15515643Y-14342214D01*
X15544214Y-14356500D01*
X15558500Y-14370786D01*
X15572786Y-14399357D01*
X15572786Y-14427929D01*
X15558500Y-14470786D01*
X15387071Y-14642214D01*
X15572786Y-14642214D01*
X15687071Y-14370786D02*
X15701357Y-14356500D01*
X15729928Y-14342214D01*
X15801357Y-14342214D01*
X15829928Y-14356500D01*
X15844214Y-14370786D01*
X15858500Y-14399357D01*
X15858500Y-14427929D01*
X15844214Y-14470786D01*
X15672786Y-14642214D01*
X15858500Y-14642214D01*
X15972786Y-14342214D02*
X15972786Y-14399357D01*
X16087071Y-14342214D02*
X16087071Y-14399357D01*
X16529928Y-14756500D02*
X16515643Y-14742214D01*
X16487071Y-14699357D01*
X16472786Y-14670786D01*
X16458500Y-14627929D01*
X16444214Y-14556500D01*
X16444214Y-14499357D01*
X16458500Y-14427929D01*
X16472786Y-14385071D01*
X16487071Y-14356500D01*
X16515643Y-14313643D01*
X16529928Y-14299357D01*
X16701357Y-14342214D02*
X16729928Y-14342214D01*
X16758500Y-14356500D01*
X16772786Y-14370786D01*
X16787071Y-14399357D01*
X16801357Y-14456500D01*
X16801357Y-14527929D01*
X16787071Y-14585071D01*
X16772786Y-14613643D01*
X16758500Y-14627929D01*
X16729928Y-14642214D01*
X16701357Y-14642214D01*
X16672786Y-14627929D01*
X16658500Y-14613643D01*
X16644214Y-14585071D01*
X16629928Y-14527929D01*
X16629928Y-14456500D01*
X16644214Y-14399357D01*
X16658500Y-14370786D01*
X16672786Y-14356500D01*
X16701357Y-14342214D01*
X17158500Y-14642214D02*
X17158500Y-14342214D01*
X17287071Y-14642214D02*
X17287071Y-14485071D01*
X17272786Y-14456500D01*
X17244214Y-14442214D01*
X17201357Y-14442214D01*
X17172786Y-14456500D01*
X17158500Y-14470786D01*
X17472786Y-14642214D02*
X17444214Y-14627929D01*
X17429928Y-14613643D01*
X17415643Y-14585071D01*
X17415643Y-14499357D01*
X17429928Y-14470786D01*
X17444214Y-14456500D01*
X17472786Y-14442214D01*
X17515643Y-14442214D01*
X17544214Y-14456500D01*
X17558500Y-14470786D01*
X17572786Y-14499357D01*
X17572786Y-14585071D01*
X17558500Y-14613643D01*
X17544214Y-14627929D01*
X17515643Y-14642214D01*
X17472786Y-14642214D01*
X17744214Y-14642214D02*
X17715643Y-14627929D01*
X17701357Y-14599357D01*
X17701357Y-14342214D01*
X17972786Y-14627929D02*
X17944214Y-14642214D01*
X17887071Y-14642214D01*
X17858500Y-14627929D01*
X17844214Y-14599357D01*
X17844214Y-14485071D01*
X17858500Y-14456500D01*
X17887071Y-14442214D01*
X17944214Y-14442214D01*
X17972786Y-14456500D01*
X17987071Y-14485071D01*
X17987071Y-14513643D01*
X17844214Y-14542214D01*
X18101357Y-14627929D02*
X18129928Y-14642214D01*
X18187071Y-14642214D01*
X18215643Y-14627929D01*
X18229928Y-14599357D01*
X18229928Y-14585071D01*
X18215643Y-14556500D01*
X18187071Y-14542214D01*
X18144214Y-14542214D01*
X18115643Y-14527929D01*
X18101357Y-14499357D01*
X18101357Y-14485071D01*
X18115643Y-14456500D01*
X18144214Y-14442214D01*
X18187071Y-14442214D01*
X18215643Y-14456500D01*
X18587071Y-14527929D02*
X18815643Y-14527929D01*
X18701357Y-14642214D02*
X18701357Y-14413643D01*
X19172786Y-14370786D02*
X19187071Y-14356500D01*
X19215643Y-14342214D01*
X19287071Y-14342214D01*
X19315643Y-14356500D01*
X19329928Y-14370786D01*
X19344214Y-14399357D01*
X19344214Y-14427929D01*
X19329928Y-14470786D01*
X19158500Y-14642214D01*
X19344214Y-14642214D01*
X19687071Y-14627929D02*
X19715643Y-14642214D01*
X19772786Y-14642214D01*
X19801357Y-14627929D01*
X19815643Y-14599357D01*
X19815643Y-14585071D01*
X19801357Y-14556500D01*
X19772786Y-14542214D01*
X19729928Y-14542214D01*
X19701357Y-14527929D01*
X19687071Y-14499357D01*
X19687071Y-14485071D01*
X19701357Y-14456500D01*
X19729928Y-14442214D01*
X19772786Y-14442214D01*
X19801357Y-14456500D01*
X19987071Y-14642214D02*
X19958500Y-14627929D01*
X19944214Y-14599357D01*
X19944214Y-14342214D01*
X20144214Y-14642214D02*
X20115643Y-14627929D01*
X20101357Y-14613643D01*
X20087071Y-14585071D01*
X20087071Y-14499357D01*
X20101357Y-14470786D01*
X20115643Y-14456500D01*
X20144214Y-14442214D01*
X20187071Y-14442214D01*
X20215643Y-14456500D01*
X20229928Y-14470786D01*
X20244214Y-14499357D01*
X20244214Y-14585071D01*
X20229928Y-14613643D01*
X20215643Y-14627929D01*
X20187071Y-14642214D01*
X20144214Y-14642214D01*
X20329928Y-14442214D02*
X20444214Y-14442214D01*
X20372786Y-14342214D02*
X20372786Y-14599357D01*
X20387071Y-14627929D01*
X20415643Y-14642214D01*
X20444214Y-14642214D01*
X20529928Y-14627929D02*
X20558500Y-14642214D01*
X20615643Y-14642214D01*
X20644214Y-14627929D01*
X20658500Y-14599357D01*
X20658500Y-14585071D01*
X20644214Y-14556500D01*
X20615643Y-14542214D01*
X20572786Y-14542214D01*
X20544214Y-14527929D01*
X20529928Y-14499357D01*
X20529928Y-14485071D01*
X20544214Y-14456500D01*
X20572786Y-14442214D01*
X20615643Y-14442214D01*
X20644214Y-14456500D01*
X20758500Y-14756500D02*
X20772786Y-14742214D01*
X20801357Y-14699357D01*
X20815643Y-14670786D01*
X20829928Y-14627929D01*
X20844214Y-14556500D01*
X20844214Y-14499357D01*
X20829928Y-14427929D01*
X20815643Y-14385071D01*
X20801357Y-14356500D01*
X20772786Y-14313643D01*
X20758500Y-14299357D01*
X11831784Y-14930785D02*
X11831784Y-14874216D01*
X11775215Y-14874216D01*
X11775215Y-14930785D01*
X11831784Y-14930785D01*
X12187071Y-14738214D02*
X12215643Y-14738214D01*
X12244214Y-14752500D01*
X12258500Y-14766786D01*
X12272786Y-14795357D01*
X12287071Y-14852500D01*
X12287071Y-14923929D01*
X12272786Y-14981071D01*
X12258500Y-15009643D01*
X12244214Y-15023929D01*
X12215643Y-15038214D01*
X12187071Y-15038214D01*
X12158500Y-15023929D01*
X12144214Y-15009643D01*
X12129928Y-14981071D01*
X12115643Y-14923929D01*
X12115643Y-14852500D01*
X12129928Y-14795357D01*
X12144214Y-14766786D01*
X12158500Y-14752500D01*
X12187071Y-14738214D01*
X12415643Y-15009643D02*
X12429928Y-15023929D01*
X12415643Y-15038214D01*
X12401357Y-15023929D01*
X12415643Y-15009643D01*
X12415643Y-15038214D01*
X12601357Y-14866786D02*
X12572786Y-14852500D01*
X12558500Y-14838214D01*
X12544214Y-14809643D01*
X12544214Y-14795357D01*
X12558500Y-14766786D01*
X12572786Y-14752500D01*
X12601357Y-14738214D01*
X12658500Y-14738214D01*
X12687071Y-14752500D01*
X12701357Y-14766786D01*
X12715643Y-14795357D01*
X12715643Y-14809643D01*
X12701357Y-14838214D01*
X12687071Y-14852500D01*
X12658500Y-14866786D01*
X12601357Y-14866786D01*
X12572786Y-14881071D01*
X12558500Y-14895357D01*
X12544214Y-14923929D01*
X12544214Y-14981071D01*
X12558500Y-15009643D01*
X12572786Y-15023929D01*
X12601357Y-15038214D01*
X12658500Y-15038214D01*
X12687071Y-15023929D01*
X12701357Y-15009643D01*
X12715643Y-14981071D01*
X12715643Y-14923929D01*
X12701357Y-14895357D01*
X12687071Y-14881071D01*
X12658500Y-14866786D01*
X12901357Y-14738214D02*
X12929928Y-14738214D01*
X12958500Y-14752500D01*
X12972786Y-14766786D01*
X12987071Y-14795357D01*
X13001357Y-14852500D01*
X13001357Y-14923929D01*
X12987071Y-14981071D01*
X12972786Y-15009643D01*
X12958500Y-15023929D01*
X12929928Y-15038214D01*
X12901357Y-15038214D01*
X12872786Y-15023929D01*
X12858500Y-15009643D01*
X12844214Y-14981071D01*
X12829928Y-14923929D01*
X12829928Y-14852500D01*
X12844214Y-14795357D01*
X12858500Y-14766786D01*
X12872786Y-14752500D01*
X12901357Y-14738214D01*
X13129928Y-15038214D02*
X13129928Y-14838214D01*
X13129928Y-14866786D02*
X13144214Y-14852500D01*
X13172786Y-14838214D01*
X13215643Y-14838214D01*
X13244214Y-14852500D01*
X13258500Y-14881071D01*
X13258500Y-15038214D01*
X13258500Y-14881071D02*
X13272786Y-14852500D01*
X13301357Y-14838214D01*
X13344214Y-14838214D01*
X13372786Y-14852500D01*
X13387071Y-14881071D01*
X13387071Y-15038214D01*
X13529928Y-15038214D02*
X13529928Y-14838214D01*
X13529928Y-14866786D02*
X13544214Y-14852500D01*
X13572786Y-14838214D01*
X13615643Y-14838214D01*
X13644214Y-14852500D01*
X13658500Y-14881071D01*
X13658500Y-15038214D01*
X13658500Y-14881071D02*
X13672786Y-14852500D01*
X13701357Y-14838214D01*
X13744214Y-14838214D01*
X13772786Y-14852500D01*
X13787071Y-14881071D01*
X13787071Y-15038214D01*
X14372786Y-14723929D02*
X14115643Y-15109643D01*
X14758500Y-14738214D02*
X14787071Y-14738214D01*
X14815643Y-14752500D01*
X14829928Y-14766786D01*
X14844214Y-14795357D01*
X14858500Y-14852500D01*
X14858500Y-14923929D01*
X14844214Y-14981071D01*
X14829928Y-15009643D01*
X14815643Y-15023929D01*
X14787071Y-15038214D01*
X14758500Y-15038214D01*
X14729928Y-15023929D01*
X14715643Y-15009643D01*
X14701357Y-14981071D01*
X14687071Y-14923929D01*
X14687071Y-14852500D01*
X14701357Y-14795357D01*
X14715643Y-14766786D01*
X14729928Y-14752500D01*
X14758500Y-14738214D01*
X14987071Y-15009643D02*
X15001357Y-15023929D01*
X14987071Y-15038214D01*
X14972786Y-15023929D01*
X14987071Y-15009643D01*
X14987071Y-15038214D01*
X15187071Y-14738214D02*
X15215643Y-14738214D01*
X15244214Y-14752500D01*
X15258500Y-14766786D01*
X15272786Y-14795357D01*
X15287071Y-14852500D01*
X15287071Y-14923929D01*
X15272786Y-14981071D01*
X15258500Y-15009643D01*
X15244214Y-15023929D01*
X15215643Y-15038214D01*
X15187071Y-15038214D01*
X15158500Y-15023929D01*
X15144214Y-15009643D01*
X15129928Y-14981071D01*
X15115643Y-14923929D01*
X15115643Y-14852500D01*
X15129928Y-14795357D01*
X15144214Y-14766786D01*
X15158500Y-14752500D01*
X15187071Y-14738214D01*
X15387071Y-14738214D02*
X15572786Y-14738214D01*
X15472786Y-14852500D01*
X15515643Y-14852500D01*
X15544214Y-14866786D01*
X15558500Y-14881071D01*
X15572786Y-14909643D01*
X15572786Y-14981071D01*
X15558500Y-15009643D01*
X15544214Y-15023929D01*
X15515643Y-15038214D01*
X15429928Y-15038214D01*
X15401357Y-15023929D01*
X15387071Y-15009643D01*
X15858500Y-15038214D02*
X15687071Y-15038214D01*
X15772786Y-15038214D02*
X15772786Y-14738214D01*
X15744214Y-14781071D01*
X15715643Y-14809643D01*
X15687071Y-14823929D01*
X15972786Y-14738214D02*
X15972786Y-14795357D01*
X16087071Y-14738214D02*
X16087071Y-14795357D01*
X16529928Y-15152500D02*
X16515643Y-15138214D01*
X16487071Y-15095357D01*
X16472786Y-15066786D01*
X16458500Y-15023929D01*
X16444214Y-14952500D01*
X16444214Y-14895357D01*
X16458500Y-14823929D01*
X16472786Y-14781071D01*
X16487071Y-14752500D01*
X16515643Y-14709643D01*
X16529928Y-14695357D01*
X16629928Y-14766786D02*
X16644214Y-14752500D01*
X16672786Y-14738214D01*
X16744214Y-14738214D01*
X16772786Y-14752500D01*
X16787071Y-14766786D01*
X16801357Y-14795357D01*
X16801357Y-14823929D01*
X16787071Y-14866786D01*
X16615643Y-15038214D01*
X16801357Y-15038214D01*
X17158500Y-15038214D02*
X17158500Y-14738214D01*
X17287071Y-15038214D02*
X17287071Y-14881071D01*
X17272786Y-14852500D01*
X17244214Y-14838214D01*
X17201357Y-14838214D01*
X17172786Y-14852500D01*
X17158500Y-14866786D01*
X17472786Y-15038214D02*
X17444214Y-15023929D01*
X17429928Y-15009643D01*
X17415643Y-14981071D01*
X17415643Y-14895357D01*
X17429928Y-14866786D01*
X17444214Y-14852500D01*
X17472786Y-14838214D01*
X17515643Y-14838214D01*
X17544214Y-14852500D01*
X17558500Y-14866786D01*
X17572786Y-14895357D01*
X17572786Y-14981071D01*
X17558500Y-15009643D01*
X17544214Y-15023929D01*
X17515643Y-15038214D01*
X17472786Y-15038214D01*
X17744214Y-15038214D02*
X17715643Y-15023929D01*
X17701357Y-14995357D01*
X17701357Y-14738214D01*
X17972786Y-15023929D02*
X17944214Y-15038214D01*
X17887071Y-15038214D01*
X17858500Y-15023929D01*
X17844214Y-14995357D01*
X17844214Y-14881071D01*
X17858500Y-14852500D01*
X17887071Y-14838214D01*
X17944214Y-14838214D01*
X17972786Y-14852500D01*
X17987071Y-14881071D01*
X17987071Y-14909643D01*
X17844214Y-14938214D01*
X18101357Y-15023929D02*
X18129928Y-15038214D01*
X18187071Y-15038214D01*
X18215643Y-15023929D01*
X18229928Y-14995357D01*
X18229928Y-14981071D01*
X18215643Y-14952500D01*
X18187071Y-14938214D01*
X18144214Y-14938214D01*
X18115643Y-14923929D01*
X18101357Y-14895357D01*
X18101357Y-14881071D01*
X18115643Y-14852500D01*
X18144214Y-14838214D01*
X18187071Y-14838214D01*
X18215643Y-14852500D01*
X18329928Y-15152500D02*
X18344214Y-15138214D01*
X18372786Y-15095357D01*
X18387071Y-15066786D01*
X18401357Y-15023929D01*
X18415643Y-14952500D01*
X18415643Y-14895357D01*
X18401357Y-14823929D01*
X18387071Y-14781071D01*
X18372786Y-14752500D01*
X18344214Y-14709643D01*
X18329928Y-14695357D01*
X11801000Y-15341000D02*
X11843500Y-15298500D01*
X11801000Y-15256000D01*
X11758500Y-15298500D01*
X11801000Y-15341000D01*
X12187071Y-15134214D02*
X12215643Y-15134214D01*
X12244214Y-15148500D01*
X12258500Y-15162786D01*
X12272786Y-15191357D01*
X12287071Y-15248500D01*
X12287071Y-15319929D01*
X12272786Y-15377071D01*
X12258500Y-15405643D01*
X12244214Y-15419929D01*
X12215643Y-15434214D01*
X12187071Y-15434214D01*
X12158500Y-15419929D01*
X12144214Y-15405643D01*
X12129928Y-15377071D01*
X12115643Y-15319929D01*
X12115643Y-15248500D01*
X12129928Y-15191357D01*
X12144214Y-15162786D01*
X12158500Y-15148500D01*
X12187071Y-15134214D01*
X12415643Y-15405643D02*
X12429928Y-15419929D01*
X12415643Y-15434214D01*
X12401357Y-15419929D01*
X12415643Y-15405643D01*
X12415643Y-15434214D01*
X12601357Y-15262786D02*
X12572786Y-15248500D01*
X12558500Y-15234214D01*
X12544214Y-15205643D01*
X12544214Y-15191357D01*
X12558500Y-15162786D01*
X12572786Y-15148500D01*
X12601357Y-15134214D01*
X12658500Y-15134214D01*
X12687071Y-15148500D01*
X12701357Y-15162786D01*
X12715643Y-15191357D01*
X12715643Y-15205643D01*
X12701357Y-15234214D01*
X12687071Y-15248500D01*
X12658500Y-15262786D01*
X12601357Y-15262786D01*
X12572786Y-15277071D01*
X12558500Y-15291357D01*
X12544214Y-15319929D01*
X12544214Y-15377071D01*
X12558500Y-15405643D01*
X12572786Y-15419929D01*
X12601357Y-15434214D01*
X12658500Y-15434214D01*
X12687071Y-15419929D01*
X12701357Y-15405643D01*
X12715643Y-15377071D01*
X12715643Y-15319929D01*
X12701357Y-15291357D01*
X12687071Y-15277071D01*
X12658500Y-15262786D01*
X12987071Y-15134214D02*
X12844214Y-15134214D01*
X12829928Y-15277071D01*
X12844214Y-15262786D01*
X12872786Y-15248500D01*
X12944214Y-15248500D01*
X12972786Y-15262786D01*
X12987071Y-15277071D01*
X13001357Y-15305643D01*
X13001357Y-15377071D01*
X12987071Y-15405643D01*
X12972786Y-15419929D01*
X12944214Y-15434214D01*
X12872786Y-15434214D01*
X12844214Y-15419929D01*
X12829928Y-15405643D01*
X13129928Y-15434214D02*
X13129928Y-15234214D01*
X13129928Y-15262786D02*
X13144214Y-15248500D01*
X13172786Y-15234214D01*
X13215643Y-15234214D01*
X13244214Y-15248500D01*
X13258500Y-15277071D01*
X13258500Y-15434214D01*
X13258500Y-15277071D02*
X13272786Y-15248500D01*
X13301357Y-15234214D01*
X13344214Y-15234214D01*
X13372786Y-15248500D01*
X13387071Y-15277071D01*
X13387071Y-15434214D01*
X13529928Y-15434214D02*
X13529928Y-15234214D01*
X13529928Y-15262786D02*
X13544214Y-15248500D01*
X13572786Y-15234214D01*
X13615643Y-15234214D01*
X13644214Y-15248500D01*
X13658500Y-15277071D01*
X13658500Y-15434214D01*
X13658500Y-15277071D02*
X13672786Y-15248500D01*
X13701357Y-15234214D01*
X13744214Y-15234214D01*
X13772786Y-15248500D01*
X13787071Y-15277071D01*
X13787071Y-15434214D01*
X14372786Y-15119929D02*
X14115643Y-15505643D01*
X14758500Y-15134214D02*
X14787071Y-15134214D01*
X14815643Y-15148500D01*
X14829928Y-15162786D01*
X14844214Y-15191357D01*
X14858500Y-15248500D01*
X14858500Y-15319929D01*
X14844214Y-15377071D01*
X14829928Y-15405643D01*
X14815643Y-15419929D01*
X14787071Y-15434214D01*
X14758500Y-15434214D01*
X14729928Y-15419929D01*
X14715643Y-15405643D01*
X14701357Y-15377071D01*
X14687071Y-15319929D01*
X14687071Y-15248500D01*
X14701357Y-15191357D01*
X14715643Y-15162786D01*
X14729928Y-15148500D01*
X14758500Y-15134214D01*
X14987071Y-15405643D02*
X15001357Y-15419929D01*
X14987071Y-15434214D01*
X14972786Y-15419929D01*
X14987071Y-15405643D01*
X14987071Y-15434214D01*
X15187071Y-15134214D02*
X15215643Y-15134214D01*
X15244214Y-15148500D01*
X15258500Y-15162786D01*
X15272786Y-15191357D01*
X15287071Y-15248500D01*
X15287071Y-15319929D01*
X15272786Y-15377071D01*
X15258500Y-15405643D01*
X15244214Y-15419929D01*
X15215643Y-15434214D01*
X15187071Y-15434214D01*
X15158500Y-15419929D01*
X15144214Y-15405643D01*
X15129928Y-15377071D01*
X15115643Y-15319929D01*
X15115643Y-15248500D01*
X15129928Y-15191357D01*
X15144214Y-15162786D01*
X15158500Y-15148500D01*
X15187071Y-15134214D01*
X15387071Y-15134214D02*
X15572786Y-15134214D01*
X15472786Y-15248500D01*
X15515643Y-15248500D01*
X15544214Y-15262786D01*
X15558500Y-15277071D01*
X15572786Y-15305643D01*
X15572786Y-15377071D01*
X15558500Y-15405643D01*
X15544214Y-15419929D01*
X15515643Y-15434214D01*
X15429928Y-15434214D01*
X15401357Y-15419929D01*
X15387071Y-15405643D01*
X15672786Y-15134214D02*
X15858500Y-15134214D01*
X15758500Y-15248500D01*
X15801357Y-15248500D01*
X15829928Y-15262786D01*
X15844214Y-15277071D01*
X15858500Y-15305643D01*
X15858500Y-15377071D01*
X15844214Y-15405643D01*
X15829928Y-15419929D01*
X15801357Y-15434214D01*
X15715643Y-15434214D01*
X15687071Y-15419929D01*
X15672786Y-15405643D01*
X15972786Y-15134214D02*
X15972786Y-15191357D01*
X16087071Y-15134214D02*
X16087071Y-15191357D01*
X16529928Y-15548500D02*
X16515643Y-15534214D01*
X16487071Y-15491357D01*
X16472786Y-15462786D01*
X16458500Y-15419929D01*
X16444214Y-15348500D01*
X16444214Y-15291357D01*
X16458500Y-15219929D01*
X16472786Y-15177071D01*
X16487071Y-15148500D01*
X16515643Y-15105643D01*
X16529928Y-15091357D01*
X16701357Y-15134214D02*
X16729928Y-15134214D01*
X16758500Y-15148500D01*
X16772786Y-15162786D01*
X16787071Y-15191357D01*
X16801357Y-15248500D01*
X16801357Y-15319929D01*
X16787071Y-15377071D01*
X16772786Y-15405643D01*
X16758500Y-15419929D01*
X16729928Y-15434214D01*
X16701357Y-15434214D01*
X16672786Y-15419929D01*
X16658500Y-15405643D01*
X16644214Y-15377071D01*
X16629928Y-15319929D01*
X16629928Y-15248500D01*
X16644214Y-15191357D01*
X16658500Y-15162786D01*
X16672786Y-15148500D01*
X16701357Y-15134214D01*
X17158500Y-15434214D02*
X17158500Y-15134214D01*
X17287071Y-15434214D02*
X17287071Y-15277071D01*
X17272786Y-15248500D01*
X17244214Y-15234214D01*
X17201357Y-15234214D01*
X17172786Y-15248500D01*
X17158500Y-15262786D01*
X17472786Y-15434214D02*
X17444214Y-15419929D01*
X17429928Y-15405643D01*
X17415643Y-15377071D01*
X17415643Y-15291357D01*
X17429928Y-15262786D01*
X17444214Y-15248500D01*
X17472786Y-15234214D01*
X17515643Y-15234214D01*
X17544214Y-15248500D01*
X17558500Y-15262786D01*
X17572786Y-15291357D01*
X17572786Y-15377071D01*
X17558500Y-15405643D01*
X17544214Y-15419929D01*
X17515643Y-15434214D01*
X17472786Y-15434214D01*
X17744214Y-15434214D02*
X17715643Y-15419929D01*
X17701357Y-15391357D01*
X17701357Y-15134214D01*
X17972786Y-15419929D02*
X17944214Y-15434214D01*
X17887071Y-15434214D01*
X17858500Y-15419929D01*
X17844214Y-15391357D01*
X17844214Y-15277071D01*
X17858500Y-15248500D01*
X17887071Y-15234214D01*
X17944214Y-15234214D01*
X17972786Y-15248500D01*
X17987071Y-15277071D01*
X17987071Y-15305643D01*
X17844214Y-15334214D01*
X18101357Y-15419929D02*
X18129928Y-15434214D01*
X18187071Y-15434214D01*
X18215643Y-15419929D01*
X18229928Y-15391357D01*
X18229928Y-15377071D01*
X18215643Y-15348500D01*
X18187071Y-15334214D01*
X18144214Y-15334214D01*
X18115643Y-15319929D01*
X18101357Y-15291357D01*
X18101357Y-15277071D01*
X18115643Y-15248500D01*
X18144214Y-15234214D01*
X18187071Y-15234214D01*
X18215643Y-15248500D01*
X18587071Y-15319929D02*
X18815643Y-15319929D01*
X18701357Y-15434214D02*
X18701357Y-15205643D01*
X19172786Y-15162786D02*
X19187071Y-15148500D01*
X19215643Y-15134214D01*
X19287071Y-15134214D01*
X19315643Y-15148500D01*
X19329928Y-15162786D01*
X19344214Y-15191357D01*
X19344214Y-15219929D01*
X19329928Y-15262786D01*
X19158500Y-15434214D01*
X19344214Y-15434214D01*
X19687071Y-15419929D02*
X19715643Y-15434214D01*
X19772786Y-15434214D01*
X19801357Y-15419929D01*
X19815643Y-15391357D01*
X19815643Y-15377071D01*
X19801357Y-15348500D01*
X19772786Y-15334214D01*
X19729928Y-15334214D01*
X19701357Y-15319929D01*
X19687071Y-15291357D01*
X19687071Y-15277071D01*
X19701357Y-15248500D01*
X19729928Y-15234214D01*
X19772786Y-15234214D01*
X19801357Y-15248500D01*
X19987071Y-15434214D02*
X19958500Y-15419929D01*
X19944214Y-15391357D01*
X19944214Y-15134214D01*
X20144214Y-15434214D02*
X20115643Y-15419929D01*
X20101357Y-15405643D01*
X20087071Y-15377071D01*
X20087071Y-15291357D01*
X20101357Y-15262786D01*
X20115643Y-15248500D01*
X20144214Y-15234214D01*
X20187071Y-15234214D01*
X20215643Y-15248500D01*
X20229928Y-15262786D01*
X20244214Y-15291357D01*
X20244214Y-15377071D01*
X20229928Y-15405643D01*
X20215643Y-15419929D01*
X20187071Y-15434214D01*
X20144214Y-15434214D01*
X20329928Y-15234214D02*
X20444214Y-15234214D01*
X20372786Y-15134214D02*
X20372786Y-15391357D01*
X20387071Y-15419929D01*
X20415643Y-15434214D01*
X20444214Y-15434214D01*
X20529928Y-15419929D02*
X20558500Y-15434214D01*
X20615643Y-15434214D01*
X20644214Y-15419929D01*
X20658500Y-15391357D01*
X20658500Y-15377071D01*
X20644214Y-15348500D01*
X20615643Y-15334214D01*
X20572786Y-15334214D01*
X20544214Y-15319929D01*
X20529928Y-15291357D01*
X20529928Y-15277071D01*
X20544214Y-15248500D01*
X20572786Y-15234214D01*
X20615643Y-15234214D01*
X20644214Y-15248500D01*
X20758500Y-15548500D02*
X20772786Y-15534214D01*
X20801357Y-15491357D01*
X20815643Y-15462786D01*
X20829928Y-15419929D01*
X20844214Y-15348500D01*
X20844214Y-15291357D01*
X20829928Y-15219929D01*
X20815643Y-15177071D01*
X20801357Y-15148500D01*
X20772786Y-15105643D01*
X20758500Y-15091357D01*
X11744500Y-15645000D02*
X11843500Y-15744000D01*
X11843500Y-15645000D02*
X11744500Y-15744000D01*
X11843500Y-15694500D02*
G75*
G03X11843500Y-15694500I-49500J0D01*
G01*
X12187071Y-15530214D02*
X12215643Y-15530214D01*
X12244214Y-15544500D01*
X12258500Y-15558786D01*
X12272786Y-15587357D01*
X12287071Y-15644500D01*
X12287071Y-15715929D01*
X12272786Y-15773071D01*
X12258500Y-15801643D01*
X12244214Y-15815929D01*
X12215643Y-15830214D01*
X12187071Y-15830214D01*
X12158500Y-15815929D01*
X12144214Y-15801643D01*
X12129928Y-15773071D01*
X12115643Y-15715929D01*
X12115643Y-15644500D01*
X12129928Y-15587357D01*
X12144214Y-15558786D01*
X12158500Y-15544500D01*
X12187071Y-15530214D01*
X12415643Y-15801643D02*
X12429928Y-15815929D01*
X12415643Y-15830214D01*
X12401357Y-15815929D01*
X12415643Y-15801643D01*
X12415643Y-15830214D01*
X12572786Y-15830214D02*
X12629928Y-15830214D01*
X12658500Y-15815929D01*
X12672786Y-15801643D01*
X12701357Y-15758786D01*
X12715643Y-15701643D01*
X12715643Y-15587357D01*
X12701357Y-15558786D01*
X12687071Y-15544500D01*
X12658500Y-15530214D01*
X12601357Y-15530214D01*
X12572786Y-15544500D01*
X12558500Y-15558786D01*
X12544214Y-15587357D01*
X12544214Y-15658786D01*
X12558500Y-15687357D01*
X12572786Y-15701643D01*
X12601357Y-15715929D01*
X12658500Y-15715929D01*
X12687071Y-15701643D01*
X12701357Y-15687357D01*
X12715643Y-15658786D01*
X12858500Y-15830214D02*
X12915643Y-15830214D01*
X12944214Y-15815929D01*
X12958500Y-15801643D01*
X12987071Y-15758786D01*
X13001357Y-15701643D01*
X13001357Y-15587357D01*
X12987071Y-15558786D01*
X12972786Y-15544500D01*
X12944214Y-15530214D01*
X12887071Y-15530214D01*
X12858500Y-15544500D01*
X12844214Y-15558786D01*
X12829928Y-15587357D01*
X12829928Y-15658786D01*
X12844214Y-15687357D01*
X12858500Y-15701643D01*
X12887071Y-15715929D01*
X12944214Y-15715929D01*
X12972786Y-15701643D01*
X12987071Y-15687357D01*
X13001357Y-15658786D01*
X13129928Y-15830214D02*
X13129928Y-15630214D01*
X13129928Y-15658786D02*
X13144214Y-15644500D01*
X13172786Y-15630214D01*
X13215643Y-15630214D01*
X13244214Y-15644500D01*
X13258500Y-15673071D01*
X13258500Y-15830214D01*
X13258500Y-15673071D02*
X13272786Y-15644500D01*
X13301357Y-15630214D01*
X13344214Y-15630214D01*
X13372786Y-15644500D01*
X13387071Y-15673071D01*
X13387071Y-15830214D01*
X13529928Y-15830214D02*
X13529928Y-15630214D01*
X13529928Y-15658786D02*
X13544214Y-15644500D01*
X13572786Y-15630214D01*
X13615643Y-15630214D01*
X13644214Y-15644500D01*
X13658500Y-15673071D01*
X13658500Y-15830214D01*
X13658500Y-15673071D02*
X13672786Y-15644500D01*
X13701357Y-15630214D01*
X13744214Y-15630214D01*
X13772786Y-15644500D01*
X13787071Y-15673071D01*
X13787071Y-15830214D01*
X14372786Y-15515929D02*
X14115643Y-15901643D01*
X14758500Y-15530214D02*
X14787071Y-15530214D01*
X14815643Y-15544500D01*
X14829928Y-15558786D01*
X14844214Y-15587357D01*
X14858500Y-15644500D01*
X14858500Y-15715929D01*
X14844214Y-15773071D01*
X14829928Y-15801643D01*
X14815643Y-15815929D01*
X14787071Y-15830214D01*
X14758500Y-15830214D01*
X14729928Y-15815929D01*
X14715643Y-15801643D01*
X14701357Y-15773071D01*
X14687071Y-15715929D01*
X14687071Y-15644500D01*
X14701357Y-15587357D01*
X14715643Y-15558786D01*
X14729928Y-15544500D01*
X14758500Y-15530214D01*
X14987071Y-15801643D02*
X15001357Y-15815929D01*
X14987071Y-15830214D01*
X14972786Y-15815929D01*
X14987071Y-15801643D01*
X14987071Y-15830214D01*
X15187071Y-15530214D02*
X15215643Y-15530214D01*
X15244214Y-15544500D01*
X15258500Y-15558786D01*
X15272786Y-15587357D01*
X15287071Y-15644500D01*
X15287071Y-15715929D01*
X15272786Y-15773071D01*
X15258500Y-15801643D01*
X15244214Y-15815929D01*
X15215643Y-15830214D01*
X15187071Y-15830214D01*
X15158500Y-15815929D01*
X15144214Y-15801643D01*
X15129928Y-15773071D01*
X15115643Y-15715929D01*
X15115643Y-15644500D01*
X15129928Y-15587357D01*
X15144214Y-15558786D01*
X15158500Y-15544500D01*
X15187071Y-15530214D01*
X15387071Y-15530214D02*
X15572786Y-15530214D01*
X15472786Y-15644500D01*
X15515643Y-15644500D01*
X15544214Y-15658786D01*
X15558500Y-15673071D01*
X15572786Y-15701643D01*
X15572786Y-15773071D01*
X15558500Y-15801643D01*
X15544214Y-15815929D01*
X15515643Y-15830214D01*
X15429928Y-15830214D01*
X15401357Y-15815929D01*
X15387071Y-15801643D01*
X15715643Y-15830214D02*
X15772786Y-15830214D01*
X15801357Y-15815929D01*
X15815643Y-15801643D01*
X15844214Y-15758786D01*
X15858500Y-15701643D01*
X15858500Y-15587357D01*
X15844214Y-15558786D01*
X15829928Y-15544500D01*
X15801357Y-15530214D01*
X15744214Y-15530214D01*
X15715643Y-15544500D01*
X15701357Y-15558786D01*
X15687071Y-15587357D01*
X15687071Y-15658786D01*
X15701357Y-15687357D01*
X15715643Y-15701643D01*
X15744214Y-15715929D01*
X15801357Y-15715929D01*
X15829928Y-15701643D01*
X15844214Y-15687357D01*
X15858500Y-15658786D01*
X15972786Y-15530214D02*
X15972786Y-15587357D01*
X16087071Y-15530214D02*
X16087071Y-15587357D01*
X16529928Y-15944500D02*
X16515643Y-15930214D01*
X16487071Y-15887357D01*
X16472786Y-15858786D01*
X16458500Y-15815929D01*
X16444214Y-15744500D01*
X16444214Y-15687357D01*
X16458500Y-15615929D01*
X16472786Y-15573071D01*
X16487071Y-15544500D01*
X16515643Y-15501643D01*
X16529928Y-15487357D01*
X16772786Y-15630214D02*
X16772786Y-15830214D01*
X16701357Y-15515929D02*
X16629928Y-15730214D01*
X16815643Y-15730214D01*
X17158500Y-15830214D02*
X17158500Y-15530214D01*
X17287071Y-15830214D02*
X17287071Y-15673071D01*
X17272786Y-15644500D01*
X17244214Y-15630214D01*
X17201357Y-15630214D01*
X17172786Y-15644500D01*
X17158500Y-15658786D01*
X17472786Y-15830214D02*
X17444214Y-15815929D01*
X17429928Y-15801643D01*
X17415643Y-15773071D01*
X17415643Y-15687357D01*
X17429928Y-15658786D01*
X17444214Y-15644500D01*
X17472786Y-15630214D01*
X17515643Y-15630214D01*
X17544214Y-15644500D01*
X17558500Y-15658786D01*
X17572786Y-15687357D01*
X17572786Y-15773071D01*
X17558500Y-15801643D01*
X17544214Y-15815929D01*
X17515643Y-15830214D01*
X17472786Y-15830214D01*
X17744214Y-15830214D02*
X17715643Y-15815929D01*
X17701357Y-15787357D01*
X17701357Y-15530214D01*
X17972786Y-15815929D02*
X17944214Y-15830214D01*
X17887071Y-15830214D01*
X17858500Y-15815929D01*
X17844214Y-15787357D01*
X17844214Y-15673071D01*
X17858500Y-15644500D01*
X17887071Y-15630214D01*
X17944214Y-15630214D01*
X17972786Y-15644500D01*
X17987071Y-15673071D01*
X17987071Y-15701643D01*
X17844214Y-15730214D01*
X18101357Y-15815929D02*
X18129928Y-15830214D01*
X18187071Y-15830214D01*
X18215643Y-15815929D01*
X18229928Y-15787357D01*
X18229928Y-15773071D01*
X18215643Y-15744500D01*
X18187071Y-15730214D01*
X18144214Y-15730214D01*
X18115643Y-15715929D01*
X18101357Y-15687357D01*
X18101357Y-15673071D01*
X18115643Y-15644500D01*
X18144214Y-15630214D01*
X18187071Y-15630214D01*
X18215643Y-15644500D01*
X18329928Y-15944500D02*
X18344214Y-15930214D01*
X18372786Y-15887357D01*
X18387071Y-15858786D01*
X18401357Y-15815929D01*
X18415643Y-15744500D01*
X18415643Y-15687357D01*
X18401357Y-15615929D01*
X18387071Y-15573071D01*
X18372786Y-15544500D01*
X18344214Y-15501643D01*
X18329928Y-15487357D01*
X11743500Y-16040500D02*
X11843500Y-16140500D01*
X11843500Y-16040500D02*
X11743500Y-16140500D01*
X11793500Y-16040500D02*
X11793500Y-16140500D01*
X11743500Y-16090500D02*
X11843500Y-16090500D01*
X12287071Y-16226214D02*
X12115643Y-16226214D01*
X12201357Y-16226214D02*
X12201357Y-15926214D01*
X12172786Y-15969071D01*
X12144214Y-15997643D01*
X12115643Y-16011929D01*
X12415643Y-16197643D02*
X12429928Y-16211929D01*
X12415643Y-16226214D01*
X12401357Y-16211929D01*
X12415643Y-16197643D01*
X12415643Y-16226214D01*
X12615643Y-15926214D02*
X12644214Y-15926214D01*
X12672786Y-15940500D01*
X12687071Y-15954786D01*
X12701357Y-15983357D01*
X12715643Y-16040500D01*
X12715643Y-16111929D01*
X12701357Y-16169071D01*
X12687071Y-16197643D01*
X12672786Y-16211929D01*
X12644214Y-16226214D01*
X12615643Y-16226214D01*
X12587071Y-16211929D01*
X12572786Y-16197643D01*
X12558500Y-16169071D01*
X12544214Y-16111929D01*
X12544214Y-16040500D01*
X12558500Y-15983357D01*
X12572786Y-15954786D01*
X12587071Y-15940500D01*
X12615643Y-15926214D01*
X12901357Y-15926214D02*
X12929928Y-15926214D01*
X12958500Y-15940500D01*
X12972786Y-15954786D01*
X12987071Y-15983357D01*
X13001357Y-16040500D01*
X13001357Y-16111929D01*
X12987071Y-16169071D01*
X12972786Y-16197643D01*
X12958500Y-16211929D01*
X12929928Y-16226214D01*
X12901357Y-16226214D01*
X12872786Y-16211929D01*
X12858500Y-16197643D01*
X12844214Y-16169071D01*
X12829928Y-16111929D01*
X12829928Y-16040500D01*
X12844214Y-15983357D01*
X12858500Y-15954786D01*
X12872786Y-15940500D01*
X12901357Y-15926214D01*
X13129928Y-16226214D02*
X13129928Y-16026214D01*
X13129928Y-16054786D02*
X13144214Y-16040500D01*
X13172786Y-16026214D01*
X13215643Y-16026214D01*
X13244214Y-16040500D01*
X13258500Y-16069071D01*
X13258500Y-16226214D01*
X13258500Y-16069071D02*
X13272786Y-16040500D01*
X13301357Y-16026214D01*
X13344214Y-16026214D01*
X13372786Y-16040500D01*
X13387071Y-16069071D01*
X13387071Y-16226214D01*
X13529928Y-16226214D02*
X13529928Y-16026214D01*
X13529928Y-16054786D02*
X13544214Y-16040500D01*
X13572786Y-16026214D01*
X13615643Y-16026214D01*
X13644214Y-16040500D01*
X13658500Y-16069071D01*
X13658500Y-16226214D01*
X13658500Y-16069071D02*
X13672786Y-16040500D01*
X13701357Y-16026214D01*
X13744214Y-16026214D01*
X13772786Y-16040500D01*
X13787071Y-16069071D01*
X13787071Y-16226214D01*
X14372786Y-15911929D02*
X14115643Y-16297643D01*
X14758500Y-15926214D02*
X14787071Y-15926214D01*
X14815643Y-15940500D01*
X14829928Y-15954786D01*
X14844214Y-15983357D01*
X14858500Y-16040500D01*
X14858500Y-16111929D01*
X14844214Y-16169071D01*
X14829928Y-16197643D01*
X14815643Y-16211929D01*
X14787071Y-16226214D01*
X14758500Y-16226214D01*
X14729928Y-16211929D01*
X14715643Y-16197643D01*
X14701357Y-16169071D01*
X14687071Y-16111929D01*
X14687071Y-16040500D01*
X14701357Y-15983357D01*
X14715643Y-15954786D01*
X14729928Y-15940500D01*
X14758500Y-15926214D01*
X14987071Y-16197643D02*
X15001357Y-16211929D01*
X14987071Y-16226214D01*
X14972786Y-16211929D01*
X14987071Y-16197643D01*
X14987071Y-16226214D01*
X15187071Y-15926214D02*
X15215643Y-15926214D01*
X15244214Y-15940500D01*
X15258500Y-15954786D01*
X15272786Y-15983357D01*
X15287071Y-16040500D01*
X15287071Y-16111929D01*
X15272786Y-16169071D01*
X15258500Y-16197643D01*
X15244214Y-16211929D01*
X15215643Y-16226214D01*
X15187071Y-16226214D01*
X15158500Y-16211929D01*
X15144214Y-16197643D01*
X15129928Y-16169071D01*
X15115643Y-16111929D01*
X15115643Y-16040500D01*
X15129928Y-15983357D01*
X15144214Y-15954786D01*
X15158500Y-15940500D01*
X15187071Y-15926214D01*
X15387071Y-15926214D02*
X15572786Y-15926214D01*
X15472786Y-16040500D01*
X15515643Y-16040500D01*
X15544214Y-16054786D01*
X15558500Y-16069071D01*
X15572786Y-16097643D01*
X15572786Y-16169071D01*
X15558500Y-16197643D01*
X15544214Y-16211929D01*
X15515643Y-16226214D01*
X15429928Y-16226214D01*
X15401357Y-16211929D01*
X15387071Y-16197643D01*
X15715643Y-16226214D02*
X15772786Y-16226214D01*
X15801357Y-16211929D01*
X15815643Y-16197643D01*
X15844214Y-16154786D01*
X15858500Y-16097643D01*
X15858500Y-15983357D01*
X15844214Y-15954786D01*
X15829928Y-15940500D01*
X15801357Y-15926214D01*
X15744214Y-15926214D01*
X15715643Y-15940500D01*
X15701357Y-15954786D01*
X15687071Y-15983357D01*
X15687071Y-16054786D01*
X15701357Y-16083357D01*
X15715643Y-16097643D01*
X15744214Y-16111929D01*
X15801357Y-16111929D01*
X15829928Y-16097643D01*
X15844214Y-16083357D01*
X15858500Y-16054786D01*
X15972786Y-15926214D02*
X15972786Y-15983357D01*
X16087071Y-15926214D02*
X16087071Y-15983357D01*
X16529928Y-16340500D02*
X16515643Y-16326214D01*
X16487071Y-16283357D01*
X16472786Y-16254786D01*
X16458500Y-16211929D01*
X16444214Y-16140500D01*
X16444214Y-16083357D01*
X16458500Y-16011929D01*
X16472786Y-15969071D01*
X16487071Y-15940500D01*
X16515643Y-15897643D01*
X16529928Y-15883357D01*
X16787071Y-15926214D02*
X16644214Y-15926214D01*
X16629928Y-16069071D01*
X16644214Y-16054786D01*
X16672786Y-16040500D01*
X16744214Y-16040500D01*
X16772786Y-16054786D01*
X16787071Y-16069071D01*
X16801357Y-16097643D01*
X16801357Y-16169071D01*
X16787071Y-16197643D01*
X16772786Y-16211929D01*
X16744214Y-16226214D01*
X16672786Y-16226214D01*
X16644214Y-16211929D01*
X16629928Y-16197643D01*
X16987071Y-15926214D02*
X17015643Y-15926214D01*
X17044214Y-15940500D01*
X17058500Y-15954786D01*
X17072786Y-15983357D01*
X17087071Y-16040500D01*
X17087071Y-16111929D01*
X17072786Y-16169071D01*
X17058500Y-16197643D01*
X17044214Y-16211929D01*
X17015643Y-16226214D01*
X16987071Y-16226214D01*
X16958500Y-16211929D01*
X16944214Y-16197643D01*
X16929928Y-16169071D01*
X16915643Y-16111929D01*
X16915643Y-16040500D01*
X16929928Y-15983357D01*
X16944214Y-15954786D01*
X16958500Y-15940500D01*
X16987071Y-15926214D01*
X17444214Y-16226214D02*
X17444214Y-15926214D01*
X17572786Y-16226214D02*
X17572786Y-16069071D01*
X17558500Y-16040500D01*
X17529928Y-16026214D01*
X17487071Y-16026214D01*
X17458500Y-16040500D01*
X17444214Y-16054786D01*
X17758500Y-16226214D02*
X17729928Y-16211929D01*
X17715643Y-16197643D01*
X17701357Y-16169071D01*
X17701357Y-16083357D01*
X17715643Y-16054786D01*
X17729928Y-16040500D01*
X17758500Y-16026214D01*
X17801357Y-16026214D01*
X17829928Y-16040500D01*
X17844214Y-16054786D01*
X17858500Y-16083357D01*
X17858500Y-16169071D01*
X17844214Y-16197643D01*
X17829928Y-16211929D01*
X17801357Y-16226214D01*
X17758500Y-16226214D01*
X18029928Y-16226214D02*
X18001357Y-16211929D01*
X17987071Y-16183357D01*
X17987071Y-15926214D01*
X18258500Y-16211929D02*
X18229928Y-16226214D01*
X18172786Y-16226214D01*
X18144214Y-16211929D01*
X18129928Y-16183357D01*
X18129928Y-16069071D01*
X18144214Y-16040500D01*
X18172786Y-16026214D01*
X18229928Y-16026214D01*
X18258500Y-16040500D01*
X18272786Y-16069071D01*
X18272786Y-16097643D01*
X18129928Y-16126214D01*
X18387071Y-16211929D02*
X18415643Y-16226214D01*
X18472786Y-16226214D01*
X18501357Y-16211929D01*
X18515643Y-16183357D01*
X18515643Y-16169071D01*
X18501357Y-16140500D01*
X18472786Y-16126214D01*
X18429928Y-16126214D01*
X18401357Y-16111929D01*
X18387071Y-16083357D01*
X18387071Y-16069071D01*
X18401357Y-16040500D01*
X18429928Y-16026214D01*
X18472786Y-16026214D01*
X18501357Y-16040500D01*
X18872786Y-16111929D02*
X19101357Y-16111929D01*
X18987071Y-16226214D02*
X18987071Y-15997643D01*
X19601357Y-16026214D02*
X19601357Y-16226214D01*
X19529928Y-15911929D02*
X19458500Y-16126214D01*
X19644214Y-16126214D01*
X19972786Y-16211929D02*
X20001357Y-16226214D01*
X20058500Y-16226214D01*
X20087071Y-16211929D01*
X20101357Y-16183357D01*
X20101357Y-16169071D01*
X20087071Y-16140500D01*
X20058500Y-16126214D01*
X20015643Y-16126214D01*
X19987071Y-16111929D01*
X19972786Y-16083357D01*
X19972786Y-16069071D01*
X19987071Y-16040500D01*
X20015643Y-16026214D01*
X20058500Y-16026214D01*
X20087071Y-16040500D01*
X20272786Y-16226214D02*
X20244214Y-16211929D01*
X20229928Y-16183357D01*
X20229928Y-15926214D01*
X20429928Y-16226214D02*
X20401357Y-16211929D01*
X20387071Y-16197643D01*
X20372786Y-16169071D01*
X20372786Y-16083357D01*
X20387071Y-16054786D01*
X20401357Y-16040500D01*
X20429928Y-16026214D01*
X20472786Y-16026214D01*
X20501357Y-16040500D01*
X20515643Y-16054786D01*
X20529928Y-16083357D01*
X20529928Y-16169071D01*
X20515643Y-16197643D01*
X20501357Y-16211929D01*
X20472786Y-16226214D01*
X20429928Y-16226214D01*
X20615643Y-16026214D02*
X20729928Y-16026214D01*
X20658500Y-15926214D02*
X20658500Y-16183357D01*
X20672786Y-16211929D01*
X20701357Y-16226214D01*
X20729928Y-16226214D01*
X20815643Y-16211929D02*
X20844214Y-16226214D01*
X20901357Y-16226214D01*
X20929928Y-16211929D01*
X20944214Y-16183357D01*
X20944214Y-16169071D01*
X20929928Y-16140500D01*
X20901357Y-16126214D01*
X20858500Y-16126214D01*
X20829928Y-16111929D01*
X20815643Y-16083357D01*
X20815643Y-16069071D01*
X20829928Y-16040500D01*
X20858500Y-16026214D01*
X20901357Y-16026214D01*
X20929928Y-16040500D01*
X21044214Y-16340500D02*
X21058500Y-16326214D01*
X21087071Y-16283357D01*
X21101357Y-16254786D01*
X21115643Y-16211929D01*
X21129928Y-16140500D01*
X21129928Y-16083357D01*
X21115643Y-16011929D01*
X21101357Y-15969071D01*
X21087071Y-15940500D01*
X21058500Y-15897643D01*
X21044214Y-15883357D01*
M02*
