G04 #@! TF.GenerationSoftware,KiCad,Pcbnew,(5.0.0)*
G04 #@! TF.CreationDate,2019-10-23T21:11:43+11:00*
G04 #@! TF.ProjectId,DAQ Board,44415120426F6172642E6B696361645F,rev?*
G04 #@! TF.SameCoordinates,Original*
G04 #@! TF.FileFunction,Other,User*
%FSLAX46Y46*%
G04 Gerber Fmt 4.6, Leading zero omitted, Abs format (unit mm)*
G04 Created by KiCad (PCBNEW (5.0.0)) date 10/23/19 21:11:43*
%MOMM*%
%LPD*%
G01*
G04 APERTURE LIST*
%ADD10C,0.050000*%
%ADD11C,0.150000*%
G04 APERTURE END LIST*
D10*
G04 #@! TO.C,U4*
X179610000Y-110900000D02*
X188590000Y-110900000D01*
X179610000Y-110900000D02*
X179610000Y-118100000D01*
X188590000Y-118100000D02*
X188590000Y-110900000D01*
X188590000Y-118100000D02*
X179610000Y-118100000D01*
G04 #@! TO.C,U2*
X174610000Y-117720000D02*
X174610000Y-126700000D01*
X174610000Y-117720000D02*
X167410000Y-117720000D01*
X167410000Y-126700000D02*
X174610000Y-126700000D01*
X167410000Y-126700000D02*
X167410000Y-117720000D01*
D11*
G04 #@! TO.C,SW7*
X127760000Y-106965000D02*
X127760000Y-102965000D01*
X139360000Y-102965000D02*
X127760000Y-102965000D01*
X139360000Y-106965000D02*
X127760000Y-106965000D01*
X139360000Y-106965000D02*
X139360000Y-102965000D01*
G04 #@! TO.C,SW3*
X127760000Y-89185000D02*
X127760000Y-85185000D01*
X139360000Y-85185000D02*
X127760000Y-85185000D01*
X139360000Y-89185000D02*
X127760000Y-89185000D01*
X139360000Y-89185000D02*
X139360000Y-85185000D01*
G04 #@! TO.C,SW4*
X127760000Y-93630000D02*
X127760000Y-89630000D01*
X139360000Y-89630000D02*
X127760000Y-89630000D01*
X139360000Y-93630000D02*
X127760000Y-93630000D01*
X139360000Y-93630000D02*
X139360000Y-89630000D01*
G04 #@! TO.C,SW5*
X127760000Y-98075000D02*
X127760000Y-94075000D01*
X139360000Y-94075000D02*
X127760000Y-94075000D01*
X139360000Y-98075000D02*
X127760000Y-98075000D01*
X139360000Y-98075000D02*
X139360000Y-94075000D01*
G04 #@! TO.C,SW6*
X127760000Y-102520000D02*
X127760000Y-98520000D01*
X139360000Y-98520000D02*
X127760000Y-98520000D01*
X139360000Y-102520000D02*
X127760000Y-102520000D01*
X139360000Y-102520000D02*
X139360000Y-98520000D01*
G04 #@! TO.C,SW8*
X127760000Y-111410000D02*
X127760000Y-107410000D01*
X139360000Y-107410000D02*
X127760000Y-107410000D01*
X139360000Y-111410000D02*
X127760000Y-111410000D01*
X139360000Y-111410000D02*
X139360000Y-107410000D01*
G04 #@! TO.C,SW9*
X127760000Y-115855000D02*
X127760000Y-111855000D01*
X139360000Y-111855000D02*
X127760000Y-111855000D01*
X139360000Y-115855000D02*
X127760000Y-115855000D01*
X139360000Y-115855000D02*
X139360000Y-111855000D01*
G04 #@! TO.C,SW10*
X127760000Y-120300000D02*
X127760000Y-116300000D01*
X139360000Y-116300000D02*
X127760000Y-116300000D01*
X139360000Y-120300000D02*
X127760000Y-120300000D01*
X139360000Y-120300000D02*
X139360000Y-116300000D01*
G04 #@! TO.C,SW11*
X127815880Y-124745000D02*
X127815880Y-120745000D01*
X139415880Y-120745000D02*
X127815880Y-120745000D01*
X139415880Y-124745000D02*
X127815880Y-124745000D01*
X139415880Y-124745000D02*
X139415880Y-120745000D01*
D10*
G04 #@! TO.C,J1*
X118900000Y-93000000D02*
X118900000Y-116900000D01*
X118900000Y-116900000D02*
X123980000Y-116900000D01*
X123980000Y-116900000D02*
X123980000Y-93000000D01*
X123980000Y-93000000D02*
X118900000Y-93000000D01*
G04 #@! TO.C,MH4*
X207470000Y-72300000D02*
G75*
G03X207470000Y-72300000I-3450000J0D01*
G01*
G04 #@! TO.C,MH3*
X212570000Y-123630000D02*
G75*
G03X212570000Y-123630000I-3450000J0D01*
G01*
G04 #@! TO.C,MH2*
X126100000Y-123630000D02*
G75*
G03X126100000Y-123630000I-3450000J0D01*
G01*
G04 #@! TO.C,MH1*
X126100000Y-72370000D02*
G75*
G03X126100000Y-72370000I-3450000J0D01*
G01*
D11*
G04 #@! TO.C,PB1*
X158845000Y-70345000D02*
X164835000Y-70345000D01*
X158845000Y-76335000D02*
X164835000Y-76335000D01*
X158845000Y-70345000D02*
X158845000Y-76335000D01*
X164835000Y-70345000D02*
X164835000Y-76335000D01*
G04 #@! TO.C,J5*
X172650000Y-70120000D02*
X172650000Y-86420000D01*
X209650000Y-86430000D02*
X172650000Y-86430000D01*
X209650000Y-70120000D02*
X172650000Y-70120000D01*
D10*
X211450000Y-70120000D02*
X207850000Y-70120000D01*
X211450000Y-86420000D02*
X211450000Y-70120000D01*
X207850000Y-86420000D02*
X211450000Y-86420000D01*
X207850000Y-70120000D02*
X207850000Y-86420000D01*
D11*
G04 #@! TO.C,SW1*
X127860000Y-81210000D02*
X131440000Y-81210000D01*
X131440000Y-76410000D02*
X131440000Y-81210000D01*
X127860000Y-81210000D02*
X127860000Y-76410000D01*
X127860000Y-76410000D02*
X131440000Y-76410000D01*
G04 #@! TO.C,SW2*
X198322327Y-94226407D02*
X198322327Y-88626407D01*
X207022327Y-94226407D02*
X198322327Y-94226407D01*
X207022327Y-88626407D02*
X207022327Y-94226407D01*
X198322327Y-88626407D02*
X207022327Y-88626407D01*
D10*
G04 #@! TO.C,D6*
X160762500Y-82090000D02*
X160762500Y-83550000D01*
X160762500Y-83550000D02*
X157802500Y-83550000D01*
X157802500Y-83550000D02*
X157802500Y-82090000D01*
X157802500Y-82090000D02*
X160762500Y-82090000D01*
G04 #@! TO.C,ADC1*
X157877500Y-98388000D02*
X153727500Y-98388000D01*
X153727500Y-98388000D02*
X153727500Y-99788000D01*
X153727500Y-99788000D02*
X152627500Y-99788000D01*
X152627500Y-99788000D02*
X152627500Y-100888000D01*
X152627500Y-100888000D02*
X151227500Y-100888000D01*
X151227500Y-100888000D02*
X151227500Y-105038000D01*
X157877500Y-98388000D02*
X162027500Y-98388000D01*
X162027500Y-98388000D02*
X162027500Y-99788000D01*
X162027500Y-99788000D02*
X163127500Y-99788000D01*
X163127500Y-99788000D02*
X163127500Y-100888000D01*
X163127500Y-100888000D02*
X164527500Y-100888000D01*
X164527500Y-100888000D02*
X164527500Y-105038000D01*
X157877500Y-111688000D02*
X162027500Y-111688000D01*
X162027500Y-111688000D02*
X162027500Y-110288000D01*
X162027500Y-110288000D02*
X163127500Y-110288000D01*
X163127500Y-110288000D02*
X163127500Y-109188000D01*
X163127500Y-109188000D02*
X164527500Y-109188000D01*
X164527500Y-109188000D02*
X164527500Y-105038000D01*
X157877500Y-111688000D02*
X153727500Y-111688000D01*
X153727500Y-111688000D02*
X153727500Y-110288000D01*
X153727500Y-110288000D02*
X152627500Y-110288000D01*
X152627500Y-110288000D02*
X152627500Y-109188000D01*
X152627500Y-109188000D02*
X151227500Y-109188000D01*
X151227500Y-109188000D02*
X151227500Y-105038000D01*
G04 #@! TO.C,C1*
X145669660Y-91823960D02*
X142309660Y-91823960D01*
X145669660Y-89923960D02*
X145669660Y-91823960D01*
X142309660Y-89923960D02*
X145669660Y-89923960D01*
X142309660Y-91823960D02*
X142309660Y-89923960D01*
G04 #@! TO.C,C2*
X145682600Y-96205460D02*
X142322600Y-96205460D01*
X145682600Y-94305460D02*
X145682600Y-96205460D01*
X142322600Y-94305460D02*
X145682600Y-94305460D01*
X142322600Y-96205460D02*
X142322600Y-94305460D01*
G04 #@! TO.C,C3*
X142312200Y-100670780D02*
X142312200Y-98770780D01*
X142312200Y-98770780D02*
X145672200Y-98770780D01*
X145672200Y-98770780D02*
X145672200Y-100670780D01*
X145672200Y-100670780D02*
X142312200Y-100670780D01*
G04 #@! TO.C,C4*
X142312200Y-105115780D02*
X142312200Y-103215780D01*
X142312200Y-103215780D02*
X145672200Y-103215780D01*
X145672200Y-103215780D02*
X145672200Y-105115780D01*
X145672200Y-105115780D02*
X142312200Y-105115780D01*
G04 #@! TO.C,C5*
X145662040Y-109568400D02*
X142302040Y-109568400D01*
X145662040Y-107668400D02*
X145662040Y-109568400D01*
X142302040Y-107668400D02*
X145662040Y-107668400D01*
X142302040Y-109568400D02*
X142302040Y-107668400D01*
G04 #@! TO.C,C6*
X142324660Y-114041340D02*
X142324660Y-112141340D01*
X142324660Y-112141340D02*
X145684660Y-112141340D01*
X145684660Y-112141340D02*
X145684660Y-114041340D01*
X145684660Y-114041340D02*
X142324660Y-114041340D01*
G04 #@! TO.C,C7*
X142335060Y-118445700D02*
X142335060Y-116545700D01*
X142335060Y-116545700D02*
X145695060Y-116545700D01*
X145695060Y-116545700D02*
X145695060Y-118445700D01*
X145695060Y-118445700D02*
X142335060Y-118445700D01*
G04 #@! TO.C,C8*
X145692280Y-123005000D02*
X142332280Y-123005000D01*
X145692280Y-121105000D02*
X145692280Y-123005000D01*
X142332280Y-121105000D02*
X145692280Y-121105000D01*
X142332280Y-123005000D02*
X142332280Y-121105000D01*
G04 #@! TO.C,C9*
X158460000Y-115090000D02*
X158460000Y-112130000D01*
X159920000Y-115090000D02*
X158460000Y-115090000D01*
X159920000Y-112130000D02*
X159920000Y-115090000D01*
X158460000Y-112130000D02*
X159920000Y-112130000D01*
G04 #@! TO.C,C10*
X155254500Y-97576500D02*
X155254500Y-96116500D01*
X155254500Y-96116500D02*
X158214500Y-96116500D01*
X158214500Y-96116500D02*
X158214500Y-97576500D01*
X158214500Y-97576500D02*
X155254500Y-97576500D01*
G04 #@! TO.C,C11*
X156880000Y-112110000D02*
X158340000Y-112110000D01*
X158340000Y-112110000D02*
X158340000Y-115070000D01*
X158340000Y-115070000D02*
X156880000Y-115070000D01*
X156880000Y-115070000D02*
X156880000Y-112110000D01*
G04 #@! TO.C,C12*
X155140000Y-112097500D02*
X155140000Y-115057500D01*
X153680000Y-112097500D02*
X155140000Y-112097500D01*
X153680000Y-115057500D02*
X153680000Y-112097500D01*
X155140000Y-115057500D02*
X153680000Y-115057500D01*
G04 #@! TO.C,C13*
X155280000Y-115060000D02*
X155280000Y-112100000D01*
X156740000Y-115060000D02*
X155280000Y-115060000D01*
X156740000Y-112100000D02*
X156740000Y-115060000D01*
X155280000Y-112100000D02*
X156740000Y-112100000D01*
G04 #@! TO.C,C14*
X153550000Y-112087500D02*
X153550000Y-115047500D01*
X152090000Y-112087500D02*
X153550000Y-112087500D01*
X152090000Y-115047500D02*
X152090000Y-112087500D01*
X153550000Y-115047500D02*
X152090000Y-115047500D01*
G04 #@! TO.C,C15*
X161270000Y-94520000D02*
X161270000Y-95980000D01*
X161270000Y-95980000D02*
X158310000Y-95980000D01*
X158310000Y-95980000D02*
X158310000Y-94520000D01*
X158310000Y-94520000D02*
X161270000Y-94520000D01*
G04 #@! TO.C,C16*
X164280000Y-117780000D02*
X159720000Y-117780000D01*
X164280000Y-115540000D02*
X164280000Y-117780000D01*
X159720000Y-115540000D02*
X164280000Y-115540000D01*
X159720000Y-117780000D02*
X159720000Y-115540000D01*
G04 #@! TO.C,C17*
X164900000Y-97500000D02*
X164900000Y-100460000D01*
X163440000Y-97500000D02*
X164900000Y-97500000D01*
X163440000Y-100460000D02*
X163440000Y-97500000D01*
X164900000Y-100460000D02*
X163440000Y-100460000D01*
G04 #@! TO.C,C18*
X161270000Y-96120000D02*
X161270000Y-97580000D01*
X161270000Y-97580000D02*
X158310000Y-97580000D01*
X158310000Y-97580000D02*
X158310000Y-96120000D01*
X158310000Y-96120000D02*
X161270000Y-96120000D01*
G04 #@! TO.C,C19*
X163320000Y-113450000D02*
X160360000Y-113450000D01*
X163320000Y-111990000D02*
X163320000Y-113450000D01*
X160360000Y-111990000D02*
X163320000Y-111990000D01*
X160360000Y-113450000D02*
X160360000Y-111990000D01*
G04 #@! TO.C,C20*
X166430000Y-100450000D02*
X166430000Y-97490000D01*
X167890000Y-100450000D02*
X166430000Y-100450000D01*
X167890000Y-97490000D02*
X167890000Y-100450000D01*
X166430000Y-97490000D02*
X167890000Y-97490000D01*
G04 #@! TO.C,C21*
X168040000Y-100452500D02*
X168040000Y-97492500D01*
X169500000Y-100452500D02*
X168040000Y-100452500D01*
X169500000Y-97492500D02*
X169500000Y-100452500D01*
X168040000Y-97492500D02*
X169500000Y-97492500D01*
G04 #@! TO.C,C22*
X190560000Y-104642500D02*
X192020000Y-104642500D01*
X192020000Y-104642500D02*
X192020000Y-107602500D01*
X192020000Y-107602500D02*
X190560000Y-107602500D01*
X190560000Y-107602500D02*
X190560000Y-104642500D01*
G04 #@! TO.C,C23*
X194380000Y-90610000D02*
X191420000Y-90610000D01*
X194380000Y-89150000D02*
X194380000Y-90610000D01*
X191420000Y-89150000D02*
X194380000Y-89150000D01*
X191420000Y-90610000D02*
X191420000Y-89150000D01*
G04 #@! TO.C,C24*
X191420000Y-92210000D02*
X191420000Y-90750000D01*
X191420000Y-90750000D02*
X194380000Y-90750000D01*
X194380000Y-90750000D02*
X194380000Y-92210000D01*
X194380000Y-92210000D02*
X191420000Y-92210000D01*
G04 #@! TO.C,C25*
X194370000Y-93780000D02*
X191410000Y-93780000D01*
X194370000Y-92320000D02*
X194370000Y-93780000D01*
X191410000Y-92320000D02*
X194370000Y-92320000D01*
X191410000Y-93780000D02*
X191410000Y-92320000D01*
G04 #@! TO.C,C26*
X180450000Y-119060000D02*
X182690000Y-119060000D01*
X182690000Y-119060000D02*
X182690000Y-123620000D01*
X182690000Y-123620000D02*
X180450000Y-123620000D01*
X180450000Y-123620000D02*
X180450000Y-119060000D01*
G04 #@! TO.C,C27*
X178770000Y-122200000D02*
X178770000Y-119240000D01*
X180230000Y-122200000D02*
X178770000Y-122200000D01*
X180230000Y-119240000D02*
X180230000Y-122200000D01*
X178770000Y-119240000D02*
X180230000Y-119240000D01*
G04 #@! TO.C,C28*
X164930000Y-113710000D02*
X167170000Y-113710000D01*
X167170000Y-113710000D02*
X167170000Y-118270000D01*
X167170000Y-118270000D02*
X164930000Y-118270000D01*
X164930000Y-118270000D02*
X164930000Y-113710000D01*
G04 #@! TO.C,C29*
X177200000Y-119240000D02*
X178660000Y-119240000D01*
X178660000Y-119240000D02*
X178660000Y-122200000D01*
X178660000Y-122200000D02*
X177200000Y-122200000D01*
X177200000Y-122200000D02*
X177200000Y-119240000D01*
G04 #@! TO.C,C30*
X168820000Y-113650000D02*
X170280000Y-113650000D01*
X170280000Y-113650000D02*
X170280000Y-116610000D01*
X170280000Y-116610000D02*
X168820000Y-116610000D01*
X168820000Y-116610000D02*
X168820000Y-113650000D01*
G04 #@! TO.C,C31*
X175620000Y-122200000D02*
X175620000Y-119240000D01*
X177080000Y-122200000D02*
X175620000Y-122200000D01*
X177080000Y-119240000D02*
X177080000Y-122200000D01*
X175620000Y-119240000D02*
X177080000Y-119240000D01*
G04 #@! TO.C,C32*
X170400000Y-116600000D02*
X170400000Y-113640000D01*
X171860000Y-116600000D02*
X170400000Y-116600000D01*
X171860000Y-113640000D02*
X171860000Y-116600000D01*
X170400000Y-113640000D02*
X171860000Y-113640000D01*
G04 #@! TO.C,C33*
X171960000Y-113630000D02*
X173420000Y-113630000D01*
X173420000Y-113630000D02*
X173420000Y-116590000D01*
X173420000Y-116590000D02*
X171960000Y-116590000D01*
X171960000Y-116590000D02*
X171960000Y-113630000D01*
G04 #@! TO.C,C34*
X164830000Y-121490000D02*
X166290000Y-121490000D01*
X166290000Y-121490000D02*
X166290000Y-124450000D01*
X166290000Y-124450000D02*
X164830000Y-124450000D01*
X164830000Y-124450000D02*
X164830000Y-121490000D01*
G04 #@! TO.C,C35*
X163250000Y-121490000D02*
X164710000Y-121490000D01*
X164710000Y-121490000D02*
X164710000Y-124450000D01*
X164710000Y-124450000D02*
X163250000Y-124450000D01*
X163250000Y-124450000D02*
X163250000Y-121490000D01*
G04 #@! TO.C,C36*
X173410000Y-113060000D02*
X171950000Y-113060000D01*
X171950000Y-113060000D02*
X171950000Y-110100000D01*
X171950000Y-110100000D02*
X173410000Y-110100000D01*
X173410000Y-110100000D02*
X173410000Y-113060000D01*
G04 #@! TO.C,C37*
X161690000Y-124450000D02*
X161690000Y-121490000D01*
X163150000Y-124450000D02*
X161690000Y-124450000D01*
X163150000Y-121490000D02*
X163150000Y-124450000D01*
X161690000Y-121490000D02*
X163150000Y-121490000D01*
G04 #@! TO.C,C38*
X171860000Y-110100000D02*
X171860000Y-113060000D01*
X170400000Y-110100000D02*
X171860000Y-110100000D01*
X170400000Y-113060000D02*
X170400000Y-110100000D01*
X171860000Y-113060000D02*
X170400000Y-113060000D01*
G04 #@! TO.C,C39*
X160110000Y-121497500D02*
X161570000Y-121497500D01*
X161570000Y-121497500D02*
X161570000Y-124457500D01*
X161570000Y-124457500D02*
X160110000Y-124457500D01*
X160110000Y-124457500D02*
X160110000Y-121497500D01*
G04 #@! TO.C,C40*
X170280000Y-113050000D02*
X168820000Y-113050000D01*
X168820000Y-113050000D02*
X168820000Y-110090000D01*
X168820000Y-110090000D02*
X170280000Y-110090000D01*
X170280000Y-110090000D02*
X170280000Y-113050000D01*
G04 #@! TO.C,C41*
X168710000Y-113060000D02*
X167250000Y-113060000D01*
X167250000Y-113060000D02*
X167250000Y-110100000D01*
X167250000Y-110100000D02*
X168710000Y-110100000D01*
X168710000Y-110100000D02*
X168710000Y-113060000D01*
G04 #@! TO.C,C42*
X191170000Y-87570000D02*
X191170000Y-89810000D01*
X191170000Y-89810000D02*
X186610000Y-89810000D01*
X186610000Y-89810000D02*
X186610000Y-87570000D01*
X186610000Y-87570000D02*
X191170000Y-87570000D01*
G04 #@! TO.C,C43*
X194380000Y-89070000D02*
X191420000Y-89070000D01*
X194380000Y-87610000D02*
X194380000Y-89070000D01*
X191420000Y-87610000D02*
X194380000Y-87610000D01*
X191420000Y-89070000D02*
X191420000Y-87610000D01*
G04 #@! TO.C,C44*
X190980000Y-125660000D02*
X186420000Y-125660000D01*
X190980000Y-123420000D02*
X190980000Y-125660000D01*
X186420000Y-123420000D02*
X190980000Y-123420000D01*
X186420000Y-125660000D02*
X186420000Y-123420000D01*
G04 #@! TO.C,C45*
X186540000Y-123200000D02*
X186540000Y-121740000D01*
X186540000Y-121740000D02*
X189500000Y-121740000D01*
X189500000Y-121740000D02*
X189500000Y-123200000D01*
X189500000Y-123200000D02*
X186540000Y-123200000D01*
G04 #@! TO.C,C46*
X189502500Y-121640000D02*
X186542500Y-121640000D01*
X189502500Y-120180000D02*
X189502500Y-121640000D01*
X186542500Y-120180000D02*
X189502500Y-120180000D01*
X186542500Y-121640000D02*
X186542500Y-120180000D01*
G04 #@! TO.C,C47*
X186550000Y-120070000D02*
X186550000Y-118610000D01*
X186550000Y-118610000D02*
X189510000Y-118610000D01*
X189510000Y-118610000D02*
X189510000Y-120070000D01*
X189510000Y-120070000D02*
X186550000Y-120070000D01*
G04 #@! TO.C,C48*
X185630000Y-108090000D02*
X185630000Y-109550000D01*
X185630000Y-109550000D02*
X182670000Y-109550000D01*
X182670000Y-109550000D02*
X182670000Y-108090000D01*
X182670000Y-108090000D02*
X185630000Y-108090000D01*
G04 #@! TO.C,C49*
X182670000Y-106490000D02*
X185630000Y-106490000D01*
X182670000Y-107950000D02*
X182670000Y-106490000D01*
X185630000Y-107950000D02*
X182670000Y-107950000D01*
X185630000Y-106490000D02*
X185630000Y-107950000D01*
G04 #@! TO.C,C50*
X182670000Y-104900000D02*
X185630000Y-104900000D01*
X182670000Y-106360000D02*
X182670000Y-104900000D01*
X185630000Y-106360000D02*
X182670000Y-106360000D01*
X185630000Y-104900000D02*
X185630000Y-106360000D01*
G04 #@! TO.C,C51*
X182670000Y-103330000D02*
X185630000Y-103330000D01*
X182670000Y-104790000D02*
X182670000Y-103330000D01*
X185630000Y-104790000D02*
X182670000Y-104790000D01*
X185630000Y-103330000D02*
X185630000Y-104790000D01*
G04 #@! TO.C,C52*
X193208585Y-113881237D02*
X193208585Y-112421237D01*
X193208585Y-112421237D02*
X196168585Y-112421237D01*
X196168585Y-112421237D02*
X196168585Y-113881237D01*
X196168585Y-113881237D02*
X193208585Y-113881237D01*
G04 #@! TO.C,C53*
X193208585Y-115471237D02*
X193208585Y-114011237D01*
X193208585Y-114011237D02*
X196168585Y-114011237D01*
X196168585Y-114011237D02*
X196168585Y-115471237D01*
X196168585Y-115471237D02*
X193208585Y-115471237D01*
G04 #@! TO.C,C54*
X198438585Y-107871237D02*
X198438585Y-104911237D01*
X199898585Y-107871237D02*
X198438585Y-107871237D01*
X199898585Y-104911237D02*
X199898585Y-107871237D01*
X198438585Y-104911237D02*
X199898585Y-104911237D01*
G04 #@! TO.C,C55*
X208578585Y-95671237D02*
X208578585Y-97131237D01*
X208578585Y-97131237D02*
X205618585Y-97131237D01*
X205618585Y-97131237D02*
X205618585Y-95671237D01*
X205618585Y-95671237D02*
X208578585Y-95671237D01*
G04 #@! TO.C,C56*
X205618585Y-97231237D02*
X208578585Y-97231237D01*
X205618585Y-98691237D02*
X205618585Y-97231237D01*
X208578585Y-98691237D02*
X205618585Y-98691237D01*
X208578585Y-97231237D02*
X208578585Y-98691237D01*
G04 #@! TO.C,C57*
X208578585Y-98801237D02*
X208578585Y-100261237D01*
X208578585Y-100261237D02*
X205618585Y-100261237D01*
X205618585Y-100261237D02*
X205618585Y-98801237D01*
X205618585Y-98801237D02*
X208578585Y-98801237D01*
G04 #@! TO.C,C58*
X202426368Y-113386303D02*
X205386368Y-113386303D01*
X202426368Y-114846303D02*
X202426368Y-113386303D01*
X205386368Y-114846303D02*
X202426368Y-114846303D01*
X205386368Y-113386303D02*
X205386368Y-114846303D01*
G04 #@! TO.C,C59*
X205386368Y-111806303D02*
X205386368Y-113266303D01*
X205386368Y-113266303D02*
X202426368Y-113266303D01*
X202426368Y-113266303D02*
X202426368Y-111806303D01*
X202426368Y-111806303D02*
X205386368Y-111806303D01*
G04 #@! TO.C,C60*
X210148585Y-100151237D02*
X208688585Y-100151237D01*
X208688585Y-100151237D02*
X208688585Y-97191237D01*
X208688585Y-97191237D02*
X210148585Y-97191237D01*
X210148585Y-97191237D02*
X210148585Y-100151237D01*
G04 #@! TO.C,C61*
X202416368Y-110226303D02*
X205376368Y-110226303D01*
X202416368Y-111686303D02*
X202416368Y-110226303D01*
X205376368Y-111686303D02*
X202416368Y-111686303D01*
X205376368Y-110226303D02*
X205376368Y-111686303D01*
G04 #@! TO.C,D1*
X136030000Y-80130000D02*
X136030000Y-75730000D01*
X136030000Y-75730000D02*
X138330000Y-75730000D01*
X138330000Y-75730000D02*
X138330000Y-80130000D01*
X136030000Y-80130000D02*
X138330000Y-80130000D01*
G04 #@! TO.C,D2*
X135670000Y-81990000D02*
X132170000Y-81990000D01*
X135670000Y-74990000D02*
X135670000Y-81990000D01*
X132170000Y-74990000D02*
X135670000Y-74990000D01*
X132170000Y-81990000D02*
X132170000Y-74990000D01*
G04 #@! TO.C,D3*
X155760000Y-87530000D02*
X148760000Y-87530000D01*
X148760000Y-87530000D02*
X148760000Y-84030000D01*
X148760000Y-84030000D02*
X155760000Y-84030000D01*
X155760000Y-84030000D02*
X155760000Y-87530000D01*
G04 #@! TO.C,D4*
X157720000Y-77890000D02*
X160680000Y-77890000D01*
X157720000Y-79350000D02*
X157720000Y-77890000D01*
X160680000Y-79350000D02*
X157720000Y-79350000D01*
X160680000Y-77890000D02*
X160680000Y-79350000D01*
G04 #@! TO.C,D5*
X160700000Y-79950000D02*
X160700000Y-81410000D01*
X160700000Y-81410000D02*
X157740000Y-81410000D01*
X157740000Y-81410000D02*
X157740000Y-79950000D01*
X157740000Y-79950000D02*
X160700000Y-79950000D01*
G04 #@! TO.C,D7*
X199308585Y-112151237D02*
X192308585Y-112151237D01*
X192308585Y-112151237D02*
X192308585Y-108651237D01*
X192308585Y-108651237D02*
X199308585Y-108651237D01*
X199308585Y-108651237D02*
X199308585Y-112151237D01*
G04 #@! TO.C,D8*
X210070000Y-116510000D02*
X210070000Y-113550000D01*
X211530000Y-116510000D02*
X210070000Y-116510000D01*
X211530000Y-113550000D02*
X211530000Y-116510000D01*
X210070000Y-113550000D02*
X211530000Y-113550000D01*
G04 #@! TO.C,D9*
X207078585Y-113571237D02*
X208538585Y-113571237D01*
X208538585Y-113571237D02*
X208538585Y-116531237D01*
X208538585Y-116531237D02*
X207078585Y-116531237D01*
X207078585Y-116531237D02*
X207078585Y-113571237D01*
G04 #@! TO.C,F1*
X138620000Y-84360000D02*
X142320000Y-84360000D01*
X142320000Y-84360000D02*
X142320000Y-69560000D01*
X142320000Y-69560000D02*
X138620000Y-69560000D01*
X138620000Y-69560000D02*
X138620000Y-84360000D01*
G04 #@! TO.C,F2*
X193068585Y-119491237D02*
X193068585Y-115591237D01*
X193068585Y-115591237D02*
X198968585Y-115591237D01*
X198968585Y-115591237D02*
X198968585Y-119491237D01*
X198968585Y-119491237D02*
X193068585Y-119491237D01*
G04 #@! TO.C,J2*
X195598585Y-120241237D02*
X195598585Y-128431237D01*
X195598585Y-128431237D02*
X205488585Y-128431237D01*
X205488585Y-128431237D02*
X205488585Y-120241237D01*
X205488585Y-120241237D02*
X195598585Y-120241237D01*
G04 #@! TO.C,J3*
X127860000Y-72850000D02*
X134010000Y-72850000D01*
X134010000Y-72850000D02*
X134010000Y-69250000D01*
X134010000Y-69250000D02*
X127860000Y-69250000D01*
X127860000Y-69250000D02*
X127860000Y-72850000D01*
G04 #@! TO.C,J4*
X142780000Y-68850000D02*
X142780000Y-82850000D01*
X142780000Y-82850000D02*
X154780000Y-82850000D01*
X154780000Y-82850000D02*
X154780000Y-68850000D01*
X154780000Y-68850000D02*
X142780000Y-68850000D01*
G04 #@! TO.C,J6*
X175000000Y-100850000D02*
X175000000Y-109500000D01*
X175000000Y-109500000D02*
X181150000Y-109500000D01*
X181150000Y-109500000D02*
X181150000Y-100850000D01*
X181150000Y-100850000D02*
X175000000Y-100850000D01*
G04 #@! TO.C,Q1*
X147540000Y-83080000D02*
X147540000Y-86580000D01*
X144140000Y-83080000D02*
X147540000Y-83080000D01*
X144140000Y-86580000D02*
X144140000Y-83080000D01*
X147540000Y-86580000D02*
X144140000Y-86580000D01*
G04 #@! TO.C,R1*
X155223241Y-121832841D02*
X155223241Y-120372841D01*
X155223241Y-120372841D02*
X158183241Y-120372841D01*
X158183241Y-120372841D02*
X158183241Y-121832841D01*
X158183241Y-121832841D02*
X155223241Y-121832841D01*
G04 #@! TO.C,R2*
X155220000Y-121960000D02*
X158180000Y-121960000D01*
X155220000Y-123420000D02*
X155220000Y-121960000D01*
X158180000Y-123420000D02*
X155220000Y-123420000D01*
X158180000Y-121960000D02*
X158180000Y-123420000D01*
G04 #@! TO.C,R3*
X143745000Y-88305000D02*
X143745000Y-89765000D01*
X143745000Y-89765000D02*
X140785000Y-89765000D01*
X140785000Y-89765000D02*
X140785000Y-88305000D01*
X140785000Y-88305000D02*
X143745000Y-88305000D01*
G04 #@! TO.C,R4*
X140785000Y-92750000D02*
X143745000Y-92750000D01*
X140785000Y-94210000D02*
X140785000Y-92750000D01*
X143745000Y-94210000D02*
X140785000Y-94210000D01*
X143745000Y-92750000D02*
X143745000Y-94210000D01*
G04 #@! TO.C,R5*
X140785000Y-97195000D02*
X143745000Y-97195000D01*
X140785000Y-98655000D02*
X140785000Y-97195000D01*
X143745000Y-98655000D02*
X140785000Y-98655000D01*
X143745000Y-97195000D02*
X143745000Y-98655000D01*
G04 #@! TO.C,R6*
X140785000Y-101640000D02*
X143745000Y-101640000D01*
X140785000Y-103100000D02*
X140785000Y-101640000D01*
X143745000Y-103100000D02*
X140785000Y-103100000D01*
X143745000Y-101640000D02*
X143745000Y-103100000D01*
G04 #@! TO.C,R7*
X143745000Y-106085000D02*
X143745000Y-107545000D01*
X143745000Y-107545000D02*
X140785000Y-107545000D01*
X140785000Y-107545000D02*
X140785000Y-106085000D01*
X140785000Y-106085000D02*
X143745000Y-106085000D01*
G04 #@! TO.C,R8*
X143745000Y-110530000D02*
X143745000Y-111990000D01*
X143745000Y-111990000D02*
X140785000Y-111990000D01*
X140785000Y-111990000D02*
X140785000Y-110530000D01*
X140785000Y-110530000D02*
X143745000Y-110530000D01*
G04 #@! TO.C,R9*
X140785000Y-114975000D02*
X143745000Y-114975000D01*
X140785000Y-116435000D02*
X140785000Y-114975000D01*
X143745000Y-116435000D02*
X140785000Y-116435000D01*
X143745000Y-114975000D02*
X143745000Y-116435000D01*
G04 #@! TO.C,R10*
X143745000Y-119420000D02*
X143745000Y-120880000D01*
X143745000Y-120880000D02*
X140785000Y-120880000D01*
X140785000Y-120880000D02*
X140785000Y-119420000D01*
X140785000Y-119420000D02*
X143745000Y-119420000D01*
G04 #@! TO.C,R11*
X143745000Y-123865000D02*
X143745000Y-125325000D01*
X143745000Y-125325000D02*
X140785000Y-125325000D01*
X140785000Y-125325000D02*
X140785000Y-123865000D01*
X140785000Y-123865000D02*
X143745000Y-123865000D01*
G04 #@! TO.C,R12*
X167920000Y-107100000D02*
X167920000Y-105640000D01*
X167920000Y-105640000D02*
X170880000Y-105640000D01*
X170880000Y-105640000D02*
X170880000Y-107100000D01*
X170880000Y-107100000D02*
X167920000Y-107100000D01*
G04 #@! TO.C,R13*
X167900000Y-100940000D02*
X170860000Y-100940000D01*
X167900000Y-102400000D02*
X167900000Y-100940000D01*
X170860000Y-102400000D02*
X167900000Y-102400000D01*
X170860000Y-100940000D02*
X170860000Y-102400000D01*
G04 #@! TO.C,R14*
X167910000Y-102500000D02*
X170870000Y-102500000D01*
X167910000Y-103960000D02*
X167910000Y-102500000D01*
X170870000Y-103960000D02*
X167910000Y-103960000D01*
X170870000Y-102500000D02*
X170870000Y-103960000D01*
G04 #@! TO.C,R15*
X170870000Y-104040000D02*
X170870000Y-105500000D01*
X170870000Y-105500000D02*
X167910000Y-105500000D01*
X167910000Y-105500000D02*
X167910000Y-104040000D01*
X167910000Y-104040000D02*
X170870000Y-104040000D01*
G04 #@! TO.C,R16*
X203830000Y-98900000D02*
X203830000Y-100360000D01*
X203830000Y-100360000D02*
X200870000Y-100360000D01*
X200870000Y-100360000D02*
X200870000Y-98900000D01*
X200870000Y-98900000D02*
X203830000Y-98900000D01*
G04 #@! TO.C,R17*
X200640000Y-95730000D02*
X200640000Y-97190000D01*
X200640000Y-97190000D02*
X197680000Y-97190000D01*
X197680000Y-97190000D02*
X197680000Y-95730000D01*
X197680000Y-95730000D02*
X200640000Y-95730000D01*
G04 #@! TO.C,R18*
X197690000Y-97320000D02*
X200650000Y-97320000D01*
X197690000Y-98780000D02*
X197690000Y-97320000D01*
X200650000Y-98780000D02*
X197690000Y-98780000D01*
X200650000Y-97320000D02*
X200650000Y-98780000D01*
G04 #@! TO.C,R19*
X150960000Y-88020000D02*
X150960000Y-89480000D01*
X150960000Y-89480000D02*
X148000000Y-89480000D01*
X148000000Y-89480000D02*
X148000000Y-88020000D01*
X148000000Y-88020000D02*
X150960000Y-88020000D01*
G04 #@! TO.C,R20*
X211670000Y-92440000D02*
X208710000Y-92440000D01*
X211670000Y-90980000D02*
X211670000Y-92440000D01*
X208710000Y-90980000D02*
X211670000Y-90980000D01*
X208710000Y-92440000D02*
X208710000Y-90980000D01*
G04 #@! TO.C,R21*
X208722327Y-89406407D02*
X211682327Y-89406407D01*
X208722327Y-90866407D02*
X208722327Y-89406407D01*
X211682327Y-90866407D02*
X208722327Y-90866407D01*
X211682327Y-89406407D02*
X211682327Y-90866407D01*
G04 #@! TO.C,R22*
X157730000Y-88580000D02*
X157730000Y-87120000D01*
X157730000Y-87120000D02*
X160690000Y-87120000D01*
X160690000Y-87120000D02*
X160690000Y-88580000D01*
X160690000Y-88580000D02*
X157730000Y-88580000D01*
G04 #@! TO.C,R23*
X160690000Y-86960000D02*
X157730000Y-86960000D01*
X160690000Y-85500000D02*
X160690000Y-86960000D01*
X157730000Y-85500000D02*
X160690000Y-85500000D01*
X157730000Y-86960000D02*
X157730000Y-85500000D01*
G04 #@! TO.C,R24*
X160702500Y-85340000D02*
X157742500Y-85340000D01*
X160702500Y-83880000D02*
X160702500Y-85340000D01*
X157742500Y-83880000D02*
X160702500Y-83880000D01*
X157742500Y-85340000D02*
X157742500Y-83880000D01*
G04 #@! TO.C,R25*
X208478585Y-110211237D02*
X208478585Y-113171237D01*
X207018585Y-110211237D02*
X208478585Y-110211237D01*
X207018585Y-113171237D02*
X207018585Y-110211237D01*
X208478585Y-113171237D02*
X207018585Y-113171237D01*
G04 #@! TO.C,R26*
X206918585Y-113171237D02*
X205458585Y-113171237D01*
X205458585Y-113171237D02*
X205458585Y-110211237D01*
X205458585Y-110211237D02*
X206918585Y-110211237D01*
X206918585Y-110211237D02*
X206918585Y-113171237D01*
G04 #@! TO.C,U1*
X196990000Y-93950000D02*
X186390000Y-93950000D01*
X196990000Y-104550000D02*
X186390000Y-104550000D01*
X196990000Y-93950000D02*
X196990000Y-104550000D01*
X186390000Y-93950000D02*
X186390000Y-104550000D01*
G04 #@! TO.C,U3*
X173550000Y-111580000D02*
X176950000Y-111580000D01*
X176950000Y-111580000D02*
X176950000Y-115080000D01*
X176950000Y-115080000D02*
X173550000Y-115080000D01*
X173550000Y-115080000D02*
X173550000Y-111580000D01*
G04 #@! TO.C,U5*
X211148585Y-100491237D02*
X200148585Y-100491237D01*
X211148585Y-109991237D02*
X200148585Y-109991237D01*
X211148585Y-100491237D02*
X211148585Y-109991237D01*
X200148585Y-100491237D02*
X200148585Y-109991237D01*
D11*
G04 #@! TO.C,Y1*
X187610000Y-91490000D02*
X190810000Y-91490000D01*
X187610000Y-92790000D02*
X190810000Y-92790000D01*
X187610000Y-91490000D02*
X187610000Y-92790000D01*
X190810000Y-91490000D02*
X190810000Y-92790000D01*
G04 #@! TD*
M02*
