G04 #@! TF.GenerationSoftware,KiCad,Pcbnew,(5.0.0)*
G04 #@! TF.CreationDate,2020-05-27T21:18:54+10:00*
G04 #@! TF.ProjectId,DAQ Board,44415120426F6172642E6B696361645F,rev?*
G04 #@! TF.SameCoordinates,Original*
G04 #@! TF.FileFunction,Other,User*
%FSLAX46Y46*%
G04 Gerber Fmt 4.6, Leading zero omitted, Abs format (unit mm)*
G04 Created by KiCad (PCBNEW (5.0.0)) date 05/27/20 21:18:54*
%MOMM*%
%LPD*%
G01*
G04 APERTURE LIST*
%ADD10C,0.050000*%
%ADD11C,0.150000*%
G04 APERTURE END LIST*
D10*
G04 #@! TO.C,J14*
X185580000Y-70890000D02*
X191730000Y-70890000D01*
X191730000Y-70890000D02*
X191730000Y-67290000D01*
X191730000Y-67290000D02*
X185580000Y-67290000D01*
X185580000Y-67290000D02*
X185580000Y-70890000D01*
D11*
G04 #@! TO.C,PB1*
X179355000Y-117345000D02*
X185345000Y-117345000D01*
X179355000Y-123335000D02*
X185345000Y-123335000D01*
X185345000Y-123335000D02*
X185345000Y-117345000D01*
X179355000Y-123335000D02*
X179355000Y-117345000D01*
D10*
G04 #@! TO.C,ADC1*
X185430000Y-96090000D02*
X189580000Y-96090000D01*
X189580000Y-96090000D02*
X189580000Y-94690000D01*
X189580000Y-94690000D02*
X190680000Y-94690000D01*
X190680000Y-94690000D02*
X190680000Y-93590000D01*
X190680000Y-93590000D02*
X192080000Y-93590000D01*
X192080000Y-93590000D02*
X192080000Y-89440000D01*
X185430000Y-96090000D02*
X181280000Y-96090000D01*
X181280000Y-96090000D02*
X181280000Y-94690000D01*
X181280000Y-94690000D02*
X180180000Y-94690000D01*
X180180000Y-94690000D02*
X180180000Y-93590000D01*
X180180000Y-93590000D02*
X178780000Y-93590000D01*
X178780000Y-93590000D02*
X178780000Y-89440000D01*
X185430000Y-82790000D02*
X181280000Y-82790000D01*
X181280000Y-82790000D02*
X181280000Y-84190000D01*
X181280000Y-84190000D02*
X180180000Y-84190000D01*
X180180000Y-84190000D02*
X180180000Y-85290000D01*
X180180000Y-85290000D02*
X178780000Y-85290000D01*
X178780000Y-85290000D02*
X178780000Y-89440000D01*
X185430000Y-82790000D02*
X189580000Y-82790000D01*
X189580000Y-82790000D02*
X189580000Y-84190000D01*
X189580000Y-84190000D02*
X190680000Y-84190000D01*
X190680000Y-84190000D02*
X190680000Y-85290000D01*
X190680000Y-85290000D02*
X192080000Y-85290000D01*
X192080000Y-85290000D02*
X192080000Y-89440000D01*
G04 #@! TO.C,C63*
X171170000Y-97870000D02*
X168210000Y-97870000D01*
X171170000Y-96410000D02*
X171170000Y-97870000D01*
X168210000Y-96410000D02*
X171170000Y-96410000D01*
X168210000Y-97870000D02*
X168210000Y-96410000D01*
G04 #@! TO.C,C64*
X168200000Y-96230000D02*
X168200000Y-94770000D01*
X168200000Y-94770000D02*
X171160000Y-94770000D01*
X171160000Y-94770000D02*
X171160000Y-96230000D01*
X171160000Y-96230000D02*
X168200000Y-96230000D01*
G04 #@! TO.C,C66*
X160280000Y-96740000D02*
X160280000Y-93780000D01*
X161740000Y-96740000D02*
X160280000Y-96740000D01*
X161740000Y-93780000D02*
X161740000Y-96740000D01*
X160280000Y-93780000D02*
X161740000Y-93780000D01*
G04 #@! TO.C,C65*
X161870000Y-93780000D02*
X163330000Y-93780000D01*
X163330000Y-93780000D02*
X163330000Y-96740000D01*
X163330000Y-96740000D02*
X161870000Y-96740000D01*
X161870000Y-96740000D02*
X161870000Y-93780000D01*
G04 #@! TO.C,U6*
X171820000Y-93590000D02*
X171820000Y-86490000D01*
X163920000Y-93590000D02*
X163920000Y-86490000D01*
X171820000Y-93590000D02*
X163920000Y-93590000D01*
X171820000Y-86490000D02*
X163920000Y-86490000D01*
G04 #@! TO.C,R28*
X170230000Y-84860000D02*
X170230000Y-86320000D01*
X170230000Y-86320000D02*
X167270000Y-86320000D01*
X167270000Y-86320000D02*
X167270000Y-84860000D01*
X167270000Y-84860000D02*
X170230000Y-84860000D01*
D11*
G04 #@! TO.C,SW10*
X211720428Y-74161482D02*
X211720428Y-78161482D01*
X200120428Y-78161482D02*
X211720428Y-78161482D01*
X200120428Y-74161482D02*
X211720428Y-74161482D01*
X200120428Y-74161482D02*
X200120428Y-78161482D01*
D10*
G04 #@! TO.C,R27*
X172950000Y-97730000D02*
X171490000Y-97730000D01*
X171490000Y-97730000D02*
X171490000Y-94770000D01*
X171490000Y-94770000D02*
X172950000Y-94770000D01*
X172950000Y-94770000D02*
X172950000Y-97730000D01*
G04 #@! TO.C,C62*
X142340000Y-94230000D02*
X140880000Y-94230000D01*
X140880000Y-94230000D02*
X140880000Y-91270000D01*
X140880000Y-91270000D02*
X142340000Y-91270000D01*
X142340000Y-91270000D02*
X142340000Y-94230000D01*
G04 #@! TO.C,J5*
X178380428Y-108091482D02*
X178380428Y-124341482D01*
X140380428Y-108091482D02*
X178380428Y-108091482D01*
X140380428Y-124341482D02*
X178380428Y-124341482D01*
X128080428Y-108091482D02*
X128080428Y-124341482D01*
X140380428Y-108091482D02*
X128080428Y-108091482D01*
X140380428Y-124341482D02*
X140380428Y-108091482D01*
X128080428Y-124341482D02*
X140380428Y-124341482D01*
G04 #@! TO.C,J12*
X158340000Y-106640000D02*
X158340000Y-100490000D01*
X158340000Y-100490000D02*
X154740000Y-100490000D01*
X154740000Y-100490000D02*
X154740000Y-106640000D01*
X154740000Y-106640000D02*
X158340000Y-106640000D01*
G04 #@! TO.C,J7*
X203060428Y-125321482D02*
X206660428Y-125321482D01*
X203060428Y-119171482D02*
X203060428Y-125321482D01*
X206660428Y-119171482D02*
X203060428Y-119171482D01*
X206660428Y-125321482D02*
X206660428Y-119171482D01*
G04 #@! TO.C,J16*
X158260428Y-70951482D02*
X164410428Y-70951482D01*
X164410428Y-70951482D02*
X164410428Y-67351482D01*
X164410428Y-67351482D02*
X158260428Y-67351482D01*
X158260428Y-67351482D02*
X158260428Y-70951482D01*
G04 #@! TO.C,J15*
X178740000Y-67310000D02*
X178740000Y-70910000D01*
X184890000Y-67310000D02*
X178740000Y-67310000D01*
X184890000Y-70910000D02*
X184890000Y-67310000D01*
X178740000Y-70910000D02*
X184890000Y-70910000D01*
G04 #@! TO.C,J10*
X162600000Y-107800000D02*
X168750000Y-107800000D01*
X168750000Y-107800000D02*
X168750000Y-104200000D01*
X168750000Y-104200000D02*
X162600000Y-104200000D01*
X162600000Y-104200000D02*
X162600000Y-107800000D01*
G04 #@! TO.C,U4*
X159870428Y-83561482D02*
X150890428Y-83561482D01*
X159870428Y-83561482D02*
X159870428Y-76361482D01*
X150890428Y-76361482D02*
X150890428Y-83561482D01*
X150890428Y-76361482D02*
X159870428Y-76361482D01*
G04 #@! TO.C,U2*
X164870428Y-76741482D02*
X164870428Y-67761482D01*
X164870428Y-76741482D02*
X172070428Y-76741482D01*
X172070428Y-67761482D02*
X164870428Y-67761482D01*
X172070428Y-67761482D02*
X172070428Y-76741482D01*
D11*
G04 #@! TO.C,SW7*
X211720428Y-87496482D02*
X211720428Y-91496482D01*
X200120428Y-91496482D02*
X211720428Y-91496482D01*
X200120428Y-87496482D02*
X211720428Y-87496482D01*
X200120428Y-87496482D02*
X200120428Y-91496482D01*
G04 #@! TO.C,SW3*
X211720428Y-105276482D02*
X211720428Y-109276482D01*
X200120428Y-109276482D02*
X211720428Y-109276482D01*
X200120428Y-105276482D02*
X211720428Y-105276482D01*
X200120428Y-105276482D02*
X200120428Y-109276482D01*
G04 #@! TO.C,SW4*
X211720428Y-100831482D02*
X211720428Y-104831482D01*
X200120428Y-104831482D02*
X211720428Y-104831482D01*
X200120428Y-100831482D02*
X211720428Y-100831482D01*
X200120428Y-100831482D02*
X200120428Y-104831482D01*
G04 #@! TO.C,SW5*
X211720428Y-96386482D02*
X211720428Y-100386482D01*
X200120428Y-100386482D02*
X211720428Y-100386482D01*
X200120428Y-96386482D02*
X211720428Y-96386482D01*
X200120428Y-96386482D02*
X200120428Y-100386482D01*
G04 #@! TO.C,SW6*
X211720428Y-91941482D02*
X211720428Y-95941482D01*
X200120428Y-95941482D02*
X211720428Y-95941482D01*
X200120428Y-91941482D02*
X211720428Y-91941482D01*
X200120428Y-91941482D02*
X200120428Y-95941482D01*
G04 #@! TO.C,SW8*
X211720428Y-83051482D02*
X211720428Y-87051482D01*
X200120428Y-87051482D02*
X211720428Y-87051482D01*
X200120428Y-83051482D02*
X211720428Y-83051482D01*
X200120428Y-83051482D02*
X200120428Y-87051482D01*
G04 #@! TO.C,SW9*
X211720428Y-78606482D02*
X211720428Y-82606482D01*
X200120428Y-82606482D02*
X211720428Y-82606482D01*
X200120428Y-78606482D02*
X211720428Y-78606482D01*
X200120428Y-78606482D02*
X200120428Y-82606482D01*
G04 #@! TO.C,SW11*
X211664548Y-69716482D02*
X211664548Y-73716482D01*
X200064548Y-73716482D02*
X211664548Y-73716482D01*
X200064548Y-69716482D02*
X211664548Y-69716482D01*
X200064548Y-69716482D02*
X200064548Y-73716482D01*
D10*
G04 #@! TO.C,MH4*
X152360000Y-122961482D02*
G75*
G03X152360000Y-122961482I-3450000J0D01*
G01*
G04 #@! TO.C,MH3*
X133810428Y-70011482D02*
G75*
G03X133810428Y-70011482I-3450000J0D01*
G01*
G04 #@! TO.C,MH2*
X219600000Y-70011482D02*
G75*
G03X219600000Y-70011482I-3450000J0D01*
G01*
G04 #@! TO.C,MH1*
X219530000Y-122961482D02*
G75*
G03X219530000Y-122961482I-3450000J0D01*
G01*
G04 #@! TO.C,D6*
X178717928Y-112371482D02*
X178717928Y-110911482D01*
X178717928Y-110911482D02*
X181677928Y-110911482D01*
X181677928Y-110911482D02*
X181677928Y-112371482D01*
X181677928Y-112371482D02*
X178717928Y-112371482D01*
G04 #@! TO.C,C1*
X193810768Y-102637522D02*
X197170768Y-102637522D01*
X193810768Y-104537522D02*
X193810768Y-102637522D01*
X197170768Y-104537522D02*
X193810768Y-104537522D01*
X197170768Y-102637522D02*
X197170768Y-104537522D01*
G04 #@! TO.C,C2*
X193797828Y-98256022D02*
X197157828Y-98256022D01*
X193797828Y-100156022D02*
X193797828Y-98256022D01*
X197157828Y-100156022D02*
X193797828Y-100156022D01*
X197157828Y-98256022D02*
X197157828Y-100156022D01*
G04 #@! TO.C,C3*
X197168228Y-93790702D02*
X197168228Y-95690702D01*
X197168228Y-95690702D02*
X193808228Y-95690702D01*
X193808228Y-95690702D02*
X193808228Y-93790702D01*
X193808228Y-93790702D02*
X197168228Y-93790702D01*
G04 #@! TO.C,C4*
X197168228Y-89345702D02*
X197168228Y-91245702D01*
X197168228Y-91245702D02*
X193808228Y-91245702D01*
X193808228Y-91245702D02*
X193808228Y-89345702D01*
X193808228Y-89345702D02*
X197168228Y-89345702D01*
G04 #@! TO.C,C5*
X193818388Y-84893082D02*
X197178388Y-84893082D01*
X193818388Y-86793082D02*
X193818388Y-84893082D01*
X197178388Y-86793082D02*
X193818388Y-86793082D01*
X197178388Y-84893082D02*
X197178388Y-86793082D01*
G04 #@! TO.C,C6*
X197155768Y-80420142D02*
X197155768Y-82320142D01*
X197155768Y-82320142D02*
X193795768Y-82320142D01*
X193795768Y-82320142D02*
X193795768Y-80420142D01*
X193795768Y-80420142D02*
X197155768Y-80420142D01*
G04 #@! TO.C,C7*
X197145368Y-76015782D02*
X197145368Y-77915782D01*
X197145368Y-77915782D02*
X193785368Y-77915782D01*
X193785368Y-77915782D02*
X193785368Y-76015782D01*
X193785368Y-76015782D02*
X197145368Y-76015782D01*
G04 #@! TO.C,C8*
X193788148Y-71456482D02*
X197148148Y-71456482D01*
X193788148Y-73356482D02*
X193788148Y-71456482D01*
X197148148Y-73356482D02*
X193788148Y-73356482D01*
X197148148Y-71456482D02*
X197148148Y-73356482D01*
G04 #@! TO.C,C9*
X185400000Y-79520000D02*
X185400000Y-82480000D01*
X183940000Y-79520000D02*
X185400000Y-79520000D01*
X183940000Y-82480000D02*
X183940000Y-79520000D01*
X185400000Y-82480000D02*
X183940000Y-82480000D01*
G04 #@! TO.C,C10*
X187020000Y-96320000D02*
X188480000Y-96320000D01*
X188480000Y-96320000D02*
X188480000Y-99280000D01*
X188480000Y-99280000D02*
X187020000Y-99280000D01*
X187020000Y-99280000D02*
X187020000Y-96320000D01*
G04 #@! TO.C,C12*
X187620428Y-82533982D02*
X187620428Y-79573982D01*
X189080428Y-82533982D02*
X187620428Y-82533982D01*
X189080428Y-79573982D02*
X189080428Y-82533982D01*
X187620428Y-79573982D02*
X189080428Y-79573982D01*
G04 #@! TO.C,C13*
X186020428Y-82531482D02*
X186020428Y-79571482D01*
X187480428Y-82531482D02*
X186020428Y-82531482D01*
X187480428Y-79571482D02*
X187480428Y-82531482D01*
X186020428Y-79571482D02*
X187480428Y-79571482D01*
G04 #@! TO.C,C14*
X189210428Y-82543982D02*
X189210428Y-79583982D01*
X190670428Y-82543982D02*
X189210428Y-82543982D01*
X190670428Y-79583982D02*
X190670428Y-82543982D01*
X189210428Y-79583982D02*
X190670428Y-79583982D01*
G04 #@! TO.C,C15*
X186420000Y-98410000D02*
X186420000Y-99870000D01*
X186420000Y-99870000D02*
X183460000Y-99870000D01*
X183460000Y-99870000D02*
X183460000Y-98410000D01*
X183460000Y-98410000D02*
X186420000Y-98410000D01*
G04 #@! TO.C,C16*
X178480428Y-76851482D02*
X183040428Y-76851482D01*
X178480428Y-79091482D02*
X178480428Y-76851482D01*
X183040428Y-79091482D02*
X178480428Y-79091482D01*
X183040428Y-76851482D02*
X183040428Y-79091482D01*
G04 #@! TO.C,C17*
X183210000Y-96860000D02*
X183210000Y-99820000D01*
X181750000Y-96860000D02*
X183210000Y-96860000D01*
X181750000Y-99820000D02*
X181750000Y-96860000D01*
X183210000Y-99820000D02*
X181750000Y-99820000D01*
G04 #@! TO.C,C18*
X186420000Y-96840000D02*
X186420000Y-98300000D01*
X186420000Y-98300000D02*
X183460000Y-98300000D01*
X183460000Y-98300000D02*
X183460000Y-96840000D01*
X183460000Y-96840000D02*
X186420000Y-96840000D01*
G04 #@! TO.C,C19*
X179440428Y-81181482D02*
X182400428Y-81181482D01*
X179440428Y-82641482D02*
X179440428Y-81181482D01*
X182400428Y-82641482D02*
X179440428Y-82641482D01*
X182400428Y-81181482D02*
X182400428Y-82641482D01*
G04 #@! TO.C,C20*
X176710428Y-96971482D02*
X176710428Y-94011482D01*
X178170428Y-96971482D02*
X176710428Y-96971482D01*
X178170428Y-94011482D02*
X178170428Y-96971482D01*
X176710428Y-94011482D02*
X178170428Y-94011482D01*
G04 #@! TO.C,C21*
X175100428Y-96968982D02*
X175100428Y-94008982D01*
X176560428Y-96968982D02*
X175100428Y-96968982D01*
X176560428Y-94008982D02*
X176560428Y-96968982D01*
X175100428Y-94008982D02*
X176560428Y-94008982D01*
G04 #@! TO.C,C22*
X148920428Y-89818982D02*
X147460428Y-89818982D01*
X147460428Y-89818982D02*
X147460428Y-86858982D01*
X147460428Y-86858982D02*
X148920428Y-86858982D01*
X148920428Y-86858982D02*
X148920428Y-89818982D01*
G04 #@! TO.C,C23*
X145100428Y-103851482D02*
X148060428Y-103851482D01*
X145100428Y-105311482D02*
X145100428Y-103851482D01*
X148060428Y-105311482D02*
X145100428Y-105311482D01*
X148060428Y-103851482D02*
X148060428Y-105311482D01*
G04 #@! TO.C,C24*
X148060428Y-102251482D02*
X148060428Y-103711482D01*
X148060428Y-103711482D02*
X145100428Y-103711482D01*
X145100428Y-103711482D02*
X145100428Y-102251482D01*
X145100428Y-102251482D02*
X148060428Y-102251482D01*
G04 #@! TO.C,C25*
X145110428Y-100681482D02*
X148070428Y-100681482D01*
X145110428Y-102141482D02*
X145110428Y-100681482D01*
X148070428Y-102141482D02*
X145110428Y-102141482D01*
X148070428Y-100681482D02*
X148070428Y-102141482D01*
G04 #@! TO.C,C26*
X159320428Y-76071482D02*
X157080428Y-76071482D01*
X157080428Y-76071482D02*
X157080428Y-71511482D01*
X157080428Y-71511482D02*
X159320428Y-71511482D01*
X159320428Y-71511482D02*
X159320428Y-76071482D01*
G04 #@! TO.C,C27*
X161000428Y-72931482D02*
X161000428Y-75891482D01*
X159540428Y-72931482D02*
X161000428Y-72931482D01*
X159540428Y-75891482D02*
X159540428Y-72931482D01*
X161000428Y-75891482D02*
X159540428Y-75891482D01*
G04 #@! TO.C,C28*
X174550428Y-80751482D02*
X172310428Y-80751482D01*
X172310428Y-80751482D02*
X172310428Y-76191482D01*
X172310428Y-76191482D02*
X174550428Y-76191482D01*
X174550428Y-76191482D02*
X174550428Y-80751482D01*
G04 #@! TO.C,C29*
X162570428Y-75891482D02*
X161110428Y-75891482D01*
X161110428Y-75891482D02*
X161110428Y-72931482D01*
X161110428Y-72931482D02*
X162570428Y-72931482D01*
X162570428Y-72931482D02*
X162570428Y-75891482D01*
G04 #@! TO.C,C30*
X170660428Y-80811482D02*
X169200428Y-80811482D01*
X169200428Y-80811482D02*
X169200428Y-77851482D01*
X169200428Y-77851482D02*
X170660428Y-77851482D01*
X170660428Y-77851482D02*
X170660428Y-80811482D01*
G04 #@! TO.C,C31*
X164150428Y-72931482D02*
X164150428Y-75891482D01*
X162690428Y-72931482D02*
X164150428Y-72931482D01*
X162690428Y-75891482D02*
X162690428Y-72931482D01*
X164150428Y-75891482D02*
X162690428Y-75891482D01*
G04 #@! TO.C,C32*
X169080428Y-77861482D02*
X169080428Y-80821482D01*
X167620428Y-77861482D02*
X169080428Y-77861482D01*
X167620428Y-80821482D02*
X167620428Y-77861482D01*
X169080428Y-80821482D02*
X167620428Y-80821482D01*
G04 #@! TO.C,C33*
X167520428Y-80831482D02*
X166060428Y-80831482D01*
X166060428Y-80831482D02*
X166060428Y-77871482D01*
X166060428Y-77871482D02*
X167520428Y-77871482D01*
X167520428Y-77871482D02*
X167520428Y-80831482D01*
G04 #@! TO.C,C34*
X173800428Y-72941482D02*
X172340428Y-72941482D01*
X172340428Y-72941482D02*
X172340428Y-69981482D01*
X172340428Y-69981482D02*
X173800428Y-69981482D01*
X173800428Y-69981482D02*
X173800428Y-72941482D01*
G04 #@! TO.C,C35*
X175380428Y-72941482D02*
X173920428Y-72941482D01*
X173920428Y-72941482D02*
X173920428Y-69981482D01*
X173920428Y-69981482D02*
X175380428Y-69981482D01*
X175380428Y-69981482D02*
X175380428Y-72941482D01*
G04 #@! TO.C,C36*
X166070428Y-81401482D02*
X167530428Y-81401482D01*
X167530428Y-81401482D02*
X167530428Y-84361482D01*
X167530428Y-84361482D02*
X166070428Y-84361482D01*
X166070428Y-84361482D02*
X166070428Y-81401482D01*
G04 #@! TO.C,C37*
X176940428Y-69981482D02*
X176940428Y-72941482D01*
X175480428Y-69981482D02*
X176940428Y-69981482D01*
X175480428Y-72941482D02*
X175480428Y-69981482D01*
X176940428Y-72941482D02*
X175480428Y-72941482D01*
G04 #@! TO.C,C38*
X167620428Y-84361482D02*
X167620428Y-81401482D01*
X169080428Y-84361482D02*
X167620428Y-84361482D01*
X169080428Y-81401482D02*
X169080428Y-84361482D01*
X167620428Y-81401482D02*
X169080428Y-81401482D01*
G04 #@! TO.C,C39*
X178520428Y-72933982D02*
X177060428Y-72933982D01*
X177060428Y-72933982D02*
X177060428Y-69973982D01*
X177060428Y-69973982D02*
X178520428Y-69973982D01*
X178520428Y-69973982D02*
X178520428Y-72933982D01*
G04 #@! TO.C,C40*
X169200428Y-81411482D02*
X170660428Y-81411482D01*
X170660428Y-81411482D02*
X170660428Y-84371482D01*
X170660428Y-84371482D02*
X169200428Y-84371482D01*
X169200428Y-84371482D02*
X169200428Y-81411482D01*
G04 #@! TO.C,C41*
X170770428Y-81401482D02*
X172230428Y-81401482D01*
X172230428Y-81401482D02*
X172230428Y-84361482D01*
X172230428Y-84361482D02*
X170770428Y-84361482D01*
X170770428Y-84361482D02*
X170770428Y-81401482D01*
G04 #@! TO.C,C42*
X148310428Y-106891482D02*
X148310428Y-104651482D01*
X148310428Y-104651482D02*
X152870428Y-104651482D01*
X152870428Y-104651482D02*
X152870428Y-106891482D01*
X152870428Y-106891482D02*
X148310428Y-106891482D01*
G04 #@! TO.C,C43*
X145100428Y-105391482D02*
X148060428Y-105391482D01*
X145100428Y-106851482D02*
X145100428Y-105391482D01*
X148060428Y-106851482D02*
X145100428Y-106851482D01*
X148060428Y-105391482D02*
X148060428Y-106851482D01*
G04 #@! TO.C,C44*
X148500428Y-68801482D02*
X153060428Y-68801482D01*
X148500428Y-71041482D02*
X148500428Y-68801482D01*
X153060428Y-71041482D02*
X148500428Y-71041482D01*
X153060428Y-68801482D02*
X153060428Y-71041482D01*
G04 #@! TO.C,C45*
X152940428Y-71261482D02*
X152940428Y-72721482D01*
X152940428Y-72721482D02*
X149980428Y-72721482D01*
X149980428Y-72721482D02*
X149980428Y-71261482D01*
X149980428Y-71261482D02*
X152940428Y-71261482D01*
G04 #@! TO.C,C46*
X149977928Y-72821482D02*
X152937928Y-72821482D01*
X149977928Y-74281482D02*
X149977928Y-72821482D01*
X152937928Y-74281482D02*
X149977928Y-74281482D01*
X152937928Y-72821482D02*
X152937928Y-74281482D01*
G04 #@! TO.C,C47*
X152930428Y-74391482D02*
X152930428Y-75851482D01*
X152930428Y-75851482D02*
X149970428Y-75851482D01*
X149970428Y-75851482D02*
X149970428Y-74391482D01*
X149970428Y-74391482D02*
X152930428Y-74391482D01*
G04 #@! TO.C,C48*
X153870428Y-85171482D02*
X153870428Y-83711482D01*
X153870428Y-83711482D02*
X156830428Y-83711482D01*
X156830428Y-83711482D02*
X156830428Y-85171482D01*
X156830428Y-85171482D02*
X153870428Y-85171482D01*
G04 #@! TO.C,C49*
X156830428Y-86771482D02*
X153870428Y-86771482D01*
X156830428Y-85311482D02*
X156830428Y-86771482D01*
X153870428Y-85311482D02*
X156830428Y-85311482D01*
X153870428Y-86771482D02*
X153870428Y-85311482D01*
G04 #@! TO.C,C50*
X156830428Y-88361482D02*
X153870428Y-88361482D01*
X156830428Y-86901482D02*
X156830428Y-88361482D01*
X153870428Y-86901482D02*
X156830428Y-86901482D01*
X153870428Y-88361482D02*
X153870428Y-86901482D01*
G04 #@! TO.C,C51*
X156830428Y-89931482D02*
X153870428Y-89931482D01*
X156830428Y-88471482D02*
X156830428Y-89931482D01*
X153870428Y-88471482D02*
X156830428Y-88471482D01*
X153870428Y-89931482D02*
X153870428Y-88471482D01*
G04 #@! TO.C,C52*
X146271843Y-80580245D02*
X146271843Y-82040245D01*
X146271843Y-82040245D02*
X143311843Y-82040245D01*
X143311843Y-82040245D02*
X143311843Y-80580245D01*
X143311843Y-80580245D02*
X146271843Y-80580245D01*
G04 #@! TO.C,C53*
X146271843Y-78990245D02*
X146271843Y-80450245D01*
X146271843Y-80450245D02*
X143311843Y-80450245D01*
X143311843Y-80450245D02*
X143311843Y-78990245D01*
X143311843Y-78990245D02*
X146271843Y-78990245D01*
G04 #@! TO.C,C54*
X141041843Y-86590245D02*
X141041843Y-89550245D01*
X139581843Y-86590245D02*
X141041843Y-86590245D01*
X139581843Y-89550245D02*
X139581843Y-86590245D01*
X141041843Y-89550245D02*
X139581843Y-89550245D01*
G04 #@! TO.C,C55*
X130901843Y-98790245D02*
X130901843Y-97330245D01*
X130901843Y-97330245D02*
X133861843Y-97330245D01*
X133861843Y-97330245D02*
X133861843Y-98790245D01*
X133861843Y-98790245D02*
X130901843Y-98790245D01*
G04 #@! TO.C,C56*
X133861843Y-97230245D02*
X130901843Y-97230245D01*
X133861843Y-95770245D02*
X133861843Y-97230245D01*
X130901843Y-95770245D02*
X133861843Y-95770245D01*
X130901843Y-97230245D02*
X130901843Y-95770245D01*
G04 #@! TO.C,C57*
X130901843Y-95660245D02*
X130901843Y-94200245D01*
X130901843Y-94200245D02*
X133861843Y-94200245D01*
X133861843Y-94200245D02*
X133861843Y-95660245D01*
X133861843Y-95660245D02*
X130901843Y-95660245D01*
G04 #@! TO.C,C58*
X137100000Y-84250000D02*
X134140000Y-84250000D01*
X137100000Y-82790000D02*
X137100000Y-84250000D01*
X134140000Y-82790000D02*
X137100000Y-82790000D01*
X134140000Y-84250000D02*
X134140000Y-82790000D01*
G04 #@! TO.C,C59*
X134130000Y-82700000D02*
X134130000Y-81240000D01*
X134130000Y-81240000D02*
X137090000Y-81240000D01*
X137090000Y-81240000D02*
X137090000Y-82700000D01*
X137090000Y-82700000D02*
X134130000Y-82700000D01*
G04 #@! TO.C,C60*
X129331843Y-94310245D02*
X130791843Y-94310245D01*
X130791843Y-94310245D02*
X130791843Y-97270245D01*
X130791843Y-97270245D02*
X129331843Y-97270245D01*
X129331843Y-97270245D02*
X129331843Y-94310245D01*
G04 #@! TO.C,C61*
X137090000Y-81140000D02*
X134130000Y-81140000D01*
X137090000Y-79680000D02*
X137090000Y-81140000D01*
X134130000Y-79680000D02*
X137090000Y-79680000D01*
X134130000Y-81140000D02*
X134130000Y-79680000D01*
G04 #@! TO.C,D3*
X185410428Y-106931482D02*
X192410428Y-106931482D01*
X192410428Y-106931482D02*
X192410428Y-110431482D01*
X192410428Y-110431482D02*
X185410428Y-110431482D01*
X185410428Y-110431482D02*
X185410428Y-106931482D01*
G04 #@! TO.C,D4*
X181710000Y-114110000D02*
X178750000Y-114110000D01*
X181710000Y-112650000D02*
X181710000Y-114110000D01*
X178750000Y-112650000D02*
X181710000Y-112650000D01*
X178750000Y-114110000D02*
X178750000Y-112650000D01*
G04 #@! TO.C,D5*
X141880000Y-106847500D02*
X140420000Y-106847500D01*
X140420000Y-106847500D02*
X140420000Y-103887500D01*
X140420000Y-103887500D02*
X141880000Y-103887500D01*
X141880000Y-103887500D02*
X141880000Y-106847500D01*
G04 #@! TO.C,D7*
X140171843Y-82310245D02*
X147171843Y-82310245D01*
X147171843Y-82310245D02*
X147171843Y-85810245D01*
X147171843Y-85810245D02*
X140171843Y-85810245D01*
X140171843Y-85810245D02*
X140171843Y-82310245D01*
G04 #@! TO.C,D8*
X129410428Y-77951482D02*
X129410428Y-80911482D01*
X127950428Y-77951482D02*
X129410428Y-77951482D01*
X127950428Y-80911482D02*
X127950428Y-77951482D01*
X129410428Y-80911482D02*
X127950428Y-80911482D01*
G04 #@! TO.C,D9*
X132401843Y-80890245D02*
X130941843Y-80890245D01*
X130941843Y-80890245D02*
X130941843Y-77930245D01*
X130941843Y-77930245D02*
X132401843Y-77930245D01*
X132401843Y-77930245D02*
X132401843Y-80890245D01*
G04 #@! TO.C,F1*
X202550428Y-110101482D02*
X198850428Y-110101482D01*
X198850428Y-110101482D02*
X198850428Y-124901482D01*
X198850428Y-124901482D02*
X202550428Y-124901482D01*
X202550428Y-124901482D02*
X202550428Y-110101482D01*
G04 #@! TO.C,F2*
X146411843Y-74970245D02*
X146411843Y-78870245D01*
X146411843Y-78870245D02*
X140511843Y-78870245D01*
X140511843Y-78870245D02*
X140511843Y-74970245D01*
X140511843Y-74970245D02*
X146411843Y-74970245D01*
G04 #@! TO.C,J2*
X143881843Y-74220245D02*
X143881843Y-66030245D01*
X143881843Y-66030245D02*
X133991843Y-66030245D01*
X133991843Y-66030245D02*
X133991843Y-74220245D01*
X133991843Y-74220245D02*
X143881843Y-74220245D01*
G04 #@! TO.C,J4*
X186460000Y-111630000D02*
X186460000Y-125630000D01*
X186460000Y-125630000D02*
X198460000Y-125630000D01*
X198460000Y-125630000D02*
X198460000Y-111630000D01*
X198460000Y-111630000D02*
X186460000Y-111630000D01*
G04 #@! TO.C,J6*
X163330000Y-93600000D02*
X163330000Y-84950000D01*
X163330000Y-84950000D02*
X157180000Y-84950000D01*
X157180000Y-84950000D02*
X157180000Y-93600000D01*
X157180000Y-93600000D02*
X163330000Y-93600000D01*
G04 #@! TO.C,Q1*
X193630428Y-111381482D02*
X193630428Y-107881482D01*
X197030428Y-111381482D02*
X193630428Y-111381482D01*
X197030428Y-107881482D02*
X197030428Y-111381482D01*
X193630428Y-107881482D02*
X197030428Y-107881482D01*
G04 #@! TO.C,R3*
X195735428Y-106156482D02*
X195735428Y-104696482D01*
X195735428Y-104696482D02*
X198695428Y-104696482D01*
X198695428Y-104696482D02*
X198695428Y-106156482D01*
X198695428Y-106156482D02*
X195735428Y-106156482D01*
G04 #@! TO.C,R4*
X198695428Y-101711482D02*
X195735428Y-101711482D01*
X198695428Y-100251482D02*
X198695428Y-101711482D01*
X195735428Y-100251482D02*
X198695428Y-100251482D01*
X195735428Y-101711482D02*
X195735428Y-100251482D01*
G04 #@! TO.C,R5*
X198695428Y-97266482D02*
X195735428Y-97266482D01*
X198695428Y-95806482D02*
X198695428Y-97266482D01*
X195735428Y-95806482D02*
X198695428Y-95806482D01*
X195735428Y-97266482D02*
X195735428Y-95806482D01*
G04 #@! TO.C,R6*
X198695428Y-92821482D02*
X195735428Y-92821482D01*
X198695428Y-91361482D02*
X198695428Y-92821482D01*
X195735428Y-91361482D02*
X198695428Y-91361482D01*
X195735428Y-92821482D02*
X195735428Y-91361482D01*
G04 #@! TO.C,R7*
X195735428Y-88376482D02*
X195735428Y-86916482D01*
X195735428Y-86916482D02*
X198695428Y-86916482D01*
X198695428Y-86916482D02*
X198695428Y-88376482D01*
X198695428Y-88376482D02*
X195735428Y-88376482D01*
G04 #@! TO.C,R8*
X195735428Y-83931482D02*
X195735428Y-82471482D01*
X195735428Y-82471482D02*
X198695428Y-82471482D01*
X198695428Y-82471482D02*
X198695428Y-83931482D01*
X198695428Y-83931482D02*
X195735428Y-83931482D01*
G04 #@! TO.C,R9*
X198695428Y-79486482D02*
X195735428Y-79486482D01*
X198695428Y-78026482D02*
X198695428Y-79486482D01*
X195735428Y-78026482D02*
X198695428Y-78026482D01*
X195735428Y-79486482D02*
X195735428Y-78026482D01*
G04 #@! TO.C,R10*
X195735428Y-75041482D02*
X195735428Y-73581482D01*
X195735428Y-73581482D02*
X198695428Y-73581482D01*
X198695428Y-73581482D02*
X198695428Y-75041482D01*
X198695428Y-75041482D02*
X195735428Y-75041482D01*
G04 #@! TO.C,R11*
X195735428Y-70596482D02*
X195735428Y-69136482D01*
X195735428Y-69136482D02*
X198695428Y-69136482D01*
X198695428Y-69136482D02*
X198695428Y-70596482D01*
X198695428Y-70596482D02*
X195735428Y-70596482D01*
G04 #@! TO.C,R12*
X178130428Y-87681482D02*
X178130428Y-89141482D01*
X178130428Y-89141482D02*
X175170428Y-89141482D01*
X175170428Y-89141482D02*
X175170428Y-87681482D01*
X175170428Y-87681482D02*
X178130428Y-87681482D01*
G04 #@! TO.C,R13*
X178150428Y-93841482D02*
X175190428Y-93841482D01*
X178150428Y-92381482D02*
X178150428Y-93841482D01*
X175190428Y-92381482D02*
X178150428Y-92381482D01*
X175190428Y-93841482D02*
X175190428Y-92381482D01*
G04 #@! TO.C,R14*
X178140428Y-92281482D02*
X175180428Y-92281482D01*
X178140428Y-90821482D02*
X178140428Y-92281482D01*
X175180428Y-90821482D02*
X178140428Y-90821482D01*
X175180428Y-92281482D02*
X175180428Y-90821482D01*
G04 #@! TO.C,R15*
X175180428Y-90741482D02*
X175180428Y-89281482D01*
X175180428Y-89281482D02*
X178140428Y-89281482D01*
X178140428Y-89281482D02*
X178140428Y-90741482D01*
X178140428Y-90741482D02*
X175180428Y-90741482D01*
G04 #@! TO.C,R16*
X135650428Y-95561482D02*
X135650428Y-94101482D01*
X135650428Y-94101482D02*
X138610428Y-94101482D01*
X138610428Y-94101482D02*
X138610428Y-95561482D01*
X138610428Y-95561482D02*
X135650428Y-95561482D01*
G04 #@! TO.C,R17*
X138840428Y-98731482D02*
X138840428Y-97271482D01*
X138840428Y-97271482D02*
X141800428Y-97271482D01*
X141800428Y-97271482D02*
X141800428Y-98731482D01*
X141800428Y-98731482D02*
X138840428Y-98731482D01*
G04 #@! TO.C,R18*
X141790428Y-97141482D02*
X138830428Y-97141482D01*
X141790428Y-95681482D02*
X141790428Y-97141482D01*
X138830428Y-95681482D02*
X141790428Y-95681482D01*
X138830428Y-97141482D02*
X138830428Y-95681482D01*
G04 #@! TO.C,R19*
X188520428Y-106441482D02*
X188520428Y-104981482D01*
X188520428Y-104981482D02*
X191480428Y-104981482D01*
X191480428Y-104981482D02*
X191480428Y-106441482D01*
X191480428Y-106441482D02*
X188520428Y-106441482D01*
G04 #@! TO.C,R20*
X127810428Y-102021482D02*
X130770428Y-102021482D01*
X127810428Y-103481482D02*
X127810428Y-102021482D01*
X130770428Y-103481482D02*
X127810428Y-103481482D01*
X130770428Y-102021482D02*
X130770428Y-103481482D01*
G04 #@! TO.C,R21*
X130758101Y-105055075D02*
X127798101Y-105055075D01*
X130758101Y-103595075D02*
X130758101Y-105055075D01*
X127798101Y-103595075D02*
X130758101Y-103595075D01*
X127798101Y-105055075D02*
X127798101Y-103595075D01*
G04 #@! TO.C,R22*
X181710000Y-107480000D02*
X181710000Y-108940000D01*
X181710000Y-108940000D02*
X178750000Y-108940000D01*
X178750000Y-108940000D02*
X178750000Y-107480000D01*
X178750000Y-107480000D02*
X181710000Y-107480000D01*
G04 #@! TO.C,R23*
X141860000Y-100740000D02*
X141860000Y-103700000D01*
X140400000Y-100740000D02*
X141860000Y-100740000D01*
X140400000Y-103700000D02*
X140400000Y-100740000D01*
X141860000Y-103700000D02*
X140400000Y-103700000D01*
G04 #@! TO.C,R24*
X178777928Y-109121482D02*
X181737928Y-109121482D01*
X178777928Y-110581482D02*
X178777928Y-109121482D01*
X181737928Y-110581482D02*
X178777928Y-110581482D01*
X181737928Y-109121482D02*
X181737928Y-110581482D01*
G04 #@! TO.C,R25*
X131001843Y-84250245D02*
X131001843Y-81290245D01*
X132461843Y-84250245D02*
X131001843Y-84250245D01*
X132461843Y-81290245D02*
X132461843Y-84250245D01*
X131001843Y-81290245D02*
X132461843Y-81290245D01*
G04 #@! TO.C,R26*
X132561843Y-81290245D02*
X134021843Y-81290245D01*
X134021843Y-81290245D02*
X134021843Y-84250245D01*
X134021843Y-84250245D02*
X132561843Y-84250245D01*
X132561843Y-84250245D02*
X132561843Y-81290245D01*
G04 #@! TO.C,U1*
X142490428Y-100511482D02*
X153090428Y-100511482D01*
X142490428Y-89911482D02*
X153090428Y-89911482D01*
X142490428Y-100511482D02*
X142490428Y-89911482D01*
X153090428Y-100511482D02*
X153090428Y-89911482D01*
G04 #@! TO.C,U3*
X165930428Y-82881482D02*
X162530428Y-82881482D01*
X162530428Y-82881482D02*
X162530428Y-79381482D01*
X162530428Y-79381482D02*
X165930428Y-79381482D01*
X165930428Y-79381482D02*
X165930428Y-82881482D01*
G04 #@! TO.C,U5*
X128331843Y-93970245D02*
X139331843Y-93970245D01*
X128331843Y-84470245D02*
X139331843Y-84470245D01*
X128331843Y-93970245D02*
X128331843Y-84470245D01*
X139331843Y-93970245D02*
X139331843Y-84470245D01*
D11*
G04 #@! TO.C,Y1*
X151870428Y-102971482D02*
X148670428Y-102971482D01*
X151870428Y-101671482D02*
X148670428Y-101671482D01*
X151870428Y-102971482D02*
X151870428Y-101671482D01*
X148670428Y-102971482D02*
X148670428Y-101671482D01*
G04 #@! TD*
M02*
