M48
;DRILL file {KiCad (5.0.0)} date 10/23/19 21:11:48
;FORMAT={-:-/ absolute / metric / decimal}
FMAT,2
METRIC,TZ
T1C0.300
T2C0.400
T3C0.550
T4C0.800
T5C0.850
T6C0.990
T7C1.000
%
G90
G05
M71
T1
X203.59Y-85.83
X183.59Y-75.83
X183.59Y-80.83
X178.59Y-75.83
X198.59Y-75.83
X193.59Y-80.83
X198.59Y-80.83
X188.59Y-80.83
X198.59Y-70.83
X173.59Y-70.83
X203.59Y-80.83
X193.59Y-75.83
X173.59Y-85.83
X178.59Y-70.83
X178.59Y-85.83
X188.59Y-75.83
X188.59Y-85.83
X193.59Y-85.83
X183.59Y-70.83
X188.59Y-70.83
X183.59Y-85.83
X178.59Y-80.83
X173.59Y-75.83
X198.59Y-85.83
X173.59Y-80.83
X193.59Y-70.83
T2
X137.17Y-81.14
X146.71Y-90.813
X146.71Y-95.258
X146.71Y-99.703
X146.71Y-104.148
X146.71Y-108.593
X146.71Y-113.038
X146.71Y-117.483
X146.71Y-124.595
X148.05Y-83.89
X151.5Y-112.79
X151.72Y-110.34
X154.26Y-83.4
X154.61Y-96.86
X154.61Y-121.12
X155.67Y-109.01
X157.51Y-119.79
X157.63Y-100.85
X159.52Y-122.2
X161.42Y-87.88
X164.06Y-114.6
X165.07Y-105.79
X165.11Y-107.29
X165.46Y-103.89
X165.52Y-98.19
X166.08Y-101.09
X166.26Y-105.27
X166.29Y-107.78
X166.54Y-112.37
X170.26Y-84.67
X170.33Y-98.19
X178.21Y-110.9
X183.05Y-98.74
X183.44Y-119.96
X184.58Y-99.59
X184.59Y-97.24
X185.48Y-98.06
X185.48Y-101.25
X185.51Y-96.29
X187.2Y-126.38
X187.21Y-104.24
X188.91Y-105.51
X190.35Y-90.3
X191.31Y-96.51
X197.449Y-99.159
X197.81Y-112.79
X199.85Y-115.76
X201.28Y-115.76
X201.53Y-96.41
X202.37Y-97.48
X203.14Y-98.4
X204.71Y-115.42
X207.3Y-103.37
X207.81Y-117.32
X207.88Y-95.12
X209.93Y-103.4
X210.83Y-117.32
T4
X140.47Y-70.61
X140.47Y-83.31
T6
X158.59Y-71.09
X158.59Y-75.59
X165.09Y-71.09
X165.09Y-75.59
T7
X121.44Y-94.8
X121.44Y-97.34
X121.44Y-99.88
X121.44Y-102.42
X121.44Y-104.96
X121.44Y-107.5
X121.44Y-110.04
X121.44Y-112.58
X121.44Y-115.12
X129.66Y-71.05
X132.2Y-71.05
X176.8Y-102.65
X176.8Y-105.19
X176.8Y-107.73
X179.34Y-102.65
X179.34Y-105.19
X179.34Y-107.73
X131.06Y-91.63
X133.56Y-91.63
X136.06Y-91.63
X131.06Y-113.855
X133.56Y-113.855
X136.06Y-113.855
X131.06Y-87.185
X133.56Y-87.185
X136.06Y-87.185
X131.06Y-100.52
X133.56Y-100.52
X136.06Y-100.52
X131.06Y-104.965
X133.56Y-104.965
X136.06Y-104.965
X131.06Y-118.3
X133.56Y-118.3
X136.06Y-118.3
X131.116Y-122.745
X133.616Y-122.745
X136.116Y-122.745
X209.65Y-71.92
X209.65Y-74.46
X209.65Y-77.
X209.65Y-79.54
X209.65Y-82.08
X209.65Y-84.62
X131.06Y-109.41
X133.56Y-109.41
X136.06Y-109.41
X131.06Y-96.075
X133.56Y-96.075
X136.06Y-96.075
T3
X196.664Y-125.206G85X196.664Y-125.856
G05
X204.414Y-125.206G85X204.414Y-125.856
G05
T5
X196.814Y-121.456G85X196.814Y-122.006
G05
X204.264Y-121.456G85X204.264Y-122.006
G05
T7
X144.28Y-76.6G85X144.28Y-78.1
G05
X147.78Y-70.35G85X149.78Y-70.35
G05
X148.13Y-76.35G85X149.43Y-76.35
G05
X153.28Y-76.6G85X153.28Y-78.1
G05
T0
M30
