G04 #@! TF.GenerationSoftware,KiCad,Pcbnew,(5.0.0)*
G04 #@! TF.CreationDate,2020-05-27T21:18:54+10:00*
G04 #@! TF.ProjectId,DAQ Board,44415120426F6172642E6B696361645F,rev?*
G04 #@! TF.SameCoordinates,Original*
G04 #@! TF.FileFunction,Drawing*
%FSLAX46Y46*%
G04 Gerber Fmt 4.6, Leading zero omitted, Abs format (unit mm)*
G04 Created by KiCad (PCBNEW (5.0.0)) date 05/27/20 21:18:54*
%MOMM*%
%LPD*%
G01*
G04 APERTURE LIST*
%ADD10C,0.080000*%
G04 APERTURE END LIST*
G04 #@! TO.C,J2*
D10*
X137227557Y-67356435D02*
X137227557Y-66856435D01*
X137418033Y-66856435D01*
X137465652Y-66880245D01*
X137489462Y-66904054D01*
X137513271Y-66951673D01*
X137513271Y-67023102D01*
X137489462Y-67070721D01*
X137465652Y-67094530D01*
X137418033Y-67118340D01*
X137227557Y-67118340D01*
X138013271Y-67308816D02*
X137989462Y-67332625D01*
X137918033Y-67356435D01*
X137870414Y-67356435D01*
X137798985Y-67332625D01*
X137751366Y-67285006D01*
X137727557Y-67237387D01*
X137703747Y-67142149D01*
X137703747Y-67070721D01*
X137727557Y-66975483D01*
X137751366Y-66927864D01*
X137798985Y-66880245D01*
X137870414Y-66856435D01*
X137918033Y-66856435D01*
X137989462Y-66880245D01*
X138013271Y-66904054D01*
X138394223Y-67094530D02*
X138465652Y-67118340D01*
X138489462Y-67142149D01*
X138513271Y-67189768D01*
X138513271Y-67261197D01*
X138489462Y-67308816D01*
X138465652Y-67332625D01*
X138418033Y-67356435D01*
X138227557Y-67356435D01*
X138227557Y-66856435D01*
X138394223Y-66856435D01*
X138441843Y-66880245D01*
X138465652Y-66904054D01*
X138489462Y-66951673D01*
X138489462Y-66999292D01*
X138465652Y-67046911D01*
X138441843Y-67070721D01*
X138394223Y-67094530D01*
X138227557Y-67094530D01*
X139108509Y-67094530D02*
X139275176Y-67094530D01*
X139346604Y-67356435D02*
X139108509Y-67356435D01*
X139108509Y-66856435D01*
X139346604Y-66856435D01*
X139775176Y-67356435D02*
X139775176Y-66856435D01*
X139775176Y-67332625D02*
X139727557Y-67356435D01*
X139632319Y-67356435D01*
X139584700Y-67332625D01*
X139560890Y-67308816D01*
X139537081Y-67261197D01*
X139537081Y-67118340D01*
X139560890Y-67070721D01*
X139584700Y-67046911D01*
X139632319Y-67023102D01*
X139727557Y-67023102D01*
X139775176Y-67046911D01*
X140227557Y-67023102D02*
X140227557Y-67427864D01*
X140203747Y-67475483D01*
X140179938Y-67499292D01*
X140132319Y-67523102D01*
X140060890Y-67523102D01*
X140013271Y-67499292D01*
X140227557Y-67332625D02*
X140179938Y-67356435D01*
X140084700Y-67356435D01*
X140037081Y-67332625D01*
X140013271Y-67308816D01*
X139989462Y-67261197D01*
X139989462Y-67118340D01*
X140013271Y-67070721D01*
X140037081Y-67046911D01*
X140084700Y-67023102D01*
X140179938Y-67023102D01*
X140227557Y-67046911D01*
X140656128Y-67332625D02*
X140608509Y-67356435D01*
X140513271Y-67356435D01*
X140465652Y-67332625D01*
X140441843Y-67285006D01*
X140441843Y-67094530D01*
X140465652Y-67046911D01*
X140513271Y-67023102D01*
X140608509Y-67023102D01*
X140656128Y-67046911D01*
X140679938Y-67094530D01*
X140679938Y-67142149D01*
X140441843Y-67189768D01*
G04 #@! TD*
M02*
