M48
;DRILL file {KiCad (5.0.0)} date 05/27/20 21:18:58
;FORMAT={-:-/ absolute / metric / decimal}
FMAT,2
METRIC,TZ
T1C0.400
T2C0.550
T3C0.800
T4C0.850
T5C0.990
T6C1.000
T7C2.200
%
G90
G05
M71
T1
X127.31Y-78.59
X127.48Y-68.63
X127.99Y-73.68
X128.02Y-84.62
X128.02Y-88.62
X128.02Y-92.62
X128.02Y-96.62
X128.02Y-100.62
X128.02Y-120.62
X128.02Y-124.62
X128.04Y-76.08
X128.04Y-81.9
X128.36Y-116.32
X128.4Y-111.08
X129.55Y-91.061
X130.22Y-78.36
X131.18Y-108.02
X131.22Y-76.54
X131.37Y-102.75
X131.45Y-113.61
X131.6Y-99.341
X132.02Y-88.62
X132.02Y-120.62
X132.02Y-124.62
X132.12Y-73.77
X132.18Y-91.091
X132.44Y-105.32
X132.74Y-116.72
X132.93Y-68.69
X134.77Y-79.041
X135.16Y-94.83
X135.2Y-104.32
X136.Y-109.49
X136.02Y-88.62
X136.02Y-100.62
X136.02Y-112.62
X136.02Y-116.62
X136.02Y-124.62
X136.03Y-120.63
X137.11Y-96.981
X137.59Y-76.5
X137.93Y-81.38
X137.95Y-98.051
X139.44Y-109.51
X139.46Y-112.64
X139.46Y-116.64
X139.46Y-120.64
X139.46Y-124.64
X139.7Y-77.52
X139.99Y-107.53
X140.02Y-68.62
X140.72Y-90.66
X141.67Y-81.671
X142.031Y-95.302
X142.29Y-79.89
X143.99Y-107.53
X144.02Y-76.62
X144.02Y-88.62
X144.02Y-100.62
X144.04Y-74.32
X145.49Y-93.05
X145.92Y-97.13
X145.96Y-94.81
X146.22Y-87.11
X147.38Y-95.61
X147.99Y-107.53
X148.02Y-68.62
X148.02Y-72.62
X148.02Y-76.62
X148.02Y-80.62
X148.02Y-84.62
X148.17Y-97.951
X148.99Y-93.21
X149.13Y-104.161
X150.04Y-83.87
X150.13Y-87.74
X150.24Y-97.9
X150.57Y-88.951
X151.99Y-107.53
X152.02Y-100.62
X152.28Y-68.081
X152.29Y-89.021
X154.24Y-92.33
X154.69Y-95.14
X155.99Y-107.53
X156.02Y-68.62
X156.02Y-72.62
X156.02Y-76.62
X156.02Y-80.62
X156.33Y-75.171
X157.5Y-99.04
X158.86Y-95.18
X159.1Y-107.58
X160.02Y-76.62
X160.02Y-100.62
X160.02Y-104.62
X161.25Y-83.58
X161.31Y-80.7
X161.4Y-72.01
X161.9Y-105.06
X162.4Y-107.56
X163.46Y-87.12
X164.02Y-76.62
X164.02Y-100.62
X164.54Y-68.45
X164.9Y-94.06
X167.48Y-97.17
X167.49Y-99.06
X168.02Y-72.62
X168.64Y-89.43
X168.81Y-87.99
X169.27Y-91.69
X169.4Y-90.36
X170.79Y-94.24
X170.8Y-99.
X170.89Y-85.73
X172.02Y-68.62
X172.02Y-100.62
X172.35Y-107.61
X172.94Y-82.091
X173.53Y-88.25
X173.54Y-104.22
X173.77Y-90.37
X173.84Y-98.62
X174.42Y-74.86
X174.52Y-91.24
X174.58Y-94.69
X174.72Y-89.64
X175.42Y-79.861
X176.02Y-68.62
X176.02Y-100.62
X176.02Y-104.62
X176.16Y-76.8
X176.35Y-83.31
X177.Y-80.62
X178.42Y-74.86
X179.05Y-73.481
X179.43Y-106.8
X180.02Y-72.62
X180.02Y-100.62
X180.02Y-120.62
X181.14Y-97.54
X181.35Y-91.95
X181.36Y-86.18
X182.08Y-87.06
X182.59Y-80.47
X182.68Y-93.59
X182.74Y-87.83
X182.94Y-120.58
X183.16Y-113.55
X183.32Y-88.67
X183.42Y-90.7
X183.87Y-73.74
X184.02Y-76.62
X184.02Y-92.62
X184.02Y-100.62
X184.02Y-104.62
X184.02Y-108.62
X184.17Y-86.53
X186.17Y-89.31
X186.91Y-111.061
X187.49Y-76.62
X187.5Y-78.44
X187.96Y-116.4
X188.02Y-100.62
X188.02Y-104.62
X188.02Y-112.62
X188.02Y-124.62
X188.15Y-92.61
X188.21Y-86.53
X189.06Y-97.02
X189.27Y-89.16
X190.21Y-83.31
X190.77Y-102.34
X191.32Y-74.1
X191.34Y-76.8
X191.64Y-98.52
X192.02Y-68.62
X192.02Y-124.62
X192.42Y-116.31
X193.12Y-110.571
X194.53Y-75.39
X194.54Y-69.85
X194.54Y-79.76
X194.54Y-97.6
X194.54Y-101.96
X194.55Y-88.71
X194.55Y-93.26
X194.56Y-84.15
X196.02Y-68.62
X196.02Y-112.62
X196.02Y-124.62
X196.1Y-116.68
X200.02Y-68.62
X200.02Y-72.62
X200.02Y-76.62
X200.02Y-80.62
X200.02Y-84.62
X200.02Y-88.62
X200.02Y-104.62
X200.02Y-108.62
X200.02Y-116.62
X200.02Y-120.62
X200.05Y-99.19
X200.11Y-94.4
X200.69Y-113.92
X204.02Y-68.62
X204.02Y-104.62
X204.02Y-116.62
X204.09Y-112.53
X207.08Y-78.6
X207.11Y-73.81
X207.15Y-82.9
X207.18Y-100.63
X207.22Y-87.24
X207.22Y-91.71
X207.22Y-96.15
X207.29Y-105.03
X207.56Y-112.56
X207.78Y-116.69
X208.02Y-68.62
X208.02Y-120.62
X208.02Y-124.62
X211.84Y-120.53
X212.02Y-68.62
X212.02Y-96.62
X212.02Y-100.62
X212.02Y-104.62
X212.02Y-108.62
X212.02Y-112.62
X212.02Y-116.62
X212.02Y-124.62
X212.03Y-76.61
X212.03Y-80.61
X212.03Y-84.61
X212.03Y-88.61
X212.03Y-92.61
X213.58Y-73.53
X215.83Y-93.35
X215.87Y-87.51
X216.02Y-96.62
X216.02Y-108.62
X216.03Y-84.61
X216.04Y-75.32
X216.04Y-99.79
X216.06Y-120.32
X216.09Y-81.43
X216.11Y-111.92
X216.65Y-105.45
X216.85Y-117.3
X220.02Y-68.62
X220.02Y-76.62
X220.02Y-80.62
X220.02Y-84.62
X220.02Y-88.62
X220.02Y-92.62
X220.02Y-96.62
X220.02Y-100.62
X220.02Y-104.62
X220.02Y-108.62
X220.02Y-112.62
X220.02Y-116.62
X220.02Y-120.62
X220.02Y-124.62
X221.18Y-73.99
X222.94Y-96.71
X222.97Y-84.59
X223.03Y-120.6
X223.07Y-108.73
X223.99Y-68.61
X223.99Y-76.61
X223.99Y-80.61
X223.99Y-88.61
X223.99Y-92.61
X223.99Y-100.61
X223.99Y-104.61
X223.99Y-112.61
X223.99Y-116.61
X223.99Y-124.61
X227.99Y-68.61
X227.99Y-76.61
X227.99Y-80.61
X227.99Y-88.61
X227.99Y-92.61
X227.99Y-100.61
X227.99Y-104.61
X227.99Y-112.61
X227.99Y-116.61
X227.99Y-124.61
X229.35Y-72.5
X229.47Y-84.55
X229.51Y-96.71
X229.51Y-108.73
X229.51Y-120.6
X230.2Y-68.57
X230.24Y-80.57
X230.27Y-124.54
X230.32Y-88.61
X230.32Y-92.61
X230.34Y-76.61
X230.38Y-100.64
X230.38Y-104.64
X230.42Y-112.62
X230.42Y-116.62
T3
X200.7Y-111.151
X200.7Y-123.851
T5
X180.1Y-117.09
X180.1Y-123.59
X184.6Y-117.09
X184.6Y-123.59
T6
X204.86Y-120.981
X204.86Y-123.521
X187.38Y-69.09
X189.92Y-69.09
X203.42Y-93.941
X205.92Y-93.941
X208.42Y-93.941
X203.42Y-85.051
X205.92Y-85.051
X208.42Y-85.051
X203.42Y-89.496
X205.92Y-89.496
X208.42Y-89.496
X203.42Y-98.386
X205.92Y-98.386
X208.42Y-98.386
X203.42Y-102.831
X205.92Y-102.831
X208.42Y-102.831
X203.42Y-76.161
X205.92Y-76.161
X208.42Y-76.161
X129.83Y-109.841
X129.83Y-112.381
X129.83Y-114.921
X129.83Y-117.461
X129.83Y-120.001
X129.83Y-122.541
X156.54Y-102.3
X156.54Y-104.84
X203.365Y-71.716
X205.865Y-71.716
X208.365Y-71.716
X158.99Y-86.72
X158.99Y-89.26
X158.99Y-91.8
X161.53Y-86.72
X161.53Y-89.26
X161.53Y-91.8
X164.4Y-106.
X166.94Y-106.
X203.42Y-107.276
X205.92Y-107.276
X208.42Y-107.276
X203.42Y-80.606
X205.92Y-80.606
X208.42Y-80.606
X180.54Y-69.11
X183.08Y-69.11
X160.06Y-69.151
X162.6Y-69.151
T7
X226.06Y-84.305
X226.06Y-120.56
X217.23Y-78.215
X226.06Y-72.22
X226.06Y-108.475
X226.06Y-96.39
X217.23Y-114.47
X217.23Y-90.3
X217.23Y-102.385
T2
X135.067Y-69.255G85X135.067Y-68.605
G05
X142.817Y-69.255G85X142.817Y-68.605
G05
T4
X135.217Y-73.005G85X135.217Y-72.455
G05
X142.667Y-73.005G85X142.667Y-72.455
G05
T6
X187.96Y-119.38G85X187.96Y-120.88
G05
X191.46Y-113.13G85X193.46Y-113.13
G05
X191.81Y-119.13G85X193.11Y-119.13
G05
X196.96Y-119.38G85X196.96Y-120.88
G05
T0
M30
