M48
;DRILL file {KiCad (5.0.0)} date 12/28/19 12:48:46
;FORMAT={-:-/ absolute / metric / decimal}
FMAT,2
METRIC,TZ
T1C0.400
T2C0.550
T3C0.800
T4C0.850
T5C0.990
T6C1.000
T7C2.200
%
G90
G05
M71
T1
X127.31Y-78.59
X127.48Y-68.63
X127.99Y-73.68
X128.02Y-84.62
X128.02Y-88.62
X128.02Y-92.62
X128.02Y-96.62
X128.02Y-100.62
X128.02Y-112.62
X128.02Y-116.62
X128.02Y-120.62
X128.02Y-124.62
X129.55Y-91.061
X130.22Y-78.36
X131.6Y-99.341
X132.02Y-80.62
X132.02Y-88.62
X132.02Y-108.62
X132.02Y-112.62
X132.02Y-116.62
X132.02Y-120.62
X132.02Y-124.62
X132.12Y-73.77
X132.18Y-91.091
X132.93Y-68.69
X134.77Y-79.041
X135.16Y-94.83
X136.02Y-88.62
X136.02Y-100.62
X136.02Y-104.62
X136.02Y-112.62
X136.02Y-116.62
X136.02Y-124.62
X136.03Y-120.63
X137.11Y-96.981
X137.39Y-78.041
X137.59Y-76.5
X137.95Y-98.051
X139.46Y-112.64
X139.46Y-116.64
X139.46Y-120.64
X139.46Y-124.64
X139.99Y-107.53
X140.02Y-68.62
X140.52Y-79.861
X140.72Y-90.66
X141.67Y-81.671
X142.031Y-95.302
X143.99Y-107.53
X144.02Y-68.62
X144.02Y-72.62
X144.02Y-76.62
X144.02Y-88.62
X144.02Y-100.62
X145.61Y-94.62
X147.87Y-95.96
X147.99Y-107.53
X148.02Y-68.62
X148.02Y-72.62
X148.02Y-76.62
X148.02Y-80.62
X148.02Y-84.62
X148.02Y-92.62
X148.17Y-97.951
X149.13Y-104.161
X149.61Y-94.62
X149.71Y-96.411
X150.57Y-88.951
X150.62Y-84.64
X151.99Y-107.53
X152.02Y-88.62
X152.02Y-100.62
X152.27Y-90.221
X152.28Y-68.081
X153.97Y-98.171
X154.Y-93.211
X154.Y-96.401
X154.89Y-97.221
X154.9Y-94.871
X155.99Y-107.53
X156.02Y-68.62
X156.02Y-72.62
X156.02Y-76.62
X156.02Y-80.62
X156.33Y-75.171
X156.43Y-95.721
X159.1Y-107.58
X160.02Y-76.62
X160.02Y-100.62
X160.02Y-104.62
X161.27Y-83.561
X161.9Y-105.06
X162.4Y-107.56
X164.02Y-68.62
X164.02Y-76.62
X164.02Y-100.62
X164.02Y-104.62
X168.02Y-72.62
X168.02Y-92.62
X168.02Y-100.62
X168.02Y-104.62
X169.15Y-96.271
X169.84Y-98.62
X172.02Y-68.62
X172.02Y-100.62
X172.35Y-107.61
X172.94Y-82.091
X173.19Y-86.681
X173.22Y-89.191
X173.4Y-93.371
X173.84Y-98.62
X173.96Y-96.271
X174.02Y-90.571
X174.37Y-87.171
X174.41Y-88.671
X174.42Y-74.86
X175.42Y-79.861
X176.02Y-68.62
X176.02Y-100.62
X176.02Y-104.62
X176.35Y-83.31
X178.34Y-90.011
X178.42Y-74.86
X179.05Y-73.481
X179.41Y-86.26
X179.8Y-105.211
X180.02Y-72.62
X180.02Y-88.62
X180.02Y-92.62
X180.02Y-100.62
X180.02Y-120.62
X181.74Y-86.43
X181.85Y-93.611
X181.95Y-75.551
X183.81Y-85.451
X184.02Y-76.62
X184.02Y-88.62
X184.02Y-92.62
X184.02Y-100.62
X184.02Y-104.62
X184.02Y-108.62
X184.02Y-112.62
X184.02Y-120.62
X184.85Y-74.221
X184.87Y-97.601
X186.91Y-111.061
X187.49Y-76.62
X187.5Y-78.44
X187.76Y-84.121
X187.98Y-81.671
X188.02Y-96.62
X188.02Y-100.62
X188.02Y-104.62
X188.02Y-112.62
X188.02Y-120.62
X188.02Y-124.62
X192.02Y-68.62
X192.02Y-72.62
X192.02Y-88.62
X192.02Y-96.62
X192.02Y-100.62
X192.02Y-112.62
X192.02Y-120.62
X192.02Y-124.62
X192.77Y-69.866
X192.77Y-76.978
X192.77Y-81.423
X192.77Y-85.868
X192.77Y-90.313
X192.77Y-94.758
X192.77Y-99.203
X192.77Y-103.648
X193.12Y-110.571
X196.02Y-68.62
X196.02Y-112.62
X196.02Y-124.62
X200.02Y-68.62
X200.02Y-72.62
X200.02Y-76.62
X200.02Y-80.62
X200.02Y-84.62
X200.02Y-88.62
X200.02Y-104.62
X200.02Y-108.62
X200.02Y-112.62
X200.02Y-116.62
X200.02Y-120.62
X204.02Y-68.62
X204.02Y-104.62
X204.02Y-116.62
X204.02Y-124.62
X204.09Y-112.53
X207.56Y-112.56
X207.78Y-116.69
X208.02Y-68.62
X208.02Y-96.62
X208.02Y-100.62
X208.02Y-104.62
X208.02Y-120.62
X208.02Y-124.62
X208.06Y-92.2
X208.08Y-87.84
X208.26Y-83.43
X208.38Y-74.36
X208.42Y-78.71
X211.84Y-120.53
X212.02Y-68.62
X212.02Y-72.62
X212.02Y-96.62
X212.02Y-100.62
X212.02Y-104.62
X212.02Y-108.62
X212.02Y-112.62
X212.02Y-116.62
X212.02Y-124.62
X212.03Y-76.61
X212.03Y-80.61
X212.03Y-84.61
X212.03Y-88.61
X212.03Y-92.61
X215.83Y-93.35
X215.87Y-87.51
X216.02Y-96.62
X216.02Y-108.62
X216.03Y-84.61
X216.04Y-75.32
X216.04Y-99.79
X216.06Y-120.32
X216.09Y-81.43
X216.11Y-111.92
X216.65Y-105.45
X216.85Y-117.3
X220.02Y-68.62
X220.02Y-76.62
X220.02Y-80.62
X220.02Y-84.62
X220.02Y-88.62
X220.02Y-92.62
X220.02Y-96.62
X220.02Y-100.62
X220.02Y-104.62
X220.02Y-108.62
X220.02Y-112.62
X220.02Y-116.62
X220.02Y-120.62
X220.02Y-124.62
X221.18Y-73.99
X222.94Y-96.71
X222.97Y-84.59
X223.03Y-120.6
X223.07Y-108.73
X223.99Y-68.61
X223.99Y-76.61
X223.99Y-80.61
X223.99Y-88.61
X223.99Y-92.61
X223.99Y-100.61
X223.99Y-104.61
X223.99Y-112.61
X223.99Y-116.61
X223.99Y-124.61
X227.99Y-68.61
X227.99Y-76.61
X227.99Y-80.61
X227.99Y-88.61
X227.99Y-92.61
X227.99Y-100.61
X227.99Y-104.61
X227.99Y-112.61
X227.99Y-116.61
X227.99Y-124.61
X229.35Y-72.5
X229.47Y-84.55
X229.51Y-96.71
X229.51Y-108.73
X229.51Y-120.6
X230.2Y-68.57
X230.27Y-124.54
X231.06Y-72.58
X231.06Y-76.58
X231.06Y-80.58
X231.06Y-84.58
X231.06Y-88.58
X231.06Y-92.58
X231.06Y-96.58
X231.06Y-100.58
X231.06Y-104.58
X231.06Y-108.58
X231.06Y-112.58
X231.06Y-116.58
X231.06Y-120.58
T3
X200.7Y-111.151
X200.7Y-123.851
T5
X180.04Y-117.95
X180.04Y-124.45
X184.54Y-117.95
X184.54Y-124.45
T6
X203.42Y-89.496
X205.92Y-89.496
X208.42Y-89.496
X204.86Y-120.981
X204.86Y-123.521
X203.42Y-80.606
X205.92Y-80.606
X208.42Y-80.606
X156.77Y-101.381
X156.77Y-103.921
X203.42Y-85.051
X205.92Y-85.051
X208.42Y-85.051
X180.71Y-69.321
X183.25Y-69.321
X203.42Y-98.386
X205.92Y-98.386
X208.42Y-98.386
X203.365Y-71.716
X205.865Y-71.716
X208.365Y-71.716
X160.14Y-86.731
X160.14Y-89.271
X160.14Y-91.811
X162.68Y-86.731
X162.68Y-89.271
X162.68Y-91.811
X203.42Y-102.831
X205.92Y-102.831
X208.42Y-102.831
X203.42Y-107.276
X205.92Y-107.276
X208.42Y-107.276
X203.42Y-76.161
X205.92Y-76.161
X208.42Y-76.161
X129.83Y-109.841
X129.83Y-112.381
X129.83Y-114.921
X129.83Y-117.461
X129.83Y-120.001
X129.83Y-122.541
X166.46Y-106.13
X169.Y-106.13
X203.42Y-93.941
X205.92Y-93.941
X208.42Y-93.941
X160.06Y-69.151
X162.6Y-69.151
X187.27Y-69.291
X187.27Y-71.831
T7
X217.23Y-78.215
X226.06Y-72.22
X226.06Y-84.305
X217.23Y-90.3
X226.06Y-96.39
X217.23Y-102.385
X217.23Y-114.47
X226.06Y-120.56
X226.06Y-108.475
T2
X135.067Y-69.255G85X135.067Y-68.605
G05
X142.817Y-69.255G85X142.817Y-68.605
G05
T4
X135.217Y-73.005G85X135.217Y-72.455
G05
X142.667Y-73.005G85X142.667Y-72.455
G05
T6
X187.89Y-117.861G85X187.89Y-116.361
G05
X193.04Y-118.111G85X191.74Y-118.111
G05
X193.39Y-124.111G85X191.39Y-124.111
G05
X196.89Y-117.861G85X196.89Y-116.361
G05
T0
M30
