%FSLAX45Y45*%
G04 Gerber Fmt 4.5, Leading zero omitted, Abs format (unit mm)*
G04 Created by KiCad (PCBNEW (5.0.0)) date 10/23/19 21:11:49*
%MOMM*%
%LPD*%
G01*
G04 APERTURE LIST*
%ADD10C,0.150000*%
%ADD11C,0.200000*%
%ADD12C,0.300000*%
G04 APERTURE END LIST*
D10*
X21315000Y-12512000D02*
G75*
G02X21082017Y-12746983I-233983J-1000D01*
G01*
X11851017Y-7095983D02*
G75*
G02X12084000Y-6861000I233983J1000D01*
G01*
X21315000Y-12510000D02*
X21318000Y-7100000D01*
X12084000Y-6861000D02*
X21083000Y-6867000D01*
X21083017Y-6867017D02*
G75*
G02X21318000Y-7100000I1000J-233983D01*
G01*
X21081000Y-12747000D02*
X12088000Y-12740000D01*
X12088983Y-12739983D02*
G75*
G02X11854000Y-12507000I-1000J233983D01*
G01*
X11851000Y-7098000D02*
X11854000Y-12507000D01*
D11*
X19763859Y-12238124D02*
X19843859Y-12318124D01*
X19843859Y-12238124D02*
X19763859Y-12318124D01*
X20263859Y-12238124D02*
X20343859Y-12318124D01*
X20343859Y-12238124D02*
X20263859Y-12318124D01*
X14958000Y-7935000D02*
G75*
G03X14958000Y-7935000I-80000J0D01*
G01*
X12265000Y-7077000D02*
X12265000Y-7397000D01*
X12105000Y-7237000D02*
X12425000Y-7237000D01*
X12265000Y-12203000D02*
X12265000Y-12523000D01*
X12105000Y-12363000D02*
X12425000Y-12363000D01*
X20402000Y-7070000D02*
X20402000Y-7390000D01*
X20242000Y-7230000D02*
X20562000Y-7230000D01*
X20912000Y-12203000D02*
X20912000Y-12523000D01*
X20752000Y-12363000D02*
X21072000Y-12363000D01*
D12*
X12129928Y-13220214D02*
X12129928Y-12920214D01*
X12201357Y-12920214D01*
X12244214Y-12934500D01*
X12272786Y-12963071D01*
X12287071Y-12991643D01*
X12301357Y-13048786D01*
X12301357Y-13091643D01*
X12287071Y-13148786D01*
X12272786Y-13177357D01*
X12244214Y-13205929D01*
X12201357Y-13220214D01*
X12129928Y-13220214D01*
X12429928Y-13220214D02*
X12429928Y-13020214D01*
X12429928Y-13077357D02*
X12444214Y-13048786D01*
X12458500Y-13034500D01*
X12487071Y-13020214D01*
X12515643Y-13020214D01*
X12615643Y-13220214D02*
X12615643Y-13020214D01*
X12615643Y-12920214D02*
X12601357Y-12934500D01*
X12615643Y-12948786D01*
X12629928Y-12934500D01*
X12615643Y-12920214D01*
X12615643Y-12948786D01*
X12801357Y-13220214D02*
X12772786Y-13205929D01*
X12758500Y-13177357D01*
X12758500Y-12920214D01*
X12958500Y-13220214D02*
X12929928Y-13205929D01*
X12915643Y-13177357D01*
X12915643Y-12920214D01*
X13301357Y-13220214D02*
X13301357Y-12920214D01*
X13401357Y-13134500D01*
X13501357Y-12920214D01*
X13501357Y-13220214D01*
X13772786Y-13220214D02*
X13772786Y-13063071D01*
X13758500Y-13034500D01*
X13729928Y-13020214D01*
X13672786Y-13020214D01*
X13644214Y-13034500D01*
X13772786Y-13205929D02*
X13744214Y-13220214D01*
X13672786Y-13220214D01*
X13644214Y-13205929D01*
X13629928Y-13177357D01*
X13629928Y-13148786D01*
X13644214Y-13120214D01*
X13672786Y-13105929D01*
X13744214Y-13105929D01*
X13772786Y-13091643D01*
X13915643Y-13020214D02*
X13915643Y-13320214D01*
X13915643Y-13034500D02*
X13944214Y-13020214D01*
X14001357Y-13020214D01*
X14029928Y-13034500D01*
X14044214Y-13048786D01*
X14058500Y-13077357D01*
X14058500Y-13163071D01*
X14044214Y-13191643D01*
X14029928Y-13205929D01*
X14001357Y-13220214D01*
X13944214Y-13220214D01*
X13915643Y-13205929D01*
X14187071Y-13191643D02*
X14201357Y-13205929D01*
X14187071Y-13220214D01*
X14172786Y-13205929D01*
X14187071Y-13191643D01*
X14187071Y-13220214D01*
X14187071Y-13034500D02*
X14201357Y-13048786D01*
X14187071Y-13063071D01*
X14172786Y-13048786D01*
X14187071Y-13034500D01*
X14187071Y-13063071D01*
X11763500Y-13674500D02*
X11843500Y-13754500D01*
X11843500Y-13674500D02*
X11763500Y-13754500D01*
X12187071Y-13550214D02*
X12215643Y-13550214D01*
X12244214Y-13564500D01*
X12258500Y-13578786D01*
X12272786Y-13607357D01*
X12287071Y-13664500D01*
X12287071Y-13735929D01*
X12272786Y-13793071D01*
X12258500Y-13821643D01*
X12244214Y-13835929D01*
X12215643Y-13850214D01*
X12187071Y-13850214D01*
X12158500Y-13835929D01*
X12144214Y-13821643D01*
X12129928Y-13793071D01*
X12115643Y-13735929D01*
X12115643Y-13664500D01*
X12129928Y-13607357D01*
X12144214Y-13578786D01*
X12158500Y-13564500D01*
X12187071Y-13550214D01*
X12415643Y-13821643D02*
X12429928Y-13835929D01*
X12415643Y-13850214D01*
X12401357Y-13835929D01*
X12415643Y-13821643D01*
X12415643Y-13850214D01*
X12601357Y-13678786D02*
X12572786Y-13664500D01*
X12558500Y-13650214D01*
X12544214Y-13621643D01*
X12544214Y-13607357D01*
X12558500Y-13578786D01*
X12572786Y-13564500D01*
X12601357Y-13550214D01*
X12658500Y-13550214D01*
X12687071Y-13564500D01*
X12701357Y-13578786D01*
X12715643Y-13607357D01*
X12715643Y-13621643D01*
X12701357Y-13650214D01*
X12687071Y-13664500D01*
X12658500Y-13678786D01*
X12601357Y-13678786D01*
X12572786Y-13693071D01*
X12558500Y-13707357D01*
X12544214Y-13735929D01*
X12544214Y-13793071D01*
X12558500Y-13821643D01*
X12572786Y-13835929D01*
X12601357Y-13850214D01*
X12658500Y-13850214D01*
X12687071Y-13835929D01*
X12701357Y-13821643D01*
X12715643Y-13793071D01*
X12715643Y-13735929D01*
X12701357Y-13707357D01*
X12687071Y-13693071D01*
X12658500Y-13678786D01*
X12901357Y-13550214D02*
X12929928Y-13550214D01*
X12958500Y-13564500D01*
X12972786Y-13578786D01*
X12987071Y-13607357D01*
X13001357Y-13664500D01*
X13001357Y-13735929D01*
X12987071Y-13793071D01*
X12972786Y-13821643D01*
X12958500Y-13835929D01*
X12929928Y-13850214D01*
X12901357Y-13850214D01*
X12872786Y-13835929D01*
X12858500Y-13821643D01*
X12844214Y-13793071D01*
X12829928Y-13735929D01*
X12829928Y-13664500D01*
X12844214Y-13607357D01*
X12858500Y-13578786D01*
X12872786Y-13564500D01*
X12901357Y-13550214D01*
X13129928Y-13850214D02*
X13129928Y-13650214D01*
X13129928Y-13678786D02*
X13144214Y-13664500D01*
X13172786Y-13650214D01*
X13215643Y-13650214D01*
X13244214Y-13664500D01*
X13258500Y-13693071D01*
X13258500Y-13850214D01*
X13258500Y-13693071D02*
X13272786Y-13664500D01*
X13301357Y-13650214D01*
X13344214Y-13650214D01*
X13372786Y-13664500D01*
X13387071Y-13693071D01*
X13387071Y-13850214D01*
X13529928Y-13850214D02*
X13529928Y-13650214D01*
X13529928Y-13678786D02*
X13544214Y-13664500D01*
X13572786Y-13650214D01*
X13615643Y-13650214D01*
X13644214Y-13664500D01*
X13658500Y-13693071D01*
X13658500Y-13850214D01*
X13658500Y-13693071D02*
X13672786Y-13664500D01*
X13701357Y-13650214D01*
X13744214Y-13650214D01*
X13772786Y-13664500D01*
X13787071Y-13693071D01*
X13787071Y-13850214D01*
X14372786Y-13535929D02*
X14115643Y-13921643D01*
X14758500Y-13550214D02*
X14787071Y-13550214D01*
X14815643Y-13564500D01*
X14829928Y-13578786D01*
X14844214Y-13607357D01*
X14858500Y-13664500D01*
X14858500Y-13735929D01*
X14844214Y-13793071D01*
X14829928Y-13821643D01*
X14815643Y-13835929D01*
X14787071Y-13850214D01*
X14758500Y-13850214D01*
X14729928Y-13835929D01*
X14715643Y-13821643D01*
X14701357Y-13793071D01*
X14687071Y-13735929D01*
X14687071Y-13664500D01*
X14701357Y-13607357D01*
X14715643Y-13578786D01*
X14729928Y-13564500D01*
X14758500Y-13550214D01*
X14987071Y-13821643D02*
X15001357Y-13835929D01*
X14987071Y-13850214D01*
X14972786Y-13835929D01*
X14987071Y-13821643D01*
X14987071Y-13850214D01*
X15187071Y-13550214D02*
X15215643Y-13550214D01*
X15244214Y-13564500D01*
X15258500Y-13578786D01*
X15272786Y-13607357D01*
X15287071Y-13664500D01*
X15287071Y-13735929D01*
X15272786Y-13793071D01*
X15258500Y-13821643D01*
X15244214Y-13835929D01*
X15215643Y-13850214D01*
X15187071Y-13850214D01*
X15158500Y-13835929D01*
X15144214Y-13821643D01*
X15129928Y-13793071D01*
X15115643Y-13735929D01*
X15115643Y-13664500D01*
X15129928Y-13607357D01*
X15144214Y-13578786D01*
X15158500Y-13564500D01*
X15187071Y-13550214D01*
X15387071Y-13550214D02*
X15572786Y-13550214D01*
X15472786Y-13664500D01*
X15515643Y-13664500D01*
X15544214Y-13678786D01*
X15558500Y-13693071D01*
X15572786Y-13721643D01*
X15572786Y-13793071D01*
X15558500Y-13821643D01*
X15544214Y-13835929D01*
X15515643Y-13850214D01*
X15429928Y-13850214D01*
X15401357Y-13835929D01*
X15387071Y-13821643D01*
X15858500Y-13850214D02*
X15687071Y-13850214D01*
X15772786Y-13850214D02*
X15772786Y-13550214D01*
X15744214Y-13593071D01*
X15715643Y-13621643D01*
X15687071Y-13635929D01*
X15972786Y-13550214D02*
X15972786Y-13607357D01*
X16087071Y-13550214D02*
X16087071Y-13607357D01*
X16529928Y-13964500D02*
X16515643Y-13950214D01*
X16487071Y-13907357D01*
X16472786Y-13878786D01*
X16458500Y-13835929D01*
X16444214Y-13764500D01*
X16444214Y-13707357D01*
X16458500Y-13635929D01*
X16472786Y-13593071D01*
X16487071Y-13564500D01*
X16515643Y-13521643D01*
X16529928Y-13507357D01*
X16629928Y-13578786D02*
X16644214Y-13564500D01*
X16672786Y-13550214D01*
X16744214Y-13550214D01*
X16772786Y-13564500D01*
X16787071Y-13578786D01*
X16801357Y-13607357D01*
X16801357Y-13635929D01*
X16787071Y-13678786D01*
X16615643Y-13850214D01*
X16801357Y-13850214D01*
X17158500Y-13850214D02*
X17158500Y-13550214D01*
X17287071Y-13850214D02*
X17287071Y-13693071D01*
X17272786Y-13664500D01*
X17244214Y-13650214D01*
X17201357Y-13650214D01*
X17172786Y-13664500D01*
X17158500Y-13678786D01*
X17472786Y-13850214D02*
X17444214Y-13835929D01*
X17429928Y-13821643D01*
X17415643Y-13793071D01*
X17415643Y-13707357D01*
X17429928Y-13678786D01*
X17444214Y-13664500D01*
X17472786Y-13650214D01*
X17515643Y-13650214D01*
X17544214Y-13664500D01*
X17558500Y-13678786D01*
X17572786Y-13707357D01*
X17572786Y-13793071D01*
X17558500Y-13821643D01*
X17544214Y-13835929D01*
X17515643Y-13850214D01*
X17472786Y-13850214D01*
X17744214Y-13850214D02*
X17715643Y-13835929D01*
X17701357Y-13807357D01*
X17701357Y-13550214D01*
X17972786Y-13835929D02*
X17944214Y-13850214D01*
X17887071Y-13850214D01*
X17858500Y-13835929D01*
X17844214Y-13807357D01*
X17844214Y-13693071D01*
X17858500Y-13664500D01*
X17887071Y-13650214D01*
X17944214Y-13650214D01*
X17972786Y-13664500D01*
X17987071Y-13693071D01*
X17987071Y-13721643D01*
X17844214Y-13750214D01*
X18101357Y-13835929D02*
X18129928Y-13850214D01*
X18187071Y-13850214D01*
X18215643Y-13835929D01*
X18229928Y-13807357D01*
X18229928Y-13793071D01*
X18215643Y-13764500D01*
X18187071Y-13750214D01*
X18144214Y-13750214D01*
X18115643Y-13735929D01*
X18101357Y-13707357D01*
X18101357Y-13693071D01*
X18115643Y-13664500D01*
X18144214Y-13650214D01*
X18187071Y-13650214D01*
X18215643Y-13664500D01*
X18329928Y-13964500D02*
X18344214Y-13950214D01*
X18372786Y-13907357D01*
X18387071Y-13878786D01*
X18401357Y-13835929D01*
X18415643Y-13764500D01*
X18415643Y-13707357D01*
X18401357Y-13635929D01*
X18387071Y-13593071D01*
X18372786Y-13564500D01*
X18344214Y-13521643D01*
X18329928Y-13507357D01*
X18872786Y-13964500D02*
X18858500Y-13950214D01*
X18829928Y-13907357D01*
X18815643Y-13878786D01*
X18801357Y-13835929D01*
X18787071Y-13764500D01*
X18787071Y-13707357D01*
X18801357Y-13635929D01*
X18815643Y-13593071D01*
X18829928Y-13564500D01*
X18858500Y-13521643D01*
X18872786Y-13507357D01*
X18987071Y-13650214D02*
X18987071Y-13850214D01*
X18987071Y-13678786D02*
X19001357Y-13664500D01*
X19029928Y-13650214D01*
X19072786Y-13650214D01*
X19101357Y-13664500D01*
X19115643Y-13693071D01*
X19115643Y-13850214D01*
X19301357Y-13850214D02*
X19272786Y-13835929D01*
X19258500Y-13821643D01*
X19244214Y-13793071D01*
X19244214Y-13707357D01*
X19258500Y-13678786D01*
X19272786Y-13664500D01*
X19301357Y-13650214D01*
X19344214Y-13650214D01*
X19372786Y-13664500D01*
X19387071Y-13678786D01*
X19401357Y-13707357D01*
X19401357Y-13793071D01*
X19387071Y-13821643D01*
X19372786Y-13835929D01*
X19344214Y-13850214D01*
X19301357Y-13850214D01*
X19487071Y-13650214D02*
X19601357Y-13650214D01*
X19529928Y-13550214D02*
X19529928Y-13807357D01*
X19544214Y-13835929D01*
X19572786Y-13850214D01*
X19601357Y-13850214D01*
X19929928Y-13650214D02*
X19929928Y-13950214D01*
X19929928Y-13664500D02*
X19958500Y-13650214D01*
X20015643Y-13650214D01*
X20044214Y-13664500D01*
X20058500Y-13678786D01*
X20072786Y-13707357D01*
X20072786Y-13793071D01*
X20058500Y-13821643D01*
X20044214Y-13835929D01*
X20015643Y-13850214D01*
X19958500Y-13850214D01*
X19929928Y-13835929D01*
X20244214Y-13850214D02*
X20215643Y-13835929D01*
X20201357Y-13807357D01*
X20201357Y-13550214D01*
X20487071Y-13850214D02*
X20487071Y-13693071D01*
X20472786Y-13664500D01*
X20444214Y-13650214D01*
X20387071Y-13650214D01*
X20358500Y-13664500D01*
X20487071Y-13835929D02*
X20458500Y-13850214D01*
X20387071Y-13850214D01*
X20358500Y-13835929D01*
X20344214Y-13807357D01*
X20344214Y-13778786D01*
X20358500Y-13750214D01*
X20387071Y-13735929D01*
X20458500Y-13735929D01*
X20487071Y-13721643D01*
X20587071Y-13650214D02*
X20701357Y-13650214D01*
X20629928Y-13550214D02*
X20629928Y-13807357D01*
X20644214Y-13835929D01*
X20672786Y-13850214D01*
X20701357Y-13850214D01*
X20915643Y-13835929D02*
X20887071Y-13850214D01*
X20829928Y-13850214D01*
X20801357Y-13835929D01*
X20787071Y-13807357D01*
X20787071Y-13693071D01*
X20801357Y-13664500D01*
X20829928Y-13650214D01*
X20887071Y-13650214D01*
X20915643Y-13664500D01*
X20929928Y-13693071D01*
X20929928Y-13721643D01*
X20787071Y-13750214D01*
X21187071Y-13850214D02*
X21187071Y-13550214D01*
X21187071Y-13835929D02*
X21158500Y-13850214D01*
X21101357Y-13850214D01*
X21072786Y-13835929D01*
X21058500Y-13821643D01*
X21044214Y-13793071D01*
X21044214Y-13707357D01*
X21058500Y-13678786D01*
X21072786Y-13664500D01*
X21101357Y-13650214D01*
X21158500Y-13650214D01*
X21187071Y-13664500D01*
X21301357Y-13964500D02*
X21315643Y-13950214D01*
X21344214Y-13907357D01*
X21358500Y-13878786D01*
X21372786Y-13835929D01*
X21387071Y-13764500D01*
X21387071Y-13707357D01*
X21372786Y-13635929D01*
X21358500Y-13593071D01*
X21344214Y-13564500D01*
X21315643Y-13521643D01*
X21301357Y-13507357D01*
X11843500Y-14110500D02*
G75*
G03X11843500Y-14110500I-80000J0D01*
G01*
X12287071Y-14246214D02*
X12115643Y-14246214D01*
X12201357Y-14246214D02*
X12201357Y-13946214D01*
X12172786Y-13989071D01*
X12144214Y-14017643D01*
X12115643Y-14031929D01*
X12415643Y-14217643D02*
X12429928Y-14231929D01*
X12415643Y-14246214D01*
X12401357Y-14231929D01*
X12415643Y-14217643D01*
X12415643Y-14246214D01*
X12687071Y-13946214D02*
X12629928Y-13946214D01*
X12601357Y-13960500D01*
X12587071Y-13974786D01*
X12558500Y-14017643D01*
X12544214Y-14074786D01*
X12544214Y-14189071D01*
X12558500Y-14217643D01*
X12572786Y-14231929D01*
X12601357Y-14246214D01*
X12658500Y-14246214D01*
X12687071Y-14231929D01*
X12701357Y-14217643D01*
X12715643Y-14189071D01*
X12715643Y-14117643D01*
X12701357Y-14089071D01*
X12687071Y-14074786D01*
X12658500Y-14060500D01*
X12601357Y-14060500D01*
X12572786Y-14074786D01*
X12558500Y-14089071D01*
X12544214Y-14117643D01*
X12901357Y-13946214D02*
X12929928Y-13946214D01*
X12958500Y-13960500D01*
X12972786Y-13974786D01*
X12987071Y-14003357D01*
X13001357Y-14060500D01*
X13001357Y-14131929D01*
X12987071Y-14189071D01*
X12972786Y-14217643D01*
X12958500Y-14231929D01*
X12929928Y-14246214D01*
X12901357Y-14246214D01*
X12872786Y-14231929D01*
X12858500Y-14217643D01*
X12844214Y-14189071D01*
X12829928Y-14131929D01*
X12829928Y-14060500D01*
X12844214Y-14003357D01*
X12858500Y-13974786D01*
X12872786Y-13960500D01*
X12901357Y-13946214D01*
X13129928Y-14246214D02*
X13129928Y-14046214D01*
X13129928Y-14074786D02*
X13144214Y-14060500D01*
X13172786Y-14046214D01*
X13215643Y-14046214D01*
X13244214Y-14060500D01*
X13258500Y-14089071D01*
X13258500Y-14246214D01*
X13258500Y-14089071D02*
X13272786Y-14060500D01*
X13301357Y-14046214D01*
X13344214Y-14046214D01*
X13372786Y-14060500D01*
X13387071Y-14089071D01*
X13387071Y-14246214D01*
X13529928Y-14246214D02*
X13529928Y-14046214D01*
X13529928Y-14074786D02*
X13544214Y-14060500D01*
X13572786Y-14046214D01*
X13615643Y-14046214D01*
X13644214Y-14060500D01*
X13658500Y-14089071D01*
X13658500Y-14246214D01*
X13658500Y-14089071D02*
X13672786Y-14060500D01*
X13701357Y-14046214D01*
X13744214Y-14046214D01*
X13772786Y-14060500D01*
X13787071Y-14089071D01*
X13787071Y-14246214D01*
X14372786Y-13931929D02*
X14115643Y-14317643D01*
X14758500Y-13946214D02*
X14787071Y-13946214D01*
X14815643Y-13960500D01*
X14829928Y-13974786D01*
X14844214Y-14003357D01*
X14858500Y-14060500D01*
X14858500Y-14131929D01*
X14844214Y-14189071D01*
X14829928Y-14217643D01*
X14815643Y-14231929D01*
X14787071Y-14246214D01*
X14758500Y-14246214D01*
X14729928Y-14231929D01*
X14715643Y-14217643D01*
X14701357Y-14189071D01*
X14687071Y-14131929D01*
X14687071Y-14060500D01*
X14701357Y-14003357D01*
X14715643Y-13974786D01*
X14729928Y-13960500D01*
X14758500Y-13946214D01*
X14987071Y-14217643D02*
X15001357Y-14231929D01*
X14987071Y-14246214D01*
X14972786Y-14231929D01*
X14987071Y-14217643D01*
X14987071Y-14246214D01*
X15187071Y-13946214D02*
X15215643Y-13946214D01*
X15244214Y-13960500D01*
X15258500Y-13974786D01*
X15272786Y-14003357D01*
X15287071Y-14060500D01*
X15287071Y-14131929D01*
X15272786Y-14189071D01*
X15258500Y-14217643D01*
X15244214Y-14231929D01*
X15215643Y-14246214D01*
X15187071Y-14246214D01*
X15158500Y-14231929D01*
X15144214Y-14217643D01*
X15129928Y-14189071D01*
X15115643Y-14131929D01*
X15115643Y-14060500D01*
X15129928Y-14003357D01*
X15144214Y-13974786D01*
X15158500Y-13960500D01*
X15187071Y-13946214D01*
X15544214Y-13946214D02*
X15487071Y-13946214D01*
X15458500Y-13960500D01*
X15444214Y-13974786D01*
X15415643Y-14017643D01*
X15401357Y-14074786D01*
X15401357Y-14189071D01*
X15415643Y-14217643D01*
X15429928Y-14231929D01*
X15458500Y-14246214D01*
X15515643Y-14246214D01*
X15544214Y-14231929D01*
X15558500Y-14217643D01*
X15572786Y-14189071D01*
X15572786Y-14117643D01*
X15558500Y-14089071D01*
X15544214Y-14074786D01*
X15515643Y-14060500D01*
X15458500Y-14060500D01*
X15429928Y-14074786D01*
X15415643Y-14089071D01*
X15401357Y-14117643D01*
X15672786Y-13946214D02*
X15858500Y-13946214D01*
X15758500Y-14060500D01*
X15801357Y-14060500D01*
X15829928Y-14074786D01*
X15844214Y-14089071D01*
X15858500Y-14117643D01*
X15858500Y-14189071D01*
X15844214Y-14217643D01*
X15829928Y-14231929D01*
X15801357Y-14246214D01*
X15715643Y-14246214D01*
X15687071Y-14231929D01*
X15672786Y-14217643D01*
X15972786Y-13946214D02*
X15972786Y-14003357D01*
X16087071Y-13946214D02*
X16087071Y-14003357D01*
X16529928Y-14360500D02*
X16515643Y-14346214D01*
X16487071Y-14303357D01*
X16472786Y-14274786D01*
X16458500Y-14231929D01*
X16444214Y-14160500D01*
X16444214Y-14103357D01*
X16458500Y-14031929D01*
X16472786Y-13989071D01*
X16487071Y-13960500D01*
X16515643Y-13917643D01*
X16529928Y-13903357D01*
X16801357Y-14246214D02*
X16629928Y-14246214D01*
X16715643Y-14246214D02*
X16715643Y-13946214D01*
X16687071Y-13989071D01*
X16658500Y-14017643D01*
X16629928Y-14031929D01*
X17158500Y-14246214D02*
X17158500Y-13946214D01*
X17287071Y-14246214D02*
X17287071Y-14089071D01*
X17272786Y-14060500D01*
X17244214Y-14046214D01*
X17201357Y-14046214D01*
X17172786Y-14060500D01*
X17158500Y-14074786D01*
X17472786Y-14246214D02*
X17444214Y-14231929D01*
X17429928Y-14217643D01*
X17415643Y-14189071D01*
X17415643Y-14103357D01*
X17429928Y-14074786D01*
X17444214Y-14060500D01*
X17472786Y-14046214D01*
X17515643Y-14046214D01*
X17544214Y-14060500D01*
X17558500Y-14074786D01*
X17572786Y-14103357D01*
X17572786Y-14189071D01*
X17558500Y-14217643D01*
X17544214Y-14231929D01*
X17515643Y-14246214D01*
X17472786Y-14246214D01*
X17744214Y-14246214D02*
X17715643Y-14231929D01*
X17701357Y-14203357D01*
X17701357Y-13946214D01*
X17972786Y-14231929D02*
X17944214Y-14246214D01*
X17887071Y-14246214D01*
X17858500Y-14231929D01*
X17844214Y-14203357D01*
X17844214Y-14089071D01*
X17858500Y-14060500D01*
X17887071Y-14046214D01*
X17944214Y-14046214D01*
X17972786Y-14060500D01*
X17987071Y-14089071D01*
X17987071Y-14117643D01*
X17844214Y-14146214D01*
X18087071Y-14360500D02*
X18101357Y-14346214D01*
X18129928Y-14303357D01*
X18144214Y-14274786D01*
X18158500Y-14231929D01*
X18172786Y-14160500D01*
X18172786Y-14103357D01*
X18158500Y-14031929D01*
X18144214Y-13989071D01*
X18129928Y-13960500D01*
X18101357Y-13917643D01*
X18087071Y-13903357D01*
X18629928Y-14360500D02*
X18615643Y-14346214D01*
X18587071Y-14303357D01*
X18572786Y-14274786D01*
X18558500Y-14231929D01*
X18544214Y-14160500D01*
X18544214Y-14103357D01*
X18558500Y-14031929D01*
X18572786Y-13989071D01*
X18587071Y-13960500D01*
X18615643Y-13917643D01*
X18629928Y-13903357D01*
X18744214Y-14046214D02*
X18744214Y-14246214D01*
X18744214Y-14074786D02*
X18758500Y-14060500D01*
X18787071Y-14046214D01*
X18829928Y-14046214D01*
X18858500Y-14060500D01*
X18872786Y-14089071D01*
X18872786Y-14246214D01*
X19058500Y-14246214D02*
X19029928Y-14231929D01*
X19015643Y-14217643D01*
X19001357Y-14189071D01*
X19001357Y-14103357D01*
X19015643Y-14074786D01*
X19029928Y-14060500D01*
X19058500Y-14046214D01*
X19101357Y-14046214D01*
X19129928Y-14060500D01*
X19144214Y-14074786D01*
X19158500Y-14103357D01*
X19158500Y-14189071D01*
X19144214Y-14217643D01*
X19129928Y-14231929D01*
X19101357Y-14246214D01*
X19058500Y-14246214D01*
X19244214Y-14046214D02*
X19358500Y-14046214D01*
X19287071Y-13946214D02*
X19287071Y-14203357D01*
X19301357Y-14231929D01*
X19329928Y-14246214D01*
X19358500Y-14246214D01*
X19687071Y-14046214D02*
X19687071Y-14346214D01*
X19687071Y-14060500D02*
X19715643Y-14046214D01*
X19772786Y-14046214D01*
X19801357Y-14060500D01*
X19815643Y-14074786D01*
X19829928Y-14103357D01*
X19829928Y-14189071D01*
X19815643Y-14217643D01*
X19801357Y-14231929D01*
X19772786Y-14246214D01*
X19715643Y-14246214D01*
X19687071Y-14231929D01*
X20001357Y-14246214D02*
X19972786Y-14231929D01*
X19958500Y-14203357D01*
X19958500Y-13946214D01*
X20244214Y-14246214D02*
X20244214Y-14089071D01*
X20229928Y-14060500D01*
X20201357Y-14046214D01*
X20144214Y-14046214D01*
X20115643Y-14060500D01*
X20244214Y-14231929D02*
X20215643Y-14246214D01*
X20144214Y-14246214D01*
X20115643Y-14231929D01*
X20101357Y-14203357D01*
X20101357Y-14174786D01*
X20115643Y-14146214D01*
X20144214Y-14131929D01*
X20215643Y-14131929D01*
X20244214Y-14117643D01*
X20344214Y-14046214D02*
X20458500Y-14046214D01*
X20387071Y-13946214D02*
X20387071Y-14203357D01*
X20401357Y-14231929D01*
X20429928Y-14246214D01*
X20458500Y-14246214D01*
X20672786Y-14231929D02*
X20644214Y-14246214D01*
X20587071Y-14246214D01*
X20558500Y-14231929D01*
X20544214Y-14203357D01*
X20544214Y-14089071D01*
X20558500Y-14060500D01*
X20587071Y-14046214D01*
X20644214Y-14046214D01*
X20672786Y-14060500D01*
X20687071Y-14089071D01*
X20687071Y-14117643D01*
X20544214Y-14146214D01*
X20944214Y-14246214D02*
X20944214Y-13946214D01*
X20944214Y-14231929D02*
X20915643Y-14246214D01*
X20858500Y-14246214D01*
X20829928Y-14231929D01*
X20815643Y-14217643D01*
X20801357Y-14189071D01*
X20801357Y-14103357D01*
X20815643Y-14074786D01*
X20829928Y-14060500D01*
X20858500Y-14046214D01*
X20915643Y-14046214D01*
X20944214Y-14060500D01*
X21058500Y-14360500D02*
X21072786Y-14346214D01*
X21101357Y-14303357D01*
X21115643Y-14274786D01*
X21129928Y-14231929D01*
X21144214Y-14160500D01*
X21144214Y-14103357D01*
X21129928Y-14031929D01*
X21115643Y-13989071D01*
X21101357Y-13960500D01*
X21072786Y-13917643D01*
X21058500Y-13903357D01*
X11683500Y-14346500D02*
X11683500Y-14666500D01*
X11523500Y-14506500D02*
X11843500Y-14506500D01*
X12101357Y-14342214D02*
X12287071Y-14342214D01*
X12187071Y-14456500D01*
X12229928Y-14456500D01*
X12258500Y-14470786D01*
X12272786Y-14485071D01*
X12287071Y-14513643D01*
X12287071Y-14585071D01*
X12272786Y-14613643D01*
X12258500Y-14627929D01*
X12229928Y-14642214D01*
X12144214Y-14642214D01*
X12115643Y-14627929D01*
X12101357Y-14613643D01*
X12415643Y-14613643D02*
X12429928Y-14627929D01*
X12415643Y-14642214D01*
X12401357Y-14627929D01*
X12415643Y-14613643D01*
X12415643Y-14642214D01*
X12544214Y-14370786D02*
X12558500Y-14356500D01*
X12587071Y-14342214D01*
X12658500Y-14342214D01*
X12687071Y-14356500D01*
X12701357Y-14370786D01*
X12715643Y-14399357D01*
X12715643Y-14427929D01*
X12701357Y-14470786D01*
X12529928Y-14642214D01*
X12715643Y-14642214D01*
X12901357Y-14342214D02*
X12929928Y-14342214D01*
X12958500Y-14356500D01*
X12972786Y-14370786D01*
X12987071Y-14399357D01*
X13001357Y-14456500D01*
X13001357Y-14527929D01*
X12987071Y-14585071D01*
X12972786Y-14613643D01*
X12958500Y-14627929D01*
X12929928Y-14642214D01*
X12901357Y-14642214D01*
X12872786Y-14627929D01*
X12858500Y-14613643D01*
X12844214Y-14585071D01*
X12829928Y-14527929D01*
X12829928Y-14456500D01*
X12844214Y-14399357D01*
X12858500Y-14370786D01*
X12872786Y-14356500D01*
X12901357Y-14342214D01*
X13129928Y-14642214D02*
X13129928Y-14442214D01*
X13129928Y-14470786D02*
X13144214Y-14456500D01*
X13172786Y-14442214D01*
X13215643Y-14442214D01*
X13244214Y-14456500D01*
X13258500Y-14485071D01*
X13258500Y-14642214D01*
X13258500Y-14485071D02*
X13272786Y-14456500D01*
X13301357Y-14442214D01*
X13344214Y-14442214D01*
X13372786Y-14456500D01*
X13387071Y-14485071D01*
X13387071Y-14642214D01*
X13529928Y-14642214D02*
X13529928Y-14442214D01*
X13529928Y-14470786D02*
X13544214Y-14456500D01*
X13572786Y-14442214D01*
X13615643Y-14442214D01*
X13644214Y-14456500D01*
X13658500Y-14485071D01*
X13658500Y-14642214D01*
X13658500Y-14485071D02*
X13672786Y-14456500D01*
X13701357Y-14442214D01*
X13744214Y-14442214D01*
X13772786Y-14456500D01*
X13787071Y-14485071D01*
X13787071Y-14642214D01*
X14372786Y-14327929D02*
X14115643Y-14713643D01*
X14758500Y-14342214D02*
X14787071Y-14342214D01*
X14815643Y-14356500D01*
X14829928Y-14370786D01*
X14844214Y-14399357D01*
X14858500Y-14456500D01*
X14858500Y-14527929D01*
X14844214Y-14585071D01*
X14829928Y-14613643D01*
X14815643Y-14627929D01*
X14787071Y-14642214D01*
X14758500Y-14642214D01*
X14729928Y-14627929D01*
X14715643Y-14613643D01*
X14701357Y-14585071D01*
X14687071Y-14527929D01*
X14687071Y-14456500D01*
X14701357Y-14399357D01*
X14715643Y-14370786D01*
X14729928Y-14356500D01*
X14758500Y-14342214D01*
X14987071Y-14613643D02*
X15001357Y-14627929D01*
X14987071Y-14642214D01*
X14972786Y-14627929D01*
X14987071Y-14613643D01*
X14987071Y-14642214D01*
X15287071Y-14642214D02*
X15115643Y-14642214D01*
X15201357Y-14642214D02*
X15201357Y-14342214D01*
X15172786Y-14385071D01*
X15144214Y-14413643D01*
X15115643Y-14427929D01*
X15401357Y-14370786D02*
X15415643Y-14356500D01*
X15444214Y-14342214D01*
X15515643Y-14342214D01*
X15544214Y-14356500D01*
X15558500Y-14370786D01*
X15572786Y-14399357D01*
X15572786Y-14427929D01*
X15558500Y-14470786D01*
X15387071Y-14642214D01*
X15572786Y-14642214D01*
X15829928Y-14342214D02*
X15772786Y-14342214D01*
X15744214Y-14356500D01*
X15729928Y-14370786D01*
X15701357Y-14413643D01*
X15687071Y-14470786D01*
X15687071Y-14585071D01*
X15701357Y-14613643D01*
X15715643Y-14627929D01*
X15744214Y-14642214D01*
X15801357Y-14642214D01*
X15829928Y-14627929D01*
X15844214Y-14613643D01*
X15858500Y-14585071D01*
X15858500Y-14513643D01*
X15844214Y-14485071D01*
X15829928Y-14470786D01*
X15801357Y-14456500D01*
X15744214Y-14456500D01*
X15715643Y-14470786D01*
X15701357Y-14485071D01*
X15687071Y-14513643D01*
X15972786Y-14342214D02*
X15972786Y-14399357D01*
X16087071Y-14342214D02*
X16087071Y-14399357D01*
X16529928Y-14756500D02*
X16515643Y-14742214D01*
X16487071Y-14699357D01*
X16472786Y-14670786D01*
X16458500Y-14627929D01*
X16444214Y-14556500D01*
X16444214Y-14499357D01*
X16458500Y-14427929D01*
X16472786Y-14385071D01*
X16487071Y-14356500D01*
X16515643Y-14313643D01*
X16529928Y-14299357D01*
X16772786Y-14442214D02*
X16772786Y-14642214D01*
X16701357Y-14327929D02*
X16629928Y-14542214D01*
X16815643Y-14542214D01*
X17158500Y-14642214D02*
X17158500Y-14342214D01*
X17287071Y-14642214D02*
X17287071Y-14485071D01*
X17272786Y-14456500D01*
X17244214Y-14442214D01*
X17201357Y-14442214D01*
X17172786Y-14456500D01*
X17158500Y-14470786D01*
X17472786Y-14642214D02*
X17444214Y-14627929D01*
X17429928Y-14613643D01*
X17415643Y-14585071D01*
X17415643Y-14499357D01*
X17429928Y-14470786D01*
X17444214Y-14456500D01*
X17472786Y-14442214D01*
X17515643Y-14442214D01*
X17544214Y-14456500D01*
X17558500Y-14470786D01*
X17572786Y-14499357D01*
X17572786Y-14585071D01*
X17558500Y-14613643D01*
X17544214Y-14627929D01*
X17515643Y-14642214D01*
X17472786Y-14642214D01*
X17744214Y-14642214D02*
X17715643Y-14627929D01*
X17701357Y-14599357D01*
X17701357Y-14342214D01*
X17972786Y-14627929D02*
X17944214Y-14642214D01*
X17887071Y-14642214D01*
X17858500Y-14627929D01*
X17844214Y-14599357D01*
X17844214Y-14485071D01*
X17858500Y-14456500D01*
X17887071Y-14442214D01*
X17944214Y-14442214D01*
X17972786Y-14456500D01*
X17987071Y-14485071D01*
X17987071Y-14513643D01*
X17844214Y-14542214D01*
X18101357Y-14627929D02*
X18129928Y-14642214D01*
X18187071Y-14642214D01*
X18215643Y-14627929D01*
X18229928Y-14599357D01*
X18229928Y-14585071D01*
X18215643Y-14556500D01*
X18187071Y-14542214D01*
X18144214Y-14542214D01*
X18115643Y-14527929D01*
X18101357Y-14499357D01*
X18101357Y-14485071D01*
X18115643Y-14456500D01*
X18144214Y-14442214D01*
X18187071Y-14442214D01*
X18215643Y-14456500D01*
X18329928Y-14756500D02*
X18344214Y-14742214D01*
X18372786Y-14699357D01*
X18387071Y-14670786D01*
X18401357Y-14627929D01*
X18415643Y-14556500D01*
X18415643Y-14499357D01*
X18401357Y-14427929D01*
X18387071Y-14385071D01*
X18372786Y-14356500D01*
X18344214Y-14313643D01*
X18329928Y-14299357D01*
X18872786Y-14756500D02*
X18858500Y-14742214D01*
X18829928Y-14699357D01*
X18815643Y-14670786D01*
X18801357Y-14627929D01*
X18787071Y-14556500D01*
X18787071Y-14499357D01*
X18801357Y-14427929D01*
X18815643Y-14385071D01*
X18829928Y-14356500D01*
X18858500Y-14313643D01*
X18872786Y-14299357D01*
X18987071Y-14442214D02*
X18987071Y-14642214D01*
X18987071Y-14470786D02*
X19001357Y-14456500D01*
X19029928Y-14442214D01*
X19072786Y-14442214D01*
X19101357Y-14456500D01*
X19115643Y-14485071D01*
X19115643Y-14642214D01*
X19301357Y-14642214D02*
X19272786Y-14627929D01*
X19258500Y-14613643D01*
X19244214Y-14585071D01*
X19244214Y-14499357D01*
X19258500Y-14470786D01*
X19272786Y-14456500D01*
X19301357Y-14442214D01*
X19344214Y-14442214D01*
X19372786Y-14456500D01*
X19387071Y-14470786D01*
X19401357Y-14499357D01*
X19401357Y-14585071D01*
X19387071Y-14613643D01*
X19372786Y-14627929D01*
X19344214Y-14642214D01*
X19301357Y-14642214D01*
X19487071Y-14442214D02*
X19601357Y-14442214D01*
X19529928Y-14342214D02*
X19529928Y-14599357D01*
X19544214Y-14627929D01*
X19572786Y-14642214D01*
X19601357Y-14642214D01*
X19929928Y-14442214D02*
X19929928Y-14742214D01*
X19929928Y-14456500D02*
X19958500Y-14442214D01*
X20015643Y-14442214D01*
X20044214Y-14456500D01*
X20058500Y-14470786D01*
X20072786Y-14499357D01*
X20072786Y-14585071D01*
X20058500Y-14613643D01*
X20044214Y-14627929D01*
X20015643Y-14642214D01*
X19958500Y-14642214D01*
X19929928Y-14627929D01*
X20244214Y-14642214D02*
X20215643Y-14627929D01*
X20201357Y-14599357D01*
X20201357Y-14342214D01*
X20487071Y-14642214D02*
X20487071Y-14485071D01*
X20472786Y-14456500D01*
X20444214Y-14442214D01*
X20387071Y-14442214D01*
X20358500Y-14456500D01*
X20487071Y-14627929D02*
X20458500Y-14642214D01*
X20387071Y-14642214D01*
X20358500Y-14627929D01*
X20344214Y-14599357D01*
X20344214Y-14570786D01*
X20358500Y-14542214D01*
X20387071Y-14527929D01*
X20458500Y-14527929D01*
X20487071Y-14513643D01*
X20587071Y-14442214D02*
X20701357Y-14442214D01*
X20629928Y-14342214D02*
X20629928Y-14599357D01*
X20644214Y-14627929D01*
X20672786Y-14642214D01*
X20701357Y-14642214D01*
X20915643Y-14627929D02*
X20887071Y-14642214D01*
X20829928Y-14642214D01*
X20801357Y-14627929D01*
X20787071Y-14599357D01*
X20787071Y-14485071D01*
X20801357Y-14456500D01*
X20829928Y-14442214D01*
X20887071Y-14442214D01*
X20915643Y-14456500D01*
X20929928Y-14485071D01*
X20929928Y-14513643D01*
X20787071Y-14542214D01*
X21187071Y-14642214D02*
X21187071Y-14342214D01*
X21187071Y-14627929D02*
X21158500Y-14642214D01*
X21101357Y-14642214D01*
X21072786Y-14627929D01*
X21058500Y-14613643D01*
X21044214Y-14585071D01*
X21044214Y-14499357D01*
X21058500Y-14470786D01*
X21072786Y-14456500D01*
X21101357Y-14442214D01*
X21158500Y-14442214D01*
X21187071Y-14456500D01*
X21301357Y-14756500D02*
X21315643Y-14742214D01*
X21344214Y-14699357D01*
X21358500Y-14670786D01*
X21372786Y-14627929D01*
X21387071Y-14556500D01*
X21387071Y-14499357D01*
X21372786Y-14427929D01*
X21358500Y-14385071D01*
X21344214Y-14356500D01*
X21315643Y-14313643D01*
X21301357Y-14299357D01*
M02*
