G04 #@! TF.GenerationSoftware,KiCad,Pcbnew,(5.0.0)*
G04 #@! TF.CreationDate,2020-05-27T21:18:54+10:00*
G04 #@! TF.ProjectId,DAQ Board,44415120426F6172642E6B696361645F,rev?*
G04 #@! TF.SameCoordinates,Original*
G04 #@! TF.FileFunction,Soldermask,Bot*
G04 #@! TF.FilePolarity,Negative*
%FSLAX46Y46*%
G04 Gerber Fmt 4.6, Leading zero omitted, Abs format (unit mm)*
G04 Created by KiCad (PCBNEW (5.0.0)) date 05/27/20 21:18:54*
%MOMM*%
%LPD*%
G01*
G04 APERTURE LIST*
%ADD10R,2.100000X2.100000*%
%ADD11O,2.100000X2.100000*%
%ADD12C,2.400000*%
%ADD13C,2.150000*%
%ADD14C,4.400000*%
%ADD15C,3.600000*%
%ADD16C,2.000000*%
%ADD17O,2.000000X2.000000*%
%ADD18O,1.850000X2.400000*%
%ADD19O,1.550000X2.200000*%
%ADD20O,1.200000X1.200000*%
%ADD21R,4.400000X2.400000*%
%ADD22O,3.700000X2.400000*%
%ADD23O,2.400000X3.900000*%
G04 APERTURE END LIST*
D10*
G04 #@! TO.C,J14*
X187380000Y-69090000D03*
D11*
X189920000Y-69090000D03*
G04 #@! TD*
D12*
G04 #@! TO.C,PB1*
X180100000Y-117090000D03*
X184600000Y-117090000D03*
X184600000Y-123590000D03*
X180100000Y-123590000D03*
G04 #@! TD*
D13*
G04 #@! TO.C,SW10*
X205920428Y-76161482D03*
X208420428Y-76161482D03*
X203420428Y-76161482D03*
G04 #@! TD*
D14*
G04 #@! TO.C,J19*
X226060000Y-72220000D03*
G04 #@! TD*
G04 #@! TO.C,J18*
X217230000Y-78215000D03*
G04 #@! TD*
G04 #@! TO.C,J17*
X226060000Y-84305000D03*
G04 #@! TD*
G04 #@! TO.C,J13*
X217230000Y-90300000D03*
G04 #@! TD*
G04 #@! TO.C,J11*
X226060000Y-96390000D03*
G04 #@! TD*
G04 #@! TO.C,J9*
X217230000Y-102385000D03*
G04 #@! TD*
G04 #@! TO.C,J1*
X226060000Y-120560000D03*
G04 #@! TD*
G04 #@! TO.C,J3*
X217230000Y-114470000D03*
G04 #@! TD*
G04 #@! TO.C,J8*
X226060000Y-108475000D03*
G04 #@! TD*
D11*
G04 #@! TO.C,J5*
X129830428Y-109841482D03*
X129830428Y-112381482D03*
X129830428Y-114921482D03*
X129830428Y-117461482D03*
X129830428Y-120001482D03*
D10*
X129830428Y-122541482D03*
G04 #@! TD*
G04 #@! TO.C,J12*
X156540000Y-104840000D03*
D11*
X156540000Y-102300000D03*
G04 #@! TD*
G04 #@! TO.C,J7*
X204860428Y-120981482D03*
D10*
X204860428Y-123521482D03*
G04 #@! TD*
G04 #@! TO.C,J16*
X160060428Y-69151482D03*
D11*
X162600428Y-69151482D03*
G04 #@! TD*
G04 #@! TO.C,J15*
X183080000Y-69110000D03*
D10*
X180540000Y-69110000D03*
G04 #@! TD*
G04 #@! TO.C,J10*
X164400000Y-106000000D03*
D11*
X166940000Y-106000000D03*
G04 #@! TD*
D13*
G04 #@! TO.C,SW7*
X205920428Y-89496482D03*
X208420428Y-89496482D03*
X203420428Y-89496482D03*
G04 #@! TD*
G04 #@! TO.C,SW3*
X205920428Y-107276482D03*
X208420428Y-107276482D03*
X203420428Y-107276482D03*
G04 #@! TD*
G04 #@! TO.C,SW4*
X205920428Y-102831482D03*
X208420428Y-102831482D03*
X203420428Y-102831482D03*
G04 #@! TD*
G04 #@! TO.C,SW5*
X205920428Y-98386482D03*
X208420428Y-98386482D03*
X203420428Y-98386482D03*
G04 #@! TD*
G04 #@! TO.C,SW6*
X205920428Y-93941482D03*
X208420428Y-93941482D03*
X203420428Y-93941482D03*
G04 #@! TD*
G04 #@! TO.C,SW8*
X205920428Y-85051482D03*
X208420428Y-85051482D03*
X203420428Y-85051482D03*
G04 #@! TD*
G04 #@! TO.C,SW9*
X205920428Y-80606482D03*
X208420428Y-80606482D03*
X203420428Y-80606482D03*
G04 #@! TD*
G04 #@! TO.C,SW11*
X205864548Y-71716482D03*
X208364548Y-71716482D03*
X203364548Y-71716482D03*
G04 #@! TD*
D15*
G04 #@! TO.C,MH4*
X148910000Y-122961482D03*
G04 #@! TD*
G04 #@! TO.C,MH3*
X130360428Y-70011482D03*
G04 #@! TD*
G04 #@! TO.C,MH2*
X216150000Y-70011482D03*
G04 #@! TD*
G04 #@! TO.C,MH1*
X216080000Y-122961482D03*
G04 #@! TD*
D16*
G04 #@! TO.C,F1*
X200700428Y-111151482D03*
D17*
X200700428Y-123851482D03*
G04 #@! TD*
D18*
G04 #@! TO.C,J2*
X142666843Y-72730245D03*
X135216843Y-72730245D03*
D19*
X142816843Y-68930245D03*
X135066843Y-68930245D03*
D20*
X141441843Y-71680245D03*
X136441843Y-71680245D03*
G04 #@! TD*
D21*
G04 #@! TO.C,J4*
X192460000Y-113130000D03*
D22*
X192460000Y-119130000D03*
D23*
X187960000Y-120130000D03*
X196960000Y-120130000D03*
D16*
X192460000Y-122130000D03*
G04 #@! TD*
D10*
G04 #@! TO.C,J6*
X161530000Y-91800000D03*
D11*
X158990000Y-91800000D03*
X161530000Y-89260000D03*
X158990000Y-89260000D03*
X161530000Y-86720000D03*
X158990000Y-86720000D03*
G04 #@! TD*
M02*
