G04 #@! TF.GenerationSoftware,KiCad,Pcbnew,(5.0.0)*
G04 #@! TF.CreationDate,2019-10-23T21:11:43+11:00*
G04 #@! TF.ProjectId,DAQ Board,44415120426F6172642E6B696361645F,rev?*
G04 #@! TF.SameCoordinates,Original*
G04 #@! TF.FileFunction,Copper,L3,Inr*
G04 #@! TF.FilePolarity,Positive*
%FSLAX46Y46*%
G04 Gerber Fmt 4.6, Leading zero omitted, Abs format (unit mm)*
G04 Created by KiCad (PCBNEW (5.0.0)) date 10/23/19 21:11:43*
%MOMM*%
%LPD*%
G01*
G04 APERTURE LIST*
G04 #@! TA.AperFunction,ViaPad*
%ADD10C,0.600000*%
G04 #@! TD*
G04 #@! TA.AperFunction,ViaPad*
%ADD11C,1.750000*%
G04 #@! TD*
G04 #@! TA.AperFunction,ViaPad*
%ADD12R,1.700000X1.700000*%
G04 #@! TD*
G04 #@! TA.AperFunction,ViaPad*
%ADD13O,1.700000X1.700000*%
G04 #@! TD*
G04 #@! TA.AperFunction,ViaPad*
%ADD14C,2.000000*%
G04 #@! TD*
G04 #@! TA.AperFunction,ViaPad*
%ADD15C,1.600000*%
G04 #@! TD*
G04 #@! TA.AperFunction,ViaPad*
%ADD16O,1.600000X1.600000*%
G04 #@! TD*
G04 #@! TA.AperFunction,ViaPad*
%ADD17O,1.450000X2.000000*%
G04 #@! TD*
G04 #@! TA.AperFunction,ViaPad*
%ADD18O,1.150000X1.800000*%
G04 #@! TD*
G04 #@! TA.AperFunction,ViaPad*
%ADD19R,4.000000X2.000000*%
G04 #@! TD*
G04 #@! TA.AperFunction,ViaPad*
%ADD20O,3.300000X2.000000*%
G04 #@! TD*
G04 #@! TA.AperFunction,ViaPad*
%ADD21O,2.000000X3.500000*%
G04 #@! TD*
G04 #@! TA.AperFunction,ViaPad*
%ADD22C,0.800000*%
G04 #@! TD*
G04 #@! TA.AperFunction,Conductor*
%ADD23C,1.000000*%
G04 #@! TD*
G04 #@! TA.AperFunction,Conductor*
%ADD24C,0.254000*%
G04 #@! TD*
G04 #@! TA.AperFunction,Conductor*
%ADD25C,0.200000*%
G04 #@! TD*
G04 APERTURE END LIST*
D10*
G04 #@! TO.N,/GND*
G04 #@! TO.C,*
X203590000Y-85830000D03*
G04 #@! TD*
G04 #@! TO.N,/GND*
G04 #@! TO.C,*
X198590000Y-85830000D03*
G04 #@! TD*
G04 #@! TO.N,/GND*
G04 #@! TO.C,*
X193590000Y-85830000D03*
G04 #@! TD*
G04 #@! TO.N,/GND*
G04 #@! TO.C,*
X188590000Y-85830000D03*
G04 #@! TD*
G04 #@! TO.N,/GND*
G04 #@! TO.C,*
X183590000Y-85830000D03*
G04 #@! TD*
G04 #@! TO.N,/GND*
G04 #@! TO.C,*
X178590000Y-85830000D03*
G04 #@! TD*
G04 #@! TO.N,/GND*
G04 #@! TO.C,*
X173590000Y-85830000D03*
G04 #@! TD*
G04 #@! TO.N,/GND*
G04 #@! TO.C,*
X203590000Y-80830000D03*
G04 #@! TD*
G04 #@! TO.N,/GND*
G04 #@! TO.C,*
X198590000Y-80830000D03*
G04 #@! TD*
G04 #@! TO.N,/GND*
G04 #@! TO.C,*
X193590000Y-80830000D03*
G04 #@! TD*
G04 #@! TO.N,/GND*
G04 #@! TO.C,*
X188590000Y-80830000D03*
G04 #@! TD*
G04 #@! TO.N,/GND*
G04 #@! TO.C,*
X183590000Y-80830000D03*
G04 #@! TD*
G04 #@! TO.N,/GND*
G04 #@! TO.C,*
X178590000Y-80830000D03*
G04 #@! TD*
G04 #@! TO.N,/GND*
G04 #@! TO.C,*
X173590000Y-80830000D03*
G04 #@! TD*
G04 #@! TO.N,/GND*
G04 #@! TO.C,*
X198590000Y-75830000D03*
G04 #@! TD*
G04 #@! TO.N,/GND*
G04 #@! TO.C,*
X193590000Y-75830000D03*
G04 #@! TD*
G04 #@! TO.N,/GND*
G04 #@! TO.C,*
X188590000Y-75830000D03*
G04 #@! TD*
G04 #@! TO.N,/GND*
G04 #@! TO.C,*
X183590000Y-75830000D03*
G04 #@! TD*
G04 #@! TO.N,/GND*
G04 #@! TO.C,*
X178590000Y-75830000D03*
G04 #@! TD*
G04 #@! TO.N,/GND*
G04 #@! TO.C,*
X173590000Y-75830000D03*
G04 #@! TD*
G04 #@! TO.N,/GND*
G04 #@! TO.C,*
X198590000Y-70830000D03*
G04 #@! TD*
G04 #@! TO.N,/GND*
G04 #@! TO.C,*
X193590000Y-70830000D03*
G04 #@! TD*
G04 #@! TO.N,/GND*
G04 #@! TO.C,*
X188590000Y-70830000D03*
G04 #@! TD*
G04 #@! TO.N,/GND*
G04 #@! TO.C,*
X183590000Y-70830000D03*
G04 #@! TD*
G04 #@! TO.N,/GND*
G04 #@! TO.C,*
X178590000Y-70830000D03*
G04 #@! TD*
D11*
G04 #@! TO.N,Net-(R7-Pad2)*
G04 #@! TO.C,SW7*
X133560000Y-104965000D03*
G04 #@! TO.N,Net-(J1-Pad5)*
X131060000Y-104965000D03*
G04 #@! TO.N,/ADC1299/AVDD*
X136060000Y-104965000D03*
G04 #@! TD*
G04 #@! TO.N,Net-(R3-Pad2)*
G04 #@! TO.C,SW3*
X133560000Y-87185000D03*
G04 #@! TO.N,Net-(J1-Pad1)*
X131060000Y-87185000D03*
G04 #@! TO.N,/ADC1299/AVDD*
X136060000Y-87185000D03*
G04 #@! TD*
G04 #@! TO.N,Net-(R4-Pad2)*
G04 #@! TO.C,SW4*
X133560000Y-91630000D03*
G04 #@! TO.N,Net-(J1-Pad2)*
X131060000Y-91630000D03*
G04 #@! TO.N,/ADC1299/AVDD*
X136060000Y-91630000D03*
G04 #@! TD*
G04 #@! TO.N,Net-(R5-Pad2)*
G04 #@! TO.C,SW5*
X133560000Y-96075000D03*
G04 #@! TO.N,Net-(J1-Pad3)*
X131060000Y-96075000D03*
G04 #@! TO.N,/ADC1299/AVDD*
X136060000Y-96075000D03*
G04 #@! TD*
G04 #@! TO.N,Net-(R6-Pad2)*
G04 #@! TO.C,SW6*
X133560000Y-100520000D03*
G04 #@! TO.N,Net-(J1-Pad4)*
X131060000Y-100520000D03*
G04 #@! TO.N,/ADC1299/AVDD*
X136060000Y-100520000D03*
G04 #@! TD*
G04 #@! TO.N,Net-(R8-Pad2)*
G04 #@! TO.C,SW8*
X133560000Y-109410000D03*
G04 #@! TO.N,Net-(J1-Pad6)*
X131060000Y-109410000D03*
G04 #@! TO.N,/ADC1299/AVDD*
X136060000Y-109410000D03*
G04 #@! TD*
G04 #@! TO.N,Net-(R9-Pad2)*
G04 #@! TO.C,SW9*
X133560000Y-113855000D03*
G04 #@! TO.N,Net-(J1-Pad7)*
X131060000Y-113855000D03*
G04 #@! TO.N,/ADC1299/AVDD*
X136060000Y-113855000D03*
G04 #@! TD*
G04 #@! TO.N,Net-(R10-Pad2)*
G04 #@! TO.C,SW10*
X133560000Y-118300000D03*
G04 #@! TO.N,Net-(J1-Pad8)*
X131060000Y-118300000D03*
G04 #@! TO.N,/ADC1299/AVDD*
X136060000Y-118300000D03*
G04 #@! TD*
G04 #@! TO.N,Net-(R11-Pad2)*
G04 #@! TO.C,SW11*
X133615880Y-122745000D03*
G04 #@! TO.N,Net-(J1-Pad9)*
X131115880Y-122745000D03*
G04 #@! TO.N,/ADC1299/AVDD*
X136115880Y-122745000D03*
G04 #@! TD*
D12*
G04 #@! TO.N,Net-(J1-Pad1)*
G04 #@! TO.C,J1*
X121440000Y-94800000D03*
D13*
G04 #@! TO.N,Net-(J1-Pad2)*
X121440000Y-97340000D03*
G04 #@! TO.N,Net-(J1-Pad3)*
X121440000Y-99880000D03*
G04 #@! TO.N,Net-(J1-Pad4)*
X121440000Y-102420000D03*
G04 #@! TO.N,Net-(J1-Pad5)*
X121440000Y-104960000D03*
G04 #@! TO.N,Net-(J1-Pad6)*
X121440000Y-107500000D03*
G04 #@! TO.N,Net-(J1-Pad7)*
X121440000Y-110040000D03*
G04 #@! TO.N,Net-(J1-Pad8)*
X121440000Y-112580000D03*
G04 #@! TO.N,Net-(J1-Pad9)*
X121440000Y-115120000D03*
G04 #@! TD*
D14*
G04 #@! TO.N,/GND*
G04 #@! TO.C,PB1*
X158590000Y-71090000D03*
X158590000Y-75590000D03*
G04 #@! TO.N,/ADC1299/~RESET*
X165090000Y-75590000D03*
X165090000Y-71090000D03*
G04 #@! TD*
D13*
G04 #@! TO.N,Net-(J5-Pad6)*
G04 #@! TO.C,J5*
X209650000Y-84620000D03*
G04 #@! TO.N,/HC05_TX*
X209650000Y-82080000D03*
G04 #@! TO.N,/HC05_RX*
X209650000Y-79540000D03*
G04 #@! TO.N,/GND*
X209650000Y-77000000D03*
G04 #@! TO.N,/+5V*
X209650000Y-74460000D03*
D12*
G04 #@! TO.N,Net-(J5-Pad1)*
X209650000Y-71920000D03*
G04 #@! TD*
D15*
G04 #@! TO.N,Net-(F1-Pad1)*
G04 #@! TO.C,F1*
X140470000Y-83310000D03*
D16*
G04 #@! TO.N,/VIN_RAW*
X140470000Y-70610000D03*
G04 #@! TD*
D17*
G04 #@! TO.N,/GND*
G04 #@! TO.C,J2*
X196813585Y-121731237D03*
X204263585Y-121731237D03*
D18*
X196663585Y-125531237D03*
X204413585Y-125531237D03*
G04 #@! TD*
D12*
G04 #@! TO.N,Net-(J3-Pad1)*
G04 #@! TO.C,J3*
X129660000Y-71050000D03*
D13*
G04 #@! TO.N,/GND*
X132200000Y-71050000D03*
G04 #@! TD*
D19*
G04 #@! TO.N,/GND*
G04 #@! TO.C,J4*
X148780000Y-70350000D03*
D20*
G04 #@! TO.N,/VIN_RAW*
X148780000Y-76350000D03*
D21*
G04 #@! TO.N,N/C*
X144280000Y-77350000D03*
X153280000Y-77350000D03*
G04 #@! TD*
D12*
G04 #@! TO.N,/ADC1299/MISO*
G04 #@! TO.C,J6*
X176800000Y-102650000D03*
D13*
G04 #@! TO.N,/+5V*
X179340000Y-102650000D03*
G04 #@! TO.N,/ADC1299/SCLK*
X176800000Y-105190000D03*
G04 #@! TO.N,/ADC1299/MOSI*
X179340000Y-105190000D03*
G04 #@! TO.N,/ADC1299/~RESET*
X176800000Y-107730000D03*
G04 #@! TO.N,/GND*
X179340000Y-107730000D03*
G04 #@! TD*
D10*
G04 #@! TO.N,/GND*
G04 #@! TO.C,*
X173590000Y-70830000D03*
G04 #@! TD*
D22*
G04 #@! TO.N,/ADC1299/MID_SUPPLY*
X157510000Y-119790000D03*
X151720000Y-110340000D03*
G04 #@! TO.N,Net-(ADC1-Pad17)*
X146710000Y-99703000D03*
X146710000Y-104148000D03*
X146710000Y-108593000D03*
X146710000Y-113038000D03*
X146710000Y-117483000D03*
X146710000Y-124595000D03*
X146710000Y-95258000D03*
X146710000Y-90813000D03*
G04 #@! TO.N,/ADC1299/AVDD*
X164060000Y-114600000D03*
X159520000Y-122200000D03*
X154610000Y-121120000D03*
X154610000Y-96860000D03*
X161420000Y-87880000D03*
X151500000Y-112790000D03*
X165520000Y-98190000D03*
G04 #@! TO.N,/GND*
X157630000Y-100850000D03*
X155670000Y-109010000D03*
X191310000Y-96510000D03*
G04 #@! TO.N,/ADC1299/MOSI*
X185480000Y-101250000D03*
G04 #@! TO.N,/ADC1299/~PWDN*
X166290000Y-107780000D03*
X185510000Y-96290000D03*
G04 #@! TO.N,/ADC1299/~RESET*
X178210000Y-110900000D03*
X165110000Y-107290000D03*
X197449112Y-99159112D03*
G04 #@! TO.N,/ADC1299/START*
X183050000Y-98740000D03*
X185480000Y-98060000D03*
G04 #@! TO.N,/ADC1299/~CS*
X165070000Y-105790000D03*
X184580000Y-99590000D03*
G04 #@! TO.N,/ADC1299/SCLK*
X166260000Y-105270000D03*
G04 #@! TO.N,/ADC1299/MISO*
X165460000Y-103890000D03*
G04 #@! TO.N,/ADC1299/~DRDY*
X166080000Y-101090000D03*
X184590000Y-97240000D03*
G04 #@! TO.N,/ADC1299/DVDD*
X170330000Y-98190000D03*
X166540000Y-112370000D03*
G04 #@! TO.N,/+5V*
X207880000Y-95120000D03*
X203140000Y-98400000D03*
X190350000Y-90300000D03*
X207810000Y-117320000D03*
X210830000Y-117320000D03*
X204710000Y-115420000D03*
X197810000Y-112790000D03*
X188910000Y-105510000D03*
X187210000Y-104240000D03*
X170260000Y-84670000D03*
G04 #@! TO.N,/VIN*
X187200000Y-126380000D03*
X154260000Y-83400000D03*
X137170000Y-81140000D03*
X148050000Y-83890000D03*
X183440000Y-119960000D03*
G04 #@! TO.N,Net-(J2-Pad2)*
X199850000Y-115760000D03*
X201280000Y-115760000D03*
G04 #@! TO.N,/Arduino Nano/TX*
X207300000Y-103370000D03*
X201530000Y-96410000D03*
G04 #@! TO.N,/Arduino Nano/RX*
X209930000Y-103400000D03*
X202370000Y-97480000D03*
G04 #@! TD*
D23*
G04 #@! TO.N,/ADC1299/DVDD*
X170330000Y-98755685D02*
X170330000Y-98190000D01*
X170330000Y-108014315D02*
X170330000Y-98755685D01*
X166540000Y-111804315D02*
X170330000Y-108014315D01*
X166540000Y-112370000D02*
X166540000Y-111804315D01*
G04 #@! TD*
D24*
G04 #@! TO.N,/VIN*
G36*
X139798773Y-69332640D02*
X139435423Y-69575423D01*
X139118260Y-70050091D01*
X139006887Y-70610000D01*
X139118260Y-71169909D01*
X139435423Y-71644577D01*
X139910091Y-71961740D01*
X140328667Y-72045000D01*
X140611333Y-72045000D01*
X141029909Y-71961740D01*
X141504577Y-71644577D01*
X141821740Y-71169909D01*
X141933113Y-70610000D01*
X141821740Y-70050091D01*
X141504577Y-69575423D01*
X141142568Y-69333536D01*
X146135173Y-69336865D01*
X146132560Y-69350000D01*
X146132560Y-71350000D01*
X146181843Y-71597765D01*
X146322191Y-71807809D01*
X146532235Y-71948157D01*
X146780000Y-71997440D01*
X150780000Y-71997440D01*
X151027765Y-71948157D01*
X151237809Y-71807809D01*
X151378157Y-71597765D01*
X151427440Y-71350000D01*
X151427440Y-70764778D01*
X156955000Y-70764778D01*
X156955000Y-71415222D01*
X157203914Y-72016153D01*
X157663847Y-72476086D01*
X158264778Y-72725000D01*
X158915222Y-72725000D01*
X159516153Y-72476086D01*
X159976086Y-72016153D01*
X160225000Y-71415222D01*
X160225000Y-70764778D01*
X163455000Y-70764778D01*
X163455000Y-71415222D01*
X163703914Y-72016153D01*
X164163847Y-72476086D01*
X164764778Y-72725000D01*
X165415222Y-72725000D01*
X166016153Y-72476086D01*
X166476086Y-72016153D01*
X166725000Y-71415222D01*
X166725000Y-70764778D01*
X166476086Y-70163847D01*
X166016153Y-69703914D01*
X165415222Y-69455000D01*
X164764778Y-69455000D01*
X164163847Y-69703914D01*
X163703914Y-70163847D01*
X163455000Y-70764778D01*
X160225000Y-70764778D01*
X159976086Y-70163847D01*
X159516153Y-69703914D01*
X158915222Y-69455000D01*
X158264778Y-69455000D01*
X157663847Y-69703914D01*
X157203914Y-70163847D01*
X156955000Y-70764778D01*
X151427440Y-70764778D01*
X151427440Y-69350000D01*
X151425529Y-69340392D01*
X167804324Y-69351313D01*
X167823000Y-91380108D01*
X167832709Y-91428700D01*
X167860274Y-91469879D01*
X167901499Y-91497374D01*
X167944174Y-91506866D01*
X174573345Y-91811317D01*
X174623001Y-109270361D01*
X174632806Y-109318934D01*
X174660453Y-109360058D01*
X174701733Y-109387470D01*
X174751957Y-109396985D01*
X181114789Y-109298944D01*
X181203012Y-115611775D01*
X181213358Y-115660236D01*
X181241461Y-115701049D01*
X181283044Y-115728000D01*
X181331942Y-115736985D01*
X191013000Y-115588957D01*
X191013000Y-126744591D01*
X171143780Y-126729125D01*
X171048386Y-117937000D01*
X177310000Y-117937000D01*
X177358601Y-117927333D01*
X177399803Y-117899803D01*
X177427333Y-117858601D01*
X177436998Y-117809264D01*
X177400738Y-111554449D01*
X177623720Y-111777431D01*
X178004126Y-111935000D01*
X178415874Y-111935000D01*
X178796280Y-111777431D01*
X179087431Y-111486280D01*
X179245000Y-111105874D01*
X179245000Y-110694126D01*
X179087431Y-110313720D01*
X178796280Y-110022569D01*
X178415874Y-109865000D01*
X178004126Y-109865000D01*
X177623720Y-110022569D01*
X177332569Y-110313720D01*
X177175000Y-110694126D01*
X177175000Y-110781728D01*
X171371752Y-110704737D01*
X171436912Y-108954725D01*
X171429060Y-108905799D01*
X171403082Y-108863601D01*
X171396084Y-108858539D01*
X171393338Y-108465862D01*
X171399146Y-108457170D01*
X171465000Y-108126098D01*
X171465000Y-108126097D01*
X171487235Y-108014316D01*
X171465000Y-107902534D01*
X171465000Y-98078218D01*
X171399146Y-97747146D01*
X171317528Y-97624995D01*
X171306997Y-96119112D01*
X171296990Y-96070580D01*
X171269172Y-96029572D01*
X171227779Y-96002330D01*
X171179303Y-95993002D01*
X162197997Y-96042296D01*
X162216996Y-93600988D01*
X162207707Y-93552314D01*
X162180499Y-93510899D01*
X162139512Y-93483049D01*
X162088961Y-93473004D01*
X147547000Y-93591957D01*
X147547000Y-91439711D01*
X147587431Y-91399280D01*
X147745000Y-91018874D01*
X147745000Y-90607126D01*
X147587431Y-90226720D01*
X147547000Y-90186289D01*
X147547000Y-87710000D01*
X147539865Y-87674126D01*
X160385000Y-87674126D01*
X160385000Y-88085874D01*
X160542569Y-88466280D01*
X160833720Y-88757431D01*
X161214126Y-88915000D01*
X161625874Y-88915000D01*
X162006280Y-88757431D01*
X162297431Y-88466280D01*
X162455000Y-88085874D01*
X162455000Y-87674126D01*
X162297431Y-87293720D01*
X162006280Y-87002569D01*
X161625874Y-86845000D01*
X161214126Y-86845000D01*
X160833720Y-87002569D01*
X160542569Y-87293720D01*
X160385000Y-87674126D01*
X147539865Y-87674126D01*
X147537333Y-87661399D01*
X147509803Y-87620197D01*
X147468601Y-87592667D01*
X147420000Y-87583000D01*
X139817000Y-87583000D01*
X139817000Y-84900000D01*
X139807333Y-84851399D01*
X139779803Y-84810197D01*
X139738601Y-84782667D01*
X139688626Y-84773007D01*
X119227772Y-84994305D01*
X119226680Y-83024561D01*
X139035000Y-83024561D01*
X139035000Y-83595439D01*
X139253466Y-84122862D01*
X139657138Y-84526534D01*
X140184561Y-84745000D01*
X140755439Y-84745000D01*
X141282862Y-84526534D01*
X141686534Y-84122862D01*
X141905000Y-83595439D01*
X141905000Y-83024561D01*
X141686534Y-82497138D01*
X141282862Y-82093466D01*
X140755439Y-81875000D01*
X140184561Y-81875000D01*
X139657138Y-82093466D01*
X139253466Y-82497138D01*
X139035000Y-83024561D01*
X119226680Y-83024561D01*
X119223028Y-76438970D01*
X142645000Y-76438970D01*
X142645000Y-78261031D01*
X142739865Y-78737945D01*
X143101232Y-79278769D01*
X143642056Y-79640136D01*
X144280000Y-79767031D01*
X144917945Y-79640136D01*
X145458769Y-79278769D01*
X145820136Y-78737945D01*
X145915000Y-78261031D01*
X145915000Y-76438969D01*
X145897303Y-76350000D01*
X146462969Y-76350000D01*
X146589864Y-76987945D01*
X146951231Y-77528769D01*
X147492055Y-77890136D01*
X147968969Y-77985000D01*
X148325566Y-77985000D01*
X147967138Y-78133466D01*
X147563466Y-78537138D01*
X147345000Y-79064561D01*
X147345000Y-79635439D01*
X147563466Y-80162862D01*
X147967138Y-80566534D01*
X148494561Y-80785000D01*
X149065439Y-80785000D01*
X149592862Y-80566534D01*
X149996534Y-80162862D01*
X150215000Y-79635439D01*
X150215000Y-79064561D01*
X149996534Y-78537138D01*
X149592862Y-78133466D01*
X149234434Y-77985000D01*
X149591031Y-77985000D01*
X150067945Y-77890136D01*
X150608769Y-77528769D01*
X150970136Y-76987945D01*
X151079333Y-76438970D01*
X151645000Y-76438970D01*
X151645000Y-78261031D01*
X151739865Y-78737945D01*
X152101232Y-79278769D01*
X152642056Y-79640136D01*
X153280000Y-79767031D01*
X153917945Y-79640136D01*
X154458769Y-79278769D01*
X154820136Y-78737945D01*
X154915000Y-78261031D01*
X154915000Y-76438969D01*
X154820136Y-75962055D01*
X154458769Y-75421231D01*
X154224621Y-75264778D01*
X156955000Y-75264778D01*
X156955000Y-75915222D01*
X157203914Y-76516153D01*
X157663847Y-76976086D01*
X158264778Y-77225000D01*
X158915222Y-77225000D01*
X159516153Y-76976086D01*
X159976086Y-76516153D01*
X160225000Y-75915222D01*
X160225000Y-75264778D01*
X163455000Y-75264778D01*
X163455000Y-75915222D01*
X163703914Y-76516153D01*
X164163847Y-76976086D01*
X164764778Y-77225000D01*
X165415222Y-77225000D01*
X166016153Y-76976086D01*
X166476086Y-76516153D01*
X166725000Y-75915222D01*
X166725000Y-75264778D01*
X166476086Y-74663847D01*
X166016153Y-74203914D01*
X165415222Y-73955000D01*
X164764778Y-73955000D01*
X164163847Y-74203914D01*
X163703914Y-74663847D01*
X163455000Y-75264778D01*
X160225000Y-75264778D01*
X159976086Y-74663847D01*
X159516153Y-74203914D01*
X158915222Y-73955000D01*
X158264778Y-73955000D01*
X157663847Y-74203914D01*
X157203914Y-74663847D01*
X156955000Y-75264778D01*
X154224621Y-75264778D01*
X153917944Y-75059864D01*
X153280000Y-74932969D01*
X152642055Y-75059864D01*
X152101231Y-75421231D01*
X151739864Y-75962056D01*
X151645000Y-76438970D01*
X151079333Y-76438970D01*
X151097031Y-76350000D01*
X150970136Y-75712055D01*
X150608769Y-75171231D01*
X150067945Y-74809864D01*
X149591031Y-74715000D01*
X147968969Y-74715000D01*
X147492055Y-74809864D01*
X146951231Y-75171231D01*
X146589864Y-75712055D01*
X146462969Y-76350000D01*
X145897303Y-76350000D01*
X145820136Y-75962055D01*
X145458769Y-75421231D01*
X144917944Y-75059864D01*
X144280000Y-74932969D01*
X143642055Y-75059864D01*
X143101231Y-75421231D01*
X142739864Y-75962056D01*
X142645000Y-76438970D01*
X119223028Y-76438970D01*
X119220524Y-71925431D01*
X120415000Y-71925431D01*
X120415000Y-72814569D01*
X120755259Y-73636026D01*
X121383974Y-74264741D01*
X122205431Y-74605000D01*
X123094569Y-74605000D01*
X123916026Y-74264741D01*
X124544741Y-73636026D01*
X124885000Y-72814569D01*
X124885000Y-71925431D01*
X124544741Y-71103974D01*
X123916026Y-70475259D01*
X123251493Y-70200000D01*
X128162560Y-70200000D01*
X128162560Y-71900000D01*
X128211843Y-72147765D01*
X128352191Y-72357809D01*
X128562235Y-72498157D01*
X128810000Y-72547440D01*
X130510000Y-72547440D01*
X130757765Y-72498157D01*
X130967809Y-72357809D01*
X131108157Y-72147765D01*
X131117184Y-72102381D01*
X131129375Y-72120625D01*
X131620582Y-72448839D01*
X132053744Y-72535000D01*
X132346256Y-72535000D01*
X132779418Y-72448839D01*
X133270625Y-72120625D01*
X133598839Y-71629418D01*
X133714092Y-71050000D01*
X133598839Y-70470582D01*
X133270625Y-69979375D01*
X132779418Y-69651161D01*
X132346256Y-69565000D01*
X132053744Y-69565000D01*
X131620582Y-69651161D01*
X131129375Y-69979375D01*
X131117184Y-69997619D01*
X131108157Y-69952235D01*
X130967809Y-69742191D01*
X130757765Y-69601843D01*
X130510000Y-69552560D01*
X128810000Y-69552560D01*
X128562235Y-69601843D01*
X128352191Y-69742191D01*
X128211843Y-69952235D01*
X128162560Y-70200000D01*
X123251493Y-70200000D01*
X123094569Y-70135000D01*
X122205431Y-70135000D01*
X121383974Y-70475259D01*
X120755259Y-71103974D01*
X120415000Y-71925431D01*
X119220524Y-71925431D01*
X119220014Y-71006063D01*
X119279820Y-70536286D01*
X119440356Y-70143985D01*
X119696956Y-69806602D01*
X120032136Y-69547126D01*
X120423052Y-69383242D01*
X120887823Y-69320032D01*
X139798773Y-69332640D01*
X139798773Y-69332640D01*
G37*
X139798773Y-69332640D02*
X139435423Y-69575423D01*
X139118260Y-70050091D01*
X139006887Y-70610000D01*
X139118260Y-71169909D01*
X139435423Y-71644577D01*
X139910091Y-71961740D01*
X140328667Y-72045000D01*
X140611333Y-72045000D01*
X141029909Y-71961740D01*
X141504577Y-71644577D01*
X141821740Y-71169909D01*
X141933113Y-70610000D01*
X141821740Y-70050091D01*
X141504577Y-69575423D01*
X141142568Y-69333536D01*
X146135173Y-69336865D01*
X146132560Y-69350000D01*
X146132560Y-71350000D01*
X146181843Y-71597765D01*
X146322191Y-71807809D01*
X146532235Y-71948157D01*
X146780000Y-71997440D01*
X150780000Y-71997440D01*
X151027765Y-71948157D01*
X151237809Y-71807809D01*
X151378157Y-71597765D01*
X151427440Y-71350000D01*
X151427440Y-70764778D01*
X156955000Y-70764778D01*
X156955000Y-71415222D01*
X157203914Y-72016153D01*
X157663847Y-72476086D01*
X158264778Y-72725000D01*
X158915222Y-72725000D01*
X159516153Y-72476086D01*
X159976086Y-72016153D01*
X160225000Y-71415222D01*
X160225000Y-70764778D01*
X163455000Y-70764778D01*
X163455000Y-71415222D01*
X163703914Y-72016153D01*
X164163847Y-72476086D01*
X164764778Y-72725000D01*
X165415222Y-72725000D01*
X166016153Y-72476086D01*
X166476086Y-72016153D01*
X166725000Y-71415222D01*
X166725000Y-70764778D01*
X166476086Y-70163847D01*
X166016153Y-69703914D01*
X165415222Y-69455000D01*
X164764778Y-69455000D01*
X164163847Y-69703914D01*
X163703914Y-70163847D01*
X163455000Y-70764778D01*
X160225000Y-70764778D01*
X159976086Y-70163847D01*
X159516153Y-69703914D01*
X158915222Y-69455000D01*
X158264778Y-69455000D01*
X157663847Y-69703914D01*
X157203914Y-70163847D01*
X156955000Y-70764778D01*
X151427440Y-70764778D01*
X151427440Y-69350000D01*
X151425529Y-69340392D01*
X167804324Y-69351313D01*
X167823000Y-91380108D01*
X167832709Y-91428700D01*
X167860274Y-91469879D01*
X167901499Y-91497374D01*
X167944174Y-91506866D01*
X174573345Y-91811317D01*
X174623001Y-109270361D01*
X174632806Y-109318934D01*
X174660453Y-109360058D01*
X174701733Y-109387470D01*
X174751957Y-109396985D01*
X181114789Y-109298944D01*
X181203012Y-115611775D01*
X181213358Y-115660236D01*
X181241461Y-115701049D01*
X181283044Y-115728000D01*
X181331942Y-115736985D01*
X191013000Y-115588957D01*
X191013000Y-126744591D01*
X171143780Y-126729125D01*
X171048386Y-117937000D01*
X177310000Y-117937000D01*
X177358601Y-117927333D01*
X177399803Y-117899803D01*
X177427333Y-117858601D01*
X177436998Y-117809264D01*
X177400738Y-111554449D01*
X177623720Y-111777431D01*
X178004126Y-111935000D01*
X178415874Y-111935000D01*
X178796280Y-111777431D01*
X179087431Y-111486280D01*
X179245000Y-111105874D01*
X179245000Y-110694126D01*
X179087431Y-110313720D01*
X178796280Y-110022569D01*
X178415874Y-109865000D01*
X178004126Y-109865000D01*
X177623720Y-110022569D01*
X177332569Y-110313720D01*
X177175000Y-110694126D01*
X177175000Y-110781728D01*
X171371752Y-110704737D01*
X171436912Y-108954725D01*
X171429060Y-108905799D01*
X171403082Y-108863601D01*
X171396084Y-108858539D01*
X171393338Y-108465862D01*
X171399146Y-108457170D01*
X171465000Y-108126098D01*
X171465000Y-108126097D01*
X171487235Y-108014316D01*
X171465000Y-107902534D01*
X171465000Y-98078218D01*
X171399146Y-97747146D01*
X171317528Y-97624995D01*
X171306997Y-96119112D01*
X171296990Y-96070580D01*
X171269172Y-96029572D01*
X171227779Y-96002330D01*
X171179303Y-95993002D01*
X162197997Y-96042296D01*
X162216996Y-93600988D01*
X162207707Y-93552314D01*
X162180499Y-93510899D01*
X162139512Y-93483049D01*
X162088961Y-93473004D01*
X147547000Y-93591957D01*
X147547000Y-91439711D01*
X147587431Y-91399280D01*
X147745000Y-91018874D01*
X147745000Y-90607126D01*
X147587431Y-90226720D01*
X147547000Y-90186289D01*
X147547000Y-87710000D01*
X147539865Y-87674126D01*
X160385000Y-87674126D01*
X160385000Y-88085874D01*
X160542569Y-88466280D01*
X160833720Y-88757431D01*
X161214126Y-88915000D01*
X161625874Y-88915000D01*
X162006280Y-88757431D01*
X162297431Y-88466280D01*
X162455000Y-88085874D01*
X162455000Y-87674126D01*
X162297431Y-87293720D01*
X162006280Y-87002569D01*
X161625874Y-86845000D01*
X161214126Y-86845000D01*
X160833720Y-87002569D01*
X160542569Y-87293720D01*
X160385000Y-87674126D01*
X147539865Y-87674126D01*
X147537333Y-87661399D01*
X147509803Y-87620197D01*
X147468601Y-87592667D01*
X147420000Y-87583000D01*
X139817000Y-87583000D01*
X139817000Y-84900000D01*
X139807333Y-84851399D01*
X139779803Y-84810197D01*
X139738601Y-84782667D01*
X139688626Y-84773007D01*
X119227772Y-84994305D01*
X119226680Y-83024561D01*
X139035000Y-83024561D01*
X139035000Y-83595439D01*
X139253466Y-84122862D01*
X139657138Y-84526534D01*
X140184561Y-84745000D01*
X140755439Y-84745000D01*
X141282862Y-84526534D01*
X141686534Y-84122862D01*
X141905000Y-83595439D01*
X141905000Y-83024561D01*
X141686534Y-82497138D01*
X141282862Y-82093466D01*
X140755439Y-81875000D01*
X140184561Y-81875000D01*
X139657138Y-82093466D01*
X139253466Y-82497138D01*
X139035000Y-83024561D01*
X119226680Y-83024561D01*
X119223028Y-76438970D01*
X142645000Y-76438970D01*
X142645000Y-78261031D01*
X142739865Y-78737945D01*
X143101232Y-79278769D01*
X143642056Y-79640136D01*
X144280000Y-79767031D01*
X144917945Y-79640136D01*
X145458769Y-79278769D01*
X145820136Y-78737945D01*
X145915000Y-78261031D01*
X145915000Y-76438969D01*
X145897303Y-76350000D01*
X146462969Y-76350000D01*
X146589864Y-76987945D01*
X146951231Y-77528769D01*
X147492055Y-77890136D01*
X147968969Y-77985000D01*
X148325566Y-77985000D01*
X147967138Y-78133466D01*
X147563466Y-78537138D01*
X147345000Y-79064561D01*
X147345000Y-79635439D01*
X147563466Y-80162862D01*
X147967138Y-80566534D01*
X148494561Y-80785000D01*
X149065439Y-80785000D01*
X149592862Y-80566534D01*
X149996534Y-80162862D01*
X150215000Y-79635439D01*
X150215000Y-79064561D01*
X149996534Y-78537138D01*
X149592862Y-78133466D01*
X149234434Y-77985000D01*
X149591031Y-77985000D01*
X150067945Y-77890136D01*
X150608769Y-77528769D01*
X150970136Y-76987945D01*
X151079333Y-76438970D01*
X151645000Y-76438970D01*
X151645000Y-78261031D01*
X151739865Y-78737945D01*
X152101232Y-79278769D01*
X152642056Y-79640136D01*
X153280000Y-79767031D01*
X153917945Y-79640136D01*
X154458769Y-79278769D01*
X154820136Y-78737945D01*
X154915000Y-78261031D01*
X154915000Y-76438969D01*
X154820136Y-75962055D01*
X154458769Y-75421231D01*
X154224621Y-75264778D01*
X156955000Y-75264778D01*
X156955000Y-75915222D01*
X157203914Y-76516153D01*
X157663847Y-76976086D01*
X158264778Y-77225000D01*
X158915222Y-77225000D01*
X159516153Y-76976086D01*
X159976086Y-76516153D01*
X160225000Y-75915222D01*
X160225000Y-75264778D01*
X163455000Y-75264778D01*
X163455000Y-75915222D01*
X163703914Y-76516153D01*
X164163847Y-76976086D01*
X164764778Y-77225000D01*
X165415222Y-77225000D01*
X166016153Y-76976086D01*
X166476086Y-76516153D01*
X166725000Y-75915222D01*
X166725000Y-75264778D01*
X166476086Y-74663847D01*
X166016153Y-74203914D01*
X165415222Y-73955000D01*
X164764778Y-73955000D01*
X164163847Y-74203914D01*
X163703914Y-74663847D01*
X163455000Y-75264778D01*
X160225000Y-75264778D01*
X159976086Y-74663847D01*
X159516153Y-74203914D01*
X158915222Y-73955000D01*
X158264778Y-73955000D01*
X157663847Y-74203914D01*
X157203914Y-74663847D01*
X156955000Y-75264778D01*
X154224621Y-75264778D01*
X153917944Y-75059864D01*
X153280000Y-74932969D01*
X152642055Y-75059864D01*
X152101231Y-75421231D01*
X151739864Y-75962056D01*
X151645000Y-76438970D01*
X151079333Y-76438970D01*
X151097031Y-76350000D01*
X150970136Y-75712055D01*
X150608769Y-75171231D01*
X150067945Y-74809864D01*
X149591031Y-74715000D01*
X147968969Y-74715000D01*
X147492055Y-74809864D01*
X146951231Y-75171231D01*
X146589864Y-75712055D01*
X146462969Y-76350000D01*
X145897303Y-76350000D01*
X145820136Y-75962055D01*
X145458769Y-75421231D01*
X144917944Y-75059864D01*
X144280000Y-74932969D01*
X143642055Y-75059864D01*
X143101231Y-75421231D01*
X142739864Y-75962056D01*
X142645000Y-76438970D01*
X119223028Y-76438970D01*
X119220524Y-71925431D01*
X120415000Y-71925431D01*
X120415000Y-72814569D01*
X120755259Y-73636026D01*
X121383974Y-74264741D01*
X122205431Y-74605000D01*
X123094569Y-74605000D01*
X123916026Y-74264741D01*
X124544741Y-73636026D01*
X124885000Y-72814569D01*
X124885000Y-71925431D01*
X124544741Y-71103974D01*
X123916026Y-70475259D01*
X123251493Y-70200000D01*
X128162560Y-70200000D01*
X128162560Y-71900000D01*
X128211843Y-72147765D01*
X128352191Y-72357809D01*
X128562235Y-72498157D01*
X128810000Y-72547440D01*
X130510000Y-72547440D01*
X130757765Y-72498157D01*
X130967809Y-72357809D01*
X131108157Y-72147765D01*
X131117184Y-72102381D01*
X131129375Y-72120625D01*
X131620582Y-72448839D01*
X132053744Y-72535000D01*
X132346256Y-72535000D01*
X132779418Y-72448839D01*
X133270625Y-72120625D01*
X133598839Y-71629418D01*
X133714092Y-71050000D01*
X133598839Y-70470582D01*
X133270625Y-69979375D01*
X132779418Y-69651161D01*
X132346256Y-69565000D01*
X132053744Y-69565000D01*
X131620582Y-69651161D01*
X131129375Y-69979375D01*
X131117184Y-69997619D01*
X131108157Y-69952235D01*
X130967809Y-69742191D01*
X130757765Y-69601843D01*
X130510000Y-69552560D01*
X128810000Y-69552560D01*
X128562235Y-69601843D01*
X128352191Y-69742191D01*
X128211843Y-69952235D01*
X128162560Y-70200000D01*
X123251493Y-70200000D01*
X123094569Y-70135000D01*
X122205431Y-70135000D01*
X121383974Y-70475259D01*
X120755259Y-71103974D01*
X120415000Y-71925431D01*
X119220524Y-71925431D01*
X119220014Y-71006063D01*
X119279820Y-70536286D01*
X119440356Y-70143985D01*
X119696956Y-69806602D01*
X120032136Y-69547126D01*
X120423052Y-69383242D01*
X120887823Y-69320032D01*
X139798773Y-69332640D01*
G04 #@! TO.N,/ADC1299/AVDD*
G36*
X130435622Y-85809214D02*
X130204654Y-85904884D01*
X129779884Y-86329654D01*
X129550000Y-86884642D01*
X129550000Y-87485358D01*
X129779884Y-88040346D01*
X130204654Y-88465116D01*
X130759642Y-88695000D01*
X131360358Y-88695000D01*
X131915346Y-88465116D01*
X132310000Y-88070462D01*
X132704654Y-88465116D01*
X133259642Y-88695000D01*
X133860358Y-88695000D01*
X134415346Y-88465116D01*
X134633402Y-88247060D01*
X135177545Y-88247060D01*
X135260884Y-88500953D01*
X135825306Y-88706590D01*
X136425458Y-88680579D01*
X136859116Y-88500953D01*
X136942455Y-88247060D01*
X136060000Y-87364605D01*
X135177545Y-88247060D01*
X134633402Y-88247060D01*
X134840116Y-88040346D01*
X134849121Y-88018606D01*
X134997940Y-88067455D01*
X135880395Y-87185000D01*
X136239605Y-87185000D01*
X137122060Y-88067455D01*
X137375953Y-87984116D01*
X137581590Y-87419694D01*
X137555579Y-86819542D01*
X137375953Y-86385884D01*
X137122060Y-86302545D01*
X136239605Y-87185000D01*
X135880395Y-87185000D01*
X134997940Y-86302545D01*
X134849121Y-86351394D01*
X134840116Y-86329654D01*
X134415346Y-85904884D01*
X134192903Y-85812745D01*
X135394085Y-85813874D01*
X135260884Y-85869047D01*
X135177545Y-86122940D01*
X136060000Y-87005395D01*
X136942455Y-86122940D01*
X136859116Y-85869047D01*
X136711077Y-85815112D01*
X138591593Y-85816879D01*
X138563008Y-88408599D01*
X138572138Y-88457304D01*
X138599212Y-88498807D01*
X138640108Y-88526790D01*
X138690000Y-88537000D01*
X146554270Y-88537000D01*
X146566742Y-89778000D01*
X146504126Y-89778000D01*
X146123720Y-89935569D01*
X145832569Y-90226720D01*
X145675000Y-90607126D01*
X145675000Y-91018874D01*
X145832569Y-91399280D01*
X146123720Y-91690431D01*
X146504126Y-91848000D01*
X146587546Y-91848000D01*
X146611415Y-94223000D01*
X146504126Y-94223000D01*
X146123720Y-94380569D01*
X145832569Y-94671720D01*
X145675000Y-95052126D01*
X145675000Y-95463874D01*
X145832569Y-95844280D01*
X146123720Y-96135431D01*
X146504126Y-96293000D01*
X146915874Y-96293000D01*
X147296280Y-96135431D01*
X147587431Y-95844280D01*
X147745000Y-95463874D01*
X147745000Y-95052126D01*
X147587431Y-94671720D01*
X147422243Y-94506532D01*
X161183000Y-94497087D01*
X161183000Y-97010000D01*
X161192667Y-97058601D01*
X161220197Y-97099803D01*
X161261399Y-97127333D01*
X161309742Y-97137000D01*
X166101170Y-97146739D01*
X166059467Y-100055000D01*
X165874126Y-100055000D01*
X165493720Y-100212569D01*
X165202569Y-100503720D01*
X165045000Y-100884126D01*
X165045000Y-101295874D01*
X165202569Y-101676280D01*
X165493720Y-101967431D01*
X165874126Y-102125000D01*
X166029783Y-102125000D01*
X166017229Y-103000536D01*
X165665874Y-102855000D01*
X165254126Y-102855000D01*
X164873720Y-103012569D01*
X164582569Y-103303720D01*
X164425000Y-103684126D01*
X164425000Y-104095874D01*
X164582569Y-104476280D01*
X164862120Y-104755831D01*
X164483720Y-104912569D01*
X164192569Y-105203720D01*
X164035000Y-105584126D01*
X164035000Y-105995874D01*
X164192569Y-106376280D01*
X164376289Y-106560000D01*
X164232569Y-106703720D01*
X164075000Y-107084126D01*
X164075000Y-107495874D01*
X164232569Y-107876280D01*
X164523720Y-108167431D01*
X164904126Y-108325000D01*
X165315874Y-108325000D01*
X165383814Y-108296858D01*
X165412569Y-108366280D01*
X165703720Y-108657431D01*
X165934738Y-108753122D01*
X165914817Y-110142370D01*
X164050638Y-110133002D01*
X164001989Y-110142425D01*
X163960650Y-110169747D01*
X163932913Y-110210810D01*
X163923000Y-110259689D01*
X163915667Y-113249524D01*
X163925215Y-113298148D01*
X163952644Y-113339417D01*
X163993779Y-113367048D01*
X164041750Y-113376832D01*
X166025321Y-113391154D01*
X166097145Y-113439146D01*
X166540000Y-113527235D01*
X166982854Y-113439146D01*
X167043674Y-113398507D01*
X176404702Y-113466099D01*
X176451258Y-116892617D01*
X169850377Y-116873001D01*
X169801748Y-116882523D01*
X169760465Y-116909931D01*
X169732812Y-116951051D01*
X169723000Y-117000000D01*
X169723000Y-126728019D01*
X120936521Y-126690044D01*
X120466285Y-126630180D01*
X120073987Y-126469645D01*
X119736601Y-126213044D01*
X119477126Y-125877864D01*
X119313242Y-125486948D01*
X119249973Y-125021742D01*
X119248955Y-123185431D01*
X120415000Y-123185431D01*
X120415000Y-124074569D01*
X120755259Y-124896026D01*
X121383974Y-125524741D01*
X122205431Y-125865000D01*
X123094569Y-125865000D01*
X123916026Y-125524741D01*
X124544741Y-124896026D01*
X124754706Y-124389126D01*
X145675000Y-124389126D01*
X145675000Y-124800874D01*
X145832569Y-125181280D01*
X146123720Y-125472431D01*
X146504126Y-125630000D01*
X146915874Y-125630000D01*
X147296280Y-125472431D01*
X147587431Y-125181280D01*
X147745000Y-124800874D01*
X147745000Y-124389126D01*
X147587431Y-124008720D01*
X147296280Y-123717569D01*
X146915874Y-123560000D01*
X146504126Y-123560000D01*
X146123720Y-123717569D01*
X145832569Y-124008720D01*
X145675000Y-124389126D01*
X124754706Y-124389126D01*
X124885000Y-124074569D01*
X124885000Y-123185431D01*
X124578155Y-122444642D01*
X129605880Y-122444642D01*
X129605880Y-123045358D01*
X129835764Y-123600346D01*
X130260534Y-124025116D01*
X130815522Y-124255000D01*
X131416238Y-124255000D01*
X131971226Y-124025116D01*
X132365880Y-123630462D01*
X132760534Y-124025116D01*
X133315522Y-124255000D01*
X133916238Y-124255000D01*
X134471226Y-124025116D01*
X134689282Y-123807060D01*
X135233425Y-123807060D01*
X135316764Y-124060953D01*
X135881186Y-124266590D01*
X136481338Y-124240579D01*
X136914996Y-124060953D01*
X136998335Y-123807060D01*
X136115880Y-122924605D01*
X135233425Y-123807060D01*
X134689282Y-123807060D01*
X134895996Y-123600346D01*
X134905001Y-123578606D01*
X135053820Y-123627455D01*
X135936275Y-122745000D01*
X136295485Y-122745000D01*
X137177940Y-123627455D01*
X137431833Y-123544116D01*
X137637470Y-122979694D01*
X137611459Y-122379542D01*
X137431833Y-121945884D01*
X137177940Y-121862545D01*
X136295485Y-122745000D01*
X135936275Y-122745000D01*
X135053820Y-121862545D01*
X134905001Y-121911394D01*
X134895996Y-121889654D01*
X134689282Y-121682940D01*
X135233425Y-121682940D01*
X136115880Y-122565395D01*
X136998335Y-121682940D01*
X136914996Y-121429047D01*
X136350574Y-121223410D01*
X135750422Y-121249421D01*
X135316764Y-121429047D01*
X135233425Y-121682940D01*
X134689282Y-121682940D01*
X134471226Y-121464884D01*
X133916238Y-121235000D01*
X133315522Y-121235000D01*
X132760534Y-121464884D01*
X132365880Y-121859538D01*
X131971226Y-121464884D01*
X131416238Y-121235000D01*
X130815522Y-121235000D01*
X130260534Y-121464884D01*
X129835764Y-121889654D01*
X129605880Y-122444642D01*
X124578155Y-122444642D01*
X124544741Y-122363974D01*
X123916026Y-121735259D01*
X123094569Y-121395000D01*
X122205431Y-121395000D01*
X121383974Y-121735259D01*
X120755259Y-122363974D01*
X120415000Y-123185431D01*
X119248955Y-123185431D01*
X119246079Y-117999642D01*
X129550000Y-117999642D01*
X129550000Y-118600358D01*
X129779884Y-119155346D01*
X130204654Y-119580116D01*
X130759642Y-119810000D01*
X131360358Y-119810000D01*
X131915346Y-119580116D01*
X132310000Y-119185462D01*
X132704654Y-119580116D01*
X133259642Y-119810000D01*
X133860358Y-119810000D01*
X134415346Y-119580116D01*
X134633402Y-119362060D01*
X135177545Y-119362060D01*
X135260884Y-119615953D01*
X135825306Y-119821590D01*
X136425458Y-119795579D01*
X136859116Y-119615953D01*
X136869563Y-119584126D01*
X156475000Y-119584126D01*
X156475000Y-119995874D01*
X156632569Y-120376280D01*
X156923720Y-120667431D01*
X157304126Y-120825000D01*
X157715874Y-120825000D01*
X158096280Y-120667431D01*
X158387431Y-120376280D01*
X158545000Y-119995874D01*
X158545000Y-119584126D01*
X158387431Y-119203720D01*
X158096280Y-118912569D01*
X157715874Y-118755000D01*
X157304126Y-118755000D01*
X156923720Y-118912569D01*
X156632569Y-119203720D01*
X156475000Y-119584126D01*
X136869563Y-119584126D01*
X136942455Y-119362060D01*
X136060000Y-118479605D01*
X135177545Y-119362060D01*
X134633402Y-119362060D01*
X134840116Y-119155346D01*
X134849121Y-119133606D01*
X134997940Y-119182455D01*
X135880395Y-118300000D01*
X136239605Y-118300000D01*
X137122060Y-119182455D01*
X137375953Y-119099116D01*
X137581590Y-118534694D01*
X137555579Y-117934542D01*
X137375953Y-117500884D01*
X137122060Y-117417545D01*
X136239605Y-118300000D01*
X135880395Y-118300000D01*
X134997940Y-117417545D01*
X134849121Y-117466394D01*
X134840116Y-117444654D01*
X134633402Y-117237940D01*
X135177545Y-117237940D01*
X136060000Y-118120395D01*
X136903269Y-117277126D01*
X145675000Y-117277126D01*
X145675000Y-117688874D01*
X145832569Y-118069280D01*
X146123720Y-118360431D01*
X146504126Y-118518000D01*
X146915874Y-118518000D01*
X147296280Y-118360431D01*
X147587431Y-118069280D01*
X147745000Y-117688874D01*
X147745000Y-117277126D01*
X147587431Y-116896720D01*
X147296280Y-116605569D01*
X146915874Y-116448000D01*
X146504126Y-116448000D01*
X146123720Y-116605569D01*
X145832569Y-116896720D01*
X145675000Y-117277126D01*
X136903269Y-117277126D01*
X136942455Y-117237940D01*
X136859116Y-116984047D01*
X136294694Y-116778410D01*
X135694542Y-116804421D01*
X135260884Y-116984047D01*
X135177545Y-117237940D01*
X134633402Y-117237940D01*
X134415346Y-117019884D01*
X133860358Y-116790000D01*
X133259642Y-116790000D01*
X132704654Y-117019884D01*
X132310000Y-117414538D01*
X131915346Y-117019884D01*
X131360358Y-116790000D01*
X130759642Y-116790000D01*
X130204654Y-117019884D01*
X129779884Y-117444654D01*
X129550000Y-117999642D01*
X119246079Y-117999642D01*
X119234621Y-97340000D01*
X119925908Y-97340000D01*
X120041161Y-97919418D01*
X120369375Y-98410625D01*
X120667761Y-98610000D01*
X120369375Y-98809375D01*
X120041161Y-99300582D01*
X119925908Y-99880000D01*
X120041161Y-100459418D01*
X120369375Y-100950625D01*
X120667761Y-101150000D01*
X120369375Y-101349375D01*
X120041161Y-101840582D01*
X119925908Y-102420000D01*
X120041161Y-102999418D01*
X120369375Y-103490625D01*
X120667761Y-103690000D01*
X120369375Y-103889375D01*
X120041161Y-104380582D01*
X119925908Y-104960000D01*
X120041161Y-105539418D01*
X120369375Y-106030625D01*
X120667761Y-106230000D01*
X120369375Y-106429375D01*
X120041161Y-106920582D01*
X119925908Y-107500000D01*
X120041161Y-108079418D01*
X120369375Y-108570625D01*
X120667761Y-108770000D01*
X120369375Y-108969375D01*
X120041161Y-109460582D01*
X119925908Y-110040000D01*
X120041161Y-110619418D01*
X120369375Y-111110625D01*
X120667761Y-111310000D01*
X120369375Y-111509375D01*
X120041161Y-112000582D01*
X119925908Y-112580000D01*
X120041161Y-113159418D01*
X120369375Y-113650625D01*
X120667761Y-113850000D01*
X120369375Y-114049375D01*
X120041161Y-114540582D01*
X119925908Y-115120000D01*
X120041161Y-115699418D01*
X120369375Y-116190625D01*
X120860582Y-116518839D01*
X121293744Y-116605000D01*
X121586256Y-116605000D01*
X122019418Y-116518839D01*
X122510625Y-116190625D01*
X122838839Y-115699418D01*
X122954092Y-115120000D01*
X122838839Y-114540582D01*
X122510625Y-114049375D01*
X122212239Y-113850000D01*
X122510625Y-113650625D01*
X122574758Y-113554642D01*
X129550000Y-113554642D01*
X129550000Y-114155358D01*
X129779884Y-114710346D01*
X130204654Y-115135116D01*
X130759642Y-115365000D01*
X131360358Y-115365000D01*
X131915346Y-115135116D01*
X132310000Y-114740462D01*
X132704654Y-115135116D01*
X133259642Y-115365000D01*
X133860358Y-115365000D01*
X134415346Y-115135116D01*
X134633402Y-114917060D01*
X135177545Y-114917060D01*
X135260884Y-115170953D01*
X135825306Y-115376590D01*
X136425458Y-115350579D01*
X136859116Y-115170953D01*
X136942455Y-114917060D01*
X136060000Y-114034605D01*
X135177545Y-114917060D01*
X134633402Y-114917060D01*
X134840116Y-114710346D01*
X134849121Y-114688606D01*
X134997940Y-114737455D01*
X135880395Y-113855000D01*
X136239605Y-113855000D01*
X137122060Y-114737455D01*
X137375953Y-114654116D01*
X137581590Y-114089694D01*
X137555579Y-113489542D01*
X137375953Y-113055884D01*
X137122060Y-112972545D01*
X136239605Y-113855000D01*
X135880395Y-113855000D01*
X134997940Y-112972545D01*
X134849121Y-113021394D01*
X134840116Y-112999654D01*
X134633402Y-112792940D01*
X135177545Y-112792940D01*
X136060000Y-113675395D01*
X136903269Y-112832126D01*
X145675000Y-112832126D01*
X145675000Y-113243874D01*
X145832569Y-113624280D01*
X146123720Y-113915431D01*
X146504126Y-114073000D01*
X146915874Y-114073000D01*
X147296280Y-113915431D01*
X147587431Y-113624280D01*
X147745000Y-113243874D01*
X147745000Y-112832126D01*
X147587431Y-112451720D01*
X147296280Y-112160569D01*
X146915874Y-112003000D01*
X146504126Y-112003000D01*
X146123720Y-112160569D01*
X145832569Y-112451720D01*
X145675000Y-112832126D01*
X136903269Y-112832126D01*
X136942455Y-112792940D01*
X136859116Y-112539047D01*
X136294694Y-112333410D01*
X135694542Y-112359421D01*
X135260884Y-112539047D01*
X135177545Y-112792940D01*
X134633402Y-112792940D01*
X134415346Y-112574884D01*
X133860358Y-112345000D01*
X133259642Y-112345000D01*
X132704654Y-112574884D01*
X132310000Y-112969538D01*
X131915346Y-112574884D01*
X131360358Y-112345000D01*
X130759642Y-112345000D01*
X130204654Y-112574884D01*
X129779884Y-112999654D01*
X129550000Y-113554642D01*
X122574758Y-113554642D01*
X122838839Y-113159418D01*
X122954092Y-112580000D01*
X122838839Y-112000582D01*
X122510625Y-111509375D01*
X122212239Y-111310000D01*
X122510625Y-111110625D01*
X122838839Y-110619418D01*
X122954092Y-110040000D01*
X122838839Y-109460582D01*
X122604349Y-109109642D01*
X129550000Y-109109642D01*
X129550000Y-109710358D01*
X129779884Y-110265346D01*
X130204654Y-110690116D01*
X130759642Y-110920000D01*
X131360358Y-110920000D01*
X131915346Y-110690116D01*
X132310000Y-110295462D01*
X132704654Y-110690116D01*
X133259642Y-110920000D01*
X133860358Y-110920000D01*
X134415346Y-110690116D01*
X134633402Y-110472060D01*
X135177545Y-110472060D01*
X135260884Y-110725953D01*
X135825306Y-110931590D01*
X136425458Y-110905579D01*
X136859116Y-110725953D01*
X136942455Y-110472060D01*
X136060000Y-109589605D01*
X135177545Y-110472060D01*
X134633402Y-110472060D01*
X134840116Y-110265346D01*
X134849121Y-110243606D01*
X134997940Y-110292455D01*
X135880395Y-109410000D01*
X136239605Y-109410000D01*
X137122060Y-110292455D01*
X137375953Y-110209116D01*
X137403274Y-110134126D01*
X150685000Y-110134126D01*
X150685000Y-110545874D01*
X150842569Y-110926280D01*
X151133720Y-111217431D01*
X151514126Y-111375000D01*
X151925874Y-111375000D01*
X152306280Y-111217431D01*
X152597431Y-110926280D01*
X152755000Y-110545874D01*
X152755000Y-110134126D01*
X152597431Y-109753720D01*
X152306280Y-109462569D01*
X151925874Y-109305000D01*
X151514126Y-109305000D01*
X151133720Y-109462569D01*
X150842569Y-109753720D01*
X150685000Y-110134126D01*
X137403274Y-110134126D01*
X137581590Y-109644694D01*
X137555579Y-109044542D01*
X137375953Y-108610884D01*
X137122060Y-108527545D01*
X136239605Y-109410000D01*
X135880395Y-109410000D01*
X134997940Y-108527545D01*
X134849121Y-108576394D01*
X134840116Y-108554654D01*
X134633402Y-108347940D01*
X135177545Y-108347940D01*
X136060000Y-109230395D01*
X136903269Y-108387126D01*
X145675000Y-108387126D01*
X145675000Y-108798874D01*
X145832569Y-109179280D01*
X146123720Y-109470431D01*
X146504126Y-109628000D01*
X146915874Y-109628000D01*
X147296280Y-109470431D01*
X147587431Y-109179280D01*
X147742824Y-108804126D01*
X154635000Y-108804126D01*
X154635000Y-109215874D01*
X154792569Y-109596280D01*
X155083720Y-109887431D01*
X155464126Y-110045000D01*
X155875874Y-110045000D01*
X156256280Y-109887431D01*
X156547431Y-109596280D01*
X156705000Y-109215874D01*
X156705000Y-108804126D01*
X156547431Y-108423720D01*
X156256280Y-108132569D01*
X155875874Y-107975000D01*
X155464126Y-107975000D01*
X155083720Y-108132569D01*
X154792569Y-108423720D01*
X154635000Y-108804126D01*
X147742824Y-108804126D01*
X147745000Y-108798874D01*
X147745000Y-108387126D01*
X147587431Y-108006720D01*
X147296280Y-107715569D01*
X146915874Y-107558000D01*
X146504126Y-107558000D01*
X146123720Y-107715569D01*
X145832569Y-108006720D01*
X145675000Y-108387126D01*
X136903269Y-108387126D01*
X136942455Y-108347940D01*
X136859116Y-108094047D01*
X136294694Y-107888410D01*
X135694542Y-107914421D01*
X135260884Y-108094047D01*
X135177545Y-108347940D01*
X134633402Y-108347940D01*
X134415346Y-108129884D01*
X133860358Y-107900000D01*
X133259642Y-107900000D01*
X132704654Y-108129884D01*
X132310000Y-108524538D01*
X131915346Y-108129884D01*
X131360358Y-107900000D01*
X130759642Y-107900000D01*
X130204654Y-108129884D01*
X129779884Y-108554654D01*
X129550000Y-109109642D01*
X122604349Y-109109642D01*
X122510625Y-108969375D01*
X122212239Y-108770000D01*
X122510625Y-108570625D01*
X122838839Y-108079418D01*
X122954092Y-107500000D01*
X122838839Y-106920582D01*
X122510625Y-106429375D01*
X122212239Y-106230000D01*
X122510625Y-106030625D01*
X122838839Y-105539418D01*
X122954092Y-104960000D01*
X122895342Y-104664642D01*
X129550000Y-104664642D01*
X129550000Y-105265358D01*
X129779884Y-105820346D01*
X130204654Y-106245116D01*
X130759642Y-106475000D01*
X131360358Y-106475000D01*
X131915346Y-106245116D01*
X132310000Y-105850462D01*
X132704654Y-106245116D01*
X133259642Y-106475000D01*
X133860358Y-106475000D01*
X134415346Y-106245116D01*
X134633402Y-106027060D01*
X135177545Y-106027060D01*
X135260884Y-106280953D01*
X135825306Y-106486590D01*
X136425458Y-106460579D01*
X136859116Y-106280953D01*
X136942455Y-106027060D01*
X136060000Y-105144605D01*
X135177545Y-106027060D01*
X134633402Y-106027060D01*
X134840116Y-105820346D01*
X134849121Y-105798606D01*
X134997940Y-105847455D01*
X135880395Y-104965000D01*
X136239605Y-104965000D01*
X137122060Y-105847455D01*
X137375953Y-105764116D01*
X137581590Y-105199694D01*
X137555579Y-104599542D01*
X137375953Y-104165884D01*
X137122060Y-104082545D01*
X136239605Y-104965000D01*
X135880395Y-104965000D01*
X134997940Y-104082545D01*
X134849121Y-104131394D01*
X134840116Y-104109654D01*
X134633402Y-103902940D01*
X135177545Y-103902940D01*
X136060000Y-104785395D01*
X136903269Y-103942126D01*
X145675000Y-103942126D01*
X145675000Y-104353874D01*
X145832569Y-104734280D01*
X146123720Y-105025431D01*
X146504126Y-105183000D01*
X146915874Y-105183000D01*
X147296280Y-105025431D01*
X147587431Y-104734280D01*
X147745000Y-104353874D01*
X147745000Y-103942126D01*
X147587431Y-103561720D01*
X147296280Y-103270569D01*
X146915874Y-103113000D01*
X146504126Y-103113000D01*
X146123720Y-103270569D01*
X145832569Y-103561720D01*
X145675000Y-103942126D01*
X136903269Y-103942126D01*
X136942455Y-103902940D01*
X136859116Y-103649047D01*
X136294694Y-103443410D01*
X135694542Y-103469421D01*
X135260884Y-103649047D01*
X135177545Y-103902940D01*
X134633402Y-103902940D01*
X134415346Y-103684884D01*
X133860358Y-103455000D01*
X133259642Y-103455000D01*
X132704654Y-103684884D01*
X132310000Y-104079538D01*
X131915346Y-103684884D01*
X131360358Y-103455000D01*
X130759642Y-103455000D01*
X130204654Y-103684884D01*
X129779884Y-104109654D01*
X129550000Y-104664642D01*
X122895342Y-104664642D01*
X122838839Y-104380582D01*
X122510625Y-103889375D01*
X122212239Y-103690000D01*
X122510625Y-103490625D01*
X122838839Y-102999418D01*
X122954092Y-102420000D01*
X122838839Y-101840582D01*
X122510625Y-101349375D01*
X122212239Y-101150000D01*
X122510625Y-100950625D01*
X122838839Y-100459418D01*
X122886533Y-100219642D01*
X129550000Y-100219642D01*
X129550000Y-100820358D01*
X129779884Y-101375346D01*
X130204654Y-101800116D01*
X130759642Y-102030000D01*
X131360358Y-102030000D01*
X131915346Y-101800116D01*
X132310000Y-101405462D01*
X132704654Y-101800116D01*
X133259642Y-102030000D01*
X133860358Y-102030000D01*
X134415346Y-101800116D01*
X134633402Y-101582060D01*
X135177545Y-101582060D01*
X135260884Y-101835953D01*
X135825306Y-102041590D01*
X136425458Y-102015579D01*
X136859116Y-101835953D01*
X136942455Y-101582060D01*
X136060000Y-100699605D01*
X135177545Y-101582060D01*
X134633402Y-101582060D01*
X134840116Y-101375346D01*
X134849121Y-101353606D01*
X134997940Y-101402455D01*
X135880395Y-100520000D01*
X136239605Y-100520000D01*
X137122060Y-101402455D01*
X137375953Y-101319116D01*
X137581590Y-100754694D01*
X137555579Y-100154542D01*
X137375953Y-99720884D01*
X137122060Y-99637545D01*
X136239605Y-100520000D01*
X135880395Y-100520000D01*
X134997940Y-99637545D01*
X134849121Y-99686394D01*
X134840116Y-99664654D01*
X134633402Y-99457940D01*
X135177545Y-99457940D01*
X136060000Y-100340395D01*
X136903269Y-99497126D01*
X145675000Y-99497126D01*
X145675000Y-99908874D01*
X145832569Y-100289280D01*
X146123720Y-100580431D01*
X146504126Y-100738000D01*
X146915874Y-100738000D01*
X147142506Y-100644126D01*
X156595000Y-100644126D01*
X156595000Y-101055874D01*
X156752569Y-101436280D01*
X157043720Y-101727431D01*
X157424126Y-101885000D01*
X157835874Y-101885000D01*
X158216280Y-101727431D01*
X158507431Y-101436280D01*
X158665000Y-101055874D01*
X158665000Y-100644126D01*
X158507431Y-100263720D01*
X158216280Y-99972569D01*
X157835874Y-99815000D01*
X157424126Y-99815000D01*
X157043720Y-99972569D01*
X156752569Y-100263720D01*
X156595000Y-100644126D01*
X147142506Y-100644126D01*
X147296280Y-100580431D01*
X147587431Y-100289280D01*
X147745000Y-99908874D01*
X147745000Y-99497126D01*
X147587431Y-99116720D01*
X147296280Y-98825569D01*
X146915874Y-98668000D01*
X146504126Y-98668000D01*
X146123720Y-98825569D01*
X145832569Y-99116720D01*
X145675000Y-99497126D01*
X136903269Y-99497126D01*
X136942455Y-99457940D01*
X136859116Y-99204047D01*
X136294694Y-98998410D01*
X135694542Y-99024421D01*
X135260884Y-99204047D01*
X135177545Y-99457940D01*
X134633402Y-99457940D01*
X134415346Y-99239884D01*
X133860358Y-99010000D01*
X133259642Y-99010000D01*
X132704654Y-99239884D01*
X132310000Y-99634538D01*
X131915346Y-99239884D01*
X131360358Y-99010000D01*
X130759642Y-99010000D01*
X130204654Y-99239884D01*
X129779884Y-99664654D01*
X129550000Y-100219642D01*
X122886533Y-100219642D01*
X122954092Y-99880000D01*
X122838839Y-99300582D01*
X122510625Y-98809375D01*
X122212239Y-98610000D01*
X122510625Y-98410625D01*
X122838839Y-97919418D01*
X122954092Y-97340000D01*
X122838839Y-96760582D01*
X122510625Y-96269375D01*
X122492381Y-96257184D01*
X122537765Y-96248157D01*
X122747809Y-96107809D01*
X122888157Y-95897765D01*
X122912647Y-95774642D01*
X129550000Y-95774642D01*
X129550000Y-96375358D01*
X129779884Y-96930346D01*
X130204654Y-97355116D01*
X130759642Y-97585000D01*
X131360358Y-97585000D01*
X131915346Y-97355116D01*
X132310000Y-96960462D01*
X132704654Y-97355116D01*
X133259642Y-97585000D01*
X133860358Y-97585000D01*
X134415346Y-97355116D01*
X134633402Y-97137060D01*
X135177545Y-97137060D01*
X135260884Y-97390953D01*
X135825306Y-97596590D01*
X136425458Y-97570579D01*
X136859116Y-97390953D01*
X136942455Y-97137060D01*
X136060000Y-96254605D01*
X135177545Y-97137060D01*
X134633402Y-97137060D01*
X134840116Y-96930346D01*
X134849121Y-96908606D01*
X134997940Y-96957455D01*
X135880395Y-96075000D01*
X136239605Y-96075000D01*
X137122060Y-96957455D01*
X137375953Y-96874116D01*
X137581590Y-96309694D01*
X137555579Y-95709542D01*
X137375953Y-95275884D01*
X137122060Y-95192545D01*
X136239605Y-96075000D01*
X135880395Y-96075000D01*
X134997940Y-95192545D01*
X134849121Y-95241394D01*
X134840116Y-95219654D01*
X134633402Y-95012940D01*
X135177545Y-95012940D01*
X136060000Y-95895395D01*
X136942455Y-95012940D01*
X136859116Y-94759047D01*
X136294694Y-94553410D01*
X135694542Y-94579421D01*
X135260884Y-94759047D01*
X135177545Y-95012940D01*
X134633402Y-95012940D01*
X134415346Y-94794884D01*
X133860358Y-94565000D01*
X133259642Y-94565000D01*
X132704654Y-94794884D01*
X132310000Y-95189538D01*
X131915346Y-94794884D01*
X131360358Y-94565000D01*
X130759642Y-94565000D01*
X130204654Y-94794884D01*
X129779884Y-95219654D01*
X129550000Y-95774642D01*
X122912647Y-95774642D01*
X122937440Y-95650000D01*
X122937440Y-93950000D01*
X122888157Y-93702235D01*
X122747809Y-93492191D01*
X122537765Y-93351843D01*
X122290000Y-93302560D01*
X120590000Y-93302560D01*
X120342235Y-93351843D01*
X120132191Y-93492191D01*
X119991843Y-93702235D01*
X119942560Y-93950000D01*
X119942560Y-95650000D01*
X119991843Y-95897765D01*
X120132191Y-96107809D01*
X120342235Y-96248157D01*
X120387619Y-96257184D01*
X120369375Y-96269375D01*
X120041161Y-96760582D01*
X119925908Y-97340000D01*
X119234621Y-97340000D01*
X119231288Y-91329642D01*
X129550000Y-91329642D01*
X129550000Y-91930358D01*
X129779884Y-92485346D01*
X130204654Y-92910116D01*
X130759642Y-93140000D01*
X131360358Y-93140000D01*
X131915346Y-92910116D01*
X132310000Y-92515462D01*
X132704654Y-92910116D01*
X133259642Y-93140000D01*
X133860358Y-93140000D01*
X134415346Y-92910116D01*
X134633402Y-92692060D01*
X135177545Y-92692060D01*
X135260884Y-92945953D01*
X135825306Y-93151590D01*
X136425458Y-93125579D01*
X136859116Y-92945953D01*
X136942455Y-92692060D01*
X136060000Y-91809605D01*
X135177545Y-92692060D01*
X134633402Y-92692060D01*
X134840116Y-92485346D01*
X134849121Y-92463606D01*
X134997940Y-92512455D01*
X135880395Y-91630000D01*
X136239605Y-91630000D01*
X137122060Y-92512455D01*
X137375953Y-92429116D01*
X137581590Y-91864694D01*
X137555579Y-91264542D01*
X137375953Y-90830884D01*
X137122060Y-90747545D01*
X136239605Y-91630000D01*
X135880395Y-91630000D01*
X134997940Y-90747545D01*
X134849121Y-90796394D01*
X134840116Y-90774654D01*
X134633402Y-90567940D01*
X135177545Y-90567940D01*
X136060000Y-91450395D01*
X136942455Y-90567940D01*
X136859116Y-90314047D01*
X136294694Y-90108410D01*
X135694542Y-90134421D01*
X135260884Y-90314047D01*
X135177545Y-90567940D01*
X134633402Y-90567940D01*
X134415346Y-90349884D01*
X133860358Y-90120000D01*
X133259642Y-90120000D01*
X132704654Y-90349884D01*
X132310000Y-90744538D01*
X131915346Y-90349884D01*
X131360358Y-90120000D01*
X130759642Y-90120000D01*
X130204654Y-90349884D01*
X129779884Y-90774654D01*
X129550000Y-91329642D01*
X119231288Y-91329642D01*
X119228219Y-85798680D01*
X130435622Y-85809214D01*
X130435622Y-85809214D01*
G37*
X130435622Y-85809214D02*
X130204654Y-85904884D01*
X129779884Y-86329654D01*
X129550000Y-86884642D01*
X129550000Y-87485358D01*
X129779884Y-88040346D01*
X130204654Y-88465116D01*
X130759642Y-88695000D01*
X131360358Y-88695000D01*
X131915346Y-88465116D01*
X132310000Y-88070462D01*
X132704654Y-88465116D01*
X133259642Y-88695000D01*
X133860358Y-88695000D01*
X134415346Y-88465116D01*
X134633402Y-88247060D01*
X135177545Y-88247060D01*
X135260884Y-88500953D01*
X135825306Y-88706590D01*
X136425458Y-88680579D01*
X136859116Y-88500953D01*
X136942455Y-88247060D01*
X136060000Y-87364605D01*
X135177545Y-88247060D01*
X134633402Y-88247060D01*
X134840116Y-88040346D01*
X134849121Y-88018606D01*
X134997940Y-88067455D01*
X135880395Y-87185000D01*
X136239605Y-87185000D01*
X137122060Y-88067455D01*
X137375953Y-87984116D01*
X137581590Y-87419694D01*
X137555579Y-86819542D01*
X137375953Y-86385884D01*
X137122060Y-86302545D01*
X136239605Y-87185000D01*
X135880395Y-87185000D01*
X134997940Y-86302545D01*
X134849121Y-86351394D01*
X134840116Y-86329654D01*
X134415346Y-85904884D01*
X134192903Y-85812745D01*
X135394085Y-85813874D01*
X135260884Y-85869047D01*
X135177545Y-86122940D01*
X136060000Y-87005395D01*
X136942455Y-86122940D01*
X136859116Y-85869047D01*
X136711077Y-85815112D01*
X138591593Y-85816879D01*
X138563008Y-88408599D01*
X138572138Y-88457304D01*
X138599212Y-88498807D01*
X138640108Y-88526790D01*
X138690000Y-88537000D01*
X146554270Y-88537000D01*
X146566742Y-89778000D01*
X146504126Y-89778000D01*
X146123720Y-89935569D01*
X145832569Y-90226720D01*
X145675000Y-90607126D01*
X145675000Y-91018874D01*
X145832569Y-91399280D01*
X146123720Y-91690431D01*
X146504126Y-91848000D01*
X146587546Y-91848000D01*
X146611415Y-94223000D01*
X146504126Y-94223000D01*
X146123720Y-94380569D01*
X145832569Y-94671720D01*
X145675000Y-95052126D01*
X145675000Y-95463874D01*
X145832569Y-95844280D01*
X146123720Y-96135431D01*
X146504126Y-96293000D01*
X146915874Y-96293000D01*
X147296280Y-96135431D01*
X147587431Y-95844280D01*
X147745000Y-95463874D01*
X147745000Y-95052126D01*
X147587431Y-94671720D01*
X147422243Y-94506532D01*
X161183000Y-94497087D01*
X161183000Y-97010000D01*
X161192667Y-97058601D01*
X161220197Y-97099803D01*
X161261399Y-97127333D01*
X161309742Y-97137000D01*
X166101170Y-97146739D01*
X166059467Y-100055000D01*
X165874126Y-100055000D01*
X165493720Y-100212569D01*
X165202569Y-100503720D01*
X165045000Y-100884126D01*
X165045000Y-101295874D01*
X165202569Y-101676280D01*
X165493720Y-101967431D01*
X165874126Y-102125000D01*
X166029783Y-102125000D01*
X166017229Y-103000536D01*
X165665874Y-102855000D01*
X165254126Y-102855000D01*
X164873720Y-103012569D01*
X164582569Y-103303720D01*
X164425000Y-103684126D01*
X164425000Y-104095874D01*
X164582569Y-104476280D01*
X164862120Y-104755831D01*
X164483720Y-104912569D01*
X164192569Y-105203720D01*
X164035000Y-105584126D01*
X164035000Y-105995874D01*
X164192569Y-106376280D01*
X164376289Y-106560000D01*
X164232569Y-106703720D01*
X164075000Y-107084126D01*
X164075000Y-107495874D01*
X164232569Y-107876280D01*
X164523720Y-108167431D01*
X164904126Y-108325000D01*
X165315874Y-108325000D01*
X165383814Y-108296858D01*
X165412569Y-108366280D01*
X165703720Y-108657431D01*
X165934738Y-108753122D01*
X165914817Y-110142370D01*
X164050638Y-110133002D01*
X164001989Y-110142425D01*
X163960650Y-110169747D01*
X163932913Y-110210810D01*
X163923000Y-110259689D01*
X163915667Y-113249524D01*
X163925215Y-113298148D01*
X163952644Y-113339417D01*
X163993779Y-113367048D01*
X164041750Y-113376832D01*
X166025321Y-113391154D01*
X166097145Y-113439146D01*
X166540000Y-113527235D01*
X166982854Y-113439146D01*
X167043674Y-113398507D01*
X176404702Y-113466099D01*
X176451258Y-116892617D01*
X169850377Y-116873001D01*
X169801748Y-116882523D01*
X169760465Y-116909931D01*
X169732812Y-116951051D01*
X169723000Y-117000000D01*
X169723000Y-126728019D01*
X120936521Y-126690044D01*
X120466285Y-126630180D01*
X120073987Y-126469645D01*
X119736601Y-126213044D01*
X119477126Y-125877864D01*
X119313242Y-125486948D01*
X119249973Y-125021742D01*
X119248955Y-123185431D01*
X120415000Y-123185431D01*
X120415000Y-124074569D01*
X120755259Y-124896026D01*
X121383974Y-125524741D01*
X122205431Y-125865000D01*
X123094569Y-125865000D01*
X123916026Y-125524741D01*
X124544741Y-124896026D01*
X124754706Y-124389126D01*
X145675000Y-124389126D01*
X145675000Y-124800874D01*
X145832569Y-125181280D01*
X146123720Y-125472431D01*
X146504126Y-125630000D01*
X146915874Y-125630000D01*
X147296280Y-125472431D01*
X147587431Y-125181280D01*
X147745000Y-124800874D01*
X147745000Y-124389126D01*
X147587431Y-124008720D01*
X147296280Y-123717569D01*
X146915874Y-123560000D01*
X146504126Y-123560000D01*
X146123720Y-123717569D01*
X145832569Y-124008720D01*
X145675000Y-124389126D01*
X124754706Y-124389126D01*
X124885000Y-124074569D01*
X124885000Y-123185431D01*
X124578155Y-122444642D01*
X129605880Y-122444642D01*
X129605880Y-123045358D01*
X129835764Y-123600346D01*
X130260534Y-124025116D01*
X130815522Y-124255000D01*
X131416238Y-124255000D01*
X131971226Y-124025116D01*
X132365880Y-123630462D01*
X132760534Y-124025116D01*
X133315522Y-124255000D01*
X133916238Y-124255000D01*
X134471226Y-124025116D01*
X134689282Y-123807060D01*
X135233425Y-123807060D01*
X135316764Y-124060953D01*
X135881186Y-124266590D01*
X136481338Y-124240579D01*
X136914996Y-124060953D01*
X136998335Y-123807060D01*
X136115880Y-122924605D01*
X135233425Y-123807060D01*
X134689282Y-123807060D01*
X134895996Y-123600346D01*
X134905001Y-123578606D01*
X135053820Y-123627455D01*
X135936275Y-122745000D01*
X136295485Y-122745000D01*
X137177940Y-123627455D01*
X137431833Y-123544116D01*
X137637470Y-122979694D01*
X137611459Y-122379542D01*
X137431833Y-121945884D01*
X137177940Y-121862545D01*
X136295485Y-122745000D01*
X135936275Y-122745000D01*
X135053820Y-121862545D01*
X134905001Y-121911394D01*
X134895996Y-121889654D01*
X134689282Y-121682940D01*
X135233425Y-121682940D01*
X136115880Y-122565395D01*
X136998335Y-121682940D01*
X136914996Y-121429047D01*
X136350574Y-121223410D01*
X135750422Y-121249421D01*
X135316764Y-121429047D01*
X135233425Y-121682940D01*
X134689282Y-121682940D01*
X134471226Y-121464884D01*
X133916238Y-121235000D01*
X133315522Y-121235000D01*
X132760534Y-121464884D01*
X132365880Y-121859538D01*
X131971226Y-121464884D01*
X131416238Y-121235000D01*
X130815522Y-121235000D01*
X130260534Y-121464884D01*
X129835764Y-121889654D01*
X129605880Y-122444642D01*
X124578155Y-122444642D01*
X124544741Y-122363974D01*
X123916026Y-121735259D01*
X123094569Y-121395000D01*
X122205431Y-121395000D01*
X121383974Y-121735259D01*
X120755259Y-122363974D01*
X120415000Y-123185431D01*
X119248955Y-123185431D01*
X119246079Y-117999642D01*
X129550000Y-117999642D01*
X129550000Y-118600358D01*
X129779884Y-119155346D01*
X130204654Y-119580116D01*
X130759642Y-119810000D01*
X131360358Y-119810000D01*
X131915346Y-119580116D01*
X132310000Y-119185462D01*
X132704654Y-119580116D01*
X133259642Y-119810000D01*
X133860358Y-119810000D01*
X134415346Y-119580116D01*
X134633402Y-119362060D01*
X135177545Y-119362060D01*
X135260884Y-119615953D01*
X135825306Y-119821590D01*
X136425458Y-119795579D01*
X136859116Y-119615953D01*
X136869563Y-119584126D01*
X156475000Y-119584126D01*
X156475000Y-119995874D01*
X156632569Y-120376280D01*
X156923720Y-120667431D01*
X157304126Y-120825000D01*
X157715874Y-120825000D01*
X158096280Y-120667431D01*
X158387431Y-120376280D01*
X158545000Y-119995874D01*
X158545000Y-119584126D01*
X158387431Y-119203720D01*
X158096280Y-118912569D01*
X157715874Y-118755000D01*
X157304126Y-118755000D01*
X156923720Y-118912569D01*
X156632569Y-119203720D01*
X156475000Y-119584126D01*
X136869563Y-119584126D01*
X136942455Y-119362060D01*
X136060000Y-118479605D01*
X135177545Y-119362060D01*
X134633402Y-119362060D01*
X134840116Y-119155346D01*
X134849121Y-119133606D01*
X134997940Y-119182455D01*
X135880395Y-118300000D01*
X136239605Y-118300000D01*
X137122060Y-119182455D01*
X137375953Y-119099116D01*
X137581590Y-118534694D01*
X137555579Y-117934542D01*
X137375953Y-117500884D01*
X137122060Y-117417545D01*
X136239605Y-118300000D01*
X135880395Y-118300000D01*
X134997940Y-117417545D01*
X134849121Y-117466394D01*
X134840116Y-117444654D01*
X134633402Y-117237940D01*
X135177545Y-117237940D01*
X136060000Y-118120395D01*
X136903269Y-117277126D01*
X145675000Y-117277126D01*
X145675000Y-117688874D01*
X145832569Y-118069280D01*
X146123720Y-118360431D01*
X146504126Y-118518000D01*
X146915874Y-118518000D01*
X147296280Y-118360431D01*
X147587431Y-118069280D01*
X147745000Y-117688874D01*
X147745000Y-117277126D01*
X147587431Y-116896720D01*
X147296280Y-116605569D01*
X146915874Y-116448000D01*
X146504126Y-116448000D01*
X146123720Y-116605569D01*
X145832569Y-116896720D01*
X145675000Y-117277126D01*
X136903269Y-117277126D01*
X136942455Y-117237940D01*
X136859116Y-116984047D01*
X136294694Y-116778410D01*
X135694542Y-116804421D01*
X135260884Y-116984047D01*
X135177545Y-117237940D01*
X134633402Y-117237940D01*
X134415346Y-117019884D01*
X133860358Y-116790000D01*
X133259642Y-116790000D01*
X132704654Y-117019884D01*
X132310000Y-117414538D01*
X131915346Y-117019884D01*
X131360358Y-116790000D01*
X130759642Y-116790000D01*
X130204654Y-117019884D01*
X129779884Y-117444654D01*
X129550000Y-117999642D01*
X119246079Y-117999642D01*
X119234621Y-97340000D01*
X119925908Y-97340000D01*
X120041161Y-97919418D01*
X120369375Y-98410625D01*
X120667761Y-98610000D01*
X120369375Y-98809375D01*
X120041161Y-99300582D01*
X119925908Y-99880000D01*
X120041161Y-100459418D01*
X120369375Y-100950625D01*
X120667761Y-101150000D01*
X120369375Y-101349375D01*
X120041161Y-101840582D01*
X119925908Y-102420000D01*
X120041161Y-102999418D01*
X120369375Y-103490625D01*
X120667761Y-103690000D01*
X120369375Y-103889375D01*
X120041161Y-104380582D01*
X119925908Y-104960000D01*
X120041161Y-105539418D01*
X120369375Y-106030625D01*
X120667761Y-106230000D01*
X120369375Y-106429375D01*
X120041161Y-106920582D01*
X119925908Y-107500000D01*
X120041161Y-108079418D01*
X120369375Y-108570625D01*
X120667761Y-108770000D01*
X120369375Y-108969375D01*
X120041161Y-109460582D01*
X119925908Y-110040000D01*
X120041161Y-110619418D01*
X120369375Y-111110625D01*
X120667761Y-111310000D01*
X120369375Y-111509375D01*
X120041161Y-112000582D01*
X119925908Y-112580000D01*
X120041161Y-113159418D01*
X120369375Y-113650625D01*
X120667761Y-113850000D01*
X120369375Y-114049375D01*
X120041161Y-114540582D01*
X119925908Y-115120000D01*
X120041161Y-115699418D01*
X120369375Y-116190625D01*
X120860582Y-116518839D01*
X121293744Y-116605000D01*
X121586256Y-116605000D01*
X122019418Y-116518839D01*
X122510625Y-116190625D01*
X122838839Y-115699418D01*
X122954092Y-115120000D01*
X122838839Y-114540582D01*
X122510625Y-114049375D01*
X122212239Y-113850000D01*
X122510625Y-113650625D01*
X122574758Y-113554642D01*
X129550000Y-113554642D01*
X129550000Y-114155358D01*
X129779884Y-114710346D01*
X130204654Y-115135116D01*
X130759642Y-115365000D01*
X131360358Y-115365000D01*
X131915346Y-115135116D01*
X132310000Y-114740462D01*
X132704654Y-115135116D01*
X133259642Y-115365000D01*
X133860358Y-115365000D01*
X134415346Y-115135116D01*
X134633402Y-114917060D01*
X135177545Y-114917060D01*
X135260884Y-115170953D01*
X135825306Y-115376590D01*
X136425458Y-115350579D01*
X136859116Y-115170953D01*
X136942455Y-114917060D01*
X136060000Y-114034605D01*
X135177545Y-114917060D01*
X134633402Y-114917060D01*
X134840116Y-114710346D01*
X134849121Y-114688606D01*
X134997940Y-114737455D01*
X135880395Y-113855000D01*
X136239605Y-113855000D01*
X137122060Y-114737455D01*
X137375953Y-114654116D01*
X137581590Y-114089694D01*
X137555579Y-113489542D01*
X137375953Y-113055884D01*
X137122060Y-112972545D01*
X136239605Y-113855000D01*
X135880395Y-113855000D01*
X134997940Y-112972545D01*
X134849121Y-113021394D01*
X134840116Y-112999654D01*
X134633402Y-112792940D01*
X135177545Y-112792940D01*
X136060000Y-113675395D01*
X136903269Y-112832126D01*
X145675000Y-112832126D01*
X145675000Y-113243874D01*
X145832569Y-113624280D01*
X146123720Y-113915431D01*
X146504126Y-114073000D01*
X146915874Y-114073000D01*
X147296280Y-113915431D01*
X147587431Y-113624280D01*
X147745000Y-113243874D01*
X147745000Y-112832126D01*
X147587431Y-112451720D01*
X147296280Y-112160569D01*
X146915874Y-112003000D01*
X146504126Y-112003000D01*
X146123720Y-112160569D01*
X145832569Y-112451720D01*
X145675000Y-112832126D01*
X136903269Y-112832126D01*
X136942455Y-112792940D01*
X136859116Y-112539047D01*
X136294694Y-112333410D01*
X135694542Y-112359421D01*
X135260884Y-112539047D01*
X135177545Y-112792940D01*
X134633402Y-112792940D01*
X134415346Y-112574884D01*
X133860358Y-112345000D01*
X133259642Y-112345000D01*
X132704654Y-112574884D01*
X132310000Y-112969538D01*
X131915346Y-112574884D01*
X131360358Y-112345000D01*
X130759642Y-112345000D01*
X130204654Y-112574884D01*
X129779884Y-112999654D01*
X129550000Y-113554642D01*
X122574758Y-113554642D01*
X122838839Y-113159418D01*
X122954092Y-112580000D01*
X122838839Y-112000582D01*
X122510625Y-111509375D01*
X122212239Y-111310000D01*
X122510625Y-111110625D01*
X122838839Y-110619418D01*
X122954092Y-110040000D01*
X122838839Y-109460582D01*
X122604349Y-109109642D01*
X129550000Y-109109642D01*
X129550000Y-109710358D01*
X129779884Y-110265346D01*
X130204654Y-110690116D01*
X130759642Y-110920000D01*
X131360358Y-110920000D01*
X131915346Y-110690116D01*
X132310000Y-110295462D01*
X132704654Y-110690116D01*
X133259642Y-110920000D01*
X133860358Y-110920000D01*
X134415346Y-110690116D01*
X134633402Y-110472060D01*
X135177545Y-110472060D01*
X135260884Y-110725953D01*
X135825306Y-110931590D01*
X136425458Y-110905579D01*
X136859116Y-110725953D01*
X136942455Y-110472060D01*
X136060000Y-109589605D01*
X135177545Y-110472060D01*
X134633402Y-110472060D01*
X134840116Y-110265346D01*
X134849121Y-110243606D01*
X134997940Y-110292455D01*
X135880395Y-109410000D01*
X136239605Y-109410000D01*
X137122060Y-110292455D01*
X137375953Y-110209116D01*
X137403274Y-110134126D01*
X150685000Y-110134126D01*
X150685000Y-110545874D01*
X150842569Y-110926280D01*
X151133720Y-111217431D01*
X151514126Y-111375000D01*
X151925874Y-111375000D01*
X152306280Y-111217431D01*
X152597431Y-110926280D01*
X152755000Y-110545874D01*
X152755000Y-110134126D01*
X152597431Y-109753720D01*
X152306280Y-109462569D01*
X151925874Y-109305000D01*
X151514126Y-109305000D01*
X151133720Y-109462569D01*
X150842569Y-109753720D01*
X150685000Y-110134126D01*
X137403274Y-110134126D01*
X137581590Y-109644694D01*
X137555579Y-109044542D01*
X137375953Y-108610884D01*
X137122060Y-108527545D01*
X136239605Y-109410000D01*
X135880395Y-109410000D01*
X134997940Y-108527545D01*
X134849121Y-108576394D01*
X134840116Y-108554654D01*
X134633402Y-108347940D01*
X135177545Y-108347940D01*
X136060000Y-109230395D01*
X136903269Y-108387126D01*
X145675000Y-108387126D01*
X145675000Y-108798874D01*
X145832569Y-109179280D01*
X146123720Y-109470431D01*
X146504126Y-109628000D01*
X146915874Y-109628000D01*
X147296280Y-109470431D01*
X147587431Y-109179280D01*
X147742824Y-108804126D01*
X154635000Y-108804126D01*
X154635000Y-109215874D01*
X154792569Y-109596280D01*
X155083720Y-109887431D01*
X155464126Y-110045000D01*
X155875874Y-110045000D01*
X156256280Y-109887431D01*
X156547431Y-109596280D01*
X156705000Y-109215874D01*
X156705000Y-108804126D01*
X156547431Y-108423720D01*
X156256280Y-108132569D01*
X155875874Y-107975000D01*
X155464126Y-107975000D01*
X155083720Y-108132569D01*
X154792569Y-108423720D01*
X154635000Y-108804126D01*
X147742824Y-108804126D01*
X147745000Y-108798874D01*
X147745000Y-108387126D01*
X147587431Y-108006720D01*
X147296280Y-107715569D01*
X146915874Y-107558000D01*
X146504126Y-107558000D01*
X146123720Y-107715569D01*
X145832569Y-108006720D01*
X145675000Y-108387126D01*
X136903269Y-108387126D01*
X136942455Y-108347940D01*
X136859116Y-108094047D01*
X136294694Y-107888410D01*
X135694542Y-107914421D01*
X135260884Y-108094047D01*
X135177545Y-108347940D01*
X134633402Y-108347940D01*
X134415346Y-108129884D01*
X133860358Y-107900000D01*
X133259642Y-107900000D01*
X132704654Y-108129884D01*
X132310000Y-108524538D01*
X131915346Y-108129884D01*
X131360358Y-107900000D01*
X130759642Y-107900000D01*
X130204654Y-108129884D01*
X129779884Y-108554654D01*
X129550000Y-109109642D01*
X122604349Y-109109642D01*
X122510625Y-108969375D01*
X122212239Y-108770000D01*
X122510625Y-108570625D01*
X122838839Y-108079418D01*
X122954092Y-107500000D01*
X122838839Y-106920582D01*
X122510625Y-106429375D01*
X122212239Y-106230000D01*
X122510625Y-106030625D01*
X122838839Y-105539418D01*
X122954092Y-104960000D01*
X122895342Y-104664642D01*
X129550000Y-104664642D01*
X129550000Y-105265358D01*
X129779884Y-105820346D01*
X130204654Y-106245116D01*
X130759642Y-106475000D01*
X131360358Y-106475000D01*
X131915346Y-106245116D01*
X132310000Y-105850462D01*
X132704654Y-106245116D01*
X133259642Y-106475000D01*
X133860358Y-106475000D01*
X134415346Y-106245116D01*
X134633402Y-106027060D01*
X135177545Y-106027060D01*
X135260884Y-106280953D01*
X135825306Y-106486590D01*
X136425458Y-106460579D01*
X136859116Y-106280953D01*
X136942455Y-106027060D01*
X136060000Y-105144605D01*
X135177545Y-106027060D01*
X134633402Y-106027060D01*
X134840116Y-105820346D01*
X134849121Y-105798606D01*
X134997940Y-105847455D01*
X135880395Y-104965000D01*
X136239605Y-104965000D01*
X137122060Y-105847455D01*
X137375953Y-105764116D01*
X137581590Y-105199694D01*
X137555579Y-104599542D01*
X137375953Y-104165884D01*
X137122060Y-104082545D01*
X136239605Y-104965000D01*
X135880395Y-104965000D01*
X134997940Y-104082545D01*
X134849121Y-104131394D01*
X134840116Y-104109654D01*
X134633402Y-103902940D01*
X135177545Y-103902940D01*
X136060000Y-104785395D01*
X136903269Y-103942126D01*
X145675000Y-103942126D01*
X145675000Y-104353874D01*
X145832569Y-104734280D01*
X146123720Y-105025431D01*
X146504126Y-105183000D01*
X146915874Y-105183000D01*
X147296280Y-105025431D01*
X147587431Y-104734280D01*
X147745000Y-104353874D01*
X147745000Y-103942126D01*
X147587431Y-103561720D01*
X147296280Y-103270569D01*
X146915874Y-103113000D01*
X146504126Y-103113000D01*
X146123720Y-103270569D01*
X145832569Y-103561720D01*
X145675000Y-103942126D01*
X136903269Y-103942126D01*
X136942455Y-103902940D01*
X136859116Y-103649047D01*
X136294694Y-103443410D01*
X135694542Y-103469421D01*
X135260884Y-103649047D01*
X135177545Y-103902940D01*
X134633402Y-103902940D01*
X134415346Y-103684884D01*
X133860358Y-103455000D01*
X133259642Y-103455000D01*
X132704654Y-103684884D01*
X132310000Y-104079538D01*
X131915346Y-103684884D01*
X131360358Y-103455000D01*
X130759642Y-103455000D01*
X130204654Y-103684884D01*
X129779884Y-104109654D01*
X129550000Y-104664642D01*
X122895342Y-104664642D01*
X122838839Y-104380582D01*
X122510625Y-103889375D01*
X122212239Y-103690000D01*
X122510625Y-103490625D01*
X122838839Y-102999418D01*
X122954092Y-102420000D01*
X122838839Y-101840582D01*
X122510625Y-101349375D01*
X122212239Y-101150000D01*
X122510625Y-100950625D01*
X122838839Y-100459418D01*
X122886533Y-100219642D01*
X129550000Y-100219642D01*
X129550000Y-100820358D01*
X129779884Y-101375346D01*
X130204654Y-101800116D01*
X130759642Y-102030000D01*
X131360358Y-102030000D01*
X131915346Y-101800116D01*
X132310000Y-101405462D01*
X132704654Y-101800116D01*
X133259642Y-102030000D01*
X133860358Y-102030000D01*
X134415346Y-101800116D01*
X134633402Y-101582060D01*
X135177545Y-101582060D01*
X135260884Y-101835953D01*
X135825306Y-102041590D01*
X136425458Y-102015579D01*
X136859116Y-101835953D01*
X136942455Y-101582060D01*
X136060000Y-100699605D01*
X135177545Y-101582060D01*
X134633402Y-101582060D01*
X134840116Y-101375346D01*
X134849121Y-101353606D01*
X134997940Y-101402455D01*
X135880395Y-100520000D01*
X136239605Y-100520000D01*
X137122060Y-101402455D01*
X137375953Y-101319116D01*
X137581590Y-100754694D01*
X137555579Y-100154542D01*
X137375953Y-99720884D01*
X137122060Y-99637545D01*
X136239605Y-100520000D01*
X135880395Y-100520000D01*
X134997940Y-99637545D01*
X134849121Y-99686394D01*
X134840116Y-99664654D01*
X134633402Y-99457940D01*
X135177545Y-99457940D01*
X136060000Y-100340395D01*
X136903269Y-99497126D01*
X145675000Y-99497126D01*
X145675000Y-99908874D01*
X145832569Y-100289280D01*
X146123720Y-100580431D01*
X146504126Y-100738000D01*
X146915874Y-100738000D01*
X147142506Y-100644126D01*
X156595000Y-100644126D01*
X156595000Y-101055874D01*
X156752569Y-101436280D01*
X157043720Y-101727431D01*
X157424126Y-101885000D01*
X157835874Y-101885000D01*
X158216280Y-101727431D01*
X158507431Y-101436280D01*
X158665000Y-101055874D01*
X158665000Y-100644126D01*
X158507431Y-100263720D01*
X158216280Y-99972569D01*
X157835874Y-99815000D01*
X157424126Y-99815000D01*
X157043720Y-99972569D01*
X156752569Y-100263720D01*
X156595000Y-100644126D01*
X147142506Y-100644126D01*
X147296280Y-100580431D01*
X147587431Y-100289280D01*
X147745000Y-99908874D01*
X147745000Y-99497126D01*
X147587431Y-99116720D01*
X147296280Y-98825569D01*
X146915874Y-98668000D01*
X146504126Y-98668000D01*
X146123720Y-98825569D01*
X145832569Y-99116720D01*
X145675000Y-99497126D01*
X136903269Y-99497126D01*
X136942455Y-99457940D01*
X136859116Y-99204047D01*
X136294694Y-98998410D01*
X135694542Y-99024421D01*
X135260884Y-99204047D01*
X135177545Y-99457940D01*
X134633402Y-99457940D01*
X134415346Y-99239884D01*
X133860358Y-99010000D01*
X133259642Y-99010000D01*
X132704654Y-99239884D01*
X132310000Y-99634538D01*
X131915346Y-99239884D01*
X131360358Y-99010000D01*
X130759642Y-99010000D01*
X130204654Y-99239884D01*
X129779884Y-99664654D01*
X129550000Y-100219642D01*
X122886533Y-100219642D01*
X122954092Y-99880000D01*
X122838839Y-99300582D01*
X122510625Y-98809375D01*
X122212239Y-98610000D01*
X122510625Y-98410625D01*
X122838839Y-97919418D01*
X122954092Y-97340000D01*
X122838839Y-96760582D01*
X122510625Y-96269375D01*
X122492381Y-96257184D01*
X122537765Y-96248157D01*
X122747809Y-96107809D01*
X122888157Y-95897765D01*
X122912647Y-95774642D01*
X129550000Y-95774642D01*
X129550000Y-96375358D01*
X129779884Y-96930346D01*
X130204654Y-97355116D01*
X130759642Y-97585000D01*
X131360358Y-97585000D01*
X131915346Y-97355116D01*
X132310000Y-96960462D01*
X132704654Y-97355116D01*
X133259642Y-97585000D01*
X133860358Y-97585000D01*
X134415346Y-97355116D01*
X134633402Y-97137060D01*
X135177545Y-97137060D01*
X135260884Y-97390953D01*
X135825306Y-97596590D01*
X136425458Y-97570579D01*
X136859116Y-97390953D01*
X136942455Y-97137060D01*
X136060000Y-96254605D01*
X135177545Y-97137060D01*
X134633402Y-97137060D01*
X134840116Y-96930346D01*
X134849121Y-96908606D01*
X134997940Y-96957455D01*
X135880395Y-96075000D01*
X136239605Y-96075000D01*
X137122060Y-96957455D01*
X137375953Y-96874116D01*
X137581590Y-96309694D01*
X137555579Y-95709542D01*
X137375953Y-95275884D01*
X137122060Y-95192545D01*
X136239605Y-96075000D01*
X135880395Y-96075000D01*
X134997940Y-95192545D01*
X134849121Y-95241394D01*
X134840116Y-95219654D01*
X134633402Y-95012940D01*
X135177545Y-95012940D01*
X136060000Y-95895395D01*
X136942455Y-95012940D01*
X136859116Y-94759047D01*
X136294694Y-94553410D01*
X135694542Y-94579421D01*
X135260884Y-94759047D01*
X135177545Y-95012940D01*
X134633402Y-95012940D01*
X134415346Y-94794884D01*
X133860358Y-94565000D01*
X133259642Y-94565000D01*
X132704654Y-94794884D01*
X132310000Y-95189538D01*
X131915346Y-94794884D01*
X131360358Y-94565000D01*
X130759642Y-94565000D01*
X130204654Y-94794884D01*
X129779884Y-95219654D01*
X129550000Y-95774642D01*
X122912647Y-95774642D01*
X122937440Y-95650000D01*
X122937440Y-93950000D01*
X122888157Y-93702235D01*
X122747809Y-93492191D01*
X122537765Y-93351843D01*
X122290000Y-93302560D01*
X120590000Y-93302560D01*
X120342235Y-93351843D01*
X120132191Y-93492191D01*
X119991843Y-93702235D01*
X119942560Y-93950000D01*
X119942560Y-95650000D01*
X119991843Y-95897765D01*
X120132191Y-96107809D01*
X120342235Y-96248157D01*
X120387619Y-96257184D01*
X120369375Y-96269375D01*
X120041161Y-96760582D01*
X119925908Y-97340000D01*
X119234621Y-97340000D01*
X119231288Y-91329642D01*
X129550000Y-91329642D01*
X129550000Y-91930358D01*
X129779884Y-92485346D01*
X130204654Y-92910116D01*
X130759642Y-93140000D01*
X131360358Y-93140000D01*
X131915346Y-92910116D01*
X132310000Y-92515462D01*
X132704654Y-92910116D01*
X133259642Y-93140000D01*
X133860358Y-93140000D01*
X134415346Y-92910116D01*
X134633402Y-92692060D01*
X135177545Y-92692060D01*
X135260884Y-92945953D01*
X135825306Y-93151590D01*
X136425458Y-93125579D01*
X136859116Y-92945953D01*
X136942455Y-92692060D01*
X136060000Y-91809605D01*
X135177545Y-92692060D01*
X134633402Y-92692060D01*
X134840116Y-92485346D01*
X134849121Y-92463606D01*
X134997940Y-92512455D01*
X135880395Y-91630000D01*
X136239605Y-91630000D01*
X137122060Y-92512455D01*
X137375953Y-92429116D01*
X137581590Y-91864694D01*
X137555579Y-91264542D01*
X137375953Y-90830884D01*
X137122060Y-90747545D01*
X136239605Y-91630000D01*
X135880395Y-91630000D01*
X134997940Y-90747545D01*
X134849121Y-90796394D01*
X134840116Y-90774654D01*
X134633402Y-90567940D01*
X135177545Y-90567940D01*
X136060000Y-91450395D01*
X136942455Y-90567940D01*
X136859116Y-90314047D01*
X136294694Y-90108410D01*
X135694542Y-90134421D01*
X135260884Y-90314047D01*
X135177545Y-90567940D01*
X134633402Y-90567940D01*
X134415346Y-90349884D01*
X133860358Y-90120000D01*
X133259642Y-90120000D01*
X132704654Y-90349884D01*
X132310000Y-90744538D01*
X131915346Y-90349884D01*
X131360358Y-90120000D01*
X130759642Y-90120000D01*
X130204654Y-90349884D01*
X129779884Y-90774654D01*
X129550000Y-91329642D01*
X119231288Y-91329642D01*
X119228219Y-85798680D01*
X130435622Y-85809214D01*
D25*
G04 #@! TO.N,/+5V*
G36*
X210804928Y-69044983D02*
X211339769Y-69113071D01*
X211813705Y-69307013D01*
X212221299Y-69617012D01*
X212534771Y-70021941D01*
X212732758Y-70494203D01*
X212804986Y-71025282D01*
X212775002Y-125096205D01*
X212707098Y-125629602D01*
X212513154Y-126103542D01*
X212203156Y-126511134D01*
X211798228Y-126824604D01*
X211325966Y-127022591D01*
X210793652Y-127094987D01*
X192137476Y-127080466D01*
X192134711Y-125120059D01*
X195788585Y-125120059D01*
X195788585Y-125942416D01*
X195839354Y-126197645D01*
X196032746Y-126487077D01*
X196322178Y-126680469D01*
X196663585Y-126748379D01*
X197004993Y-126680469D01*
X197294425Y-126487077D01*
X197487817Y-126197645D01*
X197538585Y-125942416D01*
X197538585Y-125120059D01*
X203538585Y-125120059D01*
X203538585Y-125942416D01*
X203589354Y-126197645D01*
X203782746Y-126487077D01*
X204072178Y-126680469D01*
X204413585Y-126748379D01*
X204754993Y-126680469D01*
X205044425Y-126487077D01*
X205237817Y-126197645D01*
X205288585Y-125942416D01*
X205288585Y-125120058D01*
X205237817Y-124864829D01*
X205044425Y-124575397D01*
X204754992Y-124382005D01*
X204413585Y-124314095D01*
X204072177Y-124382005D01*
X203782745Y-124575397D01*
X203589353Y-124864830D01*
X203538585Y-125120059D01*
X197538585Y-125120059D01*
X197538585Y-125120058D01*
X197487817Y-124864829D01*
X197294425Y-124575397D01*
X197004992Y-124382005D01*
X196663585Y-124314095D01*
X196322177Y-124382005D01*
X196032745Y-124575397D01*
X195839353Y-124864830D01*
X195788585Y-125120059D01*
X192134711Y-125120059D01*
X192129402Y-121355289D01*
X195788585Y-121355289D01*
X195788585Y-122107186D01*
X195848057Y-122406172D01*
X196074603Y-122745220D01*
X196413651Y-122971765D01*
X196813585Y-123051317D01*
X197213520Y-122971765D01*
X197345261Y-122883738D01*
X197379200Y-123054363D01*
X197533914Y-123285908D01*
X197765459Y-123440622D01*
X197969645Y-123481237D01*
X198107525Y-123481237D01*
X198311711Y-123440622D01*
X198543256Y-123285908D01*
X198697970Y-123054363D01*
X198752298Y-122781237D01*
X202324872Y-122781237D01*
X202379200Y-123054363D01*
X202533914Y-123285908D01*
X202765459Y-123440622D01*
X202969645Y-123481237D01*
X203107525Y-123481237D01*
X203311711Y-123440622D01*
X203543256Y-123285908D01*
X203565867Y-123252067D01*
X207220000Y-123252067D01*
X207220000Y-124007933D01*
X207509258Y-124706263D01*
X208043737Y-125240742D01*
X208742067Y-125530000D01*
X209497933Y-125530000D01*
X210196263Y-125240742D01*
X210730742Y-124706263D01*
X211020000Y-124007933D01*
X211020000Y-123252067D01*
X210730742Y-122553737D01*
X210196263Y-122019258D01*
X209497933Y-121730000D01*
X208742067Y-121730000D01*
X208043737Y-122019258D01*
X207509258Y-122553737D01*
X207220000Y-123252067D01*
X203565867Y-123252067D01*
X203697970Y-123054363D01*
X203731909Y-122883738D01*
X203863651Y-122971765D01*
X204263585Y-123051317D01*
X204663520Y-122971765D01*
X205002568Y-122745220D01*
X205229113Y-122406171D01*
X205288585Y-122107185D01*
X205288585Y-121355288D01*
X205229113Y-121056302D01*
X205002568Y-120717254D01*
X204663519Y-120490709D01*
X204263585Y-120411157D01*
X203863650Y-120490709D01*
X203524602Y-120717254D01*
X203298057Y-121056303D01*
X203238585Y-121355289D01*
X203238585Y-122107186D01*
X203238610Y-122107311D01*
X203107525Y-122081237D01*
X202969645Y-122081237D01*
X202765459Y-122121852D01*
X202533914Y-122276566D01*
X202379200Y-122508111D01*
X202324872Y-122781237D01*
X198752298Y-122781237D01*
X198697970Y-122508111D01*
X198543256Y-122276566D01*
X198311711Y-122121852D01*
X198107525Y-122081237D01*
X197969645Y-122081237D01*
X197838560Y-122107311D01*
X197838585Y-122107185D01*
X197838585Y-121355288D01*
X197779113Y-121056302D01*
X197552568Y-120717254D01*
X197213519Y-120490709D01*
X196813585Y-120411157D01*
X196413650Y-120490709D01*
X196074602Y-120717254D01*
X195848057Y-121056303D01*
X195788585Y-121355289D01*
X192129402Y-121355289D01*
X192121314Y-115620761D01*
X199150000Y-115620761D01*
X199150000Y-115899239D01*
X199256568Y-116156518D01*
X199453482Y-116353432D01*
X199710761Y-116460000D01*
X199989239Y-116460000D01*
X200246518Y-116353432D01*
X200443432Y-116156518D01*
X200550000Y-115899239D01*
X200550000Y-115620761D01*
X200580000Y-115620761D01*
X200580000Y-115899239D01*
X200686568Y-116156518D01*
X200883482Y-116353432D01*
X201140761Y-116460000D01*
X201419239Y-116460000D01*
X201676518Y-116353432D01*
X201873432Y-116156518D01*
X201980000Y-115899239D01*
X201980000Y-115620761D01*
X201873432Y-115363482D01*
X201676518Y-115166568D01*
X201419239Y-115060000D01*
X201140761Y-115060000D01*
X200883482Y-115166568D01*
X200686568Y-115363482D01*
X200580000Y-115620761D01*
X200550000Y-115620761D01*
X200443432Y-115363482D01*
X200246518Y-115166568D01*
X199989239Y-115060000D01*
X199710761Y-115060000D01*
X199453482Y-115166568D01*
X199256568Y-115363482D01*
X199150000Y-115620761D01*
X192121314Y-115620761D01*
X192120000Y-114689859D01*
X192112334Y-114651601D01*
X192090611Y-114619190D01*
X192058138Y-114597558D01*
X192020320Y-114590001D01*
X182749692Y-114560319D01*
X182730000Y-108209690D01*
X182722269Y-108171445D01*
X182700491Y-108139070D01*
X182667982Y-108117494D01*
X182630000Y-108110000D01*
X180436943Y-108110000D01*
X180512529Y-107730000D01*
X180423276Y-107281293D01*
X180169103Y-106900897D01*
X179788707Y-106646724D01*
X179453261Y-106580000D01*
X179226739Y-106580000D01*
X178891293Y-106646724D01*
X178510897Y-106900897D01*
X178256724Y-107281293D01*
X178167471Y-107730000D01*
X178243057Y-108110000D01*
X177896943Y-108110000D01*
X177972529Y-107730000D01*
X177883276Y-107281293D01*
X177629103Y-106900897D01*
X177248707Y-106646724D01*
X176913261Y-106580000D01*
X176686739Y-106580000D01*
X176351746Y-106646634D01*
X176352163Y-106273449D01*
X176686739Y-106340000D01*
X176913261Y-106340000D01*
X177248707Y-106273276D01*
X177629103Y-106019103D01*
X177883276Y-105638707D01*
X177972529Y-105190000D01*
X178167471Y-105190000D01*
X178256724Y-105638707D01*
X178510897Y-106019103D01*
X178891293Y-106273276D01*
X179226739Y-106340000D01*
X179453261Y-106340000D01*
X179788707Y-106273276D01*
X180169103Y-106019103D01*
X180423276Y-105638707D01*
X180512529Y-105190000D01*
X180423276Y-104741293D01*
X180169103Y-104360897D01*
X179788707Y-104106724D01*
X179453261Y-104040000D01*
X179226739Y-104040000D01*
X178891293Y-104106724D01*
X178510897Y-104360897D01*
X178256724Y-104741293D01*
X178167471Y-105190000D01*
X177972529Y-105190000D01*
X177883276Y-104741293D01*
X177629103Y-104360897D01*
X177248707Y-104106724D01*
X176913261Y-104040000D01*
X176686739Y-104040000D01*
X176354583Y-104106070D01*
X176354918Y-103805877D01*
X177650000Y-103805877D01*
X177767054Y-103782593D01*
X177866288Y-103716288D01*
X177932593Y-103617054D01*
X177955877Y-103500000D01*
X177955877Y-102980383D01*
X178238480Y-102980383D01*
X178327479Y-103195284D01*
X178613224Y-103541252D01*
X179009614Y-103751535D01*
X179186000Y-103714657D01*
X179186000Y-102804000D01*
X179494000Y-102804000D01*
X179494000Y-103714657D01*
X179670386Y-103751535D01*
X180066776Y-103541252D01*
X180323219Y-103230761D01*
X206600000Y-103230761D01*
X206600000Y-103509239D01*
X206706568Y-103766518D01*
X206903482Y-103963432D01*
X207160761Y-104070000D01*
X207439239Y-104070000D01*
X207696518Y-103963432D01*
X207893432Y-103766518D01*
X208000000Y-103509239D01*
X208000000Y-103260761D01*
X209230000Y-103260761D01*
X209230000Y-103539239D01*
X209336568Y-103796518D01*
X209533482Y-103993432D01*
X209790761Y-104100000D01*
X210069239Y-104100000D01*
X210326518Y-103993432D01*
X210523432Y-103796518D01*
X210630000Y-103539239D01*
X210630000Y-103260761D01*
X210523432Y-103003482D01*
X210326518Y-102806568D01*
X210069239Y-102700000D01*
X209790761Y-102700000D01*
X209533482Y-102806568D01*
X209336568Y-103003482D01*
X209230000Y-103260761D01*
X208000000Y-103260761D01*
X208000000Y-103230761D01*
X207893432Y-102973482D01*
X207696518Y-102776568D01*
X207439239Y-102670000D01*
X207160761Y-102670000D01*
X206903482Y-102776568D01*
X206706568Y-102973482D01*
X206600000Y-103230761D01*
X180323219Y-103230761D01*
X180352521Y-103195284D01*
X180441520Y-102980383D01*
X180403912Y-102804000D01*
X179494000Y-102804000D01*
X179186000Y-102804000D01*
X178276088Y-102804000D01*
X178238480Y-102980383D01*
X177955877Y-102980383D01*
X177955877Y-102319617D01*
X178238480Y-102319617D01*
X178276088Y-102496000D01*
X179186000Y-102496000D01*
X179186000Y-101585343D01*
X179494000Y-101585343D01*
X179494000Y-102496000D01*
X180403912Y-102496000D01*
X180441520Y-102319617D01*
X180352521Y-102104716D01*
X180066776Y-101758748D01*
X179670386Y-101548465D01*
X179494000Y-101585343D01*
X179186000Y-101585343D01*
X179009614Y-101548465D01*
X178613224Y-101758748D01*
X178327479Y-102104716D01*
X178238480Y-102319617D01*
X177955877Y-102319617D01*
X177955877Y-101800000D01*
X177932593Y-101682946D01*
X177866288Y-101583712D01*
X177767054Y-101517407D01*
X177650000Y-101494123D01*
X176357500Y-101494123D01*
X176357927Y-101110761D01*
X184780000Y-101110761D01*
X184780000Y-101389239D01*
X184886568Y-101646518D01*
X185083482Y-101843432D01*
X185340761Y-101950000D01*
X185619239Y-101950000D01*
X185876518Y-101843432D01*
X186073432Y-101646518D01*
X186180000Y-101389239D01*
X186180000Y-101110761D01*
X186073432Y-100853482D01*
X185876518Y-100656568D01*
X185619239Y-100550000D01*
X185340761Y-100550000D01*
X185083482Y-100656568D01*
X184886568Y-100853482D01*
X184780000Y-101110761D01*
X176357927Y-101110761D01*
X176359781Y-99450761D01*
X183880000Y-99450761D01*
X183880000Y-99729239D01*
X183986568Y-99986518D01*
X184183482Y-100183432D01*
X184440761Y-100290000D01*
X184719239Y-100290000D01*
X184976518Y-100183432D01*
X185173432Y-99986518D01*
X185280000Y-99729239D01*
X185280000Y-99450761D01*
X185173432Y-99193482D01*
X184999823Y-99019873D01*
X196749112Y-99019873D01*
X196749112Y-99298351D01*
X196855680Y-99555630D01*
X197052594Y-99752544D01*
X197309873Y-99859112D01*
X197588351Y-99859112D01*
X197845630Y-99752544D01*
X198042544Y-99555630D01*
X198149112Y-99298351D01*
X198149112Y-99019873D01*
X198042544Y-98762594D01*
X197845630Y-98565680D01*
X197588351Y-98459112D01*
X197309873Y-98459112D01*
X197052594Y-98565680D01*
X196855680Y-98762594D01*
X196749112Y-99019873D01*
X184999823Y-99019873D01*
X184976518Y-98996568D01*
X184719239Y-98890000D01*
X184440761Y-98890000D01*
X184183482Y-98996568D01*
X183986568Y-99193482D01*
X183880000Y-99450761D01*
X176359781Y-99450761D01*
X176360730Y-98600761D01*
X182350000Y-98600761D01*
X182350000Y-98879239D01*
X182456568Y-99136518D01*
X182653482Y-99333432D01*
X182910761Y-99440000D01*
X183189239Y-99440000D01*
X183446518Y-99333432D01*
X183643432Y-99136518D01*
X183750000Y-98879239D01*
X183750000Y-98600761D01*
X183643432Y-98343482D01*
X183446518Y-98146568D01*
X183189239Y-98040000D01*
X182910761Y-98040000D01*
X182653482Y-98146568D01*
X182456568Y-98343482D01*
X182350000Y-98600761D01*
X176360730Y-98600761D01*
X176362405Y-97100761D01*
X183890000Y-97100761D01*
X183890000Y-97379239D01*
X183996568Y-97636518D01*
X184193482Y-97833432D01*
X184450761Y-97940000D01*
X184729239Y-97940000D01*
X184780893Y-97918604D01*
X184780000Y-97920761D01*
X184780000Y-98199239D01*
X184886568Y-98456518D01*
X185083482Y-98653432D01*
X185340761Y-98760000D01*
X185619239Y-98760000D01*
X185876518Y-98653432D01*
X186073432Y-98456518D01*
X186180000Y-98199239D01*
X186180000Y-97920761D01*
X186073432Y-97663482D01*
X185876518Y-97466568D01*
X185619239Y-97360000D01*
X185340761Y-97360000D01*
X185289107Y-97381396D01*
X185290000Y-97379239D01*
X185290000Y-97100761D01*
X185217894Y-96926681D01*
X185370761Y-96990000D01*
X185649239Y-96990000D01*
X185906518Y-96883432D01*
X186103432Y-96686518D01*
X186210000Y-96429239D01*
X186210000Y-96370761D01*
X190610000Y-96370761D01*
X190610000Y-96649239D01*
X190716568Y-96906518D01*
X190913482Y-97103432D01*
X191170761Y-97210000D01*
X191449239Y-97210000D01*
X191706518Y-97103432D01*
X191903432Y-96906518D01*
X192010000Y-96649239D01*
X192010000Y-96370761D01*
X191968579Y-96270761D01*
X200830000Y-96270761D01*
X200830000Y-96549239D01*
X200936568Y-96806518D01*
X201133482Y-97003432D01*
X201390761Y-97110000D01*
X201669239Y-97110000D01*
X201807192Y-97052858D01*
X201776568Y-97083482D01*
X201670000Y-97340761D01*
X201670000Y-97619239D01*
X201776568Y-97876518D01*
X201973482Y-98073432D01*
X202230761Y-98180000D01*
X202509239Y-98180000D01*
X202766518Y-98073432D01*
X202963432Y-97876518D01*
X203070000Y-97619239D01*
X203070000Y-97340761D01*
X202963432Y-97083482D01*
X202766518Y-96886568D01*
X202509239Y-96780000D01*
X202230761Y-96780000D01*
X202092808Y-96837142D01*
X202123432Y-96806518D01*
X202230000Y-96549239D01*
X202230000Y-96270761D01*
X202123432Y-96013482D01*
X201926518Y-95816568D01*
X201669239Y-95710000D01*
X201390761Y-95710000D01*
X201133482Y-95816568D01*
X200936568Y-96013482D01*
X200830000Y-96270761D01*
X191968579Y-96270761D01*
X191903432Y-96113482D01*
X191706518Y-95916568D01*
X191449239Y-95810000D01*
X191170761Y-95810000D01*
X190913482Y-95916568D01*
X190716568Y-96113482D01*
X190610000Y-96370761D01*
X186210000Y-96370761D01*
X186210000Y-96150761D01*
X186103432Y-95893482D01*
X185906518Y-95696568D01*
X185649239Y-95590000D01*
X185370761Y-95590000D01*
X185113482Y-95696568D01*
X184916568Y-95893482D01*
X184810000Y-96150761D01*
X184810000Y-96429239D01*
X184882106Y-96603319D01*
X184729239Y-96540000D01*
X184450761Y-96540000D01*
X184193482Y-96646568D01*
X183996568Y-96843482D01*
X183890000Y-97100761D01*
X176362405Y-97100761D01*
X176370000Y-90300112D01*
X176362431Y-90261835D01*
X176340790Y-90229368D01*
X176308371Y-90207655D01*
X176269718Y-90200000D01*
X169269955Y-90219718D01*
X169267950Y-85710653D01*
X172990000Y-85710653D01*
X172990000Y-85949347D01*
X173081344Y-86169873D01*
X173250127Y-86338656D01*
X173470653Y-86430000D01*
X173709347Y-86430000D01*
X173929873Y-86338656D01*
X174098656Y-86169873D01*
X174190000Y-85949347D01*
X174190000Y-85710653D01*
X177990000Y-85710653D01*
X177990000Y-85949347D01*
X178081344Y-86169873D01*
X178250127Y-86338656D01*
X178470653Y-86430000D01*
X178709347Y-86430000D01*
X178929873Y-86338656D01*
X179098656Y-86169873D01*
X179190000Y-85949347D01*
X179190000Y-85710653D01*
X182990000Y-85710653D01*
X182990000Y-85949347D01*
X183081344Y-86169873D01*
X183250127Y-86338656D01*
X183470653Y-86430000D01*
X183709347Y-86430000D01*
X183929873Y-86338656D01*
X184098656Y-86169873D01*
X184190000Y-85949347D01*
X184190000Y-85710653D01*
X187990000Y-85710653D01*
X187990000Y-85949347D01*
X188081344Y-86169873D01*
X188250127Y-86338656D01*
X188470653Y-86430000D01*
X188709347Y-86430000D01*
X188929873Y-86338656D01*
X189098656Y-86169873D01*
X189190000Y-85949347D01*
X189190000Y-85710653D01*
X192990000Y-85710653D01*
X192990000Y-85949347D01*
X193081344Y-86169873D01*
X193250127Y-86338656D01*
X193470653Y-86430000D01*
X193709347Y-86430000D01*
X193929873Y-86338656D01*
X194098656Y-86169873D01*
X194190000Y-85949347D01*
X194190000Y-85710653D01*
X197990000Y-85710653D01*
X197990000Y-85949347D01*
X198081344Y-86169873D01*
X198250127Y-86338656D01*
X198470653Y-86430000D01*
X198709347Y-86430000D01*
X198929873Y-86338656D01*
X199098656Y-86169873D01*
X199190000Y-85949347D01*
X199190000Y-85710653D01*
X202990000Y-85710653D01*
X202990000Y-85949347D01*
X203081344Y-86169873D01*
X203250127Y-86338656D01*
X203470653Y-86430000D01*
X203709347Y-86430000D01*
X203929873Y-86338656D01*
X204098656Y-86169873D01*
X204190000Y-85949347D01*
X204190000Y-85710653D01*
X204098656Y-85490127D01*
X203929873Y-85321344D01*
X203709347Y-85230000D01*
X203470653Y-85230000D01*
X203250127Y-85321344D01*
X203081344Y-85490127D01*
X202990000Y-85710653D01*
X199190000Y-85710653D01*
X199098656Y-85490127D01*
X198929873Y-85321344D01*
X198709347Y-85230000D01*
X198470653Y-85230000D01*
X198250127Y-85321344D01*
X198081344Y-85490127D01*
X197990000Y-85710653D01*
X194190000Y-85710653D01*
X194098656Y-85490127D01*
X193929873Y-85321344D01*
X193709347Y-85230000D01*
X193470653Y-85230000D01*
X193250127Y-85321344D01*
X193081344Y-85490127D01*
X192990000Y-85710653D01*
X189190000Y-85710653D01*
X189098656Y-85490127D01*
X188929873Y-85321344D01*
X188709347Y-85230000D01*
X188470653Y-85230000D01*
X188250127Y-85321344D01*
X188081344Y-85490127D01*
X187990000Y-85710653D01*
X184190000Y-85710653D01*
X184098656Y-85490127D01*
X183929873Y-85321344D01*
X183709347Y-85230000D01*
X183470653Y-85230000D01*
X183250127Y-85321344D01*
X183081344Y-85490127D01*
X182990000Y-85710653D01*
X179190000Y-85710653D01*
X179098656Y-85490127D01*
X178929873Y-85321344D01*
X178709347Y-85230000D01*
X178470653Y-85230000D01*
X178250127Y-85321344D01*
X178081344Y-85490127D01*
X177990000Y-85710653D01*
X174190000Y-85710653D01*
X174098656Y-85490127D01*
X173929873Y-85321344D01*
X173709347Y-85230000D01*
X173470653Y-85230000D01*
X173250127Y-85321344D01*
X173081344Y-85490127D01*
X172990000Y-85710653D01*
X169267950Y-85710653D01*
X169267465Y-84620000D01*
X208477471Y-84620000D01*
X208566724Y-85068707D01*
X208820897Y-85449103D01*
X209201293Y-85703276D01*
X209536739Y-85770000D01*
X209763261Y-85770000D01*
X210098707Y-85703276D01*
X210479103Y-85449103D01*
X210733276Y-85068707D01*
X210822529Y-84620000D01*
X210733276Y-84171293D01*
X210479103Y-83790897D01*
X210098707Y-83536724D01*
X209763261Y-83470000D01*
X209536739Y-83470000D01*
X209201293Y-83536724D01*
X208820897Y-83790897D01*
X208566724Y-84171293D01*
X208477471Y-84620000D01*
X169267465Y-84620000D01*
X169266336Y-82080000D01*
X208477471Y-82080000D01*
X208566724Y-82528707D01*
X208820897Y-82909103D01*
X209201293Y-83163276D01*
X209536739Y-83230000D01*
X209763261Y-83230000D01*
X210098707Y-83163276D01*
X210479103Y-82909103D01*
X210733276Y-82528707D01*
X210822529Y-82080000D01*
X210733276Y-81631293D01*
X210479103Y-81250897D01*
X210098707Y-80996724D01*
X209763261Y-80930000D01*
X209536739Y-80930000D01*
X209201293Y-80996724D01*
X208820897Y-81250897D01*
X208566724Y-81631293D01*
X208477471Y-82080000D01*
X169266336Y-82080000D01*
X169265726Y-80710653D01*
X172990000Y-80710653D01*
X172990000Y-80949347D01*
X173081344Y-81169873D01*
X173250127Y-81338656D01*
X173470653Y-81430000D01*
X173709347Y-81430000D01*
X173929873Y-81338656D01*
X174098656Y-81169873D01*
X174190000Y-80949347D01*
X174190000Y-80710653D01*
X177990000Y-80710653D01*
X177990000Y-80949347D01*
X178081344Y-81169873D01*
X178250127Y-81338656D01*
X178470653Y-81430000D01*
X178709347Y-81430000D01*
X178929873Y-81338656D01*
X179098656Y-81169873D01*
X179190000Y-80949347D01*
X179190000Y-80710653D01*
X182990000Y-80710653D01*
X182990000Y-80949347D01*
X183081344Y-81169873D01*
X183250127Y-81338656D01*
X183470653Y-81430000D01*
X183709347Y-81430000D01*
X183929873Y-81338656D01*
X184098656Y-81169873D01*
X184190000Y-80949347D01*
X184190000Y-80710653D01*
X187990000Y-80710653D01*
X187990000Y-80949347D01*
X188081344Y-81169873D01*
X188250127Y-81338656D01*
X188470653Y-81430000D01*
X188709347Y-81430000D01*
X188929873Y-81338656D01*
X189098656Y-81169873D01*
X189190000Y-80949347D01*
X189190000Y-80710653D01*
X192990000Y-80710653D01*
X192990000Y-80949347D01*
X193081344Y-81169873D01*
X193250127Y-81338656D01*
X193470653Y-81430000D01*
X193709347Y-81430000D01*
X193929873Y-81338656D01*
X194098656Y-81169873D01*
X194190000Y-80949347D01*
X194190000Y-80710653D01*
X197990000Y-80710653D01*
X197990000Y-80949347D01*
X198081344Y-81169873D01*
X198250127Y-81338656D01*
X198470653Y-81430000D01*
X198709347Y-81430000D01*
X198929873Y-81338656D01*
X199098656Y-81169873D01*
X199190000Y-80949347D01*
X199190000Y-80710653D01*
X202990000Y-80710653D01*
X202990000Y-80949347D01*
X203081344Y-81169873D01*
X203250127Y-81338656D01*
X203470653Y-81430000D01*
X203709347Y-81430000D01*
X203929873Y-81338656D01*
X204098656Y-81169873D01*
X204190000Y-80949347D01*
X204190000Y-80710653D01*
X204098656Y-80490127D01*
X203929873Y-80321344D01*
X203709347Y-80230000D01*
X203470653Y-80230000D01*
X203250127Y-80321344D01*
X203081344Y-80490127D01*
X202990000Y-80710653D01*
X199190000Y-80710653D01*
X199098656Y-80490127D01*
X198929873Y-80321344D01*
X198709347Y-80230000D01*
X198470653Y-80230000D01*
X198250127Y-80321344D01*
X198081344Y-80490127D01*
X197990000Y-80710653D01*
X194190000Y-80710653D01*
X194098656Y-80490127D01*
X193929873Y-80321344D01*
X193709347Y-80230000D01*
X193470653Y-80230000D01*
X193250127Y-80321344D01*
X193081344Y-80490127D01*
X192990000Y-80710653D01*
X189190000Y-80710653D01*
X189098656Y-80490127D01*
X188929873Y-80321344D01*
X188709347Y-80230000D01*
X188470653Y-80230000D01*
X188250127Y-80321344D01*
X188081344Y-80490127D01*
X187990000Y-80710653D01*
X184190000Y-80710653D01*
X184098656Y-80490127D01*
X183929873Y-80321344D01*
X183709347Y-80230000D01*
X183470653Y-80230000D01*
X183250127Y-80321344D01*
X183081344Y-80490127D01*
X182990000Y-80710653D01*
X179190000Y-80710653D01*
X179098656Y-80490127D01*
X178929873Y-80321344D01*
X178709347Y-80230000D01*
X178470653Y-80230000D01*
X178250127Y-80321344D01*
X178081344Y-80490127D01*
X177990000Y-80710653D01*
X174190000Y-80710653D01*
X174098656Y-80490127D01*
X173929873Y-80321344D01*
X173709347Y-80230000D01*
X173470653Y-80230000D01*
X173250127Y-80321344D01*
X173081344Y-80490127D01*
X172990000Y-80710653D01*
X169265726Y-80710653D01*
X169265206Y-79540000D01*
X208477471Y-79540000D01*
X208566724Y-79988707D01*
X208820897Y-80369103D01*
X209201293Y-80623276D01*
X209536739Y-80690000D01*
X209763261Y-80690000D01*
X210098707Y-80623276D01*
X210479103Y-80369103D01*
X210733276Y-79988707D01*
X210822529Y-79540000D01*
X210733276Y-79091293D01*
X210479103Y-78710897D01*
X210098707Y-78456724D01*
X209763261Y-78390000D01*
X209536739Y-78390000D01*
X209201293Y-78456724D01*
X208820897Y-78710897D01*
X208566724Y-79091293D01*
X208477471Y-79540000D01*
X169265206Y-79540000D01*
X169264076Y-77000000D01*
X208477471Y-77000000D01*
X208566724Y-77448707D01*
X208820897Y-77829103D01*
X209201293Y-78083276D01*
X209536739Y-78150000D01*
X209763261Y-78150000D01*
X210098707Y-78083276D01*
X210479103Y-77829103D01*
X210733276Y-77448707D01*
X210822529Y-77000000D01*
X210733276Y-76551293D01*
X210479103Y-76170897D01*
X210098707Y-75916724D01*
X209763261Y-75850000D01*
X209536739Y-75850000D01*
X209201293Y-75916724D01*
X208820897Y-76170897D01*
X208566724Y-76551293D01*
X208477471Y-77000000D01*
X169264076Y-77000000D01*
X169263502Y-75710653D01*
X172990000Y-75710653D01*
X172990000Y-75949347D01*
X173081344Y-76169873D01*
X173250127Y-76338656D01*
X173470653Y-76430000D01*
X173709347Y-76430000D01*
X173929873Y-76338656D01*
X174098656Y-76169873D01*
X174190000Y-75949347D01*
X174190000Y-75710653D01*
X177990000Y-75710653D01*
X177990000Y-75949347D01*
X178081344Y-76169873D01*
X178250127Y-76338656D01*
X178470653Y-76430000D01*
X178709347Y-76430000D01*
X178929873Y-76338656D01*
X179098656Y-76169873D01*
X179190000Y-75949347D01*
X179190000Y-75710653D01*
X182990000Y-75710653D01*
X182990000Y-75949347D01*
X183081344Y-76169873D01*
X183250127Y-76338656D01*
X183470653Y-76430000D01*
X183709347Y-76430000D01*
X183929873Y-76338656D01*
X184098656Y-76169873D01*
X184190000Y-75949347D01*
X184190000Y-75710653D01*
X187990000Y-75710653D01*
X187990000Y-75949347D01*
X188081344Y-76169873D01*
X188250127Y-76338656D01*
X188470653Y-76430000D01*
X188709347Y-76430000D01*
X188929873Y-76338656D01*
X189098656Y-76169873D01*
X189190000Y-75949347D01*
X189190000Y-75710653D01*
X192990000Y-75710653D01*
X192990000Y-75949347D01*
X193081344Y-76169873D01*
X193250127Y-76338656D01*
X193470653Y-76430000D01*
X193709347Y-76430000D01*
X193929873Y-76338656D01*
X194098656Y-76169873D01*
X194190000Y-75949347D01*
X194190000Y-75710653D01*
X197990000Y-75710653D01*
X197990000Y-75949347D01*
X198081344Y-76169873D01*
X198250127Y-76338656D01*
X198470653Y-76430000D01*
X198709347Y-76430000D01*
X198929873Y-76338656D01*
X199098656Y-76169873D01*
X199190000Y-75949347D01*
X199190000Y-75710653D01*
X199098656Y-75490127D01*
X198929873Y-75321344D01*
X198709347Y-75230000D01*
X198470653Y-75230000D01*
X198250127Y-75321344D01*
X198081344Y-75490127D01*
X197990000Y-75710653D01*
X194190000Y-75710653D01*
X194098656Y-75490127D01*
X193929873Y-75321344D01*
X193709347Y-75230000D01*
X193470653Y-75230000D01*
X193250127Y-75321344D01*
X193081344Y-75490127D01*
X192990000Y-75710653D01*
X189190000Y-75710653D01*
X189098656Y-75490127D01*
X188929873Y-75321344D01*
X188709347Y-75230000D01*
X188470653Y-75230000D01*
X188250127Y-75321344D01*
X188081344Y-75490127D01*
X187990000Y-75710653D01*
X184190000Y-75710653D01*
X184098656Y-75490127D01*
X183929873Y-75321344D01*
X183709347Y-75230000D01*
X183470653Y-75230000D01*
X183250127Y-75321344D01*
X183081344Y-75490127D01*
X182990000Y-75710653D01*
X179190000Y-75710653D01*
X179098656Y-75490127D01*
X178929873Y-75321344D01*
X178709347Y-75230000D01*
X178470653Y-75230000D01*
X178250127Y-75321344D01*
X178081344Y-75490127D01*
X177990000Y-75710653D01*
X174190000Y-75710653D01*
X174098656Y-75490127D01*
X173929873Y-75321344D01*
X173709347Y-75230000D01*
X173470653Y-75230000D01*
X173250127Y-75321344D01*
X173081344Y-75490127D01*
X172990000Y-75710653D01*
X169263502Y-75710653D01*
X169263093Y-74790383D01*
X208548480Y-74790383D01*
X208637479Y-75005284D01*
X208923224Y-75351252D01*
X209319614Y-75561535D01*
X209496000Y-75524657D01*
X209496000Y-74614000D01*
X209804000Y-74614000D01*
X209804000Y-75524657D01*
X209980386Y-75561535D01*
X210376776Y-75351252D01*
X210662521Y-75005284D01*
X210751520Y-74790383D01*
X210713912Y-74614000D01*
X209804000Y-74614000D01*
X209496000Y-74614000D01*
X208586088Y-74614000D01*
X208548480Y-74790383D01*
X169263093Y-74790383D01*
X169261817Y-71922067D01*
X202120000Y-71922067D01*
X202120000Y-72677933D01*
X202409258Y-73376263D01*
X202943737Y-73910742D01*
X203642067Y-74200000D01*
X204397933Y-74200000D01*
X204567852Y-74129617D01*
X208548480Y-74129617D01*
X208586088Y-74306000D01*
X209496000Y-74306000D01*
X209496000Y-73395343D01*
X209804000Y-73395343D01*
X209804000Y-74306000D01*
X210713912Y-74306000D01*
X210751520Y-74129617D01*
X210662521Y-73914716D01*
X210376776Y-73568748D01*
X209980386Y-73358465D01*
X209804000Y-73395343D01*
X209496000Y-73395343D01*
X209319614Y-73358465D01*
X208923224Y-73568748D01*
X208637479Y-73914716D01*
X208548480Y-74129617D01*
X204567852Y-74129617D01*
X205096263Y-73910742D01*
X205630742Y-73376263D01*
X205920000Y-72677933D01*
X205920000Y-71922067D01*
X205630742Y-71223737D01*
X205477005Y-71070000D01*
X208494123Y-71070000D01*
X208494123Y-72770000D01*
X208517407Y-72887054D01*
X208583712Y-72986288D01*
X208682946Y-73052593D01*
X208800000Y-73075877D01*
X210500000Y-73075877D01*
X210617054Y-73052593D01*
X210716288Y-72986288D01*
X210782593Y-72887054D01*
X210805877Y-72770000D01*
X210805877Y-71070000D01*
X210782593Y-70952946D01*
X210716288Y-70853712D01*
X210617054Y-70787407D01*
X210500000Y-70764123D01*
X208800000Y-70764123D01*
X208682946Y-70787407D01*
X208583712Y-70853712D01*
X208517407Y-70952946D01*
X208494123Y-71070000D01*
X205477005Y-71070000D01*
X205096263Y-70689258D01*
X204397933Y-70400000D01*
X203642067Y-70400000D01*
X202943737Y-70689258D01*
X202409258Y-71223737D01*
X202120000Y-71922067D01*
X169261817Y-71922067D01*
X169261278Y-70710653D01*
X172990000Y-70710653D01*
X172990000Y-70949347D01*
X173081344Y-71169873D01*
X173250127Y-71338656D01*
X173470653Y-71430000D01*
X173709347Y-71430000D01*
X173929873Y-71338656D01*
X174098656Y-71169873D01*
X174190000Y-70949347D01*
X174190000Y-70710653D01*
X177990000Y-70710653D01*
X177990000Y-70949347D01*
X178081344Y-71169873D01*
X178250127Y-71338656D01*
X178470653Y-71430000D01*
X178709347Y-71430000D01*
X178929873Y-71338656D01*
X179098656Y-71169873D01*
X179190000Y-70949347D01*
X179190000Y-70710653D01*
X182990000Y-70710653D01*
X182990000Y-70949347D01*
X183081344Y-71169873D01*
X183250127Y-71338656D01*
X183470653Y-71430000D01*
X183709347Y-71430000D01*
X183929873Y-71338656D01*
X184098656Y-71169873D01*
X184190000Y-70949347D01*
X184190000Y-70710653D01*
X187990000Y-70710653D01*
X187990000Y-70949347D01*
X188081344Y-71169873D01*
X188250127Y-71338656D01*
X188470653Y-71430000D01*
X188709347Y-71430000D01*
X188929873Y-71338656D01*
X189098656Y-71169873D01*
X189190000Y-70949347D01*
X189190000Y-70710653D01*
X192990000Y-70710653D01*
X192990000Y-70949347D01*
X193081344Y-71169873D01*
X193250127Y-71338656D01*
X193470653Y-71430000D01*
X193709347Y-71430000D01*
X193929873Y-71338656D01*
X194098656Y-71169873D01*
X194190000Y-70949347D01*
X194190000Y-70710653D01*
X197990000Y-70710653D01*
X197990000Y-70949347D01*
X198081344Y-71169873D01*
X198250127Y-71338656D01*
X198470653Y-71430000D01*
X198709347Y-71430000D01*
X198929873Y-71338656D01*
X199098656Y-71169873D01*
X199190000Y-70949347D01*
X199190000Y-70710653D01*
X199098656Y-70490127D01*
X198929873Y-70321344D01*
X198709347Y-70230000D01*
X198470653Y-70230000D01*
X198250127Y-70321344D01*
X198081344Y-70490127D01*
X197990000Y-70710653D01*
X194190000Y-70710653D01*
X194098656Y-70490127D01*
X193929873Y-70321344D01*
X193709347Y-70230000D01*
X193470653Y-70230000D01*
X193250127Y-70321344D01*
X193081344Y-70490127D01*
X192990000Y-70710653D01*
X189190000Y-70710653D01*
X189098656Y-70490127D01*
X188929873Y-70321344D01*
X188709347Y-70230000D01*
X188470653Y-70230000D01*
X188250127Y-70321344D01*
X188081344Y-70490127D01*
X187990000Y-70710653D01*
X184190000Y-70710653D01*
X184098656Y-70490127D01*
X183929873Y-70321344D01*
X183709347Y-70230000D01*
X183470653Y-70230000D01*
X183250127Y-70321344D01*
X183081344Y-70490127D01*
X182990000Y-70710653D01*
X179190000Y-70710653D01*
X179098656Y-70490127D01*
X178929873Y-70321344D01*
X178709347Y-70230000D01*
X178470653Y-70230000D01*
X178250127Y-70321344D01*
X178081344Y-70490127D01*
X177990000Y-70710653D01*
X174190000Y-70710653D01*
X174098656Y-70490127D01*
X173929873Y-70321344D01*
X173709347Y-70230000D01*
X173470653Y-70230000D01*
X173250127Y-70321344D01*
X173081344Y-70490127D01*
X172990000Y-70710653D01*
X169261278Y-70710653D01*
X169260524Y-69017284D01*
X210804928Y-69044983D01*
X210804928Y-69044983D01*
G37*
X210804928Y-69044983D02*
X211339769Y-69113071D01*
X211813705Y-69307013D01*
X212221299Y-69617012D01*
X212534771Y-70021941D01*
X212732758Y-70494203D01*
X212804986Y-71025282D01*
X212775002Y-125096205D01*
X212707098Y-125629602D01*
X212513154Y-126103542D01*
X212203156Y-126511134D01*
X211798228Y-126824604D01*
X211325966Y-127022591D01*
X210793652Y-127094987D01*
X192137476Y-127080466D01*
X192134711Y-125120059D01*
X195788585Y-125120059D01*
X195788585Y-125942416D01*
X195839354Y-126197645D01*
X196032746Y-126487077D01*
X196322178Y-126680469D01*
X196663585Y-126748379D01*
X197004993Y-126680469D01*
X197294425Y-126487077D01*
X197487817Y-126197645D01*
X197538585Y-125942416D01*
X197538585Y-125120059D01*
X203538585Y-125120059D01*
X203538585Y-125942416D01*
X203589354Y-126197645D01*
X203782746Y-126487077D01*
X204072178Y-126680469D01*
X204413585Y-126748379D01*
X204754993Y-126680469D01*
X205044425Y-126487077D01*
X205237817Y-126197645D01*
X205288585Y-125942416D01*
X205288585Y-125120058D01*
X205237817Y-124864829D01*
X205044425Y-124575397D01*
X204754992Y-124382005D01*
X204413585Y-124314095D01*
X204072177Y-124382005D01*
X203782745Y-124575397D01*
X203589353Y-124864830D01*
X203538585Y-125120059D01*
X197538585Y-125120059D01*
X197538585Y-125120058D01*
X197487817Y-124864829D01*
X197294425Y-124575397D01*
X197004992Y-124382005D01*
X196663585Y-124314095D01*
X196322177Y-124382005D01*
X196032745Y-124575397D01*
X195839353Y-124864830D01*
X195788585Y-125120059D01*
X192134711Y-125120059D01*
X192129402Y-121355289D01*
X195788585Y-121355289D01*
X195788585Y-122107186D01*
X195848057Y-122406172D01*
X196074603Y-122745220D01*
X196413651Y-122971765D01*
X196813585Y-123051317D01*
X197213520Y-122971765D01*
X197345261Y-122883738D01*
X197379200Y-123054363D01*
X197533914Y-123285908D01*
X197765459Y-123440622D01*
X197969645Y-123481237D01*
X198107525Y-123481237D01*
X198311711Y-123440622D01*
X198543256Y-123285908D01*
X198697970Y-123054363D01*
X198752298Y-122781237D01*
X202324872Y-122781237D01*
X202379200Y-123054363D01*
X202533914Y-123285908D01*
X202765459Y-123440622D01*
X202969645Y-123481237D01*
X203107525Y-123481237D01*
X203311711Y-123440622D01*
X203543256Y-123285908D01*
X203565867Y-123252067D01*
X207220000Y-123252067D01*
X207220000Y-124007933D01*
X207509258Y-124706263D01*
X208043737Y-125240742D01*
X208742067Y-125530000D01*
X209497933Y-125530000D01*
X210196263Y-125240742D01*
X210730742Y-124706263D01*
X211020000Y-124007933D01*
X211020000Y-123252067D01*
X210730742Y-122553737D01*
X210196263Y-122019258D01*
X209497933Y-121730000D01*
X208742067Y-121730000D01*
X208043737Y-122019258D01*
X207509258Y-122553737D01*
X207220000Y-123252067D01*
X203565867Y-123252067D01*
X203697970Y-123054363D01*
X203731909Y-122883738D01*
X203863651Y-122971765D01*
X204263585Y-123051317D01*
X204663520Y-122971765D01*
X205002568Y-122745220D01*
X205229113Y-122406171D01*
X205288585Y-122107185D01*
X205288585Y-121355288D01*
X205229113Y-121056302D01*
X205002568Y-120717254D01*
X204663519Y-120490709D01*
X204263585Y-120411157D01*
X203863650Y-120490709D01*
X203524602Y-120717254D01*
X203298057Y-121056303D01*
X203238585Y-121355289D01*
X203238585Y-122107186D01*
X203238610Y-122107311D01*
X203107525Y-122081237D01*
X202969645Y-122081237D01*
X202765459Y-122121852D01*
X202533914Y-122276566D01*
X202379200Y-122508111D01*
X202324872Y-122781237D01*
X198752298Y-122781237D01*
X198697970Y-122508111D01*
X198543256Y-122276566D01*
X198311711Y-122121852D01*
X198107525Y-122081237D01*
X197969645Y-122081237D01*
X197838560Y-122107311D01*
X197838585Y-122107185D01*
X197838585Y-121355288D01*
X197779113Y-121056302D01*
X197552568Y-120717254D01*
X197213519Y-120490709D01*
X196813585Y-120411157D01*
X196413650Y-120490709D01*
X196074602Y-120717254D01*
X195848057Y-121056303D01*
X195788585Y-121355289D01*
X192129402Y-121355289D01*
X192121314Y-115620761D01*
X199150000Y-115620761D01*
X199150000Y-115899239D01*
X199256568Y-116156518D01*
X199453482Y-116353432D01*
X199710761Y-116460000D01*
X199989239Y-116460000D01*
X200246518Y-116353432D01*
X200443432Y-116156518D01*
X200550000Y-115899239D01*
X200550000Y-115620761D01*
X200580000Y-115620761D01*
X200580000Y-115899239D01*
X200686568Y-116156518D01*
X200883482Y-116353432D01*
X201140761Y-116460000D01*
X201419239Y-116460000D01*
X201676518Y-116353432D01*
X201873432Y-116156518D01*
X201980000Y-115899239D01*
X201980000Y-115620761D01*
X201873432Y-115363482D01*
X201676518Y-115166568D01*
X201419239Y-115060000D01*
X201140761Y-115060000D01*
X200883482Y-115166568D01*
X200686568Y-115363482D01*
X200580000Y-115620761D01*
X200550000Y-115620761D01*
X200443432Y-115363482D01*
X200246518Y-115166568D01*
X199989239Y-115060000D01*
X199710761Y-115060000D01*
X199453482Y-115166568D01*
X199256568Y-115363482D01*
X199150000Y-115620761D01*
X192121314Y-115620761D01*
X192120000Y-114689859D01*
X192112334Y-114651601D01*
X192090611Y-114619190D01*
X192058138Y-114597558D01*
X192020320Y-114590001D01*
X182749692Y-114560319D01*
X182730000Y-108209690D01*
X182722269Y-108171445D01*
X182700491Y-108139070D01*
X182667982Y-108117494D01*
X182630000Y-108110000D01*
X180436943Y-108110000D01*
X180512529Y-107730000D01*
X180423276Y-107281293D01*
X180169103Y-106900897D01*
X179788707Y-106646724D01*
X179453261Y-106580000D01*
X179226739Y-106580000D01*
X178891293Y-106646724D01*
X178510897Y-106900897D01*
X178256724Y-107281293D01*
X178167471Y-107730000D01*
X178243057Y-108110000D01*
X177896943Y-108110000D01*
X177972529Y-107730000D01*
X177883276Y-107281293D01*
X177629103Y-106900897D01*
X177248707Y-106646724D01*
X176913261Y-106580000D01*
X176686739Y-106580000D01*
X176351746Y-106646634D01*
X176352163Y-106273449D01*
X176686739Y-106340000D01*
X176913261Y-106340000D01*
X177248707Y-106273276D01*
X177629103Y-106019103D01*
X177883276Y-105638707D01*
X177972529Y-105190000D01*
X178167471Y-105190000D01*
X178256724Y-105638707D01*
X178510897Y-106019103D01*
X178891293Y-106273276D01*
X179226739Y-106340000D01*
X179453261Y-106340000D01*
X179788707Y-106273276D01*
X180169103Y-106019103D01*
X180423276Y-105638707D01*
X180512529Y-105190000D01*
X180423276Y-104741293D01*
X180169103Y-104360897D01*
X179788707Y-104106724D01*
X179453261Y-104040000D01*
X179226739Y-104040000D01*
X178891293Y-104106724D01*
X178510897Y-104360897D01*
X178256724Y-104741293D01*
X178167471Y-105190000D01*
X177972529Y-105190000D01*
X177883276Y-104741293D01*
X177629103Y-104360897D01*
X177248707Y-104106724D01*
X176913261Y-104040000D01*
X176686739Y-104040000D01*
X176354583Y-104106070D01*
X176354918Y-103805877D01*
X177650000Y-103805877D01*
X177767054Y-103782593D01*
X177866288Y-103716288D01*
X177932593Y-103617054D01*
X177955877Y-103500000D01*
X177955877Y-102980383D01*
X178238480Y-102980383D01*
X178327479Y-103195284D01*
X178613224Y-103541252D01*
X179009614Y-103751535D01*
X179186000Y-103714657D01*
X179186000Y-102804000D01*
X179494000Y-102804000D01*
X179494000Y-103714657D01*
X179670386Y-103751535D01*
X180066776Y-103541252D01*
X180323219Y-103230761D01*
X206600000Y-103230761D01*
X206600000Y-103509239D01*
X206706568Y-103766518D01*
X206903482Y-103963432D01*
X207160761Y-104070000D01*
X207439239Y-104070000D01*
X207696518Y-103963432D01*
X207893432Y-103766518D01*
X208000000Y-103509239D01*
X208000000Y-103260761D01*
X209230000Y-103260761D01*
X209230000Y-103539239D01*
X209336568Y-103796518D01*
X209533482Y-103993432D01*
X209790761Y-104100000D01*
X210069239Y-104100000D01*
X210326518Y-103993432D01*
X210523432Y-103796518D01*
X210630000Y-103539239D01*
X210630000Y-103260761D01*
X210523432Y-103003482D01*
X210326518Y-102806568D01*
X210069239Y-102700000D01*
X209790761Y-102700000D01*
X209533482Y-102806568D01*
X209336568Y-103003482D01*
X209230000Y-103260761D01*
X208000000Y-103260761D01*
X208000000Y-103230761D01*
X207893432Y-102973482D01*
X207696518Y-102776568D01*
X207439239Y-102670000D01*
X207160761Y-102670000D01*
X206903482Y-102776568D01*
X206706568Y-102973482D01*
X206600000Y-103230761D01*
X180323219Y-103230761D01*
X180352521Y-103195284D01*
X180441520Y-102980383D01*
X180403912Y-102804000D01*
X179494000Y-102804000D01*
X179186000Y-102804000D01*
X178276088Y-102804000D01*
X178238480Y-102980383D01*
X177955877Y-102980383D01*
X177955877Y-102319617D01*
X178238480Y-102319617D01*
X178276088Y-102496000D01*
X179186000Y-102496000D01*
X179186000Y-101585343D01*
X179494000Y-101585343D01*
X179494000Y-102496000D01*
X180403912Y-102496000D01*
X180441520Y-102319617D01*
X180352521Y-102104716D01*
X180066776Y-101758748D01*
X179670386Y-101548465D01*
X179494000Y-101585343D01*
X179186000Y-101585343D01*
X179009614Y-101548465D01*
X178613224Y-101758748D01*
X178327479Y-102104716D01*
X178238480Y-102319617D01*
X177955877Y-102319617D01*
X177955877Y-101800000D01*
X177932593Y-101682946D01*
X177866288Y-101583712D01*
X177767054Y-101517407D01*
X177650000Y-101494123D01*
X176357500Y-101494123D01*
X176357927Y-101110761D01*
X184780000Y-101110761D01*
X184780000Y-101389239D01*
X184886568Y-101646518D01*
X185083482Y-101843432D01*
X185340761Y-101950000D01*
X185619239Y-101950000D01*
X185876518Y-101843432D01*
X186073432Y-101646518D01*
X186180000Y-101389239D01*
X186180000Y-101110761D01*
X186073432Y-100853482D01*
X185876518Y-100656568D01*
X185619239Y-100550000D01*
X185340761Y-100550000D01*
X185083482Y-100656568D01*
X184886568Y-100853482D01*
X184780000Y-101110761D01*
X176357927Y-101110761D01*
X176359781Y-99450761D01*
X183880000Y-99450761D01*
X183880000Y-99729239D01*
X183986568Y-99986518D01*
X184183482Y-100183432D01*
X184440761Y-100290000D01*
X184719239Y-100290000D01*
X184976518Y-100183432D01*
X185173432Y-99986518D01*
X185280000Y-99729239D01*
X185280000Y-99450761D01*
X185173432Y-99193482D01*
X184999823Y-99019873D01*
X196749112Y-99019873D01*
X196749112Y-99298351D01*
X196855680Y-99555630D01*
X197052594Y-99752544D01*
X197309873Y-99859112D01*
X197588351Y-99859112D01*
X197845630Y-99752544D01*
X198042544Y-99555630D01*
X198149112Y-99298351D01*
X198149112Y-99019873D01*
X198042544Y-98762594D01*
X197845630Y-98565680D01*
X197588351Y-98459112D01*
X197309873Y-98459112D01*
X197052594Y-98565680D01*
X196855680Y-98762594D01*
X196749112Y-99019873D01*
X184999823Y-99019873D01*
X184976518Y-98996568D01*
X184719239Y-98890000D01*
X184440761Y-98890000D01*
X184183482Y-98996568D01*
X183986568Y-99193482D01*
X183880000Y-99450761D01*
X176359781Y-99450761D01*
X176360730Y-98600761D01*
X182350000Y-98600761D01*
X182350000Y-98879239D01*
X182456568Y-99136518D01*
X182653482Y-99333432D01*
X182910761Y-99440000D01*
X183189239Y-99440000D01*
X183446518Y-99333432D01*
X183643432Y-99136518D01*
X183750000Y-98879239D01*
X183750000Y-98600761D01*
X183643432Y-98343482D01*
X183446518Y-98146568D01*
X183189239Y-98040000D01*
X182910761Y-98040000D01*
X182653482Y-98146568D01*
X182456568Y-98343482D01*
X182350000Y-98600761D01*
X176360730Y-98600761D01*
X176362405Y-97100761D01*
X183890000Y-97100761D01*
X183890000Y-97379239D01*
X183996568Y-97636518D01*
X184193482Y-97833432D01*
X184450761Y-97940000D01*
X184729239Y-97940000D01*
X184780893Y-97918604D01*
X184780000Y-97920761D01*
X184780000Y-98199239D01*
X184886568Y-98456518D01*
X185083482Y-98653432D01*
X185340761Y-98760000D01*
X185619239Y-98760000D01*
X185876518Y-98653432D01*
X186073432Y-98456518D01*
X186180000Y-98199239D01*
X186180000Y-97920761D01*
X186073432Y-97663482D01*
X185876518Y-97466568D01*
X185619239Y-97360000D01*
X185340761Y-97360000D01*
X185289107Y-97381396D01*
X185290000Y-97379239D01*
X185290000Y-97100761D01*
X185217894Y-96926681D01*
X185370761Y-96990000D01*
X185649239Y-96990000D01*
X185906518Y-96883432D01*
X186103432Y-96686518D01*
X186210000Y-96429239D01*
X186210000Y-96370761D01*
X190610000Y-96370761D01*
X190610000Y-96649239D01*
X190716568Y-96906518D01*
X190913482Y-97103432D01*
X191170761Y-97210000D01*
X191449239Y-97210000D01*
X191706518Y-97103432D01*
X191903432Y-96906518D01*
X192010000Y-96649239D01*
X192010000Y-96370761D01*
X191968579Y-96270761D01*
X200830000Y-96270761D01*
X200830000Y-96549239D01*
X200936568Y-96806518D01*
X201133482Y-97003432D01*
X201390761Y-97110000D01*
X201669239Y-97110000D01*
X201807192Y-97052858D01*
X201776568Y-97083482D01*
X201670000Y-97340761D01*
X201670000Y-97619239D01*
X201776568Y-97876518D01*
X201973482Y-98073432D01*
X202230761Y-98180000D01*
X202509239Y-98180000D01*
X202766518Y-98073432D01*
X202963432Y-97876518D01*
X203070000Y-97619239D01*
X203070000Y-97340761D01*
X202963432Y-97083482D01*
X202766518Y-96886568D01*
X202509239Y-96780000D01*
X202230761Y-96780000D01*
X202092808Y-96837142D01*
X202123432Y-96806518D01*
X202230000Y-96549239D01*
X202230000Y-96270761D01*
X202123432Y-96013482D01*
X201926518Y-95816568D01*
X201669239Y-95710000D01*
X201390761Y-95710000D01*
X201133482Y-95816568D01*
X200936568Y-96013482D01*
X200830000Y-96270761D01*
X191968579Y-96270761D01*
X191903432Y-96113482D01*
X191706518Y-95916568D01*
X191449239Y-95810000D01*
X191170761Y-95810000D01*
X190913482Y-95916568D01*
X190716568Y-96113482D01*
X190610000Y-96370761D01*
X186210000Y-96370761D01*
X186210000Y-96150761D01*
X186103432Y-95893482D01*
X185906518Y-95696568D01*
X185649239Y-95590000D01*
X185370761Y-95590000D01*
X185113482Y-95696568D01*
X184916568Y-95893482D01*
X184810000Y-96150761D01*
X184810000Y-96429239D01*
X184882106Y-96603319D01*
X184729239Y-96540000D01*
X184450761Y-96540000D01*
X184193482Y-96646568D01*
X183996568Y-96843482D01*
X183890000Y-97100761D01*
X176362405Y-97100761D01*
X176370000Y-90300112D01*
X176362431Y-90261835D01*
X176340790Y-90229368D01*
X176308371Y-90207655D01*
X176269718Y-90200000D01*
X169269955Y-90219718D01*
X169267950Y-85710653D01*
X172990000Y-85710653D01*
X172990000Y-85949347D01*
X173081344Y-86169873D01*
X173250127Y-86338656D01*
X173470653Y-86430000D01*
X173709347Y-86430000D01*
X173929873Y-86338656D01*
X174098656Y-86169873D01*
X174190000Y-85949347D01*
X174190000Y-85710653D01*
X177990000Y-85710653D01*
X177990000Y-85949347D01*
X178081344Y-86169873D01*
X178250127Y-86338656D01*
X178470653Y-86430000D01*
X178709347Y-86430000D01*
X178929873Y-86338656D01*
X179098656Y-86169873D01*
X179190000Y-85949347D01*
X179190000Y-85710653D01*
X182990000Y-85710653D01*
X182990000Y-85949347D01*
X183081344Y-86169873D01*
X183250127Y-86338656D01*
X183470653Y-86430000D01*
X183709347Y-86430000D01*
X183929873Y-86338656D01*
X184098656Y-86169873D01*
X184190000Y-85949347D01*
X184190000Y-85710653D01*
X187990000Y-85710653D01*
X187990000Y-85949347D01*
X188081344Y-86169873D01*
X188250127Y-86338656D01*
X188470653Y-86430000D01*
X188709347Y-86430000D01*
X188929873Y-86338656D01*
X189098656Y-86169873D01*
X189190000Y-85949347D01*
X189190000Y-85710653D01*
X192990000Y-85710653D01*
X192990000Y-85949347D01*
X193081344Y-86169873D01*
X193250127Y-86338656D01*
X193470653Y-86430000D01*
X193709347Y-86430000D01*
X193929873Y-86338656D01*
X194098656Y-86169873D01*
X194190000Y-85949347D01*
X194190000Y-85710653D01*
X197990000Y-85710653D01*
X197990000Y-85949347D01*
X198081344Y-86169873D01*
X198250127Y-86338656D01*
X198470653Y-86430000D01*
X198709347Y-86430000D01*
X198929873Y-86338656D01*
X199098656Y-86169873D01*
X199190000Y-85949347D01*
X199190000Y-85710653D01*
X202990000Y-85710653D01*
X202990000Y-85949347D01*
X203081344Y-86169873D01*
X203250127Y-86338656D01*
X203470653Y-86430000D01*
X203709347Y-86430000D01*
X203929873Y-86338656D01*
X204098656Y-86169873D01*
X204190000Y-85949347D01*
X204190000Y-85710653D01*
X204098656Y-85490127D01*
X203929873Y-85321344D01*
X203709347Y-85230000D01*
X203470653Y-85230000D01*
X203250127Y-85321344D01*
X203081344Y-85490127D01*
X202990000Y-85710653D01*
X199190000Y-85710653D01*
X199098656Y-85490127D01*
X198929873Y-85321344D01*
X198709347Y-85230000D01*
X198470653Y-85230000D01*
X198250127Y-85321344D01*
X198081344Y-85490127D01*
X197990000Y-85710653D01*
X194190000Y-85710653D01*
X194098656Y-85490127D01*
X193929873Y-85321344D01*
X193709347Y-85230000D01*
X193470653Y-85230000D01*
X193250127Y-85321344D01*
X193081344Y-85490127D01*
X192990000Y-85710653D01*
X189190000Y-85710653D01*
X189098656Y-85490127D01*
X188929873Y-85321344D01*
X188709347Y-85230000D01*
X188470653Y-85230000D01*
X188250127Y-85321344D01*
X188081344Y-85490127D01*
X187990000Y-85710653D01*
X184190000Y-85710653D01*
X184098656Y-85490127D01*
X183929873Y-85321344D01*
X183709347Y-85230000D01*
X183470653Y-85230000D01*
X183250127Y-85321344D01*
X183081344Y-85490127D01*
X182990000Y-85710653D01*
X179190000Y-85710653D01*
X179098656Y-85490127D01*
X178929873Y-85321344D01*
X178709347Y-85230000D01*
X178470653Y-85230000D01*
X178250127Y-85321344D01*
X178081344Y-85490127D01*
X177990000Y-85710653D01*
X174190000Y-85710653D01*
X174098656Y-85490127D01*
X173929873Y-85321344D01*
X173709347Y-85230000D01*
X173470653Y-85230000D01*
X173250127Y-85321344D01*
X173081344Y-85490127D01*
X172990000Y-85710653D01*
X169267950Y-85710653D01*
X169267465Y-84620000D01*
X208477471Y-84620000D01*
X208566724Y-85068707D01*
X208820897Y-85449103D01*
X209201293Y-85703276D01*
X209536739Y-85770000D01*
X209763261Y-85770000D01*
X210098707Y-85703276D01*
X210479103Y-85449103D01*
X210733276Y-85068707D01*
X210822529Y-84620000D01*
X210733276Y-84171293D01*
X210479103Y-83790897D01*
X210098707Y-83536724D01*
X209763261Y-83470000D01*
X209536739Y-83470000D01*
X209201293Y-83536724D01*
X208820897Y-83790897D01*
X208566724Y-84171293D01*
X208477471Y-84620000D01*
X169267465Y-84620000D01*
X169266336Y-82080000D01*
X208477471Y-82080000D01*
X208566724Y-82528707D01*
X208820897Y-82909103D01*
X209201293Y-83163276D01*
X209536739Y-83230000D01*
X209763261Y-83230000D01*
X210098707Y-83163276D01*
X210479103Y-82909103D01*
X210733276Y-82528707D01*
X210822529Y-82080000D01*
X210733276Y-81631293D01*
X210479103Y-81250897D01*
X210098707Y-80996724D01*
X209763261Y-80930000D01*
X209536739Y-80930000D01*
X209201293Y-80996724D01*
X208820897Y-81250897D01*
X208566724Y-81631293D01*
X208477471Y-82080000D01*
X169266336Y-82080000D01*
X169265726Y-80710653D01*
X172990000Y-80710653D01*
X172990000Y-80949347D01*
X173081344Y-81169873D01*
X173250127Y-81338656D01*
X173470653Y-81430000D01*
X173709347Y-81430000D01*
X173929873Y-81338656D01*
X174098656Y-81169873D01*
X174190000Y-80949347D01*
X174190000Y-80710653D01*
X177990000Y-80710653D01*
X177990000Y-80949347D01*
X178081344Y-81169873D01*
X178250127Y-81338656D01*
X178470653Y-81430000D01*
X178709347Y-81430000D01*
X178929873Y-81338656D01*
X179098656Y-81169873D01*
X179190000Y-80949347D01*
X179190000Y-80710653D01*
X182990000Y-80710653D01*
X182990000Y-80949347D01*
X183081344Y-81169873D01*
X183250127Y-81338656D01*
X183470653Y-81430000D01*
X183709347Y-81430000D01*
X183929873Y-81338656D01*
X184098656Y-81169873D01*
X184190000Y-80949347D01*
X184190000Y-80710653D01*
X187990000Y-80710653D01*
X187990000Y-80949347D01*
X188081344Y-81169873D01*
X188250127Y-81338656D01*
X188470653Y-81430000D01*
X188709347Y-81430000D01*
X188929873Y-81338656D01*
X189098656Y-81169873D01*
X189190000Y-80949347D01*
X189190000Y-80710653D01*
X192990000Y-80710653D01*
X192990000Y-80949347D01*
X193081344Y-81169873D01*
X193250127Y-81338656D01*
X193470653Y-81430000D01*
X193709347Y-81430000D01*
X193929873Y-81338656D01*
X194098656Y-81169873D01*
X194190000Y-80949347D01*
X194190000Y-80710653D01*
X197990000Y-80710653D01*
X197990000Y-80949347D01*
X198081344Y-81169873D01*
X198250127Y-81338656D01*
X198470653Y-81430000D01*
X198709347Y-81430000D01*
X198929873Y-81338656D01*
X199098656Y-81169873D01*
X199190000Y-80949347D01*
X199190000Y-80710653D01*
X202990000Y-80710653D01*
X202990000Y-80949347D01*
X203081344Y-81169873D01*
X203250127Y-81338656D01*
X203470653Y-81430000D01*
X203709347Y-81430000D01*
X203929873Y-81338656D01*
X204098656Y-81169873D01*
X204190000Y-80949347D01*
X204190000Y-80710653D01*
X204098656Y-80490127D01*
X203929873Y-80321344D01*
X203709347Y-80230000D01*
X203470653Y-80230000D01*
X203250127Y-80321344D01*
X203081344Y-80490127D01*
X202990000Y-80710653D01*
X199190000Y-80710653D01*
X199098656Y-80490127D01*
X198929873Y-80321344D01*
X198709347Y-80230000D01*
X198470653Y-80230000D01*
X198250127Y-80321344D01*
X198081344Y-80490127D01*
X197990000Y-80710653D01*
X194190000Y-80710653D01*
X194098656Y-80490127D01*
X193929873Y-80321344D01*
X193709347Y-80230000D01*
X193470653Y-80230000D01*
X193250127Y-80321344D01*
X193081344Y-80490127D01*
X192990000Y-80710653D01*
X189190000Y-80710653D01*
X189098656Y-80490127D01*
X188929873Y-80321344D01*
X188709347Y-80230000D01*
X188470653Y-80230000D01*
X188250127Y-80321344D01*
X188081344Y-80490127D01*
X187990000Y-80710653D01*
X184190000Y-80710653D01*
X184098656Y-80490127D01*
X183929873Y-80321344D01*
X183709347Y-80230000D01*
X183470653Y-80230000D01*
X183250127Y-80321344D01*
X183081344Y-80490127D01*
X182990000Y-80710653D01*
X179190000Y-80710653D01*
X179098656Y-80490127D01*
X178929873Y-80321344D01*
X178709347Y-80230000D01*
X178470653Y-80230000D01*
X178250127Y-80321344D01*
X178081344Y-80490127D01*
X177990000Y-80710653D01*
X174190000Y-80710653D01*
X174098656Y-80490127D01*
X173929873Y-80321344D01*
X173709347Y-80230000D01*
X173470653Y-80230000D01*
X173250127Y-80321344D01*
X173081344Y-80490127D01*
X172990000Y-80710653D01*
X169265726Y-80710653D01*
X169265206Y-79540000D01*
X208477471Y-79540000D01*
X208566724Y-79988707D01*
X208820897Y-80369103D01*
X209201293Y-80623276D01*
X209536739Y-80690000D01*
X209763261Y-80690000D01*
X210098707Y-80623276D01*
X210479103Y-80369103D01*
X210733276Y-79988707D01*
X210822529Y-79540000D01*
X210733276Y-79091293D01*
X210479103Y-78710897D01*
X210098707Y-78456724D01*
X209763261Y-78390000D01*
X209536739Y-78390000D01*
X209201293Y-78456724D01*
X208820897Y-78710897D01*
X208566724Y-79091293D01*
X208477471Y-79540000D01*
X169265206Y-79540000D01*
X169264076Y-77000000D01*
X208477471Y-77000000D01*
X208566724Y-77448707D01*
X208820897Y-77829103D01*
X209201293Y-78083276D01*
X209536739Y-78150000D01*
X209763261Y-78150000D01*
X210098707Y-78083276D01*
X210479103Y-77829103D01*
X210733276Y-77448707D01*
X210822529Y-77000000D01*
X210733276Y-76551293D01*
X210479103Y-76170897D01*
X210098707Y-75916724D01*
X209763261Y-75850000D01*
X209536739Y-75850000D01*
X209201293Y-75916724D01*
X208820897Y-76170897D01*
X208566724Y-76551293D01*
X208477471Y-77000000D01*
X169264076Y-77000000D01*
X169263502Y-75710653D01*
X172990000Y-75710653D01*
X172990000Y-75949347D01*
X173081344Y-76169873D01*
X173250127Y-76338656D01*
X173470653Y-76430000D01*
X173709347Y-76430000D01*
X173929873Y-76338656D01*
X174098656Y-76169873D01*
X174190000Y-75949347D01*
X174190000Y-75710653D01*
X177990000Y-75710653D01*
X177990000Y-75949347D01*
X178081344Y-76169873D01*
X178250127Y-76338656D01*
X178470653Y-76430000D01*
X178709347Y-76430000D01*
X178929873Y-76338656D01*
X179098656Y-76169873D01*
X179190000Y-75949347D01*
X179190000Y-75710653D01*
X182990000Y-75710653D01*
X182990000Y-75949347D01*
X183081344Y-76169873D01*
X183250127Y-76338656D01*
X183470653Y-76430000D01*
X183709347Y-76430000D01*
X183929873Y-76338656D01*
X184098656Y-76169873D01*
X184190000Y-75949347D01*
X184190000Y-75710653D01*
X187990000Y-75710653D01*
X187990000Y-75949347D01*
X188081344Y-76169873D01*
X188250127Y-76338656D01*
X188470653Y-76430000D01*
X188709347Y-76430000D01*
X188929873Y-76338656D01*
X189098656Y-76169873D01*
X189190000Y-75949347D01*
X189190000Y-75710653D01*
X192990000Y-75710653D01*
X192990000Y-75949347D01*
X193081344Y-76169873D01*
X193250127Y-76338656D01*
X193470653Y-76430000D01*
X193709347Y-76430000D01*
X193929873Y-76338656D01*
X194098656Y-76169873D01*
X194190000Y-75949347D01*
X194190000Y-75710653D01*
X197990000Y-75710653D01*
X197990000Y-75949347D01*
X198081344Y-76169873D01*
X198250127Y-76338656D01*
X198470653Y-76430000D01*
X198709347Y-76430000D01*
X198929873Y-76338656D01*
X199098656Y-76169873D01*
X199190000Y-75949347D01*
X199190000Y-75710653D01*
X199098656Y-75490127D01*
X198929873Y-75321344D01*
X198709347Y-75230000D01*
X198470653Y-75230000D01*
X198250127Y-75321344D01*
X198081344Y-75490127D01*
X197990000Y-75710653D01*
X194190000Y-75710653D01*
X194098656Y-75490127D01*
X193929873Y-75321344D01*
X193709347Y-75230000D01*
X193470653Y-75230000D01*
X193250127Y-75321344D01*
X193081344Y-75490127D01*
X192990000Y-75710653D01*
X189190000Y-75710653D01*
X189098656Y-75490127D01*
X188929873Y-75321344D01*
X188709347Y-75230000D01*
X188470653Y-75230000D01*
X188250127Y-75321344D01*
X188081344Y-75490127D01*
X187990000Y-75710653D01*
X184190000Y-75710653D01*
X184098656Y-75490127D01*
X183929873Y-75321344D01*
X183709347Y-75230000D01*
X183470653Y-75230000D01*
X183250127Y-75321344D01*
X183081344Y-75490127D01*
X182990000Y-75710653D01*
X179190000Y-75710653D01*
X179098656Y-75490127D01*
X178929873Y-75321344D01*
X178709347Y-75230000D01*
X178470653Y-75230000D01*
X178250127Y-75321344D01*
X178081344Y-75490127D01*
X177990000Y-75710653D01*
X174190000Y-75710653D01*
X174098656Y-75490127D01*
X173929873Y-75321344D01*
X173709347Y-75230000D01*
X173470653Y-75230000D01*
X173250127Y-75321344D01*
X173081344Y-75490127D01*
X172990000Y-75710653D01*
X169263502Y-75710653D01*
X169263093Y-74790383D01*
X208548480Y-74790383D01*
X208637479Y-75005284D01*
X208923224Y-75351252D01*
X209319614Y-75561535D01*
X209496000Y-75524657D01*
X209496000Y-74614000D01*
X209804000Y-74614000D01*
X209804000Y-75524657D01*
X209980386Y-75561535D01*
X210376776Y-75351252D01*
X210662521Y-75005284D01*
X210751520Y-74790383D01*
X210713912Y-74614000D01*
X209804000Y-74614000D01*
X209496000Y-74614000D01*
X208586088Y-74614000D01*
X208548480Y-74790383D01*
X169263093Y-74790383D01*
X169261817Y-71922067D01*
X202120000Y-71922067D01*
X202120000Y-72677933D01*
X202409258Y-73376263D01*
X202943737Y-73910742D01*
X203642067Y-74200000D01*
X204397933Y-74200000D01*
X204567852Y-74129617D01*
X208548480Y-74129617D01*
X208586088Y-74306000D01*
X209496000Y-74306000D01*
X209496000Y-73395343D01*
X209804000Y-73395343D01*
X209804000Y-74306000D01*
X210713912Y-74306000D01*
X210751520Y-74129617D01*
X210662521Y-73914716D01*
X210376776Y-73568748D01*
X209980386Y-73358465D01*
X209804000Y-73395343D01*
X209496000Y-73395343D01*
X209319614Y-73358465D01*
X208923224Y-73568748D01*
X208637479Y-73914716D01*
X208548480Y-74129617D01*
X204567852Y-74129617D01*
X205096263Y-73910742D01*
X205630742Y-73376263D01*
X205920000Y-72677933D01*
X205920000Y-71922067D01*
X205630742Y-71223737D01*
X205477005Y-71070000D01*
X208494123Y-71070000D01*
X208494123Y-72770000D01*
X208517407Y-72887054D01*
X208583712Y-72986288D01*
X208682946Y-73052593D01*
X208800000Y-73075877D01*
X210500000Y-73075877D01*
X210617054Y-73052593D01*
X210716288Y-72986288D01*
X210782593Y-72887054D01*
X210805877Y-72770000D01*
X210805877Y-71070000D01*
X210782593Y-70952946D01*
X210716288Y-70853712D01*
X210617054Y-70787407D01*
X210500000Y-70764123D01*
X208800000Y-70764123D01*
X208682946Y-70787407D01*
X208583712Y-70853712D01*
X208517407Y-70952946D01*
X208494123Y-71070000D01*
X205477005Y-71070000D01*
X205096263Y-70689258D01*
X204397933Y-70400000D01*
X203642067Y-70400000D01*
X202943737Y-70689258D01*
X202409258Y-71223737D01*
X202120000Y-71922067D01*
X169261817Y-71922067D01*
X169261278Y-70710653D01*
X172990000Y-70710653D01*
X172990000Y-70949347D01*
X173081344Y-71169873D01*
X173250127Y-71338656D01*
X173470653Y-71430000D01*
X173709347Y-71430000D01*
X173929873Y-71338656D01*
X174098656Y-71169873D01*
X174190000Y-70949347D01*
X174190000Y-70710653D01*
X177990000Y-70710653D01*
X177990000Y-70949347D01*
X178081344Y-71169873D01*
X178250127Y-71338656D01*
X178470653Y-71430000D01*
X178709347Y-71430000D01*
X178929873Y-71338656D01*
X179098656Y-71169873D01*
X179190000Y-70949347D01*
X179190000Y-70710653D01*
X182990000Y-70710653D01*
X182990000Y-70949347D01*
X183081344Y-71169873D01*
X183250127Y-71338656D01*
X183470653Y-71430000D01*
X183709347Y-71430000D01*
X183929873Y-71338656D01*
X184098656Y-71169873D01*
X184190000Y-70949347D01*
X184190000Y-70710653D01*
X187990000Y-70710653D01*
X187990000Y-70949347D01*
X188081344Y-71169873D01*
X188250127Y-71338656D01*
X188470653Y-71430000D01*
X188709347Y-71430000D01*
X188929873Y-71338656D01*
X189098656Y-71169873D01*
X189190000Y-70949347D01*
X189190000Y-70710653D01*
X192990000Y-70710653D01*
X192990000Y-70949347D01*
X193081344Y-71169873D01*
X193250127Y-71338656D01*
X193470653Y-71430000D01*
X193709347Y-71430000D01*
X193929873Y-71338656D01*
X194098656Y-71169873D01*
X194190000Y-70949347D01*
X194190000Y-70710653D01*
X197990000Y-70710653D01*
X197990000Y-70949347D01*
X198081344Y-71169873D01*
X198250127Y-71338656D01*
X198470653Y-71430000D01*
X198709347Y-71430000D01*
X198929873Y-71338656D01*
X199098656Y-71169873D01*
X199190000Y-70949347D01*
X199190000Y-70710653D01*
X199098656Y-70490127D01*
X198929873Y-70321344D01*
X198709347Y-70230000D01*
X198470653Y-70230000D01*
X198250127Y-70321344D01*
X198081344Y-70490127D01*
X197990000Y-70710653D01*
X194190000Y-70710653D01*
X194098656Y-70490127D01*
X193929873Y-70321344D01*
X193709347Y-70230000D01*
X193470653Y-70230000D01*
X193250127Y-70321344D01*
X193081344Y-70490127D01*
X192990000Y-70710653D01*
X189190000Y-70710653D01*
X189098656Y-70490127D01*
X188929873Y-70321344D01*
X188709347Y-70230000D01*
X188470653Y-70230000D01*
X188250127Y-70321344D01*
X188081344Y-70490127D01*
X187990000Y-70710653D01*
X184190000Y-70710653D01*
X184098656Y-70490127D01*
X183929873Y-70321344D01*
X183709347Y-70230000D01*
X183470653Y-70230000D01*
X183250127Y-70321344D01*
X183081344Y-70490127D01*
X182990000Y-70710653D01*
X179190000Y-70710653D01*
X179098656Y-70490127D01*
X178929873Y-70321344D01*
X178709347Y-70230000D01*
X178470653Y-70230000D01*
X178250127Y-70321344D01*
X178081344Y-70490127D01*
X177990000Y-70710653D01*
X174190000Y-70710653D01*
X174098656Y-70490127D01*
X173929873Y-70321344D01*
X173709347Y-70230000D01*
X173470653Y-70230000D01*
X173250127Y-70321344D01*
X173081344Y-70490127D01*
X172990000Y-70710653D01*
X169261278Y-70710653D01*
X169260524Y-69017284D01*
X210804928Y-69044983D01*
G04 #@! TD*
M02*
