%FSLAX45Y45*%
G04 Gerber Fmt 4.5, Leading zero omitted, Abs format (unit mm)*
G04 Created by KiCad (PCBNEW (5.0.0)) date 05/27/20 21:18:58*
%MOMM*%
%LPD*%
G01*
G04 APERTURE LIST*
%ADD10C,0.150000*%
%ADD11C,0.200000*%
%ADD12C,0.300000*%
G04 APERTURE END LIST*
D10*
X12633043Y-6934148D02*
G75*
G02X12866026Y-6699165I233983J1000D01*
G01*
X23171983Y-12349017D02*
G75*
G02X22939000Y-12584000I-233983J-1000D01*
G01*
X12633043Y-6936148D02*
X12630043Y-12346148D01*
X22941000Y-12584000D02*
X12862000Y-12579000D01*
X12865026Y-12579131D02*
G75*
G02X12630043Y-12346148I-1000J233983D01*
G01*
X12867043Y-6699148D02*
X22934000Y-6699000D01*
X22935017Y-6699000D02*
G75*
G02X23170000Y-6931983I1000J-233983D01*
G01*
X23172000Y-12350000D02*
X23170000Y-6928000D01*
D11*
X12711000Y-7839000D02*
X12751000Y-7879000D01*
X12751000Y-7839000D02*
X12711000Y-7879000D01*
X12728000Y-6843000D02*
X12768000Y-6883000D01*
X12768000Y-6843000D02*
X12728000Y-6883000D01*
X12779000Y-7348000D02*
X12819000Y-7388000D01*
X12819000Y-7348000D02*
X12779000Y-7388000D01*
X12782000Y-8442000D02*
X12822000Y-8482000D01*
X12822000Y-8442000D02*
X12782000Y-8482000D01*
X12782000Y-8842000D02*
X12822000Y-8882000D01*
X12822000Y-8842000D02*
X12782000Y-8882000D01*
X12782000Y-9242000D02*
X12822000Y-9282000D01*
X12822000Y-9242000D02*
X12782000Y-9282000D01*
X12782000Y-9642000D02*
X12822000Y-9682000D01*
X12822000Y-9642000D02*
X12782000Y-9682000D01*
X12782000Y-10042000D02*
X12822000Y-10082000D01*
X12822000Y-10042000D02*
X12782000Y-10082000D01*
X12782000Y-12042000D02*
X12822000Y-12082000D01*
X12822000Y-12042000D02*
X12782000Y-12082000D01*
X12782000Y-12442000D02*
X12822000Y-12482000D01*
X12822000Y-12442000D02*
X12782000Y-12482000D01*
X12784000Y-7588000D02*
X12824000Y-7628000D01*
X12824000Y-7588000D02*
X12784000Y-7628000D01*
X12784000Y-8170000D02*
X12824000Y-8210000D01*
X12824000Y-8170000D02*
X12784000Y-8210000D01*
X12816000Y-11612000D02*
X12856000Y-11652000D01*
X12856000Y-11612000D02*
X12816000Y-11652000D01*
X12820000Y-11088000D02*
X12860000Y-11128000D01*
X12860000Y-11088000D02*
X12820000Y-11128000D01*
X12935043Y-9086148D02*
X12975043Y-9126148D01*
X12975043Y-9086148D02*
X12935043Y-9126148D01*
X13002000Y-7816000D02*
X13042000Y-7856000D01*
X13042000Y-7816000D02*
X13002000Y-7856000D01*
X13098000Y-10782000D02*
X13138000Y-10822000D01*
X13138000Y-10782000D02*
X13098000Y-10822000D01*
X13102000Y-7634000D02*
X13142000Y-7674000D01*
X13142000Y-7634000D02*
X13102000Y-7674000D01*
X13117000Y-10255000D02*
X13157000Y-10295000D01*
X13157000Y-10255000D02*
X13117000Y-10295000D01*
X13125000Y-11341000D02*
X13165000Y-11381000D01*
X13165000Y-11341000D02*
X13125000Y-11381000D01*
X13140043Y-9914148D02*
X13180043Y-9954148D01*
X13180043Y-9914148D02*
X13140043Y-9954148D01*
X13182000Y-8842000D02*
X13222000Y-8882000D01*
X13222000Y-8842000D02*
X13182000Y-8882000D01*
X13182000Y-12042000D02*
X13222000Y-12082000D01*
X13222000Y-12042000D02*
X13182000Y-12082000D01*
X13182000Y-12442000D02*
X13222000Y-12482000D01*
X13222000Y-12442000D02*
X13182000Y-12482000D01*
X13192000Y-7357000D02*
X13232000Y-7397000D01*
X13232000Y-7357000D02*
X13192000Y-7397000D01*
X13198043Y-9089148D02*
X13238043Y-9129148D01*
X13238043Y-9089148D02*
X13198043Y-9129148D01*
X13224000Y-10512000D02*
X13264000Y-10552000D01*
X13264000Y-10512000D02*
X13224000Y-10552000D01*
X13254000Y-11652000D02*
X13294000Y-11692000D01*
X13294000Y-11652000D02*
X13254000Y-11692000D01*
X13273000Y-6849000D02*
X13313000Y-6889000D01*
X13313000Y-6849000D02*
X13273000Y-6889000D01*
X13457043Y-7884148D02*
X13497043Y-7924148D01*
X13497043Y-7884148D02*
X13457043Y-7924148D01*
X13496000Y-9463000D02*
X13536000Y-9503000D01*
X13536000Y-9463000D02*
X13496000Y-9503000D01*
X13500000Y-10412000D02*
X13540000Y-10452000D01*
X13540000Y-10412000D02*
X13500000Y-10452000D01*
X13580000Y-10929000D02*
X13620000Y-10969000D01*
X13620000Y-10929000D02*
X13580000Y-10969000D01*
X13582000Y-8842000D02*
X13622000Y-8882000D01*
X13622000Y-8842000D02*
X13582000Y-8882000D01*
X13582000Y-10042000D02*
X13622000Y-10082000D01*
X13622000Y-10042000D02*
X13582000Y-10082000D01*
X13582000Y-11242000D02*
X13622000Y-11282000D01*
X13622000Y-11242000D02*
X13582000Y-11282000D01*
X13582000Y-11642000D02*
X13622000Y-11682000D01*
X13622000Y-11642000D02*
X13582000Y-11682000D01*
X13582000Y-12442000D02*
X13622000Y-12482000D01*
X13622000Y-12442000D02*
X13582000Y-12482000D01*
X13583000Y-12043000D02*
X13623000Y-12083000D01*
X13623000Y-12043000D02*
X13583000Y-12083000D01*
X13691043Y-9678148D02*
X13731043Y-9718148D01*
X13731043Y-9678148D02*
X13691043Y-9718148D01*
X13739000Y-7630000D02*
X13779000Y-7670000D01*
X13779000Y-7630000D02*
X13739000Y-7670000D01*
X13773000Y-8118000D02*
X13813000Y-8158000D01*
X13813000Y-8118000D02*
X13773000Y-8158000D01*
X13775043Y-9785148D02*
X13815043Y-9825148D01*
X13815043Y-9785148D02*
X13775043Y-9825148D01*
X13924000Y-10931000D02*
X13964000Y-10971000D01*
X13964000Y-10931000D02*
X13924000Y-10971000D01*
X13926000Y-11244000D02*
X13966000Y-11284000D01*
X13966000Y-11244000D02*
X13926000Y-11284000D01*
X13926000Y-11644000D02*
X13966000Y-11684000D01*
X13966000Y-11644000D02*
X13926000Y-11684000D01*
X13926000Y-12044000D02*
X13966000Y-12084000D01*
X13966000Y-12044000D02*
X13926000Y-12084000D01*
X13926000Y-12444000D02*
X13966000Y-12484000D01*
X13966000Y-12444000D02*
X13926000Y-12484000D01*
X13950000Y-7732000D02*
X13990000Y-7772000D01*
X13990000Y-7732000D02*
X13950000Y-7772000D01*
X13979000Y-10733000D02*
X14019000Y-10773000D01*
X14019000Y-10733000D02*
X13979000Y-10773000D01*
X13982000Y-6842000D02*
X14022000Y-6882000D01*
X14022000Y-6842000D02*
X13982000Y-6882000D01*
X14052000Y-9046000D02*
X14092000Y-9086000D01*
X14092000Y-9046000D02*
X14052000Y-9086000D01*
X14147043Y-8147148D02*
X14187043Y-8187148D01*
X14187043Y-8147148D02*
X14147043Y-8187148D01*
X14183132Y-9510237D02*
X14223132Y-9550237D01*
X14223132Y-9510237D02*
X14183132Y-9550237D01*
X14209000Y-7969000D02*
X14249000Y-8009000D01*
X14249000Y-7969000D02*
X14209000Y-8009000D01*
X14379000Y-10733000D02*
X14419000Y-10773000D01*
X14419000Y-10733000D02*
X14379000Y-10773000D01*
X14382000Y-7642000D02*
X14422000Y-7682000D01*
X14422000Y-7642000D02*
X14382000Y-7682000D01*
X14382000Y-8842000D02*
X14422000Y-8882000D01*
X14422000Y-8842000D02*
X14382000Y-8882000D01*
X14382000Y-10042000D02*
X14422000Y-10082000D01*
X14422000Y-10042000D02*
X14382000Y-10082000D01*
X14384000Y-7412000D02*
X14424000Y-7452000D01*
X14424000Y-7412000D02*
X14384000Y-7452000D01*
X14529000Y-9285000D02*
X14569000Y-9325000D01*
X14569000Y-9285000D02*
X14529000Y-9325000D01*
X14572000Y-9693000D02*
X14612000Y-9733000D01*
X14612000Y-9693000D02*
X14572000Y-9733000D01*
X14576000Y-9461000D02*
X14616000Y-9501000D01*
X14616000Y-9461000D02*
X14576000Y-9501000D01*
X14602000Y-8691000D02*
X14642000Y-8731000D01*
X14642000Y-8691000D02*
X14602000Y-8731000D01*
X14718000Y-9541000D02*
X14758000Y-9581000D01*
X14758000Y-9541000D02*
X14718000Y-9581000D01*
X14779000Y-10733000D02*
X14819000Y-10773000D01*
X14819000Y-10733000D02*
X14779000Y-10773000D01*
X14782000Y-6842000D02*
X14822000Y-6882000D01*
X14822000Y-6842000D02*
X14782000Y-6882000D01*
X14782000Y-7242000D02*
X14822000Y-7282000D01*
X14822000Y-7242000D02*
X14782000Y-7282000D01*
X14782000Y-7642000D02*
X14822000Y-7682000D01*
X14822000Y-7642000D02*
X14782000Y-7682000D01*
X14782000Y-8042000D02*
X14822000Y-8082000D01*
X14822000Y-8042000D02*
X14782000Y-8082000D01*
X14782000Y-8442000D02*
X14822000Y-8482000D01*
X14822000Y-8442000D02*
X14782000Y-8482000D01*
X14797043Y-9775148D02*
X14837043Y-9815148D01*
X14837043Y-9775148D02*
X14797043Y-9815148D01*
X14879000Y-9301000D02*
X14919000Y-9341000D01*
X14919000Y-9301000D02*
X14879000Y-9341000D01*
X14893043Y-10396148D02*
X14933043Y-10436148D01*
X14933043Y-10396148D02*
X14893043Y-10436148D01*
X14984000Y-8367000D02*
X15024000Y-8407000D01*
X15024000Y-8367000D02*
X14984000Y-8407000D01*
X14993000Y-8754000D02*
X15033000Y-8794000D01*
X15033000Y-8754000D02*
X14993000Y-8794000D01*
X15004000Y-9770000D02*
X15044000Y-9810000D01*
X15044000Y-9770000D02*
X15004000Y-9810000D01*
X15037043Y-8875148D02*
X15077043Y-8915148D01*
X15077043Y-8875148D02*
X15037043Y-8915148D01*
X15179000Y-10733000D02*
X15219000Y-10773000D01*
X15219000Y-10733000D02*
X15179000Y-10773000D01*
X15182000Y-10042000D02*
X15222000Y-10082000D01*
X15222000Y-10042000D02*
X15182000Y-10082000D01*
X15208043Y-6788148D02*
X15248043Y-6828148D01*
X15248043Y-6788148D02*
X15208043Y-6828148D01*
X15209043Y-8882148D02*
X15249043Y-8922148D01*
X15249043Y-8882148D02*
X15209043Y-8922148D01*
X15404000Y-9213000D02*
X15444000Y-9253000D01*
X15444000Y-9213000D02*
X15404000Y-9253000D01*
X15449000Y-9494000D02*
X15489000Y-9534000D01*
X15489000Y-9494000D02*
X15449000Y-9534000D01*
X15579000Y-10733000D02*
X15619000Y-10773000D01*
X15619000Y-10733000D02*
X15579000Y-10773000D01*
X15582000Y-6842000D02*
X15622000Y-6882000D01*
X15622000Y-6842000D02*
X15582000Y-6882000D01*
X15582000Y-7242000D02*
X15622000Y-7282000D01*
X15622000Y-7242000D02*
X15582000Y-7282000D01*
X15582000Y-7642000D02*
X15622000Y-7682000D01*
X15622000Y-7642000D02*
X15582000Y-7682000D01*
X15582000Y-8042000D02*
X15622000Y-8082000D01*
X15622000Y-8042000D02*
X15582000Y-8082000D01*
X15613043Y-7497148D02*
X15653043Y-7537148D01*
X15653043Y-7497148D02*
X15613043Y-7537148D01*
X15730000Y-9884000D02*
X15770000Y-9924000D01*
X15770000Y-9884000D02*
X15730000Y-9924000D01*
X15866000Y-9498000D02*
X15906000Y-9538000D01*
X15906000Y-9498000D02*
X15866000Y-9538000D01*
X15890000Y-10738000D02*
X15930000Y-10778000D01*
X15930000Y-10738000D02*
X15890000Y-10778000D01*
X15982000Y-7642000D02*
X16022000Y-7682000D01*
X16022000Y-7642000D02*
X15982000Y-7682000D01*
X15982000Y-10042000D02*
X16022000Y-10082000D01*
X16022000Y-10042000D02*
X15982000Y-10082000D01*
X15982000Y-10442000D02*
X16022000Y-10482000D01*
X16022000Y-10442000D02*
X15982000Y-10482000D01*
X16105000Y-8338000D02*
X16145000Y-8378000D01*
X16145000Y-8338000D02*
X16105000Y-8378000D01*
X16111000Y-8050000D02*
X16151000Y-8090000D01*
X16151000Y-8050000D02*
X16111000Y-8090000D01*
X16120000Y-7181000D02*
X16160000Y-7221000D01*
X16160000Y-7181000D02*
X16120000Y-7221000D01*
X16170000Y-10486000D02*
X16210000Y-10526000D01*
X16210000Y-10486000D02*
X16170000Y-10526000D01*
X16220000Y-10736000D02*
X16260000Y-10776000D01*
X16260000Y-10736000D02*
X16220000Y-10776000D01*
X16326000Y-8692000D02*
X16366000Y-8732000D01*
X16366000Y-8692000D02*
X16326000Y-8732000D01*
X16382000Y-7642000D02*
X16422000Y-7682000D01*
X16422000Y-7642000D02*
X16382000Y-7682000D01*
X16382000Y-10042000D02*
X16422000Y-10082000D01*
X16422000Y-10042000D02*
X16382000Y-10082000D01*
X16434000Y-6825000D02*
X16474000Y-6865000D01*
X16474000Y-6825000D02*
X16434000Y-6865000D01*
X16470000Y-9386000D02*
X16510000Y-9426000D01*
X16510000Y-9386000D02*
X16470000Y-9426000D01*
X16728000Y-9697000D02*
X16768000Y-9737000D01*
X16768000Y-9697000D02*
X16728000Y-9737000D01*
X16729000Y-9886000D02*
X16769000Y-9926000D01*
X16769000Y-9886000D02*
X16729000Y-9926000D01*
X16782000Y-7242000D02*
X16822000Y-7282000D01*
X16822000Y-7242000D02*
X16782000Y-7282000D01*
X16844000Y-8923000D02*
X16884000Y-8963000D01*
X16884000Y-8923000D02*
X16844000Y-8963000D01*
X16861000Y-8779000D02*
X16901000Y-8819000D01*
X16901000Y-8779000D02*
X16861000Y-8819000D01*
X16907000Y-9149000D02*
X16947000Y-9189000D01*
X16947000Y-9149000D02*
X16907000Y-9189000D01*
X16920000Y-9016000D02*
X16960000Y-9056000D01*
X16960000Y-9016000D02*
X16920000Y-9056000D01*
X17059000Y-9404000D02*
X17099000Y-9444000D01*
X17099000Y-9404000D02*
X17059000Y-9444000D01*
X17060000Y-9880000D02*
X17100000Y-9920000D01*
X17100000Y-9880000D02*
X17060000Y-9920000D01*
X17069000Y-8553000D02*
X17109000Y-8593000D01*
X17109000Y-8553000D02*
X17069000Y-8593000D01*
X17182000Y-6842000D02*
X17222000Y-6882000D01*
X17222000Y-6842000D02*
X17182000Y-6882000D01*
X17182000Y-10042000D02*
X17222000Y-10082000D01*
X17222000Y-10042000D02*
X17182000Y-10082000D01*
X17215000Y-10741000D02*
X17255000Y-10781000D01*
X17255000Y-10741000D02*
X17215000Y-10781000D01*
X17274043Y-8189148D02*
X17314043Y-8229148D01*
X17314043Y-8189148D02*
X17274043Y-8229148D01*
X17333000Y-8805000D02*
X17373000Y-8845000D01*
X17373000Y-8805000D02*
X17333000Y-8845000D01*
X17334000Y-10402000D02*
X17374000Y-10442000D01*
X17374000Y-10402000D02*
X17334000Y-10442000D01*
X17357000Y-9017000D02*
X17397000Y-9057000D01*
X17397000Y-9017000D02*
X17357000Y-9057000D01*
X17364000Y-9842000D02*
X17404000Y-9882000D01*
X17404000Y-9842000D02*
X17364000Y-9882000D01*
X17422000Y-7466000D02*
X17462000Y-7506000D01*
X17462000Y-7466000D02*
X17422000Y-7506000D01*
X17432000Y-9104000D02*
X17472000Y-9144000D01*
X17472000Y-9104000D02*
X17432000Y-9144000D01*
X17438000Y-9449000D02*
X17478000Y-9489000D01*
X17478000Y-9449000D02*
X17438000Y-9489000D01*
X17452000Y-8944000D02*
X17492000Y-8984000D01*
X17492000Y-8944000D02*
X17452000Y-8984000D01*
X17522043Y-7966148D02*
X17562043Y-8006148D01*
X17562043Y-7966148D02*
X17522043Y-8006148D01*
X17582000Y-6842000D02*
X17622000Y-6882000D01*
X17622000Y-6842000D02*
X17582000Y-6882000D01*
X17582000Y-10042000D02*
X17622000Y-10082000D01*
X17622000Y-10042000D02*
X17582000Y-10082000D01*
X17582000Y-10442000D02*
X17622000Y-10482000D01*
X17622000Y-10442000D02*
X17582000Y-10482000D01*
X17596000Y-7660000D02*
X17636000Y-7700000D01*
X17636000Y-7660000D02*
X17596000Y-7700000D01*
X17615000Y-8311000D02*
X17655000Y-8351000D01*
X17655000Y-8311000D02*
X17615000Y-8351000D01*
X17680000Y-8042000D02*
X17720000Y-8082000D01*
X17720000Y-8042000D02*
X17680000Y-8082000D01*
X17822000Y-7466000D02*
X17862000Y-7506000D01*
X17862000Y-7466000D02*
X17822000Y-7506000D01*
X17885043Y-7328148D02*
X17925043Y-7368148D01*
X17925043Y-7328148D02*
X17885043Y-7368148D01*
X17923000Y-10660000D02*
X17963000Y-10700000D01*
X17963000Y-10660000D02*
X17923000Y-10700000D01*
X17982000Y-7242000D02*
X18022000Y-7282000D01*
X18022000Y-7242000D02*
X17982000Y-7282000D01*
X17982000Y-10042000D02*
X18022000Y-10082000D01*
X18022000Y-10042000D02*
X17982000Y-10082000D01*
X17982000Y-12042000D02*
X18022000Y-12082000D01*
X18022000Y-12042000D02*
X17982000Y-12082000D01*
X18094000Y-9734000D02*
X18134000Y-9774000D01*
X18134000Y-9734000D02*
X18094000Y-9774000D01*
X18115000Y-9175000D02*
X18155000Y-9215000D01*
X18155000Y-9175000D02*
X18115000Y-9215000D01*
X18116000Y-8598000D02*
X18156000Y-8638000D01*
X18156000Y-8598000D02*
X18116000Y-8638000D01*
X18188000Y-8686000D02*
X18228000Y-8726000D01*
X18228000Y-8686000D02*
X18188000Y-8726000D01*
X18239000Y-8027000D02*
X18279000Y-8067000D01*
X18279000Y-8027000D02*
X18239000Y-8067000D01*
X18248000Y-9339000D02*
X18288000Y-9379000D01*
X18288000Y-9339000D02*
X18248000Y-9379000D01*
X18254000Y-8763000D02*
X18294000Y-8803000D01*
X18294000Y-8763000D02*
X18254000Y-8803000D01*
X18274000Y-12038000D02*
X18314000Y-12078000D01*
X18314000Y-12038000D02*
X18274000Y-12078000D01*
X18296000Y-11335000D02*
X18336000Y-11375000D01*
X18336000Y-11335000D02*
X18296000Y-11375000D01*
X18312000Y-8847000D02*
X18352000Y-8887000D01*
X18352000Y-8847000D02*
X18312000Y-8887000D01*
X18322000Y-9050000D02*
X18362000Y-9090000D01*
X18362000Y-9050000D02*
X18322000Y-9090000D01*
X18367000Y-7354000D02*
X18407000Y-7394000D01*
X18407000Y-7354000D02*
X18367000Y-7394000D01*
X18382000Y-7642000D02*
X18422000Y-7682000D01*
X18422000Y-7642000D02*
X18382000Y-7682000D01*
X18382000Y-9242000D02*
X18422000Y-9282000D01*
X18422000Y-9242000D02*
X18382000Y-9282000D01*
X18382000Y-10042000D02*
X18422000Y-10082000D01*
X18422000Y-10042000D02*
X18382000Y-10082000D01*
X18382000Y-10442000D02*
X18422000Y-10482000D01*
X18422000Y-10442000D02*
X18382000Y-10482000D01*
X18382000Y-10842000D02*
X18422000Y-10882000D01*
X18422000Y-10842000D02*
X18382000Y-10882000D01*
X18397000Y-8633000D02*
X18437000Y-8673000D01*
X18437000Y-8633000D02*
X18397000Y-8673000D01*
X18597000Y-8911000D02*
X18637000Y-8951000D01*
X18637000Y-8911000D02*
X18597000Y-8951000D01*
X18671043Y-11086148D02*
X18711043Y-11126148D01*
X18711043Y-11086148D02*
X18671043Y-11126148D01*
X18729000Y-7642000D02*
X18769000Y-7682000D01*
X18769000Y-7642000D02*
X18729000Y-7682000D01*
X18730000Y-7824000D02*
X18770000Y-7864000D01*
X18770000Y-7824000D02*
X18730000Y-7864000D01*
X18776000Y-11620000D02*
X18816000Y-11660000D01*
X18816000Y-11620000D02*
X18776000Y-11660000D01*
X18782000Y-10042000D02*
X18822000Y-10082000D01*
X18822000Y-10042000D02*
X18782000Y-10082000D01*
X18782000Y-10442000D02*
X18822000Y-10482000D01*
X18822000Y-10442000D02*
X18782000Y-10482000D01*
X18782000Y-11242000D02*
X18822000Y-11282000D01*
X18822000Y-11242000D02*
X18782000Y-11282000D01*
X18782000Y-12442000D02*
X18822000Y-12482000D01*
X18822000Y-12442000D02*
X18782000Y-12482000D01*
X18795000Y-9241000D02*
X18835000Y-9281000D01*
X18835000Y-9241000D02*
X18795000Y-9281000D01*
X18801000Y-8633000D02*
X18841000Y-8673000D01*
X18841000Y-8633000D02*
X18801000Y-8673000D01*
X18886000Y-9682000D02*
X18926000Y-9722000D01*
X18926000Y-9682000D02*
X18886000Y-9722000D01*
X18907000Y-8896000D02*
X18947000Y-8936000D01*
X18947000Y-8896000D02*
X18907000Y-8936000D01*
X19001000Y-8311000D02*
X19041000Y-8351000D01*
X19041000Y-8311000D02*
X19001000Y-8351000D01*
X19057000Y-10214000D02*
X19097000Y-10254000D01*
X19097000Y-10214000D02*
X19057000Y-10254000D01*
X19112000Y-7390000D02*
X19152000Y-7430000D01*
X19152000Y-7390000D02*
X19112000Y-7430000D01*
X19114000Y-7660000D02*
X19154000Y-7700000D01*
X19154000Y-7660000D02*
X19114000Y-7700000D01*
X19144000Y-9832000D02*
X19184000Y-9872000D01*
X19184000Y-9832000D02*
X19144000Y-9872000D01*
X19182000Y-6842000D02*
X19222000Y-6882000D01*
X19222000Y-6842000D02*
X19182000Y-6882000D01*
X19182000Y-12442000D02*
X19222000Y-12482000D01*
X19222000Y-12442000D02*
X19182000Y-12482000D01*
X19222000Y-11611000D02*
X19262000Y-11651000D01*
X19262000Y-11611000D02*
X19222000Y-11651000D01*
X19292043Y-11037148D02*
X19332043Y-11077148D01*
X19332043Y-11037148D02*
X19292043Y-11077148D01*
X19433000Y-7519000D02*
X19473000Y-7559000D01*
X19473000Y-7519000D02*
X19433000Y-7559000D01*
X19434000Y-6965000D02*
X19474000Y-7005000D01*
X19474000Y-6965000D02*
X19434000Y-7005000D01*
X19434000Y-7956000D02*
X19474000Y-7996000D01*
X19474000Y-7956000D02*
X19434000Y-7996000D01*
X19434000Y-9740000D02*
X19474000Y-9780000D01*
X19474000Y-9740000D02*
X19434000Y-9780000D01*
X19434000Y-10176000D02*
X19474000Y-10216000D01*
X19474000Y-10176000D02*
X19434000Y-10216000D01*
X19435000Y-8851000D02*
X19475000Y-8891000D01*
X19475000Y-8851000D02*
X19435000Y-8891000D01*
X19435000Y-9306000D02*
X19475000Y-9346000D01*
X19475000Y-9306000D02*
X19435000Y-9346000D01*
X19436000Y-8395000D02*
X19476000Y-8435000D01*
X19476000Y-8395000D02*
X19436000Y-8435000D01*
X19582000Y-6842000D02*
X19622000Y-6882000D01*
X19622000Y-6842000D02*
X19582000Y-6882000D01*
X19582000Y-11242000D02*
X19622000Y-11282000D01*
X19622000Y-11242000D02*
X19582000Y-11282000D01*
X19582000Y-12442000D02*
X19622000Y-12482000D01*
X19622000Y-12442000D02*
X19582000Y-12482000D01*
X19590000Y-11648000D02*
X19630000Y-11688000D01*
X19630000Y-11648000D02*
X19590000Y-11688000D01*
X19982000Y-6842000D02*
X20022000Y-6882000D01*
X20022000Y-6842000D02*
X19982000Y-6882000D01*
X19982000Y-7242000D02*
X20022000Y-7282000D01*
X20022000Y-7242000D02*
X19982000Y-7282000D01*
X19982000Y-7642000D02*
X20022000Y-7682000D01*
X20022000Y-7642000D02*
X19982000Y-7682000D01*
X19982000Y-8042000D02*
X20022000Y-8082000D01*
X20022000Y-8042000D02*
X19982000Y-8082000D01*
X19982000Y-8442000D02*
X20022000Y-8482000D01*
X20022000Y-8442000D02*
X19982000Y-8482000D01*
X19982000Y-8842000D02*
X20022000Y-8882000D01*
X20022000Y-8842000D02*
X19982000Y-8882000D01*
X19982000Y-10442000D02*
X20022000Y-10482000D01*
X20022000Y-10442000D02*
X19982000Y-10482000D01*
X19982000Y-10842000D02*
X20022000Y-10882000D01*
X20022000Y-10842000D02*
X19982000Y-10882000D01*
X19982000Y-11642000D02*
X20022000Y-11682000D01*
X20022000Y-11642000D02*
X19982000Y-11682000D01*
X19982000Y-12042000D02*
X20022000Y-12082000D01*
X20022000Y-12042000D02*
X19982000Y-12082000D01*
X19985000Y-9899000D02*
X20025000Y-9939000D01*
X20025000Y-9899000D02*
X19985000Y-9939000D01*
X19991000Y-9420000D02*
X20031000Y-9460000D01*
X20031000Y-9420000D02*
X19991000Y-9460000D01*
X20049000Y-11372000D02*
X20089000Y-11412000D01*
X20089000Y-11372000D02*
X20049000Y-11412000D01*
X20382000Y-6842000D02*
X20422000Y-6882000D01*
X20422000Y-6842000D02*
X20382000Y-6882000D01*
X20382000Y-10442000D02*
X20422000Y-10482000D01*
X20422000Y-10442000D02*
X20382000Y-10482000D01*
X20382000Y-11642000D02*
X20422000Y-11682000D01*
X20422000Y-11642000D02*
X20382000Y-11682000D01*
X20389000Y-11233000D02*
X20429000Y-11273000D01*
X20429000Y-11233000D02*
X20389000Y-11273000D01*
X20688000Y-7840000D02*
X20728000Y-7880000D01*
X20728000Y-7840000D02*
X20688000Y-7880000D01*
X20691000Y-7361000D02*
X20731000Y-7401000D01*
X20731000Y-7361000D02*
X20691000Y-7401000D01*
X20695000Y-8270000D02*
X20735000Y-8310000D01*
X20735000Y-8270000D02*
X20695000Y-8310000D01*
X20698000Y-10043000D02*
X20738000Y-10083000D01*
X20738000Y-10043000D02*
X20698000Y-10083000D01*
X20702000Y-8704000D02*
X20742000Y-8744000D01*
X20742000Y-8704000D02*
X20702000Y-8744000D01*
X20702000Y-9151000D02*
X20742000Y-9191000D01*
X20742000Y-9151000D02*
X20702000Y-9191000D01*
X20702000Y-9595000D02*
X20742000Y-9635000D01*
X20742000Y-9595000D02*
X20702000Y-9635000D01*
X20709000Y-10483000D02*
X20749000Y-10523000D01*
X20749000Y-10483000D02*
X20709000Y-10523000D01*
X20736000Y-11236000D02*
X20776000Y-11276000D01*
X20776000Y-11236000D02*
X20736000Y-11276000D01*
X20758000Y-11649000D02*
X20798000Y-11689000D01*
X20798000Y-11649000D02*
X20758000Y-11689000D01*
X20782000Y-6842000D02*
X20822000Y-6882000D01*
X20822000Y-6842000D02*
X20782000Y-6882000D01*
X20782000Y-12042000D02*
X20822000Y-12082000D01*
X20822000Y-12042000D02*
X20782000Y-12082000D01*
X20782000Y-12442000D02*
X20822000Y-12482000D01*
X20822000Y-12442000D02*
X20782000Y-12482000D01*
X21164000Y-12033000D02*
X21204000Y-12073000D01*
X21204000Y-12033000D02*
X21164000Y-12073000D01*
X21182000Y-6842000D02*
X21222000Y-6882000D01*
X21222000Y-6842000D02*
X21182000Y-6882000D01*
X21182000Y-9642000D02*
X21222000Y-9682000D01*
X21222000Y-9642000D02*
X21182000Y-9682000D01*
X21182000Y-10042000D02*
X21222000Y-10082000D01*
X21222000Y-10042000D02*
X21182000Y-10082000D01*
X21182000Y-10442000D02*
X21222000Y-10482000D01*
X21222000Y-10442000D02*
X21182000Y-10482000D01*
X21182000Y-10842000D02*
X21222000Y-10882000D01*
X21222000Y-10842000D02*
X21182000Y-10882000D01*
X21182000Y-11242000D02*
X21222000Y-11282000D01*
X21222000Y-11242000D02*
X21182000Y-11282000D01*
X21182000Y-11642000D02*
X21222000Y-11682000D01*
X21222000Y-11642000D02*
X21182000Y-11682000D01*
X21182000Y-12442000D02*
X21222000Y-12482000D01*
X21222000Y-12442000D02*
X21182000Y-12482000D01*
X21183000Y-7641000D02*
X21223000Y-7681000D01*
X21223000Y-7641000D02*
X21183000Y-7681000D01*
X21183000Y-8041000D02*
X21223000Y-8081000D01*
X21223000Y-8041000D02*
X21183000Y-8081000D01*
X21183000Y-8441000D02*
X21223000Y-8481000D01*
X21223000Y-8441000D02*
X21183000Y-8481000D01*
X21183000Y-8841000D02*
X21223000Y-8881000D01*
X21223000Y-8841000D02*
X21183000Y-8881000D01*
X21183000Y-9241000D02*
X21223000Y-9281000D01*
X21223000Y-9241000D02*
X21183000Y-9281000D01*
X21338000Y-7333000D02*
X21378000Y-7373000D01*
X21378000Y-7333000D02*
X21338000Y-7373000D01*
X21563000Y-9315000D02*
X21603000Y-9355000D01*
X21603000Y-9315000D02*
X21563000Y-9355000D01*
X21567000Y-8731000D02*
X21607000Y-8771000D01*
X21607000Y-8731000D02*
X21567000Y-8771000D01*
X21582000Y-9642000D02*
X21622000Y-9682000D01*
X21622000Y-9642000D02*
X21582000Y-9682000D01*
X21582000Y-10842000D02*
X21622000Y-10882000D01*
X21622000Y-10842000D02*
X21582000Y-10882000D01*
X21583000Y-8441000D02*
X21623000Y-8481000D01*
X21623000Y-8441000D02*
X21583000Y-8481000D01*
X21584000Y-7512000D02*
X21624000Y-7552000D01*
X21624000Y-7512000D02*
X21584000Y-7552000D01*
X21584000Y-9959000D02*
X21624000Y-9999000D01*
X21624000Y-9959000D02*
X21584000Y-9999000D01*
X21586000Y-12012000D02*
X21626000Y-12052000D01*
X21626000Y-12012000D02*
X21586000Y-12052000D01*
X21589000Y-8123000D02*
X21629000Y-8163000D01*
X21629000Y-8123000D02*
X21589000Y-8163000D01*
X21591000Y-11172000D02*
X21631000Y-11212000D01*
X21631000Y-11172000D02*
X21591000Y-11212000D01*
X21645000Y-10525000D02*
X21685000Y-10565000D01*
X21685000Y-10525000D02*
X21645000Y-10565000D01*
X21665000Y-11710000D02*
X21705000Y-11750000D01*
X21705000Y-11710000D02*
X21665000Y-11750000D01*
X21982000Y-6842000D02*
X22022000Y-6882000D01*
X22022000Y-6842000D02*
X21982000Y-6882000D01*
X21982000Y-7642000D02*
X22022000Y-7682000D01*
X22022000Y-7642000D02*
X21982000Y-7682000D01*
X21982000Y-8042000D02*
X22022000Y-8082000D01*
X22022000Y-8042000D02*
X21982000Y-8082000D01*
X21982000Y-8442000D02*
X22022000Y-8482000D01*
X22022000Y-8442000D02*
X21982000Y-8482000D01*
X21982000Y-8842000D02*
X22022000Y-8882000D01*
X22022000Y-8842000D02*
X21982000Y-8882000D01*
X21982000Y-9242000D02*
X22022000Y-9282000D01*
X22022000Y-9242000D02*
X21982000Y-9282000D01*
X21982000Y-9642000D02*
X22022000Y-9682000D01*
X22022000Y-9642000D02*
X21982000Y-9682000D01*
X21982000Y-10042000D02*
X22022000Y-10082000D01*
X22022000Y-10042000D02*
X21982000Y-10082000D01*
X21982000Y-10442000D02*
X22022000Y-10482000D01*
X22022000Y-10442000D02*
X21982000Y-10482000D01*
X21982000Y-10842000D02*
X22022000Y-10882000D01*
X22022000Y-10842000D02*
X21982000Y-10882000D01*
X21982000Y-11242000D02*
X22022000Y-11282000D01*
X22022000Y-11242000D02*
X21982000Y-11282000D01*
X21982000Y-11642000D02*
X22022000Y-11682000D01*
X22022000Y-11642000D02*
X21982000Y-11682000D01*
X21982000Y-12042000D02*
X22022000Y-12082000D01*
X22022000Y-12042000D02*
X21982000Y-12082000D01*
X21982000Y-12442000D02*
X22022000Y-12482000D01*
X22022000Y-12442000D02*
X21982000Y-12482000D01*
X22098000Y-7379000D02*
X22138000Y-7419000D01*
X22138000Y-7379000D02*
X22098000Y-7419000D01*
X22274000Y-9651000D02*
X22314000Y-9691000D01*
X22314000Y-9651000D02*
X22274000Y-9691000D01*
X22277000Y-8439000D02*
X22317000Y-8479000D01*
X22317000Y-8439000D02*
X22277000Y-8479000D01*
X22283000Y-12040000D02*
X22323000Y-12080000D01*
X22323000Y-12040000D02*
X22283000Y-12080000D01*
X22287000Y-10853000D02*
X22327000Y-10893000D01*
X22327000Y-10853000D02*
X22287000Y-10893000D01*
X22379000Y-6841000D02*
X22419000Y-6881000D01*
X22419000Y-6841000D02*
X22379000Y-6881000D01*
X22379000Y-7641000D02*
X22419000Y-7681000D01*
X22419000Y-7641000D02*
X22379000Y-7681000D01*
X22379000Y-8041000D02*
X22419000Y-8081000D01*
X22419000Y-8041000D02*
X22379000Y-8081000D01*
X22379000Y-8841000D02*
X22419000Y-8881000D01*
X22419000Y-8841000D02*
X22379000Y-8881000D01*
X22379000Y-9241000D02*
X22419000Y-9281000D01*
X22419000Y-9241000D02*
X22379000Y-9281000D01*
X22379000Y-10041000D02*
X22419000Y-10081000D01*
X22419000Y-10041000D02*
X22379000Y-10081000D01*
X22379000Y-10441000D02*
X22419000Y-10481000D01*
X22419000Y-10441000D02*
X22379000Y-10481000D01*
X22379000Y-11241000D02*
X22419000Y-11281000D01*
X22419000Y-11241000D02*
X22379000Y-11281000D01*
X22379000Y-11641000D02*
X22419000Y-11681000D01*
X22419000Y-11641000D02*
X22379000Y-11681000D01*
X22379000Y-12441000D02*
X22419000Y-12481000D01*
X22419000Y-12441000D02*
X22379000Y-12481000D01*
X22779000Y-6841000D02*
X22819000Y-6881000D01*
X22819000Y-6841000D02*
X22779000Y-6881000D01*
X22779000Y-7641000D02*
X22819000Y-7681000D01*
X22819000Y-7641000D02*
X22779000Y-7681000D01*
X22779000Y-8041000D02*
X22819000Y-8081000D01*
X22819000Y-8041000D02*
X22779000Y-8081000D01*
X22779000Y-8841000D02*
X22819000Y-8881000D01*
X22819000Y-8841000D02*
X22779000Y-8881000D01*
X22779000Y-9241000D02*
X22819000Y-9281000D01*
X22819000Y-9241000D02*
X22779000Y-9281000D01*
X22779000Y-10041000D02*
X22819000Y-10081000D01*
X22819000Y-10041000D02*
X22779000Y-10081000D01*
X22779000Y-10441000D02*
X22819000Y-10481000D01*
X22819000Y-10441000D02*
X22779000Y-10481000D01*
X22779000Y-11241000D02*
X22819000Y-11281000D01*
X22819000Y-11241000D02*
X22779000Y-11281000D01*
X22779000Y-11641000D02*
X22819000Y-11681000D01*
X22819000Y-11641000D02*
X22779000Y-11681000D01*
X22779000Y-12441000D02*
X22819000Y-12481000D01*
X22819000Y-12441000D02*
X22779000Y-12481000D01*
X22915000Y-7230000D02*
X22955000Y-7270000D01*
X22955000Y-7230000D02*
X22915000Y-7270000D01*
X22927000Y-8435000D02*
X22967000Y-8475000D01*
X22967000Y-8435000D02*
X22927000Y-8475000D01*
X22931000Y-9651000D02*
X22971000Y-9691000D01*
X22971000Y-9651000D02*
X22931000Y-9691000D01*
X22931000Y-10853000D02*
X22971000Y-10893000D01*
X22971000Y-10853000D02*
X22931000Y-10893000D01*
X22931000Y-12040000D02*
X22971000Y-12080000D01*
X22971000Y-12040000D02*
X22931000Y-12080000D01*
X23000000Y-6837000D02*
X23040000Y-6877000D01*
X23040000Y-6837000D02*
X23000000Y-6877000D01*
X23004000Y-8037000D02*
X23044000Y-8077000D01*
X23044000Y-8037000D02*
X23004000Y-8077000D01*
X23007000Y-12434000D02*
X23047000Y-12474000D01*
X23047000Y-12434000D02*
X23007000Y-12474000D01*
X23012000Y-8841000D02*
X23052000Y-8881000D01*
X23052000Y-8841000D02*
X23012000Y-8881000D01*
X23012000Y-9241000D02*
X23052000Y-9281000D01*
X23052000Y-9241000D02*
X23012000Y-9281000D01*
X23014000Y-7641000D02*
X23054000Y-7681000D01*
X23054000Y-7641000D02*
X23014000Y-7681000D01*
X23018000Y-10044000D02*
X23058000Y-10084000D01*
X23058000Y-10044000D02*
X23018000Y-10084000D01*
X23018000Y-10444000D02*
X23058000Y-10484000D01*
X23058000Y-10444000D02*
X23018000Y-10484000D01*
X23022000Y-11242000D02*
X23062000Y-11282000D01*
X23062000Y-11242000D02*
X23022000Y-11282000D01*
X23022000Y-11642000D02*
X23062000Y-11682000D01*
X23062000Y-11642000D02*
X23022000Y-11682000D01*
X13534184Y-6893024D02*
G75*
G03X13534184Y-6893024I-27500J0D01*
G01*
X13524184Y-6925524D02*
X13524184Y-6860524D01*
X13489184Y-6925524D02*
X13489184Y-6860524D01*
X13524184Y-6860524D02*
G75*
G03X13489184Y-6860524I-17500J0D01*
G01*
X13489184Y-6925524D02*
G75*
G03X13524184Y-6925524I17500J0D01*
G01*
X14309184Y-6893024D02*
G75*
G03X14309184Y-6893024I-27500J0D01*
G01*
X14299184Y-6925524D02*
X14299184Y-6860524D01*
X14264184Y-6925524D02*
X14264184Y-6860524D01*
X14299184Y-6860524D02*
G75*
G03X14264184Y-6860524I-17500J0D01*
G01*
X14264184Y-6925524D02*
G75*
G03X14299184Y-6925524I17500J0D01*
G01*
X20070043Y-11075148D02*
X20070043Y-11155148D01*
X20030043Y-11115148D02*
X20110043Y-11115148D01*
X20070043Y-12345148D02*
X20070043Y-12425148D01*
X20030043Y-12385148D02*
X20110043Y-12385148D01*
X13551737Y-7303077D02*
X13551737Y-7242972D01*
X13491632Y-7242972D01*
X13491632Y-7303077D01*
X13551737Y-7303077D01*
X13554184Y-7300524D02*
X13554184Y-7245524D01*
X13489184Y-7300524D02*
X13489184Y-7245524D01*
X13554184Y-7245524D02*
G75*
G03X13489184Y-7245524I-32500J0D01*
G01*
X13489184Y-7300524D02*
G75*
G03X13554184Y-7300524I32500J0D01*
G01*
X14296737Y-7303077D02*
X14296737Y-7242972D01*
X14236632Y-7242972D01*
X14236632Y-7303077D01*
X14296737Y-7303077D01*
X14299184Y-7300524D02*
X14299184Y-7245524D01*
X14234184Y-7300524D02*
X14234184Y-7245524D01*
X14299184Y-7245524D02*
G75*
G03X14234184Y-7245524I-32500J0D01*
G01*
X14234184Y-7300524D02*
G75*
G03X14299184Y-7300524I32500J0D01*
G01*
X18010000Y-11758500D02*
X18059500Y-11709000D01*
X18010000Y-11659500D01*
X17960500Y-11709000D01*
X18010000Y-11758500D01*
X18010000Y-12408500D02*
X18059500Y-12359000D01*
X18010000Y-12309500D01*
X17960500Y-12359000D01*
X18010000Y-12408500D01*
X18460000Y-11758500D02*
X18509500Y-11709000D01*
X18460000Y-11659500D01*
X18410500Y-11709000D01*
X18460000Y-11758500D01*
X18460000Y-12408500D02*
X18509500Y-12359000D01*
X18460000Y-12309500D01*
X18410500Y-12359000D01*
X18460000Y-12408500D01*
X20436043Y-12048148D02*
X20536043Y-12148148D01*
X20536043Y-12048148D02*
X20436043Y-12148148D01*
X20536043Y-12098148D02*
G75*
G03X20536043Y-12098148I-50000J0D01*
G01*
X20436043Y-12302148D02*
X20536043Y-12402148D01*
X20536043Y-12302148D02*
X20436043Y-12402148D01*
X20536043Y-12352148D02*
G75*
G03X20536043Y-12352148I-50000J0D01*
G01*
X18688000Y-6859000D02*
X18788000Y-6959000D01*
X18788000Y-6859000D02*
X18688000Y-6959000D01*
X18788000Y-6909000D02*
G75*
G03X18788000Y-6909000I-50000J0D01*
G01*
X18942000Y-6859000D02*
X19042000Y-6959000D01*
X19042000Y-6859000D02*
X18942000Y-6959000D01*
X19042000Y-6909000D02*
G75*
G03X19042000Y-6909000I-50000J0D01*
G01*
X20292043Y-9344148D02*
X20392043Y-9444148D01*
X20392043Y-9344148D02*
X20292043Y-9444148D01*
X20392043Y-9394148D02*
G75*
G03X20392043Y-9394148I-50000J0D01*
G01*
X20542043Y-9344148D02*
X20642043Y-9444148D01*
X20642043Y-9344148D02*
X20542043Y-9444148D01*
X20642043Y-9394148D02*
G75*
G03X20642043Y-9394148I-50000J0D01*
G01*
X20792043Y-9344148D02*
X20892043Y-9444148D01*
X20892043Y-9344148D02*
X20792043Y-9444148D01*
X20892043Y-9394148D02*
G75*
G03X20892043Y-9394148I-50000J0D01*
G01*
X20292043Y-8455148D02*
X20392043Y-8555148D01*
X20392043Y-8455148D02*
X20292043Y-8555148D01*
X20392043Y-8505148D02*
G75*
G03X20392043Y-8505148I-50000J0D01*
G01*
X20542043Y-8455148D02*
X20642043Y-8555148D01*
X20642043Y-8455148D02*
X20542043Y-8555148D01*
X20642043Y-8505148D02*
G75*
G03X20642043Y-8505148I-50000J0D01*
G01*
X20792043Y-8455148D02*
X20892043Y-8555148D01*
X20892043Y-8455148D02*
X20792043Y-8555148D01*
X20892043Y-8505148D02*
G75*
G03X20892043Y-8505148I-50000J0D01*
G01*
X20292043Y-8899648D02*
X20392043Y-8999648D01*
X20392043Y-8899648D02*
X20292043Y-8999648D01*
X20392043Y-8949648D02*
G75*
G03X20392043Y-8949648I-50000J0D01*
G01*
X20542043Y-8899648D02*
X20642043Y-8999648D01*
X20642043Y-8899648D02*
X20542043Y-8999648D01*
X20642043Y-8949648D02*
G75*
G03X20642043Y-8949648I-50000J0D01*
G01*
X20792043Y-8899648D02*
X20892043Y-8999648D01*
X20892043Y-8899648D02*
X20792043Y-8999648D01*
X20892043Y-8949648D02*
G75*
G03X20892043Y-8949648I-50000J0D01*
G01*
X20292043Y-9788648D02*
X20392043Y-9888648D01*
X20392043Y-9788648D02*
X20292043Y-9888648D01*
X20392043Y-9838648D02*
G75*
G03X20392043Y-9838648I-50000J0D01*
G01*
X20542043Y-9788648D02*
X20642043Y-9888648D01*
X20642043Y-9788648D02*
X20542043Y-9888648D01*
X20642043Y-9838648D02*
G75*
G03X20642043Y-9838648I-50000J0D01*
G01*
X20792043Y-9788648D02*
X20892043Y-9888648D01*
X20892043Y-9788648D02*
X20792043Y-9888648D01*
X20892043Y-9838648D02*
G75*
G03X20892043Y-9838648I-50000J0D01*
G01*
X20292043Y-10233148D02*
X20392043Y-10333148D01*
X20392043Y-10233148D02*
X20292043Y-10333148D01*
X20392043Y-10283148D02*
G75*
G03X20392043Y-10283148I-50000J0D01*
G01*
X20542043Y-10233148D02*
X20642043Y-10333148D01*
X20642043Y-10233148D02*
X20542043Y-10333148D01*
X20642043Y-10283148D02*
G75*
G03X20642043Y-10283148I-50000J0D01*
G01*
X20792043Y-10233148D02*
X20892043Y-10333148D01*
X20892043Y-10233148D02*
X20792043Y-10333148D01*
X20892043Y-10283148D02*
G75*
G03X20892043Y-10283148I-50000J0D01*
G01*
X20292043Y-7566148D02*
X20392043Y-7666148D01*
X20392043Y-7566148D02*
X20292043Y-7666148D01*
X20392043Y-7616148D02*
G75*
G03X20392043Y-7616148I-50000J0D01*
G01*
X20542043Y-7566148D02*
X20642043Y-7666148D01*
X20642043Y-7566148D02*
X20542043Y-7666148D01*
X20642043Y-7616148D02*
G75*
G03X20642043Y-7616148I-50000J0D01*
G01*
X20792043Y-7566148D02*
X20892043Y-7666148D01*
X20892043Y-7566148D02*
X20792043Y-7666148D01*
X20892043Y-7616148D02*
G75*
G03X20892043Y-7616148I-50000J0D01*
G01*
X12933043Y-10934148D02*
X13033043Y-11034148D01*
X13033043Y-10934148D02*
X12933043Y-11034148D01*
X13033043Y-10984148D02*
G75*
G03X13033043Y-10984148I-50000J0D01*
G01*
X12933043Y-11188148D02*
X13033043Y-11288148D01*
X13033043Y-11188148D02*
X12933043Y-11288148D01*
X13033043Y-11238148D02*
G75*
G03X13033043Y-11238148I-50000J0D01*
G01*
X12933043Y-11442148D02*
X13033043Y-11542148D01*
X13033043Y-11442148D02*
X12933043Y-11542148D01*
X13033043Y-11492148D02*
G75*
G03X13033043Y-11492148I-50000J0D01*
G01*
X12933043Y-11696148D02*
X13033043Y-11796148D01*
X13033043Y-11696148D02*
X12933043Y-11796148D01*
X13033043Y-11746148D02*
G75*
G03X13033043Y-11746148I-50000J0D01*
G01*
X12933043Y-11950148D02*
X13033043Y-12050148D01*
X13033043Y-11950148D02*
X12933043Y-12050148D01*
X13033043Y-12000148D02*
G75*
G03X13033043Y-12000148I-50000J0D01*
G01*
X12933043Y-12204148D02*
X13033043Y-12304148D01*
X13033043Y-12204148D02*
X12933043Y-12304148D01*
X13033043Y-12254148D02*
G75*
G03X13033043Y-12254148I-50000J0D01*
G01*
X15604000Y-10180000D02*
X15704000Y-10280000D01*
X15704000Y-10180000D02*
X15604000Y-10280000D01*
X15704000Y-10230000D02*
G75*
G03X15704000Y-10230000I-50000J0D01*
G01*
X15604000Y-10434000D02*
X15704000Y-10534000D01*
X15704000Y-10434000D02*
X15604000Y-10534000D01*
X15704000Y-10484000D02*
G75*
G03X15704000Y-10484000I-50000J0D01*
G01*
X20286455Y-7121648D02*
X20386455Y-7221648D01*
X20386455Y-7121648D02*
X20286455Y-7221648D01*
X20386455Y-7171648D02*
G75*
G03X20386455Y-7171648I-50000J0D01*
G01*
X20536455Y-7121648D02*
X20636455Y-7221648D01*
X20636455Y-7121648D02*
X20536455Y-7221648D01*
X20636455Y-7171648D02*
G75*
G03X20636455Y-7171648I-50000J0D01*
G01*
X20786455Y-7121648D02*
X20886455Y-7221648D01*
X20886455Y-7121648D02*
X20786455Y-7221648D01*
X20886455Y-7171648D02*
G75*
G03X20886455Y-7171648I-50000J0D01*
G01*
X15849000Y-8622000D02*
X15949000Y-8722000D01*
X15949000Y-8622000D02*
X15849000Y-8722000D01*
X15949000Y-8672000D02*
G75*
G03X15949000Y-8672000I-50000J0D01*
G01*
X15849000Y-8876000D02*
X15949000Y-8976000D01*
X15949000Y-8876000D02*
X15849000Y-8976000D01*
X15949000Y-8926000D02*
G75*
G03X15949000Y-8926000I-50000J0D01*
G01*
X15849000Y-9130000D02*
X15949000Y-9230000D01*
X15949000Y-9130000D02*
X15849000Y-9230000D01*
X15949000Y-9180000D02*
G75*
G03X15949000Y-9180000I-50000J0D01*
G01*
X16103000Y-8622000D02*
X16203000Y-8722000D01*
X16203000Y-8622000D02*
X16103000Y-8722000D01*
X16203000Y-8672000D02*
G75*
G03X16203000Y-8672000I-50000J0D01*
G01*
X16103000Y-8876000D02*
X16203000Y-8976000D01*
X16203000Y-8876000D02*
X16103000Y-8976000D01*
X16203000Y-8926000D02*
G75*
G03X16203000Y-8926000I-50000J0D01*
G01*
X16103000Y-9130000D02*
X16203000Y-9230000D01*
X16203000Y-9130000D02*
X16103000Y-9230000D01*
X16203000Y-9180000D02*
G75*
G03X16203000Y-9180000I-50000J0D01*
G01*
X16390000Y-10550000D02*
X16490000Y-10650000D01*
X16490000Y-10550000D02*
X16390000Y-10650000D01*
X16490000Y-10600000D02*
G75*
G03X16490000Y-10600000I-50000J0D01*
G01*
X16644000Y-10550000D02*
X16744000Y-10650000D01*
X16744000Y-10550000D02*
X16644000Y-10650000D01*
X16744000Y-10600000D02*
G75*
G03X16744000Y-10600000I-50000J0D01*
G01*
X20292043Y-10677648D02*
X20392043Y-10777648D01*
X20392043Y-10677648D02*
X20292043Y-10777648D01*
X20392043Y-10727648D02*
G75*
G03X20392043Y-10727648I-50000J0D01*
G01*
X20542043Y-10677648D02*
X20642043Y-10777648D01*
X20642043Y-10677648D02*
X20542043Y-10777648D01*
X20642043Y-10727648D02*
G75*
G03X20642043Y-10727648I-50000J0D01*
G01*
X20792043Y-10677648D02*
X20892043Y-10777648D01*
X20892043Y-10677648D02*
X20792043Y-10777648D01*
X20892043Y-10727648D02*
G75*
G03X20892043Y-10727648I-50000J0D01*
G01*
X20292043Y-8010648D02*
X20392043Y-8110648D01*
X20392043Y-8010648D02*
X20292043Y-8110648D01*
X20392043Y-8060648D02*
G75*
G03X20392043Y-8060648I-50000J0D01*
G01*
X20542043Y-8010648D02*
X20642043Y-8110648D01*
X20642043Y-8010648D02*
X20542043Y-8110648D01*
X20642043Y-8060648D02*
G75*
G03X20642043Y-8060648I-50000J0D01*
G01*
X20792043Y-8010648D02*
X20892043Y-8110648D01*
X20892043Y-8010648D02*
X20792043Y-8110648D01*
X20892043Y-8060648D02*
G75*
G03X20892043Y-8060648I-50000J0D01*
G01*
X18746000Y-11963000D02*
X18846000Y-12063000D01*
X18846000Y-11963000D02*
X18746000Y-12063000D01*
X18846000Y-12013000D02*
G75*
G03X18846000Y-12013000I-50000J0D01*
G01*
X18756000Y-11938000D02*
X18756000Y-12088000D01*
X18836000Y-11938000D02*
X18836000Y-12088000D01*
X18756000Y-12088000D02*
G75*
G03X18836000Y-12088000I40000J0D01*
G01*
X18836000Y-11938000D02*
G75*
G03X18756000Y-11938000I-40000J0D01*
G01*
X19196000Y-11263000D02*
X19296000Y-11363000D01*
X19296000Y-11263000D02*
X19196000Y-11363000D01*
X19296000Y-11313000D02*
G75*
G03X19296000Y-11313000I-50000J0D01*
G01*
X19146000Y-11353000D02*
X19346000Y-11353000D01*
X19146000Y-11273000D02*
X19346000Y-11273000D01*
X19346000Y-11353000D02*
G75*
G03X19346000Y-11273000I0J40000D01*
G01*
X19146000Y-11273000D02*
G75*
G03X19146000Y-11353000I0J-40000D01*
G01*
X19196000Y-11863000D02*
X19296000Y-11963000D01*
X19296000Y-11863000D02*
X19196000Y-11963000D01*
X19296000Y-11913000D02*
G75*
G03X19296000Y-11913000I-50000J0D01*
G01*
X19181000Y-11953000D02*
X19311000Y-11953000D01*
X19181000Y-11873000D02*
X19311000Y-11873000D01*
X19311000Y-11953000D02*
G75*
G03X19311000Y-11873000I0J40000D01*
G01*
X19181000Y-11873000D02*
G75*
G03X19181000Y-11953000I0J-40000D01*
G01*
X19646000Y-11963000D02*
X19746000Y-12063000D01*
X19746000Y-11963000D02*
X19646000Y-12063000D01*
X19746000Y-12013000D02*
G75*
G03X19746000Y-12013000I-50000J0D01*
G01*
X19656000Y-11938000D02*
X19656000Y-12088000D01*
X19736000Y-11938000D02*
X19736000Y-12088000D01*
X19656000Y-12088000D02*
G75*
G03X19736000Y-12088000I40000J0D01*
G01*
X19736000Y-11938000D02*
G75*
G03X19656000Y-11938000I-40000J0D01*
G01*
X18004000Y-6861000D02*
X18104000Y-6961000D01*
X18104000Y-6861000D02*
X18004000Y-6961000D01*
X18104000Y-6911000D02*
G75*
G03X18104000Y-6911000I-50000J0D01*
G01*
X18258000Y-6861000D02*
X18358000Y-6961000D01*
X18358000Y-6861000D02*
X18258000Y-6961000D01*
X18358000Y-6911000D02*
G75*
G03X18358000Y-6911000I-50000J0D01*
G01*
X15956043Y-6865148D02*
X16056043Y-6965148D01*
X16056043Y-6865148D02*
X15956043Y-6965148D01*
X16056043Y-6915148D02*
G75*
G03X16056043Y-6915148I-50000J0D01*
G01*
X16210043Y-6865148D02*
X16310043Y-6965148D01*
X16310043Y-6865148D02*
X16210043Y-6965148D01*
X16310043Y-6915148D02*
G75*
G03X16310043Y-6915148I-50000J0D01*
G01*
X22496000Y-8320500D02*
X22716000Y-8540500D01*
X22716000Y-8320500D02*
X22496000Y-8540500D01*
X22606000Y-8320500D02*
X22606000Y-8540500D01*
X22496000Y-8430500D02*
X22716000Y-8430500D01*
X22496000Y-11946000D02*
X22716000Y-12166000D01*
X22716000Y-11946000D02*
X22496000Y-12166000D01*
X22606000Y-11946000D02*
X22606000Y-12166000D01*
X22496000Y-12056000D02*
X22716000Y-12056000D01*
X21613000Y-7711500D02*
X21833000Y-7931500D01*
X21833000Y-7711500D02*
X21613000Y-7931500D01*
X21723000Y-7711500D02*
X21723000Y-7931500D01*
X21613000Y-7821500D02*
X21833000Y-7821500D01*
X22496000Y-7112000D02*
X22716000Y-7332000D01*
X22716000Y-7112000D02*
X22496000Y-7332000D01*
X22606000Y-7112000D02*
X22606000Y-7332000D01*
X22496000Y-7222000D02*
X22716000Y-7222000D01*
X22496000Y-10737500D02*
X22716000Y-10957500D01*
X22716000Y-10737500D02*
X22496000Y-10957500D01*
X22606000Y-10737500D02*
X22606000Y-10957500D01*
X22496000Y-10847500D02*
X22716000Y-10847500D01*
X22496000Y-9529000D02*
X22716000Y-9749000D01*
X22716000Y-9529000D02*
X22496000Y-9749000D01*
X22606000Y-9529000D02*
X22606000Y-9749000D01*
X22496000Y-9639000D02*
X22716000Y-9639000D01*
X21613000Y-11337000D02*
X21833000Y-11557000D01*
X21833000Y-11337000D02*
X21613000Y-11557000D01*
X21723000Y-11337000D02*
X21723000Y-11557000D01*
X21613000Y-11447000D02*
X21833000Y-11447000D01*
X21613000Y-8920000D02*
X21833000Y-9140000D01*
X21833000Y-8920000D02*
X21613000Y-9140000D01*
X21723000Y-8920000D02*
X21723000Y-9140000D01*
X21613000Y-9030000D02*
X21833000Y-9030000D01*
X21613000Y-10128500D02*
X21833000Y-10348500D01*
X21833000Y-10128500D02*
X21613000Y-10348500D01*
X21723000Y-10128500D02*
X21723000Y-10348500D01*
X21613000Y-10238500D02*
X21833000Y-10238500D01*
D12*
X12908971Y-13057214D02*
X12908971Y-12757214D01*
X12980400Y-12757214D01*
X13023257Y-12771500D01*
X13051828Y-12800071D01*
X13066114Y-12828643D01*
X13080400Y-12885786D01*
X13080400Y-12928643D01*
X13066114Y-12985786D01*
X13051828Y-13014357D01*
X13023257Y-13042929D01*
X12980400Y-13057214D01*
X12908971Y-13057214D01*
X13208971Y-13057214D02*
X13208971Y-12857214D01*
X13208971Y-12914357D02*
X13223257Y-12885786D01*
X13237543Y-12871500D01*
X13266114Y-12857214D01*
X13294685Y-12857214D01*
X13394685Y-13057214D02*
X13394685Y-12857214D01*
X13394685Y-12757214D02*
X13380400Y-12771500D01*
X13394685Y-12785786D01*
X13408971Y-12771500D01*
X13394685Y-12757214D01*
X13394685Y-12785786D01*
X13580400Y-13057214D02*
X13551828Y-13042929D01*
X13537543Y-13014357D01*
X13537543Y-12757214D01*
X13737543Y-13057214D02*
X13708971Y-13042929D01*
X13694685Y-13014357D01*
X13694685Y-12757214D01*
X14080400Y-13057214D02*
X14080400Y-12757214D01*
X14180400Y-12971500D01*
X14280400Y-12757214D01*
X14280400Y-13057214D01*
X14551828Y-13057214D02*
X14551828Y-12900071D01*
X14537543Y-12871500D01*
X14508971Y-12857214D01*
X14451828Y-12857214D01*
X14423257Y-12871500D01*
X14551828Y-13042929D02*
X14523257Y-13057214D01*
X14451828Y-13057214D01*
X14423257Y-13042929D01*
X14408971Y-13014357D01*
X14408971Y-12985786D01*
X14423257Y-12957214D01*
X14451828Y-12942929D01*
X14523257Y-12942929D01*
X14551828Y-12928643D01*
X14694685Y-12857214D02*
X14694685Y-13157214D01*
X14694685Y-12871500D02*
X14723257Y-12857214D01*
X14780400Y-12857214D01*
X14808971Y-12871500D01*
X14823257Y-12885786D01*
X14837543Y-12914357D01*
X14837543Y-13000071D01*
X14823257Y-13028643D01*
X14808971Y-13042929D01*
X14780400Y-13057214D01*
X14723257Y-13057214D01*
X14694685Y-13042929D01*
X14966114Y-13028643D02*
X14980400Y-13042929D01*
X14966114Y-13057214D01*
X14951828Y-13042929D01*
X14966114Y-13028643D01*
X14966114Y-13057214D01*
X14966114Y-12871500D02*
X14980400Y-12885786D01*
X14966114Y-12900071D01*
X14951828Y-12885786D01*
X14966114Y-12871500D01*
X14966114Y-12900071D01*
X12582543Y-13531500D02*
X12622543Y-13571500D01*
X12622543Y-13531500D02*
X12582543Y-13571500D01*
X12966114Y-13387214D02*
X12994685Y-13387214D01*
X13023257Y-13401500D01*
X13037543Y-13415786D01*
X13051828Y-13444357D01*
X13066114Y-13501500D01*
X13066114Y-13572929D01*
X13051828Y-13630071D01*
X13037543Y-13658643D01*
X13023257Y-13672929D01*
X12994685Y-13687214D01*
X12966114Y-13687214D01*
X12937543Y-13672929D01*
X12923257Y-13658643D01*
X12908971Y-13630071D01*
X12894685Y-13572929D01*
X12894685Y-13501500D01*
X12908971Y-13444357D01*
X12923257Y-13415786D01*
X12937543Y-13401500D01*
X12966114Y-13387214D01*
X13194685Y-13658643D02*
X13208971Y-13672929D01*
X13194685Y-13687214D01*
X13180400Y-13672929D01*
X13194685Y-13658643D01*
X13194685Y-13687214D01*
X13466114Y-13487214D02*
X13466114Y-13687214D01*
X13394685Y-13372929D02*
X13323257Y-13587214D01*
X13508971Y-13587214D01*
X13680400Y-13387214D02*
X13708971Y-13387214D01*
X13737543Y-13401500D01*
X13751828Y-13415786D01*
X13766114Y-13444357D01*
X13780400Y-13501500D01*
X13780400Y-13572929D01*
X13766114Y-13630071D01*
X13751828Y-13658643D01*
X13737543Y-13672929D01*
X13708971Y-13687214D01*
X13680400Y-13687214D01*
X13651828Y-13672929D01*
X13637543Y-13658643D01*
X13623257Y-13630071D01*
X13608971Y-13572929D01*
X13608971Y-13501500D01*
X13623257Y-13444357D01*
X13637543Y-13415786D01*
X13651828Y-13401500D01*
X13680400Y-13387214D01*
X13908971Y-13687214D02*
X13908971Y-13487214D01*
X13908971Y-13515786D02*
X13923257Y-13501500D01*
X13951828Y-13487214D01*
X13994685Y-13487214D01*
X14023257Y-13501500D01*
X14037543Y-13530071D01*
X14037543Y-13687214D01*
X14037543Y-13530071D02*
X14051828Y-13501500D01*
X14080400Y-13487214D01*
X14123257Y-13487214D01*
X14151828Y-13501500D01*
X14166114Y-13530071D01*
X14166114Y-13687214D01*
X14308971Y-13687214D02*
X14308971Y-13487214D01*
X14308971Y-13515786D02*
X14323257Y-13501500D01*
X14351828Y-13487214D01*
X14394685Y-13487214D01*
X14423257Y-13501500D01*
X14437543Y-13530071D01*
X14437543Y-13687214D01*
X14437543Y-13530071D02*
X14451828Y-13501500D01*
X14480400Y-13487214D01*
X14523257Y-13487214D01*
X14551828Y-13501500D01*
X14566114Y-13530071D01*
X14566114Y-13687214D01*
X15151828Y-13372929D02*
X14894685Y-13758643D01*
X15537543Y-13387214D02*
X15566114Y-13387214D01*
X15594685Y-13401500D01*
X15608971Y-13415786D01*
X15623257Y-13444357D01*
X15637543Y-13501500D01*
X15637543Y-13572929D01*
X15623257Y-13630071D01*
X15608971Y-13658643D01*
X15594685Y-13672929D01*
X15566114Y-13687214D01*
X15537543Y-13687214D01*
X15508971Y-13672929D01*
X15494685Y-13658643D01*
X15480400Y-13630071D01*
X15466114Y-13572929D01*
X15466114Y-13501500D01*
X15480400Y-13444357D01*
X15494685Y-13415786D01*
X15508971Y-13401500D01*
X15537543Y-13387214D01*
X15766114Y-13658643D02*
X15780400Y-13672929D01*
X15766114Y-13687214D01*
X15751828Y-13672929D01*
X15766114Y-13658643D01*
X15766114Y-13687214D01*
X15966114Y-13387214D02*
X15994685Y-13387214D01*
X16023257Y-13401500D01*
X16037543Y-13415786D01*
X16051828Y-13444357D01*
X16066114Y-13501500D01*
X16066114Y-13572929D01*
X16051828Y-13630071D01*
X16037543Y-13658643D01*
X16023257Y-13672929D01*
X15994685Y-13687214D01*
X15966114Y-13687214D01*
X15937543Y-13672929D01*
X15923257Y-13658643D01*
X15908971Y-13630071D01*
X15894685Y-13572929D01*
X15894685Y-13501500D01*
X15908971Y-13444357D01*
X15923257Y-13415786D01*
X15937543Y-13401500D01*
X15966114Y-13387214D01*
X16351828Y-13687214D02*
X16180400Y-13687214D01*
X16266114Y-13687214D02*
X16266114Y-13387214D01*
X16237543Y-13430071D01*
X16208971Y-13458643D01*
X16180400Y-13472929D01*
X16608971Y-13387214D02*
X16551828Y-13387214D01*
X16523257Y-13401500D01*
X16508971Y-13415786D01*
X16480400Y-13458643D01*
X16466114Y-13515786D01*
X16466114Y-13630071D01*
X16480400Y-13658643D01*
X16494685Y-13672929D01*
X16523257Y-13687214D01*
X16580400Y-13687214D01*
X16608971Y-13672929D01*
X16623257Y-13658643D01*
X16637543Y-13630071D01*
X16637543Y-13558643D01*
X16623257Y-13530071D01*
X16608971Y-13515786D01*
X16580400Y-13501500D01*
X16523257Y-13501500D01*
X16494685Y-13515786D01*
X16480400Y-13530071D01*
X16466114Y-13558643D01*
X16751828Y-13387214D02*
X16751828Y-13444357D01*
X16866114Y-13387214D02*
X16866114Y-13444357D01*
X17308971Y-13801500D02*
X17294686Y-13787214D01*
X17266114Y-13744357D01*
X17251828Y-13715786D01*
X17237543Y-13672929D01*
X17223257Y-13601500D01*
X17223257Y-13544357D01*
X17237543Y-13472929D01*
X17251828Y-13430071D01*
X17266114Y-13401500D01*
X17294686Y-13358643D01*
X17308971Y-13344357D01*
X17394686Y-13387214D02*
X17580400Y-13387214D01*
X17480400Y-13501500D01*
X17523257Y-13501500D01*
X17551828Y-13515786D01*
X17566114Y-13530071D01*
X17580400Y-13558643D01*
X17580400Y-13630071D01*
X17566114Y-13658643D01*
X17551828Y-13672929D01*
X17523257Y-13687214D01*
X17437543Y-13687214D01*
X17408971Y-13672929D01*
X17394686Y-13658643D01*
X17766114Y-13387214D02*
X17794686Y-13387214D01*
X17823257Y-13401500D01*
X17837543Y-13415786D01*
X17851828Y-13444357D01*
X17866114Y-13501500D01*
X17866114Y-13572929D01*
X17851828Y-13630071D01*
X17837543Y-13658643D01*
X17823257Y-13672929D01*
X17794686Y-13687214D01*
X17766114Y-13687214D01*
X17737543Y-13672929D01*
X17723257Y-13658643D01*
X17708971Y-13630071D01*
X17694686Y-13572929D01*
X17694686Y-13501500D01*
X17708971Y-13444357D01*
X17723257Y-13415786D01*
X17737543Y-13401500D01*
X17766114Y-13387214D01*
X18123257Y-13487214D02*
X18123257Y-13687214D01*
X18051828Y-13372929D02*
X17980400Y-13587214D01*
X18166114Y-13587214D01*
X18508971Y-13687214D02*
X18508971Y-13387214D01*
X18637543Y-13687214D02*
X18637543Y-13530071D01*
X18623257Y-13501500D01*
X18594686Y-13487214D01*
X18551828Y-13487214D01*
X18523257Y-13501500D01*
X18508971Y-13515786D01*
X18823257Y-13687214D02*
X18794686Y-13672929D01*
X18780400Y-13658643D01*
X18766114Y-13630071D01*
X18766114Y-13544357D01*
X18780400Y-13515786D01*
X18794686Y-13501500D01*
X18823257Y-13487214D01*
X18866114Y-13487214D01*
X18894686Y-13501500D01*
X18908971Y-13515786D01*
X18923257Y-13544357D01*
X18923257Y-13630071D01*
X18908971Y-13658643D01*
X18894686Y-13672929D01*
X18866114Y-13687214D01*
X18823257Y-13687214D01*
X19094686Y-13687214D02*
X19066114Y-13672929D01*
X19051828Y-13644357D01*
X19051828Y-13387214D01*
X19323257Y-13672929D02*
X19294686Y-13687214D01*
X19237543Y-13687214D01*
X19208971Y-13672929D01*
X19194686Y-13644357D01*
X19194686Y-13530071D01*
X19208971Y-13501500D01*
X19237543Y-13487214D01*
X19294686Y-13487214D01*
X19323257Y-13501500D01*
X19337543Y-13530071D01*
X19337543Y-13558643D01*
X19194686Y-13587214D01*
X19451828Y-13672929D02*
X19480400Y-13687214D01*
X19537543Y-13687214D01*
X19566114Y-13672929D01*
X19580400Y-13644357D01*
X19580400Y-13630071D01*
X19566114Y-13601500D01*
X19537543Y-13587214D01*
X19494686Y-13587214D01*
X19466114Y-13572929D01*
X19451828Y-13544357D01*
X19451828Y-13530071D01*
X19466114Y-13501500D01*
X19494686Y-13487214D01*
X19537543Y-13487214D01*
X19566114Y-13501500D01*
X19680400Y-13801500D02*
X19694686Y-13787214D01*
X19723257Y-13744357D01*
X19737543Y-13715786D01*
X19751828Y-13672929D01*
X19766114Y-13601500D01*
X19766114Y-13544357D01*
X19751828Y-13472929D01*
X19737543Y-13430071D01*
X19723257Y-13401500D01*
X19694686Y-13358643D01*
X19680400Y-13344357D01*
X12622543Y-13947500D02*
G75*
G03X12622543Y-13947500I-27500J0D01*
G01*
X12966114Y-13783214D02*
X12994685Y-13783214D01*
X13023257Y-13797500D01*
X13037543Y-13811786D01*
X13051828Y-13840357D01*
X13066114Y-13897500D01*
X13066114Y-13968929D01*
X13051828Y-14026071D01*
X13037543Y-14054643D01*
X13023257Y-14068929D01*
X12994685Y-14083214D01*
X12966114Y-14083214D01*
X12937543Y-14068929D01*
X12923257Y-14054643D01*
X12908971Y-14026071D01*
X12894685Y-13968929D01*
X12894685Y-13897500D01*
X12908971Y-13840357D01*
X12923257Y-13811786D01*
X12937543Y-13797500D01*
X12966114Y-13783214D01*
X13194685Y-14054643D02*
X13208971Y-14068929D01*
X13194685Y-14083214D01*
X13180400Y-14068929D01*
X13194685Y-14054643D01*
X13194685Y-14083214D01*
X13480400Y-13783214D02*
X13337543Y-13783214D01*
X13323257Y-13926071D01*
X13337543Y-13911786D01*
X13366114Y-13897500D01*
X13437543Y-13897500D01*
X13466114Y-13911786D01*
X13480400Y-13926071D01*
X13494685Y-13954643D01*
X13494685Y-14026071D01*
X13480400Y-14054643D01*
X13466114Y-14068929D01*
X13437543Y-14083214D01*
X13366114Y-14083214D01*
X13337543Y-14068929D01*
X13323257Y-14054643D01*
X13766114Y-13783214D02*
X13623257Y-13783214D01*
X13608971Y-13926071D01*
X13623257Y-13911786D01*
X13651828Y-13897500D01*
X13723257Y-13897500D01*
X13751828Y-13911786D01*
X13766114Y-13926071D01*
X13780400Y-13954643D01*
X13780400Y-14026071D01*
X13766114Y-14054643D01*
X13751828Y-14068929D01*
X13723257Y-14083214D01*
X13651828Y-14083214D01*
X13623257Y-14068929D01*
X13608971Y-14054643D01*
X13908971Y-14083214D02*
X13908971Y-13883214D01*
X13908971Y-13911786D02*
X13923257Y-13897500D01*
X13951828Y-13883214D01*
X13994685Y-13883214D01*
X14023257Y-13897500D01*
X14037543Y-13926071D01*
X14037543Y-14083214D01*
X14037543Y-13926071D02*
X14051828Y-13897500D01*
X14080400Y-13883214D01*
X14123257Y-13883214D01*
X14151828Y-13897500D01*
X14166114Y-13926071D01*
X14166114Y-14083214D01*
X14308971Y-14083214D02*
X14308971Y-13883214D01*
X14308971Y-13911786D02*
X14323257Y-13897500D01*
X14351828Y-13883214D01*
X14394685Y-13883214D01*
X14423257Y-13897500D01*
X14437543Y-13926071D01*
X14437543Y-14083214D01*
X14437543Y-13926071D02*
X14451828Y-13897500D01*
X14480400Y-13883214D01*
X14523257Y-13883214D01*
X14551828Y-13897500D01*
X14566114Y-13926071D01*
X14566114Y-14083214D01*
X15151828Y-13768929D02*
X14894685Y-14154643D01*
X15537543Y-13783214D02*
X15566114Y-13783214D01*
X15594685Y-13797500D01*
X15608971Y-13811786D01*
X15623257Y-13840357D01*
X15637543Y-13897500D01*
X15637543Y-13968929D01*
X15623257Y-14026071D01*
X15608971Y-14054643D01*
X15594685Y-14068929D01*
X15566114Y-14083214D01*
X15537543Y-14083214D01*
X15508971Y-14068929D01*
X15494685Y-14054643D01*
X15480400Y-14026071D01*
X15466114Y-13968929D01*
X15466114Y-13897500D01*
X15480400Y-13840357D01*
X15494685Y-13811786D01*
X15508971Y-13797500D01*
X15537543Y-13783214D01*
X15766114Y-14054643D02*
X15780400Y-14068929D01*
X15766114Y-14083214D01*
X15751828Y-14068929D01*
X15766114Y-14054643D01*
X15766114Y-14083214D01*
X15966114Y-13783214D02*
X15994685Y-13783214D01*
X16023257Y-13797500D01*
X16037543Y-13811786D01*
X16051828Y-13840357D01*
X16066114Y-13897500D01*
X16066114Y-13968929D01*
X16051828Y-14026071D01*
X16037543Y-14054643D01*
X16023257Y-14068929D01*
X15994685Y-14083214D01*
X15966114Y-14083214D01*
X15937543Y-14068929D01*
X15923257Y-14054643D01*
X15908971Y-14026071D01*
X15894685Y-13968929D01*
X15894685Y-13897500D01*
X15908971Y-13840357D01*
X15923257Y-13811786D01*
X15937543Y-13797500D01*
X15966114Y-13783214D01*
X16180400Y-13811786D02*
X16194685Y-13797500D01*
X16223257Y-13783214D01*
X16294685Y-13783214D01*
X16323257Y-13797500D01*
X16337543Y-13811786D01*
X16351828Y-13840357D01*
X16351828Y-13868929D01*
X16337543Y-13911786D01*
X16166114Y-14083214D01*
X16351828Y-14083214D01*
X16466114Y-13811786D02*
X16480400Y-13797500D01*
X16508971Y-13783214D01*
X16580400Y-13783214D01*
X16608971Y-13797500D01*
X16623257Y-13811786D01*
X16637543Y-13840357D01*
X16637543Y-13868929D01*
X16623257Y-13911786D01*
X16451828Y-14083214D01*
X16637543Y-14083214D01*
X16751828Y-13783214D02*
X16751828Y-13840357D01*
X16866114Y-13783214D02*
X16866114Y-13840357D01*
X17308971Y-14197500D02*
X17294686Y-14183214D01*
X17266114Y-14140357D01*
X17251828Y-14111786D01*
X17237543Y-14068929D01*
X17223257Y-13997500D01*
X17223257Y-13940357D01*
X17237543Y-13868929D01*
X17251828Y-13826071D01*
X17266114Y-13797500D01*
X17294686Y-13754643D01*
X17308971Y-13740357D01*
X17480400Y-13783214D02*
X17508971Y-13783214D01*
X17537543Y-13797500D01*
X17551828Y-13811786D01*
X17566114Y-13840357D01*
X17580400Y-13897500D01*
X17580400Y-13968929D01*
X17566114Y-14026071D01*
X17551828Y-14054643D01*
X17537543Y-14068929D01*
X17508971Y-14083214D01*
X17480400Y-14083214D01*
X17451828Y-14068929D01*
X17437543Y-14054643D01*
X17423257Y-14026071D01*
X17408971Y-13968929D01*
X17408971Y-13897500D01*
X17423257Y-13840357D01*
X17437543Y-13811786D01*
X17451828Y-13797500D01*
X17480400Y-13783214D01*
X17937543Y-14083214D02*
X17937543Y-13783214D01*
X18066114Y-14083214D02*
X18066114Y-13926071D01*
X18051828Y-13897500D01*
X18023257Y-13883214D01*
X17980400Y-13883214D01*
X17951828Y-13897500D01*
X17937543Y-13911786D01*
X18251828Y-14083214D02*
X18223257Y-14068929D01*
X18208971Y-14054643D01*
X18194686Y-14026071D01*
X18194686Y-13940357D01*
X18208971Y-13911786D01*
X18223257Y-13897500D01*
X18251828Y-13883214D01*
X18294686Y-13883214D01*
X18323257Y-13897500D01*
X18337543Y-13911786D01*
X18351828Y-13940357D01*
X18351828Y-14026071D01*
X18337543Y-14054643D01*
X18323257Y-14068929D01*
X18294686Y-14083214D01*
X18251828Y-14083214D01*
X18523257Y-14083214D02*
X18494686Y-14068929D01*
X18480400Y-14040357D01*
X18480400Y-13783214D01*
X18751828Y-14068929D02*
X18723257Y-14083214D01*
X18666114Y-14083214D01*
X18637543Y-14068929D01*
X18623257Y-14040357D01*
X18623257Y-13926071D01*
X18637543Y-13897500D01*
X18666114Y-13883214D01*
X18723257Y-13883214D01*
X18751828Y-13897500D01*
X18766114Y-13926071D01*
X18766114Y-13954643D01*
X18623257Y-13983214D01*
X18880400Y-14068929D02*
X18908971Y-14083214D01*
X18966114Y-14083214D01*
X18994686Y-14068929D01*
X19008971Y-14040357D01*
X19008971Y-14026071D01*
X18994686Y-13997500D01*
X18966114Y-13983214D01*
X18923257Y-13983214D01*
X18894686Y-13968929D01*
X18880400Y-13940357D01*
X18880400Y-13926071D01*
X18894686Y-13897500D01*
X18923257Y-13883214D01*
X18966114Y-13883214D01*
X18994686Y-13897500D01*
X19366114Y-13968929D02*
X19594686Y-13968929D01*
X19480400Y-14083214D02*
X19480400Y-13854643D01*
X19951828Y-13811786D02*
X19966114Y-13797500D01*
X19994686Y-13783214D01*
X20066114Y-13783214D01*
X20094686Y-13797500D01*
X20108971Y-13811786D01*
X20123257Y-13840357D01*
X20123257Y-13868929D01*
X20108971Y-13911786D01*
X19937543Y-14083214D01*
X20123257Y-14083214D01*
X20466114Y-14068929D02*
X20494686Y-14083214D01*
X20551828Y-14083214D01*
X20580400Y-14068929D01*
X20594686Y-14040357D01*
X20594686Y-14026071D01*
X20580400Y-13997500D01*
X20551828Y-13983214D01*
X20508971Y-13983214D01*
X20480400Y-13968929D01*
X20466114Y-13940357D01*
X20466114Y-13926071D01*
X20480400Y-13897500D01*
X20508971Y-13883214D01*
X20551828Y-13883214D01*
X20580400Y-13897500D01*
X20766114Y-14083214D02*
X20737543Y-14068929D01*
X20723257Y-14040357D01*
X20723257Y-13783214D01*
X20923257Y-14083214D02*
X20894686Y-14068929D01*
X20880400Y-14054643D01*
X20866114Y-14026071D01*
X20866114Y-13940357D01*
X20880400Y-13911786D01*
X20894686Y-13897500D01*
X20923257Y-13883214D01*
X20966114Y-13883214D01*
X20994686Y-13897500D01*
X21008971Y-13911786D01*
X21023257Y-13940357D01*
X21023257Y-14026071D01*
X21008971Y-14054643D01*
X20994686Y-14068929D01*
X20966114Y-14083214D01*
X20923257Y-14083214D01*
X21108971Y-13883214D02*
X21223257Y-13883214D01*
X21151828Y-13783214D02*
X21151828Y-14040357D01*
X21166114Y-14068929D01*
X21194686Y-14083214D01*
X21223257Y-14083214D01*
X21308971Y-14068929D02*
X21337543Y-14083214D01*
X21394686Y-14083214D01*
X21423257Y-14068929D01*
X21437543Y-14040357D01*
X21437543Y-14026071D01*
X21423257Y-13997500D01*
X21394686Y-13983214D01*
X21351828Y-13983214D01*
X21323257Y-13968929D01*
X21308971Y-13940357D01*
X21308971Y-13926071D01*
X21323257Y-13897500D01*
X21351828Y-13883214D01*
X21394686Y-13883214D01*
X21423257Y-13897500D01*
X21537543Y-14197500D02*
X21551828Y-14183214D01*
X21580400Y-14140357D01*
X21594686Y-14111786D01*
X21608971Y-14068929D01*
X21623257Y-13997500D01*
X21623257Y-13940357D01*
X21608971Y-13868929D01*
X21594686Y-13826071D01*
X21580400Y-13797500D01*
X21551828Y-13754643D01*
X21537543Y-13740357D01*
X12582543Y-14303500D02*
X12582543Y-14383500D01*
X12542543Y-14343500D02*
X12622543Y-14343500D01*
X12966114Y-14179214D02*
X12994685Y-14179214D01*
X13023257Y-14193500D01*
X13037543Y-14207786D01*
X13051828Y-14236357D01*
X13066114Y-14293500D01*
X13066114Y-14364929D01*
X13051828Y-14422071D01*
X13037543Y-14450643D01*
X13023257Y-14464929D01*
X12994685Y-14479214D01*
X12966114Y-14479214D01*
X12937543Y-14464929D01*
X12923257Y-14450643D01*
X12908971Y-14422071D01*
X12894685Y-14364929D01*
X12894685Y-14293500D01*
X12908971Y-14236357D01*
X12923257Y-14207786D01*
X12937543Y-14193500D01*
X12966114Y-14179214D01*
X13194685Y-14450643D02*
X13208971Y-14464929D01*
X13194685Y-14479214D01*
X13180400Y-14464929D01*
X13194685Y-14450643D01*
X13194685Y-14479214D01*
X13380400Y-14307786D02*
X13351828Y-14293500D01*
X13337543Y-14279214D01*
X13323257Y-14250643D01*
X13323257Y-14236357D01*
X13337543Y-14207786D01*
X13351828Y-14193500D01*
X13380400Y-14179214D01*
X13437543Y-14179214D01*
X13466114Y-14193500D01*
X13480400Y-14207786D01*
X13494685Y-14236357D01*
X13494685Y-14250643D01*
X13480400Y-14279214D01*
X13466114Y-14293500D01*
X13437543Y-14307786D01*
X13380400Y-14307786D01*
X13351828Y-14322071D01*
X13337543Y-14336357D01*
X13323257Y-14364929D01*
X13323257Y-14422071D01*
X13337543Y-14450643D01*
X13351828Y-14464929D01*
X13380400Y-14479214D01*
X13437543Y-14479214D01*
X13466114Y-14464929D01*
X13480400Y-14450643D01*
X13494685Y-14422071D01*
X13494685Y-14364929D01*
X13480400Y-14336357D01*
X13466114Y-14322071D01*
X13437543Y-14307786D01*
X13680400Y-14179214D02*
X13708971Y-14179214D01*
X13737543Y-14193500D01*
X13751828Y-14207786D01*
X13766114Y-14236357D01*
X13780400Y-14293500D01*
X13780400Y-14364929D01*
X13766114Y-14422071D01*
X13751828Y-14450643D01*
X13737543Y-14464929D01*
X13708971Y-14479214D01*
X13680400Y-14479214D01*
X13651828Y-14464929D01*
X13637543Y-14450643D01*
X13623257Y-14422071D01*
X13608971Y-14364929D01*
X13608971Y-14293500D01*
X13623257Y-14236357D01*
X13637543Y-14207786D01*
X13651828Y-14193500D01*
X13680400Y-14179214D01*
X13908971Y-14479214D02*
X13908971Y-14279214D01*
X13908971Y-14307786D02*
X13923257Y-14293500D01*
X13951828Y-14279214D01*
X13994685Y-14279214D01*
X14023257Y-14293500D01*
X14037543Y-14322071D01*
X14037543Y-14479214D01*
X14037543Y-14322071D02*
X14051828Y-14293500D01*
X14080400Y-14279214D01*
X14123257Y-14279214D01*
X14151828Y-14293500D01*
X14166114Y-14322071D01*
X14166114Y-14479214D01*
X14308971Y-14479214D02*
X14308971Y-14279214D01*
X14308971Y-14307786D02*
X14323257Y-14293500D01*
X14351828Y-14279214D01*
X14394685Y-14279214D01*
X14423257Y-14293500D01*
X14437543Y-14322071D01*
X14437543Y-14479214D01*
X14437543Y-14322071D02*
X14451828Y-14293500D01*
X14480400Y-14279214D01*
X14523257Y-14279214D01*
X14551828Y-14293500D01*
X14566114Y-14322071D01*
X14566114Y-14479214D01*
X15151828Y-14164929D02*
X14894685Y-14550643D01*
X15537543Y-14179214D02*
X15566114Y-14179214D01*
X15594685Y-14193500D01*
X15608971Y-14207786D01*
X15623257Y-14236357D01*
X15637543Y-14293500D01*
X15637543Y-14364929D01*
X15623257Y-14422071D01*
X15608971Y-14450643D01*
X15594685Y-14464929D01*
X15566114Y-14479214D01*
X15537543Y-14479214D01*
X15508971Y-14464929D01*
X15494685Y-14450643D01*
X15480400Y-14422071D01*
X15466114Y-14364929D01*
X15466114Y-14293500D01*
X15480400Y-14236357D01*
X15494685Y-14207786D01*
X15508971Y-14193500D01*
X15537543Y-14179214D01*
X15766114Y-14450643D02*
X15780400Y-14464929D01*
X15766114Y-14479214D01*
X15751828Y-14464929D01*
X15766114Y-14450643D01*
X15766114Y-14479214D01*
X15966114Y-14179214D02*
X15994685Y-14179214D01*
X16023257Y-14193500D01*
X16037543Y-14207786D01*
X16051828Y-14236357D01*
X16066114Y-14293500D01*
X16066114Y-14364929D01*
X16051828Y-14422071D01*
X16037543Y-14450643D01*
X16023257Y-14464929D01*
X15994685Y-14479214D01*
X15966114Y-14479214D01*
X15937543Y-14464929D01*
X15923257Y-14450643D01*
X15908971Y-14422071D01*
X15894685Y-14364929D01*
X15894685Y-14293500D01*
X15908971Y-14236357D01*
X15923257Y-14207786D01*
X15937543Y-14193500D01*
X15966114Y-14179214D01*
X16166114Y-14179214D02*
X16351828Y-14179214D01*
X16251828Y-14293500D01*
X16294685Y-14293500D01*
X16323257Y-14307786D01*
X16337543Y-14322071D01*
X16351828Y-14350643D01*
X16351828Y-14422071D01*
X16337543Y-14450643D01*
X16323257Y-14464929D01*
X16294685Y-14479214D01*
X16208971Y-14479214D01*
X16180400Y-14464929D01*
X16166114Y-14450643D01*
X16637543Y-14479214D02*
X16466114Y-14479214D01*
X16551828Y-14479214D02*
X16551828Y-14179214D01*
X16523257Y-14222071D01*
X16494685Y-14250643D01*
X16466114Y-14264929D01*
X16751828Y-14179214D02*
X16751828Y-14236357D01*
X16866114Y-14179214D02*
X16866114Y-14236357D01*
X17308971Y-14593500D02*
X17294686Y-14579214D01*
X17266114Y-14536357D01*
X17251828Y-14507786D01*
X17237543Y-14464929D01*
X17223257Y-14393500D01*
X17223257Y-14336357D01*
X17237543Y-14264929D01*
X17251828Y-14222071D01*
X17266114Y-14193500D01*
X17294686Y-14150643D01*
X17308971Y-14136357D01*
X17408971Y-14207786D02*
X17423257Y-14193500D01*
X17451828Y-14179214D01*
X17523257Y-14179214D01*
X17551828Y-14193500D01*
X17566114Y-14207786D01*
X17580400Y-14236357D01*
X17580400Y-14264929D01*
X17566114Y-14307786D01*
X17394686Y-14479214D01*
X17580400Y-14479214D01*
X17937543Y-14479214D02*
X17937543Y-14179214D01*
X18066114Y-14479214D02*
X18066114Y-14322071D01*
X18051828Y-14293500D01*
X18023257Y-14279214D01*
X17980400Y-14279214D01*
X17951828Y-14293500D01*
X17937543Y-14307786D01*
X18251828Y-14479214D02*
X18223257Y-14464929D01*
X18208971Y-14450643D01*
X18194686Y-14422071D01*
X18194686Y-14336357D01*
X18208971Y-14307786D01*
X18223257Y-14293500D01*
X18251828Y-14279214D01*
X18294686Y-14279214D01*
X18323257Y-14293500D01*
X18337543Y-14307786D01*
X18351828Y-14336357D01*
X18351828Y-14422071D01*
X18337543Y-14450643D01*
X18323257Y-14464929D01*
X18294686Y-14479214D01*
X18251828Y-14479214D01*
X18523257Y-14479214D02*
X18494686Y-14464929D01*
X18480400Y-14436357D01*
X18480400Y-14179214D01*
X18751828Y-14464929D02*
X18723257Y-14479214D01*
X18666114Y-14479214D01*
X18637543Y-14464929D01*
X18623257Y-14436357D01*
X18623257Y-14322071D01*
X18637543Y-14293500D01*
X18666114Y-14279214D01*
X18723257Y-14279214D01*
X18751828Y-14293500D01*
X18766114Y-14322071D01*
X18766114Y-14350643D01*
X18623257Y-14379214D01*
X18880400Y-14464929D02*
X18908971Y-14479214D01*
X18966114Y-14479214D01*
X18994686Y-14464929D01*
X19008971Y-14436357D01*
X19008971Y-14422071D01*
X18994686Y-14393500D01*
X18966114Y-14379214D01*
X18923257Y-14379214D01*
X18894686Y-14364929D01*
X18880400Y-14336357D01*
X18880400Y-14322071D01*
X18894686Y-14293500D01*
X18923257Y-14279214D01*
X18966114Y-14279214D01*
X18994686Y-14293500D01*
X19108971Y-14593500D02*
X19123257Y-14579214D01*
X19151828Y-14536357D01*
X19166114Y-14507786D01*
X19180400Y-14464929D01*
X19194686Y-14393500D01*
X19194686Y-14336357D01*
X19180400Y-14264929D01*
X19166114Y-14222071D01*
X19151828Y-14193500D01*
X19123257Y-14150643D01*
X19108971Y-14136357D01*
X12610095Y-14769552D02*
X12610095Y-14709448D01*
X12549990Y-14709448D01*
X12549990Y-14769552D01*
X12610095Y-14769552D01*
X12966114Y-14575214D02*
X12994685Y-14575214D01*
X13023257Y-14589500D01*
X13037543Y-14603786D01*
X13051828Y-14632357D01*
X13066114Y-14689500D01*
X13066114Y-14760929D01*
X13051828Y-14818071D01*
X13037543Y-14846643D01*
X13023257Y-14860929D01*
X12994685Y-14875214D01*
X12966114Y-14875214D01*
X12937543Y-14860929D01*
X12923257Y-14846643D01*
X12908971Y-14818071D01*
X12894685Y-14760929D01*
X12894685Y-14689500D01*
X12908971Y-14632357D01*
X12923257Y-14603786D01*
X12937543Y-14589500D01*
X12966114Y-14575214D01*
X13194685Y-14846643D02*
X13208971Y-14860929D01*
X13194685Y-14875214D01*
X13180400Y-14860929D01*
X13194685Y-14846643D01*
X13194685Y-14875214D01*
X13380400Y-14703786D02*
X13351828Y-14689500D01*
X13337543Y-14675214D01*
X13323257Y-14646643D01*
X13323257Y-14632357D01*
X13337543Y-14603786D01*
X13351828Y-14589500D01*
X13380400Y-14575214D01*
X13437543Y-14575214D01*
X13466114Y-14589500D01*
X13480400Y-14603786D01*
X13494685Y-14632357D01*
X13494685Y-14646643D01*
X13480400Y-14675214D01*
X13466114Y-14689500D01*
X13437543Y-14703786D01*
X13380400Y-14703786D01*
X13351828Y-14718071D01*
X13337543Y-14732357D01*
X13323257Y-14760929D01*
X13323257Y-14818071D01*
X13337543Y-14846643D01*
X13351828Y-14860929D01*
X13380400Y-14875214D01*
X13437543Y-14875214D01*
X13466114Y-14860929D01*
X13480400Y-14846643D01*
X13494685Y-14818071D01*
X13494685Y-14760929D01*
X13480400Y-14732357D01*
X13466114Y-14718071D01*
X13437543Y-14703786D01*
X13766114Y-14575214D02*
X13623257Y-14575214D01*
X13608971Y-14718071D01*
X13623257Y-14703786D01*
X13651828Y-14689500D01*
X13723257Y-14689500D01*
X13751828Y-14703786D01*
X13766114Y-14718071D01*
X13780400Y-14746643D01*
X13780400Y-14818071D01*
X13766114Y-14846643D01*
X13751828Y-14860929D01*
X13723257Y-14875214D01*
X13651828Y-14875214D01*
X13623257Y-14860929D01*
X13608971Y-14846643D01*
X13908971Y-14875214D02*
X13908971Y-14675214D01*
X13908971Y-14703786D02*
X13923257Y-14689500D01*
X13951828Y-14675214D01*
X13994685Y-14675214D01*
X14023257Y-14689500D01*
X14037543Y-14718071D01*
X14037543Y-14875214D01*
X14037543Y-14718071D02*
X14051828Y-14689500D01*
X14080400Y-14675214D01*
X14123257Y-14675214D01*
X14151828Y-14689500D01*
X14166114Y-14718071D01*
X14166114Y-14875214D01*
X14308971Y-14875214D02*
X14308971Y-14675214D01*
X14308971Y-14703786D02*
X14323257Y-14689500D01*
X14351828Y-14675214D01*
X14394685Y-14675214D01*
X14423257Y-14689500D01*
X14437543Y-14718071D01*
X14437543Y-14875214D01*
X14437543Y-14718071D02*
X14451828Y-14689500D01*
X14480400Y-14675214D01*
X14523257Y-14675214D01*
X14551828Y-14689500D01*
X14566114Y-14718071D01*
X14566114Y-14875214D01*
X15151828Y-14560929D02*
X14894685Y-14946643D01*
X15537543Y-14575214D02*
X15566114Y-14575214D01*
X15594685Y-14589500D01*
X15608971Y-14603786D01*
X15623257Y-14632357D01*
X15637543Y-14689500D01*
X15637543Y-14760929D01*
X15623257Y-14818071D01*
X15608971Y-14846643D01*
X15594685Y-14860929D01*
X15566114Y-14875214D01*
X15537543Y-14875214D01*
X15508971Y-14860929D01*
X15494685Y-14846643D01*
X15480400Y-14818071D01*
X15466114Y-14760929D01*
X15466114Y-14689500D01*
X15480400Y-14632357D01*
X15494685Y-14603786D01*
X15508971Y-14589500D01*
X15537543Y-14575214D01*
X15766114Y-14846643D02*
X15780400Y-14860929D01*
X15766114Y-14875214D01*
X15751828Y-14860929D01*
X15766114Y-14846643D01*
X15766114Y-14875214D01*
X15966114Y-14575214D02*
X15994685Y-14575214D01*
X16023257Y-14589500D01*
X16037543Y-14603786D01*
X16051828Y-14632357D01*
X16066114Y-14689500D01*
X16066114Y-14760929D01*
X16051828Y-14818071D01*
X16037543Y-14846643D01*
X16023257Y-14860929D01*
X15994685Y-14875214D01*
X15966114Y-14875214D01*
X15937543Y-14860929D01*
X15923257Y-14846643D01*
X15908971Y-14818071D01*
X15894685Y-14760929D01*
X15894685Y-14689500D01*
X15908971Y-14632357D01*
X15923257Y-14603786D01*
X15937543Y-14589500D01*
X15966114Y-14575214D01*
X16166114Y-14575214D02*
X16351828Y-14575214D01*
X16251828Y-14689500D01*
X16294685Y-14689500D01*
X16323257Y-14703786D01*
X16337543Y-14718071D01*
X16351828Y-14746643D01*
X16351828Y-14818071D01*
X16337543Y-14846643D01*
X16323257Y-14860929D01*
X16294685Y-14875214D01*
X16208971Y-14875214D01*
X16180400Y-14860929D01*
X16166114Y-14846643D01*
X16451828Y-14575214D02*
X16637543Y-14575214D01*
X16537543Y-14689500D01*
X16580400Y-14689500D01*
X16608971Y-14703786D01*
X16623257Y-14718071D01*
X16637543Y-14746643D01*
X16637543Y-14818071D01*
X16623257Y-14846643D01*
X16608971Y-14860929D01*
X16580400Y-14875214D01*
X16494685Y-14875214D01*
X16466114Y-14860929D01*
X16451828Y-14846643D01*
X16751828Y-14575214D02*
X16751828Y-14632357D01*
X16866114Y-14575214D02*
X16866114Y-14632357D01*
X17308971Y-14989500D02*
X17294686Y-14975214D01*
X17266114Y-14932357D01*
X17251828Y-14903786D01*
X17237543Y-14860929D01*
X17223257Y-14789500D01*
X17223257Y-14732357D01*
X17237543Y-14660929D01*
X17251828Y-14618071D01*
X17266114Y-14589500D01*
X17294686Y-14546643D01*
X17308971Y-14532357D01*
X17480400Y-14575214D02*
X17508971Y-14575214D01*
X17537543Y-14589500D01*
X17551828Y-14603786D01*
X17566114Y-14632357D01*
X17580400Y-14689500D01*
X17580400Y-14760929D01*
X17566114Y-14818071D01*
X17551828Y-14846643D01*
X17537543Y-14860929D01*
X17508971Y-14875214D01*
X17480400Y-14875214D01*
X17451828Y-14860929D01*
X17437543Y-14846643D01*
X17423257Y-14818071D01*
X17408971Y-14760929D01*
X17408971Y-14689500D01*
X17423257Y-14632357D01*
X17437543Y-14603786D01*
X17451828Y-14589500D01*
X17480400Y-14575214D01*
X17937543Y-14875214D02*
X17937543Y-14575214D01*
X18066114Y-14875214D02*
X18066114Y-14718071D01*
X18051828Y-14689500D01*
X18023257Y-14675214D01*
X17980400Y-14675214D01*
X17951828Y-14689500D01*
X17937543Y-14703786D01*
X18251828Y-14875214D02*
X18223257Y-14860929D01*
X18208971Y-14846643D01*
X18194686Y-14818071D01*
X18194686Y-14732357D01*
X18208971Y-14703786D01*
X18223257Y-14689500D01*
X18251828Y-14675214D01*
X18294686Y-14675214D01*
X18323257Y-14689500D01*
X18337543Y-14703786D01*
X18351828Y-14732357D01*
X18351828Y-14818071D01*
X18337543Y-14846643D01*
X18323257Y-14860929D01*
X18294686Y-14875214D01*
X18251828Y-14875214D01*
X18523257Y-14875214D02*
X18494686Y-14860929D01*
X18480400Y-14832357D01*
X18480400Y-14575214D01*
X18751828Y-14860929D02*
X18723257Y-14875214D01*
X18666114Y-14875214D01*
X18637543Y-14860929D01*
X18623257Y-14832357D01*
X18623257Y-14718071D01*
X18637543Y-14689500D01*
X18666114Y-14675214D01*
X18723257Y-14675214D01*
X18751828Y-14689500D01*
X18766114Y-14718071D01*
X18766114Y-14746643D01*
X18623257Y-14775214D01*
X18880400Y-14860929D02*
X18908971Y-14875214D01*
X18966114Y-14875214D01*
X18994686Y-14860929D01*
X19008971Y-14832357D01*
X19008971Y-14818071D01*
X18994686Y-14789500D01*
X18966114Y-14775214D01*
X18923257Y-14775214D01*
X18894686Y-14760929D01*
X18880400Y-14732357D01*
X18880400Y-14718071D01*
X18894686Y-14689500D01*
X18923257Y-14675214D01*
X18966114Y-14675214D01*
X18994686Y-14689500D01*
X19366114Y-14760929D02*
X19594686Y-14760929D01*
X19480400Y-14875214D02*
X19480400Y-14646643D01*
X19951828Y-14603786D02*
X19966114Y-14589500D01*
X19994686Y-14575214D01*
X20066114Y-14575214D01*
X20094686Y-14589500D01*
X20108971Y-14603786D01*
X20123257Y-14632357D01*
X20123257Y-14660929D01*
X20108971Y-14703786D01*
X19937543Y-14875214D01*
X20123257Y-14875214D01*
X20466114Y-14860929D02*
X20494686Y-14875214D01*
X20551828Y-14875214D01*
X20580400Y-14860929D01*
X20594686Y-14832357D01*
X20594686Y-14818071D01*
X20580400Y-14789500D01*
X20551828Y-14775214D01*
X20508971Y-14775214D01*
X20480400Y-14760929D01*
X20466114Y-14732357D01*
X20466114Y-14718071D01*
X20480400Y-14689500D01*
X20508971Y-14675214D01*
X20551828Y-14675214D01*
X20580400Y-14689500D01*
X20766114Y-14875214D02*
X20737543Y-14860929D01*
X20723257Y-14832357D01*
X20723257Y-14575214D01*
X20923257Y-14875214D02*
X20894686Y-14860929D01*
X20880400Y-14846643D01*
X20866114Y-14818071D01*
X20866114Y-14732357D01*
X20880400Y-14703786D01*
X20894686Y-14689500D01*
X20923257Y-14675214D01*
X20966114Y-14675214D01*
X20994686Y-14689500D01*
X21008971Y-14703786D01*
X21023257Y-14732357D01*
X21023257Y-14818071D01*
X21008971Y-14846643D01*
X20994686Y-14860929D01*
X20966114Y-14875214D01*
X20923257Y-14875214D01*
X21108971Y-14675214D02*
X21223257Y-14675214D01*
X21151828Y-14575214D02*
X21151828Y-14832357D01*
X21166114Y-14860929D01*
X21194686Y-14875214D01*
X21223257Y-14875214D01*
X21308971Y-14860929D02*
X21337543Y-14875214D01*
X21394686Y-14875214D01*
X21423257Y-14860929D01*
X21437543Y-14832357D01*
X21437543Y-14818071D01*
X21423257Y-14789500D01*
X21394686Y-14775214D01*
X21351828Y-14775214D01*
X21323257Y-14760929D01*
X21308971Y-14732357D01*
X21308971Y-14718071D01*
X21323257Y-14689500D01*
X21351828Y-14675214D01*
X21394686Y-14675214D01*
X21423257Y-14689500D01*
X21537543Y-14989500D02*
X21551828Y-14975214D01*
X21580400Y-14932357D01*
X21594686Y-14903786D01*
X21608971Y-14860929D01*
X21623257Y-14789500D01*
X21623257Y-14732357D01*
X21608971Y-14660929D01*
X21594686Y-14618071D01*
X21580400Y-14589500D01*
X21551828Y-14546643D01*
X21537543Y-14532357D01*
X12573043Y-15185000D02*
X12622543Y-15135500D01*
X12573043Y-15086000D01*
X12523543Y-15135500D01*
X12573043Y-15185000D01*
X12966114Y-14971214D02*
X12994685Y-14971214D01*
X13023257Y-14985500D01*
X13037543Y-14999786D01*
X13051828Y-15028357D01*
X13066114Y-15085500D01*
X13066114Y-15156929D01*
X13051828Y-15214071D01*
X13037543Y-15242643D01*
X13023257Y-15256929D01*
X12994685Y-15271214D01*
X12966114Y-15271214D01*
X12937543Y-15256929D01*
X12923257Y-15242643D01*
X12908971Y-15214071D01*
X12894685Y-15156929D01*
X12894685Y-15085500D01*
X12908971Y-15028357D01*
X12923257Y-14999786D01*
X12937543Y-14985500D01*
X12966114Y-14971214D01*
X13194685Y-15242643D02*
X13208971Y-15256929D01*
X13194685Y-15271214D01*
X13180400Y-15256929D01*
X13194685Y-15242643D01*
X13194685Y-15271214D01*
X13351828Y-15271214D02*
X13408971Y-15271214D01*
X13437543Y-15256929D01*
X13451828Y-15242643D01*
X13480400Y-15199786D01*
X13494685Y-15142643D01*
X13494685Y-15028357D01*
X13480400Y-14999786D01*
X13466114Y-14985500D01*
X13437543Y-14971214D01*
X13380400Y-14971214D01*
X13351828Y-14985500D01*
X13337543Y-14999786D01*
X13323257Y-15028357D01*
X13323257Y-15099786D01*
X13337543Y-15128357D01*
X13351828Y-15142643D01*
X13380400Y-15156929D01*
X13437543Y-15156929D01*
X13466114Y-15142643D01*
X13480400Y-15128357D01*
X13494685Y-15099786D01*
X13637543Y-15271214D02*
X13694685Y-15271214D01*
X13723257Y-15256929D01*
X13737543Y-15242643D01*
X13766114Y-15199786D01*
X13780400Y-15142643D01*
X13780400Y-15028357D01*
X13766114Y-14999786D01*
X13751828Y-14985500D01*
X13723257Y-14971214D01*
X13666114Y-14971214D01*
X13637543Y-14985500D01*
X13623257Y-14999786D01*
X13608971Y-15028357D01*
X13608971Y-15099786D01*
X13623257Y-15128357D01*
X13637543Y-15142643D01*
X13666114Y-15156929D01*
X13723257Y-15156929D01*
X13751828Y-15142643D01*
X13766114Y-15128357D01*
X13780400Y-15099786D01*
X13908971Y-15271214D02*
X13908971Y-15071214D01*
X13908971Y-15099786D02*
X13923257Y-15085500D01*
X13951828Y-15071214D01*
X13994685Y-15071214D01*
X14023257Y-15085500D01*
X14037543Y-15114071D01*
X14037543Y-15271214D01*
X14037543Y-15114071D02*
X14051828Y-15085500D01*
X14080400Y-15071214D01*
X14123257Y-15071214D01*
X14151828Y-15085500D01*
X14166114Y-15114071D01*
X14166114Y-15271214D01*
X14308971Y-15271214D02*
X14308971Y-15071214D01*
X14308971Y-15099786D02*
X14323257Y-15085500D01*
X14351828Y-15071214D01*
X14394685Y-15071214D01*
X14423257Y-15085500D01*
X14437543Y-15114071D01*
X14437543Y-15271214D01*
X14437543Y-15114071D02*
X14451828Y-15085500D01*
X14480400Y-15071214D01*
X14523257Y-15071214D01*
X14551828Y-15085500D01*
X14566114Y-15114071D01*
X14566114Y-15271214D01*
X15151828Y-14956929D02*
X14894685Y-15342643D01*
X15537543Y-14971214D02*
X15566114Y-14971214D01*
X15594685Y-14985500D01*
X15608971Y-14999786D01*
X15623257Y-15028357D01*
X15637543Y-15085500D01*
X15637543Y-15156929D01*
X15623257Y-15214071D01*
X15608971Y-15242643D01*
X15594685Y-15256929D01*
X15566114Y-15271214D01*
X15537543Y-15271214D01*
X15508971Y-15256929D01*
X15494685Y-15242643D01*
X15480400Y-15214071D01*
X15466114Y-15156929D01*
X15466114Y-15085500D01*
X15480400Y-15028357D01*
X15494685Y-14999786D01*
X15508971Y-14985500D01*
X15537543Y-14971214D01*
X15766114Y-15242643D02*
X15780400Y-15256929D01*
X15766114Y-15271214D01*
X15751828Y-15256929D01*
X15766114Y-15242643D01*
X15766114Y-15271214D01*
X15966114Y-14971214D02*
X15994685Y-14971214D01*
X16023257Y-14985500D01*
X16037543Y-14999786D01*
X16051828Y-15028357D01*
X16066114Y-15085500D01*
X16066114Y-15156929D01*
X16051828Y-15214071D01*
X16037543Y-15242643D01*
X16023257Y-15256929D01*
X15994685Y-15271214D01*
X15966114Y-15271214D01*
X15937543Y-15256929D01*
X15923257Y-15242643D01*
X15908971Y-15214071D01*
X15894685Y-15156929D01*
X15894685Y-15085500D01*
X15908971Y-15028357D01*
X15923257Y-14999786D01*
X15937543Y-14985500D01*
X15966114Y-14971214D01*
X16166114Y-14971214D02*
X16351828Y-14971214D01*
X16251828Y-15085500D01*
X16294685Y-15085500D01*
X16323257Y-15099786D01*
X16337543Y-15114071D01*
X16351828Y-15142643D01*
X16351828Y-15214071D01*
X16337543Y-15242643D01*
X16323257Y-15256929D01*
X16294685Y-15271214D01*
X16208971Y-15271214D01*
X16180400Y-15256929D01*
X16166114Y-15242643D01*
X16494685Y-15271214D02*
X16551828Y-15271214D01*
X16580400Y-15256929D01*
X16594685Y-15242643D01*
X16623257Y-15199786D01*
X16637543Y-15142643D01*
X16637543Y-15028357D01*
X16623257Y-14999786D01*
X16608971Y-14985500D01*
X16580400Y-14971214D01*
X16523257Y-14971214D01*
X16494685Y-14985500D01*
X16480400Y-14999786D01*
X16466114Y-15028357D01*
X16466114Y-15099786D01*
X16480400Y-15128357D01*
X16494685Y-15142643D01*
X16523257Y-15156929D01*
X16580400Y-15156929D01*
X16608971Y-15142643D01*
X16623257Y-15128357D01*
X16637543Y-15099786D01*
X16751828Y-14971214D02*
X16751828Y-15028357D01*
X16866114Y-14971214D02*
X16866114Y-15028357D01*
X17308971Y-15385500D02*
X17294686Y-15371214D01*
X17266114Y-15328357D01*
X17251828Y-15299786D01*
X17237543Y-15256929D01*
X17223257Y-15185500D01*
X17223257Y-15128357D01*
X17237543Y-15056929D01*
X17251828Y-15014071D01*
X17266114Y-14985500D01*
X17294686Y-14942643D01*
X17308971Y-14928357D01*
X17551828Y-15071214D02*
X17551828Y-15271214D01*
X17480400Y-14956929D02*
X17408971Y-15171214D01*
X17594686Y-15171214D01*
X17937543Y-15271214D02*
X17937543Y-14971214D01*
X18066114Y-15271214D02*
X18066114Y-15114071D01*
X18051828Y-15085500D01*
X18023257Y-15071214D01*
X17980400Y-15071214D01*
X17951828Y-15085500D01*
X17937543Y-15099786D01*
X18251828Y-15271214D02*
X18223257Y-15256929D01*
X18208971Y-15242643D01*
X18194686Y-15214071D01*
X18194686Y-15128357D01*
X18208971Y-15099786D01*
X18223257Y-15085500D01*
X18251828Y-15071214D01*
X18294686Y-15071214D01*
X18323257Y-15085500D01*
X18337543Y-15099786D01*
X18351828Y-15128357D01*
X18351828Y-15214071D01*
X18337543Y-15242643D01*
X18323257Y-15256929D01*
X18294686Y-15271214D01*
X18251828Y-15271214D01*
X18523257Y-15271214D02*
X18494686Y-15256929D01*
X18480400Y-15228357D01*
X18480400Y-14971214D01*
X18751828Y-15256929D02*
X18723257Y-15271214D01*
X18666114Y-15271214D01*
X18637543Y-15256929D01*
X18623257Y-15228357D01*
X18623257Y-15114071D01*
X18637543Y-15085500D01*
X18666114Y-15071214D01*
X18723257Y-15071214D01*
X18751828Y-15085500D01*
X18766114Y-15114071D01*
X18766114Y-15142643D01*
X18623257Y-15171214D01*
X18880400Y-15256929D02*
X18908971Y-15271214D01*
X18966114Y-15271214D01*
X18994686Y-15256929D01*
X19008971Y-15228357D01*
X19008971Y-15214071D01*
X18994686Y-15185500D01*
X18966114Y-15171214D01*
X18923257Y-15171214D01*
X18894686Y-15156929D01*
X18880400Y-15128357D01*
X18880400Y-15114071D01*
X18894686Y-15085500D01*
X18923257Y-15071214D01*
X18966114Y-15071214D01*
X18994686Y-15085500D01*
X19108971Y-15385500D02*
X19123257Y-15371214D01*
X19151828Y-15328357D01*
X19166114Y-15299786D01*
X19180400Y-15256929D01*
X19194686Y-15185500D01*
X19194686Y-15128357D01*
X19180400Y-15056929D01*
X19166114Y-15014071D01*
X19151828Y-14985500D01*
X19123257Y-14942643D01*
X19108971Y-14928357D01*
X12522543Y-15481500D02*
X12622543Y-15581500D01*
X12622543Y-15481500D02*
X12522543Y-15581500D01*
X12622543Y-15531500D02*
G75*
G03X12622543Y-15531500I-50000J0D01*
G01*
X13066114Y-15667214D02*
X12894685Y-15667214D01*
X12980400Y-15667214D02*
X12980400Y-15367214D01*
X12951828Y-15410071D01*
X12923257Y-15438643D01*
X12894685Y-15452929D01*
X13194685Y-15638643D02*
X13208971Y-15652929D01*
X13194685Y-15667214D01*
X13180400Y-15652929D01*
X13194685Y-15638643D01*
X13194685Y-15667214D01*
X13394685Y-15367214D02*
X13423257Y-15367214D01*
X13451828Y-15381500D01*
X13466114Y-15395786D01*
X13480400Y-15424357D01*
X13494685Y-15481500D01*
X13494685Y-15552929D01*
X13480400Y-15610071D01*
X13466114Y-15638643D01*
X13451828Y-15652929D01*
X13423257Y-15667214D01*
X13394685Y-15667214D01*
X13366114Y-15652929D01*
X13351828Y-15638643D01*
X13337543Y-15610071D01*
X13323257Y-15552929D01*
X13323257Y-15481500D01*
X13337543Y-15424357D01*
X13351828Y-15395786D01*
X13366114Y-15381500D01*
X13394685Y-15367214D01*
X13680400Y-15367214D02*
X13708971Y-15367214D01*
X13737543Y-15381500D01*
X13751828Y-15395786D01*
X13766114Y-15424357D01*
X13780400Y-15481500D01*
X13780400Y-15552929D01*
X13766114Y-15610071D01*
X13751828Y-15638643D01*
X13737543Y-15652929D01*
X13708971Y-15667214D01*
X13680400Y-15667214D01*
X13651828Y-15652929D01*
X13637543Y-15638643D01*
X13623257Y-15610071D01*
X13608971Y-15552929D01*
X13608971Y-15481500D01*
X13623257Y-15424357D01*
X13637543Y-15395786D01*
X13651828Y-15381500D01*
X13680400Y-15367214D01*
X13908971Y-15667214D02*
X13908971Y-15467214D01*
X13908971Y-15495786D02*
X13923257Y-15481500D01*
X13951828Y-15467214D01*
X13994685Y-15467214D01*
X14023257Y-15481500D01*
X14037543Y-15510071D01*
X14037543Y-15667214D01*
X14037543Y-15510071D02*
X14051828Y-15481500D01*
X14080400Y-15467214D01*
X14123257Y-15467214D01*
X14151828Y-15481500D01*
X14166114Y-15510071D01*
X14166114Y-15667214D01*
X14308971Y-15667214D02*
X14308971Y-15467214D01*
X14308971Y-15495786D02*
X14323257Y-15481500D01*
X14351828Y-15467214D01*
X14394685Y-15467214D01*
X14423257Y-15481500D01*
X14437543Y-15510071D01*
X14437543Y-15667214D01*
X14437543Y-15510071D02*
X14451828Y-15481500D01*
X14480400Y-15467214D01*
X14523257Y-15467214D01*
X14551828Y-15481500D01*
X14566114Y-15510071D01*
X14566114Y-15667214D01*
X15151828Y-15352929D02*
X14894685Y-15738643D01*
X15537543Y-15367214D02*
X15566114Y-15367214D01*
X15594685Y-15381500D01*
X15608971Y-15395786D01*
X15623257Y-15424357D01*
X15637543Y-15481500D01*
X15637543Y-15552929D01*
X15623257Y-15610071D01*
X15608971Y-15638643D01*
X15594685Y-15652929D01*
X15566114Y-15667214D01*
X15537543Y-15667214D01*
X15508971Y-15652929D01*
X15494685Y-15638643D01*
X15480400Y-15610071D01*
X15466114Y-15552929D01*
X15466114Y-15481500D01*
X15480400Y-15424357D01*
X15494685Y-15395786D01*
X15508971Y-15381500D01*
X15537543Y-15367214D01*
X15766114Y-15638643D02*
X15780400Y-15652929D01*
X15766114Y-15667214D01*
X15751828Y-15652929D01*
X15766114Y-15638643D01*
X15766114Y-15667214D01*
X15966114Y-15367214D02*
X15994685Y-15367214D01*
X16023257Y-15381500D01*
X16037543Y-15395786D01*
X16051828Y-15424357D01*
X16066114Y-15481500D01*
X16066114Y-15552929D01*
X16051828Y-15610071D01*
X16037543Y-15638643D01*
X16023257Y-15652929D01*
X15994685Y-15667214D01*
X15966114Y-15667214D01*
X15937543Y-15652929D01*
X15923257Y-15638643D01*
X15908971Y-15610071D01*
X15894685Y-15552929D01*
X15894685Y-15481500D01*
X15908971Y-15424357D01*
X15923257Y-15395786D01*
X15937543Y-15381500D01*
X15966114Y-15367214D01*
X16166114Y-15367214D02*
X16351828Y-15367214D01*
X16251828Y-15481500D01*
X16294685Y-15481500D01*
X16323257Y-15495786D01*
X16337543Y-15510071D01*
X16351828Y-15538643D01*
X16351828Y-15610071D01*
X16337543Y-15638643D01*
X16323257Y-15652929D01*
X16294685Y-15667214D01*
X16208971Y-15667214D01*
X16180400Y-15652929D01*
X16166114Y-15638643D01*
X16494685Y-15667214D02*
X16551828Y-15667214D01*
X16580400Y-15652929D01*
X16594685Y-15638643D01*
X16623257Y-15595786D01*
X16637543Y-15538643D01*
X16637543Y-15424357D01*
X16623257Y-15395786D01*
X16608971Y-15381500D01*
X16580400Y-15367214D01*
X16523257Y-15367214D01*
X16494685Y-15381500D01*
X16480400Y-15395786D01*
X16466114Y-15424357D01*
X16466114Y-15495786D01*
X16480400Y-15524357D01*
X16494685Y-15538643D01*
X16523257Y-15552929D01*
X16580400Y-15552929D01*
X16608971Y-15538643D01*
X16623257Y-15524357D01*
X16637543Y-15495786D01*
X16751828Y-15367214D02*
X16751828Y-15424357D01*
X16866114Y-15367214D02*
X16866114Y-15424357D01*
X17308971Y-15781500D02*
X17294686Y-15767214D01*
X17266114Y-15724357D01*
X17251828Y-15695786D01*
X17237543Y-15652929D01*
X17223257Y-15581500D01*
X17223257Y-15524357D01*
X17237543Y-15452929D01*
X17251828Y-15410071D01*
X17266114Y-15381500D01*
X17294686Y-15338643D01*
X17308971Y-15324357D01*
X17566114Y-15367214D02*
X17423257Y-15367214D01*
X17408971Y-15510071D01*
X17423257Y-15495786D01*
X17451828Y-15481500D01*
X17523257Y-15481500D01*
X17551828Y-15495786D01*
X17566114Y-15510071D01*
X17580400Y-15538643D01*
X17580400Y-15610071D01*
X17566114Y-15638643D01*
X17551828Y-15652929D01*
X17523257Y-15667214D01*
X17451828Y-15667214D01*
X17423257Y-15652929D01*
X17408971Y-15638643D01*
X17866114Y-15667214D02*
X17694686Y-15667214D01*
X17780400Y-15667214D02*
X17780400Y-15367214D01*
X17751828Y-15410071D01*
X17723257Y-15438643D01*
X17694686Y-15452929D01*
X18223257Y-15667214D02*
X18223257Y-15367214D01*
X18351828Y-15667214D02*
X18351828Y-15510071D01*
X18337543Y-15481500D01*
X18308971Y-15467214D01*
X18266114Y-15467214D01*
X18237543Y-15481500D01*
X18223257Y-15495786D01*
X18537543Y-15667214D02*
X18508971Y-15652929D01*
X18494686Y-15638643D01*
X18480400Y-15610071D01*
X18480400Y-15524357D01*
X18494686Y-15495786D01*
X18508971Y-15481500D01*
X18537543Y-15467214D01*
X18580400Y-15467214D01*
X18608971Y-15481500D01*
X18623257Y-15495786D01*
X18637543Y-15524357D01*
X18637543Y-15610071D01*
X18623257Y-15638643D01*
X18608971Y-15652929D01*
X18580400Y-15667214D01*
X18537543Y-15667214D01*
X18808971Y-15667214D02*
X18780400Y-15652929D01*
X18766114Y-15624357D01*
X18766114Y-15367214D01*
X19037543Y-15652929D02*
X19008971Y-15667214D01*
X18951828Y-15667214D01*
X18923257Y-15652929D01*
X18908971Y-15624357D01*
X18908971Y-15510071D01*
X18923257Y-15481500D01*
X18951828Y-15467214D01*
X19008971Y-15467214D01*
X19037543Y-15481500D01*
X19051828Y-15510071D01*
X19051828Y-15538643D01*
X18908971Y-15567214D01*
X19166114Y-15652929D02*
X19194686Y-15667214D01*
X19251828Y-15667214D01*
X19280400Y-15652929D01*
X19294686Y-15624357D01*
X19294686Y-15610071D01*
X19280400Y-15581500D01*
X19251828Y-15567214D01*
X19208971Y-15567214D01*
X19180400Y-15552929D01*
X19166114Y-15524357D01*
X19166114Y-15510071D01*
X19180400Y-15481500D01*
X19208971Y-15467214D01*
X19251828Y-15467214D01*
X19280400Y-15481500D01*
X19651828Y-15552929D02*
X19880400Y-15552929D01*
X19766114Y-15667214D02*
X19766114Y-15438643D01*
X20380400Y-15467214D02*
X20380400Y-15667214D01*
X20308971Y-15352929D02*
X20237543Y-15567214D01*
X20423257Y-15567214D01*
X20751828Y-15652929D02*
X20780400Y-15667214D01*
X20837543Y-15667214D01*
X20866114Y-15652929D01*
X20880400Y-15624357D01*
X20880400Y-15610071D01*
X20866114Y-15581500D01*
X20837543Y-15567214D01*
X20794686Y-15567214D01*
X20766114Y-15552929D01*
X20751828Y-15524357D01*
X20751828Y-15510071D01*
X20766114Y-15481500D01*
X20794686Y-15467214D01*
X20837543Y-15467214D01*
X20866114Y-15481500D01*
X21051828Y-15667214D02*
X21023257Y-15652929D01*
X21008971Y-15624357D01*
X21008971Y-15367214D01*
X21208971Y-15667214D02*
X21180400Y-15652929D01*
X21166114Y-15638643D01*
X21151828Y-15610071D01*
X21151828Y-15524357D01*
X21166114Y-15495786D01*
X21180400Y-15481500D01*
X21208971Y-15467214D01*
X21251828Y-15467214D01*
X21280400Y-15481500D01*
X21294686Y-15495786D01*
X21308971Y-15524357D01*
X21308971Y-15610071D01*
X21294686Y-15638643D01*
X21280400Y-15652929D01*
X21251828Y-15667214D01*
X21208971Y-15667214D01*
X21394686Y-15467214D02*
X21508971Y-15467214D01*
X21437543Y-15367214D02*
X21437543Y-15624357D01*
X21451828Y-15652929D01*
X21480400Y-15667214D01*
X21508971Y-15667214D01*
X21594686Y-15652929D02*
X21623257Y-15667214D01*
X21680400Y-15667214D01*
X21708971Y-15652929D01*
X21723257Y-15624357D01*
X21723257Y-15610071D01*
X21708971Y-15581500D01*
X21680400Y-15567214D01*
X21637543Y-15567214D01*
X21608971Y-15552929D01*
X21594686Y-15524357D01*
X21594686Y-15510071D01*
X21608971Y-15481500D01*
X21637543Y-15467214D01*
X21680400Y-15467214D01*
X21708971Y-15481500D01*
X21823257Y-15781500D02*
X21837543Y-15767214D01*
X21866114Y-15724357D01*
X21880400Y-15695786D01*
X21894686Y-15652929D01*
X21908971Y-15581500D01*
X21908971Y-15524357D01*
X21894686Y-15452929D01*
X21880400Y-15410071D01*
X21866114Y-15381500D01*
X21837543Y-15338643D01*
X21823257Y-15324357D01*
X12402543Y-15817500D02*
X12622543Y-16037500D01*
X12622543Y-15817500D02*
X12402543Y-16037500D01*
X12512543Y-15817500D02*
X12512543Y-16037500D01*
X12402543Y-15927500D02*
X12622543Y-15927500D01*
X12894685Y-15791786D02*
X12908971Y-15777500D01*
X12937543Y-15763214D01*
X13008971Y-15763214D01*
X13037543Y-15777500D01*
X13051828Y-15791786D01*
X13066114Y-15820357D01*
X13066114Y-15848929D01*
X13051828Y-15891786D01*
X12880400Y-16063214D01*
X13066114Y-16063214D01*
X13194685Y-16034643D02*
X13208971Y-16048929D01*
X13194685Y-16063214D01*
X13180400Y-16048929D01*
X13194685Y-16034643D01*
X13194685Y-16063214D01*
X13323257Y-15791786D02*
X13337543Y-15777500D01*
X13366114Y-15763214D01*
X13437543Y-15763214D01*
X13466114Y-15777500D01*
X13480400Y-15791786D01*
X13494685Y-15820357D01*
X13494685Y-15848929D01*
X13480400Y-15891786D01*
X13308971Y-16063214D01*
X13494685Y-16063214D01*
X13680400Y-15763214D02*
X13708971Y-15763214D01*
X13737543Y-15777500D01*
X13751828Y-15791786D01*
X13766114Y-15820357D01*
X13780400Y-15877500D01*
X13780400Y-15948929D01*
X13766114Y-16006071D01*
X13751828Y-16034643D01*
X13737543Y-16048929D01*
X13708971Y-16063214D01*
X13680400Y-16063214D01*
X13651828Y-16048929D01*
X13637543Y-16034643D01*
X13623257Y-16006071D01*
X13608971Y-15948929D01*
X13608971Y-15877500D01*
X13623257Y-15820357D01*
X13637543Y-15791786D01*
X13651828Y-15777500D01*
X13680400Y-15763214D01*
X13908971Y-16063214D02*
X13908971Y-15863214D01*
X13908971Y-15891786D02*
X13923257Y-15877500D01*
X13951828Y-15863214D01*
X13994685Y-15863214D01*
X14023257Y-15877500D01*
X14037543Y-15906071D01*
X14037543Y-16063214D01*
X14037543Y-15906071D02*
X14051828Y-15877500D01*
X14080400Y-15863214D01*
X14123257Y-15863214D01*
X14151828Y-15877500D01*
X14166114Y-15906071D01*
X14166114Y-16063214D01*
X14308971Y-16063214D02*
X14308971Y-15863214D01*
X14308971Y-15891786D02*
X14323257Y-15877500D01*
X14351828Y-15863214D01*
X14394685Y-15863214D01*
X14423257Y-15877500D01*
X14437543Y-15906071D01*
X14437543Y-16063214D01*
X14437543Y-15906071D02*
X14451828Y-15877500D01*
X14480400Y-15863214D01*
X14523257Y-15863214D01*
X14551828Y-15877500D01*
X14566114Y-15906071D01*
X14566114Y-16063214D01*
X15151828Y-15748929D02*
X14894685Y-16134643D01*
X15537543Y-15763214D02*
X15566114Y-15763214D01*
X15594685Y-15777500D01*
X15608971Y-15791786D01*
X15623257Y-15820357D01*
X15637543Y-15877500D01*
X15637543Y-15948929D01*
X15623257Y-16006071D01*
X15608971Y-16034643D01*
X15594685Y-16048929D01*
X15566114Y-16063214D01*
X15537543Y-16063214D01*
X15508971Y-16048929D01*
X15494685Y-16034643D01*
X15480400Y-16006071D01*
X15466114Y-15948929D01*
X15466114Y-15877500D01*
X15480400Y-15820357D01*
X15494685Y-15791786D01*
X15508971Y-15777500D01*
X15537543Y-15763214D01*
X15766114Y-16034643D02*
X15780400Y-16048929D01*
X15766114Y-16063214D01*
X15751828Y-16048929D01*
X15766114Y-16034643D01*
X15766114Y-16063214D01*
X15966114Y-15763214D02*
X15994685Y-15763214D01*
X16023257Y-15777500D01*
X16037543Y-15791786D01*
X16051828Y-15820357D01*
X16066114Y-15877500D01*
X16066114Y-15948929D01*
X16051828Y-16006071D01*
X16037543Y-16034643D01*
X16023257Y-16048929D01*
X15994685Y-16063214D01*
X15966114Y-16063214D01*
X15937543Y-16048929D01*
X15923257Y-16034643D01*
X15908971Y-16006071D01*
X15894685Y-15948929D01*
X15894685Y-15877500D01*
X15908971Y-15820357D01*
X15923257Y-15791786D01*
X15937543Y-15777500D01*
X15966114Y-15763214D01*
X16237543Y-15891786D02*
X16208971Y-15877500D01*
X16194685Y-15863214D01*
X16180400Y-15834643D01*
X16180400Y-15820357D01*
X16194685Y-15791786D01*
X16208971Y-15777500D01*
X16237543Y-15763214D01*
X16294685Y-15763214D01*
X16323257Y-15777500D01*
X16337543Y-15791786D01*
X16351828Y-15820357D01*
X16351828Y-15834643D01*
X16337543Y-15863214D01*
X16323257Y-15877500D01*
X16294685Y-15891786D01*
X16237543Y-15891786D01*
X16208971Y-15906071D01*
X16194685Y-15920357D01*
X16180400Y-15948929D01*
X16180400Y-16006071D01*
X16194685Y-16034643D01*
X16208971Y-16048929D01*
X16237543Y-16063214D01*
X16294685Y-16063214D01*
X16323257Y-16048929D01*
X16337543Y-16034643D01*
X16351828Y-16006071D01*
X16351828Y-15948929D01*
X16337543Y-15920357D01*
X16323257Y-15906071D01*
X16294685Y-15891786D01*
X16451828Y-15763214D02*
X16651828Y-15763214D01*
X16523257Y-16063214D01*
X16751828Y-15763214D02*
X16751828Y-15820357D01*
X16866114Y-15763214D02*
X16866114Y-15820357D01*
X17308971Y-16177500D02*
X17294686Y-16163214D01*
X17266114Y-16120357D01*
X17251828Y-16091786D01*
X17237543Y-16048929D01*
X17223257Y-15977500D01*
X17223257Y-15920357D01*
X17237543Y-15848929D01*
X17251828Y-15806071D01*
X17266114Y-15777500D01*
X17294686Y-15734643D01*
X17308971Y-15720357D01*
X17437543Y-16063214D02*
X17494686Y-16063214D01*
X17523257Y-16048929D01*
X17537543Y-16034643D01*
X17566114Y-15991786D01*
X17580400Y-15934643D01*
X17580400Y-15820357D01*
X17566114Y-15791786D01*
X17551828Y-15777500D01*
X17523257Y-15763214D01*
X17466114Y-15763214D01*
X17437543Y-15777500D01*
X17423257Y-15791786D01*
X17408971Y-15820357D01*
X17408971Y-15891786D01*
X17423257Y-15920357D01*
X17437543Y-15934643D01*
X17466114Y-15948929D01*
X17523257Y-15948929D01*
X17551828Y-15934643D01*
X17566114Y-15920357D01*
X17580400Y-15891786D01*
X17937543Y-16063214D02*
X17937543Y-15763214D01*
X18066114Y-16063214D02*
X18066114Y-15906071D01*
X18051828Y-15877500D01*
X18023257Y-15863214D01*
X17980400Y-15863214D01*
X17951828Y-15877500D01*
X17937543Y-15891786D01*
X18251828Y-16063214D02*
X18223257Y-16048929D01*
X18208971Y-16034643D01*
X18194686Y-16006071D01*
X18194686Y-15920357D01*
X18208971Y-15891786D01*
X18223257Y-15877500D01*
X18251828Y-15863214D01*
X18294686Y-15863214D01*
X18323257Y-15877500D01*
X18337543Y-15891786D01*
X18351828Y-15920357D01*
X18351828Y-16006071D01*
X18337543Y-16034643D01*
X18323257Y-16048929D01*
X18294686Y-16063214D01*
X18251828Y-16063214D01*
X18523257Y-16063214D02*
X18494686Y-16048929D01*
X18480400Y-16020357D01*
X18480400Y-15763214D01*
X18751828Y-16048929D02*
X18723257Y-16063214D01*
X18666114Y-16063214D01*
X18637543Y-16048929D01*
X18623257Y-16020357D01*
X18623257Y-15906071D01*
X18637543Y-15877500D01*
X18666114Y-15863214D01*
X18723257Y-15863214D01*
X18751828Y-15877500D01*
X18766114Y-15906071D01*
X18766114Y-15934643D01*
X18623257Y-15963214D01*
X18880400Y-16048929D02*
X18908971Y-16063214D01*
X18966114Y-16063214D01*
X18994686Y-16048929D01*
X19008971Y-16020357D01*
X19008971Y-16006071D01*
X18994686Y-15977500D01*
X18966114Y-15963214D01*
X18923257Y-15963214D01*
X18894686Y-15948929D01*
X18880400Y-15920357D01*
X18880400Y-15906071D01*
X18894686Y-15877500D01*
X18923257Y-15863214D01*
X18966114Y-15863214D01*
X18994686Y-15877500D01*
X19108971Y-16177500D02*
X19123257Y-16163214D01*
X19151828Y-16120357D01*
X19166114Y-16091786D01*
X19180400Y-16048929D01*
X19194686Y-15977500D01*
X19194686Y-15920357D01*
X19180400Y-15848929D01*
X19166114Y-15806071D01*
X19151828Y-15777500D01*
X19123257Y-15734643D01*
X19108971Y-15720357D01*
M02*
