G04 #@! TF.GenerationSoftware,KiCad,Pcbnew,(5.0.0)*
G04 #@! TF.CreationDate,2019-12-28T14:37:16+11:00*
G04 #@! TF.ProjectId,DAQ Board,44415120426F6172642E6B696361645F,rev?*
G04 #@! TF.SameCoordinates,Original*
G04 #@! TF.FileFunction,Legend,Bot*
G04 #@! TF.FilePolarity,Positive*
%FSLAX46Y46*%
G04 Gerber Fmt 4.6, Leading zero omitted, Abs format (unit mm)*
G04 Created by KiCad (PCBNEW (5.0.0)) date 12/28/19 14:37:16*
%MOMM*%
%LPD*%
G01*
G04 APERTURE LIST*
%ADD10C,0.300000*%
G04 APERTURE END LIST*
D10*
X190847857Y-96763571D02*
X190847857Y-97977857D01*
X190776428Y-98120714D01*
X190705000Y-98192142D01*
X190562142Y-98263571D01*
X190276428Y-98263571D01*
X190133571Y-98192142D01*
X190062142Y-98120714D01*
X189990714Y-97977857D01*
X189990714Y-96763571D01*
X189276428Y-96763571D02*
X189276428Y-97977857D01*
X189205000Y-98120714D01*
X189133571Y-98192142D01*
X188990714Y-98263571D01*
X188705000Y-98263571D01*
X188562142Y-98192142D01*
X188490714Y-98120714D01*
X188419285Y-97977857D01*
X188419285Y-96763571D01*
X187705000Y-98263571D02*
X187705000Y-96763571D01*
X186990714Y-98263571D02*
X186990714Y-96763571D01*
X186633571Y-96763571D01*
X186419285Y-96835000D01*
X186276428Y-96977857D01*
X186205000Y-97120714D01*
X186133571Y-97406428D01*
X186133571Y-97620714D01*
X186205000Y-97906428D01*
X186276428Y-98049285D01*
X186419285Y-98192142D01*
X186633571Y-98263571D01*
X186990714Y-98263571D01*
X185490714Y-98120714D02*
X185419285Y-98192142D01*
X185490714Y-98263571D01*
X185562142Y-98192142D01*
X185490714Y-98120714D01*
X185490714Y-98263571D01*
X185490714Y-97335000D02*
X185419285Y-97406428D01*
X185490714Y-97477857D01*
X185562142Y-97406428D01*
X185490714Y-97335000D01*
X185490714Y-97477857D01*
X182847857Y-98263571D02*
X183705000Y-98263571D01*
X183276428Y-98263571D02*
X183276428Y-96763571D01*
X183419285Y-96977857D01*
X183562142Y-97120714D01*
X183705000Y-97192142D01*
X181633571Y-98192142D02*
X181776428Y-98263571D01*
X182062142Y-98263571D01*
X182205000Y-98192142D01*
X182276428Y-98049285D01*
X182276428Y-97477857D01*
X182205000Y-97335000D01*
X182062142Y-97263571D01*
X181776428Y-97263571D01*
X181633571Y-97335000D01*
X181562142Y-97477857D01*
X181562142Y-97620714D01*
X182276428Y-97763571D01*
X181062142Y-96763571D02*
X180133571Y-96763571D01*
X180633571Y-97335000D01*
X180419285Y-97335000D01*
X180276428Y-97406428D01*
X180205000Y-97477857D01*
X180133571Y-97620714D01*
X180133571Y-97977857D01*
X180205000Y-98120714D01*
X180276428Y-98192142D01*
X180419285Y-98263571D01*
X180847857Y-98263571D01*
X180990714Y-98192142D01*
X181062142Y-98120714D01*
X178847857Y-96763571D02*
X179133571Y-96763571D01*
X179276428Y-96835000D01*
X179347857Y-96906428D01*
X179490714Y-97120714D01*
X179562142Y-97406428D01*
X179562142Y-97977857D01*
X179490714Y-98120714D01*
X179419285Y-98192142D01*
X179276428Y-98263571D01*
X178990714Y-98263571D01*
X178847857Y-98192142D01*
X178776428Y-98120714D01*
X178705000Y-97977857D01*
X178705000Y-97620714D01*
X178776428Y-97477857D01*
X178847857Y-97406428D01*
X178990714Y-97335000D01*
X179276428Y-97335000D01*
X179419285Y-97406428D01*
X179490714Y-97477857D01*
X179562142Y-97620714D01*
X177419285Y-96763571D02*
X177705000Y-96763571D01*
X177847857Y-96835000D01*
X177919285Y-96906428D01*
X178062142Y-97120714D01*
X178133571Y-97406428D01*
X178133571Y-97977857D01*
X178062142Y-98120714D01*
X177990714Y-98192142D01*
X177847857Y-98263571D01*
X177562142Y-98263571D01*
X177419285Y-98192142D01*
X177347857Y-98120714D01*
X177276428Y-97977857D01*
X177276428Y-97620714D01*
X177347857Y-97477857D01*
X177419285Y-97406428D01*
X177562142Y-97335000D01*
X177847857Y-97335000D01*
X177990714Y-97406428D01*
X178062142Y-97477857D01*
X178133571Y-97620714D01*
X176776428Y-96763571D02*
X175847857Y-96763571D01*
X176347857Y-97335000D01*
X176133571Y-97335000D01*
X175990714Y-97406428D01*
X175919285Y-97477857D01*
X175847857Y-97620714D01*
X175847857Y-97977857D01*
X175919285Y-98120714D01*
X175990714Y-98192142D01*
X176133571Y-98263571D01*
X176562142Y-98263571D01*
X176705000Y-98192142D01*
X176776428Y-98120714D01*
X174562142Y-98263571D02*
X174562142Y-97477857D01*
X174633571Y-97335000D01*
X174776428Y-97263571D01*
X175062142Y-97263571D01*
X175205000Y-97335000D01*
X174562142Y-98192142D02*
X174705000Y-98263571D01*
X175062142Y-98263571D01*
X175205000Y-98192142D01*
X175276428Y-98049285D01*
X175276428Y-97906428D01*
X175205000Y-97763571D01*
X175062142Y-97692142D01*
X174705000Y-97692142D01*
X174562142Y-97620714D01*
X173276428Y-98192142D02*
X173419285Y-98263571D01*
X173705000Y-98263571D01*
X173847857Y-98192142D01*
X173919285Y-98049285D01*
X173919285Y-97477857D01*
X173847857Y-97335000D01*
X173705000Y-97263571D01*
X173419285Y-97263571D01*
X173276428Y-97335000D01*
X173205000Y-97477857D01*
X173205000Y-97620714D01*
X173919285Y-97763571D01*
X172562142Y-97692142D02*
X171419285Y-97692142D01*
X170490714Y-97406428D02*
X170633571Y-97335000D01*
X170705000Y-97263571D01*
X170776428Y-97120714D01*
X170776428Y-97049285D01*
X170705000Y-96906428D01*
X170633571Y-96835000D01*
X170490714Y-96763571D01*
X170205000Y-96763571D01*
X170062142Y-96835000D01*
X169990714Y-96906428D01*
X169919285Y-97049285D01*
X169919285Y-97120714D01*
X169990714Y-97263571D01*
X170062142Y-97335000D01*
X170205000Y-97406428D01*
X170490714Y-97406428D01*
X170633571Y-97477857D01*
X170705000Y-97549285D01*
X170776428Y-97692142D01*
X170776428Y-97977857D01*
X170705000Y-98120714D01*
X170633571Y-98192142D01*
X170490714Y-98263571D01*
X170205000Y-98263571D01*
X170062142Y-98192142D01*
X169990714Y-98120714D01*
X169919285Y-97977857D01*
X169919285Y-97692142D01*
X169990714Y-97549285D01*
X170062142Y-97477857D01*
X170205000Y-97406428D01*
X168562142Y-96763571D02*
X169276428Y-96763571D01*
X169347857Y-97477857D01*
X169276428Y-97406428D01*
X169133571Y-97335000D01*
X168776428Y-97335000D01*
X168633571Y-97406428D01*
X168562142Y-97477857D01*
X168490714Y-97620714D01*
X168490714Y-97977857D01*
X168562142Y-98120714D01*
X168633571Y-98192142D01*
X168776428Y-98263571D01*
X169133571Y-98263571D01*
X169276428Y-98192142D01*
X169347857Y-98120714D01*
X167205000Y-98263571D02*
X167205000Y-96763571D01*
X167205000Y-98192142D02*
X167347857Y-98263571D01*
X167633571Y-98263571D01*
X167776428Y-98192142D01*
X167847857Y-98120714D01*
X167919285Y-97977857D01*
X167919285Y-97549285D01*
X167847857Y-97406428D01*
X167776428Y-97335000D01*
X167633571Y-97263571D01*
X167347857Y-97263571D01*
X167205000Y-97335000D01*
X165705000Y-98263571D02*
X166562142Y-98263571D01*
X166133571Y-98263571D02*
X166133571Y-96763571D01*
X166276428Y-96977857D01*
X166419285Y-97120714D01*
X166562142Y-97192142D01*
X165062142Y-97692142D02*
X163919285Y-97692142D01*
X162562142Y-97263571D02*
X162562142Y-98263571D01*
X162919285Y-96692142D02*
X163276428Y-97763571D01*
X162347857Y-97763571D01*
X161133571Y-98263571D02*
X161133571Y-97477857D01*
X161205000Y-97335000D01*
X161347857Y-97263571D01*
X161633571Y-97263571D01*
X161776428Y-97335000D01*
X161133571Y-98192142D02*
X161276428Y-98263571D01*
X161633571Y-98263571D01*
X161776428Y-98192142D01*
X161847857Y-98049285D01*
X161847857Y-97906428D01*
X161776428Y-97763571D01*
X161633571Y-97692142D01*
X161276428Y-97692142D01*
X161133571Y-97620714D01*
X159776428Y-98192142D02*
X159919285Y-98263571D01*
X160205000Y-98263571D01*
X160347857Y-98192142D01*
X160419285Y-98120714D01*
X160490714Y-97977857D01*
X160490714Y-97549285D01*
X160419285Y-97406428D01*
X160347857Y-97335000D01*
X160205000Y-97263571D01*
X159919285Y-97263571D01*
X159776428Y-97335000D01*
X159062142Y-98263571D02*
X158776428Y-98263571D01*
X158633571Y-98192142D01*
X158562142Y-98120714D01*
X158419285Y-97906428D01*
X158347857Y-97620714D01*
X158347857Y-97049285D01*
X158419285Y-96906428D01*
X158490714Y-96835000D01*
X158633571Y-96763571D01*
X158919285Y-96763571D01*
X159062142Y-96835000D01*
X159133571Y-96906428D01*
X159205000Y-97049285D01*
X159205000Y-97406428D01*
X159133571Y-97549285D01*
X159062142Y-97620714D01*
X158919285Y-97692142D01*
X158633571Y-97692142D01*
X158490714Y-97620714D01*
X158419285Y-97549285D01*
X158347857Y-97406428D01*
X157705000Y-97692142D02*
X156562142Y-97692142D01*
X155633571Y-97406428D02*
X155776428Y-97335000D01*
X155847857Y-97263571D01*
X155919285Y-97120714D01*
X155919285Y-97049285D01*
X155847857Y-96906428D01*
X155776428Y-96835000D01*
X155633571Y-96763571D01*
X155347857Y-96763571D01*
X155205000Y-96835000D01*
X155133571Y-96906428D01*
X155062142Y-97049285D01*
X155062142Y-97120714D01*
X155133571Y-97263571D01*
X155205000Y-97335000D01*
X155347857Y-97406428D01*
X155633571Y-97406428D01*
X155776428Y-97477857D01*
X155847857Y-97549285D01*
X155919285Y-97692142D01*
X155919285Y-97977857D01*
X155847857Y-98120714D01*
X155776428Y-98192142D01*
X155633571Y-98263571D01*
X155347857Y-98263571D01*
X155205000Y-98192142D01*
X155133571Y-98120714D01*
X155062142Y-97977857D01*
X155062142Y-97692142D01*
X155133571Y-97549285D01*
X155205000Y-97477857D01*
X155347857Y-97406428D01*
X153633571Y-98263571D02*
X154490714Y-98263571D01*
X154062142Y-98263571D02*
X154062142Y-96763571D01*
X154205000Y-96977857D01*
X154347857Y-97120714D01*
X154490714Y-97192142D01*
X152347857Y-96763571D02*
X152633571Y-96763571D01*
X152776428Y-96835000D01*
X152847857Y-96906428D01*
X152990714Y-97120714D01*
X153062142Y-97406428D01*
X153062142Y-97977857D01*
X152990714Y-98120714D01*
X152919285Y-98192142D01*
X152776428Y-98263571D01*
X152490714Y-98263571D01*
X152347857Y-98192142D01*
X152276428Y-98120714D01*
X152205000Y-97977857D01*
X152205000Y-97620714D01*
X152276428Y-97477857D01*
X152347857Y-97406428D01*
X152490714Y-97335000D01*
X152776428Y-97335000D01*
X152919285Y-97406428D01*
X152990714Y-97477857D01*
X153062142Y-97620714D01*
X150919285Y-97263571D02*
X150919285Y-98263571D01*
X151276428Y-96692142D02*
X151633571Y-97763571D01*
X150705000Y-97763571D01*
X150133571Y-97692142D02*
X148990714Y-97692142D01*
X147633571Y-96763571D02*
X147919285Y-96763571D01*
X148062142Y-96835000D01*
X148133571Y-96906428D01*
X148276428Y-97120714D01*
X148347857Y-97406428D01*
X148347857Y-97977857D01*
X148276428Y-98120714D01*
X148205000Y-98192142D01*
X148062142Y-98263571D01*
X147776428Y-98263571D01*
X147633571Y-98192142D01*
X147562142Y-98120714D01*
X147490714Y-97977857D01*
X147490714Y-97620714D01*
X147562142Y-97477857D01*
X147633571Y-97406428D01*
X147776428Y-97335000D01*
X148062142Y-97335000D01*
X148205000Y-97406428D01*
X148276428Y-97477857D01*
X148347857Y-97620714D01*
X146205000Y-98263571D02*
X146205000Y-97477857D01*
X146276428Y-97335000D01*
X146419285Y-97263571D01*
X146705000Y-97263571D01*
X146847857Y-97335000D01*
X146205000Y-98192142D02*
X146347857Y-98263571D01*
X146705000Y-98263571D01*
X146847857Y-98192142D01*
X146919285Y-98049285D01*
X146919285Y-97906428D01*
X146847857Y-97763571D01*
X146705000Y-97692142D01*
X146347857Y-97692142D01*
X146205000Y-97620714D01*
X144847857Y-96763571D02*
X145133571Y-96763571D01*
X145276428Y-96835000D01*
X145347857Y-96906428D01*
X145490714Y-97120714D01*
X145562142Y-97406428D01*
X145562142Y-97977857D01*
X145490714Y-98120714D01*
X145419285Y-98192142D01*
X145276428Y-98263571D01*
X144990714Y-98263571D01*
X144847857Y-98192142D01*
X144776428Y-98120714D01*
X144705000Y-97977857D01*
X144705000Y-97620714D01*
X144776428Y-97477857D01*
X144847857Y-97406428D01*
X144990714Y-97335000D01*
X145276428Y-97335000D01*
X145419285Y-97406428D01*
X145490714Y-97477857D01*
X145562142Y-97620714D01*
X143847857Y-97406428D02*
X143990714Y-97335000D01*
X144062142Y-97263571D01*
X144133571Y-97120714D01*
X144133571Y-97049285D01*
X144062142Y-96906428D01*
X143990714Y-96835000D01*
X143847857Y-96763571D01*
X143562142Y-96763571D01*
X143419285Y-96835000D01*
X143347857Y-96906428D01*
X143276428Y-97049285D01*
X143276428Y-97120714D01*
X143347857Y-97263571D01*
X143419285Y-97335000D01*
X143562142Y-97406428D01*
X143847857Y-97406428D01*
X143990714Y-97477857D01*
X144062142Y-97549285D01*
X144133571Y-97692142D01*
X144133571Y-97977857D01*
X144062142Y-98120714D01*
X143990714Y-98192142D01*
X143847857Y-98263571D01*
X143562142Y-98263571D01*
X143419285Y-98192142D01*
X143347857Y-98120714D01*
X143276428Y-97977857D01*
X143276428Y-97692142D01*
X143347857Y-97549285D01*
X143419285Y-97477857D01*
X143562142Y-97406428D01*
X142633571Y-98263571D02*
X142633571Y-96763571D01*
X142633571Y-97335000D02*
X142490714Y-97263571D01*
X142205000Y-97263571D01*
X142062142Y-97335000D01*
X141990714Y-97406428D01*
X141919285Y-97549285D01*
X141919285Y-97977857D01*
X141990714Y-98120714D01*
X142062142Y-98192142D01*
X142205000Y-98263571D01*
X142490714Y-98263571D01*
X142633571Y-98192142D01*
X140705000Y-98192142D02*
X140847857Y-98263571D01*
X141133571Y-98263571D01*
X141276428Y-98192142D01*
X141347857Y-98049285D01*
X141347857Y-97477857D01*
X141276428Y-97335000D01*
X141133571Y-97263571D01*
X140847857Y-97263571D01*
X140705000Y-97335000D01*
X140633571Y-97477857D01*
X140633571Y-97620714D01*
X141347857Y-97763571D01*
X139276428Y-96763571D02*
X139990714Y-96763571D01*
X140062142Y-97477857D01*
X139990714Y-97406428D01*
X139847857Y-97335000D01*
X139490714Y-97335000D01*
X139347857Y-97406428D01*
X139276428Y-97477857D01*
X139205000Y-97620714D01*
X139205000Y-97977857D01*
X139276428Y-98120714D01*
X139347857Y-98192142D01*
X139490714Y-98263571D01*
X139847857Y-98263571D01*
X139990714Y-98192142D01*
X140062142Y-98120714D01*
X137919285Y-97263571D02*
X137919285Y-98263571D01*
X138276428Y-96692142D02*
X138633571Y-97763571D01*
X137705000Y-97763571D01*
X137276428Y-96763571D02*
X136276428Y-96763571D01*
X136919285Y-98263571D01*
X135133571Y-98192142D02*
X135276428Y-98263571D01*
X135562142Y-98263571D01*
X135705000Y-98192142D01*
X135776428Y-98049285D01*
X135776428Y-97477857D01*
X135705000Y-97335000D01*
X135562142Y-97263571D01*
X135276428Y-97263571D01*
X135133571Y-97335000D01*
X135062142Y-97477857D01*
X135062142Y-97620714D01*
X135776428Y-97763571D01*
X133705000Y-96763571D02*
X134419285Y-96763571D01*
X134490714Y-97477857D01*
X134419285Y-97406428D01*
X134276428Y-97335000D01*
X133919285Y-97335000D01*
X133776428Y-97406428D01*
X133705000Y-97477857D01*
X133633571Y-97620714D01*
X133633571Y-97977857D01*
X133705000Y-98120714D01*
X133776428Y-98192142D01*
X133919285Y-98263571D01*
X134276428Y-98263571D01*
X134419285Y-98192142D01*
X134490714Y-98120714D01*
X132347857Y-98192142D02*
X132490714Y-98263571D01*
X132776428Y-98263571D01*
X132919285Y-98192142D01*
X132990714Y-98120714D01*
X133062142Y-97977857D01*
X133062142Y-97549285D01*
X132990714Y-97406428D01*
X132919285Y-97335000D01*
X132776428Y-97263571D01*
X132490714Y-97263571D01*
X132347857Y-97335000D01*
X190347857Y-100027857D02*
X190133571Y-100099285D01*
X190062142Y-100170714D01*
X189990714Y-100313571D01*
X189990714Y-100527857D01*
X190062142Y-100670714D01*
X190133571Y-100742142D01*
X190276428Y-100813571D01*
X190847857Y-100813571D01*
X190847857Y-99313571D01*
X190347857Y-99313571D01*
X190205000Y-99385000D01*
X190133571Y-99456428D01*
X190062142Y-99599285D01*
X190062142Y-99742142D01*
X190133571Y-99885000D01*
X190205000Y-99956428D01*
X190347857Y-100027857D01*
X190847857Y-100027857D01*
X189133571Y-100813571D02*
X189276428Y-100742142D01*
X189347857Y-100599285D01*
X189347857Y-99313571D01*
X187919285Y-99813571D02*
X187919285Y-100813571D01*
X188562142Y-99813571D02*
X188562142Y-100599285D01*
X188490714Y-100742142D01*
X188347857Y-100813571D01*
X188133571Y-100813571D01*
X187990714Y-100742142D01*
X187919285Y-100670714D01*
X186633571Y-100742142D02*
X186776428Y-100813571D01*
X187062142Y-100813571D01*
X187205000Y-100742142D01*
X187276428Y-100599285D01*
X187276428Y-100027857D01*
X187205000Y-99885000D01*
X187062142Y-99813571D01*
X186776428Y-99813571D01*
X186633571Y-99885000D01*
X186562142Y-100027857D01*
X186562142Y-100170714D01*
X187276428Y-100313571D01*
X186133571Y-99813571D02*
X185562142Y-99813571D01*
X185919285Y-99313571D02*
X185919285Y-100599285D01*
X185847857Y-100742142D01*
X185705000Y-100813571D01*
X185562142Y-100813571D01*
X184847857Y-100813571D02*
X184990714Y-100742142D01*
X185062142Y-100670714D01*
X185133571Y-100527857D01*
X185133571Y-100099285D01*
X185062142Y-99956428D01*
X184990714Y-99885000D01*
X184847857Y-99813571D01*
X184633571Y-99813571D01*
X184490714Y-99885000D01*
X184419285Y-99956428D01*
X184347857Y-100099285D01*
X184347857Y-100527857D01*
X184419285Y-100670714D01*
X184490714Y-100742142D01*
X184633571Y-100813571D01*
X184847857Y-100813571D01*
X183490714Y-100813571D02*
X183633571Y-100742142D01*
X183705000Y-100670714D01*
X183776428Y-100527857D01*
X183776428Y-100099285D01*
X183705000Y-99956428D01*
X183633571Y-99885000D01*
X183490714Y-99813571D01*
X183276428Y-99813571D01*
X183133571Y-99885000D01*
X183062142Y-99956428D01*
X182990714Y-100099285D01*
X182990714Y-100527857D01*
X183062142Y-100670714D01*
X183133571Y-100742142D01*
X183276428Y-100813571D01*
X183490714Y-100813571D01*
X182562142Y-99813571D02*
X181990714Y-99813571D01*
X182347857Y-99313571D02*
X182347857Y-100599285D01*
X182276428Y-100742142D01*
X182133571Y-100813571D01*
X181990714Y-100813571D01*
X181490714Y-100813571D02*
X181490714Y-99313571D01*
X180847857Y-100813571D02*
X180847857Y-100027857D01*
X180919285Y-99885000D01*
X181062142Y-99813571D01*
X181276428Y-99813571D01*
X181419285Y-99885000D01*
X181490714Y-99956428D01*
X178990714Y-100813571D02*
X178990714Y-99313571D01*
X178276428Y-100813571D02*
X178276428Y-99313571D01*
X177919285Y-99313571D01*
X177705000Y-99385000D01*
X177562142Y-99527857D01*
X177490714Y-99670714D01*
X177419285Y-99956428D01*
X177419285Y-100170714D01*
X177490714Y-100456428D01*
X177562142Y-100599285D01*
X177705000Y-100742142D01*
X177919285Y-100813571D01*
X178276428Y-100813571D01*
X176776428Y-100670714D02*
X176705000Y-100742142D01*
X176776428Y-100813571D01*
X176847857Y-100742142D01*
X176776428Y-100670714D01*
X176776428Y-100813571D01*
X176776428Y-99885000D02*
X176705000Y-99956428D01*
X176776428Y-100027857D01*
X176847857Y-99956428D01*
X176776428Y-99885000D01*
X176776428Y-100027857D01*
X174919285Y-100027857D02*
X174419285Y-100027857D01*
X174205000Y-100813571D02*
X174919285Y-100813571D01*
X174919285Y-99313571D01*
X174205000Y-99313571D01*
X173562142Y-100027857D02*
X173062142Y-100027857D01*
X172847857Y-100813571D02*
X173562142Y-100813571D01*
X173562142Y-99313571D01*
X172847857Y-99313571D01*
X171419285Y-99385000D02*
X171562142Y-99313571D01*
X171776428Y-99313571D01*
X171990714Y-99385000D01*
X172133571Y-99527857D01*
X172205000Y-99670714D01*
X172276428Y-99956428D01*
X172276428Y-100170714D01*
X172205000Y-100456428D01*
X172133571Y-100599285D01*
X171990714Y-100742142D01*
X171776428Y-100813571D01*
X171633571Y-100813571D01*
X171419285Y-100742142D01*
X171347857Y-100670714D01*
X171347857Y-100170714D01*
X171633571Y-100170714D01*
X171062142Y-100956428D02*
X169919285Y-100956428D01*
X169562142Y-100813571D02*
X169562142Y-99313571D01*
X169205000Y-99313571D01*
X168990714Y-99385000D01*
X168847857Y-99527857D01*
X168776428Y-99670714D01*
X168705000Y-99956428D01*
X168705000Y-100170714D01*
X168776428Y-100456428D01*
X168847857Y-100599285D01*
X168990714Y-100742142D01*
X169205000Y-100813571D01*
X169562142Y-100813571D01*
X168133571Y-100385000D02*
X167419285Y-100385000D01*
X168276428Y-100813571D02*
X167776428Y-99313571D01*
X167276428Y-100813571D01*
X165776428Y-100956428D02*
X165919285Y-100885000D01*
X166062142Y-100742142D01*
X166276428Y-100527857D01*
X166419285Y-100456428D01*
X166562142Y-100456428D01*
X166490714Y-100813571D02*
X166633571Y-100742142D01*
X166776428Y-100599285D01*
X166847857Y-100313571D01*
X166847857Y-99813571D01*
X166776428Y-99527857D01*
X166633571Y-99385000D01*
X166490714Y-99313571D01*
X166205000Y-99313571D01*
X166062142Y-99385000D01*
X165919285Y-99527857D01*
X165847857Y-99813571D01*
X165847857Y-100313571D01*
X165919285Y-100599285D01*
X166062142Y-100742142D01*
X166205000Y-100813571D01*
X166490714Y-100813571D01*
M02*
