G04 #@! TF.GenerationSoftware,KiCad,Pcbnew,(5.0.0)*
G04 #@! TF.CreationDate,2020-05-27T21:18:53+10:00*
G04 #@! TF.ProjectId,DAQ Board,44415120426F6172642E6B696361645F,rev?*
G04 #@! TF.SameCoordinates,Original*
G04 #@! TF.FileFunction,Copper,L2,Inr,Plane*
G04 #@! TF.FilePolarity,Positive*
%FSLAX46Y46*%
G04 Gerber Fmt 4.6, Leading zero omitted, Abs format (unit mm)*
G04 Created by KiCad (PCBNEW (5.0.0)) date 05/27/20 21:18:53*
%MOMM*%
%LPD*%
G01*
G04 APERTURE LIST*
G04 #@! TA.AperFunction,ViaPad*
%ADD10R,1.700000X1.700000*%
G04 #@! TD*
G04 #@! TA.AperFunction,ViaPad*
%ADD11O,1.700000X1.700000*%
G04 #@! TD*
G04 #@! TA.AperFunction,ViaPad*
%ADD12C,2.000000*%
G04 #@! TD*
G04 #@! TA.AperFunction,ViaPad*
%ADD13C,1.750000*%
G04 #@! TD*
G04 #@! TA.AperFunction,ViaPad*
%ADD14C,4.000000*%
G04 #@! TD*
G04 #@! TA.AperFunction,ViaPad*
%ADD15C,1.600000*%
G04 #@! TD*
G04 #@! TA.AperFunction,ViaPad*
%ADD16O,1.600000X1.600000*%
G04 #@! TD*
G04 #@! TA.AperFunction,ViaPad*
%ADD17O,1.450000X2.000000*%
G04 #@! TD*
G04 #@! TA.AperFunction,ViaPad*
%ADD18O,1.150000X1.800000*%
G04 #@! TD*
G04 #@! TA.AperFunction,ViaPad*
%ADD19R,4.000000X2.000000*%
G04 #@! TD*
G04 #@! TA.AperFunction,ViaPad*
%ADD20O,3.300000X2.000000*%
G04 #@! TD*
G04 #@! TA.AperFunction,ViaPad*
%ADD21O,2.000000X3.500000*%
G04 #@! TD*
G04 #@! TA.AperFunction,ViaPad*
%ADD22C,0.800000*%
G04 #@! TD*
G04 #@! TA.AperFunction,Conductor*
%ADD23C,0.254000*%
G04 #@! TD*
G04 APERTURE END LIST*
D10*
G04 #@! TO.N,/GND*
G04 #@! TO.C,J14*
X187380000Y-69090000D03*
D11*
G04 #@! TO.N,/ADC1299/VREFP*
X189920000Y-69090000D03*
G04 #@! TD*
D12*
G04 #@! TO.N,/GND*
G04 #@! TO.C,PB1*
X180100000Y-117090000D03*
G04 #@! TO.N,/~RESET_5V*
X184600000Y-117090000D03*
X184600000Y-123590000D03*
G04 #@! TO.N,/GND*
X180100000Y-123590000D03*
G04 #@! TD*
D13*
G04 #@! TO.N,Net-(R10-Pad2)*
G04 #@! TO.C,SW10*
X205920428Y-76161482D03*
G04 #@! TO.N,Net-(J18-Pad1)*
X208420428Y-76161482D03*
G04 #@! TO.N,/ADC1299/AVDD*
X203420428Y-76161482D03*
G04 #@! TD*
D14*
G04 #@! TO.N,Net-(J19-Pad1)*
G04 #@! TO.C,J19*
X226060000Y-72220000D03*
G04 #@! TD*
G04 #@! TO.N,Net-(J18-Pad1)*
G04 #@! TO.C,J18*
X217230000Y-78215000D03*
G04 #@! TD*
G04 #@! TO.N,Net-(J17-Pad1)*
G04 #@! TO.C,J17*
X226060000Y-84305000D03*
G04 #@! TD*
G04 #@! TO.N,Net-(J13-Pad1)*
G04 #@! TO.C,J13*
X217230000Y-90300000D03*
G04 #@! TD*
G04 #@! TO.N,Net-(J11-Pad1)*
G04 #@! TO.C,J11*
X226060000Y-96390000D03*
G04 #@! TD*
G04 #@! TO.N,Net-(J9-Pad1)*
G04 #@! TO.C,J9*
X217230000Y-102385000D03*
G04 #@! TD*
G04 #@! TO.N,Net-(J1-Pad1)*
G04 #@! TO.C,J1*
X226060000Y-120560000D03*
G04 #@! TD*
G04 #@! TO.N,Net-(J3-Pad1)*
G04 #@! TO.C,J3*
X217230000Y-114470000D03*
G04 #@! TD*
G04 #@! TO.N,Net-(J8-Pad1)*
G04 #@! TO.C,J8*
X226060000Y-108475000D03*
G04 #@! TD*
D11*
G04 #@! TO.N,Net-(J5-Pad6)*
G04 #@! TO.C,J5*
X129830428Y-109841482D03*
G04 #@! TO.N,/+5V*
X129830428Y-112381482D03*
G04 #@! TO.N,/GND*
X129830428Y-114921482D03*
G04 #@! TO.N,/HC05_RX*
X129830428Y-117461482D03*
G04 #@! TO.N,/HC05_TX*
X129830428Y-120001482D03*
D10*
G04 #@! TO.N,Net-(J5-Pad1)*
X129830428Y-122541482D03*
G04 #@! TD*
G04 #@! TO.N,/GND*
G04 #@! TO.C,J12*
X156540000Y-104840000D03*
D11*
G04 #@! TO.N,/START_3V3*
X156540000Y-102300000D03*
G04 #@! TD*
G04 #@! TO.N,/VIN_RAW*
G04 #@! TO.C,J7*
X204860428Y-120981482D03*
D10*
G04 #@! TO.N,/GND*
X204860428Y-123521482D03*
G04 #@! TD*
G04 #@! TO.N,/GND*
G04 #@! TO.C,J16*
X160060428Y-69151482D03*
D11*
G04 #@! TO.N,/~DRDY_3V3*
X162600428Y-69151482D03*
G04 #@! TD*
G04 #@! TO.N,/GND*
G04 #@! TO.C,J15*
X183080000Y-69110000D03*
D10*
G04 #@! TO.N,/ADC1299/VCAP1*
X180540000Y-69110000D03*
G04 #@! TD*
G04 #@! TO.N,/GND*
G04 #@! TO.C,J10*
X164400000Y-106000000D03*
D11*
G04 #@! TO.N,/~CS_3V3*
X166940000Y-106000000D03*
G04 #@! TD*
D13*
G04 #@! TO.N,Net-(R7-Pad2)*
G04 #@! TO.C,SW7*
X205920428Y-89496482D03*
G04 #@! TO.N,Net-(J11-Pad1)*
X208420428Y-89496482D03*
G04 #@! TO.N,/ADC1299/AVDD*
X203420428Y-89496482D03*
G04 #@! TD*
G04 #@! TO.N,Net-(R3-Pad2)*
G04 #@! TO.C,SW3*
X205920428Y-107276482D03*
G04 #@! TO.N,Net-(J1-Pad1)*
X208420428Y-107276482D03*
G04 #@! TO.N,/ADC1299/AVDD*
X203420428Y-107276482D03*
G04 #@! TD*
G04 #@! TO.N,Net-(R4-Pad2)*
G04 #@! TO.C,SW4*
X205920428Y-102831482D03*
G04 #@! TO.N,Net-(J3-Pad1)*
X208420428Y-102831482D03*
G04 #@! TO.N,/ADC1299/AVDD*
X203420428Y-102831482D03*
G04 #@! TD*
G04 #@! TO.N,Net-(R5-Pad2)*
G04 #@! TO.C,SW5*
X205920428Y-98386482D03*
G04 #@! TO.N,Net-(J8-Pad1)*
X208420428Y-98386482D03*
G04 #@! TO.N,/ADC1299/AVDD*
X203420428Y-98386482D03*
G04 #@! TD*
G04 #@! TO.N,Net-(R6-Pad2)*
G04 #@! TO.C,SW6*
X205920428Y-93941482D03*
G04 #@! TO.N,Net-(J9-Pad1)*
X208420428Y-93941482D03*
G04 #@! TO.N,/ADC1299/AVDD*
X203420428Y-93941482D03*
G04 #@! TD*
G04 #@! TO.N,Net-(R8-Pad2)*
G04 #@! TO.C,SW8*
X205920428Y-85051482D03*
G04 #@! TO.N,Net-(J13-Pad1)*
X208420428Y-85051482D03*
G04 #@! TO.N,/ADC1299/AVDD*
X203420428Y-85051482D03*
G04 #@! TD*
G04 #@! TO.N,Net-(R9-Pad2)*
G04 #@! TO.C,SW9*
X205920428Y-80606482D03*
G04 #@! TO.N,Net-(J17-Pad1)*
X208420428Y-80606482D03*
G04 #@! TO.N,/ADC1299/AVDD*
X203420428Y-80606482D03*
G04 #@! TD*
G04 #@! TO.N,Net-(R11-Pad2)*
G04 #@! TO.C,SW11*
X205864548Y-71716482D03*
G04 #@! TO.N,Net-(J19-Pad1)*
X208364548Y-71716482D03*
G04 #@! TO.N,/ADC1299/AVDD*
X203364548Y-71716482D03*
G04 #@! TD*
D15*
G04 #@! TO.N,Net-(F1-Pad1)*
G04 #@! TO.C,F1*
X200700428Y-111151482D03*
D16*
G04 #@! TO.N,/VIN_RAW*
X200700428Y-123851482D03*
G04 #@! TD*
D17*
G04 #@! TO.N,/GND*
G04 #@! TO.C,J2*
X142666843Y-72730245D03*
X135216843Y-72730245D03*
D18*
X142816843Y-68930245D03*
X135066843Y-68930245D03*
G04 #@! TD*
D19*
G04 #@! TO.N,/GND*
G04 #@! TO.C,J4*
X192460000Y-113130000D03*
D20*
G04 #@! TO.N,/VIN_RAW*
X192460000Y-119130000D03*
D21*
G04 #@! TO.N,N/C*
X187960000Y-120130000D03*
X196960000Y-120130000D03*
G04 #@! TD*
D10*
G04 #@! TO.N,/MISO_5V*
G04 #@! TO.C,J6*
X161530000Y-91800000D03*
D11*
G04 #@! TO.N,/+5V*
X158990000Y-91800000D03*
G04 #@! TO.N,/SCLK_5V*
X161530000Y-89260000D03*
G04 #@! TO.N,/MOSI_5V*
X158990000Y-89260000D03*
G04 #@! TO.N,/~RESET_5V*
X161530000Y-86720000D03*
G04 #@! TO.N,/GND*
X158990000Y-86720000D03*
G04 #@! TD*
D22*
G04 #@! TO.N,Net-(ADC1-Pad17)*
X194550000Y-93260000D03*
X194550000Y-88710000D03*
X194560000Y-84150000D03*
X194540000Y-79760000D03*
X194530000Y-75390000D03*
X194540000Y-69850000D03*
X194540000Y-97600000D03*
X194540000Y-101960000D03*
G04 #@! TO.N,/ADC1299/AVDD*
X175420428Y-79861482D03*
X179050428Y-73481482D03*
X189060000Y-97020000D03*
X190210000Y-83310000D03*
X189270000Y-89160000D03*
X179430000Y-106800000D03*
X181140000Y-97540000D03*
G04 #@! TO.N,/GND*
X216060000Y-120320000D03*
X139440000Y-109510000D03*
X136000000Y-109490000D03*
X162400000Y-107560000D03*
X184170000Y-86530000D03*
X148170428Y-97951482D03*
X127480000Y-68630000D03*
X132930000Y-68690000D03*
X140020000Y-68620000D03*
X148020000Y-68620000D03*
X156020000Y-68620000D03*
X164540000Y-68450000D03*
X172020000Y-68620000D03*
X176020000Y-68620000D03*
X192020000Y-68620000D03*
X196020000Y-68620000D03*
X200020000Y-68620000D03*
X204020000Y-68620000D03*
X208020000Y-68620000D03*
X212020000Y-68620000D03*
X223990000Y-68610000D03*
X220020000Y-68620000D03*
X127990000Y-73680000D03*
X132120000Y-73770000D03*
X144040000Y-74320000D03*
X148020000Y-72620000D03*
X156020000Y-72620000D03*
X168020000Y-72620000D03*
X180020000Y-72620000D03*
X191320000Y-74100000D03*
X200020000Y-72620000D03*
X213580000Y-73530000D03*
X221180000Y-73990000D03*
X137590000Y-76500000D03*
X144020000Y-76620000D03*
X148020000Y-76620000D03*
X156020000Y-76620000D03*
X160020000Y-76620000D03*
X164020000Y-76620000D03*
X184020000Y-76620000D03*
X187490000Y-76620000D03*
X200020000Y-76620000D03*
X207110000Y-73810000D03*
X220020000Y-76620000D03*
X148020000Y-80620000D03*
X156020000Y-80620000D03*
X187500000Y-78440000D03*
X200020000Y-80620000D03*
X220020000Y-80620000D03*
X128020000Y-84620000D03*
X148020000Y-84620000D03*
X150040000Y-83870000D03*
X176350000Y-83310000D03*
X200020000Y-84620000D03*
X220020000Y-84620000D03*
X128020000Y-88620000D03*
X132020000Y-88620000D03*
X136020000Y-88620000D03*
X144020000Y-88620000D03*
X150130000Y-87740000D03*
X200020000Y-88620000D03*
X220020000Y-88620000D03*
X128020000Y-92620000D03*
X140720000Y-90660000D03*
X184020000Y-92620000D03*
X220020000Y-92620000D03*
X128020000Y-96620000D03*
X191640000Y-98520000D03*
X207220000Y-96150000D03*
X212020000Y-96620000D03*
X216020000Y-96620000D03*
X220020000Y-96620000D03*
X128020000Y-100620000D03*
X136020000Y-100620000D03*
X144020000Y-100620000D03*
X152020000Y-100620000D03*
X160020000Y-100620000D03*
X164020000Y-100620000D03*
X167490000Y-99060000D03*
X172020000Y-100620000D03*
X176020000Y-100620000D03*
X180020000Y-100620000D03*
X184020000Y-100620000D03*
X188020000Y-100620000D03*
X190770000Y-102340000D03*
X207180000Y-100630000D03*
X212020000Y-100620000D03*
X216040000Y-99790000D03*
X220020000Y-100620000D03*
X135200000Y-104320000D03*
X160020000Y-104620000D03*
X173540000Y-104220000D03*
X172350000Y-107610000D03*
X176020000Y-104620000D03*
X184020000Y-104620000D03*
X188020000Y-104620000D03*
X200020000Y-104620000D03*
X204020000Y-104620000D03*
X207290000Y-105030000D03*
X212020000Y-104620000D03*
X216650000Y-105450000D03*
X220020000Y-104620000D03*
X131180000Y-108020000D03*
X139990000Y-107530000D03*
X143990000Y-107530000D03*
X147990000Y-107530000D03*
X151990000Y-107530000D03*
X155990000Y-107530000D03*
X159100000Y-107580000D03*
X184020000Y-108620000D03*
X200020000Y-108620000D03*
X212020000Y-108620000D03*
X216020000Y-108620000D03*
X220020000Y-108620000D03*
X128400000Y-111080000D03*
X131450000Y-113610000D03*
X136020000Y-112620000D03*
X139460000Y-112640000D03*
X183160000Y-113550000D03*
X188020000Y-112620000D03*
X196020000Y-112620000D03*
X200690000Y-113920000D03*
X212020000Y-112620000D03*
X216110000Y-111920000D03*
X220020000Y-112620000D03*
X128360000Y-116320000D03*
X132740000Y-116720000D03*
X136020000Y-116620000D03*
X139460000Y-116640000D03*
X211840000Y-120530000D03*
X207780000Y-116690000D03*
X207560000Y-112560000D03*
X204090000Y-112530000D03*
X178420000Y-74860000D03*
X174420000Y-74860000D03*
X170800000Y-99000000D03*
X173840000Y-98620000D03*
X200020000Y-116620000D03*
X204020000Y-116620000D03*
X212020000Y-116620000D03*
X216850000Y-117300000D03*
X220020000Y-116620000D03*
X128020000Y-120620000D03*
X132020000Y-120620000D03*
X139460000Y-120640000D03*
X136030000Y-120630000D03*
X180020000Y-120620000D03*
X182940000Y-120580000D03*
X192420000Y-116310000D03*
X200020000Y-120620000D03*
X208020000Y-120620000D03*
X220020000Y-120620000D03*
X128020000Y-124620000D03*
X132020000Y-124620000D03*
X136020000Y-124620000D03*
X139460000Y-124640000D03*
X188020000Y-124620000D03*
X192020000Y-124620000D03*
X196020000Y-124620000D03*
X208020000Y-124620000D03*
X212020000Y-124620000D03*
X220020000Y-124620000D03*
X212030000Y-76610000D03*
X216040000Y-75320000D03*
X207080000Y-78600000D03*
X212030000Y-80610000D03*
X216090000Y-81430000D03*
X207150000Y-82900000D03*
X212030000Y-84610000D03*
X216030000Y-84610000D03*
X207220000Y-87240000D03*
X212030000Y-88610000D03*
X215870000Y-87510000D03*
X207220000Y-91710000D03*
X212030000Y-92610000D03*
X215830000Y-93350000D03*
X227990000Y-68610000D03*
X230200000Y-68570000D03*
X229350000Y-72500000D03*
X223990000Y-76610000D03*
X227990000Y-76610000D03*
X230340000Y-76610000D03*
X223990000Y-80610000D03*
X227990000Y-80610000D03*
X230240000Y-80570000D03*
X222970000Y-84590000D03*
X229470000Y-84550000D03*
X223990000Y-88610000D03*
X227990000Y-88610000D03*
X230320000Y-88610000D03*
X223990000Y-92610000D03*
X227990000Y-92610000D03*
X230320000Y-92610000D03*
X222940000Y-96710000D03*
X229510000Y-96710000D03*
X223990000Y-100610000D03*
X227990000Y-100610000D03*
X230380000Y-100640000D03*
X223990000Y-104610000D03*
X227990000Y-104610000D03*
X230380000Y-104640000D03*
X223070000Y-108730000D03*
X229510000Y-108730000D03*
X223990000Y-112610000D03*
X227990000Y-112610000D03*
X230420000Y-112620000D03*
X223990000Y-116610000D03*
X227990000Y-116610000D03*
X230420000Y-116620000D03*
X223030000Y-120600000D03*
X229510000Y-120600000D03*
X223990000Y-124610000D03*
X227990000Y-124610000D03*
X230270000Y-124540000D03*
X158860000Y-95180000D03*
X163460000Y-87120000D03*
X173530000Y-88250000D03*
X161400000Y-72010000D03*
X183870000Y-73740000D03*
X191340000Y-76800000D03*
X176160000Y-76800000D03*
X131220000Y-76540000D03*
X128040000Y-76080000D03*
X128040000Y-81900000D03*
X142290000Y-79890000D03*
X161310000Y-80700000D03*
X177000000Y-80620000D03*
X182590000Y-80470000D03*
X188210000Y-86530000D03*
X188150000Y-92610000D03*
X186170000Y-89310000D03*
X154690000Y-95140000D03*
X146220000Y-87110000D03*
X145490000Y-93050000D03*
X148990000Y-93210000D03*
X150240000Y-97900000D03*
X157500000Y-99040000D03*
X132440000Y-105320000D03*
X200110000Y-94400000D03*
X200050000Y-99190000D03*
X161250000Y-83580000D03*
X187960000Y-116400000D03*
X196100000Y-116680000D03*
G04 #@! TO.N,/+5V*
X131600428Y-99341482D03*
X135160000Y-94830000D03*
X149130428Y-104161482D03*
X130220000Y-78360000D03*
X127310000Y-78590000D03*
X134770428Y-79041482D03*
X141670428Y-81671482D03*
X150570428Y-88951482D03*
X152290428Y-89021482D03*
X161900000Y-105060000D03*
G04 #@! TO.N,/VIN*
X152280428Y-68081482D03*
X186910428Y-111061482D03*
X193120428Y-110571482D03*
X156330428Y-75171482D03*
G04 #@! TO.N,Net-(J2-Pad2)*
X139700000Y-77520000D03*
X137930000Y-81380000D03*
G04 #@! TO.N,/Arduino Nano/TX*
X132180428Y-91091482D03*
X137950428Y-98051482D03*
G04 #@! TO.N,/Arduino Nano/RX*
X129550428Y-91061482D03*
X137110428Y-96981482D03*
G04 #@! TO.N,/HC05_RX*
X147380000Y-95610000D03*
G04 #@! TO.N,/~RESET_5V*
X142031316Y-95302370D03*
G04 #@! TO.N,/+3V3*
X174580000Y-94690000D03*
X172940428Y-82091482D03*
X182680000Y-93590000D03*
X170890000Y-85730000D03*
X167480000Y-97170000D03*
G04 #@! TO.N,/~CS_3V3*
X182740000Y-87830000D03*
X174520000Y-91240000D03*
X170790000Y-94240000D03*
G04 #@! TO.N,/MOSI_3V3*
X181360000Y-86180000D03*
X173770000Y-90370000D03*
G04 #@! TO.N,/MISO_3V3*
X169270000Y-91690000D03*
X183420000Y-90700000D03*
G04 #@! TO.N,/SCLK_3V3*
X169400000Y-90360000D03*
X183320000Y-88670000D03*
G04 #@! TO.N,/START_3V3*
X168640000Y-89430000D03*
X174720000Y-89640000D03*
X182080000Y-87060000D03*
G04 #@! TO.N,/~DRDY_3V3*
X181350000Y-91950000D03*
X168810000Y-87990000D03*
G04 #@! TO.N,/MISO_5V*
X154240000Y-92330000D03*
G04 #@! TO.N,/~CS_5V*
X145920000Y-97130000D03*
X164900000Y-94060000D03*
G04 #@! TO.N,/Arduino Nano/SS_TX*
X145960000Y-94810000D03*
X131370000Y-102750000D03*
G04 #@! TD*
D23*
G04 #@! TO.N,/GND*
G36*
X229773714Y-67759651D02*
X230166015Y-67920187D01*
X230503398Y-68176787D01*
X230762874Y-68511967D01*
X230926758Y-68902883D01*
X230990033Y-69368132D01*
X231009979Y-123443986D01*
X230950180Y-123913715D01*
X230789645Y-124306013D01*
X230533044Y-124643399D01*
X230197864Y-124902874D01*
X229806948Y-125066758D01*
X229342189Y-125129966D01*
X216700292Y-125123695D01*
X217346026Y-124856223D01*
X217974741Y-124227508D01*
X218315000Y-123406051D01*
X218315000Y-122516913D01*
X217974741Y-121695456D01*
X217346026Y-121066741D01*
X216524569Y-120726482D01*
X215635431Y-120726482D01*
X214813974Y-121066741D01*
X214185259Y-121695456D01*
X213845000Y-122516913D01*
X213845000Y-123406051D01*
X214185259Y-124227508D01*
X214813974Y-124856223D01*
X215458221Y-125123079D01*
X201390724Y-125116100D01*
X201735005Y-124886059D01*
X202052168Y-124411391D01*
X202163541Y-123851482D01*
X202154740Y-123807232D01*
X203375428Y-123807232D01*
X203375428Y-124497792D01*
X203472101Y-124731181D01*
X203650730Y-124909809D01*
X203884119Y-125006482D01*
X204574678Y-125006482D01*
X204733428Y-124847732D01*
X204733428Y-123648482D01*
X204987428Y-123648482D01*
X204987428Y-124847732D01*
X205146178Y-125006482D01*
X205836737Y-125006482D01*
X206070126Y-124909809D01*
X206248755Y-124731181D01*
X206345428Y-124497792D01*
X206345428Y-123807232D01*
X206186678Y-123648482D01*
X204987428Y-123648482D01*
X204733428Y-123648482D01*
X203534178Y-123648482D01*
X203375428Y-123807232D01*
X202154740Y-123807232D01*
X202052168Y-123291573D01*
X201735005Y-122816905D01*
X201260337Y-122499742D01*
X200841761Y-122416482D01*
X200559095Y-122416482D01*
X200140519Y-122499742D01*
X199665851Y-122816905D01*
X199348688Y-123291573D01*
X199237315Y-123851482D01*
X199348688Y-124411391D01*
X199665851Y-124886059D01*
X200009107Y-125115415D01*
X185207510Y-125108072D01*
X185526153Y-124976086D01*
X185986086Y-124516153D01*
X186235000Y-123915222D01*
X186235000Y-123264778D01*
X185986086Y-122663847D01*
X185526153Y-122203914D01*
X184925222Y-121955000D01*
X184274778Y-121955000D01*
X183673847Y-122203914D01*
X183213914Y-122663847D01*
X182965000Y-123264778D01*
X182965000Y-123915222D01*
X183213914Y-124516153D01*
X183673847Y-124976086D01*
X183991033Y-125107469D01*
X180741365Y-125105857D01*
X180974264Y-125009387D01*
X181072927Y-124742532D01*
X180100000Y-123769605D01*
X179127073Y-124742532D01*
X179225736Y-125009387D01*
X179483724Y-125105233D01*
X178545016Y-125104767D01*
X178546261Y-124139909D01*
X178680613Y-124464264D01*
X178947468Y-124562927D01*
X179920395Y-123590000D01*
X180279605Y-123590000D01*
X181252532Y-124562927D01*
X181519387Y-124464264D01*
X181745908Y-123854539D01*
X181721856Y-123204540D01*
X181519387Y-122715736D01*
X181252532Y-122617073D01*
X180279605Y-123590000D01*
X179920395Y-123590000D01*
X178947468Y-122617073D01*
X178680613Y-122715736D01*
X178547636Y-123073669D01*
X178548456Y-122437468D01*
X179127073Y-122437468D01*
X180100000Y-123410395D01*
X181072927Y-122437468D01*
X180974264Y-122170613D01*
X180364539Y-121944092D01*
X179714540Y-121968144D01*
X179225736Y-122170613D01*
X179127073Y-122437468D01*
X178548456Y-122437468D01*
X178552606Y-119218970D01*
X186325000Y-119218970D01*
X186325000Y-121041031D01*
X186419865Y-121517945D01*
X186781232Y-122058769D01*
X187322056Y-122420136D01*
X187960000Y-122547031D01*
X188597945Y-122420136D01*
X189138769Y-122058769D01*
X189500136Y-121517945D01*
X189595000Y-121041031D01*
X189595000Y-119218969D01*
X189577303Y-119130000D01*
X190142969Y-119130000D01*
X190269864Y-119767945D01*
X190631231Y-120308769D01*
X191172055Y-120670136D01*
X191648969Y-120765000D01*
X192005566Y-120765000D01*
X191647138Y-120913466D01*
X191243466Y-121317138D01*
X191025000Y-121844561D01*
X191025000Y-122415439D01*
X191243466Y-122942862D01*
X191647138Y-123346534D01*
X192174561Y-123565000D01*
X192745439Y-123565000D01*
X193272862Y-123346534D01*
X193676534Y-122942862D01*
X193895000Y-122415439D01*
X193895000Y-121844561D01*
X193676534Y-121317138D01*
X193272862Y-120913466D01*
X192914434Y-120765000D01*
X193271031Y-120765000D01*
X193747945Y-120670136D01*
X194288769Y-120308769D01*
X194650136Y-119767945D01*
X194759333Y-119218970D01*
X195325000Y-119218970D01*
X195325000Y-121041031D01*
X195419865Y-121517945D01*
X195781232Y-122058769D01*
X196322056Y-122420136D01*
X196960000Y-122547031D01*
X197597945Y-122420136D01*
X198138769Y-122058769D01*
X198500136Y-121517945D01*
X198595000Y-121041031D01*
X198595000Y-120981482D01*
X203346336Y-120981482D01*
X203461589Y-121560900D01*
X203789803Y-122052107D01*
X203811461Y-122066578D01*
X203650730Y-122133155D01*
X203472101Y-122311783D01*
X203375428Y-122545172D01*
X203375428Y-123235732D01*
X203534178Y-123394482D01*
X204733428Y-123394482D01*
X204733428Y-123374482D01*
X204987428Y-123374482D01*
X204987428Y-123394482D01*
X206186678Y-123394482D01*
X206345428Y-123235732D01*
X206345428Y-122545172D01*
X206248755Y-122311783D01*
X206070126Y-122133155D01*
X205909395Y-122066578D01*
X205931053Y-122052107D01*
X206259267Y-121560900D01*
X206374520Y-120981482D01*
X206259267Y-120402064D01*
X206014582Y-120035866D01*
X223425000Y-120035866D01*
X223425000Y-121084134D01*
X223826155Y-122052608D01*
X224567392Y-122793845D01*
X225535866Y-123195000D01*
X226584134Y-123195000D01*
X227552608Y-122793845D01*
X228293845Y-122052608D01*
X228695000Y-121084134D01*
X228695000Y-120035866D01*
X228293845Y-119067392D01*
X227552608Y-118326155D01*
X226584134Y-117925000D01*
X225535866Y-117925000D01*
X224567392Y-118326155D01*
X223826155Y-119067392D01*
X223425000Y-120035866D01*
X206014582Y-120035866D01*
X205931053Y-119910857D01*
X205439846Y-119582643D01*
X205006684Y-119496482D01*
X204714172Y-119496482D01*
X204281010Y-119582643D01*
X203789803Y-119910857D01*
X203461589Y-120402064D01*
X203346336Y-120981482D01*
X198595000Y-120981482D01*
X198595000Y-119218969D01*
X198500136Y-118742055D01*
X198138769Y-118201231D01*
X197597944Y-117839864D01*
X196960000Y-117712969D01*
X196322055Y-117839864D01*
X195781231Y-118201231D01*
X195419864Y-118742056D01*
X195325000Y-119218970D01*
X194759333Y-119218970D01*
X194777031Y-119130000D01*
X194650136Y-118492055D01*
X194288769Y-117951231D01*
X193747945Y-117589864D01*
X193271031Y-117495000D01*
X191648969Y-117495000D01*
X191172055Y-117589864D01*
X190631231Y-117951231D01*
X190269864Y-118492055D01*
X190142969Y-119130000D01*
X189577303Y-119130000D01*
X189500136Y-118742055D01*
X189138769Y-118201231D01*
X188597944Y-117839864D01*
X187960000Y-117712969D01*
X187322055Y-117839864D01*
X186781231Y-118201231D01*
X186419864Y-118742056D01*
X186325000Y-119218970D01*
X178552606Y-119218970D01*
X178553866Y-118242532D01*
X179127073Y-118242532D01*
X179225736Y-118509387D01*
X179835461Y-118735908D01*
X180485460Y-118711856D01*
X180974264Y-118509387D01*
X181072927Y-118242532D01*
X180100000Y-117269605D01*
X179127073Y-118242532D01*
X178553866Y-118242532D01*
X178554618Y-117660086D01*
X178680613Y-117964264D01*
X178947468Y-118062927D01*
X179920395Y-117090000D01*
X180279605Y-117090000D01*
X181252532Y-118062927D01*
X181519387Y-117964264D01*
X181745908Y-117354539D01*
X181724085Y-116764778D01*
X182965000Y-116764778D01*
X182965000Y-117415222D01*
X183213914Y-118016153D01*
X183673847Y-118476086D01*
X184274778Y-118725000D01*
X184925222Y-118725000D01*
X185526153Y-118476086D01*
X185986086Y-118016153D01*
X186235000Y-117415222D01*
X186235000Y-116764778D01*
X185986086Y-116163847D01*
X185526153Y-115703914D01*
X184925222Y-115455000D01*
X184274778Y-115455000D01*
X183673847Y-115703914D01*
X183213914Y-116163847D01*
X182965000Y-116764778D01*
X181724085Y-116764778D01*
X181721856Y-116704540D01*
X181519387Y-116215736D01*
X181252532Y-116117073D01*
X180279605Y-117090000D01*
X179920395Y-117090000D01*
X178947468Y-116117073D01*
X178680613Y-116215736D01*
X178556049Y-116551025D01*
X178556840Y-115937468D01*
X179127073Y-115937468D01*
X180100000Y-116910395D01*
X181072927Y-115937468D01*
X180974264Y-115670613D01*
X180364539Y-115444092D01*
X179714540Y-115468144D01*
X179225736Y-115670613D01*
X179127073Y-115937468D01*
X178556840Y-115937468D01*
X178560092Y-113415750D01*
X189825000Y-113415750D01*
X189825000Y-114256310D01*
X189921673Y-114489699D01*
X190100302Y-114668327D01*
X190333691Y-114765000D01*
X192174250Y-114765000D01*
X192333000Y-114606250D01*
X192333000Y-113257000D01*
X192587000Y-113257000D01*
X192587000Y-114606250D01*
X192745750Y-114765000D01*
X194586309Y-114765000D01*
X194819698Y-114668327D01*
X194998327Y-114489699D01*
X195095000Y-114256310D01*
X195095000Y-113945866D01*
X214595000Y-113945866D01*
X214595000Y-114994134D01*
X214996155Y-115962608D01*
X215737392Y-116703845D01*
X216705866Y-117105000D01*
X217754134Y-117105000D01*
X218722608Y-116703845D01*
X219463845Y-115962608D01*
X219865000Y-114994134D01*
X219865000Y-113945866D01*
X219463845Y-112977392D01*
X218722608Y-112236155D01*
X217754134Y-111835000D01*
X216705866Y-111835000D01*
X215737392Y-112236155D01*
X214996155Y-112977392D01*
X214595000Y-113945866D01*
X195095000Y-113945866D01*
X195095000Y-113415750D01*
X194936250Y-113257000D01*
X192587000Y-113257000D01*
X192333000Y-113257000D01*
X189983750Y-113257000D01*
X189825000Y-113415750D01*
X178560092Y-113415750D01*
X178563394Y-110855608D01*
X185875428Y-110855608D01*
X185875428Y-111267356D01*
X186032997Y-111647762D01*
X186324148Y-111938913D01*
X186704554Y-112096482D01*
X187116302Y-112096482D01*
X187340322Y-112003690D01*
X189825000Y-112003690D01*
X189825000Y-112844250D01*
X189983750Y-113003000D01*
X192333000Y-113003000D01*
X192333000Y-111653750D01*
X192174250Y-111495000D01*
X190333691Y-111495000D01*
X190100302Y-111591673D01*
X189921673Y-111770301D01*
X189825000Y-112003690D01*
X187340322Y-112003690D01*
X187496708Y-111938913D01*
X187787859Y-111647762D01*
X187945428Y-111267356D01*
X187945428Y-110855608D01*
X187787859Y-110475202D01*
X187678265Y-110365608D01*
X192085428Y-110365608D01*
X192085428Y-110777356D01*
X192242997Y-111157762D01*
X192534148Y-111448913D01*
X192716362Y-111524388D01*
X192587000Y-111653750D01*
X192587000Y-113003000D01*
X194936250Y-113003000D01*
X195095000Y-112844250D01*
X195095000Y-112003690D01*
X194998327Y-111770301D01*
X194819698Y-111591673D01*
X194586309Y-111495000D01*
X193595444Y-111495000D01*
X193706708Y-111448913D01*
X193997859Y-111157762D01*
X194118692Y-110866043D01*
X199265428Y-110866043D01*
X199265428Y-111436921D01*
X199483894Y-111964344D01*
X199887566Y-112368016D01*
X200414989Y-112586482D01*
X200985867Y-112586482D01*
X201513290Y-112368016D01*
X201916962Y-111964344D01*
X202135428Y-111436921D01*
X202135428Y-110866043D01*
X201916962Y-110338620D01*
X201513290Y-109934948D01*
X200985867Y-109716482D01*
X200414989Y-109716482D01*
X199887566Y-109934948D01*
X199483894Y-110338620D01*
X199265428Y-110866043D01*
X194118692Y-110866043D01*
X194155428Y-110777356D01*
X194155428Y-110365608D01*
X193997859Y-109985202D01*
X193706708Y-109694051D01*
X193326302Y-109536482D01*
X192914554Y-109536482D01*
X192534148Y-109694051D01*
X192242997Y-109985202D01*
X192085428Y-110365608D01*
X187678265Y-110365608D01*
X187496708Y-110184051D01*
X187116302Y-110026482D01*
X186704554Y-110026482D01*
X186324148Y-110184051D01*
X186032997Y-110475202D01*
X185875428Y-110855608D01*
X178563394Y-110855608D01*
X178567000Y-108060164D01*
X178556972Y-108010538D01*
X178529140Y-107969540D01*
X178487737Y-107942313D01*
X178439067Y-107933003D01*
X140329067Y-108213003D01*
X140281097Y-108222793D01*
X140239966Y-108250429D01*
X140212542Y-108291702D01*
X140203000Y-108340327D01*
X140246158Y-125085768D01*
X128685220Y-125080033D01*
X128226713Y-125021662D01*
X127834415Y-124861127D01*
X127497029Y-124604526D01*
X127237554Y-124269346D01*
X127073670Y-123878430D01*
X127010455Y-123413620D01*
X127013755Y-117461482D01*
X128316336Y-117461482D01*
X128431589Y-118040900D01*
X128759803Y-118532107D01*
X129058189Y-118731482D01*
X128759803Y-118930857D01*
X128431589Y-119422064D01*
X128316336Y-120001482D01*
X128431589Y-120580900D01*
X128759803Y-121072107D01*
X128778047Y-121084298D01*
X128732663Y-121093325D01*
X128522619Y-121233673D01*
X128382271Y-121443717D01*
X128332988Y-121691482D01*
X128332988Y-123391482D01*
X128382271Y-123639247D01*
X128522619Y-123849291D01*
X128732663Y-123989639D01*
X128980428Y-124038922D01*
X130680428Y-124038922D01*
X130928193Y-123989639D01*
X131138237Y-123849291D01*
X131278585Y-123639247D01*
X131327868Y-123391482D01*
X131327868Y-121691482D01*
X131278585Y-121443717D01*
X131138237Y-121233673D01*
X130928193Y-121093325D01*
X130882809Y-121084298D01*
X130901053Y-121072107D01*
X131229267Y-120580900D01*
X131344520Y-120001482D01*
X131229267Y-119422064D01*
X130901053Y-118930857D01*
X130602667Y-118731482D01*
X130901053Y-118532107D01*
X131229267Y-118040900D01*
X131344520Y-117461482D01*
X131229267Y-116882064D01*
X130901053Y-116390857D01*
X130581950Y-116177639D01*
X130711786Y-116116665D01*
X131102073Y-115688406D01*
X131271904Y-115278372D01*
X131150583Y-115048482D01*
X129957428Y-115048482D01*
X129957428Y-115068482D01*
X129703428Y-115068482D01*
X129703428Y-115048482D01*
X128510273Y-115048482D01*
X128388952Y-115278372D01*
X128558783Y-115688406D01*
X128949070Y-116116665D01*
X129078906Y-116177639D01*
X128759803Y-116390857D01*
X128431589Y-116882064D01*
X128316336Y-117461482D01*
X127013755Y-117461482D01*
X127017980Y-109841482D01*
X128316336Y-109841482D01*
X128431589Y-110420900D01*
X128759803Y-110912107D01*
X129058189Y-111111482D01*
X128759803Y-111310857D01*
X128431589Y-111802064D01*
X128316336Y-112381482D01*
X128431589Y-112960900D01*
X128759803Y-113452107D01*
X129078906Y-113665325D01*
X128949070Y-113726299D01*
X128558783Y-114154558D01*
X128388952Y-114564592D01*
X128510273Y-114794482D01*
X129703428Y-114794482D01*
X129703428Y-114774482D01*
X129957428Y-114774482D01*
X129957428Y-114794482D01*
X131150583Y-114794482D01*
X131271904Y-114564592D01*
X131102073Y-114154558D01*
X130711786Y-113726299D01*
X130581950Y-113665325D01*
X130901053Y-113452107D01*
X131229267Y-112960900D01*
X131344520Y-112381482D01*
X131229267Y-111802064D01*
X130901053Y-111310857D01*
X130602667Y-111111482D01*
X130901053Y-110912107D01*
X131229267Y-110420900D01*
X131344520Y-109841482D01*
X131229267Y-109262064D01*
X130901053Y-108770857D01*
X130409846Y-108442643D01*
X129976684Y-108356482D01*
X129684172Y-108356482D01*
X129251010Y-108442643D01*
X128759803Y-108770857D01*
X128431589Y-109262064D01*
X128316336Y-109841482D01*
X127017980Y-109841482D01*
X127021243Y-103955608D01*
X148095428Y-103955608D01*
X148095428Y-104367356D01*
X148252997Y-104747762D01*
X148544148Y-105038913D01*
X148924554Y-105196482D01*
X149336302Y-105196482D01*
X149507064Y-105125750D01*
X155055000Y-105125750D01*
X155055000Y-105816310D01*
X155151673Y-106049699D01*
X155330302Y-106228327D01*
X155563691Y-106325000D01*
X156254250Y-106325000D01*
X156413000Y-106166250D01*
X156413000Y-104967000D01*
X156667000Y-104967000D01*
X156667000Y-106166250D01*
X156825750Y-106325000D01*
X157516309Y-106325000D01*
X157611066Y-106285750D01*
X162915000Y-106285750D01*
X162915000Y-106976309D01*
X163011673Y-107209698D01*
X163190301Y-107388327D01*
X163423690Y-107485000D01*
X164114250Y-107485000D01*
X164273000Y-107326250D01*
X164273000Y-106127000D01*
X163073750Y-106127000D01*
X162915000Y-106285750D01*
X157611066Y-106285750D01*
X157749698Y-106228327D01*
X157928327Y-106049699D01*
X158025000Y-105816310D01*
X158025000Y-105125750D01*
X157866250Y-104967000D01*
X156667000Y-104967000D01*
X156413000Y-104967000D01*
X155213750Y-104967000D01*
X155055000Y-105125750D01*
X149507064Y-105125750D01*
X149716708Y-105038913D01*
X149901495Y-104854126D01*
X160865000Y-104854126D01*
X160865000Y-105265874D01*
X161022569Y-105646280D01*
X161313720Y-105937431D01*
X161694126Y-106095000D01*
X162105874Y-106095000D01*
X162486280Y-105937431D01*
X162777431Y-105646280D01*
X162915000Y-105314158D01*
X162915000Y-105714250D01*
X163073750Y-105873000D01*
X164273000Y-105873000D01*
X164273000Y-104673750D01*
X164527000Y-104673750D01*
X164527000Y-105873000D01*
X164547000Y-105873000D01*
X164547000Y-106127000D01*
X164527000Y-106127000D01*
X164527000Y-107326250D01*
X164685750Y-107485000D01*
X165376310Y-107485000D01*
X165609699Y-107388327D01*
X165788327Y-107209698D01*
X165854904Y-107048967D01*
X165869375Y-107070625D01*
X166360582Y-107398839D01*
X166793744Y-107485000D01*
X167086256Y-107485000D01*
X167519418Y-107398839D01*
X168010625Y-107070625D01*
X168329011Y-106594126D01*
X178395000Y-106594126D01*
X178395000Y-107005874D01*
X178552569Y-107386280D01*
X178843720Y-107677431D01*
X179224126Y-107835000D01*
X179635874Y-107835000D01*
X180016280Y-107677431D01*
X180307431Y-107386280D01*
X180465000Y-107005874D01*
X180465000Y-106976124D01*
X201910428Y-106976124D01*
X201910428Y-107576840D01*
X202140312Y-108131828D01*
X202565082Y-108556598D01*
X203120070Y-108786482D01*
X203720786Y-108786482D01*
X204275774Y-108556598D01*
X204670428Y-108161944D01*
X205065082Y-108556598D01*
X205620070Y-108786482D01*
X206220786Y-108786482D01*
X206775774Y-108556598D01*
X207170428Y-108161944D01*
X207565082Y-108556598D01*
X208120070Y-108786482D01*
X208720786Y-108786482D01*
X209275774Y-108556598D01*
X209700544Y-108131828D01*
X209775501Y-107950866D01*
X223425000Y-107950866D01*
X223425000Y-108999134D01*
X223826155Y-109967608D01*
X224567392Y-110708845D01*
X225535866Y-111110000D01*
X226584134Y-111110000D01*
X227552608Y-110708845D01*
X228293845Y-109967608D01*
X228695000Y-108999134D01*
X228695000Y-107950866D01*
X228293845Y-106982392D01*
X227552608Y-106241155D01*
X226584134Y-105840000D01*
X225535866Y-105840000D01*
X224567392Y-106241155D01*
X223826155Y-106982392D01*
X223425000Y-107950866D01*
X209775501Y-107950866D01*
X209930428Y-107576840D01*
X209930428Y-106976124D01*
X209700544Y-106421136D01*
X209275774Y-105996366D01*
X208720786Y-105766482D01*
X208120070Y-105766482D01*
X207565082Y-105996366D01*
X207170428Y-106391020D01*
X206775774Y-105996366D01*
X206220786Y-105766482D01*
X205620070Y-105766482D01*
X205065082Y-105996366D01*
X204670428Y-106391020D01*
X204275774Y-105996366D01*
X203720786Y-105766482D01*
X203120070Y-105766482D01*
X202565082Y-105996366D01*
X202140312Y-106421136D01*
X201910428Y-106976124D01*
X180465000Y-106976124D01*
X180465000Y-106594126D01*
X180307431Y-106213720D01*
X180016280Y-105922569D01*
X179635874Y-105765000D01*
X179224126Y-105765000D01*
X178843720Y-105922569D01*
X178552569Y-106213720D01*
X178395000Y-106594126D01*
X168329011Y-106594126D01*
X168338839Y-106579418D01*
X168454092Y-106000000D01*
X168338839Y-105420582D01*
X168010625Y-104929375D01*
X167519418Y-104601161D01*
X167086256Y-104515000D01*
X166793744Y-104515000D01*
X166360582Y-104601161D01*
X165869375Y-104929375D01*
X165854904Y-104951033D01*
X165788327Y-104790302D01*
X165609699Y-104611673D01*
X165376310Y-104515000D01*
X164685750Y-104515000D01*
X164527000Y-104673750D01*
X164273000Y-104673750D01*
X164114250Y-104515000D01*
X163423690Y-104515000D01*
X163190301Y-104611673D01*
X163011673Y-104790302D01*
X162935000Y-104975407D01*
X162935000Y-104854126D01*
X162777431Y-104473720D01*
X162486280Y-104182569D01*
X162105874Y-104025000D01*
X161694126Y-104025000D01*
X161313720Y-104182569D01*
X161022569Y-104473720D01*
X160865000Y-104854126D01*
X149901495Y-104854126D01*
X150007859Y-104747762D01*
X150165428Y-104367356D01*
X150165428Y-103955608D01*
X150007859Y-103575202D01*
X149716708Y-103284051D01*
X149336302Y-103126482D01*
X148924554Y-103126482D01*
X148544148Y-103284051D01*
X148252997Y-103575202D01*
X148095428Y-103955608D01*
X127021243Y-103955608D01*
X127022026Y-102544126D01*
X130335000Y-102544126D01*
X130335000Y-102955874D01*
X130492569Y-103336280D01*
X130783720Y-103627431D01*
X131164126Y-103785000D01*
X131575874Y-103785000D01*
X131956280Y-103627431D01*
X132247431Y-103336280D01*
X132405000Y-102955874D01*
X132405000Y-102544126D01*
X132303880Y-102300000D01*
X155025908Y-102300000D01*
X155141161Y-102879418D01*
X155469375Y-103370625D01*
X155491033Y-103385096D01*
X155330302Y-103451673D01*
X155151673Y-103630301D01*
X155055000Y-103863690D01*
X155055000Y-104554250D01*
X155213750Y-104713000D01*
X156413000Y-104713000D01*
X156413000Y-104693000D01*
X156667000Y-104693000D01*
X156667000Y-104713000D01*
X157866250Y-104713000D01*
X158025000Y-104554250D01*
X158025000Y-103863690D01*
X157928327Y-103630301D01*
X157749698Y-103451673D01*
X157588967Y-103385096D01*
X157610625Y-103370625D01*
X157938839Y-102879418D01*
X158054092Y-102300000D01*
X157945512Y-101754126D01*
X193505000Y-101754126D01*
X193505000Y-102165874D01*
X193662569Y-102546280D01*
X193953720Y-102837431D01*
X194334126Y-102995000D01*
X194745874Y-102995000D01*
X195126280Y-102837431D01*
X195417431Y-102546280D01*
X195423708Y-102531124D01*
X201910428Y-102531124D01*
X201910428Y-103131840D01*
X202140312Y-103686828D01*
X202565082Y-104111598D01*
X203120070Y-104341482D01*
X203720786Y-104341482D01*
X204275774Y-104111598D01*
X204670428Y-103716944D01*
X205065082Y-104111598D01*
X205620070Y-104341482D01*
X206220786Y-104341482D01*
X206775774Y-104111598D01*
X207170428Y-103716944D01*
X207565082Y-104111598D01*
X208120070Y-104341482D01*
X208720786Y-104341482D01*
X209275774Y-104111598D01*
X209700544Y-103686828D01*
X209930428Y-103131840D01*
X209930428Y-102531124D01*
X209700544Y-101976136D01*
X209585274Y-101860866D01*
X214595000Y-101860866D01*
X214595000Y-102909134D01*
X214996155Y-103877608D01*
X215737392Y-104618845D01*
X216705866Y-105020000D01*
X217754134Y-105020000D01*
X218722608Y-104618845D01*
X219463845Y-103877608D01*
X219865000Y-102909134D01*
X219865000Y-101860866D01*
X219463845Y-100892392D01*
X218722608Y-100151155D01*
X217754134Y-99750000D01*
X216705866Y-99750000D01*
X215737392Y-100151155D01*
X214996155Y-100892392D01*
X214595000Y-101860866D01*
X209585274Y-101860866D01*
X209275774Y-101551366D01*
X208720786Y-101321482D01*
X208120070Y-101321482D01*
X207565082Y-101551366D01*
X207170428Y-101946020D01*
X206775774Y-101551366D01*
X206220786Y-101321482D01*
X205620070Y-101321482D01*
X205065082Y-101551366D01*
X204670428Y-101946020D01*
X204275774Y-101551366D01*
X203720786Y-101321482D01*
X203120070Y-101321482D01*
X202565082Y-101551366D01*
X202140312Y-101976136D01*
X201910428Y-102531124D01*
X195423708Y-102531124D01*
X195575000Y-102165874D01*
X195575000Y-101754126D01*
X195417431Y-101373720D01*
X195126280Y-101082569D01*
X194745874Y-100925000D01*
X194334126Y-100925000D01*
X193953720Y-101082569D01*
X193662569Y-101373720D01*
X193505000Y-101754126D01*
X157945512Y-101754126D01*
X157938839Y-101720582D01*
X157610625Y-101229375D01*
X157119418Y-100901161D01*
X156686256Y-100815000D01*
X156393744Y-100815000D01*
X155960582Y-100901161D01*
X155469375Y-101229375D01*
X155141161Y-101720582D01*
X155025908Y-102300000D01*
X132303880Y-102300000D01*
X132247431Y-102163720D01*
X131956280Y-101872569D01*
X131575874Y-101715000D01*
X131164126Y-101715000D01*
X130783720Y-101872569D01*
X130492569Y-102163720D01*
X130335000Y-102544126D01*
X127022026Y-102544126D01*
X127023916Y-99135608D01*
X130565428Y-99135608D01*
X130565428Y-99547356D01*
X130722997Y-99927762D01*
X131014148Y-100218913D01*
X131394554Y-100376482D01*
X131806302Y-100376482D01*
X132186708Y-100218913D01*
X132477859Y-99927762D01*
X132635428Y-99547356D01*
X132635428Y-99135608D01*
X132477859Y-98755202D01*
X132186708Y-98464051D01*
X131806302Y-98306482D01*
X131394554Y-98306482D01*
X131014148Y-98464051D01*
X130722997Y-98755202D01*
X130565428Y-99135608D01*
X127023916Y-99135608D01*
X127025224Y-96775608D01*
X136075428Y-96775608D01*
X136075428Y-97187356D01*
X136232997Y-97567762D01*
X136524148Y-97858913D01*
X136904554Y-98016482D01*
X136915428Y-98016482D01*
X136915428Y-98257356D01*
X137072997Y-98637762D01*
X137364148Y-98928913D01*
X137744554Y-99086482D01*
X138156302Y-99086482D01*
X138536708Y-98928913D01*
X138827859Y-98637762D01*
X138985428Y-98257356D01*
X138985428Y-97845608D01*
X138827859Y-97465202D01*
X138536708Y-97174051D01*
X138156302Y-97016482D01*
X138145428Y-97016482D01*
X138145428Y-96924126D01*
X144885000Y-96924126D01*
X144885000Y-97335874D01*
X145042569Y-97716280D01*
X145333720Y-98007431D01*
X145714126Y-98165000D01*
X146125874Y-98165000D01*
X146506280Y-98007431D01*
X146797431Y-97716280D01*
X146955000Y-97335874D01*
X146955000Y-96964126D01*
X166445000Y-96964126D01*
X166445000Y-97375874D01*
X166602569Y-97756280D01*
X166893720Y-98047431D01*
X167274126Y-98205000D01*
X167685874Y-98205000D01*
X168066280Y-98047431D01*
X168357431Y-97756280D01*
X168515000Y-97375874D01*
X168515000Y-97334126D01*
X180105000Y-97334126D01*
X180105000Y-97745874D01*
X180262569Y-98126280D01*
X180553720Y-98417431D01*
X180934126Y-98575000D01*
X181345874Y-98575000D01*
X181726280Y-98417431D01*
X182017431Y-98126280D01*
X182175000Y-97745874D01*
X182175000Y-97334126D01*
X182017431Y-96953720D01*
X181877837Y-96814126D01*
X188025000Y-96814126D01*
X188025000Y-97225874D01*
X188182569Y-97606280D01*
X188473720Y-97897431D01*
X188854126Y-98055000D01*
X189265874Y-98055000D01*
X189646280Y-97897431D01*
X189937431Y-97606280D01*
X190025307Y-97394126D01*
X193505000Y-97394126D01*
X193505000Y-97805874D01*
X193662569Y-98186280D01*
X193953720Y-98477431D01*
X194334126Y-98635000D01*
X194745874Y-98635000D01*
X195126280Y-98477431D01*
X195417431Y-98186280D01*
X195458916Y-98086124D01*
X201910428Y-98086124D01*
X201910428Y-98686840D01*
X202140312Y-99241828D01*
X202565082Y-99666598D01*
X203120070Y-99896482D01*
X203720786Y-99896482D01*
X204275774Y-99666598D01*
X204670428Y-99271944D01*
X205065082Y-99666598D01*
X205620070Y-99896482D01*
X206220786Y-99896482D01*
X206775774Y-99666598D01*
X207170428Y-99271944D01*
X207565082Y-99666598D01*
X208120070Y-99896482D01*
X208720786Y-99896482D01*
X209275774Y-99666598D01*
X209700544Y-99241828D01*
X209930428Y-98686840D01*
X209930428Y-98086124D01*
X209700544Y-97531136D01*
X209275774Y-97106366D01*
X208720786Y-96876482D01*
X208120070Y-96876482D01*
X207565082Y-97106366D01*
X207170428Y-97501020D01*
X206775774Y-97106366D01*
X206220786Y-96876482D01*
X205620070Y-96876482D01*
X205065082Y-97106366D01*
X204670428Y-97501020D01*
X204275774Y-97106366D01*
X203720786Y-96876482D01*
X203120070Y-96876482D01*
X202565082Y-97106366D01*
X202140312Y-97531136D01*
X201910428Y-98086124D01*
X195458916Y-98086124D01*
X195575000Y-97805874D01*
X195575000Y-97394126D01*
X195417431Y-97013720D01*
X195126280Y-96722569D01*
X194745874Y-96565000D01*
X194334126Y-96565000D01*
X193953720Y-96722569D01*
X193662569Y-97013720D01*
X193505000Y-97394126D01*
X190025307Y-97394126D01*
X190095000Y-97225874D01*
X190095000Y-96814126D01*
X189937431Y-96433720D01*
X189646280Y-96142569D01*
X189265874Y-95985000D01*
X188854126Y-95985000D01*
X188473720Y-96142569D01*
X188182569Y-96433720D01*
X188025000Y-96814126D01*
X181877837Y-96814126D01*
X181726280Y-96662569D01*
X181345874Y-96505000D01*
X180934126Y-96505000D01*
X180553720Y-96662569D01*
X180262569Y-96953720D01*
X180105000Y-97334126D01*
X168515000Y-97334126D01*
X168515000Y-96964126D01*
X168357431Y-96583720D01*
X168066280Y-96292569D01*
X167685874Y-96135000D01*
X167274126Y-96135000D01*
X166893720Y-96292569D01*
X166602569Y-96583720D01*
X166445000Y-96964126D01*
X146955000Y-96964126D01*
X146955000Y-96924126D01*
X146797431Y-96543720D01*
X146506280Y-96252569D01*
X146125874Y-96095000D01*
X145714126Y-96095000D01*
X145333720Y-96252569D01*
X145042569Y-96543720D01*
X144885000Y-96924126D01*
X138145428Y-96924126D01*
X138145428Y-96775608D01*
X137987859Y-96395202D01*
X137696708Y-96104051D01*
X137316302Y-95946482D01*
X136904554Y-95946482D01*
X136524148Y-96104051D01*
X136232997Y-96395202D01*
X136075428Y-96775608D01*
X127025224Y-96775608D01*
X127026418Y-94624126D01*
X134125000Y-94624126D01*
X134125000Y-95035874D01*
X134282569Y-95416280D01*
X134573720Y-95707431D01*
X134954126Y-95865000D01*
X135365874Y-95865000D01*
X135746280Y-95707431D01*
X136037431Y-95416280D01*
X136169889Y-95096496D01*
X140996316Y-95096496D01*
X140996316Y-95508244D01*
X141153885Y-95888650D01*
X141445036Y-96179801D01*
X141825442Y-96337370D01*
X142237190Y-96337370D01*
X142617596Y-96179801D01*
X142908747Y-95888650D01*
X143066316Y-95508244D01*
X143066316Y-95096496D01*
X142908747Y-94716090D01*
X142796783Y-94604126D01*
X144925000Y-94604126D01*
X144925000Y-95015874D01*
X145082569Y-95396280D01*
X145373720Y-95687431D01*
X145754126Y-95845000D01*
X146165874Y-95845000D01*
X146345000Y-95770804D01*
X146345000Y-95815874D01*
X146502569Y-96196280D01*
X146793720Y-96487431D01*
X147174126Y-96645000D01*
X147585874Y-96645000D01*
X147966280Y-96487431D01*
X148257431Y-96196280D01*
X148394292Y-95865866D01*
X223425000Y-95865866D01*
X223425000Y-96914134D01*
X223826155Y-97882608D01*
X224567392Y-98623845D01*
X225535866Y-99025000D01*
X226584134Y-99025000D01*
X227552608Y-98623845D01*
X228293845Y-97882608D01*
X228695000Y-96914134D01*
X228695000Y-95865866D01*
X228293845Y-94897392D01*
X227552608Y-94156155D01*
X226584134Y-93755000D01*
X225535866Y-93755000D01*
X224567392Y-94156155D01*
X223826155Y-94897392D01*
X223425000Y-95865866D01*
X148394292Y-95865866D01*
X148415000Y-95815874D01*
X148415000Y-95404126D01*
X148257431Y-95023720D01*
X147966280Y-94732569D01*
X147585874Y-94575000D01*
X147174126Y-94575000D01*
X146995000Y-94649196D01*
X146995000Y-94604126D01*
X146837431Y-94223720D01*
X146546280Y-93932569D01*
X146356902Y-93854126D01*
X163865000Y-93854126D01*
X163865000Y-94265874D01*
X164022569Y-94646280D01*
X164313720Y-94937431D01*
X164694126Y-95095000D01*
X165105874Y-95095000D01*
X165486280Y-94937431D01*
X165777431Y-94646280D01*
X165935000Y-94265874D01*
X165935000Y-94034126D01*
X169755000Y-94034126D01*
X169755000Y-94445874D01*
X169912569Y-94826280D01*
X170203720Y-95117431D01*
X170584126Y-95275000D01*
X170995874Y-95275000D01*
X171376280Y-95117431D01*
X171667431Y-94826280D01*
X171809155Y-94484126D01*
X173545000Y-94484126D01*
X173545000Y-94895874D01*
X173702569Y-95276280D01*
X173993720Y-95567431D01*
X174374126Y-95725000D01*
X174785874Y-95725000D01*
X175166280Y-95567431D01*
X175457431Y-95276280D01*
X175615000Y-94895874D01*
X175615000Y-94484126D01*
X175457431Y-94103720D01*
X175166280Y-93812569D01*
X174785874Y-93655000D01*
X174374126Y-93655000D01*
X173993720Y-93812569D01*
X173702569Y-94103720D01*
X173545000Y-94484126D01*
X171809155Y-94484126D01*
X171825000Y-94445874D01*
X171825000Y-94034126D01*
X171667431Y-93653720D01*
X171397837Y-93384126D01*
X181645000Y-93384126D01*
X181645000Y-93795874D01*
X181802569Y-94176280D01*
X182093720Y-94467431D01*
X182474126Y-94625000D01*
X182885874Y-94625000D01*
X183266280Y-94467431D01*
X183557431Y-94176280D01*
X183715000Y-93795874D01*
X183715000Y-93384126D01*
X183578310Y-93054126D01*
X193515000Y-93054126D01*
X193515000Y-93465874D01*
X193672569Y-93846280D01*
X193963720Y-94137431D01*
X194344126Y-94295000D01*
X194755874Y-94295000D01*
X195136280Y-94137431D01*
X195427431Y-93846280D01*
X195512409Y-93641124D01*
X201910428Y-93641124D01*
X201910428Y-94241840D01*
X202140312Y-94796828D01*
X202565082Y-95221598D01*
X203120070Y-95451482D01*
X203720786Y-95451482D01*
X204275774Y-95221598D01*
X204670428Y-94826944D01*
X205065082Y-95221598D01*
X205620070Y-95451482D01*
X206220786Y-95451482D01*
X206775774Y-95221598D01*
X207170428Y-94826944D01*
X207565082Y-95221598D01*
X208120070Y-95451482D01*
X208720786Y-95451482D01*
X209275774Y-95221598D01*
X209700544Y-94796828D01*
X209930428Y-94241840D01*
X209930428Y-93641124D01*
X209700544Y-93086136D01*
X209275774Y-92661366D01*
X208720786Y-92431482D01*
X208120070Y-92431482D01*
X207565082Y-92661366D01*
X207170428Y-93056020D01*
X206775774Y-92661366D01*
X206220786Y-92431482D01*
X205620070Y-92431482D01*
X205065082Y-92661366D01*
X204670428Y-93056020D01*
X204275774Y-92661366D01*
X203720786Y-92431482D01*
X203120070Y-92431482D01*
X202565082Y-92661366D01*
X202140312Y-93086136D01*
X201910428Y-93641124D01*
X195512409Y-93641124D01*
X195585000Y-93465874D01*
X195585000Y-93054126D01*
X195427431Y-92673720D01*
X195136280Y-92382569D01*
X194755874Y-92225000D01*
X194344126Y-92225000D01*
X193963720Y-92382569D01*
X193672569Y-92673720D01*
X193515000Y-93054126D01*
X183578310Y-93054126D01*
X183557431Y-93003720D01*
X183266280Y-92712569D01*
X182885874Y-92555000D01*
X182474126Y-92555000D01*
X182093720Y-92712569D01*
X181802569Y-93003720D01*
X181645000Y-93384126D01*
X171397837Y-93384126D01*
X171376280Y-93362569D01*
X170995874Y-93205000D01*
X170584126Y-93205000D01*
X170203720Y-93362569D01*
X169912569Y-93653720D01*
X169755000Y-94034126D01*
X165935000Y-94034126D01*
X165935000Y-93854126D01*
X165777431Y-93473720D01*
X165486280Y-93182569D01*
X165105874Y-93025000D01*
X164694126Y-93025000D01*
X164313720Y-93182569D01*
X164022569Y-93473720D01*
X163865000Y-93854126D01*
X146356902Y-93854126D01*
X146165874Y-93775000D01*
X145754126Y-93775000D01*
X145373720Y-93932569D01*
X145082569Y-94223720D01*
X144925000Y-94604126D01*
X142796783Y-94604126D01*
X142617596Y-94424939D01*
X142237190Y-94267370D01*
X141825442Y-94267370D01*
X141445036Y-94424939D01*
X141153885Y-94716090D01*
X140996316Y-95096496D01*
X136169889Y-95096496D01*
X136195000Y-95035874D01*
X136195000Y-94624126D01*
X136037431Y-94243720D01*
X135746280Y-93952569D01*
X135365874Y-93795000D01*
X134954126Y-93795000D01*
X134573720Y-93952569D01*
X134282569Y-94243720D01*
X134125000Y-94624126D01*
X127026418Y-94624126D01*
X127028508Y-90855608D01*
X128515428Y-90855608D01*
X128515428Y-91267356D01*
X128672997Y-91647762D01*
X128964148Y-91938913D01*
X129344554Y-92096482D01*
X129756302Y-92096482D01*
X130136708Y-91938913D01*
X130427859Y-91647762D01*
X130585428Y-91267356D01*
X130585428Y-90885608D01*
X131145428Y-90885608D01*
X131145428Y-91297356D01*
X131302997Y-91677762D01*
X131594148Y-91968913D01*
X131974554Y-92126482D01*
X132386302Y-92126482D01*
X132391989Y-92124126D01*
X153205000Y-92124126D01*
X153205000Y-92535874D01*
X153362569Y-92916280D01*
X153653720Y-93207431D01*
X154034126Y-93365000D01*
X154445874Y-93365000D01*
X154826280Y-93207431D01*
X155117431Y-92916280D01*
X155275000Y-92535874D01*
X155275000Y-92124126D01*
X155117431Y-91743720D01*
X154826280Y-91452569D01*
X154445874Y-91295000D01*
X154034126Y-91295000D01*
X153653720Y-91452569D01*
X153362569Y-91743720D01*
X153205000Y-92124126D01*
X132391989Y-92124126D01*
X132766708Y-91968913D01*
X133057859Y-91677762D01*
X133215428Y-91297356D01*
X133215428Y-90885608D01*
X133057859Y-90505202D01*
X132766708Y-90214051D01*
X132386302Y-90056482D01*
X131974554Y-90056482D01*
X131594148Y-90214051D01*
X131302997Y-90505202D01*
X131145428Y-90885608D01*
X130585428Y-90885608D01*
X130585428Y-90855608D01*
X130427859Y-90475202D01*
X130136708Y-90184051D01*
X129756302Y-90026482D01*
X129344554Y-90026482D01*
X128964148Y-90184051D01*
X128672997Y-90475202D01*
X128515428Y-90855608D01*
X127028508Y-90855608D01*
X127029677Y-88745608D01*
X149535428Y-88745608D01*
X149535428Y-89157356D01*
X149692997Y-89537762D01*
X149984148Y-89828913D01*
X150364554Y-89986482D01*
X150776302Y-89986482D01*
X151156708Y-89828913D01*
X151402705Y-89582916D01*
X151412997Y-89607762D01*
X151704148Y-89898913D01*
X152084554Y-90056482D01*
X152496302Y-90056482D01*
X152876708Y-89898913D01*
X153167859Y-89607762D01*
X153311906Y-89260000D01*
X157475908Y-89260000D01*
X157591161Y-89839418D01*
X157919375Y-90330625D01*
X158217761Y-90530000D01*
X157919375Y-90729375D01*
X157591161Y-91220582D01*
X157475908Y-91800000D01*
X157591161Y-92379418D01*
X157919375Y-92870625D01*
X158410582Y-93198839D01*
X158843744Y-93285000D01*
X159136256Y-93285000D01*
X159569418Y-93198839D01*
X160060625Y-92870625D01*
X160072816Y-92852381D01*
X160081843Y-92897765D01*
X160222191Y-93107809D01*
X160432235Y-93248157D01*
X160680000Y-93297440D01*
X162380000Y-93297440D01*
X162627765Y-93248157D01*
X162837809Y-93107809D01*
X162978157Y-92897765D01*
X163027440Y-92650000D01*
X163027440Y-90950000D01*
X162978157Y-90702235D01*
X162837809Y-90492191D01*
X162627765Y-90351843D01*
X162582381Y-90342816D01*
X162600625Y-90330625D01*
X162928839Y-89839418D01*
X163044092Y-89260000D01*
X163036957Y-89224126D01*
X167605000Y-89224126D01*
X167605000Y-89635874D01*
X167762569Y-90016280D01*
X168053720Y-90307431D01*
X168365000Y-90436367D01*
X168365000Y-90565874D01*
X168522569Y-90946280D01*
X168536289Y-90960000D01*
X168392569Y-91103720D01*
X168235000Y-91484126D01*
X168235000Y-91895874D01*
X168392569Y-92276280D01*
X168683720Y-92567431D01*
X169064126Y-92725000D01*
X169475874Y-92725000D01*
X169856280Y-92567431D01*
X170147431Y-92276280D01*
X170305000Y-91895874D01*
X170305000Y-91484126D01*
X170147431Y-91103720D01*
X170133711Y-91090000D01*
X170277431Y-90946280D01*
X170435000Y-90565874D01*
X170435000Y-90164126D01*
X172735000Y-90164126D01*
X172735000Y-90575874D01*
X172892569Y-90956280D01*
X173183720Y-91247431D01*
X173485000Y-91372225D01*
X173485000Y-91445874D01*
X173642569Y-91826280D01*
X173933720Y-92117431D01*
X174314126Y-92275000D01*
X174725874Y-92275000D01*
X175106280Y-92117431D01*
X175397431Y-91826280D01*
X175431460Y-91744126D01*
X180315000Y-91744126D01*
X180315000Y-92155874D01*
X180472569Y-92536280D01*
X180763720Y-92827431D01*
X181144126Y-92985000D01*
X181555874Y-92985000D01*
X181936280Y-92827431D01*
X182227431Y-92536280D01*
X182385000Y-92155874D01*
X182385000Y-91744126D01*
X182227431Y-91363720D01*
X181936280Y-91072569D01*
X181555874Y-90915000D01*
X181144126Y-90915000D01*
X180763720Y-91072569D01*
X180472569Y-91363720D01*
X180315000Y-91744126D01*
X175431460Y-91744126D01*
X175555000Y-91445874D01*
X175555000Y-91034126D01*
X175397431Y-90653720D01*
X175274363Y-90530652D01*
X175306280Y-90517431D01*
X175597431Y-90226280D01*
X175755000Y-89845874D01*
X175755000Y-89434126D01*
X175597431Y-89053720D01*
X175306280Y-88762569D01*
X174925874Y-88605000D01*
X174514126Y-88605000D01*
X174133720Y-88762569D01*
X173842569Y-89053720D01*
X173726059Y-89335000D01*
X173564126Y-89335000D01*
X173183720Y-89492569D01*
X172892569Y-89783720D01*
X172735000Y-90164126D01*
X170435000Y-90164126D01*
X170435000Y-90154126D01*
X170277431Y-89773720D01*
X169986280Y-89482569D01*
X169675000Y-89353633D01*
X169675000Y-89224126D01*
X169517431Y-88843720D01*
X169468711Y-88795000D01*
X169687431Y-88576280D01*
X169845000Y-88195874D01*
X169845000Y-87784126D01*
X169687431Y-87403720D01*
X169396280Y-87112569D01*
X169015874Y-86955000D01*
X168604126Y-86955000D01*
X168223720Y-87112569D01*
X167932569Y-87403720D01*
X167775000Y-87784126D01*
X167775000Y-88195874D01*
X167932569Y-88576280D01*
X167981289Y-88625000D01*
X167762569Y-88843720D01*
X167605000Y-89224126D01*
X163036957Y-89224126D01*
X162928839Y-88680582D01*
X162600625Y-88189375D01*
X162302239Y-87990000D01*
X162600625Y-87790625D01*
X162928839Y-87299418D01*
X163044092Y-86720000D01*
X162928839Y-86140582D01*
X162600625Y-85649375D01*
X162413177Y-85524126D01*
X169855000Y-85524126D01*
X169855000Y-85935874D01*
X170012569Y-86316280D01*
X170303720Y-86607431D01*
X170684126Y-86765000D01*
X171095874Y-86765000D01*
X171476280Y-86607431D01*
X171767431Y-86316280D01*
X171909155Y-85974126D01*
X180325000Y-85974126D01*
X180325000Y-86385874D01*
X180482569Y-86766280D01*
X180773720Y-87057431D01*
X181045000Y-87169799D01*
X181045000Y-87265874D01*
X181202569Y-87646280D01*
X181493720Y-87937431D01*
X181705000Y-88024946D01*
X181705000Y-88035874D01*
X181862569Y-88416280D01*
X182153720Y-88707431D01*
X182285000Y-88761809D01*
X182285000Y-88875874D01*
X182442569Y-89256280D01*
X182733720Y-89547431D01*
X183114126Y-89705000D01*
X183117557Y-89705000D01*
X182833720Y-89822569D01*
X182542569Y-90113720D01*
X182385000Y-90494126D01*
X182385000Y-90905874D01*
X182542569Y-91286280D01*
X182833720Y-91577431D01*
X183214126Y-91735000D01*
X183625874Y-91735000D01*
X184006280Y-91577431D01*
X184297431Y-91286280D01*
X184455000Y-90905874D01*
X184455000Y-90494126D01*
X184297431Y-90113720D01*
X184006280Y-89822569D01*
X183625874Y-89665000D01*
X183622443Y-89665000D01*
X183906280Y-89547431D01*
X184197431Y-89256280D01*
X184322587Y-88954126D01*
X188235000Y-88954126D01*
X188235000Y-89365874D01*
X188392569Y-89746280D01*
X188683720Y-90037431D01*
X189064126Y-90195000D01*
X189475874Y-90195000D01*
X189856280Y-90037431D01*
X190147431Y-89746280D01*
X190305000Y-89365874D01*
X190305000Y-88954126D01*
X190147431Y-88573720D01*
X190077837Y-88504126D01*
X193515000Y-88504126D01*
X193515000Y-88915874D01*
X193672569Y-89296280D01*
X193963720Y-89587431D01*
X194344126Y-89745000D01*
X194755874Y-89745000D01*
X195136280Y-89587431D01*
X195427431Y-89296280D01*
X195468916Y-89196124D01*
X201910428Y-89196124D01*
X201910428Y-89796840D01*
X202140312Y-90351828D01*
X202565082Y-90776598D01*
X203120070Y-91006482D01*
X203720786Y-91006482D01*
X204275774Y-90776598D01*
X204670428Y-90381944D01*
X205065082Y-90776598D01*
X205620070Y-91006482D01*
X206220786Y-91006482D01*
X206775774Y-90776598D01*
X207170428Y-90381944D01*
X207565082Y-90776598D01*
X208120070Y-91006482D01*
X208720786Y-91006482D01*
X209275774Y-90776598D01*
X209700544Y-90351828D01*
X209930428Y-89796840D01*
X209930428Y-89775866D01*
X214595000Y-89775866D01*
X214595000Y-90824134D01*
X214996155Y-91792608D01*
X215737392Y-92533845D01*
X216705866Y-92935000D01*
X217754134Y-92935000D01*
X218722608Y-92533845D01*
X219463845Y-91792608D01*
X219865000Y-90824134D01*
X219865000Y-89775866D01*
X219463845Y-88807392D01*
X218722608Y-88066155D01*
X217754134Y-87665000D01*
X216705866Y-87665000D01*
X215737392Y-88066155D01*
X214996155Y-88807392D01*
X214595000Y-89775866D01*
X209930428Y-89775866D01*
X209930428Y-89196124D01*
X209700544Y-88641136D01*
X209275774Y-88216366D01*
X208720786Y-87986482D01*
X208120070Y-87986482D01*
X207565082Y-88216366D01*
X207170428Y-88611020D01*
X206775774Y-88216366D01*
X206220786Y-87986482D01*
X205620070Y-87986482D01*
X205065082Y-88216366D01*
X204670428Y-88611020D01*
X204275774Y-88216366D01*
X203720786Y-87986482D01*
X203120070Y-87986482D01*
X202565082Y-88216366D01*
X202140312Y-88641136D01*
X201910428Y-89196124D01*
X195468916Y-89196124D01*
X195585000Y-88915874D01*
X195585000Y-88504126D01*
X195427431Y-88123720D01*
X195136280Y-87832569D01*
X194755874Y-87675000D01*
X194344126Y-87675000D01*
X193963720Y-87832569D01*
X193672569Y-88123720D01*
X193515000Y-88504126D01*
X190077837Y-88504126D01*
X189856280Y-88282569D01*
X189475874Y-88125000D01*
X189064126Y-88125000D01*
X188683720Y-88282569D01*
X188392569Y-88573720D01*
X188235000Y-88954126D01*
X184322587Y-88954126D01*
X184355000Y-88875874D01*
X184355000Y-88464126D01*
X184197431Y-88083720D01*
X183906280Y-87792569D01*
X183775000Y-87738191D01*
X183775000Y-87624126D01*
X183617431Y-87243720D01*
X183326280Y-86952569D01*
X183115000Y-86865054D01*
X183115000Y-86854126D01*
X182957431Y-86473720D01*
X182666280Y-86182569D01*
X182395000Y-86070201D01*
X182395000Y-85974126D01*
X182237431Y-85593720D01*
X181946280Y-85302569D01*
X181565874Y-85145000D01*
X181154126Y-85145000D01*
X180773720Y-85302569D01*
X180482569Y-85593720D01*
X180325000Y-85974126D01*
X171909155Y-85974126D01*
X171925000Y-85935874D01*
X171925000Y-85524126D01*
X171767431Y-85143720D01*
X171476280Y-84852569D01*
X171095874Y-84695000D01*
X170684126Y-84695000D01*
X170303720Y-84852569D01*
X170012569Y-85143720D01*
X169855000Y-85524126D01*
X162413177Y-85524126D01*
X162109418Y-85321161D01*
X161676256Y-85235000D01*
X161383744Y-85235000D01*
X160950582Y-85321161D01*
X160459375Y-85649375D01*
X160258647Y-85949786D01*
X159871358Y-85524817D01*
X159346892Y-85278514D01*
X159117000Y-85399181D01*
X159117000Y-86593000D01*
X159137000Y-86593000D01*
X159137000Y-86847000D01*
X159117000Y-86847000D01*
X159117000Y-86867000D01*
X158863000Y-86867000D01*
X158863000Y-86847000D01*
X157669845Y-86847000D01*
X157548524Y-87076890D01*
X157718355Y-87486924D01*
X158108642Y-87915183D01*
X158238478Y-87976157D01*
X157919375Y-88189375D01*
X157591161Y-88680582D01*
X157475908Y-89260000D01*
X153311906Y-89260000D01*
X153325428Y-89227356D01*
X153325428Y-88815608D01*
X153167859Y-88435202D01*
X152876708Y-88144051D01*
X152496302Y-87986482D01*
X152084554Y-87986482D01*
X151704148Y-88144051D01*
X151458151Y-88390048D01*
X151447859Y-88365202D01*
X151156708Y-88074051D01*
X150776302Y-87916482D01*
X150364554Y-87916482D01*
X149984148Y-88074051D01*
X149692997Y-88365202D01*
X149535428Y-88745608D01*
X127029677Y-88745608D01*
X127030998Y-86363110D01*
X157548524Y-86363110D01*
X157669845Y-86593000D01*
X158863000Y-86593000D01*
X158863000Y-85399181D01*
X158633108Y-85278514D01*
X158108642Y-85524817D01*
X157718355Y-85953076D01*
X157548524Y-86363110D01*
X127030998Y-86363110D01*
X127033876Y-81174126D01*
X136895000Y-81174126D01*
X136895000Y-81585874D01*
X137052569Y-81966280D01*
X137343720Y-82257431D01*
X137724126Y-82415000D01*
X138135874Y-82415000D01*
X138516280Y-82257431D01*
X138807431Y-81966280D01*
X138965000Y-81585874D01*
X138965000Y-81465608D01*
X140635428Y-81465608D01*
X140635428Y-81877356D01*
X140792997Y-82257762D01*
X141084148Y-82548913D01*
X141464554Y-82706482D01*
X141876302Y-82706482D01*
X142256708Y-82548913D01*
X142547859Y-82257762D01*
X142702009Y-81885608D01*
X171905428Y-81885608D01*
X171905428Y-82297356D01*
X172062997Y-82677762D01*
X172354148Y-82968913D01*
X172734554Y-83126482D01*
X173146302Y-83126482D01*
X173200274Y-83104126D01*
X189175000Y-83104126D01*
X189175000Y-83515874D01*
X189332569Y-83896280D01*
X189623720Y-84187431D01*
X190004126Y-84345000D01*
X190415874Y-84345000D01*
X190796280Y-84187431D01*
X191039585Y-83944126D01*
X193525000Y-83944126D01*
X193525000Y-84355874D01*
X193682569Y-84736280D01*
X193973720Y-85027431D01*
X194354126Y-85185000D01*
X194765874Y-85185000D01*
X195146280Y-85027431D01*
X195422587Y-84751124D01*
X201910428Y-84751124D01*
X201910428Y-85351840D01*
X202140312Y-85906828D01*
X202565082Y-86331598D01*
X203120070Y-86561482D01*
X203720786Y-86561482D01*
X204275774Y-86331598D01*
X204670428Y-85936944D01*
X205065082Y-86331598D01*
X205620070Y-86561482D01*
X206220786Y-86561482D01*
X206775774Y-86331598D01*
X207170428Y-85936944D01*
X207565082Y-86331598D01*
X208120070Y-86561482D01*
X208720786Y-86561482D01*
X209275774Y-86331598D01*
X209700544Y-85906828D01*
X209930428Y-85351840D01*
X209930428Y-84751124D01*
X209700544Y-84196136D01*
X209285274Y-83780866D01*
X223425000Y-83780866D01*
X223425000Y-84829134D01*
X223826155Y-85797608D01*
X224567392Y-86538845D01*
X225535866Y-86940000D01*
X226584134Y-86940000D01*
X227552608Y-86538845D01*
X228293845Y-85797608D01*
X228695000Y-84829134D01*
X228695000Y-83780866D01*
X228293845Y-82812392D01*
X227552608Y-82071155D01*
X226584134Y-81670000D01*
X225535866Y-81670000D01*
X224567392Y-82071155D01*
X223826155Y-82812392D01*
X223425000Y-83780866D01*
X209285274Y-83780866D01*
X209275774Y-83771366D01*
X208720786Y-83541482D01*
X208120070Y-83541482D01*
X207565082Y-83771366D01*
X207170428Y-84166020D01*
X206775774Y-83771366D01*
X206220786Y-83541482D01*
X205620070Y-83541482D01*
X205065082Y-83771366D01*
X204670428Y-84166020D01*
X204275774Y-83771366D01*
X203720786Y-83541482D01*
X203120070Y-83541482D01*
X202565082Y-83771366D01*
X202140312Y-84196136D01*
X201910428Y-84751124D01*
X195422587Y-84751124D01*
X195437431Y-84736280D01*
X195595000Y-84355874D01*
X195595000Y-83944126D01*
X195437431Y-83563720D01*
X195146280Y-83272569D01*
X194765874Y-83115000D01*
X194354126Y-83115000D01*
X193973720Y-83272569D01*
X193682569Y-83563720D01*
X193525000Y-83944126D01*
X191039585Y-83944126D01*
X191087431Y-83896280D01*
X191245000Y-83515874D01*
X191245000Y-83104126D01*
X191087431Y-82723720D01*
X190796280Y-82432569D01*
X190415874Y-82275000D01*
X190004126Y-82275000D01*
X189623720Y-82432569D01*
X189332569Y-82723720D01*
X189175000Y-83104126D01*
X173200274Y-83104126D01*
X173526708Y-82968913D01*
X173817859Y-82677762D01*
X173975428Y-82297356D01*
X173975428Y-81885608D01*
X173817859Y-81505202D01*
X173526708Y-81214051D01*
X173146302Y-81056482D01*
X172734554Y-81056482D01*
X172354148Y-81214051D01*
X172062997Y-81505202D01*
X171905428Y-81885608D01*
X142702009Y-81885608D01*
X142705428Y-81877356D01*
X142705428Y-81465608D01*
X142547859Y-81085202D01*
X142256708Y-80794051D01*
X141876302Y-80636482D01*
X141464554Y-80636482D01*
X141084148Y-80794051D01*
X140792997Y-81085202D01*
X140635428Y-81465608D01*
X138965000Y-81465608D01*
X138965000Y-81174126D01*
X138807431Y-80793720D01*
X138516280Y-80502569D01*
X138135874Y-80345000D01*
X137724126Y-80345000D01*
X137343720Y-80502569D01*
X137052569Y-80793720D01*
X136895000Y-81174126D01*
X127033876Y-81174126D01*
X127034752Y-79596264D01*
X127104126Y-79625000D01*
X127515874Y-79625000D01*
X127896280Y-79467431D01*
X128187431Y-79176280D01*
X128345000Y-78795874D01*
X128345000Y-78384126D01*
X128249732Y-78154126D01*
X129185000Y-78154126D01*
X129185000Y-78565874D01*
X129342569Y-78946280D01*
X129633720Y-79237431D01*
X130014126Y-79395000D01*
X130425874Y-79395000D01*
X130806280Y-79237431D01*
X131097431Y-78946280D01*
X131143272Y-78835608D01*
X133735428Y-78835608D01*
X133735428Y-79247356D01*
X133892997Y-79627762D01*
X134184148Y-79918913D01*
X134564554Y-80076482D01*
X134976302Y-80076482D01*
X135356708Y-79918913D01*
X135620013Y-79655608D01*
X174385428Y-79655608D01*
X174385428Y-80067356D01*
X174542997Y-80447762D01*
X174834148Y-80738913D01*
X175214554Y-80896482D01*
X175626302Y-80896482D01*
X176006708Y-80738913D01*
X176297859Y-80447762D01*
X176455428Y-80067356D01*
X176455428Y-79655608D01*
X176413393Y-79554126D01*
X193505000Y-79554126D01*
X193505000Y-79965874D01*
X193662569Y-80346280D01*
X193953720Y-80637431D01*
X194334126Y-80795000D01*
X194745874Y-80795000D01*
X195126280Y-80637431D01*
X195417431Y-80346280D01*
X195434064Y-80306124D01*
X201910428Y-80306124D01*
X201910428Y-80906840D01*
X202140312Y-81461828D01*
X202565082Y-81886598D01*
X203120070Y-82116482D01*
X203720786Y-82116482D01*
X204275774Y-81886598D01*
X204670428Y-81491944D01*
X205065082Y-81886598D01*
X205620070Y-82116482D01*
X206220786Y-82116482D01*
X206775774Y-81886598D01*
X207170428Y-81491944D01*
X207565082Y-81886598D01*
X208120070Y-82116482D01*
X208720786Y-82116482D01*
X209275774Y-81886598D01*
X209700544Y-81461828D01*
X209930428Y-80906840D01*
X209930428Y-80306124D01*
X209700544Y-79751136D01*
X209275774Y-79326366D01*
X208720786Y-79096482D01*
X208120070Y-79096482D01*
X207565082Y-79326366D01*
X207170428Y-79721020D01*
X206775774Y-79326366D01*
X206220786Y-79096482D01*
X205620070Y-79096482D01*
X205065082Y-79326366D01*
X204670428Y-79721020D01*
X204275774Y-79326366D01*
X203720786Y-79096482D01*
X203120070Y-79096482D01*
X202565082Y-79326366D01*
X202140312Y-79751136D01*
X201910428Y-80306124D01*
X195434064Y-80306124D01*
X195575000Y-79965874D01*
X195575000Y-79554126D01*
X195417431Y-79173720D01*
X195126280Y-78882569D01*
X194745874Y-78725000D01*
X194334126Y-78725000D01*
X193953720Y-78882569D01*
X193662569Y-79173720D01*
X193505000Y-79554126D01*
X176413393Y-79554126D01*
X176297859Y-79275202D01*
X176006708Y-78984051D01*
X175626302Y-78826482D01*
X175214554Y-78826482D01*
X174834148Y-78984051D01*
X174542997Y-79275202D01*
X174385428Y-79655608D01*
X135620013Y-79655608D01*
X135647859Y-79627762D01*
X135805428Y-79247356D01*
X135805428Y-78835608D01*
X135647859Y-78455202D01*
X135356708Y-78164051D01*
X134976302Y-78006482D01*
X134564554Y-78006482D01*
X134184148Y-78164051D01*
X133892997Y-78455202D01*
X133735428Y-78835608D01*
X131143272Y-78835608D01*
X131255000Y-78565874D01*
X131255000Y-78154126D01*
X131097431Y-77773720D01*
X130806280Y-77482569D01*
X130425874Y-77325000D01*
X130014126Y-77325000D01*
X129633720Y-77482569D01*
X129342569Y-77773720D01*
X129185000Y-78154126D01*
X128249732Y-78154126D01*
X128187431Y-78003720D01*
X127896280Y-77712569D01*
X127515874Y-77555000D01*
X127104126Y-77555000D01*
X127035868Y-77583273D01*
X127036017Y-77314126D01*
X138665000Y-77314126D01*
X138665000Y-77725874D01*
X138822569Y-78106280D01*
X139113720Y-78397431D01*
X139494126Y-78555000D01*
X139905874Y-78555000D01*
X140286280Y-78397431D01*
X140577431Y-78106280D01*
X140735000Y-77725874D01*
X140735000Y-77690866D01*
X214595000Y-77690866D01*
X214595000Y-78739134D01*
X214996155Y-79707608D01*
X215737392Y-80448845D01*
X216705866Y-80850000D01*
X217754134Y-80850000D01*
X218722608Y-80448845D01*
X219463845Y-79707608D01*
X219865000Y-78739134D01*
X219865000Y-77690866D01*
X219463845Y-76722392D01*
X218722608Y-75981155D01*
X217754134Y-75580000D01*
X216705866Y-75580000D01*
X215737392Y-75981155D01*
X214996155Y-76722392D01*
X214595000Y-77690866D01*
X140735000Y-77690866D01*
X140735000Y-77314126D01*
X140577431Y-76933720D01*
X140286280Y-76642569D01*
X139905874Y-76485000D01*
X139494126Y-76485000D01*
X139113720Y-76642569D01*
X138822569Y-76933720D01*
X138665000Y-77314126D01*
X127036017Y-77314126D01*
X127037319Y-74965608D01*
X155295428Y-74965608D01*
X155295428Y-75377356D01*
X155452997Y-75757762D01*
X155744148Y-76048913D01*
X156124554Y-76206482D01*
X156536302Y-76206482D01*
X156916708Y-76048913D01*
X157207859Y-75757762D01*
X157365428Y-75377356D01*
X157365428Y-75184126D01*
X193495000Y-75184126D01*
X193495000Y-75595874D01*
X193652569Y-75976280D01*
X193943720Y-76267431D01*
X194324126Y-76425000D01*
X194735874Y-76425000D01*
X195116280Y-76267431D01*
X195407431Y-75976280D01*
X195455130Y-75861124D01*
X201910428Y-75861124D01*
X201910428Y-76461840D01*
X202140312Y-77016828D01*
X202565082Y-77441598D01*
X203120070Y-77671482D01*
X203720786Y-77671482D01*
X204275774Y-77441598D01*
X204670428Y-77046944D01*
X205065082Y-77441598D01*
X205620070Y-77671482D01*
X206220786Y-77671482D01*
X206775774Y-77441598D01*
X207170428Y-77046944D01*
X207565082Y-77441598D01*
X208120070Y-77671482D01*
X208720786Y-77671482D01*
X209275774Y-77441598D01*
X209700544Y-77016828D01*
X209930428Y-76461840D01*
X209930428Y-75861124D01*
X209700544Y-75306136D01*
X209275774Y-74881366D01*
X208720786Y-74651482D01*
X208120070Y-74651482D01*
X207565082Y-74881366D01*
X207170428Y-75276020D01*
X206775774Y-74881366D01*
X206220786Y-74651482D01*
X205620070Y-74651482D01*
X205065082Y-74881366D01*
X204670428Y-75276020D01*
X204275774Y-74881366D01*
X203720786Y-74651482D01*
X203120070Y-74651482D01*
X202565082Y-74881366D01*
X202140312Y-75306136D01*
X201910428Y-75861124D01*
X195455130Y-75861124D01*
X195565000Y-75595874D01*
X195565000Y-75184126D01*
X195407431Y-74803720D01*
X195116280Y-74512569D01*
X194735874Y-74355000D01*
X194324126Y-74355000D01*
X193943720Y-74512569D01*
X193652569Y-74803720D01*
X193495000Y-75184126D01*
X157365428Y-75184126D01*
X157365428Y-74965608D01*
X157207859Y-74585202D01*
X156916708Y-74294051D01*
X156536302Y-74136482D01*
X156124554Y-74136482D01*
X155744148Y-74294051D01*
X155452997Y-74585202D01*
X155295428Y-74965608D01*
X127037319Y-74965608D01*
X127038489Y-72857245D01*
X133856843Y-72857245D01*
X133856843Y-73132245D01*
X134008968Y-73643027D01*
X134344981Y-74056712D01*
X134813727Y-74310321D01*
X134879585Y-74322764D01*
X135089843Y-74199763D01*
X135089843Y-72857245D01*
X135343843Y-72857245D01*
X135343843Y-74199763D01*
X135554101Y-74322764D01*
X135619959Y-74310321D01*
X136088705Y-74056712D01*
X136424718Y-73643027D01*
X136576843Y-73132245D01*
X136576843Y-72857245D01*
X141306843Y-72857245D01*
X141306843Y-73132245D01*
X141458968Y-73643027D01*
X141794981Y-74056712D01*
X142263727Y-74310321D01*
X142329585Y-74322764D01*
X142539843Y-74199763D01*
X142539843Y-72857245D01*
X142793843Y-72857245D01*
X142793843Y-74199763D01*
X143004101Y-74322764D01*
X143069959Y-74310321D01*
X143538705Y-74056712D01*
X143874718Y-73643027D01*
X143984145Y-73275608D01*
X178015428Y-73275608D01*
X178015428Y-73687356D01*
X178172997Y-74067762D01*
X178464148Y-74358913D01*
X178844554Y-74516482D01*
X179256302Y-74516482D01*
X179636708Y-74358913D01*
X179927859Y-74067762D01*
X180085428Y-73687356D01*
X180085428Y-73275608D01*
X179927859Y-72895202D01*
X179636708Y-72604051D01*
X179256302Y-72446482D01*
X178844554Y-72446482D01*
X178464148Y-72604051D01*
X178172997Y-72895202D01*
X178015428Y-73275608D01*
X143984145Y-73275608D01*
X144026843Y-73132245D01*
X144026843Y-72857245D01*
X142793843Y-72857245D01*
X142539843Y-72857245D01*
X141306843Y-72857245D01*
X136576843Y-72857245D01*
X135343843Y-72857245D01*
X135089843Y-72857245D01*
X133856843Y-72857245D01*
X127038489Y-72857245D01*
X127038782Y-72328245D01*
X133856843Y-72328245D01*
X133856843Y-72603245D01*
X135089843Y-72603245D01*
X135089843Y-71260727D01*
X135343843Y-71260727D01*
X135343843Y-72603245D01*
X135960260Y-72603245D01*
X136038006Y-72655193D01*
X136339908Y-72715245D01*
X136543778Y-72715245D01*
X136845680Y-72655193D01*
X137188036Y-72426438D01*
X137416791Y-72084082D01*
X137497119Y-71680245D01*
X140386567Y-71680245D01*
X140466895Y-72084082D01*
X140695650Y-72426438D01*
X141038006Y-72655193D01*
X141339908Y-72715245D01*
X141543778Y-72715245D01*
X141845680Y-72655193D01*
X141923426Y-72603245D01*
X142539843Y-72603245D01*
X142539843Y-71260727D01*
X142793843Y-71260727D01*
X142793843Y-72603245D01*
X144026843Y-72603245D01*
X144026843Y-72328245D01*
X143874718Y-71817463D01*
X143548733Y-71416124D01*
X201854548Y-71416124D01*
X201854548Y-72016840D01*
X202084432Y-72571828D01*
X202509202Y-72996598D01*
X203064190Y-73226482D01*
X203664906Y-73226482D01*
X204219894Y-72996598D01*
X204614548Y-72601944D01*
X205009202Y-72996598D01*
X205564190Y-73226482D01*
X206164906Y-73226482D01*
X206719894Y-72996598D01*
X207114548Y-72601944D01*
X207509202Y-72996598D01*
X208064190Y-73226482D01*
X208664906Y-73226482D01*
X209219894Y-72996598D01*
X209644664Y-72571828D01*
X209874548Y-72016840D01*
X209874548Y-71416124D01*
X209644664Y-70861136D01*
X209219894Y-70436366D01*
X208664906Y-70206482D01*
X208064190Y-70206482D01*
X207509202Y-70436366D01*
X207114548Y-70831020D01*
X206719894Y-70436366D01*
X206164906Y-70206482D01*
X205564190Y-70206482D01*
X205009202Y-70436366D01*
X204614548Y-70831020D01*
X204219894Y-70436366D01*
X203664906Y-70206482D01*
X203064190Y-70206482D01*
X202509202Y-70436366D01*
X202084432Y-70861136D01*
X201854548Y-71416124D01*
X143548733Y-71416124D01*
X143538705Y-71403778D01*
X143069959Y-71150169D01*
X143004101Y-71137726D01*
X142793843Y-71260727D01*
X142539843Y-71260727D01*
X142329585Y-71137726D01*
X142324738Y-71138642D01*
X142188036Y-70934052D01*
X141845680Y-70705297D01*
X141543778Y-70645245D01*
X141339908Y-70645245D01*
X141038006Y-70705297D01*
X140695650Y-70934052D01*
X140466895Y-71276408D01*
X140386567Y-71680245D01*
X137497119Y-71680245D01*
X137416791Y-71276408D01*
X137188036Y-70934052D01*
X136845680Y-70705297D01*
X136543778Y-70645245D01*
X136339908Y-70645245D01*
X136038006Y-70705297D01*
X135695650Y-70934052D01*
X135558948Y-71138642D01*
X135554101Y-71137726D01*
X135343843Y-71260727D01*
X135089843Y-71260727D01*
X134879585Y-71137726D01*
X134813727Y-71150169D01*
X134344981Y-71403778D01*
X134008968Y-71817463D01*
X133856843Y-72328245D01*
X127038782Y-72328245D01*
X127040314Y-69566913D01*
X128125428Y-69566913D01*
X128125428Y-70456051D01*
X128465687Y-71277508D01*
X129094402Y-71906223D01*
X129915859Y-72246482D01*
X130804997Y-72246482D01*
X131626454Y-71906223D01*
X132255169Y-71277508D01*
X132595428Y-70456051D01*
X132595428Y-69566913D01*
X132384317Y-69057245D01*
X133856843Y-69057245D01*
X133856843Y-69382245D01*
X133997550Y-69835625D01*
X134301047Y-70200647D01*
X134721129Y-70421740D01*
X134753166Y-70423880D01*
X134939843Y-70298795D01*
X134939843Y-69057245D01*
X135193843Y-69057245D01*
X135193843Y-70298795D01*
X135380520Y-70423880D01*
X135412557Y-70421740D01*
X135832639Y-70200647D01*
X136136136Y-69835625D01*
X136276843Y-69382245D01*
X136276843Y-69057245D01*
X141606843Y-69057245D01*
X141606843Y-69382245D01*
X141747550Y-69835625D01*
X142051047Y-70200647D01*
X142471129Y-70421740D01*
X142503166Y-70423880D01*
X142689843Y-70298795D01*
X142689843Y-69057245D01*
X142943843Y-69057245D01*
X142943843Y-70298795D01*
X143130520Y-70423880D01*
X143162557Y-70421740D01*
X143582639Y-70200647D01*
X143886136Y-69835625D01*
X144009777Y-69437232D01*
X158575428Y-69437232D01*
X158575428Y-70127791D01*
X158672101Y-70361180D01*
X158850729Y-70539809D01*
X159084118Y-70636482D01*
X159774678Y-70636482D01*
X159933428Y-70477732D01*
X159933428Y-69278482D01*
X158734178Y-69278482D01*
X158575428Y-69437232D01*
X144009777Y-69437232D01*
X144026843Y-69382245D01*
X144026843Y-69057245D01*
X142943843Y-69057245D01*
X142689843Y-69057245D01*
X141606843Y-69057245D01*
X136276843Y-69057245D01*
X135193843Y-69057245D01*
X134939843Y-69057245D01*
X133856843Y-69057245D01*
X132384317Y-69057245D01*
X132255169Y-68745456D01*
X131626454Y-68116741D01*
X130804997Y-67776482D01*
X129915859Y-67776482D01*
X129094402Y-68116741D01*
X128465687Y-68745456D01*
X128125428Y-69566913D01*
X127040314Y-69566913D01*
X127040414Y-69386611D01*
X127100079Y-68917935D01*
X127260615Y-68525634D01*
X127517215Y-68188251D01*
X127852395Y-67928775D01*
X128243311Y-67764891D01*
X128709548Y-67701481D01*
X134266495Y-67701400D01*
X133997550Y-68024865D01*
X133856843Y-68478245D01*
X133856843Y-68803245D01*
X134939843Y-68803245D01*
X134939843Y-68783245D01*
X135193843Y-68783245D01*
X135193843Y-68803245D01*
X136276843Y-68803245D01*
X136276843Y-68478245D01*
X136136136Y-68024865D01*
X135867172Y-67701376D01*
X142016590Y-67701285D01*
X141747550Y-68024865D01*
X141606843Y-68478245D01*
X141606843Y-68803245D01*
X142689843Y-68803245D01*
X142689843Y-68783245D01*
X142943843Y-68783245D01*
X142943843Y-68803245D01*
X144026843Y-68803245D01*
X144026843Y-68478245D01*
X143886136Y-68024865D01*
X143617077Y-67701262D01*
X151317691Y-67701148D01*
X151245428Y-67875608D01*
X151245428Y-68287356D01*
X151402997Y-68667762D01*
X151694148Y-68958913D01*
X152074554Y-69116482D01*
X152486302Y-69116482D01*
X152866708Y-68958913D01*
X153157859Y-68667762D01*
X153315428Y-68287356D01*
X153315428Y-67875608D01*
X153243153Y-67701120D01*
X159000699Y-67701035D01*
X158850729Y-67763155D01*
X158672101Y-67941784D01*
X158575428Y-68175173D01*
X158575428Y-68865732D01*
X158734178Y-69024482D01*
X159933428Y-69024482D01*
X159933428Y-69004482D01*
X160187428Y-69004482D01*
X160187428Y-69024482D01*
X160207428Y-69024482D01*
X160207428Y-69278482D01*
X160187428Y-69278482D01*
X160187428Y-70477732D01*
X160346178Y-70636482D01*
X161036738Y-70636482D01*
X161270127Y-70539809D01*
X161448755Y-70361180D01*
X161515332Y-70200449D01*
X161529803Y-70222107D01*
X162021010Y-70550321D01*
X162454172Y-70636482D01*
X162746684Y-70636482D01*
X163179846Y-70550321D01*
X163671053Y-70222107D01*
X163999267Y-69730900D01*
X164114520Y-69151482D01*
X163999267Y-68572064D01*
X163671053Y-68080857D01*
X163179846Y-67752643D01*
X162920105Y-67700977D01*
X179384030Y-67700735D01*
X179232191Y-67802191D01*
X179091843Y-68012235D01*
X179042560Y-68260000D01*
X179042560Y-69960000D01*
X179091843Y-70207765D01*
X179232191Y-70417809D01*
X179442235Y-70558157D01*
X179690000Y-70607440D01*
X181390000Y-70607440D01*
X181637765Y-70558157D01*
X181847809Y-70417809D01*
X181988157Y-70207765D01*
X182008739Y-70104292D01*
X182313076Y-70381645D01*
X182723110Y-70551476D01*
X182953000Y-70430155D01*
X182953000Y-69237000D01*
X183207000Y-69237000D01*
X183207000Y-70430155D01*
X183436890Y-70551476D01*
X183846924Y-70381645D01*
X184275183Y-69991358D01*
X184521486Y-69466892D01*
X184473647Y-69375750D01*
X185895000Y-69375750D01*
X185895000Y-70066309D01*
X185991673Y-70299698D01*
X186170301Y-70478327D01*
X186403690Y-70575000D01*
X187094250Y-70575000D01*
X187253000Y-70416250D01*
X187253000Y-69217000D01*
X186053750Y-69217000D01*
X185895000Y-69375750D01*
X184473647Y-69375750D01*
X184400819Y-69237000D01*
X183207000Y-69237000D01*
X182953000Y-69237000D01*
X182933000Y-69237000D01*
X182933000Y-68983000D01*
X182953000Y-68983000D01*
X182953000Y-68963000D01*
X183207000Y-68963000D01*
X183207000Y-68983000D01*
X184400819Y-68983000D01*
X184521486Y-68753108D01*
X184275183Y-68228642D01*
X183846924Y-67838355D01*
X183514512Y-67700674D01*
X186172807Y-67700635D01*
X186170301Y-67701673D01*
X185991673Y-67880302D01*
X185895000Y-68113691D01*
X185895000Y-68804250D01*
X186053750Y-68963000D01*
X187253000Y-68963000D01*
X187253000Y-68943000D01*
X187507000Y-68943000D01*
X187507000Y-68963000D01*
X187527000Y-68963000D01*
X187527000Y-69217000D01*
X187507000Y-69217000D01*
X187507000Y-70416250D01*
X187665750Y-70575000D01*
X188356310Y-70575000D01*
X188589699Y-70478327D01*
X188768327Y-70299698D01*
X188834904Y-70138967D01*
X188849375Y-70160625D01*
X189340582Y-70488839D01*
X189773744Y-70575000D01*
X190066256Y-70575000D01*
X190499418Y-70488839D01*
X190990625Y-70160625D01*
X191318839Y-69669418D01*
X191323869Y-69644126D01*
X193505000Y-69644126D01*
X193505000Y-70055874D01*
X193662569Y-70436280D01*
X193953720Y-70727431D01*
X194334126Y-70885000D01*
X194745874Y-70885000D01*
X195126280Y-70727431D01*
X195417431Y-70436280D01*
X195575000Y-70055874D01*
X195575000Y-69644126D01*
X195543018Y-69566913D01*
X213915000Y-69566913D01*
X213915000Y-70456051D01*
X214255259Y-71277508D01*
X214883974Y-71906223D01*
X215705431Y-72246482D01*
X216594569Y-72246482D01*
X217416026Y-71906223D01*
X217626383Y-71695866D01*
X223425000Y-71695866D01*
X223425000Y-72744134D01*
X223826155Y-73712608D01*
X224567392Y-74453845D01*
X225535866Y-74855000D01*
X226584134Y-74855000D01*
X227552608Y-74453845D01*
X228293845Y-73712608D01*
X228695000Y-72744134D01*
X228695000Y-71695866D01*
X228293845Y-70727392D01*
X227552608Y-69986155D01*
X226584134Y-69585000D01*
X225535866Y-69585000D01*
X224567392Y-69986155D01*
X223826155Y-70727392D01*
X223425000Y-71695866D01*
X217626383Y-71695866D01*
X218044741Y-71277508D01*
X218385000Y-70456051D01*
X218385000Y-69566913D01*
X218044741Y-68745456D01*
X217416026Y-68116741D01*
X216594569Y-67776482D01*
X215705431Y-67776482D01*
X214883974Y-68116741D01*
X214255259Y-68745456D01*
X213915000Y-69566913D01*
X195543018Y-69566913D01*
X195417431Y-69263720D01*
X195126280Y-68972569D01*
X194745874Y-68815000D01*
X194334126Y-68815000D01*
X193953720Y-68972569D01*
X193662569Y-69263720D01*
X193505000Y-69644126D01*
X191323869Y-69644126D01*
X191434092Y-69090000D01*
X191318839Y-68510582D01*
X190990625Y-68019375D01*
X190513501Y-67700571D01*
X229305148Y-67700000D01*
X229773714Y-67759651D01*
X229773714Y-67759651D01*
G37*
X229773714Y-67759651D02*
X230166015Y-67920187D01*
X230503398Y-68176787D01*
X230762874Y-68511967D01*
X230926758Y-68902883D01*
X230990033Y-69368132D01*
X231009979Y-123443986D01*
X230950180Y-123913715D01*
X230789645Y-124306013D01*
X230533044Y-124643399D01*
X230197864Y-124902874D01*
X229806948Y-125066758D01*
X229342189Y-125129966D01*
X216700292Y-125123695D01*
X217346026Y-124856223D01*
X217974741Y-124227508D01*
X218315000Y-123406051D01*
X218315000Y-122516913D01*
X217974741Y-121695456D01*
X217346026Y-121066741D01*
X216524569Y-120726482D01*
X215635431Y-120726482D01*
X214813974Y-121066741D01*
X214185259Y-121695456D01*
X213845000Y-122516913D01*
X213845000Y-123406051D01*
X214185259Y-124227508D01*
X214813974Y-124856223D01*
X215458221Y-125123079D01*
X201390724Y-125116100D01*
X201735005Y-124886059D01*
X202052168Y-124411391D01*
X202163541Y-123851482D01*
X202154740Y-123807232D01*
X203375428Y-123807232D01*
X203375428Y-124497792D01*
X203472101Y-124731181D01*
X203650730Y-124909809D01*
X203884119Y-125006482D01*
X204574678Y-125006482D01*
X204733428Y-124847732D01*
X204733428Y-123648482D01*
X204987428Y-123648482D01*
X204987428Y-124847732D01*
X205146178Y-125006482D01*
X205836737Y-125006482D01*
X206070126Y-124909809D01*
X206248755Y-124731181D01*
X206345428Y-124497792D01*
X206345428Y-123807232D01*
X206186678Y-123648482D01*
X204987428Y-123648482D01*
X204733428Y-123648482D01*
X203534178Y-123648482D01*
X203375428Y-123807232D01*
X202154740Y-123807232D01*
X202052168Y-123291573D01*
X201735005Y-122816905D01*
X201260337Y-122499742D01*
X200841761Y-122416482D01*
X200559095Y-122416482D01*
X200140519Y-122499742D01*
X199665851Y-122816905D01*
X199348688Y-123291573D01*
X199237315Y-123851482D01*
X199348688Y-124411391D01*
X199665851Y-124886059D01*
X200009107Y-125115415D01*
X185207510Y-125108072D01*
X185526153Y-124976086D01*
X185986086Y-124516153D01*
X186235000Y-123915222D01*
X186235000Y-123264778D01*
X185986086Y-122663847D01*
X185526153Y-122203914D01*
X184925222Y-121955000D01*
X184274778Y-121955000D01*
X183673847Y-122203914D01*
X183213914Y-122663847D01*
X182965000Y-123264778D01*
X182965000Y-123915222D01*
X183213914Y-124516153D01*
X183673847Y-124976086D01*
X183991033Y-125107469D01*
X180741365Y-125105857D01*
X180974264Y-125009387D01*
X181072927Y-124742532D01*
X180100000Y-123769605D01*
X179127073Y-124742532D01*
X179225736Y-125009387D01*
X179483724Y-125105233D01*
X178545016Y-125104767D01*
X178546261Y-124139909D01*
X178680613Y-124464264D01*
X178947468Y-124562927D01*
X179920395Y-123590000D01*
X180279605Y-123590000D01*
X181252532Y-124562927D01*
X181519387Y-124464264D01*
X181745908Y-123854539D01*
X181721856Y-123204540D01*
X181519387Y-122715736D01*
X181252532Y-122617073D01*
X180279605Y-123590000D01*
X179920395Y-123590000D01*
X178947468Y-122617073D01*
X178680613Y-122715736D01*
X178547636Y-123073669D01*
X178548456Y-122437468D01*
X179127073Y-122437468D01*
X180100000Y-123410395D01*
X181072927Y-122437468D01*
X180974264Y-122170613D01*
X180364539Y-121944092D01*
X179714540Y-121968144D01*
X179225736Y-122170613D01*
X179127073Y-122437468D01*
X178548456Y-122437468D01*
X178552606Y-119218970D01*
X186325000Y-119218970D01*
X186325000Y-121041031D01*
X186419865Y-121517945D01*
X186781232Y-122058769D01*
X187322056Y-122420136D01*
X187960000Y-122547031D01*
X188597945Y-122420136D01*
X189138769Y-122058769D01*
X189500136Y-121517945D01*
X189595000Y-121041031D01*
X189595000Y-119218969D01*
X189577303Y-119130000D01*
X190142969Y-119130000D01*
X190269864Y-119767945D01*
X190631231Y-120308769D01*
X191172055Y-120670136D01*
X191648969Y-120765000D01*
X192005566Y-120765000D01*
X191647138Y-120913466D01*
X191243466Y-121317138D01*
X191025000Y-121844561D01*
X191025000Y-122415439D01*
X191243466Y-122942862D01*
X191647138Y-123346534D01*
X192174561Y-123565000D01*
X192745439Y-123565000D01*
X193272862Y-123346534D01*
X193676534Y-122942862D01*
X193895000Y-122415439D01*
X193895000Y-121844561D01*
X193676534Y-121317138D01*
X193272862Y-120913466D01*
X192914434Y-120765000D01*
X193271031Y-120765000D01*
X193747945Y-120670136D01*
X194288769Y-120308769D01*
X194650136Y-119767945D01*
X194759333Y-119218970D01*
X195325000Y-119218970D01*
X195325000Y-121041031D01*
X195419865Y-121517945D01*
X195781232Y-122058769D01*
X196322056Y-122420136D01*
X196960000Y-122547031D01*
X197597945Y-122420136D01*
X198138769Y-122058769D01*
X198500136Y-121517945D01*
X198595000Y-121041031D01*
X198595000Y-120981482D01*
X203346336Y-120981482D01*
X203461589Y-121560900D01*
X203789803Y-122052107D01*
X203811461Y-122066578D01*
X203650730Y-122133155D01*
X203472101Y-122311783D01*
X203375428Y-122545172D01*
X203375428Y-123235732D01*
X203534178Y-123394482D01*
X204733428Y-123394482D01*
X204733428Y-123374482D01*
X204987428Y-123374482D01*
X204987428Y-123394482D01*
X206186678Y-123394482D01*
X206345428Y-123235732D01*
X206345428Y-122545172D01*
X206248755Y-122311783D01*
X206070126Y-122133155D01*
X205909395Y-122066578D01*
X205931053Y-122052107D01*
X206259267Y-121560900D01*
X206374520Y-120981482D01*
X206259267Y-120402064D01*
X206014582Y-120035866D01*
X223425000Y-120035866D01*
X223425000Y-121084134D01*
X223826155Y-122052608D01*
X224567392Y-122793845D01*
X225535866Y-123195000D01*
X226584134Y-123195000D01*
X227552608Y-122793845D01*
X228293845Y-122052608D01*
X228695000Y-121084134D01*
X228695000Y-120035866D01*
X228293845Y-119067392D01*
X227552608Y-118326155D01*
X226584134Y-117925000D01*
X225535866Y-117925000D01*
X224567392Y-118326155D01*
X223826155Y-119067392D01*
X223425000Y-120035866D01*
X206014582Y-120035866D01*
X205931053Y-119910857D01*
X205439846Y-119582643D01*
X205006684Y-119496482D01*
X204714172Y-119496482D01*
X204281010Y-119582643D01*
X203789803Y-119910857D01*
X203461589Y-120402064D01*
X203346336Y-120981482D01*
X198595000Y-120981482D01*
X198595000Y-119218969D01*
X198500136Y-118742055D01*
X198138769Y-118201231D01*
X197597944Y-117839864D01*
X196960000Y-117712969D01*
X196322055Y-117839864D01*
X195781231Y-118201231D01*
X195419864Y-118742056D01*
X195325000Y-119218970D01*
X194759333Y-119218970D01*
X194777031Y-119130000D01*
X194650136Y-118492055D01*
X194288769Y-117951231D01*
X193747945Y-117589864D01*
X193271031Y-117495000D01*
X191648969Y-117495000D01*
X191172055Y-117589864D01*
X190631231Y-117951231D01*
X190269864Y-118492055D01*
X190142969Y-119130000D01*
X189577303Y-119130000D01*
X189500136Y-118742055D01*
X189138769Y-118201231D01*
X188597944Y-117839864D01*
X187960000Y-117712969D01*
X187322055Y-117839864D01*
X186781231Y-118201231D01*
X186419864Y-118742056D01*
X186325000Y-119218970D01*
X178552606Y-119218970D01*
X178553866Y-118242532D01*
X179127073Y-118242532D01*
X179225736Y-118509387D01*
X179835461Y-118735908D01*
X180485460Y-118711856D01*
X180974264Y-118509387D01*
X181072927Y-118242532D01*
X180100000Y-117269605D01*
X179127073Y-118242532D01*
X178553866Y-118242532D01*
X178554618Y-117660086D01*
X178680613Y-117964264D01*
X178947468Y-118062927D01*
X179920395Y-117090000D01*
X180279605Y-117090000D01*
X181252532Y-118062927D01*
X181519387Y-117964264D01*
X181745908Y-117354539D01*
X181724085Y-116764778D01*
X182965000Y-116764778D01*
X182965000Y-117415222D01*
X183213914Y-118016153D01*
X183673847Y-118476086D01*
X184274778Y-118725000D01*
X184925222Y-118725000D01*
X185526153Y-118476086D01*
X185986086Y-118016153D01*
X186235000Y-117415222D01*
X186235000Y-116764778D01*
X185986086Y-116163847D01*
X185526153Y-115703914D01*
X184925222Y-115455000D01*
X184274778Y-115455000D01*
X183673847Y-115703914D01*
X183213914Y-116163847D01*
X182965000Y-116764778D01*
X181724085Y-116764778D01*
X181721856Y-116704540D01*
X181519387Y-116215736D01*
X181252532Y-116117073D01*
X180279605Y-117090000D01*
X179920395Y-117090000D01*
X178947468Y-116117073D01*
X178680613Y-116215736D01*
X178556049Y-116551025D01*
X178556840Y-115937468D01*
X179127073Y-115937468D01*
X180100000Y-116910395D01*
X181072927Y-115937468D01*
X180974264Y-115670613D01*
X180364539Y-115444092D01*
X179714540Y-115468144D01*
X179225736Y-115670613D01*
X179127073Y-115937468D01*
X178556840Y-115937468D01*
X178560092Y-113415750D01*
X189825000Y-113415750D01*
X189825000Y-114256310D01*
X189921673Y-114489699D01*
X190100302Y-114668327D01*
X190333691Y-114765000D01*
X192174250Y-114765000D01*
X192333000Y-114606250D01*
X192333000Y-113257000D01*
X192587000Y-113257000D01*
X192587000Y-114606250D01*
X192745750Y-114765000D01*
X194586309Y-114765000D01*
X194819698Y-114668327D01*
X194998327Y-114489699D01*
X195095000Y-114256310D01*
X195095000Y-113945866D01*
X214595000Y-113945866D01*
X214595000Y-114994134D01*
X214996155Y-115962608D01*
X215737392Y-116703845D01*
X216705866Y-117105000D01*
X217754134Y-117105000D01*
X218722608Y-116703845D01*
X219463845Y-115962608D01*
X219865000Y-114994134D01*
X219865000Y-113945866D01*
X219463845Y-112977392D01*
X218722608Y-112236155D01*
X217754134Y-111835000D01*
X216705866Y-111835000D01*
X215737392Y-112236155D01*
X214996155Y-112977392D01*
X214595000Y-113945866D01*
X195095000Y-113945866D01*
X195095000Y-113415750D01*
X194936250Y-113257000D01*
X192587000Y-113257000D01*
X192333000Y-113257000D01*
X189983750Y-113257000D01*
X189825000Y-113415750D01*
X178560092Y-113415750D01*
X178563394Y-110855608D01*
X185875428Y-110855608D01*
X185875428Y-111267356D01*
X186032997Y-111647762D01*
X186324148Y-111938913D01*
X186704554Y-112096482D01*
X187116302Y-112096482D01*
X187340322Y-112003690D01*
X189825000Y-112003690D01*
X189825000Y-112844250D01*
X189983750Y-113003000D01*
X192333000Y-113003000D01*
X192333000Y-111653750D01*
X192174250Y-111495000D01*
X190333691Y-111495000D01*
X190100302Y-111591673D01*
X189921673Y-111770301D01*
X189825000Y-112003690D01*
X187340322Y-112003690D01*
X187496708Y-111938913D01*
X187787859Y-111647762D01*
X187945428Y-111267356D01*
X187945428Y-110855608D01*
X187787859Y-110475202D01*
X187678265Y-110365608D01*
X192085428Y-110365608D01*
X192085428Y-110777356D01*
X192242997Y-111157762D01*
X192534148Y-111448913D01*
X192716362Y-111524388D01*
X192587000Y-111653750D01*
X192587000Y-113003000D01*
X194936250Y-113003000D01*
X195095000Y-112844250D01*
X195095000Y-112003690D01*
X194998327Y-111770301D01*
X194819698Y-111591673D01*
X194586309Y-111495000D01*
X193595444Y-111495000D01*
X193706708Y-111448913D01*
X193997859Y-111157762D01*
X194118692Y-110866043D01*
X199265428Y-110866043D01*
X199265428Y-111436921D01*
X199483894Y-111964344D01*
X199887566Y-112368016D01*
X200414989Y-112586482D01*
X200985867Y-112586482D01*
X201513290Y-112368016D01*
X201916962Y-111964344D01*
X202135428Y-111436921D01*
X202135428Y-110866043D01*
X201916962Y-110338620D01*
X201513290Y-109934948D01*
X200985867Y-109716482D01*
X200414989Y-109716482D01*
X199887566Y-109934948D01*
X199483894Y-110338620D01*
X199265428Y-110866043D01*
X194118692Y-110866043D01*
X194155428Y-110777356D01*
X194155428Y-110365608D01*
X193997859Y-109985202D01*
X193706708Y-109694051D01*
X193326302Y-109536482D01*
X192914554Y-109536482D01*
X192534148Y-109694051D01*
X192242997Y-109985202D01*
X192085428Y-110365608D01*
X187678265Y-110365608D01*
X187496708Y-110184051D01*
X187116302Y-110026482D01*
X186704554Y-110026482D01*
X186324148Y-110184051D01*
X186032997Y-110475202D01*
X185875428Y-110855608D01*
X178563394Y-110855608D01*
X178567000Y-108060164D01*
X178556972Y-108010538D01*
X178529140Y-107969540D01*
X178487737Y-107942313D01*
X178439067Y-107933003D01*
X140329067Y-108213003D01*
X140281097Y-108222793D01*
X140239966Y-108250429D01*
X140212542Y-108291702D01*
X140203000Y-108340327D01*
X140246158Y-125085768D01*
X128685220Y-125080033D01*
X128226713Y-125021662D01*
X127834415Y-124861127D01*
X127497029Y-124604526D01*
X127237554Y-124269346D01*
X127073670Y-123878430D01*
X127010455Y-123413620D01*
X127013755Y-117461482D01*
X128316336Y-117461482D01*
X128431589Y-118040900D01*
X128759803Y-118532107D01*
X129058189Y-118731482D01*
X128759803Y-118930857D01*
X128431589Y-119422064D01*
X128316336Y-120001482D01*
X128431589Y-120580900D01*
X128759803Y-121072107D01*
X128778047Y-121084298D01*
X128732663Y-121093325D01*
X128522619Y-121233673D01*
X128382271Y-121443717D01*
X128332988Y-121691482D01*
X128332988Y-123391482D01*
X128382271Y-123639247D01*
X128522619Y-123849291D01*
X128732663Y-123989639D01*
X128980428Y-124038922D01*
X130680428Y-124038922D01*
X130928193Y-123989639D01*
X131138237Y-123849291D01*
X131278585Y-123639247D01*
X131327868Y-123391482D01*
X131327868Y-121691482D01*
X131278585Y-121443717D01*
X131138237Y-121233673D01*
X130928193Y-121093325D01*
X130882809Y-121084298D01*
X130901053Y-121072107D01*
X131229267Y-120580900D01*
X131344520Y-120001482D01*
X131229267Y-119422064D01*
X130901053Y-118930857D01*
X130602667Y-118731482D01*
X130901053Y-118532107D01*
X131229267Y-118040900D01*
X131344520Y-117461482D01*
X131229267Y-116882064D01*
X130901053Y-116390857D01*
X130581950Y-116177639D01*
X130711786Y-116116665D01*
X131102073Y-115688406D01*
X131271904Y-115278372D01*
X131150583Y-115048482D01*
X129957428Y-115048482D01*
X129957428Y-115068482D01*
X129703428Y-115068482D01*
X129703428Y-115048482D01*
X128510273Y-115048482D01*
X128388952Y-115278372D01*
X128558783Y-115688406D01*
X128949070Y-116116665D01*
X129078906Y-116177639D01*
X128759803Y-116390857D01*
X128431589Y-116882064D01*
X128316336Y-117461482D01*
X127013755Y-117461482D01*
X127017980Y-109841482D01*
X128316336Y-109841482D01*
X128431589Y-110420900D01*
X128759803Y-110912107D01*
X129058189Y-111111482D01*
X128759803Y-111310857D01*
X128431589Y-111802064D01*
X128316336Y-112381482D01*
X128431589Y-112960900D01*
X128759803Y-113452107D01*
X129078906Y-113665325D01*
X128949070Y-113726299D01*
X128558783Y-114154558D01*
X128388952Y-114564592D01*
X128510273Y-114794482D01*
X129703428Y-114794482D01*
X129703428Y-114774482D01*
X129957428Y-114774482D01*
X129957428Y-114794482D01*
X131150583Y-114794482D01*
X131271904Y-114564592D01*
X131102073Y-114154558D01*
X130711786Y-113726299D01*
X130581950Y-113665325D01*
X130901053Y-113452107D01*
X131229267Y-112960900D01*
X131344520Y-112381482D01*
X131229267Y-111802064D01*
X130901053Y-111310857D01*
X130602667Y-111111482D01*
X130901053Y-110912107D01*
X131229267Y-110420900D01*
X131344520Y-109841482D01*
X131229267Y-109262064D01*
X130901053Y-108770857D01*
X130409846Y-108442643D01*
X129976684Y-108356482D01*
X129684172Y-108356482D01*
X129251010Y-108442643D01*
X128759803Y-108770857D01*
X128431589Y-109262064D01*
X128316336Y-109841482D01*
X127017980Y-109841482D01*
X127021243Y-103955608D01*
X148095428Y-103955608D01*
X148095428Y-104367356D01*
X148252997Y-104747762D01*
X148544148Y-105038913D01*
X148924554Y-105196482D01*
X149336302Y-105196482D01*
X149507064Y-105125750D01*
X155055000Y-105125750D01*
X155055000Y-105816310D01*
X155151673Y-106049699D01*
X155330302Y-106228327D01*
X155563691Y-106325000D01*
X156254250Y-106325000D01*
X156413000Y-106166250D01*
X156413000Y-104967000D01*
X156667000Y-104967000D01*
X156667000Y-106166250D01*
X156825750Y-106325000D01*
X157516309Y-106325000D01*
X157611066Y-106285750D01*
X162915000Y-106285750D01*
X162915000Y-106976309D01*
X163011673Y-107209698D01*
X163190301Y-107388327D01*
X163423690Y-107485000D01*
X164114250Y-107485000D01*
X164273000Y-107326250D01*
X164273000Y-106127000D01*
X163073750Y-106127000D01*
X162915000Y-106285750D01*
X157611066Y-106285750D01*
X157749698Y-106228327D01*
X157928327Y-106049699D01*
X158025000Y-105816310D01*
X158025000Y-105125750D01*
X157866250Y-104967000D01*
X156667000Y-104967000D01*
X156413000Y-104967000D01*
X155213750Y-104967000D01*
X155055000Y-105125750D01*
X149507064Y-105125750D01*
X149716708Y-105038913D01*
X149901495Y-104854126D01*
X160865000Y-104854126D01*
X160865000Y-105265874D01*
X161022569Y-105646280D01*
X161313720Y-105937431D01*
X161694126Y-106095000D01*
X162105874Y-106095000D01*
X162486280Y-105937431D01*
X162777431Y-105646280D01*
X162915000Y-105314158D01*
X162915000Y-105714250D01*
X163073750Y-105873000D01*
X164273000Y-105873000D01*
X164273000Y-104673750D01*
X164527000Y-104673750D01*
X164527000Y-105873000D01*
X164547000Y-105873000D01*
X164547000Y-106127000D01*
X164527000Y-106127000D01*
X164527000Y-107326250D01*
X164685750Y-107485000D01*
X165376310Y-107485000D01*
X165609699Y-107388327D01*
X165788327Y-107209698D01*
X165854904Y-107048967D01*
X165869375Y-107070625D01*
X166360582Y-107398839D01*
X166793744Y-107485000D01*
X167086256Y-107485000D01*
X167519418Y-107398839D01*
X168010625Y-107070625D01*
X168329011Y-106594126D01*
X178395000Y-106594126D01*
X178395000Y-107005874D01*
X178552569Y-107386280D01*
X178843720Y-107677431D01*
X179224126Y-107835000D01*
X179635874Y-107835000D01*
X180016280Y-107677431D01*
X180307431Y-107386280D01*
X180465000Y-107005874D01*
X180465000Y-106976124D01*
X201910428Y-106976124D01*
X201910428Y-107576840D01*
X202140312Y-108131828D01*
X202565082Y-108556598D01*
X203120070Y-108786482D01*
X203720786Y-108786482D01*
X204275774Y-108556598D01*
X204670428Y-108161944D01*
X205065082Y-108556598D01*
X205620070Y-108786482D01*
X206220786Y-108786482D01*
X206775774Y-108556598D01*
X207170428Y-108161944D01*
X207565082Y-108556598D01*
X208120070Y-108786482D01*
X208720786Y-108786482D01*
X209275774Y-108556598D01*
X209700544Y-108131828D01*
X209775501Y-107950866D01*
X223425000Y-107950866D01*
X223425000Y-108999134D01*
X223826155Y-109967608D01*
X224567392Y-110708845D01*
X225535866Y-111110000D01*
X226584134Y-111110000D01*
X227552608Y-110708845D01*
X228293845Y-109967608D01*
X228695000Y-108999134D01*
X228695000Y-107950866D01*
X228293845Y-106982392D01*
X227552608Y-106241155D01*
X226584134Y-105840000D01*
X225535866Y-105840000D01*
X224567392Y-106241155D01*
X223826155Y-106982392D01*
X223425000Y-107950866D01*
X209775501Y-107950866D01*
X209930428Y-107576840D01*
X209930428Y-106976124D01*
X209700544Y-106421136D01*
X209275774Y-105996366D01*
X208720786Y-105766482D01*
X208120070Y-105766482D01*
X207565082Y-105996366D01*
X207170428Y-106391020D01*
X206775774Y-105996366D01*
X206220786Y-105766482D01*
X205620070Y-105766482D01*
X205065082Y-105996366D01*
X204670428Y-106391020D01*
X204275774Y-105996366D01*
X203720786Y-105766482D01*
X203120070Y-105766482D01*
X202565082Y-105996366D01*
X202140312Y-106421136D01*
X201910428Y-106976124D01*
X180465000Y-106976124D01*
X180465000Y-106594126D01*
X180307431Y-106213720D01*
X180016280Y-105922569D01*
X179635874Y-105765000D01*
X179224126Y-105765000D01*
X178843720Y-105922569D01*
X178552569Y-106213720D01*
X178395000Y-106594126D01*
X168329011Y-106594126D01*
X168338839Y-106579418D01*
X168454092Y-106000000D01*
X168338839Y-105420582D01*
X168010625Y-104929375D01*
X167519418Y-104601161D01*
X167086256Y-104515000D01*
X166793744Y-104515000D01*
X166360582Y-104601161D01*
X165869375Y-104929375D01*
X165854904Y-104951033D01*
X165788327Y-104790302D01*
X165609699Y-104611673D01*
X165376310Y-104515000D01*
X164685750Y-104515000D01*
X164527000Y-104673750D01*
X164273000Y-104673750D01*
X164114250Y-104515000D01*
X163423690Y-104515000D01*
X163190301Y-104611673D01*
X163011673Y-104790302D01*
X162935000Y-104975407D01*
X162935000Y-104854126D01*
X162777431Y-104473720D01*
X162486280Y-104182569D01*
X162105874Y-104025000D01*
X161694126Y-104025000D01*
X161313720Y-104182569D01*
X161022569Y-104473720D01*
X160865000Y-104854126D01*
X149901495Y-104854126D01*
X150007859Y-104747762D01*
X150165428Y-104367356D01*
X150165428Y-103955608D01*
X150007859Y-103575202D01*
X149716708Y-103284051D01*
X149336302Y-103126482D01*
X148924554Y-103126482D01*
X148544148Y-103284051D01*
X148252997Y-103575202D01*
X148095428Y-103955608D01*
X127021243Y-103955608D01*
X127022026Y-102544126D01*
X130335000Y-102544126D01*
X130335000Y-102955874D01*
X130492569Y-103336280D01*
X130783720Y-103627431D01*
X131164126Y-103785000D01*
X131575874Y-103785000D01*
X131956280Y-103627431D01*
X132247431Y-103336280D01*
X132405000Y-102955874D01*
X132405000Y-102544126D01*
X132303880Y-102300000D01*
X155025908Y-102300000D01*
X155141161Y-102879418D01*
X155469375Y-103370625D01*
X155491033Y-103385096D01*
X155330302Y-103451673D01*
X155151673Y-103630301D01*
X155055000Y-103863690D01*
X155055000Y-104554250D01*
X155213750Y-104713000D01*
X156413000Y-104713000D01*
X156413000Y-104693000D01*
X156667000Y-104693000D01*
X156667000Y-104713000D01*
X157866250Y-104713000D01*
X158025000Y-104554250D01*
X158025000Y-103863690D01*
X157928327Y-103630301D01*
X157749698Y-103451673D01*
X157588967Y-103385096D01*
X157610625Y-103370625D01*
X157938839Y-102879418D01*
X158054092Y-102300000D01*
X157945512Y-101754126D01*
X193505000Y-101754126D01*
X193505000Y-102165874D01*
X193662569Y-102546280D01*
X193953720Y-102837431D01*
X194334126Y-102995000D01*
X194745874Y-102995000D01*
X195126280Y-102837431D01*
X195417431Y-102546280D01*
X195423708Y-102531124D01*
X201910428Y-102531124D01*
X201910428Y-103131840D01*
X202140312Y-103686828D01*
X202565082Y-104111598D01*
X203120070Y-104341482D01*
X203720786Y-104341482D01*
X204275774Y-104111598D01*
X204670428Y-103716944D01*
X205065082Y-104111598D01*
X205620070Y-104341482D01*
X206220786Y-104341482D01*
X206775774Y-104111598D01*
X207170428Y-103716944D01*
X207565082Y-104111598D01*
X208120070Y-104341482D01*
X208720786Y-104341482D01*
X209275774Y-104111598D01*
X209700544Y-103686828D01*
X209930428Y-103131840D01*
X209930428Y-102531124D01*
X209700544Y-101976136D01*
X209585274Y-101860866D01*
X214595000Y-101860866D01*
X214595000Y-102909134D01*
X214996155Y-103877608D01*
X215737392Y-104618845D01*
X216705866Y-105020000D01*
X217754134Y-105020000D01*
X218722608Y-104618845D01*
X219463845Y-103877608D01*
X219865000Y-102909134D01*
X219865000Y-101860866D01*
X219463845Y-100892392D01*
X218722608Y-100151155D01*
X217754134Y-99750000D01*
X216705866Y-99750000D01*
X215737392Y-100151155D01*
X214996155Y-100892392D01*
X214595000Y-101860866D01*
X209585274Y-101860866D01*
X209275774Y-101551366D01*
X208720786Y-101321482D01*
X208120070Y-101321482D01*
X207565082Y-101551366D01*
X207170428Y-101946020D01*
X206775774Y-101551366D01*
X206220786Y-101321482D01*
X205620070Y-101321482D01*
X205065082Y-101551366D01*
X204670428Y-101946020D01*
X204275774Y-101551366D01*
X203720786Y-101321482D01*
X203120070Y-101321482D01*
X202565082Y-101551366D01*
X202140312Y-101976136D01*
X201910428Y-102531124D01*
X195423708Y-102531124D01*
X195575000Y-102165874D01*
X195575000Y-101754126D01*
X195417431Y-101373720D01*
X195126280Y-101082569D01*
X194745874Y-100925000D01*
X194334126Y-100925000D01*
X193953720Y-101082569D01*
X193662569Y-101373720D01*
X193505000Y-101754126D01*
X157945512Y-101754126D01*
X157938839Y-101720582D01*
X157610625Y-101229375D01*
X157119418Y-100901161D01*
X156686256Y-100815000D01*
X156393744Y-100815000D01*
X155960582Y-100901161D01*
X155469375Y-101229375D01*
X155141161Y-101720582D01*
X155025908Y-102300000D01*
X132303880Y-102300000D01*
X132247431Y-102163720D01*
X131956280Y-101872569D01*
X131575874Y-101715000D01*
X131164126Y-101715000D01*
X130783720Y-101872569D01*
X130492569Y-102163720D01*
X130335000Y-102544126D01*
X127022026Y-102544126D01*
X127023916Y-99135608D01*
X130565428Y-99135608D01*
X130565428Y-99547356D01*
X130722997Y-99927762D01*
X131014148Y-100218913D01*
X131394554Y-100376482D01*
X131806302Y-100376482D01*
X132186708Y-100218913D01*
X132477859Y-99927762D01*
X132635428Y-99547356D01*
X132635428Y-99135608D01*
X132477859Y-98755202D01*
X132186708Y-98464051D01*
X131806302Y-98306482D01*
X131394554Y-98306482D01*
X131014148Y-98464051D01*
X130722997Y-98755202D01*
X130565428Y-99135608D01*
X127023916Y-99135608D01*
X127025224Y-96775608D01*
X136075428Y-96775608D01*
X136075428Y-97187356D01*
X136232997Y-97567762D01*
X136524148Y-97858913D01*
X136904554Y-98016482D01*
X136915428Y-98016482D01*
X136915428Y-98257356D01*
X137072997Y-98637762D01*
X137364148Y-98928913D01*
X137744554Y-99086482D01*
X138156302Y-99086482D01*
X138536708Y-98928913D01*
X138827859Y-98637762D01*
X138985428Y-98257356D01*
X138985428Y-97845608D01*
X138827859Y-97465202D01*
X138536708Y-97174051D01*
X138156302Y-97016482D01*
X138145428Y-97016482D01*
X138145428Y-96924126D01*
X144885000Y-96924126D01*
X144885000Y-97335874D01*
X145042569Y-97716280D01*
X145333720Y-98007431D01*
X145714126Y-98165000D01*
X146125874Y-98165000D01*
X146506280Y-98007431D01*
X146797431Y-97716280D01*
X146955000Y-97335874D01*
X146955000Y-96964126D01*
X166445000Y-96964126D01*
X166445000Y-97375874D01*
X166602569Y-97756280D01*
X166893720Y-98047431D01*
X167274126Y-98205000D01*
X167685874Y-98205000D01*
X168066280Y-98047431D01*
X168357431Y-97756280D01*
X168515000Y-97375874D01*
X168515000Y-97334126D01*
X180105000Y-97334126D01*
X180105000Y-97745874D01*
X180262569Y-98126280D01*
X180553720Y-98417431D01*
X180934126Y-98575000D01*
X181345874Y-98575000D01*
X181726280Y-98417431D01*
X182017431Y-98126280D01*
X182175000Y-97745874D01*
X182175000Y-97334126D01*
X182017431Y-96953720D01*
X181877837Y-96814126D01*
X188025000Y-96814126D01*
X188025000Y-97225874D01*
X188182569Y-97606280D01*
X188473720Y-97897431D01*
X188854126Y-98055000D01*
X189265874Y-98055000D01*
X189646280Y-97897431D01*
X189937431Y-97606280D01*
X190025307Y-97394126D01*
X193505000Y-97394126D01*
X193505000Y-97805874D01*
X193662569Y-98186280D01*
X193953720Y-98477431D01*
X194334126Y-98635000D01*
X194745874Y-98635000D01*
X195126280Y-98477431D01*
X195417431Y-98186280D01*
X195458916Y-98086124D01*
X201910428Y-98086124D01*
X201910428Y-98686840D01*
X202140312Y-99241828D01*
X202565082Y-99666598D01*
X203120070Y-99896482D01*
X203720786Y-99896482D01*
X204275774Y-99666598D01*
X204670428Y-99271944D01*
X205065082Y-99666598D01*
X205620070Y-99896482D01*
X206220786Y-99896482D01*
X206775774Y-99666598D01*
X207170428Y-99271944D01*
X207565082Y-99666598D01*
X208120070Y-99896482D01*
X208720786Y-99896482D01*
X209275774Y-99666598D01*
X209700544Y-99241828D01*
X209930428Y-98686840D01*
X209930428Y-98086124D01*
X209700544Y-97531136D01*
X209275774Y-97106366D01*
X208720786Y-96876482D01*
X208120070Y-96876482D01*
X207565082Y-97106366D01*
X207170428Y-97501020D01*
X206775774Y-97106366D01*
X206220786Y-96876482D01*
X205620070Y-96876482D01*
X205065082Y-97106366D01*
X204670428Y-97501020D01*
X204275774Y-97106366D01*
X203720786Y-96876482D01*
X203120070Y-96876482D01*
X202565082Y-97106366D01*
X202140312Y-97531136D01*
X201910428Y-98086124D01*
X195458916Y-98086124D01*
X195575000Y-97805874D01*
X195575000Y-97394126D01*
X195417431Y-97013720D01*
X195126280Y-96722569D01*
X194745874Y-96565000D01*
X194334126Y-96565000D01*
X193953720Y-96722569D01*
X193662569Y-97013720D01*
X193505000Y-97394126D01*
X190025307Y-97394126D01*
X190095000Y-97225874D01*
X190095000Y-96814126D01*
X189937431Y-96433720D01*
X189646280Y-96142569D01*
X189265874Y-95985000D01*
X188854126Y-95985000D01*
X188473720Y-96142569D01*
X188182569Y-96433720D01*
X188025000Y-96814126D01*
X181877837Y-96814126D01*
X181726280Y-96662569D01*
X181345874Y-96505000D01*
X180934126Y-96505000D01*
X180553720Y-96662569D01*
X180262569Y-96953720D01*
X180105000Y-97334126D01*
X168515000Y-97334126D01*
X168515000Y-96964126D01*
X168357431Y-96583720D01*
X168066280Y-96292569D01*
X167685874Y-96135000D01*
X167274126Y-96135000D01*
X166893720Y-96292569D01*
X166602569Y-96583720D01*
X166445000Y-96964126D01*
X146955000Y-96964126D01*
X146955000Y-96924126D01*
X146797431Y-96543720D01*
X146506280Y-96252569D01*
X146125874Y-96095000D01*
X145714126Y-96095000D01*
X145333720Y-96252569D01*
X145042569Y-96543720D01*
X144885000Y-96924126D01*
X138145428Y-96924126D01*
X138145428Y-96775608D01*
X137987859Y-96395202D01*
X137696708Y-96104051D01*
X137316302Y-95946482D01*
X136904554Y-95946482D01*
X136524148Y-96104051D01*
X136232997Y-96395202D01*
X136075428Y-96775608D01*
X127025224Y-96775608D01*
X127026418Y-94624126D01*
X134125000Y-94624126D01*
X134125000Y-95035874D01*
X134282569Y-95416280D01*
X134573720Y-95707431D01*
X134954126Y-95865000D01*
X135365874Y-95865000D01*
X135746280Y-95707431D01*
X136037431Y-95416280D01*
X136169889Y-95096496D01*
X140996316Y-95096496D01*
X140996316Y-95508244D01*
X141153885Y-95888650D01*
X141445036Y-96179801D01*
X141825442Y-96337370D01*
X142237190Y-96337370D01*
X142617596Y-96179801D01*
X142908747Y-95888650D01*
X143066316Y-95508244D01*
X143066316Y-95096496D01*
X142908747Y-94716090D01*
X142796783Y-94604126D01*
X144925000Y-94604126D01*
X144925000Y-95015874D01*
X145082569Y-95396280D01*
X145373720Y-95687431D01*
X145754126Y-95845000D01*
X146165874Y-95845000D01*
X146345000Y-95770804D01*
X146345000Y-95815874D01*
X146502569Y-96196280D01*
X146793720Y-96487431D01*
X147174126Y-96645000D01*
X147585874Y-96645000D01*
X147966280Y-96487431D01*
X148257431Y-96196280D01*
X148394292Y-95865866D01*
X223425000Y-95865866D01*
X223425000Y-96914134D01*
X223826155Y-97882608D01*
X224567392Y-98623845D01*
X225535866Y-99025000D01*
X226584134Y-99025000D01*
X227552608Y-98623845D01*
X228293845Y-97882608D01*
X228695000Y-96914134D01*
X228695000Y-95865866D01*
X228293845Y-94897392D01*
X227552608Y-94156155D01*
X226584134Y-93755000D01*
X225535866Y-93755000D01*
X224567392Y-94156155D01*
X223826155Y-94897392D01*
X223425000Y-95865866D01*
X148394292Y-95865866D01*
X148415000Y-95815874D01*
X148415000Y-95404126D01*
X148257431Y-95023720D01*
X147966280Y-94732569D01*
X147585874Y-94575000D01*
X147174126Y-94575000D01*
X146995000Y-94649196D01*
X146995000Y-94604126D01*
X146837431Y-94223720D01*
X146546280Y-93932569D01*
X146356902Y-93854126D01*
X163865000Y-93854126D01*
X163865000Y-94265874D01*
X164022569Y-94646280D01*
X164313720Y-94937431D01*
X164694126Y-95095000D01*
X165105874Y-95095000D01*
X165486280Y-94937431D01*
X165777431Y-94646280D01*
X165935000Y-94265874D01*
X165935000Y-94034126D01*
X169755000Y-94034126D01*
X169755000Y-94445874D01*
X169912569Y-94826280D01*
X170203720Y-95117431D01*
X170584126Y-95275000D01*
X170995874Y-95275000D01*
X171376280Y-95117431D01*
X171667431Y-94826280D01*
X171809155Y-94484126D01*
X173545000Y-94484126D01*
X173545000Y-94895874D01*
X173702569Y-95276280D01*
X173993720Y-95567431D01*
X174374126Y-95725000D01*
X174785874Y-95725000D01*
X175166280Y-95567431D01*
X175457431Y-95276280D01*
X175615000Y-94895874D01*
X175615000Y-94484126D01*
X175457431Y-94103720D01*
X175166280Y-93812569D01*
X174785874Y-93655000D01*
X174374126Y-93655000D01*
X173993720Y-93812569D01*
X173702569Y-94103720D01*
X173545000Y-94484126D01*
X171809155Y-94484126D01*
X171825000Y-94445874D01*
X171825000Y-94034126D01*
X171667431Y-93653720D01*
X171397837Y-93384126D01*
X181645000Y-93384126D01*
X181645000Y-93795874D01*
X181802569Y-94176280D01*
X182093720Y-94467431D01*
X182474126Y-94625000D01*
X182885874Y-94625000D01*
X183266280Y-94467431D01*
X183557431Y-94176280D01*
X183715000Y-93795874D01*
X183715000Y-93384126D01*
X183578310Y-93054126D01*
X193515000Y-93054126D01*
X193515000Y-93465874D01*
X193672569Y-93846280D01*
X193963720Y-94137431D01*
X194344126Y-94295000D01*
X194755874Y-94295000D01*
X195136280Y-94137431D01*
X195427431Y-93846280D01*
X195512409Y-93641124D01*
X201910428Y-93641124D01*
X201910428Y-94241840D01*
X202140312Y-94796828D01*
X202565082Y-95221598D01*
X203120070Y-95451482D01*
X203720786Y-95451482D01*
X204275774Y-95221598D01*
X204670428Y-94826944D01*
X205065082Y-95221598D01*
X205620070Y-95451482D01*
X206220786Y-95451482D01*
X206775774Y-95221598D01*
X207170428Y-94826944D01*
X207565082Y-95221598D01*
X208120070Y-95451482D01*
X208720786Y-95451482D01*
X209275774Y-95221598D01*
X209700544Y-94796828D01*
X209930428Y-94241840D01*
X209930428Y-93641124D01*
X209700544Y-93086136D01*
X209275774Y-92661366D01*
X208720786Y-92431482D01*
X208120070Y-92431482D01*
X207565082Y-92661366D01*
X207170428Y-93056020D01*
X206775774Y-92661366D01*
X206220786Y-92431482D01*
X205620070Y-92431482D01*
X205065082Y-92661366D01*
X204670428Y-93056020D01*
X204275774Y-92661366D01*
X203720786Y-92431482D01*
X203120070Y-92431482D01*
X202565082Y-92661366D01*
X202140312Y-93086136D01*
X201910428Y-93641124D01*
X195512409Y-93641124D01*
X195585000Y-93465874D01*
X195585000Y-93054126D01*
X195427431Y-92673720D01*
X195136280Y-92382569D01*
X194755874Y-92225000D01*
X194344126Y-92225000D01*
X193963720Y-92382569D01*
X193672569Y-92673720D01*
X193515000Y-93054126D01*
X183578310Y-93054126D01*
X183557431Y-93003720D01*
X183266280Y-92712569D01*
X182885874Y-92555000D01*
X182474126Y-92555000D01*
X182093720Y-92712569D01*
X181802569Y-93003720D01*
X181645000Y-93384126D01*
X171397837Y-93384126D01*
X171376280Y-93362569D01*
X170995874Y-93205000D01*
X170584126Y-93205000D01*
X170203720Y-93362569D01*
X169912569Y-93653720D01*
X169755000Y-94034126D01*
X165935000Y-94034126D01*
X165935000Y-93854126D01*
X165777431Y-93473720D01*
X165486280Y-93182569D01*
X165105874Y-93025000D01*
X164694126Y-93025000D01*
X164313720Y-93182569D01*
X164022569Y-93473720D01*
X163865000Y-93854126D01*
X146356902Y-93854126D01*
X146165874Y-93775000D01*
X145754126Y-93775000D01*
X145373720Y-93932569D01*
X145082569Y-94223720D01*
X144925000Y-94604126D01*
X142796783Y-94604126D01*
X142617596Y-94424939D01*
X142237190Y-94267370D01*
X141825442Y-94267370D01*
X141445036Y-94424939D01*
X141153885Y-94716090D01*
X140996316Y-95096496D01*
X136169889Y-95096496D01*
X136195000Y-95035874D01*
X136195000Y-94624126D01*
X136037431Y-94243720D01*
X135746280Y-93952569D01*
X135365874Y-93795000D01*
X134954126Y-93795000D01*
X134573720Y-93952569D01*
X134282569Y-94243720D01*
X134125000Y-94624126D01*
X127026418Y-94624126D01*
X127028508Y-90855608D01*
X128515428Y-90855608D01*
X128515428Y-91267356D01*
X128672997Y-91647762D01*
X128964148Y-91938913D01*
X129344554Y-92096482D01*
X129756302Y-92096482D01*
X130136708Y-91938913D01*
X130427859Y-91647762D01*
X130585428Y-91267356D01*
X130585428Y-90885608D01*
X131145428Y-90885608D01*
X131145428Y-91297356D01*
X131302997Y-91677762D01*
X131594148Y-91968913D01*
X131974554Y-92126482D01*
X132386302Y-92126482D01*
X132391989Y-92124126D01*
X153205000Y-92124126D01*
X153205000Y-92535874D01*
X153362569Y-92916280D01*
X153653720Y-93207431D01*
X154034126Y-93365000D01*
X154445874Y-93365000D01*
X154826280Y-93207431D01*
X155117431Y-92916280D01*
X155275000Y-92535874D01*
X155275000Y-92124126D01*
X155117431Y-91743720D01*
X154826280Y-91452569D01*
X154445874Y-91295000D01*
X154034126Y-91295000D01*
X153653720Y-91452569D01*
X153362569Y-91743720D01*
X153205000Y-92124126D01*
X132391989Y-92124126D01*
X132766708Y-91968913D01*
X133057859Y-91677762D01*
X133215428Y-91297356D01*
X133215428Y-90885608D01*
X133057859Y-90505202D01*
X132766708Y-90214051D01*
X132386302Y-90056482D01*
X131974554Y-90056482D01*
X131594148Y-90214051D01*
X131302997Y-90505202D01*
X131145428Y-90885608D01*
X130585428Y-90885608D01*
X130585428Y-90855608D01*
X130427859Y-90475202D01*
X130136708Y-90184051D01*
X129756302Y-90026482D01*
X129344554Y-90026482D01*
X128964148Y-90184051D01*
X128672997Y-90475202D01*
X128515428Y-90855608D01*
X127028508Y-90855608D01*
X127029677Y-88745608D01*
X149535428Y-88745608D01*
X149535428Y-89157356D01*
X149692997Y-89537762D01*
X149984148Y-89828913D01*
X150364554Y-89986482D01*
X150776302Y-89986482D01*
X151156708Y-89828913D01*
X151402705Y-89582916D01*
X151412997Y-89607762D01*
X151704148Y-89898913D01*
X152084554Y-90056482D01*
X152496302Y-90056482D01*
X152876708Y-89898913D01*
X153167859Y-89607762D01*
X153311906Y-89260000D01*
X157475908Y-89260000D01*
X157591161Y-89839418D01*
X157919375Y-90330625D01*
X158217761Y-90530000D01*
X157919375Y-90729375D01*
X157591161Y-91220582D01*
X157475908Y-91800000D01*
X157591161Y-92379418D01*
X157919375Y-92870625D01*
X158410582Y-93198839D01*
X158843744Y-93285000D01*
X159136256Y-93285000D01*
X159569418Y-93198839D01*
X160060625Y-92870625D01*
X160072816Y-92852381D01*
X160081843Y-92897765D01*
X160222191Y-93107809D01*
X160432235Y-93248157D01*
X160680000Y-93297440D01*
X162380000Y-93297440D01*
X162627765Y-93248157D01*
X162837809Y-93107809D01*
X162978157Y-92897765D01*
X163027440Y-92650000D01*
X163027440Y-90950000D01*
X162978157Y-90702235D01*
X162837809Y-90492191D01*
X162627765Y-90351843D01*
X162582381Y-90342816D01*
X162600625Y-90330625D01*
X162928839Y-89839418D01*
X163044092Y-89260000D01*
X163036957Y-89224126D01*
X167605000Y-89224126D01*
X167605000Y-89635874D01*
X167762569Y-90016280D01*
X168053720Y-90307431D01*
X168365000Y-90436367D01*
X168365000Y-90565874D01*
X168522569Y-90946280D01*
X168536289Y-90960000D01*
X168392569Y-91103720D01*
X168235000Y-91484126D01*
X168235000Y-91895874D01*
X168392569Y-92276280D01*
X168683720Y-92567431D01*
X169064126Y-92725000D01*
X169475874Y-92725000D01*
X169856280Y-92567431D01*
X170147431Y-92276280D01*
X170305000Y-91895874D01*
X170305000Y-91484126D01*
X170147431Y-91103720D01*
X170133711Y-91090000D01*
X170277431Y-90946280D01*
X170435000Y-90565874D01*
X170435000Y-90164126D01*
X172735000Y-90164126D01*
X172735000Y-90575874D01*
X172892569Y-90956280D01*
X173183720Y-91247431D01*
X173485000Y-91372225D01*
X173485000Y-91445874D01*
X173642569Y-91826280D01*
X173933720Y-92117431D01*
X174314126Y-92275000D01*
X174725874Y-92275000D01*
X175106280Y-92117431D01*
X175397431Y-91826280D01*
X175431460Y-91744126D01*
X180315000Y-91744126D01*
X180315000Y-92155874D01*
X180472569Y-92536280D01*
X180763720Y-92827431D01*
X181144126Y-92985000D01*
X181555874Y-92985000D01*
X181936280Y-92827431D01*
X182227431Y-92536280D01*
X182385000Y-92155874D01*
X182385000Y-91744126D01*
X182227431Y-91363720D01*
X181936280Y-91072569D01*
X181555874Y-90915000D01*
X181144126Y-90915000D01*
X180763720Y-91072569D01*
X180472569Y-91363720D01*
X180315000Y-91744126D01*
X175431460Y-91744126D01*
X175555000Y-91445874D01*
X175555000Y-91034126D01*
X175397431Y-90653720D01*
X175274363Y-90530652D01*
X175306280Y-90517431D01*
X175597431Y-90226280D01*
X175755000Y-89845874D01*
X175755000Y-89434126D01*
X175597431Y-89053720D01*
X175306280Y-88762569D01*
X174925874Y-88605000D01*
X174514126Y-88605000D01*
X174133720Y-88762569D01*
X173842569Y-89053720D01*
X173726059Y-89335000D01*
X173564126Y-89335000D01*
X173183720Y-89492569D01*
X172892569Y-89783720D01*
X172735000Y-90164126D01*
X170435000Y-90164126D01*
X170435000Y-90154126D01*
X170277431Y-89773720D01*
X169986280Y-89482569D01*
X169675000Y-89353633D01*
X169675000Y-89224126D01*
X169517431Y-88843720D01*
X169468711Y-88795000D01*
X169687431Y-88576280D01*
X169845000Y-88195874D01*
X169845000Y-87784126D01*
X169687431Y-87403720D01*
X169396280Y-87112569D01*
X169015874Y-86955000D01*
X168604126Y-86955000D01*
X168223720Y-87112569D01*
X167932569Y-87403720D01*
X167775000Y-87784126D01*
X167775000Y-88195874D01*
X167932569Y-88576280D01*
X167981289Y-88625000D01*
X167762569Y-88843720D01*
X167605000Y-89224126D01*
X163036957Y-89224126D01*
X162928839Y-88680582D01*
X162600625Y-88189375D01*
X162302239Y-87990000D01*
X162600625Y-87790625D01*
X162928839Y-87299418D01*
X163044092Y-86720000D01*
X162928839Y-86140582D01*
X162600625Y-85649375D01*
X162413177Y-85524126D01*
X169855000Y-85524126D01*
X169855000Y-85935874D01*
X170012569Y-86316280D01*
X170303720Y-86607431D01*
X170684126Y-86765000D01*
X171095874Y-86765000D01*
X171476280Y-86607431D01*
X171767431Y-86316280D01*
X171909155Y-85974126D01*
X180325000Y-85974126D01*
X180325000Y-86385874D01*
X180482569Y-86766280D01*
X180773720Y-87057431D01*
X181045000Y-87169799D01*
X181045000Y-87265874D01*
X181202569Y-87646280D01*
X181493720Y-87937431D01*
X181705000Y-88024946D01*
X181705000Y-88035874D01*
X181862569Y-88416280D01*
X182153720Y-88707431D01*
X182285000Y-88761809D01*
X182285000Y-88875874D01*
X182442569Y-89256280D01*
X182733720Y-89547431D01*
X183114126Y-89705000D01*
X183117557Y-89705000D01*
X182833720Y-89822569D01*
X182542569Y-90113720D01*
X182385000Y-90494126D01*
X182385000Y-90905874D01*
X182542569Y-91286280D01*
X182833720Y-91577431D01*
X183214126Y-91735000D01*
X183625874Y-91735000D01*
X184006280Y-91577431D01*
X184297431Y-91286280D01*
X184455000Y-90905874D01*
X184455000Y-90494126D01*
X184297431Y-90113720D01*
X184006280Y-89822569D01*
X183625874Y-89665000D01*
X183622443Y-89665000D01*
X183906280Y-89547431D01*
X184197431Y-89256280D01*
X184322587Y-88954126D01*
X188235000Y-88954126D01*
X188235000Y-89365874D01*
X188392569Y-89746280D01*
X188683720Y-90037431D01*
X189064126Y-90195000D01*
X189475874Y-90195000D01*
X189856280Y-90037431D01*
X190147431Y-89746280D01*
X190305000Y-89365874D01*
X190305000Y-88954126D01*
X190147431Y-88573720D01*
X190077837Y-88504126D01*
X193515000Y-88504126D01*
X193515000Y-88915874D01*
X193672569Y-89296280D01*
X193963720Y-89587431D01*
X194344126Y-89745000D01*
X194755874Y-89745000D01*
X195136280Y-89587431D01*
X195427431Y-89296280D01*
X195468916Y-89196124D01*
X201910428Y-89196124D01*
X201910428Y-89796840D01*
X202140312Y-90351828D01*
X202565082Y-90776598D01*
X203120070Y-91006482D01*
X203720786Y-91006482D01*
X204275774Y-90776598D01*
X204670428Y-90381944D01*
X205065082Y-90776598D01*
X205620070Y-91006482D01*
X206220786Y-91006482D01*
X206775774Y-90776598D01*
X207170428Y-90381944D01*
X207565082Y-90776598D01*
X208120070Y-91006482D01*
X208720786Y-91006482D01*
X209275774Y-90776598D01*
X209700544Y-90351828D01*
X209930428Y-89796840D01*
X209930428Y-89775866D01*
X214595000Y-89775866D01*
X214595000Y-90824134D01*
X214996155Y-91792608D01*
X215737392Y-92533845D01*
X216705866Y-92935000D01*
X217754134Y-92935000D01*
X218722608Y-92533845D01*
X219463845Y-91792608D01*
X219865000Y-90824134D01*
X219865000Y-89775866D01*
X219463845Y-88807392D01*
X218722608Y-88066155D01*
X217754134Y-87665000D01*
X216705866Y-87665000D01*
X215737392Y-88066155D01*
X214996155Y-88807392D01*
X214595000Y-89775866D01*
X209930428Y-89775866D01*
X209930428Y-89196124D01*
X209700544Y-88641136D01*
X209275774Y-88216366D01*
X208720786Y-87986482D01*
X208120070Y-87986482D01*
X207565082Y-88216366D01*
X207170428Y-88611020D01*
X206775774Y-88216366D01*
X206220786Y-87986482D01*
X205620070Y-87986482D01*
X205065082Y-88216366D01*
X204670428Y-88611020D01*
X204275774Y-88216366D01*
X203720786Y-87986482D01*
X203120070Y-87986482D01*
X202565082Y-88216366D01*
X202140312Y-88641136D01*
X201910428Y-89196124D01*
X195468916Y-89196124D01*
X195585000Y-88915874D01*
X195585000Y-88504126D01*
X195427431Y-88123720D01*
X195136280Y-87832569D01*
X194755874Y-87675000D01*
X194344126Y-87675000D01*
X193963720Y-87832569D01*
X193672569Y-88123720D01*
X193515000Y-88504126D01*
X190077837Y-88504126D01*
X189856280Y-88282569D01*
X189475874Y-88125000D01*
X189064126Y-88125000D01*
X188683720Y-88282569D01*
X188392569Y-88573720D01*
X188235000Y-88954126D01*
X184322587Y-88954126D01*
X184355000Y-88875874D01*
X184355000Y-88464126D01*
X184197431Y-88083720D01*
X183906280Y-87792569D01*
X183775000Y-87738191D01*
X183775000Y-87624126D01*
X183617431Y-87243720D01*
X183326280Y-86952569D01*
X183115000Y-86865054D01*
X183115000Y-86854126D01*
X182957431Y-86473720D01*
X182666280Y-86182569D01*
X182395000Y-86070201D01*
X182395000Y-85974126D01*
X182237431Y-85593720D01*
X181946280Y-85302569D01*
X181565874Y-85145000D01*
X181154126Y-85145000D01*
X180773720Y-85302569D01*
X180482569Y-85593720D01*
X180325000Y-85974126D01*
X171909155Y-85974126D01*
X171925000Y-85935874D01*
X171925000Y-85524126D01*
X171767431Y-85143720D01*
X171476280Y-84852569D01*
X171095874Y-84695000D01*
X170684126Y-84695000D01*
X170303720Y-84852569D01*
X170012569Y-85143720D01*
X169855000Y-85524126D01*
X162413177Y-85524126D01*
X162109418Y-85321161D01*
X161676256Y-85235000D01*
X161383744Y-85235000D01*
X160950582Y-85321161D01*
X160459375Y-85649375D01*
X160258647Y-85949786D01*
X159871358Y-85524817D01*
X159346892Y-85278514D01*
X159117000Y-85399181D01*
X159117000Y-86593000D01*
X159137000Y-86593000D01*
X159137000Y-86847000D01*
X159117000Y-86847000D01*
X159117000Y-86867000D01*
X158863000Y-86867000D01*
X158863000Y-86847000D01*
X157669845Y-86847000D01*
X157548524Y-87076890D01*
X157718355Y-87486924D01*
X158108642Y-87915183D01*
X158238478Y-87976157D01*
X157919375Y-88189375D01*
X157591161Y-88680582D01*
X157475908Y-89260000D01*
X153311906Y-89260000D01*
X153325428Y-89227356D01*
X153325428Y-88815608D01*
X153167859Y-88435202D01*
X152876708Y-88144051D01*
X152496302Y-87986482D01*
X152084554Y-87986482D01*
X151704148Y-88144051D01*
X151458151Y-88390048D01*
X151447859Y-88365202D01*
X151156708Y-88074051D01*
X150776302Y-87916482D01*
X150364554Y-87916482D01*
X149984148Y-88074051D01*
X149692997Y-88365202D01*
X149535428Y-88745608D01*
X127029677Y-88745608D01*
X127030998Y-86363110D01*
X157548524Y-86363110D01*
X157669845Y-86593000D01*
X158863000Y-86593000D01*
X158863000Y-85399181D01*
X158633108Y-85278514D01*
X158108642Y-85524817D01*
X157718355Y-85953076D01*
X157548524Y-86363110D01*
X127030998Y-86363110D01*
X127033876Y-81174126D01*
X136895000Y-81174126D01*
X136895000Y-81585874D01*
X137052569Y-81966280D01*
X137343720Y-82257431D01*
X137724126Y-82415000D01*
X138135874Y-82415000D01*
X138516280Y-82257431D01*
X138807431Y-81966280D01*
X138965000Y-81585874D01*
X138965000Y-81465608D01*
X140635428Y-81465608D01*
X140635428Y-81877356D01*
X140792997Y-82257762D01*
X141084148Y-82548913D01*
X141464554Y-82706482D01*
X141876302Y-82706482D01*
X142256708Y-82548913D01*
X142547859Y-82257762D01*
X142702009Y-81885608D01*
X171905428Y-81885608D01*
X171905428Y-82297356D01*
X172062997Y-82677762D01*
X172354148Y-82968913D01*
X172734554Y-83126482D01*
X173146302Y-83126482D01*
X173200274Y-83104126D01*
X189175000Y-83104126D01*
X189175000Y-83515874D01*
X189332569Y-83896280D01*
X189623720Y-84187431D01*
X190004126Y-84345000D01*
X190415874Y-84345000D01*
X190796280Y-84187431D01*
X191039585Y-83944126D01*
X193525000Y-83944126D01*
X193525000Y-84355874D01*
X193682569Y-84736280D01*
X193973720Y-85027431D01*
X194354126Y-85185000D01*
X194765874Y-85185000D01*
X195146280Y-85027431D01*
X195422587Y-84751124D01*
X201910428Y-84751124D01*
X201910428Y-85351840D01*
X202140312Y-85906828D01*
X202565082Y-86331598D01*
X203120070Y-86561482D01*
X203720786Y-86561482D01*
X204275774Y-86331598D01*
X204670428Y-85936944D01*
X205065082Y-86331598D01*
X205620070Y-86561482D01*
X206220786Y-86561482D01*
X206775774Y-86331598D01*
X207170428Y-85936944D01*
X207565082Y-86331598D01*
X208120070Y-86561482D01*
X208720786Y-86561482D01*
X209275774Y-86331598D01*
X209700544Y-85906828D01*
X209930428Y-85351840D01*
X209930428Y-84751124D01*
X209700544Y-84196136D01*
X209285274Y-83780866D01*
X223425000Y-83780866D01*
X223425000Y-84829134D01*
X223826155Y-85797608D01*
X224567392Y-86538845D01*
X225535866Y-86940000D01*
X226584134Y-86940000D01*
X227552608Y-86538845D01*
X228293845Y-85797608D01*
X228695000Y-84829134D01*
X228695000Y-83780866D01*
X228293845Y-82812392D01*
X227552608Y-82071155D01*
X226584134Y-81670000D01*
X225535866Y-81670000D01*
X224567392Y-82071155D01*
X223826155Y-82812392D01*
X223425000Y-83780866D01*
X209285274Y-83780866D01*
X209275774Y-83771366D01*
X208720786Y-83541482D01*
X208120070Y-83541482D01*
X207565082Y-83771366D01*
X207170428Y-84166020D01*
X206775774Y-83771366D01*
X206220786Y-83541482D01*
X205620070Y-83541482D01*
X205065082Y-83771366D01*
X204670428Y-84166020D01*
X204275774Y-83771366D01*
X203720786Y-83541482D01*
X203120070Y-83541482D01*
X202565082Y-83771366D01*
X202140312Y-84196136D01*
X201910428Y-84751124D01*
X195422587Y-84751124D01*
X195437431Y-84736280D01*
X195595000Y-84355874D01*
X195595000Y-83944126D01*
X195437431Y-83563720D01*
X195146280Y-83272569D01*
X194765874Y-83115000D01*
X194354126Y-83115000D01*
X193973720Y-83272569D01*
X193682569Y-83563720D01*
X193525000Y-83944126D01*
X191039585Y-83944126D01*
X191087431Y-83896280D01*
X191245000Y-83515874D01*
X191245000Y-83104126D01*
X191087431Y-82723720D01*
X190796280Y-82432569D01*
X190415874Y-82275000D01*
X190004126Y-82275000D01*
X189623720Y-82432569D01*
X189332569Y-82723720D01*
X189175000Y-83104126D01*
X173200274Y-83104126D01*
X173526708Y-82968913D01*
X173817859Y-82677762D01*
X173975428Y-82297356D01*
X173975428Y-81885608D01*
X173817859Y-81505202D01*
X173526708Y-81214051D01*
X173146302Y-81056482D01*
X172734554Y-81056482D01*
X172354148Y-81214051D01*
X172062997Y-81505202D01*
X171905428Y-81885608D01*
X142702009Y-81885608D01*
X142705428Y-81877356D01*
X142705428Y-81465608D01*
X142547859Y-81085202D01*
X142256708Y-80794051D01*
X141876302Y-80636482D01*
X141464554Y-80636482D01*
X141084148Y-80794051D01*
X140792997Y-81085202D01*
X140635428Y-81465608D01*
X138965000Y-81465608D01*
X138965000Y-81174126D01*
X138807431Y-80793720D01*
X138516280Y-80502569D01*
X138135874Y-80345000D01*
X137724126Y-80345000D01*
X137343720Y-80502569D01*
X137052569Y-80793720D01*
X136895000Y-81174126D01*
X127033876Y-81174126D01*
X127034752Y-79596264D01*
X127104126Y-79625000D01*
X127515874Y-79625000D01*
X127896280Y-79467431D01*
X128187431Y-79176280D01*
X128345000Y-78795874D01*
X128345000Y-78384126D01*
X128249732Y-78154126D01*
X129185000Y-78154126D01*
X129185000Y-78565874D01*
X129342569Y-78946280D01*
X129633720Y-79237431D01*
X130014126Y-79395000D01*
X130425874Y-79395000D01*
X130806280Y-79237431D01*
X131097431Y-78946280D01*
X131143272Y-78835608D01*
X133735428Y-78835608D01*
X133735428Y-79247356D01*
X133892997Y-79627762D01*
X134184148Y-79918913D01*
X134564554Y-80076482D01*
X134976302Y-80076482D01*
X135356708Y-79918913D01*
X135620013Y-79655608D01*
X174385428Y-79655608D01*
X174385428Y-80067356D01*
X174542997Y-80447762D01*
X174834148Y-80738913D01*
X175214554Y-80896482D01*
X175626302Y-80896482D01*
X176006708Y-80738913D01*
X176297859Y-80447762D01*
X176455428Y-80067356D01*
X176455428Y-79655608D01*
X176413393Y-79554126D01*
X193505000Y-79554126D01*
X193505000Y-79965874D01*
X193662569Y-80346280D01*
X193953720Y-80637431D01*
X194334126Y-80795000D01*
X194745874Y-80795000D01*
X195126280Y-80637431D01*
X195417431Y-80346280D01*
X195434064Y-80306124D01*
X201910428Y-80306124D01*
X201910428Y-80906840D01*
X202140312Y-81461828D01*
X202565082Y-81886598D01*
X203120070Y-82116482D01*
X203720786Y-82116482D01*
X204275774Y-81886598D01*
X204670428Y-81491944D01*
X205065082Y-81886598D01*
X205620070Y-82116482D01*
X206220786Y-82116482D01*
X206775774Y-81886598D01*
X207170428Y-81491944D01*
X207565082Y-81886598D01*
X208120070Y-82116482D01*
X208720786Y-82116482D01*
X209275774Y-81886598D01*
X209700544Y-81461828D01*
X209930428Y-80906840D01*
X209930428Y-80306124D01*
X209700544Y-79751136D01*
X209275774Y-79326366D01*
X208720786Y-79096482D01*
X208120070Y-79096482D01*
X207565082Y-79326366D01*
X207170428Y-79721020D01*
X206775774Y-79326366D01*
X206220786Y-79096482D01*
X205620070Y-79096482D01*
X205065082Y-79326366D01*
X204670428Y-79721020D01*
X204275774Y-79326366D01*
X203720786Y-79096482D01*
X203120070Y-79096482D01*
X202565082Y-79326366D01*
X202140312Y-79751136D01*
X201910428Y-80306124D01*
X195434064Y-80306124D01*
X195575000Y-79965874D01*
X195575000Y-79554126D01*
X195417431Y-79173720D01*
X195126280Y-78882569D01*
X194745874Y-78725000D01*
X194334126Y-78725000D01*
X193953720Y-78882569D01*
X193662569Y-79173720D01*
X193505000Y-79554126D01*
X176413393Y-79554126D01*
X176297859Y-79275202D01*
X176006708Y-78984051D01*
X175626302Y-78826482D01*
X175214554Y-78826482D01*
X174834148Y-78984051D01*
X174542997Y-79275202D01*
X174385428Y-79655608D01*
X135620013Y-79655608D01*
X135647859Y-79627762D01*
X135805428Y-79247356D01*
X135805428Y-78835608D01*
X135647859Y-78455202D01*
X135356708Y-78164051D01*
X134976302Y-78006482D01*
X134564554Y-78006482D01*
X134184148Y-78164051D01*
X133892997Y-78455202D01*
X133735428Y-78835608D01*
X131143272Y-78835608D01*
X131255000Y-78565874D01*
X131255000Y-78154126D01*
X131097431Y-77773720D01*
X130806280Y-77482569D01*
X130425874Y-77325000D01*
X130014126Y-77325000D01*
X129633720Y-77482569D01*
X129342569Y-77773720D01*
X129185000Y-78154126D01*
X128249732Y-78154126D01*
X128187431Y-78003720D01*
X127896280Y-77712569D01*
X127515874Y-77555000D01*
X127104126Y-77555000D01*
X127035868Y-77583273D01*
X127036017Y-77314126D01*
X138665000Y-77314126D01*
X138665000Y-77725874D01*
X138822569Y-78106280D01*
X139113720Y-78397431D01*
X139494126Y-78555000D01*
X139905874Y-78555000D01*
X140286280Y-78397431D01*
X140577431Y-78106280D01*
X140735000Y-77725874D01*
X140735000Y-77690866D01*
X214595000Y-77690866D01*
X214595000Y-78739134D01*
X214996155Y-79707608D01*
X215737392Y-80448845D01*
X216705866Y-80850000D01*
X217754134Y-80850000D01*
X218722608Y-80448845D01*
X219463845Y-79707608D01*
X219865000Y-78739134D01*
X219865000Y-77690866D01*
X219463845Y-76722392D01*
X218722608Y-75981155D01*
X217754134Y-75580000D01*
X216705866Y-75580000D01*
X215737392Y-75981155D01*
X214996155Y-76722392D01*
X214595000Y-77690866D01*
X140735000Y-77690866D01*
X140735000Y-77314126D01*
X140577431Y-76933720D01*
X140286280Y-76642569D01*
X139905874Y-76485000D01*
X139494126Y-76485000D01*
X139113720Y-76642569D01*
X138822569Y-76933720D01*
X138665000Y-77314126D01*
X127036017Y-77314126D01*
X127037319Y-74965608D01*
X155295428Y-74965608D01*
X155295428Y-75377356D01*
X155452997Y-75757762D01*
X155744148Y-76048913D01*
X156124554Y-76206482D01*
X156536302Y-76206482D01*
X156916708Y-76048913D01*
X157207859Y-75757762D01*
X157365428Y-75377356D01*
X157365428Y-75184126D01*
X193495000Y-75184126D01*
X193495000Y-75595874D01*
X193652569Y-75976280D01*
X193943720Y-76267431D01*
X194324126Y-76425000D01*
X194735874Y-76425000D01*
X195116280Y-76267431D01*
X195407431Y-75976280D01*
X195455130Y-75861124D01*
X201910428Y-75861124D01*
X201910428Y-76461840D01*
X202140312Y-77016828D01*
X202565082Y-77441598D01*
X203120070Y-77671482D01*
X203720786Y-77671482D01*
X204275774Y-77441598D01*
X204670428Y-77046944D01*
X205065082Y-77441598D01*
X205620070Y-77671482D01*
X206220786Y-77671482D01*
X206775774Y-77441598D01*
X207170428Y-77046944D01*
X207565082Y-77441598D01*
X208120070Y-77671482D01*
X208720786Y-77671482D01*
X209275774Y-77441598D01*
X209700544Y-77016828D01*
X209930428Y-76461840D01*
X209930428Y-75861124D01*
X209700544Y-75306136D01*
X209275774Y-74881366D01*
X208720786Y-74651482D01*
X208120070Y-74651482D01*
X207565082Y-74881366D01*
X207170428Y-75276020D01*
X206775774Y-74881366D01*
X206220786Y-74651482D01*
X205620070Y-74651482D01*
X205065082Y-74881366D01*
X204670428Y-75276020D01*
X204275774Y-74881366D01*
X203720786Y-74651482D01*
X203120070Y-74651482D01*
X202565082Y-74881366D01*
X202140312Y-75306136D01*
X201910428Y-75861124D01*
X195455130Y-75861124D01*
X195565000Y-75595874D01*
X195565000Y-75184126D01*
X195407431Y-74803720D01*
X195116280Y-74512569D01*
X194735874Y-74355000D01*
X194324126Y-74355000D01*
X193943720Y-74512569D01*
X193652569Y-74803720D01*
X193495000Y-75184126D01*
X157365428Y-75184126D01*
X157365428Y-74965608D01*
X157207859Y-74585202D01*
X156916708Y-74294051D01*
X156536302Y-74136482D01*
X156124554Y-74136482D01*
X155744148Y-74294051D01*
X155452997Y-74585202D01*
X155295428Y-74965608D01*
X127037319Y-74965608D01*
X127038489Y-72857245D01*
X133856843Y-72857245D01*
X133856843Y-73132245D01*
X134008968Y-73643027D01*
X134344981Y-74056712D01*
X134813727Y-74310321D01*
X134879585Y-74322764D01*
X135089843Y-74199763D01*
X135089843Y-72857245D01*
X135343843Y-72857245D01*
X135343843Y-74199763D01*
X135554101Y-74322764D01*
X135619959Y-74310321D01*
X136088705Y-74056712D01*
X136424718Y-73643027D01*
X136576843Y-73132245D01*
X136576843Y-72857245D01*
X141306843Y-72857245D01*
X141306843Y-73132245D01*
X141458968Y-73643027D01*
X141794981Y-74056712D01*
X142263727Y-74310321D01*
X142329585Y-74322764D01*
X142539843Y-74199763D01*
X142539843Y-72857245D01*
X142793843Y-72857245D01*
X142793843Y-74199763D01*
X143004101Y-74322764D01*
X143069959Y-74310321D01*
X143538705Y-74056712D01*
X143874718Y-73643027D01*
X143984145Y-73275608D01*
X178015428Y-73275608D01*
X178015428Y-73687356D01*
X178172997Y-74067762D01*
X178464148Y-74358913D01*
X178844554Y-74516482D01*
X179256302Y-74516482D01*
X179636708Y-74358913D01*
X179927859Y-74067762D01*
X180085428Y-73687356D01*
X180085428Y-73275608D01*
X179927859Y-72895202D01*
X179636708Y-72604051D01*
X179256302Y-72446482D01*
X178844554Y-72446482D01*
X178464148Y-72604051D01*
X178172997Y-72895202D01*
X178015428Y-73275608D01*
X143984145Y-73275608D01*
X144026843Y-73132245D01*
X144026843Y-72857245D01*
X142793843Y-72857245D01*
X142539843Y-72857245D01*
X141306843Y-72857245D01*
X136576843Y-72857245D01*
X135343843Y-72857245D01*
X135089843Y-72857245D01*
X133856843Y-72857245D01*
X127038489Y-72857245D01*
X127038782Y-72328245D01*
X133856843Y-72328245D01*
X133856843Y-72603245D01*
X135089843Y-72603245D01*
X135089843Y-71260727D01*
X135343843Y-71260727D01*
X135343843Y-72603245D01*
X135960260Y-72603245D01*
X136038006Y-72655193D01*
X136339908Y-72715245D01*
X136543778Y-72715245D01*
X136845680Y-72655193D01*
X137188036Y-72426438D01*
X137416791Y-72084082D01*
X137497119Y-71680245D01*
X140386567Y-71680245D01*
X140466895Y-72084082D01*
X140695650Y-72426438D01*
X141038006Y-72655193D01*
X141339908Y-72715245D01*
X141543778Y-72715245D01*
X141845680Y-72655193D01*
X141923426Y-72603245D01*
X142539843Y-72603245D01*
X142539843Y-71260727D01*
X142793843Y-71260727D01*
X142793843Y-72603245D01*
X144026843Y-72603245D01*
X144026843Y-72328245D01*
X143874718Y-71817463D01*
X143548733Y-71416124D01*
X201854548Y-71416124D01*
X201854548Y-72016840D01*
X202084432Y-72571828D01*
X202509202Y-72996598D01*
X203064190Y-73226482D01*
X203664906Y-73226482D01*
X204219894Y-72996598D01*
X204614548Y-72601944D01*
X205009202Y-72996598D01*
X205564190Y-73226482D01*
X206164906Y-73226482D01*
X206719894Y-72996598D01*
X207114548Y-72601944D01*
X207509202Y-72996598D01*
X208064190Y-73226482D01*
X208664906Y-73226482D01*
X209219894Y-72996598D01*
X209644664Y-72571828D01*
X209874548Y-72016840D01*
X209874548Y-71416124D01*
X209644664Y-70861136D01*
X209219894Y-70436366D01*
X208664906Y-70206482D01*
X208064190Y-70206482D01*
X207509202Y-70436366D01*
X207114548Y-70831020D01*
X206719894Y-70436366D01*
X206164906Y-70206482D01*
X205564190Y-70206482D01*
X205009202Y-70436366D01*
X204614548Y-70831020D01*
X204219894Y-70436366D01*
X203664906Y-70206482D01*
X203064190Y-70206482D01*
X202509202Y-70436366D01*
X202084432Y-70861136D01*
X201854548Y-71416124D01*
X143548733Y-71416124D01*
X143538705Y-71403778D01*
X143069959Y-71150169D01*
X143004101Y-71137726D01*
X142793843Y-71260727D01*
X142539843Y-71260727D01*
X142329585Y-71137726D01*
X142324738Y-71138642D01*
X142188036Y-70934052D01*
X141845680Y-70705297D01*
X141543778Y-70645245D01*
X141339908Y-70645245D01*
X141038006Y-70705297D01*
X140695650Y-70934052D01*
X140466895Y-71276408D01*
X140386567Y-71680245D01*
X137497119Y-71680245D01*
X137416791Y-71276408D01*
X137188036Y-70934052D01*
X136845680Y-70705297D01*
X136543778Y-70645245D01*
X136339908Y-70645245D01*
X136038006Y-70705297D01*
X135695650Y-70934052D01*
X135558948Y-71138642D01*
X135554101Y-71137726D01*
X135343843Y-71260727D01*
X135089843Y-71260727D01*
X134879585Y-71137726D01*
X134813727Y-71150169D01*
X134344981Y-71403778D01*
X134008968Y-71817463D01*
X133856843Y-72328245D01*
X127038782Y-72328245D01*
X127040314Y-69566913D01*
X128125428Y-69566913D01*
X128125428Y-70456051D01*
X128465687Y-71277508D01*
X129094402Y-71906223D01*
X129915859Y-72246482D01*
X130804997Y-72246482D01*
X131626454Y-71906223D01*
X132255169Y-71277508D01*
X132595428Y-70456051D01*
X132595428Y-69566913D01*
X132384317Y-69057245D01*
X133856843Y-69057245D01*
X133856843Y-69382245D01*
X133997550Y-69835625D01*
X134301047Y-70200647D01*
X134721129Y-70421740D01*
X134753166Y-70423880D01*
X134939843Y-70298795D01*
X134939843Y-69057245D01*
X135193843Y-69057245D01*
X135193843Y-70298795D01*
X135380520Y-70423880D01*
X135412557Y-70421740D01*
X135832639Y-70200647D01*
X136136136Y-69835625D01*
X136276843Y-69382245D01*
X136276843Y-69057245D01*
X141606843Y-69057245D01*
X141606843Y-69382245D01*
X141747550Y-69835625D01*
X142051047Y-70200647D01*
X142471129Y-70421740D01*
X142503166Y-70423880D01*
X142689843Y-70298795D01*
X142689843Y-69057245D01*
X142943843Y-69057245D01*
X142943843Y-70298795D01*
X143130520Y-70423880D01*
X143162557Y-70421740D01*
X143582639Y-70200647D01*
X143886136Y-69835625D01*
X144009777Y-69437232D01*
X158575428Y-69437232D01*
X158575428Y-70127791D01*
X158672101Y-70361180D01*
X158850729Y-70539809D01*
X159084118Y-70636482D01*
X159774678Y-70636482D01*
X159933428Y-70477732D01*
X159933428Y-69278482D01*
X158734178Y-69278482D01*
X158575428Y-69437232D01*
X144009777Y-69437232D01*
X144026843Y-69382245D01*
X144026843Y-69057245D01*
X142943843Y-69057245D01*
X142689843Y-69057245D01*
X141606843Y-69057245D01*
X136276843Y-69057245D01*
X135193843Y-69057245D01*
X134939843Y-69057245D01*
X133856843Y-69057245D01*
X132384317Y-69057245D01*
X132255169Y-68745456D01*
X131626454Y-68116741D01*
X130804997Y-67776482D01*
X129915859Y-67776482D01*
X129094402Y-68116741D01*
X128465687Y-68745456D01*
X128125428Y-69566913D01*
X127040314Y-69566913D01*
X127040414Y-69386611D01*
X127100079Y-68917935D01*
X127260615Y-68525634D01*
X127517215Y-68188251D01*
X127852395Y-67928775D01*
X128243311Y-67764891D01*
X128709548Y-67701481D01*
X134266495Y-67701400D01*
X133997550Y-68024865D01*
X133856843Y-68478245D01*
X133856843Y-68803245D01*
X134939843Y-68803245D01*
X134939843Y-68783245D01*
X135193843Y-68783245D01*
X135193843Y-68803245D01*
X136276843Y-68803245D01*
X136276843Y-68478245D01*
X136136136Y-68024865D01*
X135867172Y-67701376D01*
X142016590Y-67701285D01*
X141747550Y-68024865D01*
X141606843Y-68478245D01*
X141606843Y-68803245D01*
X142689843Y-68803245D01*
X142689843Y-68783245D01*
X142943843Y-68783245D01*
X142943843Y-68803245D01*
X144026843Y-68803245D01*
X144026843Y-68478245D01*
X143886136Y-68024865D01*
X143617077Y-67701262D01*
X151317691Y-67701148D01*
X151245428Y-67875608D01*
X151245428Y-68287356D01*
X151402997Y-68667762D01*
X151694148Y-68958913D01*
X152074554Y-69116482D01*
X152486302Y-69116482D01*
X152866708Y-68958913D01*
X153157859Y-68667762D01*
X153315428Y-68287356D01*
X153315428Y-67875608D01*
X153243153Y-67701120D01*
X159000699Y-67701035D01*
X158850729Y-67763155D01*
X158672101Y-67941784D01*
X158575428Y-68175173D01*
X158575428Y-68865732D01*
X158734178Y-69024482D01*
X159933428Y-69024482D01*
X159933428Y-69004482D01*
X160187428Y-69004482D01*
X160187428Y-69024482D01*
X160207428Y-69024482D01*
X160207428Y-69278482D01*
X160187428Y-69278482D01*
X160187428Y-70477732D01*
X160346178Y-70636482D01*
X161036738Y-70636482D01*
X161270127Y-70539809D01*
X161448755Y-70361180D01*
X161515332Y-70200449D01*
X161529803Y-70222107D01*
X162021010Y-70550321D01*
X162454172Y-70636482D01*
X162746684Y-70636482D01*
X163179846Y-70550321D01*
X163671053Y-70222107D01*
X163999267Y-69730900D01*
X164114520Y-69151482D01*
X163999267Y-68572064D01*
X163671053Y-68080857D01*
X163179846Y-67752643D01*
X162920105Y-67700977D01*
X179384030Y-67700735D01*
X179232191Y-67802191D01*
X179091843Y-68012235D01*
X179042560Y-68260000D01*
X179042560Y-69960000D01*
X179091843Y-70207765D01*
X179232191Y-70417809D01*
X179442235Y-70558157D01*
X179690000Y-70607440D01*
X181390000Y-70607440D01*
X181637765Y-70558157D01*
X181847809Y-70417809D01*
X181988157Y-70207765D01*
X182008739Y-70104292D01*
X182313076Y-70381645D01*
X182723110Y-70551476D01*
X182953000Y-70430155D01*
X182953000Y-69237000D01*
X183207000Y-69237000D01*
X183207000Y-70430155D01*
X183436890Y-70551476D01*
X183846924Y-70381645D01*
X184275183Y-69991358D01*
X184521486Y-69466892D01*
X184473647Y-69375750D01*
X185895000Y-69375750D01*
X185895000Y-70066309D01*
X185991673Y-70299698D01*
X186170301Y-70478327D01*
X186403690Y-70575000D01*
X187094250Y-70575000D01*
X187253000Y-70416250D01*
X187253000Y-69217000D01*
X186053750Y-69217000D01*
X185895000Y-69375750D01*
X184473647Y-69375750D01*
X184400819Y-69237000D01*
X183207000Y-69237000D01*
X182953000Y-69237000D01*
X182933000Y-69237000D01*
X182933000Y-68983000D01*
X182953000Y-68983000D01*
X182953000Y-68963000D01*
X183207000Y-68963000D01*
X183207000Y-68983000D01*
X184400819Y-68983000D01*
X184521486Y-68753108D01*
X184275183Y-68228642D01*
X183846924Y-67838355D01*
X183514512Y-67700674D01*
X186172807Y-67700635D01*
X186170301Y-67701673D01*
X185991673Y-67880302D01*
X185895000Y-68113691D01*
X185895000Y-68804250D01*
X186053750Y-68963000D01*
X187253000Y-68963000D01*
X187253000Y-68943000D01*
X187507000Y-68943000D01*
X187507000Y-68963000D01*
X187527000Y-68963000D01*
X187527000Y-69217000D01*
X187507000Y-69217000D01*
X187507000Y-70416250D01*
X187665750Y-70575000D01*
X188356310Y-70575000D01*
X188589699Y-70478327D01*
X188768327Y-70299698D01*
X188834904Y-70138967D01*
X188849375Y-70160625D01*
X189340582Y-70488839D01*
X189773744Y-70575000D01*
X190066256Y-70575000D01*
X190499418Y-70488839D01*
X190990625Y-70160625D01*
X191318839Y-69669418D01*
X191323869Y-69644126D01*
X193505000Y-69644126D01*
X193505000Y-70055874D01*
X193662569Y-70436280D01*
X193953720Y-70727431D01*
X194334126Y-70885000D01*
X194745874Y-70885000D01*
X195126280Y-70727431D01*
X195417431Y-70436280D01*
X195575000Y-70055874D01*
X195575000Y-69644126D01*
X195543018Y-69566913D01*
X213915000Y-69566913D01*
X213915000Y-70456051D01*
X214255259Y-71277508D01*
X214883974Y-71906223D01*
X215705431Y-72246482D01*
X216594569Y-72246482D01*
X217416026Y-71906223D01*
X217626383Y-71695866D01*
X223425000Y-71695866D01*
X223425000Y-72744134D01*
X223826155Y-73712608D01*
X224567392Y-74453845D01*
X225535866Y-74855000D01*
X226584134Y-74855000D01*
X227552608Y-74453845D01*
X228293845Y-73712608D01*
X228695000Y-72744134D01*
X228695000Y-71695866D01*
X228293845Y-70727392D01*
X227552608Y-69986155D01*
X226584134Y-69585000D01*
X225535866Y-69585000D01*
X224567392Y-69986155D01*
X223826155Y-70727392D01*
X223425000Y-71695866D01*
X217626383Y-71695866D01*
X218044741Y-71277508D01*
X218385000Y-70456051D01*
X218385000Y-69566913D01*
X218044741Y-68745456D01*
X217416026Y-68116741D01*
X216594569Y-67776482D01*
X215705431Y-67776482D01*
X214883974Y-68116741D01*
X214255259Y-68745456D01*
X213915000Y-69566913D01*
X195543018Y-69566913D01*
X195417431Y-69263720D01*
X195126280Y-68972569D01*
X194745874Y-68815000D01*
X194334126Y-68815000D01*
X193953720Y-68972569D01*
X193662569Y-69263720D01*
X193505000Y-69644126D01*
X191323869Y-69644126D01*
X191434092Y-69090000D01*
X191318839Y-68510582D01*
X190990625Y-68019375D01*
X190513501Y-67700571D01*
X229305148Y-67700000D01*
X229773714Y-67759651D01*
G04 #@! TD*
M02*
