%FSLAX45Y45*%
G04 Gerber Fmt 4.5, Leading zero omitted, Abs format (unit mm)*
G04 Created by KiCad (PCBNEW (5.0.0)) date 04/23/20 21:25:01*
%MOMM*%
%LPD*%
G01*
G04 APERTURE LIST*
%ADD10C,0.150000*%
%ADD11C,0.200000*%
%ADD12C,0.300000*%
G04 APERTURE END LIST*
D10*
X11830000Y-6131000D02*
X16446000Y-6127000D01*
X16445000Y-6127000D02*
G75*
G02X16831000Y-6513000I0J-386000D01*
G01*
X16831000Y-6513000D02*
X16827000Y-11973000D01*
X11829000Y-12356000D02*
X16445000Y-12355000D01*
X16827000Y-11969000D02*
G75*
G02X16441000Y-12355000I-386000J0D01*
G01*
X11444000Y-6516000D02*
X11443000Y-11968000D01*
X11829000Y-12356000D02*
G75*
G02X11443000Y-11970000I0J386000D01*
G01*
X11444000Y-6517000D02*
G75*
G02X11830000Y-6131000I386000J0D01*
G01*
D11*
X11512000Y-10269000D02*
X11552000Y-10309000D01*
X11552000Y-10269000D02*
X11512000Y-10309000D01*
X11517000Y-7053000D02*
X11557000Y-7093000D01*
X11557000Y-7053000D02*
X11517000Y-7093000D01*
X11518000Y-7428000D02*
X11558000Y-7468000D01*
X11558000Y-7428000D02*
X11518000Y-7468000D01*
X11524000Y-8955000D02*
X11564000Y-8995000D01*
X11564000Y-8955000D02*
X11524000Y-8995000D01*
X11528000Y-7739000D02*
X11568000Y-7779000D01*
X11568000Y-7739000D02*
X11528000Y-7779000D01*
X11532000Y-8024000D02*
X11572000Y-8064000D01*
X11572000Y-8024000D02*
X11532000Y-8064000D01*
X11595000Y-11649000D02*
X11635000Y-11689000D01*
X11635000Y-11649000D02*
X11595000Y-11689000D01*
X11595000Y-11954000D02*
X11635000Y-11994000D01*
X11635000Y-11954000D02*
X11595000Y-11994000D01*
X11598000Y-6663000D02*
X11638000Y-6703000D01*
X11638000Y-6663000D02*
X11598000Y-6703000D01*
X11598000Y-10663000D02*
X11638000Y-10703000D01*
X11638000Y-10663000D02*
X11598000Y-10703000D01*
X11598000Y-10945000D02*
X11638000Y-10985000D01*
X11638000Y-10945000D02*
X11598000Y-10985000D01*
X11620000Y-9623000D02*
X11660000Y-9663000D01*
X11660000Y-9623000D02*
X11620000Y-9663000D01*
X11658000Y-6338000D02*
X11698000Y-6378000D01*
X11698000Y-6338000D02*
X11658000Y-6378000D01*
X11663000Y-12163000D02*
X11703000Y-12203000D01*
X11703000Y-12163000D02*
X11663000Y-12203000D01*
X11723000Y-8197000D02*
X11763000Y-8237000D01*
X11763000Y-8197000D02*
X11723000Y-8237000D01*
X11731000Y-8355000D02*
X11771000Y-8395000D01*
X11771000Y-8355000D02*
X11731000Y-8395000D01*
X11858000Y-8115000D02*
X11898000Y-8155000D01*
X11898000Y-8115000D02*
X11858000Y-8155000D01*
X11861000Y-11478000D02*
X11901000Y-11518000D01*
X11901000Y-11478000D02*
X11861000Y-11518000D01*
X11973000Y-10928000D02*
X12013000Y-10968000D01*
X12013000Y-10928000D02*
X11973000Y-10968000D01*
X11977000Y-6981000D02*
X12017000Y-7021000D01*
X12017000Y-6981000D02*
X11977000Y-7021000D01*
X11987000Y-11852000D02*
X12027000Y-11892000D01*
X12027000Y-11852000D02*
X11987000Y-11892000D01*
X11996000Y-12229000D02*
X12036000Y-12269000D01*
X12036000Y-12229000D02*
X11996000Y-12269000D01*
X11998000Y-6263000D02*
X12038000Y-6303000D01*
X12038000Y-6263000D02*
X11998000Y-6303000D01*
X11998000Y-6663000D02*
X12038000Y-6703000D01*
X12038000Y-6663000D02*
X11998000Y-6703000D01*
X12105000Y-7587000D02*
X12145000Y-7627000D01*
X12145000Y-7587000D02*
X12105000Y-7627000D01*
X12119000Y-9699000D02*
X12159000Y-9739000D01*
X12159000Y-9699000D02*
X12119000Y-9739000D01*
X12242000Y-8734000D02*
X12282000Y-8774000D01*
X12282000Y-8734000D02*
X12242000Y-8774000D01*
X12337000Y-7833000D02*
X12377000Y-7873000D01*
X12377000Y-7833000D02*
X12337000Y-7873000D01*
X12380000Y-8110000D02*
X12420000Y-8150000D01*
X12420000Y-8110000D02*
X12380000Y-8150000D01*
X12392000Y-10934000D02*
X12432000Y-10974000D01*
X12432000Y-10934000D02*
X12392000Y-10974000D01*
X12396000Y-12229000D02*
X12436000Y-12269000D01*
X12436000Y-12229000D02*
X12396000Y-12269000D01*
X12398000Y-6263000D02*
X12438000Y-6303000D01*
X12438000Y-6263000D02*
X12398000Y-6303000D01*
X12398000Y-6663000D02*
X12438000Y-6703000D01*
X12438000Y-6663000D02*
X12398000Y-6703000D01*
X12398000Y-7063000D02*
X12438000Y-7103000D01*
X12438000Y-7063000D02*
X12398000Y-7103000D01*
X12398000Y-7463000D02*
X12438000Y-7503000D01*
X12438000Y-7463000D02*
X12398000Y-7503000D01*
X12398000Y-9063000D02*
X12438000Y-9103000D01*
X12438000Y-9063000D02*
X12398000Y-9103000D01*
X12398000Y-11463000D02*
X12438000Y-11503000D01*
X12438000Y-11463000D02*
X12398000Y-11503000D01*
X12398000Y-11863000D02*
X12438000Y-11903000D01*
X12438000Y-11863000D02*
X12398000Y-11903000D01*
X12421000Y-7593000D02*
X12461000Y-7633000D01*
X12461000Y-7593000D02*
X12421000Y-7633000D01*
X12486000Y-8589000D02*
X12526000Y-8629000D01*
X12526000Y-8589000D02*
X12486000Y-8629000D01*
X12520000Y-10609000D02*
X12560000Y-10649000D01*
X12560000Y-10609000D02*
X12520000Y-10649000D01*
X12582000Y-8970000D02*
X12622000Y-9010000D01*
X12622000Y-8970000D02*
X12582000Y-9010000D01*
X12586000Y-8738000D02*
X12626000Y-8778000D01*
X12626000Y-8738000D02*
X12586000Y-8778000D01*
X12692000Y-10779000D02*
X12732000Y-10819000D01*
X12732000Y-10779000D02*
X12692000Y-10819000D01*
X12731000Y-9660000D02*
X12771000Y-9700000D01*
X12771000Y-9660000D02*
X12731000Y-9700000D01*
X12733000Y-8053000D02*
X12773000Y-8093000D01*
X12773000Y-8053000D02*
X12733000Y-8093000D01*
X12796000Y-12229000D02*
X12836000Y-12269000D01*
X12836000Y-12229000D02*
X12796000Y-12269000D01*
X12798000Y-6263000D02*
X12838000Y-6303000D01*
X12838000Y-6263000D02*
X12798000Y-6303000D01*
X12798000Y-6663000D02*
X12838000Y-6703000D01*
X12838000Y-6663000D02*
X12798000Y-6703000D01*
X12798000Y-7863000D02*
X12838000Y-7903000D01*
X12838000Y-7863000D02*
X12798000Y-7903000D01*
X12798000Y-10263000D02*
X12838000Y-10303000D01*
X12838000Y-10263000D02*
X12798000Y-10303000D01*
X12798000Y-11063000D02*
X12838000Y-11103000D01*
X12838000Y-11063000D02*
X12798000Y-11103000D01*
X12798000Y-11463000D02*
X12838000Y-11503000D01*
X12838000Y-11463000D02*
X12798000Y-11503000D01*
X12798000Y-11863000D02*
X12838000Y-11903000D01*
X12838000Y-11863000D02*
X12798000Y-11903000D01*
X12849000Y-9468000D02*
X12889000Y-9508000D01*
X12889000Y-9468000D02*
X12849000Y-9508000D01*
X12851000Y-6961000D02*
X12891000Y-7001000D01*
X12891000Y-6961000D02*
X12851000Y-7001000D01*
X12961000Y-10252000D02*
X13001000Y-10292000D01*
X13001000Y-10252000D02*
X12961000Y-10292000D01*
X12974000Y-8671000D02*
X13014000Y-8711000D01*
X13014000Y-8671000D02*
X12974000Y-8711000D01*
X12995000Y-7595000D02*
X13035000Y-7635000D01*
X13035000Y-7595000D02*
X12995000Y-7635000D01*
X13047000Y-9081000D02*
X13087000Y-9121000D01*
X13087000Y-9081000D02*
X13047000Y-9121000D01*
X13048000Y-9292000D02*
X13088000Y-9332000D01*
X13088000Y-9292000D02*
X13048000Y-9332000D01*
X13105000Y-8406000D02*
X13145000Y-8446000D01*
X13145000Y-8406000D02*
X13105000Y-8446000D01*
X13138000Y-9458000D02*
X13178000Y-9498000D01*
X13178000Y-9458000D02*
X13138000Y-9498000D01*
X13175000Y-8798000D02*
X13215000Y-8838000D01*
X13215000Y-8798000D02*
X13175000Y-8838000D01*
X13196000Y-12229000D02*
X13236000Y-12269000D01*
X13236000Y-12229000D02*
X13196000Y-12269000D01*
X13198000Y-6263000D02*
X13238000Y-6303000D01*
X13238000Y-6263000D02*
X13198000Y-6303000D01*
X13198000Y-6663000D02*
X13238000Y-6703000D01*
X13238000Y-6663000D02*
X13198000Y-6703000D01*
X13198000Y-7463000D02*
X13238000Y-7503000D01*
X13238000Y-7463000D02*
X13198000Y-7503000D01*
X13198000Y-10263000D02*
X13238000Y-10303000D01*
X13238000Y-10263000D02*
X13198000Y-10303000D01*
X13198000Y-11463000D02*
X13238000Y-11503000D01*
X13238000Y-11463000D02*
X13198000Y-11503000D01*
X13238000Y-7778000D02*
X13278000Y-7818000D01*
X13278000Y-7778000D02*
X13238000Y-7818000D01*
X13257000Y-6962000D02*
X13297000Y-7002000D01*
X13297000Y-6962000D02*
X13257000Y-7002000D01*
X13282000Y-11784000D02*
X13322000Y-11824000D01*
X13322000Y-11784000D02*
X13282000Y-11824000D01*
X13419000Y-7718000D02*
X13459000Y-7758000D01*
X13459000Y-7718000D02*
X13419000Y-7758000D01*
X13443000Y-8479000D02*
X13483000Y-8519000D01*
X13483000Y-8479000D02*
X13443000Y-8519000D01*
X13531000Y-8779000D02*
X13571000Y-8819000D01*
X13571000Y-8779000D02*
X13531000Y-8819000D01*
X13535000Y-9259000D02*
X13575000Y-9299000D01*
X13575000Y-9259000D02*
X13535000Y-9299000D01*
X13596000Y-12229000D02*
X13636000Y-12269000D01*
X13636000Y-12229000D02*
X13596000Y-12269000D01*
X13598000Y-6263000D02*
X13638000Y-6303000D01*
X13638000Y-6263000D02*
X13598000Y-6303000D01*
X13598000Y-6663000D02*
X13638000Y-6703000D01*
X13638000Y-6663000D02*
X13598000Y-6703000D01*
X13598000Y-7863000D02*
X13638000Y-7903000D01*
X13638000Y-7863000D02*
X13598000Y-7903000D01*
X13598000Y-9463000D02*
X13638000Y-9503000D01*
X13638000Y-9463000D02*
X13598000Y-9503000D01*
X13598000Y-10263000D02*
X13638000Y-10303000D01*
X13638000Y-10263000D02*
X13598000Y-10303000D01*
X13598000Y-11463000D02*
X13638000Y-11503000D01*
X13638000Y-11463000D02*
X13598000Y-11503000D01*
X13598000Y-11863000D02*
X13638000Y-11903000D01*
X13638000Y-11863000D02*
X13598000Y-11903000D01*
X13669000Y-9730000D02*
X13709000Y-9770000D01*
X13709000Y-9730000D02*
X13669000Y-9770000D01*
X13710000Y-6961000D02*
X13750000Y-7001000D01*
X13750000Y-6961000D02*
X13710000Y-7001000D01*
X13776000Y-8799000D02*
X13816000Y-8839000D01*
X13816000Y-8799000D02*
X13776000Y-8839000D01*
X13819000Y-8673000D02*
X13859000Y-8713000D01*
X13859000Y-8673000D02*
X13819000Y-8713000D01*
X13850000Y-7859000D02*
X13890000Y-7899000D01*
X13890000Y-7859000D02*
X13850000Y-7899000D01*
X13863000Y-7592000D02*
X13903000Y-7632000D01*
X13903000Y-7592000D02*
X13863000Y-7632000D01*
X13887000Y-7435000D02*
X13927000Y-7475000D01*
X13927000Y-7435000D02*
X13887000Y-7475000D01*
X13908000Y-9411000D02*
X13948000Y-9451000D01*
X13948000Y-9411000D02*
X13908000Y-9451000D01*
X13947000Y-7776000D02*
X13987000Y-7816000D01*
X13987000Y-7776000D02*
X13947000Y-7816000D01*
X13949000Y-9034000D02*
X13989000Y-9074000D01*
X13989000Y-9034000D02*
X13949000Y-9074000D01*
X13950000Y-8789000D02*
X13990000Y-8829000D01*
X13990000Y-8789000D02*
X13950000Y-8829000D01*
X13969000Y-8652000D02*
X14009000Y-8692000D01*
X14009000Y-8652000D02*
X13969000Y-8692000D01*
X13975000Y-8283000D02*
X14015000Y-8323000D01*
X14015000Y-8283000D02*
X13975000Y-8323000D01*
X13996000Y-12229000D02*
X14036000Y-12269000D01*
X14036000Y-12229000D02*
X13996000Y-12269000D01*
X13998000Y-6263000D02*
X14038000Y-6303000D01*
X14038000Y-6263000D02*
X13998000Y-6303000D01*
X13998000Y-6663000D02*
X14038000Y-6703000D01*
X14038000Y-6663000D02*
X13998000Y-6703000D01*
X14091000Y-6966000D02*
X14131000Y-7006000D01*
X14131000Y-6966000D02*
X14091000Y-7006000D01*
X14127000Y-8799000D02*
X14167000Y-8839000D01*
X14167000Y-8799000D02*
X14127000Y-8839000D01*
X14139000Y-9079000D02*
X14179000Y-9119000D01*
X14179000Y-9079000D02*
X14139000Y-9119000D01*
X14164000Y-7430000D02*
X14204000Y-7470000D01*
X14204000Y-7430000D02*
X14164000Y-7470000D01*
X14198000Y-7591000D02*
X14238000Y-7631000D01*
X14238000Y-7591000D02*
X14198000Y-7631000D01*
X14228000Y-8667000D02*
X14268000Y-8707000D01*
X14268000Y-8667000D02*
X14228000Y-8707000D01*
X14253000Y-10866000D02*
X14293000Y-10906000D01*
X14293000Y-10866000D02*
X14253000Y-10906000D01*
X14322000Y-9054000D02*
X14362000Y-9094000D01*
X14362000Y-9054000D02*
X14322000Y-9094000D01*
X14355000Y-9830000D02*
X14395000Y-9870000D01*
X14395000Y-9830000D02*
X14355000Y-9870000D01*
X14370000Y-8884000D02*
X14410000Y-8924000D01*
X14410000Y-8884000D02*
X14370000Y-8924000D01*
X14396000Y-12229000D02*
X14436000Y-12269000D01*
X14436000Y-12229000D02*
X14396000Y-12269000D01*
X14398000Y-6263000D02*
X14438000Y-6303000D01*
X14438000Y-6263000D02*
X14398000Y-6303000D01*
X14398000Y-6663000D02*
X14438000Y-6703000D01*
X14438000Y-6663000D02*
X14398000Y-6703000D01*
X14398000Y-9463000D02*
X14438000Y-9503000D01*
X14438000Y-9463000D02*
X14398000Y-9503000D01*
X14398000Y-10263000D02*
X14438000Y-10303000D01*
X14438000Y-10263000D02*
X14398000Y-10303000D01*
X14398000Y-11063000D02*
X14438000Y-11103000D01*
X14438000Y-11063000D02*
X14398000Y-11103000D01*
X14398000Y-11863000D02*
X14438000Y-11903000D01*
X14438000Y-11863000D02*
X14398000Y-11903000D01*
X14438000Y-9084000D02*
X14478000Y-9124000D01*
X14478000Y-9084000D02*
X14438000Y-9124000D01*
X14462000Y-9582000D02*
X14502000Y-9622000D01*
X14502000Y-9582000D02*
X14462000Y-9622000D01*
X14480000Y-9741000D02*
X14520000Y-9781000D01*
X14520000Y-9741000D02*
X14480000Y-9781000D01*
X14494000Y-6969000D02*
X14534000Y-7009000D01*
X14534000Y-6969000D02*
X14494000Y-7009000D01*
X14506000Y-9393000D02*
X14546000Y-9433000D01*
X14546000Y-9393000D02*
X14506000Y-9433000D01*
X14544000Y-8952000D02*
X14584000Y-8992000D01*
X14584000Y-8952000D02*
X14544000Y-8992000D01*
X14587000Y-9858000D02*
X14627000Y-9898000D01*
X14627000Y-9858000D02*
X14587000Y-9898000D01*
X14608000Y-9083000D02*
X14648000Y-9123000D01*
X14648000Y-9083000D02*
X14608000Y-9123000D01*
X14642000Y-11317000D02*
X14682000Y-11357000D01*
X14682000Y-11317000D02*
X14642000Y-11357000D01*
X14657000Y-10866000D02*
X14697000Y-10906000D01*
X14697000Y-10866000D02*
X14657000Y-10906000D01*
X14709000Y-10567000D02*
X14749000Y-10607000D01*
X14749000Y-10567000D02*
X14709000Y-10607000D01*
X14711000Y-9484000D02*
X14751000Y-9524000D01*
X14751000Y-9484000D02*
X14711000Y-9524000D01*
X14753000Y-8674000D02*
X14793000Y-8714000D01*
X14793000Y-8674000D02*
X14753000Y-8714000D01*
X14796000Y-12229000D02*
X14836000Y-12269000D01*
X14836000Y-12229000D02*
X14796000Y-12269000D01*
X14798000Y-6263000D02*
X14838000Y-6303000D01*
X14838000Y-6263000D02*
X14798000Y-6303000D01*
X14798000Y-6663000D02*
X14838000Y-6703000D01*
X14838000Y-6663000D02*
X14798000Y-6703000D01*
X14798000Y-10663000D02*
X14838000Y-10703000D01*
X14838000Y-10663000D02*
X14798000Y-10703000D01*
X14811000Y-7775000D02*
X14851000Y-7815000D01*
X14851000Y-7775000D02*
X14811000Y-7815000D01*
X14834000Y-8353000D02*
X14874000Y-8393000D01*
X14874000Y-8353000D02*
X14834000Y-8393000D01*
X14854000Y-7888000D02*
X14894000Y-7928000D01*
X14894000Y-7888000D02*
X14854000Y-7928000D01*
X14892000Y-7594000D02*
X14932000Y-7634000D01*
X14932000Y-7594000D02*
X14892000Y-7634000D01*
X14894000Y-10521000D02*
X14934000Y-10561000D01*
X14934000Y-10521000D02*
X14894000Y-10561000D01*
X14935000Y-6968000D02*
X14975000Y-7008000D01*
X14975000Y-6968000D02*
X14935000Y-7008000D01*
X14938000Y-7429000D02*
X14978000Y-7469000D01*
X14978000Y-7429000D02*
X14938000Y-7469000D01*
X14938000Y-8316000D02*
X14978000Y-8356000D01*
X14978000Y-8316000D02*
X14938000Y-8356000D01*
X14949000Y-11308000D02*
X14989000Y-11348000D01*
X14989000Y-11308000D02*
X14949000Y-11348000D01*
X14958000Y-11052000D02*
X14998000Y-11092000D01*
X14998000Y-11052000D02*
X14958000Y-11092000D01*
X15039000Y-10690000D02*
X15079000Y-10730000D01*
X15079000Y-10690000D02*
X15039000Y-10730000D01*
X15100000Y-9826000D02*
X15140000Y-9866000D01*
X15140000Y-9826000D02*
X15100000Y-9866000D01*
X15106500Y-10806500D02*
X15146500Y-10846500D01*
X15146500Y-10806500D02*
X15106500Y-10846500D01*
X15120000Y-11566000D02*
X15160000Y-11606000D01*
X15160000Y-11566000D02*
X15120000Y-11606000D01*
X15124000Y-9320000D02*
X15164000Y-9360000D01*
X15164000Y-9320000D02*
X15124000Y-9360000D01*
X15154000Y-7389000D02*
X15194000Y-7429000D01*
X15194000Y-7389000D02*
X15154000Y-7429000D01*
X15158000Y-8266000D02*
X15198000Y-8306000D01*
X15198000Y-8266000D02*
X15158000Y-8306000D01*
X15160000Y-6810000D02*
X15200000Y-6850000D01*
X15200000Y-6810000D02*
X15160000Y-6850000D01*
X15161000Y-7674000D02*
X15201000Y-7714000D01*
X15201000Y-7674000D02*
X15161000Y-7714000D01*
X15196000Y-12229000D02*
X15236000Y-12269000D01*
X15236000Y-12229000D02*
X15196000Y-12269000D01*
X15198000Y-6263000D02*
X15238000Y-6303000D01*
X15238000Y-6263000D02*
X15198000Y-6303000D01*
X15198000Y-6663000D02*
X15238000Y-6703000D01*
X15238000Y-6663000D02*
X15198000Y-6703000D01*
X15198000Y-10663000D02*
X15238000Y-10703000D01*
X15238000Y-10663000D02*
X15198000Y-10703000D01*
X15198000Y-11063000D02*
X15238000Y-11103000D01*
X15238000Y-11063000D02*
X15198000Y-11103000D01*
X15198000Y-11960000D02*
X15238000Y-12000000D01*
X15238000Y-11960000D02*
X15198000Y-12000000D01*
X15212000Y-11312000D02*
X15252000Y-11352000D01*
X15252000Y-11312000D02*
X15212000Y-11352000D01*
X15286000Y-8971000D02*
X15326000Y-9011000D01*
X15326000Y-8971000D02*
X15286000Y-9011000D01*
X15323000Y-9857000D02*
X15363000Y-9897000D01*
X15363000Y-9857000D02*
X15323000Y-9897000D01*
X15332000Y-10119000D02*
X15372000Y-10159000D01*
X15372000Y-10119000D02*
X15332000Y-10159000D01*
X15334000Y-9201000D02*
X15374000Y-9241000D01*
X15374000Y-9201000D02*
X15334000Y-9241000D01*
X15343000Y-7421000D02*
X15383000Y-7461000D01*
X15383000Y-7421000D02*
X15343000Y-7461000D01*
X15368000Y-8278000D02*
X15408000Y-8318000D01*
X15408000Y-8278000D02*
X15368000Y-8318000D01*
X15435000Y-8643000D02*
X15475000Y-8683000D01*
X15475000Y-8643000D02*
X15435000Y-8683000D01*
X15452000Y-11594000D02*
X15492000Y-11634000D01*
X15492000Y-11594000D02*
X15452000Y-11634000D01*
X15463000Y-10209000D02*
X15503000Y-10249000D01*
X15503000Y-10209000D02*
X15463000Y-10249000D01*
X15472000Y-10798000D02*
X15512000Y-10838000D01*
X15512000Y-10798000D02*
X15472000Y-10838000D01*
X15498000Y-11304000D02*
X15538000Y-11344000D01*
X15538000Y-11304000D02*
X15498000Y-11344000D01*
X15596000Y-12229000D02*
X15636000Y-12269000D01*
X15636000Y-12229000D02*
X15596000Y-12269000D01*
X15598000Y-6263000D02*
X15638000Y-6303000D01*
X15638000Y-6263000D02*
X15598000Y-6303000D01*
X15598000Y-6663000D02*
X15638000Y-6703000D01*
X15638000Y-6663000D02*
X15598000Y-6703000D01*
X15598000Y-8663000D02*
X15638000Y-8703000D01*
X15638000Y-8663000D02*
X15598000Y-8703000D01*
X15598000Y-9463000D02*
X15638000Y-9503000D01*
X15638000Y-9463000D02*
X15598000Y-9503000D01*
X15598000Y-10663000D02*
X15638000Y-10703000D01*
X15638000Y-10663000D02*
X15598000Y-10703000D01*
X15598000Y-11063000D02*
X15638000Y-11103000D01*
X15638000Y-11063000D02*
X15598000Y-11103000D01*
X15598000Y-11960000D02*
X15638000Y-12000000D01*
X15638000Y-11960000D02*
X15598000Y-12000000D01*
X15606000Y-9243000D02*
X15646000Y-9283000D01*
X15646000Y-9243000D02*
X15606000Y-9283000D01*
X15609000Y-9104000D02*
X15649000Y-9144000D01*
X15649000Y-9104000D02*
X15609000Y-9144000D01*
X15609000Y-9855000D02*
X15649000Y-9895000D01*
X15649000Y-9855000D02*
X15609000Y-9895000D01*
X15696000Y-11599000D02*
X15736000Y-11639000D01*
X15736000Y-11599000D02*
X15696000Y-11639000D01*
X15705000Y-10421000D02*
X15745000Y-10461000D01*
X15745000Y-10421000D02*
X15705000Y-10461000D01*
X15847000Y-10805000D02*
X15887000Y-10845000D01*
X15887000Y-10805000D02*
X15847000Y-10845000D01*
X15941000Y-8854000D02*
X15981000Y-8894000D01*
X15981000Y-8854000D02*
X15941000Y-8894000D01*
X15942000Y-9112000D02*
X15982000Y-9152000D01*
X15982000Y-9112000D02*
X15942000Y-9152000D01*
X15996000Y-12229000D02*
X16036000Y-12269000D01*
X16036000Y-12229000D02*
X15996000Y-12269000D01*
X15998000Y-6263000D02*
X16038000Y-6303000D01*
X16038000Y-6263000D02*
X15998000Y-6303000D01*
X15998000Y-6663000D02*
X16038000Y-6703000D01*
X16038000Y-6663000D02*
X15998000Y-6703000D01*
X15998000Y-7063000D02*
X16038000Y-7103000D01*
X16038000Y-7063000D02*
X15998000Y-7103000D01*
X15998000Y-7463000D02*
X16038000Y-7503000D01*
X16038000Y-7463000D02*
X15998000Y-7503000D01*
X15998000Y-7863000D02*
X16038000Y-7903000D01*
X16038000Y-7863000D02*
X15998000Y-7903000D01*
X15998000Y-8263000D02*
X16038000Y-8303000D01*
X16038000Y-8263000D02*
X15998000Y-8303000D01*
X15998000Y-8663000D02*
X16038000Y-8703000D01*
X16038000Y-8663000D02*
X15998000Y-8703000D01*
X15998000Y-11960000D02*
X16038000Y-12000000D01*
X16038000Y-11960000D02*
X15998000Y-12000000D01*
X16029000Y-9971000D02*
X16069000Y-10011000D01*
X16069000Y-9971000D02*
X16029000Y-10011000D01*
X16104000Y-9066000D02*
X16144000Y-9106000D01*
X16144000Y-9066000D02*
X16104000Y-9106000D01*
X16104000Y-9389000D02*
X16144000Y-9429000D01*
X16144000Y-9389000D02*
X16104000Y-9429000D01*
X16111000Y-10105000D02*
X16151000Y-10145000D01*
X16151000Y-10105000D02*
X16111000Y-10145000D01*
X16227000Y-8648000D02*
X16267000Y-8688000D01*
X16267000Y-8648000D02*
X16227000Y-8688000D01*
X16292000Y-9391000D02*
X16332000Y-9431000D01*
X16332000Y-9391000D02*
X16292000Y-9431000D01*
X16294000Y-9064000D02*
X16334000Y-9104000D01*
X16334000Y-9064000D02*
X16294000Y-9104000D01*
X16323000Y-8794000D02*
X16363000Y-8834000D01*
X16363000Y-8794000D02*
X16323000Y-8834000D01*
X16331000Y-9569000D02*
X16371000Y-9609000D01*
X16371000Y-9569000D02*
X16331000Y-9609000D01*
X16364000Y-6212000D02*
X16404000Y-6252000D01*
X16404000Y-6212000D02*
X16364000Y-6252000D01*
X16364000Y-10126000D02*
X16404000Y-10166000D01*
X16404000Y-10126000D02*
X16364000Y-10166000D01*
X16396000Y-12229000D02*
X16436000Y-12269000D01*
X16436000Y-12229000D02*
X16396000Y-12269000D01*
X16398000Y-6663000D02*
X16438000Y-6703000D01*
X16438000Y-6663000D02*
X16398000Y-6703000D01*
X16398000Y-7063000D02*
X16438000Y-7103000D01*
X16438000Y-7063000D02*
X16398000Y-7103000D01*
X16398000Y-7463000D02*
X16438000Y-7503000D01*
X16438000Y-7463000D02*
X16398000Y-7503000D01*
X16398000Y-7863000D02*
X16438000Y-7903000D01*
X16438000Y-7863000D02*
X16398000Y-7903000D01*
X16398000Y-8263000D02*
X16438000Y-8303000D01*
X16438000Y-8263000D02*
X16398000Y-8303000D01*
X16398000Y-9863000D02*
X16438000Y-9903000D01*
X16438000Y-9863000D02*
X16398000Y-9903000D01*
X16398000Y-11063000D02*
X16438000Y-11103000D01*
X16438000Y-11063000D02*
X16398000Y-11103000D01*
X16398000Y-11960000D02*
X16438000Y-12000000D01*
X16438000Y-11960000D02*
X16398000Y-12000000D01*
X16595000Y-12105000D02*
X16635000Y-12145000D01*
X16635000Y-12105000D02*
X16595000Y-12145000D01*
X16660000Y-6318000D02*
X16700000Y-6358000D01*
X16700000Y-6318000D02*
X16660000Y-6358000D01*
X16692000Y-6661000D02*
X16732000Y-6701000D01*
X16732000Y-6661000D02*
X16692000Y-6701000D01*
X16692000Y-7061000D02*
X16732000Y-7101000D01*
X16732000Y-7061000D02*
X16692000Y-7101000D01*
X16692000Y-7461000D02*
X16732000Y-7501000D01*
X16732000Y-7461000D02*
X16692000Y-7501000D01*
X16692000Y-7861000D02*
X16732000Y-7901000D01*
X16732000Y-7861000D02*
X16692000Y-7901000D01*
X16692000Y-8261000D02*
X16732000Y-8301000D01*
X16732000Y-8261000D02*
X16692000Y-8301000D01*
X16692000Y-8661000D02*
X16732000Y-8701000D01*
X16732000Y-8661000D02*
X16692000Y-8701000D01*
X16692000Y-11461000D02*
X16732000Y-11501000D01*
X16732000Y-11461000D02*
X16692000Y-11501000D01*
X16692000Y-11861000D02*
X16732000Y-11901000D01*
X16732000Y-11861000D02*
X16692000Y-11901000D01*
X16709000Y-11059000D02*
X16749000Y-11099000D01*
X16749000Y-11059000D02*
X16709000Y-11099000D01*
X16712000Y-10258000D02*
X16752000Y-10298000D01*
X16752000Y-10258000D02*
X16712000Y-10298000D01*
X16713000Y-10660000D02*
X16753000Y-10700000D01*
X16753000Y-10660000D02*
X16713000Y-10700000D01*
X16722000Y-9714000D02*
X16762000Y-9754000D01*
X16762000Y-9714000D02*
X16722000Y-9754000D01*
X14129000Y-12070000D02*
G75*
G03X14129000Y-12070000I-27500J0D01*
G01*
X14084000Y-12037500D02*
X14084000Y-12102500D01*
X14119000Y-12037500D02*
X14119000Y-12102500D01*
X14084000Y-12102500D02*
G75*
G03X14119000Y-12102500I17500J0D01*
G01*
X14119000Y-12037500D02*
G75*
G03X14084000Y-12037500I-17500J0D01*
G01*
X14904000Y-12070000D02*
G75*
G03X14904000Y-12070000I-27500J0D01*
G01*
X14859000Y-12037500D02*
X14859000Y-12102500D01*
X14894000Y-12037500D02*
X14894000Y-12102500D01*
X14859000Y-12102500D02*
G75*
G03X14894000Y-12102500I17500J0D01*
G01*
X14894000Y-12037500D02*
G75*
G03X14859000Y-12037500I-17500J0D01*
G01*
X14116500Y-11647500D02*
X14116500Y-11732500D01*
X14074000Y-11690000D02*
X14159000Y-11690000D01*
X14084000Y-11662500D02*
X14084000Y-11717500D01*
X14149000Y-11662500D02*
X14149000Y-11717500D01*
X14084000Y-11717500D02*
G75*
G03X14149000Y-11717500I32500J0D01*
G01*
X14149000Y-11662500D02*
G75*
G03X14084000Y-11662500I-32500J0D01*
G01*
X14861500Y-11647500D02*
X14861500Y-11732500D01*
X14819000Y-11690000D02*
X14904000Y-11690000D01*
X14829000Y-11662500D02*
X14829000Y-11717500D01*
X14894000Y-11662500D02*
X14894000Y-11717500D01*
X14829000Y-11717500D02*
G75*
G03X14894000Y-11717500I32500J0D01*
G01*
X14894000Y-11662500D02*
G75*
G03X14829000Y-11662500I-32500J0D01*
G01*
X12035002Y-7871002D02*
X12035002Y-7800998D01*
X11964998Y-7800998D01*
X11964998Y-7871002D01*
X12035002Y-7871002D01*
X12035002Y-8321002D02*
X12035002Y-8250998D01*
X11964998Y-8250998D01*
X11964998Y-8321002D01*
X12035002Y-8321002D01*
X12685002Y-7871002D02*
X12685002Y-7800998D01*
X12614998Y-7800998D01*
X12614998Y-7871002D01*
X12685002Y-7871002D01*
X12685002Y-8321002D02*
X12685002Y-8250998D01*
X12614998Y-8250998D01*
X12614998Y-8321002D01*
X12685002Y-8321002D01*
X15594500Y-7076500D02*
X15644500Y-7026500D01*
X15594500Y-6976500D01*
X15544500Y-7026500D01*
X15594500Y-7076500D01*
X15594500Y-7330500D02*
X15644500Y-7280500D01*
X15594500Y-7230500D01*
X15544500Y-7280500D01*
X15594500Y-7330500D01*
X15594500Y-7584500D02*
X15644500Y-7534500D01*
X15594500Y-7484500D01*
X15544500Y-7534500D01*
X15594500Y-7584500D01*
X13493000Y-7238007D02*
X13543000Y-7188007D01*
X13493000Y-7138007D01*
X13443000Y-7188007D01*
X13493000Y-7238007D01*
X13747000Y-7238007D02*
X13797000Y-7188007D01*
X13747000Y-7138007D01*
X13697000Y-7188007D01*
X13747000Y-7238007D01*
X14001000Y-7238007D02*
X14051000Y-7188007D01*
X14001000Y-7138007D01*
X13951000Y-7188007D01*
X14001000Y-7238007D01*
X11747000Y-7238007D02*
X11797000Y-7188007D01*
X11747000Y-7138007D01*
X11697000Y-7188007D01*
X11747000Y-7238007D01*
X12001000Y-7238007D02*
X12051000Y-7188007D01*
X12001000Y-7138007D01*
X11951000Y-7188007D01*
X12001000Y-7238007D01*
X12255000Y-7238007D02*
X12305000Y-7188007D01*
X12255000Y-7138007D01*
X12205000Y-7188007D01*
X12255000Y-7238007D01*
X15594500Y-7946500D02*
X15644500Y-7896500D01*
X15594500Y-7846500D01*
X15544500Y-7896500D01*
X15594500Y-7946500D01*
X15594500Y-8200500D02*
X15644500Y-8150500D01*
X15594500Y-8100500D01*
X15544500Y-8150500D01*
X15594500Y-8200500D01*
X15594500Y-8454500D02*
X15644500Y-8404500D01*
X15594500Y-8354500D01*
X15544500Y-8404500D01*
X15594500Y-8454500D01*
X12979000Y-11197000D02*
X13029000Y-11147000D01*
X12979000Y-11097000D01*
X12929000Y-11147000D01*
X12979000Y-11197000D01*
X13233000Y-11197000D02*
X13283000Y-11147000D01*
X13233000Y-11097000D01*
X13183000Y-11147000D01*
X13233000Y-11197000D01*
X13487000Y-11197000D02*
X13537000Y-11147000D01*
X13487000Y-11097000D01*
X13437000Y-11147000D01*
X13487000Y-11197000D01*
X13741000Y-11197000D02*
X13791000Y-11147000D01*
X13741000Y-11097000D01*
X13691000Y-11147000D01*
X13741000Y-11197000D01*
X13995000Y-11197000D02*
X14045000Y-11147000D01*
X13995000Y-11097000D01*
X13945000Y-11147000D01*
X13995000Y-11197000D01*
X14249000Y-11197000D02*
X14299000Y-11147000D01*
X14249000Y-11097000D01*
X14199000Y-11147000D01*
X14249000Y-11197000D01*
X14397231Y-7238007D02*
X14447231Y-7188007D01*
X14397231Y-7138007D01*
X14347231Y-7188007D01*
X14397231Y-7238007D01*
X14651231Y-7238007D02*
X14701231Y-7188007D01*
X14651231Y-7138007D01*
X14601231Y-7188007D01*
X14651231Y-7238007D01*
X14905231Y-7238007D02*
X14955231Y-7188007D01*
X14905231Y-7138007D01*
X14855231Y-7188007D01*
X14905231Y-7238007D01*
X11704000Y-11311000D02*
X11754000Y-11261000D01*
X11704000Y-11211000D01*
X11654000Y-11261000D01*
X11704000Y-11311000D01*
X11664000Y-11186000D02*
X11664000Y-11336000D01*
X11744000Y-11186000D02*
X11744000Y-11336000D01*
X11664000Y-11336000D02*
G75*
G03X11744000Y-11336000I40000J0D01*
G01*
X11744000Y-11186000D02*
G75*
G03X11664000Y-11186000I-40000J0D01*
G01*
X12154000Y-10611000D02*
X12204000Y-10561000D01*
X12154000Y-10511000D01*
X12104000Y-10561000D01*
X12154000Y-10611000D01*
X12054000Y-10601000D02*
X12254000Y-10601000D01*
X12054000Y-10521000D02*
X12254000Y-10521000D01*
X12254000Y-10601000D02*
G75*
G03X12254000Y-10521000I0J40000D01*
G01*
X12054000Y-10521000D02*
G75*
G03X12054000Y-10601000I0J-40000D01*
G01*
X12154000Y-11211000D02*
X12204000Y-11161000D01*
X12154000Y-11111000D01*
X12104000Y-11161000D01*
X12154000Y-11211000D01*
X12089000Y-11201000D02*
X12219000Y-11201000D01*
X12089000Y-11121000D02*
X12219000Y-11121000D01*
X12219000Y-11201000D02*
G75*
G03X12219000Y-11121000I0J40000D01*
G01*
X12089000Y-11121000D02*
G75*
G03X12089000Y-11201000I0J-40000D01*
G01*
X12604000Y-11311000D02*
X12654000Y-11261000D01*
X12604000Y-11211000D01*
X12554000Y-11261000D01*
X12604000Y-11311000D01*
X12564000Y-11186000D02*
X12564000Y-11336000D01*
X12644000Y-11186000D02*
X12644000Y-11336000D01*
X12564000Y-11336000D02*
G75*
G03X12644000Y-11336000I40000J0D01*
G01*
X12644000Y-11186000D02*
G75*
G03X12564000Y-11186000I-40000J0D01*
G01*
X12620000Y-7238007D02*
X12670000Y-7188007D01*
X12620000Y-7138007D01*
X12570000Y-7188007D01*
X12620000Y-7238007D01*
X12874000Y-7238007D02*
X12924000Y-7188007D01*
X12874000Y-7138007D01*
X12824000Y-7188007D01*
X12874000Y-7238007D01*
X13128000Y-7238007D02*
X13178000Y-7188007D01*
X13128000Y-7138007D01*
X13078000Y-7188007D01*
X13128000Y-7238007D01*
X15239000Y-11854000D02*
X15289000Y-11804000D01*
X15239000Y-11754000D01*
X15189000Y-11804000D01*
X15239000Y-11854000D01*
X15493000Y-11854000D02*
X15543000Y-11804000D01*
X15493000Y-11754000D01*
X15443000Y-11804000D01*
X15493000Y-11854000D01*
X15747000Y-11854000D02*
X15797000Y-11804000D01*
X15747000Y-11754000D01*
X15697000Y-11804000D01*
X15747000Y-11854000D01*
X16001000Y-11854000D02*
X16051000Y-11804000D01*
X16001000Y-11754000D01*
X15951000Y-11804000D01*
X16001000Y-11854000D01*
X16255000Y-11854000D02*
X16305000Y-11804000D01*
X16255000Y-11754000D01*
X16205000Y-11804000D01*
X16255000Y-11854000D01*
X16509000Y-11854000D02*
X16559000Y-11804000D01*
X16509000Y-11754000D01*
X16459000Y-11804000D01*
X16509000Y-11854000D01*
D12*
X11721928Y-12829214D02*
X11721928Y-12529214D01*
X11793357Y-12529214D01*
X11836214Y-12543500D01*
X11864786Y-12572071D01*
X11879071Y-12600643D01*
X11893357Y-12657786D01*
X11893357Y-12700643D01*
X11879071Y-12757786D01*
X11864786Y-12786357D01*
X11836214Y-12814929D01*
X11793357Y-12829214D01*
X11721928Y-12829214D01*
X12021928Y-12829214D02*
X12021928Y-12629214D01*
X12021928Y-12686357D02*
X12036214Y-12657786D01*
X12050500Y-12643500D01*
X12079071Y-12629214D01*
X12107643Y-12629214D01*
X12207643Y-12829214D02*
X12207643Y-12629214D01*
X12207643Y-12529214D02*
X12193357Y-12543500D01*
X12207643Y-12557786D01*
X12221928Y-12543500D01*
X12207643Y-12529214D01*
X12207643Y-12557786D01*
X12393357Y-12829214D02*
X12364786Y-12814929D01*
X12350500Y-12786357D01*
X12350500Y-12529214D01*
X12550500Y-12829214D02*
X12521928Y-12814929D01*
X12507643Y-12786357D01*
X12507643Y-12529214D01*
X12893357Y-12829214D02*
X12893357Y-12529214D01*
X12993357Y-12743500D01*
X13093357Y-12529214D01*
X13093357Y-12829214D01*
X13364786Y-12829214D02*
X13364786Y-12672071D01*
X13350500Y-12643500D01*
X13321928Y-12629214D01*
X13264786Y-12629214D01*
X13236214Y-12643500D01*
X13364786Y-12814929D02*
X13336214Y-12829214D01*
X13264786Y-12829214D01*
X13236214Y-12814929D01*
X13221928Y-12786357D01*
X13221928Y-12757786D01*
X13236214Y-12729214D01*
X13264786Y-12714929D01*
X13336214Y-12714929D01*
X13364786Y-12700643D01*
X13507643Y-12629214D02*
X13507643Y-12929214D01*
X13507643Y-12643500D02*
X13536214Y-12629214D01*
X13593357Y-12629214D01*
X13621928Y-12643500D01*
X13636214Y-12657786D01*
X13650500Y-12686357D01*
X13650500Y-12772071D01*
X13636214Y-12800643D01*
X13621928Y-12814929D01*
X13593357Y-12829214D01*
X13536214Y-12829214D01*
X13507643Y-12814929D01*
X13779071Y-12800643D02*
X13793357Y-12814929D01*
X13779071Y-12829214D01*
X13764786Y-12814929D01*
X13779071Y-12800643D01*
X13779071Y-12829214D01*
X13779071Y-12643500D02*
X13793357Y-12657786D01*
X13779071Y-12672071D01*
X13764786Y-12657786D01*
X13779071Y-12643500D01*
X13779071Y-12672071D01*
X11395500Y-13303500D02*
X11435500Y-13343500D01*
X11435500Y-13303500D02*
X11395500Y-13343500D01*
X11779071Y-13159214D02*
X11807643Y-13159214D01*
X11836214Y-13173500D01*
X11850500Y-13187786D01*
X11864786Y-13216357D01*
X11879071Y-13273500D01*
X11879071Y-13344929D01*
X11864786Y-13402071D01*
X11850500Y-13430643D01*
X11836214Y-13444929D01*
X11807643Y-13459214D01*
X11779071Y-13459214D01*
X11750500Y-13444929D01*
X11736214Y-13430643D01*
X11721928Y-13402071D01*
X11707643Y-13344929D01*
X11707643Y-13273500D01*
X11721928Y-13216357D01*
X11736214Y-13187786D01*
X11750500Y-13173500D01*
X11779071Y-13159214D01*
X12007643Y-13430643D02*
X12021928Y-13444929D01*
X12007643Y-13459214D01*
X11993357Y-13444929D01*
X12007643Y-13430643D01*
X12007643Y-13459214D01*
X12279071Y-13259214D02*
X12279071Y-13459214D01*
X12207643Y-13144929D02*
X12136214Y-13359214D01*
X12321928Y-13359214D01*
X12493357Y-13159214D02*
X12521928Y-13159214D01*
X12550500Y-13173500D01*
X12564786Y-13187786D01*
X12579071Y-13216357D01*
X12593357Y-13273500D01*
X12593357Y-13344929D01*
X12579071Y-13402071D01*
X12564786Y-13430643D01*
X12550500Y-13444929D01*
X12521928Y-13459214D01*
X12493357Y-13459214D01*
X12464786Y-13444929D01*
X12450500Y-13430643D01*
X12436214Y-13402071D01*
X12421928Y-13344929D01*
X12421928Y-13273500D01*
X12436214Y-13216357D01*
X12450500Y-13187786D01*
X12464786Y-13173500D01*
X12493357Y-13159214D01*
X12721928Y-13459214D02*
X12721928Y-13259214D01*
X12721928Y-13287786D02*
X12736214Y-13273500D01*
X12764786Y-13259214D01*
X12807643Y-13259214D01*
X12836214Y-13273500D01*
X12850500Y-13302071D01*
X12850500Y-13459214D01*
X12850500Y-13302071D02*
X12864786Y-13273500D01*
X12893357Y-13259214D01*
X12936214Y-13259214D01*
X12964786Y-13273500D01*
X12979071Y-13302071D01*
X12979071Y-13459214D01*
X13121928Y-13459214D02*
X13121928Y-13259214D01*
X13121928Y-13287786D02*
X13136214Y-13273500D01*
X13164786Y-13259214D01*
X13207643Y-13259214D01*
X13236214Y-13273500D01*
X13250500Y-13302071D01*
X13250500Y-13459214D01*
X13250500Y-13302071D02*
X13264786Y-13273500D01*
X13293357Y-13259214D01*
X13336214Y-13259214D01*
X13364786Y-13273500D01*
X13379071Y-13302071D01*
X13379071Y-13459214D01*
X13964786Y-13144929D02*
X13707643Y-13530643D01*
X14350500Y-13159214D02*
X14379071Y-13159214D01*
X14407643Y-13173500D01*
X14421928Y-13187786D01*
X14436214Y-13216357D01*
X14450500Y-13273500D01*
X14450500Y-13344929D01*
X14436214Y-13402071D01*
X14421928Y-13430643D01*
X14407643Y-13444929D01*
X14379071Y-13459214D01*
X14350500Y-13459214D01*
X14321928Y-13444929D01*
X14307643Y-13430643D01*
X14293357Y-13402071D01*
X14279071Y-13344929D01*
X14279071Y-13273500D01*
X14293357Y-13216357D01*
X14307643Y-13187786D01*
X14321928Y-13173500D01*
X14350500Y-13159214D01*
X14579071Y-13430643D02*
X14593357Y-13444929D01*
X14579071Y-13459214D01*
X14564786Y-13444929D01*
X14579071Y-13430643D01*
X14579071Y-13459214D01*
X14779071Y-13159214D02*
X14807643Y-13159214D01*
X14836214Y-13173500D01*
X14850500Y-13187786D01*
X14864786Y-13216357D01*
X14879071Y-13273500D01*
X14879071Y-13344929D01*
X14864786Y-13402071D01*
X14850500Y-13430643D01*
X14836214Y-13444929D01*
X14807643Y-13459214D01*
X14779071Y-13459214D01*
X14750500Y-13444929D01*
X14736214Y-13430643D01*
X14721928Y-13402071D01*
X14707643Y-13344929D01*
X14707643Y-13273500D01*
X14721928Y-13216357D01*
X14736214Y-13187786D01*
X14750500Y-13173500D01*
X14779071Y-13159214D01*
X15164786Y-13459214D02*
X14993357Y-13459214D01*
X15079071Y-13459214D02*
X15079071Y-13159214D01*
X15050500Y-13202071D01*
X15021928Y-13230643D01*
X14993357Y-13244929D01*
X15421928Y-13159214D02*
X15364786Y-13159214D01*
X15336214Y-13173500D01*
X15321928Y-13187786D01*
X15293357Y-13230643D01*
X15279071Y-13287786D01*
X15279071Y-13402071D01*
X15293357Y-13430643D01*
X15307643Y-13444929D01*
X15336214Y-13459214D01*
X15393357Y-13459214D01*
X15421928Y-13444929D01*
X15436214Y-13430643D01*
X15450500Y-13402071D01*
X15450500Y-13330643D01*
X15436214Y-13302071D01*
X15421928Y-13287786D01*
X15393357Y-13273500D01*
X15336214Y-13273500D01*
X15307643Y-13287786D01*
X15293357Y-13302071D01*
X15279071Y-13330643D01*
X15564786Y-13159214D02*
X15564786Y-13216357D01*
X15679071Y-13159214D02*
X15679071Y-13216357D01*
X16121928Y-13573500D02*
X16107643Y-13559214D01*
X16079071Y-13516357D01*
X16064786Y-13487786D01*
X16050500Y-13444929D01*
X16036214Y-13373500D01*
X16036214Y-13316357D01*
X16050500Y-13244929D01*
X16064786Y-13202071D01*
X16079071Y-13173500D01*
X16107643Y-13130643D01*
X16121928Y-13116357D01*
X16221928Y-13187786D02*
X16236214Y-13173500D01*
X16264786Y-13159214D01*
X16336214Y-13159214D01*
X16364786Y-13173500D01*
X16379071Y-13187786D01*
X16393357Y-13216357D01*
X16393357Y-13244929D01*
X16379071Y-13287786D01*
X16207643Y-13459214D01*
X16393357Y-13459214D01*
X16493357Y-13159214D02*
X16679071Y-13159214D01*
X16579071Y-13273500D01*
X16621928Y-13273500D01*
X16650500Y-13287786D01*
X16664786Y-13302071D01*
X16679071Y-13330643D01*
X16679071Y-13402071D01*
X16664786Y-13430643D01*
X16650500Y-13444929D01*
X16621928Y-13459214D01*
X16536214Y-13459214D01*
X16507643Y-13444929D01*
X16493357Y-13430643D01*
X16964786Y-13459214D02*
X16793357Y-13459214D01*
X16879071Y-13459214D02*
X16879071Y-13159214D01*
X16850500Y-13202071D01*
X16821928Y-13230643D01*
X16793357Y-13244929D01*
X17321928Y-13459214D02*
X17321928Y-13159214D01*
X17450500Y-13459214D02*
X17450500Y-13302071D01*
X17436214Y-13273500D01*
X17407643Y-13259214D01*
X17364786Y-13259214D01*
X17336214Y-13273500D01*
X17321928Y-13287786D01*
X17636214Y-13459214D02*
X17607643Y-13444929D01*
X17593357Y-13430643D01*
X17579071Y-13402071D01*
X17579071Y-13316357D01*
X17593357Y-13287786D01*
X17607643Y-13273500D01*
X17636214Y-13259214D01*
X17679071Y-13259214D01*
X17707643Y-13273500D01*
X17721928Y-13287786D01*
X17736214Y-13316357D01*
X17736214Y-13402071D01*
X17721928Y-13430643D01*
X17707643Y-13444929D01*
X17679071Y-13459214D01*
X17636214Y-13459214D01*
X17907643Y-13459214D02*
X17879071Y-13444929D01*
X17864786Y-13416357D01*
X17864786Y-13159214D01*
X18136214Y-13444929D02*
X18107643Y-13459214D01*
X18050500Y-13459214D01*
X18021928Y-13444929D01*
X18007643Y-13416357D01*
X18007643Y-13302071D01*
X18021928Y-13273500D01*
X18050500Y-13259214D01*
X18107643Y-13259214D01*
X18136214Y-13273500D01*
X18150500Y-13302071D01*
X18150500Y-13330643D01*
X18007643Y-13359214D01*
X18264786Y-13444929D02*
X18293357Y-13459214D01*
X18350500Y-13459214D01*
X18379071Y-13444929D01*
X18393357Y-13416357D01*
X18393357Y-13402071D01*
X18379071Y-13373500D01*
X18350500Y-13359214D01*
X18307643Y-13359214D01*
X18279071Y-13344929D01*
X18264786Y-13316357D01*
X18264786Y-13302071D01*
X18279071Y-13273500D01*
X18307643Y-13259214D01*
X18350500Y-13259214D01*
X18379071Y-13273500D01*
X18493357Y-13573500D02*
X18507643Y-13559214D01*
X18536214Y-13516357D01*
X18550500Y-13487786D01*
X18564786Y-13444929D01*
X18579071Y-13373500D01*
X18579071Y-13316357D01*
X18564786Y-13244929D01*
X18550500Y-13202071D01*
X18536214Y-13173500D01*
X18507643Y-13130643D01*
X18493357Y-13116357D01*
X11435500Y-13719500D02*
G75*
G03X11435500Y-13719500I-27500J0D01*
G01*
X11779071Y-13555214D02*
X11807643Y-13555214D01*
X11836214Y-13569500D01*
X11850500Y-13583786D01*
X11864786Y-13612357D01*
X11879071Y-13669500D01*
X11879071Y-13740929D01*
X11864786Y-13798071D01*
X11850500Y-13826643D01*
X11836214Y-13840929D01*
X11807643Y-13855214D01*
X11779071Y-13855214D01*
X11750500Y-13840929D01*
X11736214Y-13826643D01*
X11721928Y-13798071D01*
X11707643Y-13740929D01*
X11707643Y-13669500D01*
X11721928Y-13612357D01*
X11736214Y-13583786D01*
X11750500Y-13569500D01*
X11779071Y-13555214D01*
X12007643Y-13826643D02*
X12021928Y-13840929D01*
X12007643Y-13855214D01*
X11993357Y-13840929D01*
X12007643Y-13826643D01*
X12007643Y-13855214D01*
X12293357Y-13555214D02*
X12150500Y-13555214D01*
X12136214Y-13698071D01*
X12150500Y-13683786D01*
X12179071Y-13669500D01*
X12250500Y-13669500D01*
X12279071Y-13683786D01*
X12293357Y-13698071D01*
X12307643Y-13726643D01*
X12307643Y-13798071D01*
X12293357Y-13826643D01*
X12279071Y-13840929D01*
X12250500Y-13855214D01*
X12179071Y-13855214D01*
X12150500Y-13840929D01*
X12136214Y-13826643D01*
X12579071Y-13555214D02*
X12436214Y-13555214D01*
X12421928Y-13698071D01*
X12436214Y-13683786D01*
X12464786Y-13669500D01*
X12536214Y-13669500D01*
X12564786Y-13683786D01*
X12579071Y-13698071D01*
X12593357Y-13726643D01*
X12593357Y-13798071D01*
X12579071Y-13826643D01*
X12564786Y-13840929D01*
X12536214Y-13855214D01*
X12464786Y-13855214D01*
X12436214Y-13840929D01*
X12421928Y-13826643D01*
X12721928Y-13855214D02*
X12721928Y-13655214D01*
X12721928Y-13683786D02*
X12736214Y-13669500D01*
X12764786Y-13655214D01*
X12807643Y-13655214D01*
X12836214Y-13669500D01*
X12850500Y-13698071D01*
X12850500Y-13855214D01*
X12850500Y-13698071D02*
X12864786Y-13669500D01*
X12893357Y-13655214D01*
X12936214Y-13655214D01*
X12964786Y-13669500D01*
X12979071Y-13698071D01*
X12979071Y-13855214D01*
X13121928Y-13855214D02*
X13121928Y-13655214D01*
X13121928Y-13683786D02*
X13136214Y-13669500D01*
X13164786Y-13655214D01*
X13207643Y-13655214D01*
X13236214Y-13669500D01*
X13250500Y-13698071D01*
X13250500Y-13855214D01*
X13250500Y-13698071D02*
X13264786Y-13669500D01*
X13293357Y-13655214D01*
X13336214Y-13655214D01*
X13364786Y-13669500D01*
X13379071Y-13698071D01*
X13379071Y-13855214D01*
X13964786Y-13540929D02*
X13707643Y-13926643D01*
X14350500Y-13555214D02*
X14379071Y-13555214D01*
X14407643Y-13569500D01*
X14421928Y-13583786D01*
X14436214Y-13612357D01*
X14450500Y-13669500D01*
X14450500Y-13740929D01*
X14436214Y-13798071D01*
X14421928Y-13826643D01*
X14407643Y-13840929D01*
X14379071Y-13855214D01*
X14350500Y-13855214D01*
X14321928Y-13840929D01*
X14307643Y-13826643D01*
X14293357Y-13798071D01*
X14279071Y-13740929D01*
X14279071Y-13669500D01*
X14293357Y-13612357D01*
X14307643Y-13583786D01*
X14321928Y-13569500D01*
X14350500Y-13555214D01*
X14579071Y-13826643D02*
X14593357Y-13840929D01*
X14579071Y-13855214D01*
X14564786Y-13840929D01*
X14579071Y-13826643D01*
X14579071Y-13855214D01*
X14779071Y-13555214D02*
X14807643Y-13555214D01*
X14836214Y-13569500D01*
X14850500Y-13583786D01*
X14864786Y-13612357D01*
X14879071Y-13669500D01*
X14879071Y-13740929D01*
X14864786Y-13798071D01*
X14850500Y-13826643D01*
X14836214Y-13840929D01*
X14807643Y-13855214D01*
X14779071Y-13855214D01*
X14750500Y-13840929D01*
X14736214Y-13826643D01*
X14721928Y-13798071D01*
X14707643Y-13740929D01*
X14707643Y-13669500D01*
X14721928Y-13612357D01*
X14736214Y-13583786D01*
X14750500Y-13569500D01*
X14779071Y-13555214D01*
X14993357Y-13583786D02*
X15007643Y-13569500D01*
X15036214Y-13555214D01*
X15107643Y-13555214D01*
X15136214Y-13569500D01*
X15150500Y-13583786D01*
X15164786Y-13612357D01*
X15164786Y-13640929D01*
X15150500Y-13683786D01*
X14979071Y-13855214D01*
X15164786Y-13855214D01*
X15279071Y-13583786D02*
X15293357Y-13569500D01*
X15321928Y-13555214D01*
X15393357Y-13555214D01*
X15421928Y-13569500D01*
X15436214Y-13583786D01*
X15450500Y-13612357D01*
X15450500Y-13640929D01*
X15436214Y-13683786D01*
X15264786Y-13855214D01*
X15450500Y-13855214D01*
X15564786Y-13555214D02*
X15564786Y-13612357D01*
X15679071Y-13555214D02*
X15679071Y-13612357D01*
X16121928Y-13969500D02*
X16107643Y-13955214D01*
X16079071Y-13912357D01*
X16064786Y-13883786D01*
X16050500Y-13840929D01*
X16036214Y-13769500D01*
X16036214Y-13712357D01*
X16050500Y-13640929D01*
X16064786Y-13598071D01*
X16079071Y-13569500D01*
X16107643Y-13526643D01*
X16121928Y-13512357D01*
X16293357Y-13555214D02*
X16321928Y-13555214D01*
X16350500Y-13569500D01*
X16364786Y-13583786D01*
X16379071Y-13612357D01*
X16393357Y-13669500D01*
X16393357Y-13740929D01*
X16379071Y-13798071D01*
X16364786Y-13826643D01*
X16350500Y-13840929D01*
X16321928Y-13855214D01*
X16293357Y-13855214D01*
X16264786Y-13840929D01*
X16250500Y-13826643D01*
X16236214Y-13798071D01*
X16221928Y-13740929D01*
X16221928Y-13669500D01*
X16236214Y-13612357D01*
X16250500Y-13583786D01*
X16264786Y-13569500D01*
X16293357Y-13555214D01*
X16750500Y-13855214D02*
X16750500Y-13555214D01*
X16879071Y-13855214D02*
X16879071Y-13698071D01*
X16864786Y-13669500D01*
X16836214Y-13655214D01*
X16793357Y-13655214D01*
X16764786Y-13669500D01*
X16750500Y-13683786D01*
X17064786Y-13855214D02*
X17036214Y-13840929D01*
X17021928Y-13826643D01*
X17007643Y-13798071D01*
X17007643Y-13712357D01*
X17021928Y-13683786D01*
X17036214Y-13669500D01*
X17064786Y-13655214D01*
X17107643Y-13655214D01*
X17136214Y-13669500D01*
X17150500Y-13683786D01*
X17164786Y-13712357D01*
X17164786Y-13798071D01*
X17150500Y-13826643D01*
X17136214Y-13840929D01*
X17107643Y-13855214D01*
X17064786Y-13855214D01*
X17336214Y-13855214D02*
X17307643Y-13840929D01*
X17293357Y-13812357D01*
X17293357Y-13555214D01*
X17564786Y-13840929D02*
X17536214Y-13855214D01*
X17479071Y-13855214D01*
X17450500Y-13840929D01*
X17436214Y-13812357D01*
X17436214Y-13698071D01*
X17450500Y-13669500D01*
X17479071Y-13655214D01*
X17536214Y-13655214D01*
X17564786Y-13669500D01*
X17579071Y-13698071D01*
X17579071Y-13726643D01*
X17436214Y-13755214D01*
X17693357Y-13840929D02*
X17721928Y-13855214D01*
X17779071Y-13855214D01*
X17807643Y-13840929D01*
X17821928Y-13812357D01*
X17821928Y-13798071D01*
X17807643Y-13769500D01*
X17779071Y-13755214D01*
X17736214Y-13755214D01*
X17707643Y-13740929D01*
X17693357Y-13712357D01*
X17693357Y-13698071D01*
X17707643Y-13669500D01*
X17736214Y-13655214D01*
X17779071Y-13655214D01*
X17807643Y-13669500D01*
X18179071Y-13740929D02*
X18407643Y-13740929D01*
X18293357Y-13855214D02*
X18293357Y-13626643D01*
X18764786Y-13583786D02*
X18779071Y-13569500D01*
X18807643Y-13555214D01*
X18879071Y-13555214D01*
X18907643Y-13569500D01*
X18921928Y-13583786D01*
X18936214Y-13612357D01*
X18936214Y-13640929D01*
X18921928Y-13683786D01*
X18750500Y-13855214D01*
X18936214Y-13855214D01*
X19279071Y-13840929D02*
X19307643Y-13855214D01*
X19364786Y-13855214D01*
X19393357Y-13840929D01*
X19407643Y-13812357D01*
X19407643Y-13798071D01*
X19393357Y-13769500D01*
X19364786Y-13755214D01*
X19321928Y-13755214D01*
X19293357Y-13740929D01*
X19279071Y-13712357D01*
X19279071Y-13698071D01*
X19293357Y-13669500D01*
X19321928Y-13655214D01*
X19364786Y-13655214D01*
X19393357Y-13669500D01*
X19579071Y-13855214D02*
X19550500Y-13840929D01*
X19536214Y-13812357D01*
X19536214Y-13555214D01*
X19736214Y-13855214D02*
X19707643Y-13840929D01*
X19693357Y-13826643D01*
X19679071Y-13798071D01*
X19679071Y-13712357D01*
X19693357Y-13683786D01*
X19707643Y-13669500D01*
X19736214Y-13655214D01*
X19779071Y-13655214D01*
X19807643Y-13669500D01*
X19821928Y-13683786D01*
X19836214Y-13712357D01*
X19836214Y-13798071D01*
X19821928Y-13826643D01*
X19807643Y-13840929D01*
X19779071Y-13855214D01*
X19736214Y-13855214D01*
X19921928Y-13655214D02*
X20036214Y-13655214D01*
X19964786Y-13555214D02*
X19964786Y-13812357D01*
X19979071Y-13840929D01*
X20007643Y-13855214D01*
X20036214Y-13855214D01*
X20121928Y-13840929D02*
X20150500Y-13855214D01*
X20207643Y-13855214D01*
X20236214Y-13840929D01*
X20250500Y-13812357D01*
X20250500Y-13798071D01*
X20236214Y-13769500D01*
X20207643Y-13755214D01*
X20164786Y-13755214D01*
X20136214Y-13740929D01*
X20121928Y-13712357D01*
X20121928Y-13698071D01*
X20136214Y-13669500D01*
X20164786Y-13655214D01*
X20207643Y-13655214D01*
X20236214Y-13669500D01*
X20350500Y-13969500D02*
X20364786Y-13955214D01*
X20393357Y-13912357D01*
X20407643Y-13883786D01*
X20421928Y-13840929D01*
X20436214Y-13769500D01*
X20436214Y-13712357D01*
X20421928Y-13640929D01*
X20407643Y-13598071D01*
X20393357Y-13569500D01*
X20364786Y-13526643D01*
X20350500Y-13512357D01*
X11393000Y-14073000D02*
X11393000Y-14158000D01*
X11350500Y-14115500D02*
X11435500Y-14115500D01*
X11779071Y-13951214D02*
X11807643Y-13951214D01*
X11836214Y-13965500D01*
X11850500Y-13979786D01*
X11864786Y-14008357D01*
X11879071Y-14065500D01*
X11879071Y-14136929D01*
X11864786Y-14194071D01*
X11850500Y-14222643D01*
X11836214Y-14236929D01*
X11807643Y-14251214D01*
X11779071Y-14251214D01*
X11750500Y-14236929D01*
X11736214Y-14222643D01*
X11721928Y-14194071D01*
X11707643Y-14136929D01*
X11707643Y-14065500D01*
X11721928Y-14008357D01*
X11736214Y-13979786D01*
X11750500Y-13965500D01*
X11779071Y-13951214D01*
X12007643Y-14222643D02*
X12021928Y-14236929D01*
X12007643Y-14251214D01*
X11993357Y-14236929D01*
X12007643Y-14222643D01*
X12007643Y-14251214D01*
X12193357Y-14079786D02*
X12164786Y-14065500D01*
X12150500Y-14051214D01*
X12136214Y-14022643D01*
X12136214Y-14008357D01*
X12150500Y-13979786D01*
X12164786Y-13965500D01*
X12193357Y-13951214D01*
X12250500Y-13951214D01*
X12279071Y-13965500D01*
X12293357Y-13979786D01*
X12307643Y-14008357D01*
X12307643Y-14022643D01*
X12293357Y-14051214D01*
X12279071Y-14065500D01*
X12250500Y-14079786D01*
X12193357Y-14079786D01*
X12164786Y-14094071D01*
X12150500Y-14108357D01*
X12136214Y-14136929D01*
X12136214Y-14194071D01*
X12150500Y-14222643D01*
X12164786Y-14236929D01*
X12193357Y-14251214D01*
X12250500Y-14251214D01*
X12279071Y-14236929D01*
X12293357Y-14222643D01*
X12307643Y-14194071D01*
X12307643Y-14136929D01*
X12293357Y-14108357D01*
X12279071Y-14094071D01*
X12250500Y-14079786D01*
X12579071Y-13951214D02*
X12436214Y-13951214D01*
X12421928Y-14094071D01*
X12436214Y-14079786D01*
X12464786Y-14065500D01*
X12536214Y-14065500D01*
X12564786Y-14079786D01*
X12579071Y-14094071D01*
X12593357Y-14122643D01*
X12593357Y-14194071D01*
X12579071Y-14222643D01*
X12564786Y-14236929D01*
X12536214Y-14251214D01*
X12464786Y-14251214D01*
X12436214Y-14236929D01*
X12421928Y-14222643D01*
X12721928Y-14251214D02*
X12721928Y-14051214D01*
X12721928Y-14079786D02*
X12736214Y-14065500D01*
X12764786Y-14051214D01*
X12807643Y-14051214D01*
X12836214Y-14065500D01*
X12850500Y-14094071D01*
X12850500Y-14251214D01*
X12850500Y-14094071D02*
X12864786Y-14065500D01*
X12893357Y-14051214D01*
X12936214Y-14051214D01*
X12964786Y-14065500D01*
X12979071Y-14094071D01*
X12979071Y-14251214D01*
X13121928Y-14251214D02*
X13121928Y-14051214D01*
X13121928Y-14079786D02*
X13136214Y-14065500D01*
X13164786Y-14051214D01*
X13207643Y-14051214D01*
X13236214Y-14065500D01*
X13250500Y-14094071D01*
X13250500Y-14251214D01*
X13250500Y-14094071D02*
X13264786Y-14065500D01*
X13293357Y-14051214D01*
X13336214Y-14051214D01*
X13364786Y-14065500D01*
X13379071Y-14094071D01*
X13379071Y-14251214D01*
X13964786Y-13936929D02*
X13707643Y-14322643D01*
X14350500Y-13951214D02*
X14379071Y-13951214D01*
X14407643Y-13965500D01*
X14421928Y-13979786D01*
X14436214Y-14008357D01*
X14450500Y-14065500D01*
X14450500Y-14136929D01*
X14436214Y-14194071D01*
X14421928Y-14222643D01*
X14407643Y-14236929D01*
X14379071Y-14251214D01*
X14350500Y-14251214D01*
X14321928Y-14236929D01*
X14307643Y-14222643D01*
X14293357Y-14194071D01*
X14279071Y-14136929D01*
X14279071Y-14065500D01*
X14293357Y-14008357D01*
X14307643Y-13979786D01*
X14321928Y-13965500D01*
X14350500Y-13951214D01*
X14579071Y-14222643D02*
X14593357Y-14236929D01*
X14579071Y-14251214D01*
X14564786Y-14236929D01*
X14579071Y-14222643D01*
X14579071Y-14251214D01*
X14779071Y-13951214D02*
X14807643Y-13951214D01*
X14836214Y-13965500D01*
X14850500Y-13979786D01*
X14864786Y-14008357D01*
X14879071Y-14065500D01*
X14879071Y-14136929D01*
X14864786Y-14194071D01*
X14850500Y-14222643D01*
X14836214Y-14236929D01*
X14807643Y-14251214D01*
X14779071Y-14251214D01*
X14750500Y-14236929D01*
X14736214Y-14222643D01*
X14721928Y-14194071D01*
X14707643Y-14136929D01*
X14707643Y-14065500D01*
X14721928Y-14008357D01*
X14736214Y-13979786D01*
X14750500Y-13965500D01*
X14779071Y-13951214D01*
X14979071Y-13951214D02*
X15164786Y-13951214D01*
X15064786Y-14065500D01*
X15107643Y-14065500D01*
X15136214Y-14079786D01*
X15150500Y-14094071D01*
X15164786Y-14122643D01*
X15164786Y-14194071D01*
X15150500Y-14222643D01*
X15136214Y-14236929D01*
X15107643Y-14251214D01*
X15021928Y-14251214D01*
X14993357Y-14236929D01*
X14979071Y-14222643D01*
X15264786Y-13951214D02*
X15450500Y-13951214D01*
X15350500Y-14065500D01*
X15393357Y-14065500D01*
X15421928Y-14079786D01*
X15436214Y-14094071D01*
X15450500Y-14122643D01*
X15450500Y-14194071D01*
X15436214Y-14222643D01*
X15421928Y-14236929D01*
X15393357Y-14251214D01*
X15307643Y-14251214D01*
X15279071Y-14236929D01*
X15264786Y-14222643D01*
X15564786Y-13951214D02*
X15564786Y-14008357D01*
X15679071Y-13951214D02*
X15679071Y-14008357D01*
X16121928Y-14365500D02*
X16107643Y-14351214D01*
X16079071Y-14308357D01*
X16064786Y-14279786D01*
X16050500Y-14236929D01*
X16036214Y-14165500D01*
X16036214Y-14108357D01*
X16050500Y-14036929D01*
X16064786Y-13994071D01*
X16079071Y-13965500D01*
X16107643Y-13922643D01*
X16121928Y-13908357D01*
X16293357Y-13951214D02*
X16321928Y-13951214D01*
X16350500Y-13965500D01*
X16364786Y-13979786D01*
X16379071Y-14008357D01*
X16393357Y-14065500D01*
X16393357Y-14136929D01*
X16379071Y-14194071D01*
X16364786Y-14222643D01*
X16350500Y-14236929D01*
X16321928Y-14251214D01*
X16293357Y-14251214D01*
X16264786Y-14236929D01*
X16250500Y-14222643D01*
X16236214Y-14194071D01*
X16221928Y-14136929D01*
X16221928Y-14065500D01*
X16236214Y-14008357D01*
X16250500Y-13979786D01*
X16264786Y-13965500D01*
X16293357Y-13951214D01*
X16750500Y-14251214D02*
X16750500Y-13951214D01*
X16879071Y-14251214D02*
X16879071Y-14094071D01*
X16864786Y-14065500D01*
X16836214Y-14051214D01*
X16793357Y-14051214D01*
X16764786Y-14065500D01*
X16750500Y-14079786D01*
X17064786Y-14251214D02*
X17036214Y-14236929D01*
X17021928Y-14222643D01*
X17007643Y-14194071D01*
X17007643Y-14108357D01*
X17021928Y-14079786D01*
X17036214Y-14065500D01*
X17064786Y-14051214D01*
X17107643Y-14051214D01*
X17136214Y-14065500D01*
X17150500Y-14079786D01*
X17164786Y-14108357D01*
X17164786Y-14194071D01*
X17150500Y-14222643D01*
X17136214Y-14236929D01*
X17107643Y-14251214D01*
X17064786Y-14251214D01*
X17336214Y-14251214D02*
X17307643Y-14236929D01*
X17293357Y-14208357D01*
X17293357Y-13951214D01*
X17564786Y-14236929D02*
X17536214Y-14251214D01*
X17479071Y-14251214D01*
X17450500Y-14236929D01*
X17436214Y-14208357D01*
X17436214Y-14094071D01*
X17450500Y-14065500D01*
X17479071Y-14051214D01*
X17536214Y-14051214D01*
X17564786Y-14065500D01*
X17579071Y-14094071D01*
X17579071Y-14122643D01*
X17436214Y-14151214D01*
X17693357Y-14236929D02*
X17721928Y-14251214D01*
X17779071Y-14251214D01*
X17807643Y-14236929D01*
X17821928Y-14208357D01*
X17821928Y-14194071D01*
X17807643Y-14165500D01*
X17779071Y-14151214D01*
X17736214Y-14151214D01*
X17707643Y-14136929D01*
X17693357Y-14108357D01*
X17693357Y-14094071D01*
X17707643Y-14065500D01*
X17736214Y-14051214D01*
X17779071Y-14051214D01*
X17807643Y-14065500D01*
X18179071Y-14136929D02*
X18407643Y-14136929D01*
X18293357Y-14251214D02*
X18293357Y-14022643D01*
X18764786Y-13979786D02*
X18779071Y-13965500D01*
X18807643Y-13951214D01*
X18879071Y-13951214D01*
X18907643Y-13965500D01*
X18921928Y-13979786D01*
X18936214Y-14008357D01*
X18936214Y-14036929D01*
X18921928Y-14079786D01*
X18750500Y-14251214D01*
X18936214Y-14251214D01*
X19279071Y-14236929D02*
X19307643Y-14251214D01*
X19364786Y-14251214D01*
X19393357Y-14236929D01*
X19407643Y-14208357D01*
X19407643Y-14194071D01*
X19393357Y-14165500D01*
X19364786Y-14151214D01*
X19321928Y-14151214D01*
X19293357Y-14136929D01*
X19279071Y-14108357D01*
X19279071Y-14094071D01*
X19293357Y-14065500D01*
X19321928Y-14051214D01*
X19364786Y-14051214D01*
X19393357Y-14065500D01*
X19579071Y-14251214D02*
X19550500Y-14236929D01*
X19536214Y-14208357D01*
X19536214Y-13951214D01*
X19736214Y-14251214D02*
X19707643Y-14236929D01*
X19693357Y-14222643D01*
X19679071Y-14194071D01*
X19679071Y-14108357D01*
X19693357Y-14079786D01*
X19707643Y-14065500D01*
X19736214Y-14051214D01*
X19779071Y-14051214D01*
X19807643Y-14065500D01*
X19821928Y-14079786D01*
X19836214Y-14108357D01*
X19836214Y-14194071D01*
X19821928Y-14222643D01*
X19807643Y-14236929D01*
X19779071Y-14251214D01*
X19736214Y-14251214D01*
X19921928Y-14051214D02*
X20036214Y-14051214D01*
X19964786Y-13951214D02*
X19964786Y-14208357D01*
X19979071Y-14236929D01*
X20007643Y-14251214D01*
X20036214Y-14251214D01*
X20121928Y-14236929D02*
X20150500Y-14251214D01*
X20207643Y-14251214D01*
X20236214Y-14236929D01*
X20250500Y-14208357D01*
X20250500Y-14194071D01*
X20236214Y-14165500D01*
X20207643Y-14151214D01*
X20164786Y-14151214D01*
X20136214Y-14136929D01*
X20121928Y-14108357D01*
X20121928Y-14094071D01*
X20136214Y-14065500D01*
X20164786Y-14051214D01*
X20207643Y-14051214D01*
X20236214Y-14065500D01*
X20350500Y-14365500D02*
X20364786Y-14351214D01*
X20393357Y-14308357D01*
X20407643Y-14279786D01*
X20421928Y-14236929D01*
X20436214Y-14165500D01*
X20436214Y-14108357D01*
X20421928Y-14036929D01*
X20407643Y-13994071D01*
X20393357Y-13965500D01*
X20364786Y-13922643D01*
X20350500Y-13908357D01*
X11421002Y-14546502D02*
X11421002Y-14476498D01*
X11350998Y-14476498D01*
X11350998Y-14546502D01*
X11421002Y-14546502D01*
X11779071Y-14347214D02*
X11807643Y-14347214D01*
X11836214Y-14361500D01*
X11850500Y-14375786D01*
X11864786Y-14404357D01*
X11879071Y-14461500D01*
X11879071Y-14532929D01*
X11864786Y-14590071D01*
X11850500Y-14618643D01*
X11836214Y-14632929D01*
X11807643Y-14647214D01*
X11779071Y-14647214D01*
X11750500Y-14632929D01*
X11736214Y-14618643D01*
X11721928Y-14590071D01*
X11707643Y-14532929D01*
X11707643Y-14461500D01*
X11721928Y-14404357D01*
X11736214Y-14375786D01*
X11750500Y-14361500D01*
X11779071Y-14347214D01*
X12007643Y-14618643D02*
X12021928Y-14632929D01*
X12007643Y-14647214D01*
X11993357Y-14632929D01*
X12007643Y-14618643D01*
X12007643Y-14647214D01*
X12164786Y-14647214D02*
X12221928Y-14647214D01*
X12250500Y-14632929D01*
X12264786Y-14618643D01*
X12293357Y-14575786D01*
X12307643Y-14518643D01*
X12307643Y-14404357D01*
X12293357Y-14375786D01*
X12279071Y-14361500D01*
X12250500Y-14347214D01*
X12193357Y-14347214D01*
X12164786Y-14361500D01*
X12150500Y-14375786D01*
X12136214Y-14404357D01*
X12136214Y-14475786D01*
X12150500Y-14504357D01*
X12164786Y-14518643D01*
X12193357Y-14532929D01*
X12250500Y-14532929D01*
X12279071Y-14518643D01*
X12293357Y-14504357D01*
X12307643Y-14475786D01*
X12450500Y-14647214D02*
X12507643Y-14647214D01*
X12536214Y-14632929D01*
X12550500Y-14618643D01*
X12579071Y-14575786D01*
X12593357Y-14518643D01*
X12593357Y-14404357D01*
X12579071Y-14375786D01*
X12564786Y-14361500D01*
X12536214Y-14347214D01*
X12479071Y-14347214D01*
X12450500Y-14361500D01*
X12436214Y-14375786D01*
X12421928Y-14404357D01*
X12421928Y-14475786D01*
X12436214Y-14504357D01*
X12450500Y-14518643D01*
X12479071Y-14532929D01*
X12536214Y-14532929D01*
X12564786Y-14518643D01*
X12579071Y-14504357D01*
X12593357Y-14475786D01*
X12721928Y-14647214D02*
X12721928Y-14447214D01*
X12721928Y-14475786D02*
X12736214Y-14461500D01*
X12764786Y-14447214D01*
X12807643Y-14447214D01*
X12836214Y-14461500D01*
X12850500Y-14490071D01*
X12850500Y-14647214D01*
X12850500Y-14490071D02*
X12864786Y-14461500D01*
X12893357Y-14447214D01*
X12936214Y-14447214D01*
X12964786Y-14461500D01*
X12979071Y-14490071D01*
X12979071Y-14647214D01*
X13121928Y-14647214D02*
X13121928Y-14447214D01*
X13121928Y-14475786D02*
X13136214Y-14461500D01*
X13164786Y-14447214D01*
X13207643Y-14447214D01*
X13236214Y-14461500D01*
X13250500Y-14490071D01*
X13250500Y-14647214D01*
X13250500Y-14490071D02*
X13264786Y-14461500D01*
X13293357Y-14447214D01*
X13336214Y-14447214D01*
X13364786Y-14461500D01*
X13379071Y-14490071D01*
X13379071Y-14647214D01*
X13964786Y-14332929D02*
X13707643Y-14718643D01*
X14350500Y-14347214D02*
X14379071Y-14347214D01*
X14407643Y-14361500D01*
X14421928Y-14375786D01*
X14436214Y-14404357D01*
X14450500Y-14461500D01*
X14450500Y-14532929D01*
X14436214Y-14590071D01*
X14421928Y-14618643D01*
X14407643Y-14632929D01*
X14379071Y-14647214D01*
X14350500Y-14647214D01*
X14321928Y-14632929D01*
X14307643Y-14618643D01*
X14293357Y-14590071D01*
X14279071Y-14532929D01*
X14279071Y-14461500D01*
X14293357Y-14404357D01*
X14307643Y-14375786D01*
X14321928Y-14361500D01*
X14350500Y-14347214D01*
X14579071Y-14618643D02*
X14593357Y-14632929D01*
X14579071Y-14647214D01*
X14564786Y-14632929D01*
X14579071Y-14618643D01*
X14579071Y-14647214D01*
X14779071Y-14347214D02*
X14807643Y-14347214D01*
X14836214Y-14361500D01*
X14850500Y-14375786D01*
X14864786Y-14404357D01*
X14879071Y-14461500D01*
X14879071Y-14532929D01*
X14864786Y-14590071D01*
X14850500Y-14618643D01*
X14836214Y-14632929D01*
X14807643Y-14647214D01*
X14779071Y-14647214D01*
X14750500Y-14632929D01*
X14736214Y-14618643D01*
X14721928Y-14590071D01*
X14707643Y-14532929D01*
X14707643Y-14461500D01*
X14721928Y-14404357D01*
X14736214Y-14375786D01*
X14750500Y-14361500D01*
X14779071Y-14347214D01*
X14979071Y-14347214D02*
X15164786Y-14347214D01*
X15064786Y-14461500D01*
X15107643Y-14461500D01*
X15136214Y-14475786D01*
X15150500Y-14490071D01*
X15164786Y-14518643D01*
X15164786Y-14590071D01*
X15150500Y-14618643D01*
X15136214Y-14632929D01*
X15107643Y-14647214D01*
X15021928Y-14647214D01*
X14993357Y-14632929D01*
X14979071Y-14618643D01*
X15307643Y-14647214D02*
X15364786Y-14647214D01*
X15393357Y-14632929D01*
X15407643Y-14618643D01*
X15436214Y-14575786D01*
X15450500Y-14518643D01*
X15450500Y-14404357D01*
X15436214Y-14375786D01*
X15421928Y-14361500D01*
X15393357Y-14347214D01*
X15336214Y-14347214D01*
X15307643Y-14361500D01*
X15293357Y-14375786D01*
X15279071Y-14404357D01*
X15279071Y-14475786D01*
X15293357Y-14504357D01*
X15307643Y-14518643D01*
X15336214Y-14532929D01*
X15393357Y-14532929D01*
X15421928Y-14518643D01*
X15436214Y-14504357D01*
X15450500Y-14475786D01*
X15564786Y-14347214D02*
X15564786Y-14404357D01*
X15679071Y-14347214D02*
X15679071Y-14404357D01*
X16121928Y-14761500D02*
X16107643Y-14747214D01*
X16079071Y-14704357D01*
X16064786Y-14675786D01*
X16050500Y-14632929D01*
X16036214Y-14561500D01*
X16036214Y-14504357D01*
X16050500Y-14432929D01*
X16064786Y-14390071D01*
X16079071Y-14361500D01*
X16107643Y-14318643D01*
X16121928Y-14304357D01*
X16364786Y-14447214D02*
X16364786Y-14647214D01*
X16293357Y-14332929D02*
X16221928Y-14547214D01*
X16407643Y-14547214D01*
X16750500Y-14647214D02*
X16750500Y-14347214D01*
X16879071Y-14647214D02*
X16879071Y-14490071D01*
X16864786Y-14461500D01*
X16836214Y-14447214D01*
X16793357Y-14447214D01*
X16764786Y-14461500D01*
X16750500Y-14475786D01*
X17064786Y-14647214D02*
X17036214Y-14632929D01*
X17021928Y-14618643D01*
X17007643Y-14590071D01*
X17007643Y-14504357D01*
X17021928Y-14475786D01*
X17036214Y-14461500D01*
X17064786Y-14447214D01*
X17107643Y-14447214D01*
X17136214Y-14461500D01*
X17150500Y-14475786D01*
X17164786Y-14504357D01*
X17164786Y-14590071D01*
X17150500Y-14618643D01*
X17136214Y-14632929D01*
X17107643Y-14647214D01*
X17064786Y-14647214D01*
X17336214Y-14647214D02*
X17307643Y-14632929D01*
X17293357Y-14604357D01*
X17293357Y-14347214D01*
X17564786Y-14632929D02*
X17536214Y-14647214D01*
X17479071Y-14647214D01*
X17450500Y-14632929D01*
X17436214Y-14604357D01*
X17436214Y-14490071D01*
X17450500Y-14461500D01*
X17479071Y-14447214D01*
X17536214Y-14447214D01*
X17564786Y-14461500D01*
X17579071Y-14490071D01*
X17579071Y-14518643D01*
X17436214Y-14547214D01*
X17693357Y-14632929D02*
X17721928Y-14647214D01*
X17779071Y-14647214D01*
X17807643Y-14632929D01*
X17821928Y-14604357D01*
X17821928Y-14590071D01*
X17807643Y-14561500D01*
X17779071Y-14547214D01*
X17736214Y-14547214D01*
X17707643Y-14532929D01*
X17693357Y-14504357D01*
X17693357Y-14490071D01*
X17707643Y-14461500D01*
X17736214Y-14447214D01*
X17779071Y-14447214D01*
X17807643Y-14461500D01*
X17921928Y-14761500D02*
X17936214Y-14747214D01*
X17964786Y-14704357D01*
X17979071Y-14675786D01*
X17993357Y-14632929D01*
X18007643Y-14561500D01*
X18007643Y-14504357D01*
X17993357Y-14432929D01*
X17979071Y-14390071D01*
X17964786Y-14361500D01*
X17936214Y-14318643D01*
X17921928Y-14304357D01*
X11385500Y-14957500D02*
X11435500Y-14907500D01*
X11385500Y-14857500D01*
X11335500Y-14907500D01*
X11385500Y-14957500D01*
X11879071Y-15043214D02*
X11707643Y-15043214D01*
X11793357Y-15043214D02*
X11793357Y-14743214D01*
X11764786Y-14786071D01*
X11736214Y-14814643D01*
X11707643Y-14828929D01*
X12007643Y-15014643D02*
X12021928Y-15028929D01*
X12007643Y-15043214D01*
X11993357Y-15028929D01*
X12007643Y-15014643D01*
X12007643Y-15043214D01*
X12207643Y-14743214D02*
X12236214Y-14743214D01*
X12264786Y-14757500D01*
X12279071Y-14771786D01*
X12293357Y-14800357D01*
X12307643Y-14857500D01*
X12307643Y-14928929D01*
X12293357Y-14986071D01*
X12279071Y-15014643D01*
X12264786Y-15028929D01*
X12236214Y-15043214D01*
X12207643Y-15043214D01*
X12179071Y-15028929D01*
X12164786Y-15014643D01*
X12150500Y-14986071D01*
X12136214Y-14928929D01*
X12136214Y-14857500D01*
X12150500Y-14800357D01*
X12164786Y-14771786D01*
X12179071Y-14757500D01*
X12207643Y-14743214D01*
X12493357Y-14743214D02*
X12521928Y-14743214D01*
X12550500Y-14757500D01*
X12564786Y-14771786D01*
X12579071Y-14800357D01*
X12593357Y-14857500D01*
X12593357Y-14928929D01*
X12579071Y-14986071D01*
X12564786Y-15014643D01*
X12550500Y-15028929D01*
X12521928Y-15043214D01*
X12493357Y-15043214D01*
X12464786Y-15028929D01*
X12450500Y-15014643D01*
X12436214Y-14986071D01*
X12421928Y-14928929D01*
X12421928Y-14857500D01*
X12436214Y-14800357D01*
X12450500Y-14771786D01*
X12464786Y-14757500D01*
X12493357Y-14743214D01*
X12721928Y-15043214D02*
X12721928Y-14843214D01*
X12721928Y-14871786D02*
X12736214Y-14857500D01*
X12764786Y-14843214D01*
X12807643Y-14843214D01*
X12836214Y-14857500D01*
X12850500Y-14886071D01*
X12850500Y-15043214D01*
X12850500Y-14886071D02*
X12864786Y-14857500D01*
X12893357Y-14843214D01*
X12936214Y-14843214D01*
X12964786Y-14857500D01*
X12979071Y-14886071D01*
X12979071Y-15043214D01*
X13121928Y-15043214D02*
X13121928Y-14843214D01*
X13121928Y-14871786D02*
X13136214Y-14857500D01*
X13164786Y-14843214D01*
X13207643Y-14843214D01*
X13236214Y-14857500D01*
X13250500Y-14886071D01*
X13250500Y-15043214D01*
X13250500Y-14886071D02*
X13264786Y-14857500D01*
X13293357Y-14843214D01*
X13336214Y-14843214D01*
X13364786Y-14857500D01*
X13379071Y-14886071D01*
X13379071Y-15043214D01*
X13964786Y-14728929D02*
X13707643Y-15114643D01*
X14350500Y-14743214D02*
X14379071Y-14743214D01*
X14407643Y-14757500D01*
X14421928Y-14771786D01*
X14436214Y-14800357D01*
X14450500Y-14857500D01*
X14450500Y-14928929D01*
X14436214Y-14986071D01*
X14421928Y-15014643D01*
X14407643Y-15028929D01*
X14379071Y-15043214D01*
X14350500Y-15043214D01*
X14321928Y-15028929D01*
X14307643Y-15014643D01*
X14293357Y-14986071D01*
X14279071Y-14928929D01*
X14279071Y-14857500D01*
X14293357Y-14800357D01*
X14307643Y-14771786D01*
X14321928Y-14757500D01*
X14350500Y-14743214D01*
X14579071Y-15014643D02*
X14593357Y-15028929D01*
X14579071Y-15043214D01*
X14564786Y-15028929D01*
X14579071Y-15014643D01*
X14579071Y-15043214D01*
X14779071Y-14743214D02*
X14807643Y-14743214D01*
X14836214Y-14757500D01*
X14850500Y-14771786D01*
X14864786Y-14800357D01*
X14879071Y-14857500D01*
X14879071Y-14928929D01*
X14864786Y-14986071D01*
X14850500Y-15014643D01*
X14836214Y-15028929D01*
X14807643Y-15043214D01*
X14779071Y-15043214D01*
X14750500Y-15028929D01*
X14736214Y-15014643D01*
X14721928Y-14986071D01*
X14707643Y-14928929D01*
X14707643Y-14857500D01*
X14721928Y-14800357D01*
X14736214Y-14771786D01*
X14750500Y-14757500D01*
X14779071Y-14743214D01*
X14979071Y-14743214D02*
X15164786Y-14743214D01*
X15064786Y-14857500D01*
X15107643Y-14857500D01*
X15136214Y-14871786D01*
X15150500Y-14886071D01*
X15164786Y-14914643D01*
X15164786Y-14986071D01*
X15150500Y-15014643D01*
X15136214Y-15028929D01*
X15107643Y-15043214D01*
X15021928Y-15043214D01*
X14993357Y-15028929D01*
X14979071Y-15014643D01*
X15307643Y-15043214D02*
X15364786Y-15043214D01*
X15393357Y-15028929D01*
X15407643Y-15014643D01*
X15436214Y-14971786D01*
X15450500Y-14914643D01*
X15450500Y-14800357D01*
X15436214Y-14771786D01*
X15421928Y-14757500D01*
X15393357Y-14743214D01*
X15336214Y-14743214D01*
X15307643Y-14757500D01*
X15293357Y-14771786D01*
X15279071Y-14800357D01*
X15279071Y-14871786D01*
X15293357Y-14900357D01*
X15307643Y-14914643D01*
X15336214Y-14928929D01*
X15393357Y-14928929D01*
X15421928Y-14914643D01*
X15436214Y-14900357D01*
X15450500Y-14871786D01*
X15564786Y-14743214D02*
X15564786Y-14800357D01*
X15679071Y-14743214D02*
X15679071Y-14800357D01*
X16121928Y-15157500D02*
X16107643Y-15143214D01*
X16079071Y-15100357D01*
X16064786Y-15071786D01*
X16050500Y-15028929D01*
X16036214Y-14957500D01*
X16036214Y-14900357D01*
X16050500Y-14828929D01*
X16064786Y-14786071D01*
X16079071Y-14757500D01*
X16107643Y-14714643D01*
X16121928Y-14700357D01*
X16207643Y-14743214D02*
X16393357Y-14743214D01*
X16293357Y-14857500D01*
X16336214Y-14857500D01*
X16364786Y-14871786D01*
X16379071Y-14886071D01*
X16393357Y-14914643D01*
X16393357Y-14986071D01*
X16379071Y-15014643D01*
X16364786Y-15028929D01*
X16336214Y-15043214D01*
X16250500Y-15043214D01*
X16221928Y-15028929D01*
X16207643Y-15014643D01*
X16579071Y-14743214D02*
X16607643Y-14743214D01*
X16636214Y-14757500D01*
X16650500Y-14771786D01*
X16664786Y-14800357D01*
X16679071Y-14857500D01*
X16679071Y-14928929D01*
X16664786Y-14986071D01*
X16650500Y-15014643D01*
X16636214Y-15028929D01*
X16607643Y-15043214D01*
X16579071Y-15043214D01*
X16550500Y-15028929D01*
X16536214Y-15014643D01*
X16521928Y-14986071D01*
X16507643Y-14928929D01*
X16507643Y-14857500D01*
X16521928Y-14800357D01*
X16536214Y-14771786D01*
X16550500Y-14757500D01*
X16579071Y-14743214D01*
X17036214Y-15043214D02*
X17036214Y-14743214D01*
X17164786Y-15043214D02*
X17164786Y-14886071D01*
X17150500Y-14857500D01*
X17121928Y-14843214D01*
X17079071Y-14843214D01*
X17050500Y-14857500D01*
X17036214Y-14871786D01*
X17350500Y-15043214D02*
X17321928Y-15028929D01*
X17307643Y-15014643D01*
X17293357Y-14986071D01*
X17293357Y-14900357D01*
X17307643Y-14871786D01*
X17321928Y-14857500D01*
X17350500Y-14843214D01*
X17393357Y-14843214D01*
X17421928Y-14857500D01*
X17436214Y-14871786D01*
X17450500Y-14900357D01*
X17450500Y-14986071D01*
X17436214Y-15014643D01*
X17421928Y-15028929D01*
X17393357Y-15043214D01*
X17350500Y-15043214D01*
X17621928Y-15043214D02*
X17593357Y-15028929D01*
X17579071Y-15000357D01*
X17579071Y-14743214D01*
X17850500Y-15028929D02*
X17821928Y-15043214D01*
X17764786Y-15043214D01*
X17736214Y-15028929D01*
X17721928Y-15000357D01*
X17721928Y-14886071D01*
X17736214Y-14857500D01*
X17764786Y-14843214D01*
X17821928Y-14843214D01*
X17850500Y-14857500D01*
X17864786Y-14886071D01*
X17864786Y-14914643D01*
X17721928Y-14943214D01*
X17979071Y-15028929D02*
X18007643Y-15043214D01*
X18064786Y-15043214D01*
X18093357Y-15028929D01*
X18107643Y-15000357D01*
X18107643Y-14986071D01*
X18093357Y-14957500D01*
X18064786Y-14943214D01*
X18021928Y-14943214D01*
X17993357Y-14928929D01*
X17979071Y-14900357D01*
X17979071Y-14886071D01*
X17993357Y-14857500D01*
X18021928Y-14843214D01*
X18064786Y-14843214D01*
X18093357Y-14857500D01*
X18464786Y-14928929D02*
X18693357Y-14928929D01*
X18579071Y-15043214D02*
X18579071Y-14814643D01*
X19193357Y-14843214D02*
X19193357Y-15043214D01*
X19121928Y-14728929D02*
X19050500Y-14943214D01*
X19236214Y-14943214D01*
X19564786Y-15028929D02*
X19593357Y-15043214D01*
X19650500Y-15043214D01*
X19679071Y-15028929D01*
X19693357Y-15000357D01*
X19693357Y-14986071D01*
X19679071Y-14957500D01*
X19650500Y-14943214D01*
X19607643Y-14943214D01*
X19579071Y-14928929D01*
X19564786Y-14900357D01*
X19564786Y-14886071D01*
X19579071Y-14857500D01*
X19607643Y-14843214D01*
X19650500Y-14843214D01*
X19679071Y-14857500D01*
X19864786Y-15043214D02*
X19836214Y-15028929D01*
X19821928Y-15000357D01*
X19821928Y-14743214D01*
X20021928Y-15043214D02*
X19993357Y-15028929D01*
X19979071Y-15014643D01*
X19964786Y-14986071D01*
X19964786Y-14900357D01*
X19979071Y-14871786D01*
X19993357Y-14857500D01*
X20021928Y-14843214D01*
X20064786Y-14843214D01*
X20093357Y-14857500D01*
X20107643Y-14871786D01*
X20121928Y-14900357D01*
X20121928Y-14986071D01*
X20107643Y-15014643D01*
X20093357Y-15028929D01*
X20064786Y-15043214D01*
X20021928Y-15043214D01*
X20207643Y-14843214D02*
X20321928Y-14843214D01*
X20250500Y-14743214D02*
X20250500Y-15000357D01*
X20264786Y-15028929D01*
X20293357Y-15043214D01*
X20321928Y-15043214D01*
X20407643Y-15028929D02*
X20436214Y-15043214D01*
X20493357Y-15043214D01*
X20521928Y-15028929D01*
X20536214Y-15000357D01*
X20536214Y-14986071D01*
X20521928Y-14957500D01*
X20493357Y-14943214D01*
X20450500Y-14943214D01*
X20421928Y-14928929D01*
X20407643Y-14900357D01*
X20407643Y-14886071D01*
X20421928Y-14857500D01*
X20450500Y-14843214D01*
X20493357Y-14843214D01*
X20521928Y-14857500D01*
X20636214Y-15157500D02*
X20650500Y-15143214D01*
X20679071Y-15100357D01*
X20693357Y-15071786D01*
X20707643Y-15028929D01*
X20721928Y-14957500D01*
X20721928Y-14900357D01*
X20707643Y-14828929D01*
X20693357Y-14786071D01*
X20679071Y-14757500D01*
X20650500Y-14714643D01*
X20636214Y-14700357D01*
M02*
