%FSLAX45Y45*%
G04 Gerber Fmt 4.5, Leading zero omitted, Abs format (unit mm)*
G04 Created by KiCad (PCBNEW (5.0.0)) date 04/23/20 21:25:01*
%MOMM*%
%LPD*%
G01*
G04 APERTURE LIST*
%ADD10C,0.150000*%
%ADD11C,0.200000*%
%ADD12C,0.300000*%
G04 APERTURE END LIST*
D10*
X11830000Y-6131000D02*
X16446000Y-6127000D01*
X16445000Y-6127000D02*
G75*
G02X16831000Y-6513000I0J-386000D01*
G01*
X16831000Y-6513000D02*
X16827000Y-11973000D01*
X11829000Y-12356000D02*
X16445000Y-12355000D01*
X16827000Y-11969000D02*
G75*
G02X16441000Y-12355000I-386000J0D01*
G01*
X11444000Y-6516000D02*
X11443000Y-11968000D01*
X11829000Y-12356000D02*
G75*
G02X11443000Y-11970000I0J386000D01*
G01*
X11444000Y-6517000D02*
G75*
G02X11830000Y-6131000I386000J0D01*
G01*
D11*
X14199000Y-11755000D02*
X14279000Y-11835000D01*
X14279000Y-11755000D02*
X14199000Y-11835000D01*
X14699000Y-11755000D02*
X14779000Y-11835000D01*
X14779000Y-11755000D02*
X14699000Y-11835000D01*
X12234000Y-11461000D02*
G75*
G03X12234000Y-11461000I-80000J0D01*
G01*
X12653000Y-9225000D02*
X12653000Y-9495000D01*
X12518000Y-9360000D02*
X12788000Y-9360000D01*
X16461000Y-6312000D02*
X16461000Y-6582000D01*
X16326000Y-6447000D02*
X16596000Y-6447000D01*
X13103000Y-11788000D02*
X13103000Y-12058000D01*
X12968000Y-11923000D02*
X13238000Y-11923000D01*
D12*
X11721928Y-12829214D02*
X11721928Y-12529214D01*
X11793357Y-12529214D01*
X11836214Y-12543500D01*
X11864786Y-12572071D01*
X11879071Y-12600643D01*
X11893357Y-12657786D01*
X11893357Y-12700643D01*
X11879071Y-12757786D01*
X11864786Y-12786357D01*
X11836214Y-12814929D01*
X11793357Y-12829214D01*
X11721928Y-12829214D01*
X12021928Y-12829214D02*
X12021928Y-12629214D01*
X12021928Y-12686357D02*
X12036214Y-12657786D01*
X12050500Y-12643500D01*
X12079071Y-12629214D01*
X12107643Y-12629214D01*
X12207643Y-12829214D02*
X12207643Y-12629214D01*
X12207643Y-12529214D02*
X12193357Y-12543500D01*
X12207643Y-12557786D01*
X12221928Y-12543500D01*
X12207643Y-12529214D01*
X12207643Y-12557786D01*
X12393357Y-12829214D02*
X12364786Y-12814929D01*
X12350500Y-12786357D01*
X12350500Y-12529214D01*
X12550500Y-12829214D02*
X12521928Y-12814929D01*
X12507643Y-12786357D01*
X12507643Y-12529214D01*
X12893357Y-12829214D02*
X12893357Y-12529214D01*
X12993357Y-12743500D01*
X13093357Y-12529214D01*
X13093357Y-12829214D01*
X13364786Y-12829214D02*
X13364786Y-12672071D01*
X13350500Y-12643500D01*
X13321928Y-12629214D01*
X13264786Y-12629214D01*
X13236214Y-12643500D01*
X13364786Y-12814929D02*
X13336214Y-12829214D01*
X13264786Y-12829214D01*
X13236214Y-12814929D01*
X13221928Y-12786357D01*
X13221928Y-12757786D01*
X13236214Y-12729214D01*
X13264786Y-12714929D01*
X13336214Y-12714929D01*
X13364786Y-12700643D01*
X13507643Y-12629214D02*
X13507643Y-12929214D01*
X13507643Y-12643500D02*
X13536214Y-12629214D01*
X13593357Y-12629214D01*
X13621928Y-12643500D01*
X13636214Y-12657786D01*
X13650500Y-12686357D01*
X13650500Y-12772071D01*
X13636214Y-12800643D01*
X13621928Y-12814929D01*
X13593357Y-12829214D01*
X13536214Y-12829214D01*
X13507643Y-12814929D01*
X13779071Y-12800643D02*
X13793357Y-12814929D01*
X13779071Y-12829214D01*
X13764786Y-12814929D01*
X13779071Y-12800643D01*
X13779071Y-12829214D01*
X13779071Y-12643500D02*
X13793357Y-12657786D01*
X13779071Y-12672071D01*
X13764786Y-12657786D01*
X13779071Y-12643500D01*
X13779071Y-12672071D01*
X11355500Y-13283500D02*
X11435500Y-13363500D01*
X11435500Y-13283500D02*
X11355500Y-13363500D01*
X11779071Y-13159214D02*
X11807643Y-13159214D01*
X11836214Y-13173500D01*
X11850500Y-13187786D01*
X11864786Y-13216357D01*
X11879071Y-13273500D01*
X11879071Y-13344929D01*
X11864786Y-13402071D01*
X11850500Y-13430643D01*
X11836214Y-13444929D01*
X11807643Y-13459214D01*
X11779071Y-13459214D01*
X11750500Y-13444929D01*
X11736214Y-13430643D01*
X11721928Y-13402071D01*
X11707643Y-13344929D01*
X11707643Y-13273500D01*
X11721928Y-13216357D01*
X11736214Y-13187786D01*
X11750500Y-13173500D01*
X11779071Y-13159214D01*
X12007643Y-13430643D02*
X12021928Y-13444929D01*
X12007643Y-13459214D01*
X11993357Y-13444929D01*
X12007643Y-13430643D01*
X12007643Y-13459214D01*
X12193357Y-13287786D02*
X12164786Y-13273500D01*
X12150500Y-13259214D01*
X12136214Y-13230643D01*
X12136214Y-13216357D01*
X12150500Y-13187786D01*
X12164786Y-13173500D01*
X12193357Y-13159214D01*
X12250500Y-13159214D01*
X12279071Y-13173500D01*
X12293357Y-13187786D01*
X12307643Y-13216357D01*
X12307643Y-13230643D01*
X12293357Y-13259214D01*
X12279071Y-13273500D01*
X12250500Y-13287786D01*
X12193357Y-13287786D01*
X12164786Y-13302071D01*
X12150500Y-13316357D01*
X12136214Y-13344929D01*
X12136214Y-13402071D01*
X12150500Y-13430643D01*
X12164786Y-13444929D01*
X12193357Y-13459214D01*
X12250500Y-13459214D01*
X12279071Y-13444929D01*
X12293357Y-13430643D01*
X12307643Y-13402071D01*
X12307643Y-13344929D01*
X12293357Y-13316357D01*
X12279071Y-13302071D01*
X12250500Y-13287786D01*
X12493357Y-13159214D02*
X12521928Y-13159214D01*
X12550500Y-13173500D01*
X12564786Y-13187786D01*
X12579071Y-13216357D01*
X12593357Y-13273500D01*
X12593357Y-13344929D01*
X12579071Y-13402071D01*
X12564786Y-13430643D01*
X12550500Y-13444929D01*
X12521928Y-13459214D01*
X12493357Y-13459214D01*
X12464786Y-13444929D01*
X12450500Y-13430643D01*
X12436214Y-13402071D01*
X12421928Y-13344929D01*
X12421928Y-13273500D01*
X12436214Y-13216357D01*
X12450500Y-13187786D01*
X12464786Y-13173500D01*
X12493357Y-13159214D01*
X12721928Y-13459214D02*
X12721928Y-13259214D01*
X12721928Y-13287786D02*
X12736214Y-13273500D01*
X12764786Y-13259214D01*
X12807643Y-13259214D01*
X12836214Y-13273500D01*
X12850500Y-13302071D01*
X12850500Y-13459214D01*
X12850500Y-13302071D02*
X12864786Y-13273500D01*
X12893357Y-13259214D01*
X12936214Y-13259214D01*
X12964786Y-13273500D01*
X12979071Y-13302071D01*
X12979071Y-13459214D01*
X13121928Y-13459214D02*
X13121928Y-13259214D01*
X13121928Y-13287786D02*
X13136214Y-13273500D01*
X13164786Y-13259214D01*
X13207643Y-13259214D01*
X13236214Y-13273500D01*
X13250500Y-13302071D01*
X13250500Y-13459214D01*
X13250500Y-13302071D02*
X13264786Y-13273500D01*
X13293357Y-13259214D01*
X13336214Y-13259214D01*
X13364786Y-13273500D01*
X13379071Y-13302071D01*
X13379071Y-13459214D01*
X13964786Y-13144929D02*
X13707643Y-13530643D01*
X14350500Y-13159214D02*
X14379071Y-13159214D01*
X14407643Y-13173500D01*
X14421928Y-13187786D01*
X14436214Y-13216357D01*
X14450500Y-13273500D01*
X14450500Y-13344929D01*
X14436214Y-13402071D01*
X14421928Y-13430643D01*
X14407643Y-13444929D01*
X14379071Y-13459214D01*
X14350500Y-13459214D01*
X14321928Y-13444929D01*
X14307643Y-13430643D01*
X14293357Y-13402071D01*
X14279071Y-13344929D01*
X14279071Y-13273500D01*
X14293357Y-13216357D01*
X14307643Y-13187786D01*
X14321928Y-13173500D01*
X14350500Y-13159214D01*
X14579071Y-13430643D02*
X14593357Y-13444929D01*
X14579071Y-13459214D01*
X14564786Y-13444929D01*
X14579071Y-13430643D01*
X14579071Y-13459214D01*
X14779071Y-13159214D02*
X14807643Y-13159214D01*
X14836214Y-13173500D01*
X14850500Y-13187786D01*
X14864786Y-13216357D01*
X14879071Y-13273500D01*
X14879071Y-13344929D01*
X14864786Y-13402071D01*
X14850500Y-13430643D01*
X14836214Y-13444929D01*
X14807643Y-13459214D01*
X14779071Y-13459214D01*
X14750500Y-13444929D01*
X14736214Y-13430643D01*
X14721928Y-13402071D01*
X14707643Y-13344929D01*
X14707643Y-13273500D01*
X14721928Y-13216357D01*
X14736214Y-13187786D01*
X14750500Y-13173500D01*
X14779071Y-13159214D01*
X14979071Y-13159214D02*
X15164786Y-13159214D01*
X15064786Y-13273500D01*
X15107643Y-13273500D01*
X15136214Y-13287786D01*
X15150500Y-13302071D01*
X15164786Y-13330643D01*
X15164786Y-13402071D01*
X15150500Y-13430643D01*
X15136214Y-13444929D01*
X15107643Y-13459214D01*
X15021928Y-13459214D01*
X14993357Y-13444929D01*
X14979071Y-13430643D01*
X15450500Y-13459214D02*
X15279071Y-13459214D01*
X15364786Y-13459214D02*
X15364786Y-13159214D01*
X15336214Y-13202071D01*
X15307643Y-13230643D01*
X15279071Y-13244929D01*
X15564786Y-13159214D02*
X15564786Y-13216357D01*
X15679071Y-13159214D02*
X15679071Y-13216357D01*
X16121928Y-13573500D02*
X16107643Y-13559214D01*
X16079071Y-13516357D01*
X16064786Y-13487786D01*
X16050500Y-13444929D01*
X16036214Y-13373500D01*
X16036214Y-13316357D01*
X16050500Y-13244929D01*
X16064786Y-13202071D01*
X16079071Y-13173500D01*
X16107643Y-13130643D01*
X16121928Y-13116357D01*
X16221928Y-13187786D02*
X16236214Y-13173500D01*
X16264786Y-13159214D01*
X16336214Y-13159214D01*
X16364786Y-13173500D01*
X16379071Y-13187786D01*
X16393357Y-13216357D01*
X16393357Y-13244929D01*
X16379071Y-13287786D01*
X16207643Y-13459214D01*
X16393357Y-13459214D01*
X16750500Y-13459214D02*
X16750500Y-13159214D01*
X16879071Y-13459214D02*
X16879071Y-13302071D01*
X16864786Y-13273500D01*
X16836214Y-13259214D01*
X16793357Y-13259214D01*
X16764786Y-13273500D01*
X16750500Y-13287786D01*
X17064786Y-13459214D02*
X17036214Y-13444929D01*
X17021928Y-13430643D01*
X17007643Y-13402071D01*
X17007643Y-13316357D01*
X17021928Y-13287786D01*
X17036214Y-13273500D01*
X17064786Y-13259214D01*
X17107643Y-13259214D01*
X17136214Y-13273500D01*
X17150500Y-13287786D01*
X17164786Y-13316357D01*
X17164786Y-13402071D01*
X17150500Y-13430643D01*
X17136214Y-13444929D01*
X17107643Y-13459214D01*
X17064786Y-13459214D01*
X17336214Y-13459214D02*
X17307643Y-13444929D01*
X17293357Y-13416357D01*
X17293357Y-13159214D01*
X17564786Y-13444929D02*
X17536214Y-13459214D01*
X17479071Y-13459214D01*
X17450500Y-13444929D01*
X17436214Y-13416357D01*
X17436214Y-13302071D01*
X17450500Y-13273500D01*
X17479071Y-13259214D01*
X17536214Y-13259214D01*
X17564786Y-13273500D01*
X17579071Y-13302071D01*
X17579071Y-13330643D01*
X17436214Y-13359214D01*
X17693357Y-13444929D02*
X17721928Y-13459214D01*
X17779071Y-13459214D01*
X17807643Y-13444929D01*
X17821928Y-13416357D01*
X17821928Y-13402071D01*
X17807643Y-13373500D01*
X17779071Y-13359214D01*
X17736214Y-13359214D01*
X17707643Y-13344929D01*
X17693357Y-13316357D01*
X17693357Y-13302071D01*
X17707643Y-13273500D01*
X17736214Y-13259214D01*
X17779071Y-13259214D01*
X17807643Y-13273500D01*
X17921928Y-13573500D02*
X17936214Y-13559214D01*
X17964786Y-13516357D01*
X17979071Y-13487786D01*
X17993357Y-13444929D01*
X18007643Y-13373500D01*
X18007643Y-13316357D01*
X17993357Y-13244929D01*
X17979071Y-13202071D01*
X17964786Y-13173500D01*
X17936214Y-13130643D01*
X17921928Y-13116357D01*
X18464786Y-13573500D02*
X18450500Y-13559214D01*
X18421928Y-13516357D01*
X18407643Y-13487786D01*
X18393357Y-13444929D01*
X18379071Y-13373500D01*
X18379071Y-13316357D01*
X18393357Y-13244929D01*
X18407643Y-13202071D01*
X18421928Y-13173500D01*
X18450500Y-13130643D01*
X18464786Y-13116357D01*
X18579071Y-13259214D02*
X18579071Y-13459214D01*
X18579071Y-13287786D02*
X18593357Y-13273500D01*
X18621928Y-13259214D01*
X18664786Y-13259214D01*
X18693357Y-13273500D01*
X18707643Y-13302071D01*
X18707643Y-13459214D01*
X18893357Y-13459214D02*
X18864786Y-13444929D01*
X18850500Y-13430643D01*
X18836214Y-13402071D01*
X18836214Y-13316357D01*
X18850500Y-13287786D01*
X18864786Y-13273500D01*
X18893357Y-13259214D01*
X18936214Y-13259214D01*
X18964786Y-13273500D01*
X18979071Y-13287786D01*
X18993357Y-13316357D01*
X18993357Y-13402071D01*
X18979071Y-13430643D01*
X18964786Y-13444929D01*
X18936214Y-13459214D01*
X18893357Y-13459214D01*
X19079071Y-13259214D02*
X19193357Y-13259214D01*
X19121928Y-13159214D02*
X19121928Y-13416357D01*
X19136214Y-13444929D01*
X19164786Y-13459214D01*
X19193357Y-13459214D01*
X19521928Y-13259214D02*
X19521928Y-13559214D01*
X19521928Y-13273500D02*
X19550500Y-13259214D01*
X19607643Y-13259214D01*
X19636214Y-13273500D01*
X19650500Y-13287786D01*
X19664786Y-13316357D01*
X19664786Y-13402071D01*
X19650500Y-13430643D01*
X19636214Y-13444929D01*
X19607643Y-13459214D01*
X19550500Y-13459214D01*
X19521928Y-13444929D01*
X19836214Y-13459214D02*
X19807643Y-13444929D01*
X19793357Y-13416357D01*
X19793357Y-13159214D01*
X20079071Y-13459214D02*
X20079071Y-13302071D01*
X20064786Y-13273500D01*
X20036214Y-13259214D01*
X19979071Y-13259214D01*
X19950500Y-13273500D01*
X20079071Y-13444929D02*
X20050500Y-13459214D01*
X19979071Y-13459214D01*
X19950500Y-13444929D01*
X19936214Y-13416357D01*
X19936214Y-13387786D01*
X19950500Y-13359214D01*
X19979071Y-13344929D01*
X20050500Y-13344929D01*
X20079071Y-13330643D01*
X20179071Y-13259214D02*
X20293357Y-13259214D01*
X20221928Y-13159214D02*
X20221928Y-13416357D01*
X20236214Y-13444929D01*
X20264786Y-13459214D01*
X20293357Y-13459214D01*
X20507643Y-13444929D02*
X20479071Y-13459214D01*
X20421928Y-13459214D01*
X20393357Y-13444929D01*
X20379071Y-13416357D01*
X20379071Y-13302071D01*
X20393357Y-13273500D01*
X20421928Y-13259214D01*
X20479071Y-13259214D01*
X20507643Y-13273500D01*
X20521928Y-13302071D01*
X20521928Y-13330643D01*
X20379071Y-13359214D01*
X20779071Y-13459214D02*
X20779071Y-13159214D01*
X20779071Y-13444929D02*
X20750500Y-13459214D01*
X20693357Y-13459214D01*
X20664786Y-13444929D01*
X20650500Y-13430643D01*
X20636214Y-13402071D01*
X20636214Y-13316357D01*
X20650500Y-13287786D01*
X20664786Y-13273500D01*
X20693357Y-13259214D01*
X20750500Y-13259214D01*
X20779071Y-13273500D01*
X20893357Y-13573500D02*
X20907643Y-13559214D01*
X20936214Y-13516357D01*
X20950500Y-13487786D01*
X20964786Y-13444929D01*
X20979071Y-13373500D01*
X20979071Y-13316357D01*
X20964786Y-13244929D01*
X20950500Y-13202071D01*
X20936214Y-13173500D01*
X20907643Y-13130643D01*
X20893357Y-13116357D01*
X11435500Y-13719500D02*
G75*
G03X11435500Y-13719500I-80000J0D01*
G01*
X11879071Y-13855214D02*
X11707643Y-13855214D01*
X11793357Y-13855214D02*
X11793357Y-13555214D01*
X11764786Y-13598071D01*
X11736214Y-13626643D01*
X11707643Y-13640929D01*
X12007643Y-13826643D02*
X12021928Y-13840929D01*
X12007643Y-13855214D01*
X11993357Y-13840929D01*
X12007643Y-13826643D01*
X12007643Y-13855214D01*
X12279071Y-13555214D02*
X12221928Y-13555214D01*
X12193357Y-13569500D01*
X12179071Y-13583786D01*
X12150500Y-13626643D01*
X12136214Y-13683786D01*
X12136214Y-13798071D01*
X12150500Y-13826643D01*
X12164786Y-13840929D01*
X12193357Y-13855214D01*
X12250500Y-13855214D01*
X12279071Y-13840929D01*
X12293357Y-13826643D01*
X12307643Y-13798071D01*
X12307643Y-13726643D01*
X12293357Y-13698071D01*
X12279071Y-13683786D01*
X12250500Y-13669500D01*
X12193357Y-13669500D01*
X12164786Y-13683786D01*
X12150500Y-13698071D01*
X12136214Y-13726643D01*
X12493357Y-13555214D02*
X12521928Y-13555214D01*
X12550500Y-13569500D01*
X12564786Y-13583786D01*
X12579071Y-13612357D01*
X12593357Y-13669500D01*
X12593357Y-13740929D01*
X12579071Y-13798071D01*
X12564786Y-13826643D01*
X12550500Y-13840929D01*
X12521928Y-13855214D01*
X12493357Y-13855214D01*
X12464786Y-13840929D01*
X12450500Y-13826643D01*
X12436214Y-13798071D01*
X12421928Y-13740929D01*
X12421928Y-13669500D01*
X12436214Y-13612357D01*
X12450500Y-13583786D01*
X12464786Y-13569500D01*
X12493357Y-13555214D01*
X12721928Y-13855214D02*
X12721928Y-13655214D01*
X12721928Y-13683786D02*
X12736214Y-13669500D01*
X12764786Y-13655214D01*
X12807643Y-13655214D01*
X12836214Y-13669500D01*
X12850500Y-13698071D01*
X12850500Y-13855214D01*
X12850500Y-13698071D02*
X12864786Y-13669500D01*
X12893357Y-13655214D01*
X12936214Y-13655214D01*
X12964786Y-13669500D01*
X12979071Y-13698071D01*
X12979071Y-13855214D01*
X13121928Y-13855214D02*
X13121928Y-13655214D01*
X13121928Y-13683786D02*
X13136214Y-13669500D01*
X13164786Y-13655214D01*
X13207643Y-13655214D01*
X13236214Y-13669500D01*
X13250500Y-13698071D01*
X13250500Y-13855214D01*
X13250500Y-13698071D02*
X13264786Y-13669500D01*
X13293357Y-13655214D01*
X13336214Y-13655214D01*
X13364786Y-13669500D01*
X13379071Y-13698071D01*
X13379071Y-13855214D01*
X13964786Y-13540929D02*
X13707643Y-13926643D01*
X14350500Y-13555214D02*
X14379071Y-13555214D01*
X14407643Y-13569500D01*
X14421928Y-13583786D01*
X14436214Y-13612357D01*
X14450500Y-13669500D01*
X14450500Y-13740929D01*
X14436214Y-13798071D01*
X14421928Y-13826643D01*
X14407643Y-13840929D01*
X14379071Y-13855214D01*
X14350500Y-13855214D01*
X14321928Y-13840929D01*
X14307643Y-13826643D01*
X14293357Y-13798071D01*
X14279071Y-13740929D01*
X14279071Y-13669500D01*
X14293357Y-13612357D01*
X14307643Y-13583786D01*
X14321928Y-13569500D01*
X14350500Y-13555214D01*
X14579071Y-13826643D02*
X14593357Y-13840929D01*
X14579071Y-13855214D01*
X14564786Y-13840929D01*
X14579071Y-13826643D01*
X14579071Y-13855214D01*
X14779071Y-13555214D02*
X14807643Y-13555214D01*
X14836214Y-13569500D01*
X14850500Y-13583786D01*
X14864786Y-13612357D01*
X14879071Y-13669500D01*
X14879071Y-13740929D01*
X14864786Y-13798071D01*
X14850500Y-13826643D01*
X14836214Y-13840929D01*
X14807643Y-13855214D01*
X14779071Y-13855214D01*
X14750500Y-13840929D01*
X14736214Y-13826643D01*
X14721928Y-13798071D01*
X14707643Y-13740929D01*
X14707643Y-13669500D01*
X14721928Y-13612357D01*
X14736214Y-13583786D01*
X14750500Y-13569500D01*
X14779071Y-13555214D01*
X15136214Y-13555214D02*
X15079071Y-13555214D01*
X15050500Y-13569500D01*
X15036214Y-13583786D01*
X15007643Y-13626643D01*
X14993357Y-13683786D01*
X14993357Y-13798071D01*
X15007643Y-13826643D01*
X15021928Y-13840929D01*
X15050500Y-13855214D01*
X15107643Y-13855214D01*
X15136214Y-13840929D01*
X15150500Y-13826643D01*
X15164786Y-13798071D01*
X15164786Y-13726643D01*
X15150500Y-13698071D01*
X15136214Y-13683786D01*
X15107643Y-13669500D01*
X15050500Y-13669500D01*
X15021928Y-13683786D01*
X15007643Y-13698071D01*
X14993357Y-13726643D01*
X15264786Y-13555214D02*
X15450500Y-13555214D01*
X15350500Y-13669500D01*
X15393357Y-13669500D01*
X15421928Y-13683786D01*
X15436214Y-13698071D01*
X15450500Y-13726643D01*
X15450500Y-13798071D01*
X15436214Y-13826643D01*
X15421928Y-13840929D01*
X15393357Y-13855214D01*
X15307643Y-13855214D01*
X15279071Y-13840929D01*
X15264786Y-13826643D01*
X15564786Y-13555214D02*
X15564786Y-13612357D01*
X15679071Y-13555214D02*
X15679071Y-13612357D01*
X16121928Y-13969500D02*
X16107643Y-13955214D01*
X16079071Y-13912357D01*
X16064786Y-13883786D01*
X16050500Y-13840929D01*
X16036214Y-13769500D01*
X16036214Y-13712357D01*
X16050500Y-13640929D01*
X16064786Y-13598071D01*
X16079071Y-13569500D01*
X16107643Y-13526643D01*
X16121928Y-13512357D01*
X16393357Y-13855214D02*
X16221928Y-13855214D01*
X16307643Y-13855214D02*
X16307643Y-13555214D01*
X16279071Y-13598071D01*
X16250500Y-13626643D01*
X16221928Y-13640929D01*
X16750500Y-13855214D02*
X16750500Y-13555214D01*
X16879071Y-13855214D02*
X16879071Y-13698071D01*
X16864786Y-13669500D01*
X16836214Y-13655214D01*
X16793357Y-13655214D01*
X16764786Y-13669500D01*
X16750500Y-13683786D01*
X17064786Y-13855214D02*
X17036214Y-13840929D01*
X17021928Y-13826643D01*
X17007643Y-13798071D01*
X17007643Y-13712357D01*
X17021928Y-13683786D01*
X17036214Y-13669500D01*
X17064786Y-13655214D01*
X17107643Y-13655214D01*
X17136214Y-13669500D01*
X17150500Y-13683786D01*
X17164786Y-13712357D01*
X17164786Y-13798071D01*
X17150500Y-13826643D01*
X17136214Y-13840929D01*
X17107643Y-13855214D01*
X17064786Y-13855214D01*
X17336214Y-13855214D02*
X17307643Y-13840929D01*
X17293357Y-13812357D01*
X17293357Y-13555214D01*
X17564786Y-13840929D02*
X17536214Y-13855214D01*
X17479071Y-13855214D01*
X17450500Y-13840929D01*
X17436214Y-13812357D01*
X17436214Y-13698071D01*
X17450500Y-13669500D01*
X17479071Y-13655214D01*
X17536214Y-13655214D01*
X17564786Y-13669500D01*
X17579071Y-13698071D01*
X17579071Y-13726643D01*
X17436214Y-13755214D01*
X17679071Y-13969500D02*
X17693357Y-13955214D01*
X17721928Y-13912357D01*
X17736214Y-13883786D01*
X17750500Y-13840929D01*
X17764786Y-13769500D01*
X17764786Y-13712357D01*
X17750500Y-13640929D01*
X17736214Y-13598071D01*
X17721928Y-13569500D01*
X17693357Y-13526643D01*
X17679071Y-13512357D01*
X18221928Y-13969500D02*
X18207643Y-13955214D01*
X18179071Y-13912357D01*
X18164786Y-13883786D01*
X18150500Y-13840929D01*
X18136214Y-13769500D01*
X18136214Y-13712357D01*
X18150500Y-13640929D01*
X18164786Y-13598071D01*
X18179071Y-13569500D01*
X18207643Y-13526643D01*
X18221928Y-13512357D01*
X18336214Y-13655214D02*
X18336214Y-13855214D01*
X18336214Y-13683786D02*
X18350500Y-13669500D01*
X18379071Y-13655214D01*
X18421928Y-13655214D01*
X18450500Y-13669500D01*
X18464786Y-13698071D01*
X18464786Y-13855214D01*
X18650500Y-13855214D02*
X18621928Y-13840929D01*
X18607643Y-13826643D01*
X18593357Y-13798071D01*
X18593357Y-13712357D01*
X18607643Y-13683786D01*
X18621928Y-13669500D01*
X18650500Y-13655214D01*
X18693357Y-13655214D01*
X18721928Y-13669500D01*
X18736214Y-13683786D01*
X18750500Y-13712357D01*
X18750500Y-13798071D01*
X18736214Y-13826643D01*
X18721928Y-13840929D01*
X18693357Y-13855214D01*
X18650500Y-13855214D01*
X18836214Y-13655214D02*
X18950500Y-13655214D01*
X18879071Y-13555214D02*
X18879071Y-13812357D01*
X18893357Y-13840929D01*
X18921928Y-13855214D01*
X18950500Y-13855214D01*
X19279071Y-13655214D02*
X19279071Y-13955214D01*
X19279071Y-13669500D02*
X19307643Y-13655214D01*
X19364786Y-13655214D01*
X19393357Y-13669500D01*
X19407643Y-13683786D01*
X19421928Y-13712357D01*
X19421928Y-13798071D01*
X19407643Y-13826643D01*
X19393357Y-13840929D01*
X19364786Y-13855214D01*
X19307643Y-13855214D01*
X19279071Y-13840929D01*
X19593357Y-13855214D02*
X19564786Y-13840929D01*
X19550500Y-13812357D01*
X19550500Y-13555214D01*
X19836214Y-13855214D02*
X19836214Y-13698071D01*
X19821928Y-13669500D01*
X19793357Y-13655214D01*
X19736214Y-13655214D01*
X19707643Y-13669500D01*
X19836214Y-13840929D02*
X19807643Y-13855214D01*
X19736214Y-13855214D01*
X19707643Y-13840929D01*
X19693357Y-13812357D01*
X19693357Y-13783786D01*
X19707643Y-13755214D01*
X19736214Y-13740929D01*
X19807643Y-13740929D01*
X19836214Y-13726643D01*
X19936214Y-13655214D02*
X20050500Y-13655214D01*
X19979071Y-13555214D02*
X19979071Y-13812357D01*
X19993357Y-13840929D01*
X20021928Y-13855214D01*
X20050500Y-13855214D01*
X20264786Y-13840929D02*
X20236214Y-13855214D01*
X20179071Y-13855214D01*
X20150500Y-13840929D01*
X20136214Y-13812357D01*
X20136214Y-13698071D01*
X20150500Y-13669500D01*
X20179071Y-13655214D01*
X20236214Y-13655214D01*
X20264786Y-13669500D01*
X20279071Y-13698071D01*
X20279071Y-13726643D01*
X20136214Y-13755214D01*
X20536214Y-13855214D02*
X20536214Y-13555214D01*
X20536214Y-13840929D02*
X20507643Y-13855214D01*
X20450500Y-13855214D01*
X20421928Y-13840929D01*
X20407643Y-13826643D01*
X20393357Y-13798071D01*
X20393357Y-13712357D01*
X20407643Y-13683786D01*
X20421928Y-13669500D01*
X20450500Y-13655214D01*
X20507643Y-13655214D01*
X20536214Y-13669500D01*
X20650500Y-13969500D02*
X20664786Y-13955214D01*
X20693357Y-13912357D01*
X20707643Y-13883786D01*
X20721928Y-13840929D01*
X20736214Y-13769500D01*
X20736214Y-13712357D01*
X20721928Y-13640929D01*
X20707643Y-13598071D01*
X20693357Y-13569500D01*
X20664786Y-13526643D01*
X20650500Y-13512357D01*
X11300500Y-13980500D02*
X11300500Y-14250500D01*
X11165500Y-14115500D02*
X11435500Y-14115500D01*
X11707643Y-13979786D02*
X11721928Y-13965500D01*
X11750500Y-13951214D01*
X11821928Y-13951214D01*
X11850500Y-13965500D01*
X11864786Y-13979786D01*
X11879071Y-14008357D01*
X11879071Y-14036929D01*
X11864786Y-14079786D01*
X11693357Y-14251214D01*
X11879071Y-14251214D01*
X12007643Y-14222643D02*
X12021928Y-14236929D01*
X12007643Y-14251214D01*
X11993357Y-14236929D01*
X12007643Y-14222643D01*
X12007643Y-14251214D01*
X12121928Y-13951214D02*
X12321928Y-13951214D01*
X12193357Y-14251214D01*
X12493357Y-13951214D02*
X12521928Y-13951214D01*
X12550500Y-13965500D01*
X12564786Y-13979786D01*
X12579071Y-14008357D01*
X12593357Y-14065500D01*
X12593357Y-14136929D01*
X12579071Y-14194071D01*
X12564786Y-14222643D01*
X12550500Y-14236929D01*
X12521928Y-14251214D01*
X12493357Y-14251214D01*
X12464786Y-14236929D01*
X12450500Y-14222643D01*
X12436214Y-14194071D01*
X12421928Y-14136929D01*
X12421928Y-14065500D01*
X12436214Y-14008357D01*
X12450500Y-13979786D01*
X12464786Y-13965500D01*
X12493357Y-13951214D01*
X12721928Y-14251214D02*
X12721928Y-14051214D01*
X12721928Y-14079786D02*
X12736214Y-14065500D01*
X12764786Y-14051214D01*
X12807643Y-14051214D01*
X12836214Y-14065500D01*
X12850500Y-14094071D01*
X12850500Y-14251214D01*
X12850500Y-14094071D02*
X12864786Y-14065500D01*
X12893357Y-14051214D01*
X12936214Y-14051214D01*
X12964786Y-14065500D01*
X12979071Y-14094071D01*
X12979071Y-14251214D01*
X13121928Y-14251214D02*
X13121928Y-14051214D01*
X13121928Y-14079786D02*
X13136214Y-14065500D01*
X13164786Y-14051214D01*
X13207643Y-14051214D01*
X13236214Y-14065500D01*
X13250500Y-14094071D01*
X13250500Y-14251214D01*
X13250500Y-14094071D02*
X13264786Y-14065500D01*
X13293357Y-14051214D01*
X13336214Y-14051214D01*
X13364786Y-14065500D01*
X13379071Y-14094071D01*
X13379071Y-14251214D01*
X13964786Y-13936929D02*
X13707643Y-14322643D01*
X14350500Y-13951214D02*
X14379071Y-13951214D01*
X14407643Y-13965500D01*
X14421928Y-13979786D01*
X14436214Y-14008357D01*
X14450500Y-14065500D01*
X14450500Y-14136929D01*
X14436214Y-14194071D01*
X14421928Y-14222643D01*
X14407643Y-14236929D01*
X14379071Y-14251214D01*
X14350500Y-14251214D01*
X14321928Y-14236929D01*
X14307643Y-14222643D01*
X14293357Y-14194071D01*
X14279071Y-14136929D01*
X14279071Y-14065500D01*
X14293357Y-14008357D01*
X14307643Y-13979786D01*
X14321928Y-13965500D01*
X14350500Y-13951214D01*
X14579071Y-14222643D02*
X14593357Y-14236929D01*
X14579071Y-14251214D01*
X14564786Y-14236929D01*
X14579071Y-14222643D01*
X14579071Y-14251214D01*
X14879071Y-14251214D02*
X14707643Y-14251214D01*
X14793357Y-14251214D02*
X14793357Y-13951214D01*
X14764786Y-13994071D01*
X14736214Y-14022643D01*
X14707643Y-14036929D01*
X15064786Y-13951214D02*
X15093357Y-13951214D01*
X15121928Y-13965500D01*
X15136214Y-13979786D01*
X15150500Y-14008357D01*
X15164786Y-14065500D01*
X15164786Y-14136929D01*
X15150500Y-14194071D01*
X15136214Y-14222643D01*
X15121928Y-14236929D01*
X15093357Y-14251214D01*
X15064786Y-14251214D01*
X15036214Y-14236929D01*
X15021928Y-14222643D01*
X15007643Y-14194071D01*
X14993357Y-14136929D01*
X14993357Y-14065500D01*
X15007643Y-14008357D01*
X15021928Y-13979786D01*
X15036214Y-13965500D01*
X15064786Y-13951214D01*
X15421928Y-13951214D02*
X15364786Y-13951214D01*
X15336214Y-13965500D01*
X15321928Y-13979786D01*
X15293357Y-14022643D01*
X15279071Y-14079786D01*
X15279071Y-14194071D01*
X15293357Y-14222643D01*
X15307643Y-14236929D01*
X15336214Y-14251214D01*
X15393357Y-14251214D01*
X15421928Y-14236929D01*
X15436214Y-14222643D01*
X15450500Y-14194071D01*
X15450500Y-14122643D01*
X15436214Y-14094071D01*
X15421928Y-14079786D01*
X15393357Y-14065500D01*
X15336214Y-14065500D01*
X15307643Y-14079786D01*
X15293357Y-14094071D01*
X15279071Y-14122643D01*
X15564786Y-13951214D02*
X15564786Y-14008357D01*
X15679071Y-13951214D02*
X15679071Y-14008357D01*
X16121928Y-14365500D02*
X16107643Y-14351214D01*
X16079071Y-14308357D01*
X16064786Y-14279786D01*
X16050500Y-14236929D01*
X16036214Y-14165500D01*
X16036214Y-14108357D01*
X16050500Y-14036929D01*
X16064786Y-13994071D01*
X16079071Y-13965500D01*
X16107643Y-13922643D01*
X16121928Y-13908357D01*
X16207643Y-13951214D02*
X16393357Y-13951214D01*
X16293357Y-14065500D01*
X16336214Y-14065500D01*
X16364786Y-14079786D01*
X16379071Y-14094071D01*
X16393357Y-14122643D01*
X16393357Y-14194071D01*
X16379071Y-14222643D01*
X16364786Y-14236929D01*
X16336214Y-14251214D01*
X16250500Y-14251214D01*
X16221928Y-14236929D01*
X16207643Y-14222643D01*
X16750500Y-14251214D02*
X16750500Y-13951214D01*
X16879071Y-14251214D02*
X16879071Y-14094071D01*
X16864786Y-14065500D01*
X16836214Y-14051214D01*
X16793357Y-14051214D01*
X16764786Y-14065500D01*
X16750500Y-14079786D01*
X17064786Y-14251214D02*
X17036214Y-14236929D01*
X17021928Y-14222643D01*
X17007643Y-14194071D01*
X17007643Y-14108357D01*
X17021928Y-14079786D01*
X17036214Y-14065500D01*
X17064786Y-14051214D01*
X17107643Y-14051214D01*
X17136214Y-14065500D01*
X17150500Y-14079786D01*
X17164786Y-14108357D01*
X17164786Y-14194071D01*
X17150500Y-14222643D01*
X17136214Y-14236929D01*
X17107643Y-14251214D01*
X17064786Y-14251214D01*
X17336214Y-14251214D02*
X17307643Y-14236929D01*
X17293357Y-14208357D01*
X17293357Y-13951214D01*
X17564786Y-14236929D02*
X17536214Y-14251214D01*
X17479071Y-14251214D01*
X17450500Y-14236929D01*
X17436214Y-14208357D01*
X17436214Y-14094071D01*
X17450500Y-14065500D01*
X17479071Y-14051214D01*
X17536214Y-14051214D01*
X17564786Y-14065500D01*
X17579071Y-14094071D01*
X17579071Y-14122643D01*
X17436214Y-14151214D01*
X17693357Y-14236929D02*
X17721928Y-14251214D01*
X17779071Y-14251214D01*
X17807643Y-14236929D01*
X17821928Y-14208357D01*
X17821928Y-14194071D01*
X17807643Y-14165500D01*
X17779071Y-14151214D01*
X17736214Y-14151214D01*
X17707643Y-14136929D01*
X17693357Y-14108357D01*
X17693357Y-14094071D01*
X17707643Y-14065500D01*
X17736214Y-14051214D01*
X17779071Y-14051214D01*
X17807643Y-14065500D01*
X17921928Y-14365500D02*
X17936214Y-14351214D01*
X17964786Y-14308357D01*
X17979071Y-14279786D01*
X17993357Y-14236929D01*
X18007643Y-14165500D01*
X18007643Y-14108357D01*
X17993357Y-14036929D01*
X17979071Y-13994071D01*
X17964786Y-13965500D01*
X17936214Y-13922643D01*
X17921928Y-13908357D01*
X18464786Y-14365500D02*
X18450500Y-14351214D01*
X18421928Y-14308357D01*
X18407643Y-14279786D01*
X18393357Y-14236929D01*
X18379071Y-14165500D01*
X18379071Y-14108357D01*
X18393357Y-14036929D01*
X18407643Y-13994071D01*
X18421928Y-13965500D01*
X18450500Y-13922643D01*
X18464786Y-13908357D01*
X18579071Y-14051214D02*
X18579071Y-14251214D01*
X18579071Y-14079786D02*
X18593357Y-14065500D01*
X18621928Y-14051214D01*
X18664786Y-14051214D01*
X18693357Y-14065500D01*
X18707643Y-14094071D01*
X18707643Y-14251214D01*
X18893357Y-14251214D02*
X18864786Y-14236929D01*
X18850500Y-14222643D01*
X18836214Y-14194071D01*
X18836214Y-14108357D01*
X18850500Y-14079786D01*
X18864786Y-14065500D01*
X18893357Y-14051214D01*
X18936214Y-14051214D01*
X18964786Y-14065500D01*
X18979071Y-14079786D01*
X18993357Y-14108357D01*
X18993357Y-14194071D01*
X18979071Y-14222643D01*
X18964786Y-14236929D01*
X18936214Y-14251214D01*
X18893357Y-14251214D01*
X19079071Y-14051214D02*
X19193357Y-14051214D01*
X19121928Y-13951214D02*
X19121928Y-14208357D01*
X19136214Y-14236929D01*
X19164786Y-14251214D01*
X19193357Y-14251214D01*
X19521928Y-14051214D02*
X19521928Y-14351214D01*
X19521928Y-14065500D02*
X19550500Y-14051214D01*
X19607643Y-14051214D01*
X19636214Y-14065500D01*
X19650500Y-14079786D01*
X19664786Y-14108357D01*
X19664786Y-14194071D01*
X19650500Y-14222643D01*
X19636214Y-14236929D01*
X19607643Y-14251214D01*
X19550500Y-14251214D01*
X19521928Y-14236929D01*
X19836214Y-14251214D02*
X19807643Y-14236929D01*
X19793357Y-14208357D01*
X19793357Y-13951214D01*
X20079071Y-14251214D02*
X20079071Y-14094071D01*
X20064786Y-14065500D01*
X20036214Y-14051214D01*
X19979071Y-14051214D01*
X19950500Y-14065500D01*
X20079071Y-14236929D02*
X20050500Y-14251214D01*
X19979071Y-14251214D01*
X19950500Y-14236929D01*
X19936214Y-14208357D01*
X19936214Y-14179786D01*
X19950500Y-14151214D01*
X19979071Y-14136929D01*
X20050500Y-14136929D01*
X20079071Y-14122643D01*
X20179071Y-14051214D02*
X20293357Y-14051214D01*
X20221928Y-13951214D02*
X20221928Y-14208357D01*
X20236214Y-14236929D01*
X20264786Y-14251214D01*
X20293357Y-14251214D01*
X20507643Y-14236929D02*
X20479071Y-14251214D01*
X20421928Y-14251214D01*
X20393357Y-14236929D01*
X20379071Y-14208357D01*
X20379071Y-14094071D01*
X20393357Y-14065500D01*
X20421928Y-14051214D01*
X20479071Y-14051214D01*
X20507643Y-14065500D01*
X20521928Y-14094071D01*
X20521928Y-14122643D01*
X20379071Y-14151214D01*
X20779071Y-14251214D02*
X20779071Y-13951214D01*
X20779071Y-14236929D02*
X20750500Y-14251214D01*
X20693357Y-14251214D01*
X20664786Y-14236929D01*
X20650500Y-14222643D01*
X20636214Y-14194071D01*
X20636214Y-14108357D01*
X20650500Y-14079786D01*
X20664786Y-14065500D01*
X20693357Y-14051214D01*
X20750500Y-14051214D01*
X20779071Y-14065500D01*
X20893357Y-14365500D02*
X20907643Y-14351214D01*
X20936214Y-14308357D01*
X20950500Y-14279786D01*
X20964786Y-14236929D01*
X20979071Y-14165500D01*
X20979071Y-14108357D01*
X20964786Y-14036929D01*
X20950500Y-13994071D01*
X20936214Y-13965500D01*
X20907643Y-13922643D01*
X20893357Y-13908357D01*
M02*
