G04 #@! TF.GenerationSoftware,KiCad,Pcbnew,(5.0.0)*
G04 #@! TF.CreationDate,2020-04-23T21:24:47+10:00*
G04 #@! TF.ProjectId,Classification and Contol Board,436C617373696669636174696F6E2061,rev?*
G04 #@! TF.SameCoordinates,Original*
G04 #@! TF.FileFunction,Copper,L4,Bot,Signal*
G04 #@! TF.FilePolarity,Positive*
%FSLAX46Y46*%
G04 Gerber Fmt 4.6, Leading zero omitted, Abs format (unit mm)*
G04 Created by KiCad (PCBNEW (5.0.0)) date 04/23/20 21:24:47*
%MOMM*%
%LPD*%
G01*
G04 APERTURE LIST*
G04 #@! TA.AperFunction,ComponentPad*
%ADD10C,2.000000*%
G04 #@! TD*
G04 #@! TA.AperFunction,ComponentPad*
%ADD11O,2.000000X3.500000*%
G04 #@! TD*
G04 #@! TA.AperFunction,ComponentPad*
%ADD12O,3.300000X2.000000*%
G04 #@! TD*
G04 #@! TA.AperFunction,ComponentPad*
%ADD13R,4.000000X2.000000*%
G04 #@! TD*
G04 #@! TA.AperFunction,ComponentPad*
%ADD14O,1.700000X1.700000*%
G04 #@! TD*
G04 #@! TA.AperFunction,ComponentPad*
%ADD15R,1.700000X1.700000*%
G04 #@! TD*
G04 #@! TA.AperFunction,ComponentPad*
%ADD16O,1.150000X1.800000*%
G04 #@! TD*
G04 #@! TA.AperFunction,ComponentPad*
%ADD17O,1.450000X2.000000*%
G04 #@! TD*
G04 #@! TA.AperFunction,ViaPad*
%ADD18C,0.800000*%
G04 #@! TD*
G04 #@! TA.AperFunction,Conductor*
%ADD19C,0.250000*%
G04 #@! TD*
G04 #@! TA.AperFunction,Conductor*
%ADD20C,0.254000*%
G04 #@! TD*
G04 APERTURE END LIST*
D10*
G04 #@! TO.P,SW1,1*
G04 #@! TO.N,/GND*
X126500000Y-78360000D03*
G04 #@! TO.P,SW1,3*
G04 #@! TO.N,/STM32F407VGTx/NRST*
X126500000Y-82860000D03*
G04 #@! TO.P,SW1,4*
X120000000Y-82860000D03*
G04 #@! TO.P,SW1,2*
G04 #@! TO.N,/GND*
X120000000Y-78360000D03*
G04 #@! TD*
D11*
G04 #@! TO.P,J2,MP*
G04 #@! TO.N,N/C*
X126040000Y-112610000D03*
X117040000Y-112610000D03*
D12*
G04 #@! TO.P,J2,2*
G04 #@! TO.N,/GND*
X121540000Y-111610000D03*
D13*
G04 #@! TO.P,J2,1*
G04 #@! TO.N,Net-(J2-Pad1)*
X121540000Y-105610000D03*
G04 #@! TD*
D14*
G04 #@! TO.P,J8,3*
G04 #@! TO.N,/STM32F407VGTx/PWM6*
X155945001Y-84045001D03*
G04 #@! TO.P,J8,2*
G04 #@! TO.N,/Control/VSER6*
X155945001Y-81505001D03*
D15*
G04 #@! TO.P,J8,1*
G04 #@! TO.N,/GND*
X155945001Y-78965001D03*
G04 #@! TD*
G04 #@! TO.P,J7,1*
G04 #@! TO.N,/GND*
X155945001Y-70265001D03*
D14*
G04 #@! TO.P,J7,2*
G04 #@! TO.N,/Control/VSER5*
X155945001Y-72805001D03*
G04 #@! TO.P,J7,3*
G04 #@! TO.N,/STM32F407VGTx/PWM5*
X155945001Y-75345001D03*
G04 #@! TD*
G04 #@! TO.P,J6,3*
G04 #@! TO.N,/STM32F407VGTx/PWM4*
X149052311Y-71880074D03*
G04 #@! TO.P,J6,2*
G04 #@! TO.N,/Control/VSER4*
X146512311Y-71880074D03*
D15*
G04 #@! TO.P,J6,1*
G04 #@! TO.N,/GND*
X143972311Y-71880074D03*
G04 #@! TD*
G04 #@! TO.P,J5,1*
G04 #@! TO.N,/GND*
X134930000Y-71880074D03*
D14*
G04 #@! TO.P,J5,2*
G04 #@! TO.N,/Control/VSER3*
X137470000Y-71880074D03*
G04 #@! TO.P,J5,3*
G04 #@! TO.N,/STM32F407VGTx/PWM3*
X140010000Y-71880074D03*
G04 #@! TD*
G04 #@! TO.P,J4,3*
G04 #@! TO.N,/STM32F407VGTx/PWM2*
X131280000Y-71880074D03*
G04 #@! TO.P,J4,2*
G04 #@! TO.N,/Control/VSER2*
X128740000Y-71880074D03*
D15*
G04 #@! TO.P,J4,1*
G04 #@! TO.N,/GND*
X126200000Y-71880074D03*
G04 #@! TD*
G04 #@! TO.P,J3,1*
G04 #@! TO.N,/GND*
X117470000Y-71880074D03*
D14*
G04 #@! TO.P,J3,2*
G04 #@! TO.N,/Control/VSER1*
X120010000Y-71880074D03*
G04 #@! TO.P,J3,3*
G04 #@! TO.N,/STM32F407VGTx/PWM1*
X122550000Y-71880074D03*
G04 #@! TD*
D15*
G04 #@! TO.P,J1,1*
G04 #@! TO.N,/STM32F407VGTx/3V3*
X142490000Y-111470000D03*
D14*
G04 #@! TO.P,J1,2*
G04 #@! TO.N,/STM32F407VGTx/SWCLK*
X139950000Y-111470000D03*
G04 #@! TO.P,J1,3*
G04 #@! TO.N,/GND*
X137410000Y-111470000D03*
G04 #@! TO.P,J1,4*
G04 #@! TO.N,/STM32F407VGTx/SWDIO*
X134870000Y-111470000D03*
G04 #@! TO.P,J1,5*
G04 #@! TO.N,/STM32F407VGTx/NRST*
X132330000Y-111470000D03*
G04 #@! TO.P,J1,6*
G04 #@! TO.N,/STM32F407VGTx/SWO*
X129790000Y-111470000D03*
G04 #@! TD*
D16*
G04 #@! TO.P,J10,6*
G04 #@! TO.N,/GND*
X148765000Y-120700000D03*
X141015000Y-120700000D03*
D17*
X148615000Y-116900000D03*
X141165000Y-116900000D03*
G04 #@! TD*
D15*
G04 #@! TO.P,J9,1*
G04 #@! TO.N,Net-(J9-Pad1)*
X152390000Y-118040000D03*
D14*
G04 #@! TO.P,J9,2*
G04 #@! TO.N,/Communications/BT_TX*
X154930000Y-118040000D03*
G04 #@! TO.P,J9,3*
G04 #@! TO.N,/Communications/BT_RX*
X157470000Y-118040000D03*
G04 #@! TO.P,J9,4*
G04 #@! TO.N,/GND*
X160010000Y-118040000D03*
G04 #@! TO.P,J9,5*
G04 #@! TO.N,/Communications/+5V*
X162550000Y-118040000D03*
G04 #@! TO.P,J9,6*
G04 #@! TO.N,Net-(J9-Pad6)*
X165090000Y-118040000D03*
G04 #@! TD*
D18*
G04 #@! TO.N,/GND*
X116180000Y-109650000D03*
X156260000Y-92630000D03*
X116780000Y-63580000D03*
X120180000Y-62830000D03*
X124180000Y-62830000D03*
X128180000Y-62830000D03*
X132180000Y-62830000D03*
X136180000Y-62830000D03*
X140180000Y-62830000D03*
X144180000Y-62830000D03*
X148180000Y-62830000D03*
X152180000Y-62830000D03*
X156180000Y-62830000D03*
X160180000Y-62830000D03*
X163840000Y-62320000D03*
X116180000Y-66830000D03*
X115370000Y-70730000D03*
X115380000Y-74480000D03*
X115480000Y-77590000D03*
X117430000Y-82170000D03*
X115520000Y-80440000D03*
X115440000Y-89750000D03*
X116400000Y-96430000D03*
X116180000Y-106830000D03*
X118810000Y-114980000D03*
X116150000Y-116690000D03*
X116150000Y-119740000D03*
X116830000Y-121830000D03*
X160180000Y-66830000D03*
X160180000Y-70830000D03*
X160180000Y-74830000D03*
X160180000Y-78830000D03*
X160180000Y-82830000D03*
X160180000Y-86830000D03*
X161240000Y-90860000D03*
X161240000Y-94090000D03*
X160180000Y-119800000D03*
X160160000Y-122490000D03*
X144180000Y-66830000D03*
X145140000Y-69890000D03*
X141840000Y-74500000D03*
X143420000Y-90740000D03*
X144180000Y-94830000D03*
X143750000Y-98500000D03*
X144180000Y-102830000D03*
X144180000Y-110830000D03*
X144180000Y-118830000D03*
X144160000Y-122490000D03*
X156180000Y-66830000D03*
X153880000Y-82980000D03*
X156180000Y-86830000D03*
X156180000Y-94830000D03*
X156290000Y-98750000D03*
X156180000Y-106830000D03*
X156180000Y-110830000D03*
X157160000Y-116190000D03*
X156180000Y-119800000D03*
X156160000Y-122490000D03*
X140180000Y-66830000D03*
X141110000Y-69860000D03*
X139070000Y-74550000D03*
X139670000Y-77960000D03*
X139280000Y-94310000D03*
X140160000Y-122490000D03*
X164180000Y-66830000D03*
X164180000Y-70830000D03*
X164180000Y-74830000D03*
X164180000Y-78830000D03*
X164180000Y-82830000D03*
X162470000Y-86680000D03*
X163140000Y-90840000D03*
X163120000Y-94110000D03*
X164180000Y-98830000D03*
X164180000Y-110830000D03*
X164180000Y-119800000D03*
X164160000Y-122490000D03*
X120180000Y-66830000D03*
X119970000Y-70010000D03*
X122620000Y-87540000D03*
X126020000Y-89900000D03*
X121390000Y-97190000D03*
X115320000Y-102890000D03*
X119930000Y-109480000D03*
X120070000Y-118720000D03*
X120160000Y-122490000D03*
X128180000Y-66830000D03*
X128710000Y-69810000D03*
X128180000Y-78830000D03*
X126060000Y-87580000D03*
X130680000Y-93120000D03*
X128690000Y-94880000D03*
X128180000Y-102830000D03*
X128180000Y-110830000D03*
X128180000Y-114830000D03*
X128180000Y-118830000D03*
X128160000Y-122490000D03*
X136180000Y-66830000D03*
X137300000Y-69810000D03*
X129940000Y-86910000D03*
X136180000Y-94830000D03*
X136890000Y-97500000D03*
X136180000Y-102830000D03*
X136180000Y-114830000D03*
X136180000Y-118830000D03*
X136160000Y-122490000D03*
X124180000Y-66830000D03*
X124180000Y-70830000D03*
X124180000Y-74830000D03*
X123570000Y-78530000D03*
X124000000Y-81300000D03*
X124180000Y-90830000D03*
X127510000Y-96800000D03*
X125400000Y-106290000D03*
X124120000Y-109540000D03*
X124180000Y-114830000D03*
X124180000Y-118830000D03*
X124160000Y-122490000D03*
X132180000Y-66830000D03*
X132770000Y-69820000D03*
X132180000Y-74830000D03*
X132580000Y-77980000D03*
X131580000Y-94780000D03*
X132180000Y-102830000D03*
X132180000Y-114830000D03*
X133020000Y-118040000D03*
X167120000Y-66810000D03*
X167120000Y-70810000D03*
X167120000Y-74810000D03*
X167120000Y-82810000D03*
X167120000Y-86810000D03*
X167420000Y-97340000D03*
X167120000Y-78810000D03*
X167290000Y-110790000D03*
X167120000Y-118810000D03*
X166150000Y-121250000D03*
X167120000Y-114810000D03*
X166800000Y-63380000D03*
X167320000Y-102780000D03*
X167330000Y-106800000D03*
X132160000Y-122490000D03*
X148180000Y-66830000D03*
X149550000Y-69880000D03*
X149580000Y-74490000D03*
X148740000Y-79080000D03*
X148540000Y-83730000D03*
X147730000Y-86940000D03*
X147310000Y-95040000D03*
X145000000Y-97610000D03*
X148180000Y-106830000D03*
X148160000Y-122490000D03*
X152180000Y-66830000D03*
X153630000Y-74410000D03*
X151440000Y-93400000D03*
X153430000Y-98770000D03*
X152180000Y-106830000D03*
X152180000Y-110830000D03*
X151400000Y-115860000D03*
X152180000Y-119800000D03*
X152160000Y-122490000D03*
X142480000Y-86870000D03*
X154720000Y-116140000D03*
X155180000Y-113240000D03*
X152320000Y-113320000D03*
X149690000Y-113280000D03*
X146620000Y-113370000D03*
X149780000Y-110720000D03*
X146770000Y-108860000D03*
X142730000Y-108860000D03*
X154920000Y-108180000D03*
X158670000Y-108250000D03*
X157250000Y-104410000D03*
X160490000Y-99910000D03*
X153520000Y-101390000D03*
X153540000Y-92210000D03*
X131250000Y-84260000D03*
G04 #@! TO.N,/Communications/RX*
X159620000Y-91320000D03*
X135510000Y-87990000D03*
G04 #@! TO.N,/Communications/TX*
X159610000Y-88740000D03*
X134630000Y-84990000D03*
G04 #@! TO.N,/STM32F407VGTx/3V3*
X149140000Y-105410000D03*
X136180000Y-78830000D03*
X154830000Y-102290000D03*
X149580000Y-83360000D03*
X154550000Y-86630000D03*
X129810000Y-102720000D03*
X130670000Y-91010000D03*
X127530000Y-80730000D03*
X138700000Y-78790000D03*
X148310000Y-77950000D03*
X147290000Y-105870000D03*
G04 #@! TO.N,/STM32F407VGTx/BOOT1*
X135550000Y-92790000D03*
X153060000Y-89910000D03*
G04 #@! TO.N,/STM32F407VGTx/NRST*
X139950000Y-83030000D03*
X145260000Y-94130000D03*
G04 #@! TO.N,/Communications/+5V*
X163430000Y-88140000D03*
X161310000Y-101250000D03*
G04 #@! TO.N,/Control/FB1*
X137960000Y-88190000D03*
X118780000Y-81350000D03*
G04 #@! TO.N,/V+*
X117510000Y-83750000D03*
X121250000Y-76070000D03*
X130150000Y-76150000D03*
X138830000Y-76120000D03*
X149120000Y-76140000D03*
X151740000Y-74090000D03*
X151780000Y-82860000D03*
X127120000Y-107990000D03*
X125060000Y-86090000D03*
X163840000Y-101460000D03*
G04 #@! TO.N,/Control/FB2*
X138390000Y-86930000D03*
X124410000Y-76130000D03*
G04 #@! TO.N,/Control/FB3*
X139890000Y-86720000D03*
X134390000Y-77380000D03*
G04 #@! TO.N,/Control/FB4*
X142180000Y-76110000D03*
X141470000Y-88190000D03*
G04 #@! TO.N,/Control/FB5*
X151800000Y-68300000D03*
X143900000Y-89040000D03*
G04 #@! TO.N,/Control/FB6*
X145640000Y-89720000D03*
X151810000Y-76940000D03*
G04 #@! TO.N,/STM32F407VGTx/PWM1*
X131950000Y-88180000D03*
G04 #@! TO.N,/STM32F407VGTx/PWM2*
X139700000Y-88090000D03*
G04 #@! TO.N,/STM32F407VGTx/PWM3*
X139690000Y-90540000D03*
G04 #@! TO.N,/STM32F407VGTx/PWM4*
X141590000Y-90990000D03*
G04 #@! TO.N,/STM32F407VGTx/PWM5*
X144580000Y-91040000D03*
G04 #@! TO.N,/STM32F407VGTx/PWM6*
X146280000Y-91030000D03*
G04 #@! TO.N,/STM32F407VGTx/SWDIO*
X146070000Y-98780000D03*
G04 #@! TO.N,/STM32F407VGTx/SWCLK*
X151200000Y-98460000D03*
G04 #@! TO.N,/STM32F407VGTx/SWO*
X144820000Y-96020000D03*
G04 #@! TO.N,Net-(C61-Pad1)*
X163510000Y-95890000D03*
X156290000Y-91240000D03*
G04 #@! TO.N,/Communications/BT_TX*
X151265001Y-108264999D03*
G04 #@! TO.N,/Communications/BT_RX*
X150590000Y-107100000D03*
G04 #@! TD*
D19*
G04 #@! TO.N,/STM32F407VGTx/BOOT1*
X151010000Y-91960000D02*
X153060000Y-89910000D01*
X150160000Y-92810000D02*
X151010000Y-91960000D01*
X136135685Y-92810000D02*
X150160000Y-92810000D01*
X136115685Y-92790000D02*
X136135685Y-92810000D01*
X135550000Y-92790000D02*
X136115685Y-92790000D01*
G04 #@! TO.N,/STM32F407VGTx/NRST*
X126330000Y-83030000D02*
X126320000Y-83020000D01*
X146240000Y-97560000D02*
X132330000Y-111470000D01*
X146240000Y-95675685D02*
X146240000Y-97560000D01*
X145260000Y-94130000D02*
X145260000Y-94695685D01*
X145260000Y-94695685D02*
X146240000Y-95675685D01*
G04 #@! TO.N,/Control/FB1*
X122052588Y-81350000D02*
X118780000Y-81350000D01*
X129977589Y-89275001D02*
X122052588Y-81350000D01*
X136309314Y-89275001D02*
X129977589Y-89275001D01*
X137394315Y-88190000D02*
X136309314Y-89275001D01*
X137960000Y-88190000D02*
X137394315Y-88190000D01*
G04 #@! TO.N,/Control/FB2*
X124410000Y-79190000D02*
X124410000Y-76130000D01*
X126770000Y-81550000D02*
X124410000Y-79190000D01*
X133253002Y-81550000D02*
X126770000Y-81550000D01*
X137645001Y-85941999D02*
X133253002Y-81550000D01*
X137645001Y-86185001D02*
X137645001Y-85941999D01*
X138390000Y-86930000D02*
X137645001Y-86185001D01*
G04 #@! TO.N,/Control/FB3*
X139890000Y-86154315D02*
X134390000Y-80654315D01*
X139890000Y-86720000D02*
X139890000Y-86154315D01*
X134390000Y-80654315D02*
X134390000Y-77380000D01*
X134390000Y-77380000D02*
X134390000Y-77380000D01*
G04 #@! TO.N,/Control/FB4*
X142180000Y-76110000D02*
X142180000Y-85910000D01*
X141470000Y-86620000D02*
X142180000Y-85910000D01*
X141470000Y-88190000D02*
X141470000Y-86620000D01*
G04 #@! TO.N,/Control/FB5*
X151800000Y-70871387D02*
X151800000Y-68300000D01*
X143910000Y-87770000D02*
X143910000Y-78761387D01*
X143910000Y-78761387D02*
X151800000Y-70871387D01*
X143900000Y-87780000D02*
X143900000Y-89040000D01*
X143910000Y-87770000D02*
X143900000Y-87780000D01*
G04 #@! TO.N,/Control/FB6*
X146039999Y-89320001D02*
X146039999Y-79220001D01*
X145640000Y-89720000D02*
X146039999Y-89320001D01*
X146039999Y-79220001D02*
X148310000Y-76950000D01*
X148310000Y-76950000D02*
X148320000Y-76940000D01*
X148320000Y-76940000D02*
X151810000Y-76940000D01*
X151810000Y-76940000D02*
X151810000Y-76940000D01*
G04 #@! TO.N,/STM32F407VGTx/PWM1*
X122550000Y-73082155D02*
X122550000Y-71880074D01*
X122550000Y-81211002D02*
X122550000Y-73082155D01*
X131384315Y-88180000D02*
X129518998Y-88180000D01*
X131950000Y-88180000D02*
X131384315Y-88180000D01*
X129518998Y-88180000D02*
X122550000Y-81211002D01*
G04 #@! TO.N,/STM32F407VGTx/PWM2*
X139115001Y-86565001D02*
X131280000Y-78730000D01*
X131280000Y-78730000D02*
X131280000Y-71880074D01*
X139115001Y-87505001D02*
X139700000Y-88090000D01*
X139115001Y-86565001D02*
X139115001Y-87505001D01*
G04 #@! TO.N,/STM32F407VGTx/PWM3*
X140010000Y-73082155D02*
X140010000Y-71880074D01*
X140675001Y-73747156D02*
X140010000Y-73082155D01*
X140675001Y-89554999D02*
X140675001Y-87650000D01*
X139690000Y-90540000D02*
X140675001Y-89554999D01*
X140675001Y-87650000D02*
X140675001Y-73747156D01*
G04 #@! TO.N,/STM32F407VGTx/PWM4*
X143230000Y-77702385D02*
X149052311Y-71880074D01*
X141590000Y-90424315D02*
X142280000Y-89734315D01*
X141590000Y-90990000D02*
X141590000Y-90424315D01*
X142280000Y-88360000D02*
X143230000Y-87410000D01*
X142280000Y-89734315D02*
X142280000Y-88360000D01*
X143230000Y-87410000D02*
X143230000Y-77702385D01*
G04 #@! TO.N,/STM32F407VGTx/PWM5*
X148464999Y-75345001D02*
X155945001Y-75345001D01*
X144860000Y-78950000D02*
X148464999Y-75345001D01*
X144860000Y-90194315D02*
X144860000Y-78950000D01*
X144580000Y-91040000D02*
X144580000Y-90474315D01*
X144580000Y-90474315D02*
X144860000Y-90194315D01*
G04 #@! TO.N,/STM32F407VGTx/PWM6*
X154742920Y-84045001D02*
X155945001Y-84045001D01*
X152699314Y-84045001D02*
X154742920Y-84045001D01*
X146280000Y-90464315D02*
X152699314Y-84045001D01*
X146280000Y-91030000D02*
X146280000Y-90464315D01*
G04 #@! TO.N,/STM32F407VGTx/SWDIO*
X134870000Y-109980000D02*
X134870000Y-111470000D01*
X146070000Y-98780000D02*
X134870000Y-109980000D01*
G04 #@! TO.N,/STM32F407VGTx/SWCLK*
X139950000Y-109710000D02*
X139950000Y-111470000D01*
X151200000Y-98460000D02*
X139950000Y-109710000D01*
G04 #@! TO.N,/STM32F407VGTx/SWO*
X129790000Y-111060000D02*
X129790000Y-111470000D01*
X129790000Y-111050000D02*
X129790000Y-111470000D01*
X144820000Y-96020000D02*
X129790000Y-111050000D01*
G04 #@! TO.N,Net-(C61-Pad1)*
X156689999Y-91639999D02*
X156290000Y-91240000D01*
X160540001Y-95490001D02*
X156689999Y-91639999D01*
X163110001Y-95490001D02*
X160540001Y-95490001D01*
X163510000Y-95890000D02*
X163110001Y-95490001D01*
G04 #@! TO.N,/Communications/BT_TX*
X151265001Y-114375001D02*
X154930000Y-118040000D01*
X151265001Y-108264999D02*
X151265001Y-114375001D01*
G04 #@! TO.N,/Communications/BT_RX*
X156620001Y-117190001D02*
X157470000Y-118040000D01*
X156484999Y-117054999D02*
X156620001Y-117190001D01*
X156484999Y-112485995D02*
X156484999Y-117054999D01*
X151504005Y-107505001D02*
X156484999Y-112485995D01*
X150995001Y-107505001D02*
X151504005Y-107505001D01*
X150590000Y-107100000D02*
X150995001Y-107505001D01*
G04 #@! TD*
D20*
G04 #@! TO.N,/GND*
G36*
X165082658Y-62047917D02*
X165689479Y-62238083D01*
X166245664Y-62546381D01*
X166728495Y-62960217D01*
X167118252Y-63462689D01*
X167399015Y-64033275D01*
X167561516Y-64657126D01*
X167599981Y-65157017D01*
X167560056Y-119653485D01*
X167492083Y-120322658D01*
X167301917Y-120929479D01*
X166993619Y-121485664D01*
X166579783Y-121968495D01*
X166077311Y-122358252D01*
X165506725Y-122639015D01*
X164882879Y-122801515D01*
X164382539Y-122840015D01*
X118325896Y-122849993D01*
X117657342Y-122782083D01*
X117050521Y-122591917D01*
X116494336Y-122283619D01*
X116011505Y-121869783D01*
X115621748Y-121367311D01*
X115340985Y-120796725D01*
X115178485Y-120172879D01*
X115140001Y-119672746D01*
X115140154Y-118835159D01*
X129045000Y-118835159D01*
X129045000Y-119624841D01*
X129347199Y-120354412D01*
X129905588Y-120912801D01*
X130635159Y-121215000D01*
X131424841Y-121215000D01*
X132154412Y-120912801D01*
X132240213Y-120827000D01*
X139805000Y-120827000D01*
X139805000Y-121152000D01*
X139945707Y-121605380D01*
X140249204Y-121970402D01*
X140669286Y-122191495D01*
X140701323Y-122193635D01*
X140888000Y-122068550D01*
X140888000Y-120827000D01*
X141142000Y-120827000D01*
X141142000Y-122068550D01*
X141328677Y-122193635D01*
X141360714Y-122191495D01*
X141780796Y-121970402D01*
X142084293Y-121605380D01*
X142225000Y-121152000D01*
X142225000Y-120827000D01*
X147555000Y-120827000D01*
X147555000Y-121152000D01*
X147695707Y-121605380D01*
X147999204Y-121970402D01*
X148419286Y-122191495D01*
X148451323Y-122193635D01*
X148638000Y-122068550D01*
X148638000Y-120827000D01*
X148892000Y-120827000D01*
X148892000Y-122068550D01*
X149078677Y-122193635D01*
X149110714Y-122191495D01*
X149530796Y-121970402D01*
X149834293Y-121605380D01*
X149975000Y-121152000D01*
X149975000Y-120827000D01*
X148892000Y-120827000D01*
X148638000Y-120827000D01*
X147555000Y-120827000D01*
X142225000Y-120827000D01*
X141142000Y-120827000D01*
X140888000Y-120827000D01*
X139805000Y-120827000D01*
X132240213Y-120827000D01*
X132712801Y-120354412D01*
X132756878Y-120248000D01*
X139805000Y-120248000D01*
X139805000Y-120573000D01*
X140888000Y-120573000D01*
X140888000Y-119331450D01*
X141142000Y-119331450D01*
X141142000Y-120573000D01*
X142225000Y-120573000D01*
X142225000Y-120248000D01*
X147555000Y-120248000D01*
X147555000Y-120573000D01*
X148638000Y-120573000D01*
X148638000Y-119331450D01*
X148892000Y-119331450D01*
X148892000Y-120573000D01*
X149975000Y-120573000D01*
X149975000Y-120248000D01*
X149834293Y-119794620D01*
X149530796Y-119429598D01*
X149110714Y-119208505D01*
X149078677Y-119206365D01*
X148892000Y-119331450D01*
X148638000Y-119331450D01*
X148451323Y-119206365D01*
X148419286Y-119208505D01*
X147999204Y-119429598D01*
X147695707Y-119794620D01*
X147555000Y-120248000D01*
X142225000Y-120248000D01*
X142084293Y-119794620D01*
X141780796Y-119429598D01*
X141360714Y-119208505D01*
X141328677Y-119206365D01*
X141142000Y-119331450D01*
X140888000Y-119331450D01*
X140701323Y-119206365D01*
X140669286Y-119208505D01*
X140249204Y-119429598D01*
X139945707Y-119794620D01*
X139805000Y-120248000D01*
X132756878Y-120248000D01*
X133015000Y-119624841D01*
X133015000Y-118835159D01*
X132712801Y-118105588D01*
X132154412Y-117547199D01*
X131424841Y-117245000D01*
X130635159Y-117245000D01*
X129905588Y-117547199D01*
X129347199Y-118105588D01*
X129045000Y-118835159D01*
X115140154Y-118835159D01*
X115140485Y-117027000D01*
X139805000Y-117027000D01*
X139805000Y-117302000D01*
X139957125Y-117812782D01*
X140293138Y-118226467D01*
X140761884Y-118480076D01*
X140827742Y-118492519D01*
X141038000Y-118369518D01*
X141038000Y-117027000D01*
X141292000Y-117027000D01*
X141292000Y-118369518D01*
X141502258Y-118492519D01*
X141507105Y-118491603D01*
X141643807Y-118696193D01*
X141986163Y-118924948D01*
X142288065Y-118985000D01*
X142491935Y-118985000D01*
X142793837Y-118924948D01*
X143136193Y-118696193D01*
X143364948Y-118353837D01*
X143445276Y-117950000D01*
X146334724Y-117950000D01*
X146415052Y-118353837D01*
X146643807Y-118696193D01*
X146986163Y-118924948D01*
X147288065Y-118985000D01*
X147491935Y-118985000D01*
X147793837Y-118924948D01*
X148136193Y-118696193D01*
X148272895Y-118491603D01*
X148277742Y-118492519D01*
X148488000Y-118369518D01*
X148488000Y-117027000D01*
X148742000Y-117027000D01*
X148742000Y-118369518D01*
X148952258Y-118492519D01*
X149018116Y-118480076D01*
X149486862Y-118226467D01*
X149822875Y-117812782D01*
X149975000Y-117302000D01*
X149975000Y-117027000D01*
X148742000Y-117027000D01*
X148488000Y-117027000D01*
X147871583Y-117027000D01*
X147793837Y-116975052D01*
X147491935Y-116915000D01*
X147288065Y-116915000D01*
X146986163Y-116975052D01*
X146643807Y-117203807D01*
X146415052Y-117546163D01*
X146334724Y-117950000D01*
X143445276Y-117950000D01*
X143364948Y-117546163D01*
X143136193Y-117203807D01*
X142793837Y-116975052D01*
X142491935Y-116915000D01*
X142288065Y-116915000D01*
X141986163Y-116975052D01*
X141908417Y-117027000D01*
X141292000Y-117027000D01*
X141038000Y-117027000D01*
X139805000Y-117027000D01*
X115140485Y-117027000D01*
X115140582Y-116498000D01*
X139805000Y-116498000D01*
X139805000Y-116773000D01*
X141038000Y-116773000D01*
X141038000Y-115430482D01*
X141292000Y-115430482D01*
X141292000Y-116773000D01*
X142525000Y-116773000D01*
X142525000Y-116498000D01*
X147255000Y-116498000D01*
X147255000Y-116773000D01*
X148488000Y-116773000D01*
X148488000Y-115430482D01*
X148742000Y-115430482D01*
X148742000Y-116773000D01*
X149975000Y-116773000D01*
X149975000Y-116498000D01*
X149822875Y-115987218D01*
X149486862Y-115573533D01*
X149018116Y-115319924D01*
X148952258Y-115307481D01*
X148742000Y-115430482D01*
X148488000Y-115430482D01*
X148277742Y-115307481D01*
X148211884Y-115319924D01*
X147743138Y-115573533D01*
X147407125Y-115987218D01*
X147255000Y-116498000D01*
X142525000Y-116498000D01*
X142372875Y-115987218D01*
X142036862Y-115573533D01*
X141568116Y-115319924D01*
X141502258Y-115307481D01*
X141292000Y-115430482D01*
X141038000Y-115430482D01*
X140827742Y-115307481D01*
X140761884Y-115319924D01*
X140293138Y-115573533D01*
X139957125Y-115987218D01*
X139805000Y-116498000D01*
X115140582Y-116498000D01*
X115141463Y-111698970D01*
X115405000Y-111698970D01*
X115405000Y-113521031D01*
X115499865Y-113997945D01*
X115861232Y-114538769D01*
X116402056Y-114900136D01*
X117040000Y-115027031D01*
X117677945Y-114900136D01*
X118218769Y-114538769D01*
X118580136Y-113997945D01*
X118675000Y-113521031D01*
X118675000Y-111990434D01*
X119299876Y-111990434D01*
X119330856Y-112118355D01*
X119644078Y-112676317D01*
X120146980Y-113071942D01*
X120763000Y-113245000D01*
X121085566Y-113245000D01*
X120727138Y-113393466D01*
X120323466Y-113797138D01*
X120105000Y-114324561D01*
X120105000Y-114895439D01*
X120323466Y-115422862D01*
X120727138Y-115826534D01*
X121254561Y-116045000D01*
X121825439Y-116045000D01*
X122352862Y-115826534D01*
X122756534Y-115422862D01*
X122975000Y-114895439D01*
X122975000Y-114324561D01*
X122756534Y-113797138D01*
X122352862Y-113393466D01*
X121994434Y-113245000D01*
X122317000Y-113245000D01*
X122933020Y-113071942D01*
X123435922Y-112676317D01*
X123749144Y-112118355D01*
X123780124Y-111990434D01*
X123660777Y-111737000D01*
X121667000Y-111737000D01*
X121667000Y-111757000D01*
X121413000Y-111757000D01*
X121413000Y-111737000D01*
X119419223Y-111737000D01*
X119299876Y-111990434D01*
X118675000Y-111990434D01*
X118675000Y-111698970D01*
X124405000Y-111698970D01*
X124405000Y-113521031D01*
X124499865Y-113997945D01*
X124861232Y-114538769D01*
X125402056Y-114900136D01*
X126040000Y-115027031D01*
X126677945Y-114900136D01*
X127218769Y-114538769D01*
X127580136Y-113997945D01*
X127675000Y-113521031D01*
X127675000Y-111698969D01*
X127580136Y-111222055D01*
X127218769Y-110681231D01*
X126677944Y-110319864D01*
X126040000Y-110192969D01*
X125402055Y-110319864D01*
X124861231Y-110681231D01*
X124499864Y-111222056D01*
X124405000Y-111698970D01*
X118675000Y-111698970D01*
X118675000Y-111698969D01*
X118581631Y-111229566D01*
X119299876Y-111229566D01*
X119419223Y-111483000D01*
X121413000Y-111483000D01*
X121413000Y-109975000D01*
X121667000Y-109975000D01*
X121667000Y-111483000D01*
X123660777Y-111483000D01*
X123780124Y-111229566D01*
X123749144Y-111101645D01*
X123435922Y-110543683D01*
X122933020Y-110148058D01*
X122317000Y-109975000D01*
X121667000Y-109975000D01*
X121413000Y-109975000D01*
X120763000Y-109975000D01*
X120146980Y-110148058D01*
X119644078Y-110543683D01*
X119330856Y-111101645D01*
X119299876Y-111229566D01*
X118581631Y-111229566D01*
X118580136Y-111222055D01*
X118218769Y-110681231D01*
X117677944Y-110319864D01*
X117040000Y-110192969D01*
X116402055Y-110319864D01*
X115861231Y-110681231D01*
X115499864Y-111222056D01*
X115405000Y-111698970D01*
X115141463Y-111698970D01*
X115142180Y-107784126D01*
X126085000Y-107784126D01*
X126085000Y-108195874D01*
X126242569Y-108576280D01*
X126533720Y-108867431D01*
X126914126Y-109025000D01*
X127325874Y-109025000D01*
X127706280Y-108867431D01*
X127997431Y-108576280D01*
X128155000Y-108195874D01*
X128155000Y-107784126D01*
X127997431Y-107403720D01*
X127706280Y-107112569D01*
X127325874Y-106955000D01*
X126914126Y-106955000D01*
X126533720Y-107112569D01*
X126242569Y-107403720D01*
X126085000Y-107784126D01*
X115142180Y-107784126D01*
X115142763Y-104610000D01*
X118892560Y-104610000D01*
X118892560Y-106610000D01*
X118941843Y-106857765D01*
X119082191Y-107067809D01*
X119292235Y-107208157D01*
X119540000Y-107257440D01*
X123540000Y-107257440D01*
X123787765Y-107208157D01*
X123997809Y-107067809D01*
X124138157Y-106857765D01*
X124187440Y-106610000D01*
X124187440Y-104610000D01*
X124138157Y-104362235D01*
X123997809Y-104152191D01*
X123787765Y-104011843D01*
X123540000Y-103962560D01*
X119540000Y-103962560D01*
X119292235Y-104011843D01*
X119082191Y-104152191D01*
X118941843Y-104362235D01*
X118892560Y-104610000D01*
X115142763Y-104610000D01*
X115143147Y-102514126D01*
X128775000Y-102514126D01*
X128775000Y-102925874D01*
X128932569Y-103306280D01*
X129223720Y-103597431D01*
X129604126Y-103755000D01*
X130015874Y-103755000D01*
X130396280Y-103597431D01*
X130687431Y-103306280D01*
X130845000Y-102925874D01*
X130845000Y-102514126D01*
X130687431Y-102133720D01*
X130396280Y-101842569D01*
X130015874Y-101685000D01*
X129604126Y-101685000D01*
X129223720Y-101842569D01*
X128932569Y-102133720D01*
X128775000Y-102514126D01*
X115143147Y-102514126D01*
X115144854Y-93205159D01*
X124545000Y-93205159D01*
X124545000Y-93994841D01*
X124847199Y-94724412D01*
X125405588Y-95282801D01*
X126135159Y-95585000D01*
X126924841Y-95585000D01*
X127654412Y-95282801D01*
X128212801Y-94724412D01*
X128515000Y-93994841D01*
X128515000Y-93205159D01*
X128212801Y-92475588D01*
X127654412Y-91917199D01*
X126924841Y-91615000D01*
X126135159Y-91615000D01*
X125405588Y-91917199D01*
X124847199Y-92475588D01*
X124545000Y-93205159D01*
X115144854Y-93205159D01*
X115146627Y-83544126D01*
X116475000Y-83544126D01*
X116475000Y-83955874D01*
X116632569Y-84336280D01*
X116923720Y-84627431D01*
X117304126Y-84785000D01*
X117715874Y-84785000D01*
X118096280Y-84627431D01*
X118387431Y-84336280D01*
X118545000Y-83955874D01*
X118545000Y-83619780D01*
X118613914Y-83786153D01*
X119073847Y-84246086D01*
X119674778Y-84495000D01*
X120325222Y-84495000D01*
X120926153Y-84246086D01*
X121386086Y-83786153D01*
X121635000Y-83185222D01*
X121635000Y-82534778D01*
X121459051Y-82110000D01*
X121737787Y-82110000D01*
X124732971Y-85105184D01*
X124473720Y-85212569D01*
X124182569Y-85503720D01*
X124025000Y-85884126D01*
X124025000Y-86295874D01*
X124182569Y-86676280D01*
X124473720Y-86967431D01*
X124854126Y-87125000D01*
X125265874Y-87125000D01*
X125646280Y-86967431D01*
X125937431Y-86676280D01*
X126044816Y-86417029D01*
X129387260Y-89759474D01*
X129429660Y-89822930D01*
X129681052Y-89990905D01*
X129902737Y-90035001D01*
X129902742Y-90035001D01*
X129977589Y-90049889D01*
X130052436Y-90035001D01*
X130319270Y-90035001D01*
X130083720Y-90132569D01*
X129792569Y-90423720D01*
X129635000Y-90804126D01*
X129635000Y-91215874D01*
X129792569Y-91596280D01*
X130083720Y-91887431D01*
X130464126Y-92045000D01*
X130875874Y-92045000D01*
X131256280Y-91887431D01*
X131547431Y-91596280D01*
X131705000Y-91215874D01*
X131705000Y-90804126D01*
X131547431Y-90423720D01*
X131256280Y-90132569D01*
X131020730Y-90035001D01*
X136234467Y-90035001D01*
X136309314Y-90049889D01*
X136384161Y-90035001D01*
X136384166Y-90035001D01*
X136605851Y-89990905D01*
X136857243Y-89822930D01*
X136899645Y-89759471D01*
X137527845Y-89131272D01*
X137754126Y-89225000D01*
X138165874Y-89225000D01*
X138546280Y-89067431D01*
X138837431Y-88776280D01*
X138862367Y-88716078D01*
X139113720Y-88967431D01*
X139494126Y-89125000D01*
X139905874Y-89125000D01*
X139915001Y-89121219D01*
X139915001Y-89240197D01*
X139650198Y-89505000D01*
X139484126Y-89505000D01*
X139103720Y-89662569D01*
X138812569Y-89953720D01*
X138655000Y-90334126D01*
X138655000Y-90745874D01*
X138812569Y-91126280D01*
X139103720Y-91417431D01*
X139484126Y-91575000D01*
X139895874Y-91575000D01*
X140276280Y-91417431D01*
X140555000Y-91138711D01*
X140555000Y-91195874D01*
X140712569Y-91576280D01*
X141003720Y-91867431D01*
X141384126Y-92025000D01*
X141795874Y-92025000D01*
X142176280Y-91867431D01*
X142467431Y-91576280D01*
X142625000Y-91195874D01*
X142625000Y-90784126D01*
X142531272Y-90557845D01*
X142764476Y-90324642D01*
X142827929Y-90282244D01*
X142870327Y-90218791D01*
X142870329Y-90218789D01*
X142990144Y-90039472D01*
X142995904Y-90030852D01*
X143040000Y-89809167D01*
X143040000Y-89809163D01*
X143054888Y-89734316D01*
X143040000Y-89659469D01*
X143040000Y-89643711D01*
X143313720Y-89917431D01*
X143694126Y-90075000D01*
X143932771Y-90075000D01*
X143864096Y-90177778D01*
X143835686Y-90320603D01*
X143702569Y-90453720D01*
X143545000Y-90834126D01*
X143545000Y-91245874D01*
X143702569Y-91626280D01*
X143993720Y-91917431D01*
X144313771Y-92050000D01*
X136291084Y-92050000D01*
X136269397Y-92045686D01*
X136136280Y-91912569D01*
X135755874Y-91755000D01*
X135344126Y-91755000D01*
X134963720Y-91912569D01*
X134672569Y-92203720D01*
X134515000Y-92584126D01*
X134515000Y-92995874D01*
X134672569Y-93376280D01*
X134963720Y-93667431D01*
X135344126Y-93825000D01*
X135755874Y-93825000D01*
X136136280Y-93667431D01*
X136233711Y-93570000D01*
X144371683Y-93570000D01*
X144225000Y-93924126D01*
X144225000Y-94335874D01*
X144382569Y-94716280D01*
X144515686Y-94849397D01*
X144544096Y-94992222D01*
X144555497Y-95009285D01*
X144233720Y-95142569D01*
X143942569Y-95433720D01*
X143785000Y-95814126D01*
X143785000Y-95980198D01*
X129780199Y-109985000D01*
X129643744Y-109985000D01*
X129210582Y-110071161D01*
X128719375Y-110399375D01*
X128391161Y-110890582D01*
X128275908Y-111470000D01*
X128391161Y-112049418D01*
X128719375Y-112540625D01*
X129210582Y-112868839D01*
X129643744Y-112955000D01*
X129936256Y-112955000D01*
X130369418Y-112868839D01*
X130860625Y-112540625D01*
X131060000Y-112242239D01*
X131259375Y-112540625D01*
X131750582Y-112868839D01*
X132183744Y-112955000D01*
X132476256Y-112955000D01*
X132909418Y-112868839D01*
X133400625Y-112540625D01*
X133600000Y-112242239D01*
X133799375Y-112540625D01*
X134290582Y-112868839D01*
X134723744Y-112955000D01*
X135016256Y-112955000D01*
X135449418Y-112868839D01*
X135940625Y-112540625D01*
X136153843Y-112221522D01*
X136214817Y-112351358D01*
X136643076Y-112741645D01*
X137053110Y-112911476D01*
X137283000Y-112790155D01*
X137283000Y-111597000D01*
X137263000Y-111597000D01*
X137263000Y-111343000D01*
X137283000Y-111343000D01*
X137283000Y-110149845D01*
X137537000Y-110149845D01*
X137537000Y-111343000D01*
X137557000Y-111343000D01*
X137557000Y-111597000D01*
X137537000Y-111597000D01*
X137537000Y-112790155D01*
X137766890Y-112911476D01*
X138176924Y-112741645D01*
X138605183Y-112351358D01*
X138666157Y-112221522D01*
X138879375Y-112540625D01*
X139370582Y-112868839D01*
X139803744Y-112955000D01*
X140096256Y-112955000D01*
X140529418Y-112868839D01*
X141020625Y-112540625D01*
X141032816Y-112522381D01*
X141041843Y-112567765D01*
X141182191Y-112777809D01*
X141392235Y-112918157D01*
X141640000Y-112967440D01*
X143340000Y-112967440D01*
X143587765Y-112918157D01*
X143797809Y-112777809D01*
X143938157Y-112567765D01*
X143987440Y-112320000D01*
X143987440Y-110620000D01*
X143938157Y-110372235D01*
X143797809Y-110162191D01*
X143587765Y-110021843D01*
X143340000Y-109972560D01*
X141640000Y-109972560D01*
X141392235Y-110021843D01*
X141182191Y-110162191D01*
X141041843Y-110372235D01*
X141032816Y-110417619D01*
X141020625Y-110399375D01*
X140710000Y-110191822D01*
X140710000Y-110024801D01*
X145070675Y-105664126D01*
X146255000Y-105664126D01*
X146255000Y-106075874D01*
X146412569Y-106456280D01*
X146703720Y-106747431D01*
X147084126Y-106905000D01*
X147495874Y-106905000D01*
X147522126Y-106894126D01*
X149555000Y-106894126D01*
X149555000Y-107305874D01*
X149712569Y-107686280D01*
X150003720Y-107977431D01*
X150230001Y-108071159D01*
X150230001Y-108470873D01*
X150387570Y-108851279D01*
X150505001Y-108968710D01*
X150505002Y-114300149D01*
X150490113Y-114375001D01*
X150505002Y-114449853D01*
X150549098Y-114671538D01*
X150717073Y-114922930D01*
X150780529Y-114965330D01*
X152357758Y-116542560D01*
X151540000Y-116542560D01*
X151292235Y-116591843D01*
X151082191Y-116732191D01*
X150941843Y-116942235D01*
X150892560Y-117190000D01*
X150892560Y-118890000D01*
X150941843Y-119137765D01*
X151082191Y-119347809D01*
X151292235Y-119488157D01*
X151540000Y-119537440D01*
X153240000Y-119537440D01*
X153487765Y-119488157D01*
X153697809Y-119347809D01*
X153838157Y-119137765D01*
X153847184Y-119092381D01*
X153859375Y-119110625D01*
X154350582Y-119438839D01*
X154783744Y-119525000D01*
X155076256Y-119525000D01*
X155509418Y-119438839D01*
X156000625Y-119110625D01*
X156200000Y-118812239D01*
X156399375Y-119110625D01*
X156890582Y-119438839D01*
X157323744Y-119525000D01*
X157616256Y-119525000D01*
X158049418Y-119438839D01*
X158540625Y-119110625D01*
X158753843Y-118791522D01*
X158814817Y-118921358D01*
X159243076Y-119311645D01*
X159653110Y-119481476D01*
X159883000Y-119360155D01*
X159883000Y-118167000D01*
X159863000Y-118167000D01*
X159863000Y-117913000D01*
X159883000Y-117913000D01*
X159883000Y-116719845D01*
X160137000Y-116719845D01*
X160137000Y-117913000D01*
X160157000Y-117913000D01*
X160157000Y-118167000D01*
X160137000Y-118167000D01*
X160137000Y-119360155D01*
X160366890Y-119481476D01*
X160776924Y-119311645D01*
X161205183Y-118921358D01*
X161266157Y-118791522D01*
X161479375Y-119110625D01*
X161970582Y-119438839D01*
X162403744Y-119525000D01*
X162696256Y-119525000D01*
X163129418Y-119438839D01*
X163620625Y-119110625D01*
X163820000Y-118812239D01*
X164019375Y-119110625D01*
X164510582Y-119438839D01*
X164943744Y-119525000D01*
X165236256Y-119525000D01*
X165669418Y-119438839D01*
X166160625Y-119110625D01*
X166488839Y-118619418D01*
X166604092Y-118040000D01*
X166488839Y-117460582D01*
X166160625Y-116969375D01*
X165669418Y-116641161D01*
X165236256Y-116555000D01*
X164943744Y-116555000D01*
X164510582Y-116641161D01*
X164019375Y-116969375D01*
X163820000Y-117267761D01*
X163620625Y-116969375D01*
X163129418Y-116641161D01*
X162696256Y-116555000D01*
X162403744Y-116555000D01*
X161970582Y-116641161D01*
X161479375Y-116969375D01*
X161266157Y-117288478D01*
X161205183Y-117158642D01*
X160776924Y-116768355D01*
X160366890Y-116598524D01*
X160137000Y-116719845D01*
X159883000Y-116719845D01*
X159653110Y-116598524D01*
X159243076Y-116768355D01*
X158814817Y-117158642D01*
X158753843Y-117288478D01*
X158540625Y-116969375D01*
X158049418Y-116641161D01*
X157616256Y-116555000D01*
X157323744Y-116555000D01*
X157244999Y-116570663D01*
X157244999Y-112560841D01*
X157259887Y-112485994D01*
X157244999Y-112411147D01*
X157244999Y-112411143D01*
X157200903Y-112189458D01*
X157032928Y-111938066D01*
X156969472Y-111895666D01*
X152094336Y-107020531D01*
X152051934Y-106957072D01*
X151800542Y-106789097D01*
X151578857Y-106745001D01*
X151578852Y-106745001D01*
X151561828Y-106741615D01*
X151467431Y-106513720D01*
X151176280Y-106222569D01*
X150795874Y-106065000D01*
X150384126Y-106065000D01*
X150003720Y-106222569D01*
X149712569Y-106513720D01*
X149555000Y-106894126D01*
X147522126Y-106894126D01*
X147876280Y-106747431D01*
X148167431Y-106456280D01*
X148325000Y-106075874D01*
X148325000Y-106058711D01*
X148553720Y-106287431D01*
X148934126Y-106445000D01*
X149345874Y-106445000D01*
X149726280Y-106287431D01*
X150017431Y-105996280D01*
X150175000Y-105615874D01*
X150175000Y-105204126D01*
X150017431Y-104823720D01*
X149726280Y-104532569D01*
X149345874Y-104375000D01*
X148934126Y-104375000D01*
X148553720Y-104532569D01*
X148262569Y-104823720D01*
X148105000Y-105204126D01*
X148105000Y-105221289D01*
X147876280Y-104992569D01*
X147495874Y-104835000D01*
X147084126Y-104835000D01*
X146703720Y-104992569D01*
X146412569Y-105283720D01*
X146255000Y-105664126D01*
X145070675Y-105664126D01*
X148650675Y-102084126D01*
X153795000Y-102084126D01*
X153795000Y-102495874D01*
X153952569Y-102876280D01*
X154243720Y-103167431D01*
X154624126Y-103325000D01*
X155035874Y-103325000D01*
X155416280Y-103167431D01*
X155707431Y-102876280D01*
X155865000Y-102495874D01*
X155865000Y-102084126D01*
X155707431Y-101703720D01*
X155416280Y-101412569D01*
X155035874Y-101255000D01*
X154624126Y-101255000D01*
X154243720Y-101412569D01*
X153952569Y-101703720D01*
X153795000Y-102084126D01*
X148650675Y-102084126D01*
X149690675Y-101044126D01*
X160275000Y-101044126D01*
X160275000Y-101455874D01*
X160432569Y-101836280D01*
X160723720Y-102127431D01*
X161104126Y-102285000D01*
X161515874Y-102285000D01*
X161896280Y-102127431D01*
X162187431Y-101836280D01*
X162345000Y-101455874D01*
X162345000Y-101254126D01*
X162805000Y-101254126D01*
X162805000Y-101665874D01*
X162962569Y-102046280D01*
X163253720Y-102337431D01*
X163634126Y-102495000D01*
X164045874Y-102495000D01*
X164426280Y-102337431D01*
X164717431Y-102046280D01*
X164875000Y-101665874D01*
X164875000Y-101254126D01*
X164717431Y-100873720D01*
X164426280Y-100582569D01*
X164045874Y-100425000D01*
X163634126Y-100425000D01*
X163253720Y-100582569D01*
X162962569Y-100873720D01*
X162805000Y-101254126D01*
X162345000Y-101254126D01*
X162345000Y-101044126D01*
X162187431Y-100663720D01*
X161896280Y-100372569D01*
X161515874Y-100215000D01*
X161104126Y-100215000D01*
X160723720Y-100372569D01*
X160432569Y-100663720D01*
X160275000Y-101044126D01*
X149690675Y-101044126D01*
X151239802Y-99495000D01*
X151405874Y-99495000D01*
X151786280Y-99337431D01*
X152077431Y-99046280D01*
X152235000Y-98665874D01*
X152235000Y-98254126D01*
X152077431Y-97873720D01*
X151786280Y-97582569D01*
X151405874Y-97425000D01*
X150994126Y-97425000D01*
X150613720Y-97582569D01*
X150322569Y-97873720D01*
X150165000Y-98254126D01*
X150165000Y-98420198D01*
X139465530Y-109119669D01*
X139402071Y-109162071D01*
X139234096Y-109413464D01*
X139190000Y-109635149D01*
X139190000Y-109635153D01*
X139175112Y-109710000D01*
X139190000Y-109784847D01*
X139190000Y-110191822D01*
X138879375Y-110399375D01*
X138666157Y-110718478D01*
X138605183Y-110588642D01*
X138176924Y-110198355D01*
X137766890Y-110028524D01*
X137537000Y-110149845D01*
X137283000Y-110149845D01*
X137053110Y-110028524D01*
X136643076Y-110198355D01*
X136214817Y-110588642D01*
X136153843Y-110718478D01*
X135940625Y-110399375D01*
X135691731Y-110233070D01*
X146109802Y-99815000D01*
X146275874Y-99815000D01*
X146656280Y-99657431D01*
X146947431Y-99366280D01*
X147105000Y-98985874D01*
X147105000Y-98574126D01*
X146947431Y-98193720D01*
X146817454Y-98063743D01*
X146856629Y-98005112D01*
X146955904Y-97856538D01*
X146978270Y-97744096D01*
X147000000Y-97634852D01*
X147000000Y-97634848D01*
X147014888Y-97560000D01*
X147000000Y-97485152D01*
X147000000Y-95750531D01*
X147014888Y-95675684D01*
X147000000Y-95600837D01*
X147000000Y-95600833D01*
X146955904Y-95379148D01*
X146831834Y-95193464D01*
X146830329Y-95191211D01*
X146830327Y-95191209D01*
X146787929Y-95127756D01*
X146724476Y-95085358D01*
X146201272Y-94562155D01*
X146295000Y-94335874D01*
X146295000Y-93924126D01*
X146148317Y-93570000D01*
X150085153Y-93570000D01*
X150160000Y-93584888D01*
X150234847Y-93570000D01*
X150234852Y-93570000D01*
X150456537Y-93525904D01*
X150707929Y-93357929D01*
X150750331Y-93294470D01*
X151600329Y-92444473D01*
X151600331Y-92444470D01*
X153010675Y-91034126D01*
X155255000Y-91034126D01*
X155255000Y-91445874D01*
X155412569Y-91826280D01*
X155703720Y-92117431D01*
X156084126Y-92275000D01*
X156250199Y-92275000D01*
X159949671Y-95974473D01*
X159992072Y-96037930D01*
X160243464Y-96205905D01*
X160465149Y-96250001D01*
X160465153Y-96250001D01*
X160540000Y-96264889D01*
X160614847Y-96250001D01*
X162538841Y-96250001D01*
X162632569Y-96476280D01*
X162923720Y-96767431D01*
X163304126Y-96925000D01*
X163715874Y-96925000D01*
X164096280Y-96767431D01*
X164387431Y-96476280D01*
X164545000Y-96095874D01*
X164545000Y-95684126D01*
X164387431Y-95303720D01*
X164096280Y-95012569D01*
X163715874Y-94855000D01*
X163527618Y-94855000D01*
X163406538Y-94774097D01*
X163184853Y-94730001D01*
X163184848Y-94730001D01*
X163110001Y-94715113D01*
X163035154Y-94730001D01*
X160854803Y-94730001D01*
X157325000Y-91200199D01*
X157325000Y-91114126D01*
X158585000Y-91114126D01*
X158585000Y-91525874D01*
X158742569Y-91906280D01*
X159033720Y-92197431D01*
X159414126Y-92355000D01*
X159825874Y-92355000D01*
X160206280Y-92197431D01*
X160497431Y-91906280D01*
X160655000Y-91525874D01*
X160655000Y-91114126D01*
X160497431Y-90733720D01*
X160206280Y-90442569D01*
X159825874Y-90285000D01*
X159414126Y-90285000D01*
X159033720Y-90442569D01*
X158742569Y-90733720D01*
X158585000Y-91114126D01*
X157325000Y-91114126D01*
X157325000Y-91034126D01*
X157167431Y-90653720D01*
X156876280Y-90362569D01*
X156495874Y-90205000D01*
X156084126Y-90205000D01*
X155703720Y-90362569D01*
X155412569Y-90653720D01*
X155255000Y-91034126D01*
X153010675Y-91034126D01*
X153099802Y-90945000D01*
X153265874Y-90945000D01*
X153646280Y-90787431D01*
X153937431Y-90496280D01*
X154095000Y-90115874D01*
X154095000Y-89704126D01*
X153937431Y-89323720D01*
X153646280Y-89032569D01*
X153265874Y-88875000D01*
X152854126Y-88875000D01*
X152473720Y-89032569D01*
X152182569Y-89323720D01*
X152025000Y-89704126D01*
X152025000Y-89870198D01*
X150525530Y-91369669D01*
X150525527Y-91369671D01*
X149845199Y-92050000D01*
X146522087Y-92050000D01*
X146866280Y-91907431D01*
X147157431Y-91616280D01*
X147315000Y-91235874D01*
X147315000Y-90824126D01*
X147221271Y-90597845D01*
X149284990Y-88534126D01*
X158575000Y-88534126D01*
X158575000Y-88945874D01*
X158732569Y-89326280D01*
X159023720Y-89617431D01*
X159404126Y-89775000D01*
X159815874Y-89775000D01*
X160196280Y-89617431D01*
X160487431Y-89326280D01*
X160645000Y-88945874D01*
X160645000Y-88534126D01*
X160487431Y-88153720D01*
X160267837Y-87934126D01*
X162395000Y-87934126D01*
X162395000Y-88345874D01*
X162552569Y-88726280D01*
X162843720Y-89017431D01*
X163224126Y-89175000D01*
X163635874Y-89175000D01*
X164016280Y-89017431D01*
X164307431Y-88726280D01*
X164465000Y-88345874D01*
X164465000Y-87934126D01*
X164307431Y-87553720D01*
X164016280Y-87262569D01*
X163635874Y-87105000D01*
X163224126Y-87105000D01*
X162843720Y-87262569D01*
X162552569Y-87553720D01*
X162395000Y-87934126D01*
X160267837Y-87934126D01*
X160196280Y-87862569D01*
X159815874Y-87705000D01*
X159404126Y-87705000D01*
X159023720Y-87862569D01*
X158732569Y-88153720D01*
X158575000Y-88534126D01*
X149284990Y-88534126D01*
X151394990Y-86424126D01*
X153515000Y-86424126D01*
X153515000Y-86835874D01*
X153672569Y-87216280D01*
X153963720Y-87507431D01*
X154344126Y-87665000D01*
X154755874Y-87665000D01*
X155136280Y-87507431D01*
X155427431Y-87216280D01*
X155585000Y-86835874D01*
X155585000Y-86424126D01*
X155427431Y-86043720D01*
X155136280Y-85752569D01*
X154755874Y-85595000D01*
X154344126Y-85595000D01*
X153963720Y-85752569D01*
X153672569Y-86043720D01*
X153515000Y-86424126D01*
X151394990Y-86424126D01*
X153014116Y-84805001D01*
X154666823Y-84805001D01*
X154874376Y-85115626D01*
X155365583Y-85443840D01*
X155798745Y-85530001D01*
X156091257Y-85530001D01*
X156524419Y-85443840D01*
X157015626Y-85115626D01*
X157343840Y-84624419D01*
X157459093Y-84045001D01*
X157343840Y-83465583D01*
X157015626Y-82974376D01*
X156717240Y-82775001D01*
X157015626Y-82575626D01*
X157343840Y-82084419D01*
X157459093Y-81505001D01*
X157343840Y-80925583D01*
X157015626Y-80434376D01*
X156993968Y-80419905D01*
X157154699Y-80353328D01*
X157333328Y-80174700D01*
X157430001Y-79941311D01*
X157430001Y-79250751D01*
X157271251Y-79092001D01*
X156072001Y-79092001D01*
X156072001Y-79112001D01*
X155818001Y-79112001D01*
X155818001Y-79092001D01*
X154618751Y-79092001D01*
X154460001Y-79250751D01*
X154460001Y-79941311D01*
X154556674Y-80174700D01*
X154735303Y-80353328D01*
X154896034Y-80419905D01*
X154874376Y-80434376D01*
X154546162Y-80925583D01*
X154430909Y-81505001D01*
X154546162Y-82084419D01*
X154874376Y-82575626D01*
X155172762Y-82775001D01*
X154874376Y-82974376D01*
X154666823Y-83285001D01*
X152774161Y-83285001D01*
X152728035Y-83275826D01*
X152815000Y-83065874D01*
X152815000Y-82654126D01*
X152657431Y-82273720D01*
X152366280Y-81982569D01*
X151985874Y-81825000D01*
X151574126Y-81825000D01*
X151193720Y-81982569D01*
X150902569Y-82273720D01*
X150745000Y-82654126D01*
X150745000Y-83065874D01*
X150902569Y-83446280D01*
X151193720Y-83737431D01*
X151574126Y-83895000D01*
X151774513Y-83895000D01*
X146799999Y-88869515D01*
X146799999Y-83154126D01*
X148545000Y-83154126D01*
X148545000Y-83565874D01*
X148702569Y-83946280D01*
X148993720Y-84237431D01*
X149374126Y-84395000D01*
X149785874Y-84395000D01*
X150166280Y-84237431D01*
X150457431Y-83946280D01*
X150615000Y-83565874D01*
X150615000Y-83154126D01*
X150457431Y-82773720D01*
X150166280Y-82482569D01*
X149785874Y-82325000D01*
X149374126Y-82325000D01*
X148993720Y-82482569D01*
X148702569Y-82773720D01*
X148545000Y-83154126D01*
X146799999Y-83154126D01*
X146799999Y-79534802D01*
X147615545Y-78719256D01*
X147723720Y-78827431D01*
X148104126Y-78985000D01*
X148515874Y-78985000D01*
X148896280Y-78827431D01*
X149187431Y-78536280D01*
X149345000Y-78155874D01*
X149345000Y-77988691D01*
X154460001Y-77988691D01*
X154460001Y-78679251D01*
X154618751Y-78838001D01*
X155818001Y-78838001D01*
X155818001Y-77638751D01*
X156072001Y-77638751D01*
X156072001Y-78838001D01*
X157271251Y-78838001D01*
X157430001Y-78679251D01*
X157430001Y-77988691D01*
X157333328Y-77755302D01*
X157154699Y-77576674D01*
X156921310Y-77480001D01*
X156230751Y-77480001D01*
X156072001Y-77638751D01*
X155818001Y-77638751D01*
X155659251Y-77480001D01*
X154968692Y-77480001D01*
X154735303Y-77576674D01*
X154556674Y-77755302D01*
X154460001Y-77988691D01*
X149345000Y-77988691D01*
X149345000Y-77744126D01*
X149326722Y-77700000D01*
X151106289Y-77700000D01*
X151223720Y-77817431D01*
X151604126Y-77975000D01*
X152015874Y-77975000D01*
X152396280Y-77817431D01*
X152687431Y-77526280D01*
X152845000Y-77145874D01*
X152845000Y-76734126D01*
X152687431Y-76353720D01*
X152438712Y-76105001D01*
X154666823Y-76105001D01*
X154874376Y-76415626D01*
X155365583Y-76743840D01*
X155798745Y-76830001D01*
X156091257Y-76830001D01*
X156524419Y-76743840D01*
X157015626Y-76415626D01*
X157343840Y-75924419D01*
X157459093Y-75345001D01*
X157343840Y-74765583D01*
X157015626Y-74274376D01*
X156717240Y-74075001D01*
X157015626Y-73875626D01*
X157343840Y-73384419D01*
X157459093Y-72805001D01*
X157343840Y-72225583D01*
X157015626Y-71734376D01*
X156993968Y-71719905D01*
X157154699Y-71653328D01*
X157333328Y-71474700D01*
X157430001Y-71241311D01*
X157430001Y-70550751D01*
X157271251Y-70392001D01*
X156072001Y-70392001D01*
X156072001Y-70412001D01*
X155818001Y-70412001D01*
X155818001Y-70392001D01*
X154618751Y-70392001D01*
X154460001Y-70550751D01*
X154460001Y-71241311D01*
X154556674Y-71474700D01*
X154735303Y-71653328D01*
X154896034Y-71719905D01*
X154874376Y-71734376D01*
X154546162Y-72225583D01*
X154430909Y-72805001D01*
X154546162Y-73384419D01*
X154874376Y-73875626D01*
X155172762Y-74075001D01*
X154874376Y-74274376D01*
X154666823Y-74585001D01*
X152655240Y-74585001D01*
X152775000Y-74295874D01*
X152775000Y-73884126D01*
X152617431Y-73503720D01*
X152326280Y-73212569D01*
X151945874Y-73055000D01*
X151534126Y-73055000D01*
X151153720Y-73212569D01*
X150862569Y-73503720D01*
X150705000Y-73884126D01*
X150705000Y-74295874D01*
X150824760Y-74585001D01*
X149161188Y-74585001D01*
X152284473Y-71461716D01*
X152347929Y-71419316D01*
X152515904Y-71167924D01*
X152560000Y-70946239D01*
X152560000Y-70946235D01*
X152574888Y-70871388D01*
X152560000Y-70796541D01*
X152560000Y-69288691D01*
X154460001Y-69288691D01*
X154460001Y-69979251D01*
X154618751Y-70138001D01*
X155818001Y-70138001D01*
X155818001Y-68938751D01*
X156072001Y-68938751D01*
X156072001Y-70138001D01*
X157271251Y-70138001D01*
X157430001Y-69979251D01*
X157430001Y-69288691D01*
X157333328Y-69055302D01*
X157154699Y-68876674D01*
X156921310Y-68780001D01*
X156230751Y-68780001D01*
X156072001Y-68938751D01*
X155818001Y-68938751D01*
X155659251Y-68780001D01*
X154968692Y-68780001D01*
X154735303Y-68876674D01*
X154556674Y-69055302D01*
X154460001Y-69288691D01*
X152560000Y-69288691D01*
X152560000Y-69003711D01*
X152677431Y-68886280D01*
X152835000Y-68505874D01*
X152835000Y-68094126D01*
X152677431Y-67713720D01*
X152386280Y-67422569D01*
X152005874Y-67265000D01*
X151594126Y-67265000D01*
X151213720Y-67422569D01*
X150922569Y-67713720D01*
X150765000Y-68094126D01*
X150765000Y-68505874D01*
X150922569Y-68886280D01*
X151040001Y-69003712D01*
X151040000Y-70556585D01*
X150388977Y-71207608D01*
X150122936Y-70809449D01*
X149631729Y-70481235D01*
X149198567Y-70395074D01*
X148906055Y-70395074D01*
X148472893Y-70481235D01*
X147981686Y-70809449D01*
X147782311Y-71107835D01*
X147582936Y-70809449D01*
X147091729Y-70481235D01*
X146658567Y-70395074D01*
X146366055Y-70395074D01*
X145932893Y-70481235D01*
X145441686Y-70809449D01*
X145427215Y-70831107D01*
X145360638Y-70670376D01*
X145182010Y-70491747D01*
X144948621Y-70395074D01*
X144258061Y-70395074D01*
X144099311Y-70553824D01*
X144099311Y-71753074D01*
X144119311Y-71753074D01*
X144119311Y-72007074D01*
X144099311Y-72007074D01*
X144099311Y-73206324D01*
X144258061Y-73365074D01*
X144948621Y-73365074D01*
X145182010Y-73268401D01*
X145360638Y-73089772D01*
X145427215Y-72929041D01*
X145441686Y-72950699D01*
X145932893Y-73278913D01*
X146366055Y-73365074D01*
X146492509Y-73365074D01*
X142940000Y-76917584D01*
X142940000Y-76813711D01*
X143057431Y-76696280D01*
X143215000Y-76315874D01*
X143215000Y-75904126D01*
X143057431Y-75523720D01*
X142766280Y-75232569D01*
X142385874Y-75075000D01*
X141974126Y-75075000D01*
X141593720Y-75232569D01*
X141435001Y-75391288D01*
X141435001Y-73822002D01*
X141449889Y-73747155D01*
X141435001Y-73672308D01*
X141435001Y-73672304D01*
X141390905Y-73450619D01*
X141269151Y-73268401D01*
X141265330Y-73262682D01*
X141265328Y-73262680D01*
X141222930Y-73199227D01*
X141159476Y-73156828D01*
X141004327Y-73001680D01*
X141080625Y-72950699D01*
X141408839Y-72459492D01*
X141467252Y-72165824D01*
X142487311Y-72165824D01*
X142487311Y-72856383D01*
X142583984Y-73089772D01*
X142762612Y-73268401D01*
X142996001Y-73365074D01*
X143686561Y-73365074D01*
X143845311Y-73206324D01*
X143845311Y-72007074D01*
X142646061Y-72007074D01*
X142487311Y-72165824D01*
X141467252Y-72165824D01*
X141524092Y-71880074D01*
X141408839Y-71300656D01*
X141143645Y-70903765D01*
X142487311Y-70903765D01*
X142487311Y-71594324D01*
X142646061Y-71753074D01*
X143845311Y-71753074D01*
X143845311Y-70553824D01*
X143686561Y-70395074D01*
X142996001Y-70395074D01*
X142762612Y-70491747D01*
X142583984Y-70670376D01*
X142487311Y-70903765D01*
X141143645Y-70903765D01*
X141080625Y-70809449D01*
X140589418Y-70481235D01*
X140156256Y-70395074D01*
X139863744Y-70395074D01*
X139430582Y-70481235D01*
X138939375Y-70809449D01*
X138740000Y-71107835D01*
X138540625Y-70809449D01*
X138049418Y-70481235D01*
X137616256Y-70395074D01*
X137323744Y-70395074D01*
X136890582Y-70481235D01*
X136399375Y-70809449D01*
X136384904Y-70831107D01*
X136318327Y-70670376D01*
X136139699Y-70491747D01*
X135906310Y-70395074D01*
X135215750Y-70395074D01*
X135057000Y-70553824D01*
X135057000Y-71753074D01*
X135077000Y-71753074D01*
X135077000Y-72007074D01*
X135057000Y-72007074D01*
X135057000Y-73206324D01*
X135215750Y-73365074D01*
X135906310Y-73365074D01*
X136139699Y-73268401D01*
X136318327Y-73089772D01*
X136384904Y-72929041D01*
X136399375Y-72950699D01*
X136890582Y-73278913D01*
X137323744Y-73365074D01*
X137616256Y-73365074D01*
X138049418Y-73278913D01*
X138540625Y-72950699D01*
X138740000Y-72652313D01*
X138939375Y-72950699D01*
X139250286Y-73158443D01*
X139294096Y-73378691D01*
X139462071Y-73630084D01*
X139525529Y-73672485D01*
X139915002Y-74061959D01*
X139915001Y-81995000D01*
X139744126Y-81995000D01*
X139363720Y-82152569D01*
X139072569Y-82443720D01*
X138915000Y-82824126D01*
X138915000Y-83235874D01*
X139072569Y-83616280D01*
X139363720Y-83907431D01*
X139744126Y-84065000D01*
X139915001Y-84065000D01*
X139915001Y-85104514D01*
X135150000Y-80339514D01*
X135150000Y-79047945D01*
X135302569Y-79416280D01*
X135593720Y-79707431D01*
X135974126Y-79865000D01*
X136385874Y-79865000D01*
X136766280Y-79707431D01*
X137057431Y-79416280D01*
X137215000Y-79035874D01*
X137215000Y-78624126D01*
X137198432Y-78584126D01*
X137665000Y-78584126D01*
X137665000Y-78995874D01*
X137822569Y-79376280D01*
X138113720Y-79667431D01*
X138494126Y-79825000D01*
X138905874Y-79825000D01*
X139286280Y-79667431D01*
X139577431Y-79376280D01*
X139735000Y-78995874D01*
X139735000Y-78584126D01*
X139577431Y-78203720D01*
X139286280Y-77912569D01*
X138905874Y-77755000D01*
X138494126Y-77755000D01*
X138113720Y-77912569D01*
X137822569Y-78203720D01*
X137665000Y-78584126D01*
X137198432Y-78584126D01*
X137057431Y-78243720D01*
X136766280Y-77952569D01*
X136385874Y-77795000D01*
X135974126Y-77795000D01*
X135593720Y-77952569D01*
X135302569Y-78243720D01*
X135150000Y-78612055D01*
X135150000Y-78083711D01*
X135267431Y-77966280D01*
X135425000Y-77585874D01*
X135425000Y-77174126D01*
X135267431Y-76793720D01*
X134976280Y-76502569D01*
X134595874Y-76345000D01*
X134184126Y-76345000D01*
X133803720Y-76502569D01*
X133512569Y-76793720D01*
X133355000Y-77174126D01*
X133355000Y-77585874D01*
X133512569Y-77966280D01*
X133630001Y-78083712D01*
X133630000Y-80005199D01*
X132040000Y-78415199D01*
X132040000Y-75914126D01*
X137795000Y-75914126D01*
X137795000Y-76325874D01*
X137952569Y-76706280D01*
X138243720Y-76997431D01*
X138624126Y-77155000D01*
X139035874Y-77155000D01*
X139416280Y-76997431D01*
X139707431Y-76706280D01*
X139865000Y-76325874D01*
X139865000Y-75914126D01*
X139707431Y-75533720D01*
X139416280Y-75242569D01*
X139035874Y-75085000D01*
X138624126Y-75085000D01*
X138243720Y-75242569D01*
X137952569Y-75533720D01*
X137795000Y-75914126D01*
X132040000Y-75914126D01*
X132040000Y-73158252D01*
X132350625Y-72950699D01*
X132678839Y-72459492D01*
X132737252Y-72165824D01*
X133445000Y-72165824D01*
X133445000Y-72856383D01*
X133541673Y-73089772D01*
X133720301Y-73268401D01*
X133953690Y-73365074D01*
X134644250Y-73365074D01*
X134803000Y-73206324D01*
X134803000Y-72007074D01*
X133603750Y-72007074D01*
X133445000Y-72165824D01*
X132737252Y-72165824D01*
X132794092Y-71880074D01*
X132678839Y-71300656D01*
X132413645Y-70903765D01*
X133445000Y-70903765D01*
X133445000Y-71594324D01*
X133603750Y-71753074D01*
X134803000Y-71753074D01*
X134803000Y-70553824D01*
X134644250Y-70395074D01*
X133953690Y-70395074D01*
X133720301Y-70491747D01*
X133541673Y-70670376D01*
X133445000Y-70903765D01*
X132413645Y-70903765D01*
X132350625Y-70809449D01*
X131859418Y-70481235D01*
X131426256Y-70395074D01*
X131133744Y-70395074D01*
X130700582Y-70481235D01*
X130209375Y-70809449D01*
X130010000Y-71107835D01*
X129810625Y-70809449D01*
X129319418Y-70481235D01*
X128886256Y-70395074D01*
X128593744Y-70395074D01*
X128160582Y-70481235D01*
X127669375Y-70809449D01*
X127654904Y-70831107D01*
X127588327Y-70670376D01*
X127409699Y-70491747D01*
X127176310Y-70395074D01*
X126485750Y-70395074D01*
X126327000Y-70553824D01*
X126327000Y-71753074D01*
X126347000Y-71753074D01*
X126347000Y-72007074D01*
X126327000Y-72007074D01*
X126327000Y-73206324D01*
X126485750Y-73365074D01*
X127176310Y-73365074D01*
X127409699Y-73268401D01*
X127588327Y-73089772D01*
X127654904Y-72929041D01*
X127669375Y-72950699D01*
X128160582Y-73278913D01*
X128593744Y-73365074D01*
X128886256Y-73365074D01*
X129319418Y-73278913D01*
X129810625Y-72950699D01*
X130010000Y-72652313D01*
X130209375Y-72950699D01*
X130520001Y-73158253D01*
X130520001Y-75182983D01*
X130355874Y-75115000D01*
X129944126Y-75115000D01*
X129563720Y-75272569D01*
X129272569Y-75563720D01*
X129115000Y-75944126D01*
X129115000Y-76355874D01*
X129272569Y-76736280D01*
X129563720Y-77027431D01*
X129944126Y-77185000D01*
X130355874Y-77185000D01*
X130520000Y-77117017D01*
X130520000Y-78655153D01*
X130505112Y-78730000D01*
X130520000Y-78804847D01*
X130520000Y-78804851D01*
X130564096Y-79026536D01*
X130732071Y-79277929D01*
X130795530Y-79320331D01*
X132265199Y-80790000D01*
X128565000Y-80790000D01*
X128565000Y-80524126D01*
X128407431Y-80143720D01*
X128116280Y-79852569D01*
X127735874Y-79695000D01*
X127405464Y-79695000D01*
X127472927Y-79512532D01*
X126500000Y-78539605D01*
X126485858Y-78553748D01*
X126306253Y-78374143D01*
X126320395Y-78360000D01*
X126679605Y-78360000D01*
X127652532Y-79332927D01*
X127919387Y-79234264D01*
X128145908Y-78624539D01*
X128121856Y-77974540D01*
X127919387Y-77485736D01*
X127652532Y-77387073D01*
X126679605Y-78360000D01*
X126320395Y-78360000D01*
X125347468Y-77387073D01*
X125170000Y-77452687D01*
X125170000Y-77207468D01*
X125527073Y-77207468D01*
X126500000Y-78180395D01*
X127472927Y-77207468D01*
X127374264Y-76940613D01*
X126764539Y-76714092D01*
X126114540Y-76738144D01*
X125625736Y-76940613D01*
X125527073Y-77207468D01*
X125170000Y-77207468D01*
X125170000Y-76833711D01*
X125287431Y-76716280D01*
X125445000Y-76335874D01*
X125445000Y-75924126D01*
X125287431Y-75543720D01*
X124996280Y-75252569D01*
X124615874Y-75095000D01*
X124204126Y-75095000D01*
X123823720Y-75252569D01*
X123532569Y-75543720D01*
X123375000Y-75924126D01*
X123375000Y-76335874D01*
X123532569Y-76716280D01*
X123650001Y-76833712D01*
X123650000Y-79115153D01*
X123635112Y-79190000D01*
X123650000Y-79264847D01*
X123650000Y-79264851D01*
X123694096Y-79486536D01*
X123862071Y-79737929D01*
X123925530Y-79780331D01*
X125605854Y-81460656D01*
X125573847Y-81473914D01*
X125113914Y-81933847D01*
X124889479Y-82475680D01*
X123310000Y-80896201D01*
X123310000Y-73158252D01*
X123620625Y-72950699D01*
X123948839Y-72459492D01*
X124007252Y-72165824D01*
X124715000Y-72165824D01*
X124715000Y-72856383D01*
X124811673Y-73089772D01*
X124990301Y-73268401D01*
X125223690Y-73365074D01*
X125914250Y-73365074D01*
X126073000Y-73206324D01*
X126073000Y-72007074D01*
X124873750Y-72007074D01*
X124715000Y-72165824D01*
X124007252Y-72165824D01*
X124064092Y-71880074D01*
X123948839Y-71300656D01*
X123683645Y-70903765D01*
X124715000Y-70903765D01*
X124715000Y-71594324D01*
X124873750Y-71753074D01*
X126073000Y-71753074D01*
X126073000Y-70553824D01*
X125914250Y-70395074D01*
X125223690Y-70395074D01*
X124990301Y-70491747D01*
X124811673Y-70670376D01*
X124715000Y-70903765D01*
X123683645Y-70903765D01*
X123620625Y-70809449D01*
X123129418Y-70481235D01*
X122696256Y-70395074D01*
X122403744Y-70395074D01*
X121970582Y-70481235D01*
X121479375Y-70809449D01*
X121280000Y-71107835D01*
X121080625Y-70809449D01*
X120589418Y-70481235D01*
X120156256Y-70395074D01*
X119863744Y-70395074D01*
X119430582Y-70481235D01*
X118939375Y-70809449D01*
X118924904Y-70831107D01*
X118858327Y-70670376D01*
X118679699Y-70491747D01*
X118446310Y-70395074D01*
X117755750Y-70395074D01*
X117597000Y-70553824D01*
X117597000Y-71753074D01*
X117617000Y-71753074D01*
X117617000Y-72007074D01*
X117597000Y-72007074D01*
X117597000Y-73206324D01*
X117755750Y-73365074D01*
X118446310Y-73365074D01*
X118679699Y-73268401D01*
X118858327Y-73089772D01*
X118924904Y-72929041D01*
X118939375Y-72950699D01*
X119430582Y-73278913D01*
X119863744Y-73365074D01*
X120156256Y-73365074D01*
X120589418Y-73278913D01*
X121080625Y-72950699D01*
X121280000Y-72652313D01*
X121479375Y-72950699D01*
X121790001Y-73158253D01*
X121790001Y-75173400D01*
X121455874Y-75035000D01*
X121044126Y-75035000D01*
X120663720Y-75192569D01*
X120372569Y-75483720D01*
X120215000Y-75864126D01*
X120215000Y-76275874D01*
X120372569Y-76656280D01*
X120528414Y-76812125D01*
X120264539Y-76714092D01*
X119614540Y-76738144D01*
X119125736Y-76940613D01*
X119027073Y-77207468D01*
X120000000Y-78180395D01*
X120972927Y-77207468D01*
X120915315Y-77051645D01*
X121044126Y-77105000D01*
X121455874Y-77105000D01*
X121790001Y-76966601D01*
X121790000Y-80590000D01*
X119483711Y-80590000D01*
X119366280Y-80472569D01*
X118985874Y-80315000D01*
X118574126Y-80315000D01*
X118193720Y-80472569D01*
X117902569Y-80763720D01*
X117745000Y-81144126D01*
X117745000Y-81555874D01*
X117902569Y-81936280D01*
X118193720Y-82227431D01*
X118448580Y-82332997D01*
X118365000Y-82534778D01*
X118365000Y-83141289D01*
X118096280Y-82872569D01*
X117715874Y-82715000D01*
X117304126Y-82715000D01*
X116923720Y-82872569D01*
X116632569Y-83163720D01*
X116475000Y-83544126D01*
X115146627Y-83544126D01*
X115147366Y-79512532D01*
X119027073Y-79512532D01*
X119125736Y-79779387D01*
X119735461Y-80005908D01*
X120385460Y-79981856D01*
X120874264Y-79779387D01*
X120972927Y-79512532D01*
X120000000Y-78539605D01*
X119027073Y-79512532D01*
X115147366Y-79512532D01*
X115147626Y-78095461D01*
X118354092Y-78095461D01*
X118378144Y-78745460D01*
X118580613Y-79234264D01*
X118847468Y-79332927D01*
X119820395Y-78360000D01*
X120179605Y-78360000D01*
X121152532Y-79332927D01*
X121419387Y-79234264D01*
X121645908Y-78624539D01*
X121621856Y-77974540D01*
X121419387Y-77485736D01*
X121152532Y-77387073D01*
X120179605Y-78360000D01*
X119820395Y-78360000D01*
X118847468Y-77387073D01*
X118580613Y-77485736D01*
X118354092Y-78095461D01*
X115147626Y-78095461D01*
X115148714Y-72165824D01*
X115985000Y-72165824D01*
X115985000Y-72856383D01*
X116081673Y-73089772D01*
X116260301Y-73268401D01*
X116493690Y-73365074D01*
X117184250Y-73365074D01*
X117343000Y-73206324D01*
X117343000Y-72007074D01*
X116143750Y-72007074D01*
X115985000Y-72165824D01*
X115148714Y-72165824D01*
X115148945Y-70903765D01*
X115985000Y-70903765D01*
X115985000Y-71594324D01*
X116143750Y-71753074D01*
X117343000Y-71753074D01*
X117343000Y-70553824D01*
X117184250Y-70395074D01*
X116493690Y-70395074D01*
X116260301Y-70491747D01*
X116081673Y-70670376D01*
X115985000Y-70903765D01*
X115148945Y-70903765D01*
X115149991Y-65206055D01*
X115217917Y-64537342D01*
X115362756Y-64075159D01*
X162625000Y-64075159D01*
X162625000Y-64864841D01*
X162927199Y-65594412D01*
X163485588Y-66152801D01*
X164215159Y-66455000D01*
X165004841Y-66455000D01*
X165734412Y-66152801D01*
X166292801Y-65594412D01*
X166595000Y-64864841D01*
X166595000Y-64075159D01*
X166292801Y-63345588D01*
X165734412Y-62787199D01*
X165004841Y-62485000D01*
X164215159Y-62485000D01*
X163485588Y-62787199D01*
X162927199Y-63345588D01*
X162625000Y-64075159D01*
X115362756Y-64075159D01*
X115408083Y-63930521D01*
X115716381Y-63374336D01*
X116130217Y-62891505D01*
X116632689Y-62501748D01*
X117203275Y-62220985D01*
X117827126Y-62058484D01*
X118327580Y-62019976D01*
X164414426Y-61980040D01*
X165082658Y-62047917D01*
X165082658Y-62047917D01*
G37*
X165082658Y-62047917D02*
X165689479Y-62238083D01*
X166245664Y-62546381D01*
X166728495Y-62960217D01*
X167118252Y-63462689D01*
X167399015Y-64033275D01*
X167561516Y-64657126D01*
X167599981Y-65157017D01*
X167560056Y-119653485D01*
X167492083Y-120322658D01*
X167301917Y-120929479D01*
X166993619Y-121485664D01*
X166579783Y-121968495D01*
X166077311Y-122358252D01*
X165506725Y-122639015D01*
X164882879Y-122801515D01*
X164382539Y-122840015D01*
X118325896Y-122849993D01*
X117657342Y-122782083D01*
X117050521Y-122591917D01*
X116494336Y-122283619D01*
X116011505Y-121869783D01*
X115621748Y-121367311D01*
X115340985Y-120796725D01*
X115178485Y-120172879D01*
X115140001Y-119672746D01*
X115140154Y-118835159D01*
X129045000Y-118835159D01*
X129045000Y-119624841D01*
X129347199Y-120354412D01*
X129905588Y-120912801D01*
X130635159Y-121215000D01*
X131424841Y-121215000D01*
X132154412Y-120912801D01*
X132240213Y-120827000D01*
X139805000Y-120827000D01*
X139805000Y-121152000D01*
X139945707Y-121605380D01*
X140249204Y-121970402D01*
X140669286Y-122191495D01*
X140701323Y-122193635D01*
X140888000Y-122068550D01*
X140888000Y-120827000D01*
X141142000Y-120827000D01*
X141142000Y-122068550D01*
X141328677Y-122193635D01*
X141360714Y-122191495D01*
X141780796Y-121970402D01*
X142084293Y-121605380D01*
X142225000Y-121152000D01*
X142225000Y-120827000D01*
X147555000Y-120827000D01*
X147555000Y-121152000D01*
X147695707Y-121605380D01*
X147999204Y-121970402D01*
X148419286Y-122191495D01*
X148451323Y-122193635D01*
X148638000Y-122068550D01*
X148638000Y-120827000D01*
X148892000Y-120827000D01*
X148892000Y-122068550D01*
X149078677Y-122193635D01*
X149110714Y-122191495D01*
X149530796Y-121970402D01*
X149834293Y-121605380D01*
X149975000Y-121152000D01*
X149975000Y-120827000D01*
X148892000Y-120827000D01*
X148638000Y-120827000D01*
X147555000Y-120827000D01*
X142225000Y-120827000D01*
X141142000Y-120827000D01*
X140888000Y-120827000D01*
X139805000Y-120827000D01*
X132240213Y-120827000D01*
X132712801Y-120354412D01*
X132756878Y-120248000D01*
X139805000Y-120248000D01*
X139805000Y-120573000D01*
X140888000Y-120573000D01*
X140888000Y-119331450D01*
X141142000Y-119331450D01*
X141142000Y-120573000D01*
X142225000Y-120573000D01*
X142225000Y-120248000D01*
X147555000Y-120248000D01*
X147555000Y-120573000D01*
X148638000Y-120573000D01*
X148638000Y-119331450D01*
X148892000Y-119331450D01*
X148892000Y-120573000D01*
X149975000Y-120573000D01*
X149975000Y-120248000D01*
X149834293Y-119794620D01*
X149530796Y-119429598D01*
X149110714Y-119208505D01*
X149078677Y-119206365D01*
X148892000Y-119331450D01*
X148638000Y-119331450D01*
X148451323Y-119206365D01*
X148419286Y-119208505D01*
X147999204Y-119429598D01*
X147695707Y-119794620D01*
X147555000Y-120248000D01*
X142225000Y-120248000D01*
X142084293Y-119794620D01*
X141780796Y-119429598D01*
X141360714Y-119208505D01*
X141328677Y-119206365D01*
X141142000Y-119331450D01*
X140888000Y-119331450D01*
X140701323Y-119206365D01*
X140669286Y-119208505D01*
X140249204Y-119429598D01*
X139945707Y-119794620D01*
X139805000Y-120248000D01*
X132756878Y-120248000D01*
X133015000Y-119624841D01*
X133015000Y-118835159D01*
X132712801Y-118105588D01*
X132154412Y-117547199D01*
X131424841Y-117245000D01*
X130635159Y-117245000D01*
X129905588Y-117547199D01*
X129347199Y-118105588D01*
X129045000Y-118835159D01*
X115140154Y-118835159D01*
X115140485Y-117027000D01*
X139805000Y-117027000D01*
X139805000Y-117302000D01*
X139957125Y-117812782D01*
X140293138Y-118226467D01*
X140761884Y-118480076D01*
X140827742Y-118492519D01*
X141038000Y-118369518D01*
X141038000Y-117027000D01*
X141292000Y-117027000D01*
X141292000Y-118369518D01*
X141502258Y-118492519D01*
X141507105Y-118491603D01*
X141643807Y-118696193D01*
X141986163Y-118924948D01*
X142288065Y-118985000D01*
X142491935Y-118985000D01*
X142793837Y-118924948D01*
X143136193Y-118696193D01*
X143364948Y-118353837D01*
X143445276Y-117950000D01*
X146334724Y-117950000D01*
X146415052Y-118353837D01*
X146643807Y-118696193D01*
X146986163Y-118924948D01*
X147288065Y-118985000D01*
X147491935Y-118985000D01*
X147793837Y-118924948D01*
X148136193Y-118696193D01*
X148272895Y-118491603D01*
X148277742Y-118492519D01*
X148488000Y-118369518D01*
X148488000Y-117027000D01*
X148742000Y-117027000D01*
X148742000Y-118369518D01*
X148952258Y-118492519D01*
X149018116Y-118480076D01*
X149486862Y-118226467D01*
X149822875Y-117812782D01*
X149975000Y-117302000D01*
X149975000Y-117027000D01*
X148742000Y-117027000D01*
X148488000Y-117027000D01*
X147871583Y-117027000D01*
X147793837Y-116975052D01*
X147491935Y-116915000D01*
X147288065Y-116915000D01*
X146986163Y-116975052D01*
X146643807Y-117203807D01*
X146415052Y-117546163D01*
X146334724Y-117950000D01*
X143445276Y-117950000D01*
X143364948Y-117546163D01*
X143136193Y-117203807D01*
X142793837Y-116975052D01*
X142491935Y-116915000D01*
X142288065Y-116915000D01*
X141986163Y-116975052D01*
X141908417Y-117027000D01*
X141292000Y-117027000D01*
X141038000Y-117027000D01*
X139805000Y-117027000D01*
X115140485Y-117027000D01*
X115140582Y-116498000D01*
X139805000Y-116498000D01*
X139805000Y-116773000D01*
X141038000Y-116773000D01*
X141038000Y-115430482D01*
X141292000Y-115430482D01*
X141292000Y-116773000D01*
X142525000Y-116773000D01*
X142525000Y-116498000D01*
X147255000Y-116498000D01*
X147255000Y-116773000D01*
X148488000Y-116773000D01*
X148488000Y-115430482D01*
X148742000Y-115430482D01*
X148742000Y-116773000D01*
X149975000Y-116773000D01*
X149975000Y-116498000D01*
X149822875Y-115987218D01*
X149486862Y-115573533D01*
X149018116Y-115319924D01*
X148952258Y-115307481D01*
X148742000Y-115430482D01*
X148488000Y-115430482D01*
X148277742Y-115307481D01*
X148211884Y-115319924D01*
X147743138Y-115573533D01*
X147407125Y-115987218D01*
X147255000Y-116498000D01*
X142525000Y-116498000D01*
X142372875Y-115987218D01*
X142036862Y-115573533D01*
X141568116Y-115319924D01*
X141502258Y-115307481D01*
X141292000Y-115430482D01*
X141038000Y-115430482D01*
X140827742Y-115307481D01*
X140761884Y-115319924D01*
X140293138Y-115573533D01*
X139957125Y-115987218D01*
X139805000Y-116498000D01*
X115140582Y-116498000D01*
X115141463Y-111698970D01*
X115405000Y-111698970D01*
X115405000Y-113521031D01*
X115499865Y-113997945D01*
X115861232Y-114538769D01*
X116402056Y-114900136D01*
X117040000Y-115027031D01*
X117677945Y-114900136D01*
X118218769Y-114538769D01*
X118580136Y-113997945D01*
X118675000Y-113521031D01*
X118675000Y-111990434D01*
X119299876Y-111990434D01*
X119330856Y-112118355D01*
X119644078Y-112676317D01*
X120146980Y-113071942D01*
X120763000Y-113245000D01*
X121085566Y-113245000D01*
X120727138Y-113393466D01*
X120323466Y-113797138D01*
X120105000Y-114324561D01*
X120105000Y-114895439D01*
X120323466Y-115422862D01*
X120727138Y-115826534D01*
X121254561Y-116045000D01*
X121825439Y-116045000D01*
X122352862Y-115826534D01*
X122756534Y-115422862D01*
X122975000Y-114895439D01*
X122975000Y-114324561D01*
X122756534Y-113797138D01*
X122352862Y-113393466D01*
X121994434Y-113245000D01*
X122317000Y-113245000D01*
X122933020Y-113071942D01*
X123435922Y-112676317D01*
X123749144Y-112118355D01*
X123780124Y-111990434D01*
X123660777Y-111737000D01*
X121667000Y-111737000D01*
X121667000Y-111757000D01*
X121413000Y-111757000D01*
X121413000Y-111737000D01*
X119419223Y-111737000D01*
X119299876Y-111990434D01*
X118675000Y-111990434D01*
X118675000Y-111698970D01*
X124405000Y-111698970D01*
X124405000Y-113521031D01*
X124499865Y-113997945D01*
X124861232Y-114538769D01*
X125402056Y-114900136D01*
X126040000Y-115027031D01*
X126677945Y-114900136D01*
X127218769Y-114538769D01*
X127580136Y-113997945D01*
X127675000Y-113521031D01*
X127675000Y-111698969D01*
X127580136Y-111222055D01*
X127218769Y-110681231D01*
X126677944Y-110319864D01*
X126040000Y-110192969D01*
X125402055Y-110319864D01*
X124861231Y-110681231D01*
X124499864Y-111222056D01*
X124405000Y-111698970D01*
X118675000Y-111698970D01*
X118675000Y-111698969D01*
X118581631Y-111229566D01*
X119299876Y-111229566D01*
X119419223Y-111483000D01*
X121413000Y-111483000D01*
X121413000Y-109975000D01*
X121667000Y-109975000D01*
X121667000Y-111483000D01*
X123660777Y-111483000D01*
X123780124Y-111229566D01*
X123749144Y-111101645D01*
X123435922Y-110543683D01*
X122933020Y-110148058D01*
X122317000Y-109975000D01*
X121667000Y-109975000D01*
X121413000Y-109975000D01*
X120763000Y-109975000D01*
X120146980Y-110148058D01*
X119644078Y-110543683D01*
X119330856Y-111101645D01*
X119299876Y-111229566D01*
X118581631Y-111229566D01*
X118580136Y-111222055D01*
X118218769Y-110681231D01*
X117677944Y-110319864D01*
X117040000Y-110192969D01*
X116402055Y-110319864D01*
X115861231Y-110681231D01*
X115499864Y-111222056D01*
X115405000Y-111698970D01*
X115141463Y-111698970D01*
X115142180Y-107784126D01*
X126085000Y-107784126D01*
X126085000Y-108195874D01*
X126242569Y-108576280D01*
X126533720Y-108867431D01*
X126914126Y-109025000D01*
X127325874Y-109025000D01*
X127706280Y-108867431D01*
X127997431Y-108576280D01*
X128155000Y-108195874D01*
X128155000Y-107784126D01*
X127997431Y-107403720D01*
X127706280Y-107112569D01*
X127325874Y-106955000D01*
X126914126Y-106955000D01*
X126533720Y-107112569D01*
X126242569Y-107403720D01*
X126085000Y-107784126D01*
X115142180Y-107784126D01*
X115142763Y-104610000D01*
X118892560Y-104610000D01*
X118892560Y-106610000D01*
X118941843Y-106857765D01*
X119082191Y-107067809D01*
X119292235Y-107208157D01*
X119540000Y-107257440D01*
X123540000Y-107257440D01*
X123787765Y-107208157D01*
X123997809Y-107067809D01*
X124138157Y-106857765D01*
X124187440Y-106610000D01*
X124187440Y-104610000D01*
X124138157Y-104362235D01*
X123997809Y-104152191D01*
X123787765Y-104011843D01*
X123540000Y-103962560D01*
X119540000Y-103962560D01*
X119292235Y-104011843D01*
X119082191Y-104152191D01*
X118941843Y-104362235D01*
X118892560Y-104610000D01*
X115142763Y-104610000D01*
X115143147Y-102514126D01*
X128775000Y-102514126D01*
X128775000Y-102925874D01*
X128932569Y-103306280D01*
X129223720Y-103597431D01*
X129604126Y-103755000D01*
X130015874Y-103755000D01*
X130396280Y-103597431D01*
X130687431Y-103306280D01*
X130845000Y-102925874D01*
X130845000Y-102514126D01*
X130687431Y-102133720D01*
X130396280Y-101842569D01*
X130015874Y-101685000D01*
X129604126Y-101685000D01*
X129223720Y-101842569D01*
X128932569Y-102133720D01*
X128775000Y-102514126D01*
X115143147Y-102514126D01*
X115144854Y-93205159D01*
X124545000Y-93205159D01*
X124545000Y-93994841D01*
X124847199Y-94724412D01*
X125405588Y-95282801D01*
X126135159Y-95585000D01*
X126924841Y-95585000D01*
X127654412Y-95282801D01*
X128212801Y-94724412D01*
X128515000Y-93994841D01*
X128515000Y-93205159D01*
X128212801Y-92475588D01*
X127654412Y-91917199D01*
X126924841Y-91615000D01*
X126135159Y-91615000D01*
X125405588Y-91917199D01*
X124847199Y-92475588D01*
X124545000Y-93205159D01*
X115144854Y-93205159D01*
X115146627Y-83544126D01*
X116475000Y-83544126D01*
X116475000Y-83955874D01*
X116632569Y-84336280D01*
X116923720Y-84627431D01*
X117304126Y-84785000D01*
X117715874Y-84785000D01*
X118096280Y-84627431D01*
X118387431Y-84336280D01*
X118545000Y-83955874D01*
X118545000Y-83619780D01*
X118613914Y-83786153D01*
X119073847Y-84246086D01*
X119674778Y-84495000D01*
X120325222Y-84495000D01*
X120926153Y-84246086D01*
X121386086Y-83786153D01*
X121635000Y-83185222D01*
X121635000Y-82534778D01*
X121459051Y-82110000D01*
X121737787Y-82110000D01*
X124732971Y-85105184D01*
X124473720Y-85212569D01*
X124182569Y-85503720D01*
X124025000Y-85884126D01*
X124025000Y-86295874D01*
X124182569Y-86676280D01*
X124473720Y-86967431D01*
X124854126Y-87125000D01*
X125265874Y-87125000D01*
X125646280Y-86967431D01*
X125937431Y-86676280D01*
X126044816Y-86417029D01*
X129387260Y-89759474D01*
X129429660Y-89822930D01*
X129681052Y-89990905D01*
X129902737Y-90035001D01*
X129902742Y-90035001D01*
X129977589Y-90049889D01*
X130052436Y-90035001D01*
X130319270Y-90035001D01*
X130083720Y-90132569D01*
X129792569Y-90423720D01*
X129635000Y-90804126D01*
X129635000Y-91215874D01*
X129792569Y-91596280D01*
X130083720Y-91887431D01*
X130464126Y-92045000D01*
X130875874Y-92045000D01*
X131256280Y-91887431D01*
X131547431Y-91596280D01*
X131705000Y-91215874D01*
X131705000Y-90804126D01*
X131547431Y-90423720D01*
X131256280Y-90132569D01*
X131020730Y-90035001D01*
X136234467Y-90035001D01*
X136309314Y-90049889D01*
X136384161Y-90035001D01*
X136384166Y-90035001D01*
X136605851Y-89990905D01*
X136857243Y-89822930D01*
X136899645Y-89759471D01*
X137527845Y-89131272D01*
X137754126Y-89225000D01*
X138165874Y-89225000D01*
X138546280Y-89067431D01*
X138837431Y-88776280D01*
X138862367Y-88716078D01*
X139113720Y-88967431D01*
X139494126Y-89125000D01*
X139905874Y-89125000D01*
X139915001Y-89121219D01*
X139915001Y-89240197D01*
X139650198Y-89505000D01*
X139484126Y-89505000D01*
X139103720Y-89662569D01*
X138812569Y-89953720D01*
X138655000Y-90334126D01*
X138655000Y-90745874D01*
X138812569Y-91126280D01*
X139103720Y-91417431D01*
X139484126Y-91575000D01*
X139895874Y-91575000D01*
X140276280Y-91417431D01*
X140555000Y-91138711D01*
X140555000Y-91195874D01*
X140712569Y-91576280D01*
X141003720Y-91867431D01*
X141384126Y-92025000D01*
X141795874Y-92025000D01*
X142176280Y-91867431D01*
X142467431Y-91576280D01*
X142625000Y-91195874D01*
X142625000Y-90784126D01*
X142531272Y-90557845D01*
X142764476Y-90324642D01*
X142827929Y-90282244D01*
X142870327Y-90218791D01*
X142870329Y-90218789D01*
X142990144Y-90039472D01*
X142995904Y-90030852D01*
X143040000Y-89809167D01*
X143040000Y-89809163D01*
X143054888Y-89734316D01*
X143040000Y-89659469D01*
X143040000Y-89643711D01*
X143313720Y-89917431D01*
X143694126Y-90075000D01*
X143932771Y-90075000D01*
X143864096Y-90177778D01*
X143835686Y-90320603D01*
X143702569Y-90453720D01*
X143545000Y-90834126D01*
X143545000Y-91245874D01*
X143702569Y-91626280D01*
X143993720Y-91917431D01*
X144313771Y-92050000D01*
X136291084Y-92050000D01*
X136269397Y-92045686D01*
X136136280Y-91912569D01*
X135755874Y-91755000D01*
X135344126Y-91755000D01*
X134963720Y-91912569D01*
X134672569Y-92203720D01*
X134515000Y-92584126D01*
X134515000Y-92995874D01*
X134672569Y-93376280D01*
X134963720Y-93667431D01*
X135344126Y-93825000D01*
X135755874Y-93825000D01*
X136136280Y-93667431D01*
X136233711Y-93570000D01*
X144371683Y-93570000D01*
X144225000Y-93924126D01*
X144225000Y-94335874D01*
X144382569Y-94716280D01*
X144515686Y-94849397D01*
X144544096Y-94992222D01*
X144555497Y-95009285D01*
X144233720Y-95142569D01*
X143942569Y-95433720D01*
X143785000Y-95814126D01*
X143785000Y-95980198D01*
X129780199Y-109985000D01*
X129643744Y-109985000D01*
X129210582Y-110071161D01*
X128719375Y-110399375D01*
X128391161Y-110890582D01*
X128275908Y-111470000D01*
X128391161Y-112049418D01*
X128719375Y-112540625D01*
X129210582Y-112868839D01*
X129643744Y-112955000D01*
X129936256Y-112955000D01*
X130369418Y-112868839D01*
X130860625Y-112540625D01*
X131060000Y-112242239D01*
X131259375Y-112540625D01*
X131750582Y-112868839D01*
X132183744Y-112955000D01*
X132476256Y-112955000D01*
X132909418Y-112868839D01*
X133400625Y-112540625D01*
X133600000Y-112242239D01*
X133799375Y-112540625D01*
X134290582Y-112868839D01*
X134723744Y-112955000D01*
X135016256Y-112955000D01*
X135449418Y-112868839D01*
X135940625Y-112540625D01*
X136153843Y-112221522D01*
X136214817Y-112351358D01*
X136643076Y-112741645D01*
X137053110Y-112911476D01*
X137283000Y-112790155D01*
X137283000Y-111597000D01*
X137263000Y-111597000D01*
X137263000Y-111343000D01*
X137283000Y-111343000D01*
X137283000Y-110149845D01*
X137537000Y-110149845D01*
X137537000Y-111343000D01*
X137557000Y-111343000D01*
X137557000Y-111597000D01*
X137537000Y-111597000D01*
X137537000Y-112790155D01*
X137766890Y-112911476D01*
X138176924Y-112741645D01*
X138605183Y-112351358D01*
X138666157Y-112221522D01*
X138879375Y-112540625D01*
X139370582Y-112868839D01*
X139803744Y-112955000D01*
X140096256Y-112955000D01*
X140529418Y-112868839D01*
X141020625Y-112540625D01*
X141032816Y-112522381D01*
X141041843Y-112567765D01*
X141182191Y-112777809D01*
X141392235Y-112918157D01*
X141640000Y-112967440D01*
X143340000Y-112967440D01*
X143587765Y-112918157D01*
X143797809Y-112777809D01*
X143938157Y-112567765D01*
X143987440Y-112320000D01*
X143987440Y-110620000D01*
X143938157Y-110372235D01*
X143797809Y-110162191D01*
X143587765Y-110021843D01*
X143340000Y-109972560D01*
X141640000Y-109972560D01*
X141392235Y-110021843D01*
X141182191Y-110162191D01*
X141041843Y-110372235D01*
X141032816Y-110417619D01*
X141020625Y-110399375D01*
X140710000Y-110191822D01*
X140710000Y-110024801D01*
X145070675Y-105664126D01*
X146255000Y-105664126D01*
X146255000Y-106075874D01*
X146412569Y-106456280D01*
X146703720Y-106747431D01*
X147084126Y-106905000D01*
X147495874Y-106905000D01*
X147522126Y-106894126D01*
X149555000Y-106894126D01*
X149555000Y-107305874D01*
X149712569Y-107686280D01*
X150003720Y-107977431D01*
X150230001Y-108071159D01*
X150230001Y-108470873D01*
X150387570Y-108851279D01*
X150505001Y-108968710D01*
X150505002Y-114300149D01*
X150490113Y-114375001D01*
X150505002Y-114449853D01*
X150549098Y-114671538D01*
X150717073Y-114922930D01*
X150780529Y-114965330D01*
X152357758Y-116542560D01*
X151540000Y-116542560D01*
X151292235Y-116591843D01*
X151082191Y-116732191D01*
X150941843Y-116942235D01*
X150892560Y-117190000D01*
X150892560Y-118890000D01*
X150941843Y-119137765D01*
X151082191Y-119347809D01*
X151292235Y-119488157D01*
X151540000Y-119537440D01*
X153240000Y-119537440D01*
X153487765Y-119488157D01*
X153697809Y-119347809D01*
X153838157Y-119137765D01*
X153847184Y-119092381D01*
X153859375Y-119110625D01*
X154350582Y-119438839D01*
X154783744Y-119525000D01*
X155076256Y-119525000D01*
X155509418Y-119438839D01*
X156000625Y-119110625D01*
X156200000Y-118812239D01*
X156399375Y-119110625D01*
X156890582Y-119438839D01*
X157323744Y-119525000D01*
X157616256Y-119525000D01*
X158049418Y-119438839D01*
X158540625Y-119110625D01*
X158753843Y-118791522D01*
X158814817Y-118921358D01*
X159243076Y-119311645D01*
X159653110Y-119481476D01*
X159883000Y-119360155D01*
X159883000Y-118167000D01*
X159863000Y-118167000D01*
X159863000Y-117913000D01*
X159883000Y-117913000D01*
X159883000Y-116719845D01*
X160137000Y-116719845D01*
X160137000Y-117913000D01*
X160157000Y-117913000D01*
X160157000Y-118167000D01*
X160137000Y-118167000D01*
X160137000Y-119360155D01*
X160366890Y-119481476D01*
X160776924Y-119311645D01*
X161205183Y-118921358D01*
X161266157Y-118791522D01*
X161479375Y-119110625D01*
X161970582Y-119438839D01*
X162403744Y-119525000D01*
X162696256Y-119525000D01*
X163129418Y-119438839D01*
X163620625Y-119110625D01*
X163820000Y-118812239D01*
X164019375Y-119110625D01*
X164510582Y-119438839D01*
X164943744Y-119525000D01*
X165236256Y-119525000D01*
X165669418Y-119438839D01*
X166160625Y-119110625D01*
X166488839Y-118619418D01*
X166604092Y-118040000D01*
X166488839Y-117460582D01*
X166160625Y-116969375D01*
X165669418Y-116641161D01*
X165236256Y-116555000D01*
X164943744Y-116555000D01*
X164510582Y-116641161D01*
X164019375Y-116969375D01*
X163820000Y-117267761D01*
X163620625Y-116969375D01*
X163129418Y-116641161D01*
X162696256Y-116555000D01*
X162403744Y-116555000D01*
X161970582Y-116641161D01*
X161479375Y-116969375D01*
X161266157Y-117288478D01*
X161205183Y-117158642D01*
X160776924Y-116768355D01*
X160366890Y-116598524D01*
X160137000Y-116719845D01*
X159883000Y-116719845D01*
X159653110Y-116598524D01*
X159243076Y-116768355D01*
X158814817Y-117158642D01*
X158753843Y-117288478D01*
X158540625Y-116969375D01*
X158049418Y-116641161D01*
X157616256Y-116555000D01*
X157323744Y-116555000D01*
X157244999Y-116570663D01*
X157244999Y-112560841D01*
X157259887Y-112485994D01*
X157244999Y-112411147D01*
X157244999Y-112411143D01*
X157200903Y-112189458D01*
X157032928Y-111938066D01*
X156969472Y-111895666D01*
X152094336Y-107020531D01*
X152051934Y-106957072D01*
X151800542Y-106789097D01*
X151578857Y-106745001D01*
X151578852Y-106745001D01*
X151561828Y-106741615D01*
X151467431Y-106513720D01*
X151176280Y-106222569D01*
X150795874Y-106065000D01*
X150384126Y-106065000D01*
X150003720Y-106222569D01*
X149712569Y-106513720D01*
X149555000Y-106894126D01*
X147522126Y-106894126D01*
X147876280Y-106747431D01*
X148167431Y-106456280D01*
X148325000Y-106075874D01*
X148325000Y-106058711D01*
X148553720Y-106287431D01*
X148934126Y-106445000D01*
X149345874Y-106445000D01*
X149726280Y-106287431D01*
X150017431Y-105996280D01*
X150175000Y-105615874D01*
X150175000Y-105204126D01*
X150017431Y-104823720D01*
X149726280Y-104532569D01*
X149345874Y-104375000D01*
X148934126Y-104375000D01*
X148553720Y-104532569D01*
X148262569Y-104823720D01*
X148105000Y-105204126D01*
X148105000Y-105221289D01*
X147876280Y-104992569D01*
X147495874Y-104835000D01*
X147084126Y-104835000D01*
X146703720Y-104992569D01*
X146412569Y-105283720D01*
X146255000Y-105664126D01*
X145070675Y-105664126D01*
X148650675Y-102084126D01*
X153795000Y-102084126D01*
X153795000Y-102495874D01*
X153952569Y-102876280D01*
X154243720Y-103167431D01*
X154624126Y-103325000D01*
X155035874Y-103325000D01*
X155416280Y-103167431D01*
X155707431Y-102876280D01*
X155865000Y-102495874D01*
X155865000Y-102084126D01*
X155707431Y-101703720D01*
X155416280Y-101412569D01*
X155035874Y-101255000D01*
X154624126Y-101255000D01*
X154243720Y-101412569D01*
X153952569Y-101703720D01*
X153795000Y-102084126D01*
X148650675Y-102084126D01*
X149690675Y-101044126D01*
X160275000Y-101044126D01*
X160275000Y-101455874D01*
X160432569Y-101836280D01*
X160723720Y-102127431D01*
X161104126Y-102285000D01*
X161515874Y-102285000D01*
X161896280Y-102127431D01*
X162187431Y-101836280D01*
X162345000Y-101455874D01*
X162345000Y-101254126D01*
X162805000Y-101254126D01*
X162805000Y-101665874D01*
X162962569Y-102046280D01*
X163253720Y-102337431D01*
X163634126Y-102495000D01*
X164045874Y-102495000D01*
X164426280Y-102337431D01*
X164717431Y-102046280D01*
X164875000Y-101665874D01*
X164875000Y-101254126D01*
X164717431Y-100873720D01*
X164426280Y-100582569D01*
X164045874Y-100425000D01*
X163634126Y-100425000D01*
X163253720Y-100582569D01*
X162962569Y-100873720D01*
X162805000Y-101254126D01*
X162345000Y-101254126D01*
X162345000Y-101044126D01*
X162187431Y-100663720D01*
X161896280Y-100372569D01*
X161515874Y-100215000D01*
X161104126Y-100215000D01*
X160723720Y-100372569D01*
X160432569Y-100663720D01*
X160275000Y-101044126D01*
X149690675Y-101044126D01*
X151239802Y-99495000D01*
X151405874Y-99495000D01*
X151786280Y-99337431D01*
X152077431Y-99046280D01*
X152235000Y-98665874D01*
X152235000Y-98254126D01*
X152077431Y-97873720D01*
X151786280Y-97582569D01*
X151405874Y-97425000D01*
X150994126Y-97425000D01*
X150613720Y-97582569D01*
X150322569Y-97873720D01*
X150165000Y-98254126D01*
X150165000Y-98420198D01*
X139465530Y-109119669D01*
X139402071Y-109162071D01*
X139234096Y-109413464D01*
X139190000Y-109635149D01*
X139190000Y-109635153D01*
X139175112Y-109710000D01*
X139190000Y-109784847D01*
X139190000Y-110191822D01*
X138879375Y-110399375D01*
X138666157Y-110718478D01*
X138605183Y-110588642D01*
X138176924Y-110198355D01*
X137766890Y-110028524D01*
X137537000Y-110149845D01*
X137283000Y-110149845D01*
X137053110Y-110028524D01*
X136643076Y-110198355D01*
X136214817Y-110588642D01*
X136153843Y-110718478D01*
X135940625Y-110399375D01*
X135691731Y-110233070D01*
X146109802Y-99815000D01*
X146275874Y-99815000D01*
X146656280Y-99657431D01*
X146947431Y-99366280D01*
X147105000Y-98985874D01*
X147105000Y-98574126D01*
X146947431Y-98193720D01*
X146817454Y-98063743D01*
X146856629Y-98005112D01*
X146955904Y-97856538D01*
X146978270Y-97744096D01*
X147000000Y-97634852D01*
X147000000Y-97634848D01*
X147014888Y-97560000D01*
X147000000Y-97485152D01*
X147000000Y-95750531D01*
X147014888Y-95675684D01*
X147000000Y-95600837D01*
X147000000Y-95600833D01*
X146955904Y-95379148D01*
X146831834Y-95193464D01*
X146830329Y-95191211D01*
X146830327Y-95191209D01*
X146787929Y-95127756D01*
X146724476Y-95085358D01*
X146201272Y-94562155D01*
X146295000Y-94335874D01*
X146295000Y-93924126D01*
X146148317Y-93570000D01*
X150085153Y-93570000D01*
X150160000Y-93584888D01*
X150234847Y-93570000D01*
X150234852Y-93570000D01*
X150456537Y-93525904D01*
X150707929Y-93357929D01*
X150750331Y-93294470D01*
X151600329Y-92444473D01*
X151600331Y-92444470D01*
X153010675Y-91034126D01*
X155255000Y-91034126D01*
X155255000Y-91445874D01*
X155412569Y-91826280D01*
X155703720Y-92117431D01*
X156084126Y-92275000D01*
X156250199Y-92275000D01*
X159949671Y-95974473D01*
X159992072Y-96037930D01*
X160243464Y-96205905D01*
X160465149Y-96250001D01*
X160465153Y-96250001D01*
X160540000Y-96264889D01*
X160614847Y-96250001D01*
X162538841Y-96250001D01*
X162632569Y-96476280D01*
X162923720Y-96767431D01*
X163304126Y-96925000D01*
X163715874Y-96925000D01*
X164096280Y-96767431D01*
X164387431Y-96476280D01*
X164545000Y-96095874D01*
X164545000Y-95684126D01*
X164387431Y-95303720D01*
X164096280Y-95012569D01*
X163715874Y-94855000D01*
X163527618Y-94855000D01*
X163406538Y-94774097D01*
X163184853Y-94730001D01*
X163184848Y-94730001D01*
X163110001Y-94715113D01*
X163035154Y-94730001D01*
X160854803Y-94730001D01*
X157325000Y-91200199D01*
X157325000Y-91114126D01*
X158585000Y-91114126D01*
X158585000Y-91525874D01*
X158742569Y-91906280D01*
X159033720Y-92197431D01*
X159414126Y-92355000D01*
X159825874Y-92355000D01*
X160206280Y-92197431D01*
X160497431Y-91906280D01*
X160655000Y-91525874D01*
X160655000Y-91114126D01*
X160497431Y-90733720D01*
X160206280Y-90442569D01*
X159825874Y-90285000D01*
X159414126Y-90285000D01*
X159033720Y-90442569D01*
X158742569Y-90733720D01*
X158585000Y-91114126D01*
X157325000Y-91114126D01*
X157325000Y-91034126D01*
X157167431Y-90653720D01*
X156876280Y-90362569D01*
X156495874Y-90205000D01*
X156084126Y-90205000D01*
X155703720Y-90362569D01*
X155412569Y-90653720D01*
X155255000Y-91034126D01*
X153010675Y-91034126D01*
X153099802Y-90945000D01*
X153265874Y-90945000D01*
X153646280Y-90787431D01*
X153937431Y-90496280D01*
X154095000Y-90115874D01*
X154095000Y-89704126D01*
X153937431Y-89323720D01*
X153646280Y-89032569D01*
X153265874Y-88875000D01*
X152854126Y-88875000D01*
X152473720Y-89032569D01*
X152182569Y-89323720D01*
X152025000Y-89704126D01*
X152025000Y-89870198D01*
X150525530Y-91369669D01*
X150525527Y-91369671D01*
X149845199Y-92050000D01*
X146522087Y-92050000D01*
X146866280Y-91907431D01*
X147157431Y-91616280D01*
X147315000Y-91235874D01*
X147315000Y-90824126D01*
X147221271Y-90597845D01*
X149284990Y-88534126D01*
X158575000Y-88534126D01*
X158575000Y-88945874D01*
X158732569Y-89326280D01*
X159023720Y-89617431D01*
X159404126Y-89775000D01*
X159815874Y-89775000D01*
X160196280Y-89617431D01*
X160487431Y-89326280D01*
X160645000Y-88945874D01*
X160645000Y-88534126D01*
X160487431Y-88153720D01*
X160267837Y-87934126D01*
X162395000Y-87934126D01*
X162395000Y-88345874D01*
X162552569Y-88726280D01*
X162843720Y-89017431D01*
X163224126Y-89175000D01*
X163635874Y-89175000D01*
X164016280Y-89017431D01*
X164307431Y-88726280D01*
X164465000Y-88345874D01*
X164465000Y-87934126D01*
X164307431Y-87553720D01*
X164016280Y-87262569D01*
X163635874Y-87105000D01*
X163224126Y-87105000D01*
X162843720Y-87262569D01*
X162552569Y-87553720D01*
X162395000Y-87934126D01*
X160267837Y-87934126D01*
X160196280Y-87862569D01*
X159815874Y-87705000D01*
X159404126Y-87705000D01*
X159023720Y-87862569D01*
X158732569Y-88153720D01*
X158575000Y-88534126D01*
X149284990Y-88534126D01*
X151394990Y-86424126D01*
X153515000Y-86424126D01*
X153515000Y-86835874D01*
X153672569Y-87216280D01*
X153963720Y-87507431D01*
X154344126Y-87665000D01*
X154755874Y-87665000D01*
X155136280Y-87507431D01*
X155427431Y-87216280D01*
X155585000Y-86835874D01*
X155585000Y-86424126D01*
X155427431Y-86043720D01*
X155136280Y-85752569D01*
X154755874Y-85595000D01*
X154344126Y-85595000D01*
X153963720Y-85752569D01*
X153672569Y-86043720D01*
X153515000Y-86424126D01*
X151394990Y-86424126D01*
X153014116Y-84805001D01*
X154666823Y-84805001D01*
X154874376Y-85115626D01*
X155365583Y-85443840D01*
X155798745Y-85530001D01*
X156091257Y-85530001D01*
X156524419Y-85443840D01*
X157015626Y-85115626D01*
X157343840Y-84624419D01*
X157459093Y-84045001D01*
X157343840Y-83465583D01*
X157015626Y-82974376D01*
X156717240Y-82775001D01*
X157015626Y-82575626D01*
X157343840Y-82084419D01*
X157459093Y-81505001D01*
X157343840Y-80925583D01*
X157015626Y-80434376D01*
X156993968Y-80419905D01*
X157154699Y-80353328D01*
X157333328Y-80174700D01*
X157430001Y-79941311D01*
X157430001Y-79250751D01*
X157271251Y-79092001D01*
X156072001Y-79092001D01*
X156072001Y-79112001D01*
X155818001Y-79112001D01*
X155818001Y-79092001D01*
X154618751Y-79092001D01*
X154460001Y-79250751D01*
X154460001Y-79941311D01*
X154556674Y-80174700D01*
X154735303Y-80353328D01*
X154896034Y-80419905D01*
X154874376Y-80434376D01*
X154546162Y-80925583D01*
X154430909Y-81505001D01*
X154546162Y-82084419D01*
X154874376Y-82575626D01*
X155172762Y-82775001D01*
X154874376Y-82974376D01*
X154666823Y-83285001D01*
X152774161Y-83285001D01*
X152728035Y-83275826D01*
X152815000Y-83065874D01*
X152815000Y-82654126D01*
X152657431Y-82273720D01*
X152366280Y-81982569D01*
X151985874Y-81825000D01*
X151574126Y-81825000D01*
X151193720Y-81982569D01*
X150902569Y-82273720D01*
X150745000Y-82654126D01*
X150745000Y-83065874D01*
X150902569Y-83446280D01*
X151193720Y-83737431D01*
X151574126Y-83895000D01*
X151774513Y-83895000D01*
X146799999Y-88869515D01*
X146799999Y-83154126D01*
X148545000Y-83154126D01*
X148545000Y-83565874D01*
X148702569Y-83946280D01*
X148993720Y-84237431D01*
X149374126Y-84395000D01*
X149785874Y-84395000D01*
X150166280Y-84237431D01*
X150457431Y-83946280D01*
X150615000Y-83565874D01*
X150615000Y-83154126D01*
X150457431Y-82773720D01*
X150166280Y-82482569D01*
X149785874Y-82325000D01*
X149374126Y-82325000D01*
X148993720Y-82482569D01*
X148702569Y-82773720D01*
X148545000Y-83154126D01*
X146799999Y-83154126D01*
X146799999Y-79534802D01*
X147615545Y-78719256D01*
X147723720Y-78827431D01*
X148104126Y-78985000D01*
X148515874Y-78985000D01*
X148896280Y-78827431D01*
X149187431Y-78536280D01*
X149345000Y-78155874D01*
X149345000Y-77988691D01*
X154460001Y-77988691D01*
X154460001Y-78679251D01*
X154618751Y-78838001D01*
X155818001Y-78838001D01*
X155818001Y-77638751D01*
X156072001Y-77638751D01*
X156072001Y-78838001D01*
X157271251Y-78838001D01*
X157430001Y-78679251D01*
X157430001Y-77988691D01*
X157333328Y-77755302D01*
X157154699Y-77576674D01*
X156921310Y-77480001D01*
X156230751Y-77480001D01*
X156072001Y-77638751D01*
X155818001Y-77638751D01*
X155659251Y-77480001D01*
X154968692Y-77480001D01*
X154735303Y-77576674D01*
X154556674Y-77755302D01*
X154460001Y-77988691D01*
X149345000Y-77988691D01*
X149345000Y-77744126D01*
X149326722Y-77700000D01*
X151106289Y-77700000D01*
X151223720Y-77817431D01*
X151604126Y-77975000D01*
X152015874Y-77975000D01*
X152396280Y-77817431D01*
X152687431Y-77526280D01*
X152845000Y-77145874D01*
X152845000Y-76734126D01*
X152687431Y-76353720D01*
X152438712Y-76105001D01*
X154666823Y-76105001D01*
X154874376Y-76415626D01*
X155365583Y-76743840D01*
X155798745Y-76830001D01*
X156091257Y-76830001D01*
X156524419Y-76743840D01*
X157015626Y-76415626D01*
X157343840Y-75924419D01*
X157459093Y-75345001D01*
X157343840Y-74765583D01*
X157015626Y-74274376D01*
X156717240Y-74075001D01*
X157015626Y-73875626D01*
X157343840Y-73384419D01*
X157459093Y-72805001D01*
X157343840Y-72225583D01*
X157015626Y-71734376D01*
X156993968Y-71719905D01*
X157154699Y-71653328D01*
X157333328Y-71474700D01*
X157430001Y-71241311D01*
X157430001Y-70550751D01*
X157271251Y-70392001D01*
X156072001Y-70392001D01*
X156072001Y-70412001D01*
X155818001Y-70412001D01*
X155818001Y-70392001D01*
X154618751Y-70392001D01*
X154460001Y-70550751D01*
X154460001Y-71241311D01*
X154556674Y-71474700D01*
X154735303Y-71653328D01*
X154896034Y-71719905D01*
X154874376Y-71734376D01*
X154546162Y-72225583D01*
X154430909Y-72805001D01*
X154546162Y-73384419D01*
X154874376Y-73875626D01*
X155172762Y-74075001D01*
X154874376Y-74274376D01*
X154666823Y-74585001D01*
X152655240Y-74585001D01*
X152775000Y-74295874D01*
X152775000Y-73884126D01*
X152617431Y-73503720D01*
X152326280Y-73212569D01*
X151945874Y-73055000D01*
X151534126Y-73055000D01*
X151153720Y-73212569D01*
X150862569Y-73503720D01*
X150705000Y-73884126D01*
X150705000Y-74295874D01*
X150824760Y-74585001D01*
X149161188Y-74585001D01*
X152284473Y-71461716D01*
X152347929Y-71419316D01*
X152515904Y-71167924D01*
X152560000Y-70946239D01*
X152560000Y-70946235D01*
X152574888Y-70871388D01*
X152560000Y-70796541D01*
X152560000Y-69288691D01*
X154460001Y-69288691D01*
X154460001Y-69979251D01*
X154618751Y-70138001D01*
X155818001Y-70138001D01*
X155818001Y-68938751D01*
X156072001Y-68938751D01*
X156072001Y-70138001D01*
X157271251Y-70138001D01*
X157430001Y-69979251D01*
X157430001Y-69288691D01*
X157333328Y-69055302D01*
X157154699Y-68876674D01*
X156921310Y-68780001D01*
X156230751Y-68780001D01*
X156072001Y-68938751D01*
X155818001Y-68938751D01*
X155659251Y-68780001D01*
X154968692Y-68780001D01*
X154735303Y-68876674D01*
X154556674Y-69055302D01*
X154460001Y-69288691D01*
X152560000Y-69288691D01*
X152560000Y-69003711D01*
X152677431Y-68886280D01*
X152835000Y-68505874D01*
X152835000Y-68094126D01*
X152677431Y-67713720D01*
X152386280Y-67422569D01*
X152005874Y-67265000D01*
X151594126Y-67265000D01*
X151213720Y-67422569D01*
X150922569Y-67713720D01*
X150765000Y-68094126D01*
X150765000Y-68505874D01*
X150922569Y-68886280D01*
X151040001Y-69003712D01*
X151040000Y-70556585D01*
X150388977Y-71207608D01*
X150122936Y-70809449D01*
X149631729Y-70481235D01*
X149198567Y-70395074D01*
X148906055Y-70395074D01*
X148472893Y-70481235D01*
X147981686Y-70809449D01*
X147782311Y-71107835D01*
X147582936Y-70809449D01*
X147091729Y-70481235D01*
X146658567Y-70395074D01*
X146366055Y-70395074D01*
X145932893Y-70481235D01*
X145441686Y-70809449D01*
X145427215Y-70831107D01*
X145360638Y-70670376D01*
X145182010Y-70491747D01*
X144948621Y-70395074D01*
X144258061Y-70395074D01*
X144099311Y-70553824D01*
X144099311Y-71753074D01*
X144119311Y-71753074D01*
X144119311Y-72007074D01*
X144099311Y-72007074D01*
X144099311Y-73206324D01*
X144258061Y-73365074D01*
X144948621Y-73365074D01*
X145182010Y-73268401D01*
X145360638Y-73089772D01*
X145427215Y-72929041D01*
X145441686Y-72950699D01*
X145932893Y-73278913D01*
X146366055Y-73365074D01*
X146492509Y-73365074D01*
X142940000Y-76917584D01*
X142940000Y-76813711D01*
X143057431Y-76696280D01*
X143215000Y-76315874D01*
X143215000Y-75904126D01*
X143057431Y-75523720D01*
X142766280Y-75232569D01*
X142385874Y-75075000D01*
X141974126Y-75075000D01*
X141593720Y-75232569D01*
X141435001Y-75391288D01*
X141435001Y-73822002D01*
X141449889Y-73747155D01*
X141435001Y-73672308D01*
X141435001Y-73672304D01*
X141390905Y-73450619D01*
X141269151Y-73268401D01*
X141265330Y-73262682D01*
X141265328Y-73262680D01*
X141222930Y-73199227D01*
X141159476Y-73156828D01*
X141004327Y-73001680D01*
X141080625Y-72950699D01*
X141408839Y-72459492D01*
X141467252Y-72165824D01*
X142487311Y-72165824D01*
X142487311Y-72856383D01*
X142583984Y-73089772D01*
X142762612Y-73268401D01*
X142996001Y-73365074D01*
X143686561Y-73365074D01*
X143845311Y-73206324D01*
X143845311Y-72007074D01*
X142646061Y-72007074D01*
X142487311Y-72165824D01*
X141467252Y-72165824D01*
X141524092Y-71880074D01*
X141408839Y-71300656D01*
X141143645Y-70903765D01*
X142487311Y-70903765D01*
X142487311Y-71594324D01*
X142646061Y-71753074D01*
X143845311Y-71753074D01*
X143845311Y-70553824D01*
X143686561Y-70395074D01*
X142996001Y-70395074D01*
X142762612Y-70491747D01*
X142583984Y-70670376D01*
X142487311Y-70903765D01*
X141143645Y-70903765D01*
X141080625Y-70809449D01*
X140589418Y-70481235D01*
X140156256Y-70395074D01*
X139863744Y-70395074D01*
X139430582Y-70481235D01*
X138939375Y-70809449D01*
X138740000Y-71107835D01*
X138540625Y-70809449D01*
X138049418Y-70481235D01*
X137616256Y-70395074D01*
X137323744Y-70395074D01*
X136890582Y-70481235D01*
X136399375Y-70809449D01*
X136384904Y-70831107D01*
X136318327Y-70670376D01*
X136139699Y-70491747D01*
X135906310Y-70395074D01*
X135215750Y-70395074D01*
X135057000Y-70553824D01*
X135057000Y-71753074D01*
X135077000Y-71753074D01*
X135077000Y-72007074D01*
X135057000Y-72007074D01*
X135057000Y-73206324D01*
X135215750Y-73365074D01*
X135906310Y-73365074D01*
X136139699Y-73268401D01*
X136318327Y-73089772D01*
X136384904Y-72929041D01*
X136399375Y-72950699D01*
X136890582Y-73278913D01*
X137323744Y-73365074D01*
X137616256Y-73365074D01*
X138049418Y-73278913D01*
X138540625Y-72950699D01*
X138740000Y-72652313D01*
X138939375Y-72950699D01*
X139250286Y-73158443D01*
X139294096Y-73378691D01*
X139462071Y-73630084D01*
X139525529Y-73672485D01*
X139915002Y-74061959D01*
X139915001Y-81995000D01*
X139744126Y-81995000D01*
X139363720Y-82152569D01*
X139072569Y-82443720D01*
X138915000Y-82824126D01*
X138915000Y-83235874D01*
X139072569Y-83616280D01*
X139363720Y-83907431D01*
X139744126Y-84065000D01*
X139915001Y-84065000D01*
X139915001Y-85104514D01*
X135150000Y-80339514D01*
X135150000Y-79047945D01*
X135302569Y-79416280D01*
X135593720Y-79707431D01*
X135974126Y-79865000D01*
X136385874Y-79865000D01*
X136766280Y-79707431D01*
X137057431Y-79416280D01*
X137215000Y-79035874D01*
X137215000Y-78624126D01*
X137198432Y-78584126D01*
X137665000Y-78584126D01*
X137665000Y-78995874D01*
X137822569Y-79376280D01*
X138113720Y-79667431D01*
X138494126Y-79825000D01*
X138905874Y-79825000D01*
X139286280Y-79667431D01*
X139577431Y-79376280D01*
X139735000Y-78995874D01*
X139735000Y-78584126D01*
X139577431Y-78203720D01*
X139286280Y-77912569D01*
X138905874Y-77755000D01*
X138494126Y-77755000D01*
X138113720Y-77912569D01*
X137822569Y-78203720D01*
X137665000Y-78584126D01*
X137198432Y-78584126D01*
X137057431Y-78243720D01*
X136766280Y-77952569D01*
X136385874Y-77795000D01*
X135974126Y-77795000D01*
X135593720Y-77952569D01*
X135302569Y-78243720D01*
X135150000Y-78612055D01*
X135150000Y-78083711D01*
X135267431Y-77966280D01*
X135425000Y-77585874D01*
X135425000Y-77174126D01*
X135267431Y-76793720D01*
X134976280Y-76502569D01*
X134595874Y-76345000D01*
X134184126Y-76345000D01*
X133803720Y-76502569D01*
X133512569Y-76793720D01*
X133355000Y-77174126D01*
X133355000Y-77585874D01*
X133512569Y-77966280D01*
X133630001Y-78083712D01*
X133630000Y-80005199D01*
X132040000Y-78415199D01*
X132040000Y-75914126D01*
X137795000Y-75914126D01*
X137795000Y-76325874D01*
X137952569Y-76706280D01*
X138243720Y-76997431D01*
X138624126Y-77155000D01*
X139035874Y-77155000D01*
X139416280Y-76997431D01*
X139707431Y-76706280D01*
X139865000Y-76325874D01*
X139865000Y-75914126D01*
X139707431Y-75533720D01*
X139416280Y-75242569D01*
X139035874Y-75085000D01*
X138624126Y-75085000D01*
X138243720Y-75242569D01*
X137952569Y-75533720D01*
X137795000Y-75914126D01*
X132040000Y-75914126D01*
X132040000Y-73158252D01*
X132350625Y-72950699D01*
X132678839Y-72459492D01*
X132737252Y-72165824D01*
X133445000Y-72165824D01*
X133445000Y-72856383D01*
X133541673Y-73089772D01*
X133720301Y-73268401D01*
X133953690Y-73365074D01*
X134644250Y-73365074D01*
X134803000Y-73206324D01*
X134803000Y-72007074D01*
X133603750Y-72007074D01*
X133445000Y-72165824D01*
X132737252Y-72165824D01*
X132794092Y-71880074D01*
X132678839Y-71300656D01*
X132413645Y-70903765D01*
X133445000Y-70903765D01*
X133445000Y-71594324D01*
X133603750Y-71753074D01*
X134803000Y-71753074D01*
X134803000Y-70553824D01*
X134644250Y-70395074D01*
X133953690Y-70395074D01*
X133720301Y-70491747D01*
X133541673Y-70670376D01*
X133445000Y-70903765D01*
X132413645Y-70903765D01*
X132350625Y-70809449D01*
X131859418Y-70481235D01*
X131426256Y-70395074D01*
X131133744Y-70395074D01*
X130700582Y-70481235D01*
X130209375Y-70809449D01*
X130010000Y-71107835D01*
X129810625Y-70809449D01*
X129319418Y-70481235D01*
X128886256Y-70395074D01*
X128593744Y-70395074D01*
X128160582Y-70481235D01*
X127669375Y-70809449D01*
X127654904Y-70831107D01*
X127588327Y-70670376D01*
X127409699Y-70491747D01*
X127176310Y-70395074D01*
X126485750Y-70395074D01*
X126327000Y-70553824D01*
X126327000Y-71753074D01*
X126347000Y-71753074D01*
X126347000Y-72007074D01*
X126327000Y-72007074D01*
X126327000Y-73206324D01*
X126485750Y-73365074D01*
X127176310Y-73365074D01*
X127409699Y-73268401D01*
X127588327Y-73089772D01*
X127654904Y-72929041D01*
X127669375Y-72950699D01*
X128160582Y-73278913D01*
X128593744Y-73365074D01*
X128886256Y-73365074D01*
X129319418Y-73278913D01*
X129810625Y-72950699D01*
X130010000Y-72652313D01*
X130209375Y-72950699D01*
X130520001Y-73158253D01*
X130520001Y-75182983D01*
X130355874Y-75115000D01*
X129944126Y-75115000D01*
X129563720Y-75272569D01*
X129272569Y-75563720D01*
X129115000Y-75944126D01*
X129115000Y-76355874D01*
X129272569Y-76736280D01*
X129563720Y-77027431D01*
X129944126Y-77185000D01*
X130355874Y-77185000D01*
X130520000Y-77117017D01*
X130520000Y-78655153D01*
X130505112Y-78730000D01*
X130520000Y-78804847D01*
X130520000Y-78804851D01*
X130564096Y-79026536D01*
X130732071Y-79277929D01*
X130795530Y-79320331D01*
X132265199Y-80790000D01*
X128565000Y-80790000D01*
X128565000Y-80524126D01*
X128407431Y-80143720D01*
X128116280Y-79852569D01*
X127735874Y-79695000D01*
X127405464Y-79695000D01*
X127472927Y-79512532D01*
X126500000Y-78539605D01*
X126485858Y-78553748D01*
X126306253Y-78374143D01*
X126320395Y-78360000D01*
X126679605Y-78360000D01*
X127652532Y-79332927D01*
X127919387Y-79234264D01*
X128145908Y-78624539D01*
X128121856Y-77974540D01*
X127919387Y-77485736D01*
X127652532Y-77387073D01*
X126679605Y-78360000D01*
X126320395Y-78360000D01*
X125347468Y-77387073D01*
X125170000Y-77452687D01*
X125170000Y-77207468D01*
X125527073Y-77207468D01*
X126500000Y-78180395D01*
X127472927Y-77207468D01*
X127374264Y-76940613D01*
X126764539Y-76714092D01*
X126114540Y-76738144D01*
X125625736Y-76940613D01*
X125527073Y-77207468D01*
X125170000Y-77207468D01*
X125170000Y-76833711D01*
X125287431Y-76716280D01*
X125445000Y-76335874D01*
X125445000Y-75924126D01*
X125287431Y-75543720D01*
X124996280Y-75252569D01*
X124615874Y-75095000D01*
X124204126Y-75095000D01*
X123823720Y-75252569D01*
X123532569Y-75543720D01*
X123375000Y-75924126D01*
X123375000Y-76335874D01*
X123532569Y-76716280D01*
X123650001Y-76833712D01*
X123650000Y-79115153D01*
X123635112Y-79190000D01*
X123650000Y-79264847D01*
X123650000Y-79264851D01*
X123694096Y-79486536D01*
X123862071Y-79737929D01*
X123925530Y-79780331D01*
X125605854Y-81460656D01*
X125573847Y-81473914D01*
X125113914Y-81933847D01*
X124889479Y-82475680D01*
X123310000Y-80896201D01*
X123310000Y-73158252D01*
X123620625Y-72950699D01*
X123948839Y-72459492D01*
X124007252Y-72165824D01*
X124715000Y-72165824D01*
X124715000Y-72856383D01*
X124811673Y-73089772D01*
X124990301Y-73268401D01*
X125223690Y-73365074D01*
X125914250Y-73365074D01*
X126073000Y-73206324D01*
X126073000Y-72007074D01*
X124873750Y-72007074D01*
X124715000Y-72165824D01*
X124007252Y-72165824D01*
X124064092Y-71880074D01*
X123948839Y-71300656D01*
X123683645Y-70903765D01*
X124715000Y-70903765D01*
X124715000Y-71594324D01*
X124873750Y-71753074D01*
X126073000Y-71753074D01*
X126073000Y-70553824D01*
X125914250Y-70395074D01*
X125223690Y-70395074D01*
X124990301Y-70491747D01*
X124811673Y-70670376D01*
X124715000Y-70903765D01*
X123683645Y-70903765D01*
X123620625Y-70809449D01*
X123129418Y-70481235D01*
X122696256Y-70395074D01*
X122403744Y-70395074D01*
X121970582Y-70481235D01*
X121479375Y-70809449D01*
X121280000Y-71107835D01*
X121080625Y-70809449D01*
X120589418Y-70481235D01*
X120156256Y-70395074D01*
X119863744Y-70395074D01*
X119430582Y-70481235D01*
X118939375Y-70809449D01*
X118924904Y-70831107D01*
X118858327Y-70670376D01*
X118679699Y-70491747D01*
X118446310Y-70395074D01*
X117755750Y-70395074D01*
X117597000Y-70553824D01*
X117597000Y-71753074D01*
X117617000Y-71753074D01*
X117617000Y-72007074D01*
X117597000Y-72007074D01*
X117597000Y-73206324D01*
X117755750Y-73365074D01*
X118446310Y-73365074D01*
X118679699Y-73268401D01*
X118858327Y-73089772D01*
X118924904Y-72929041D01*
X118939375Y-72950699D01*
X119430582Y-73278913D01*
X119863744Y-73365074D01*
X120156256Y-73365074D01*
X120589418Y-73278913D01*
X121080625Y-72950699D01*
X121280000Y-72652313D01*
X121479375Y-72950699D01*
X121790001Y-73158253D01*
X121790001Y-75173400D01*
X121455874Y-75035000D01*
X121044126Y-75035000D01*
X120663720Y-75192569D01*
X120372569Y-75483720D01*
X120215000Y-75864126D01*
X120215000Y-76275874D01*
X120372569Y-76656280D01*
X120528414Y-76812125D01*
X120264539Y-76714092D01*
X119614540Y-76738144D01*
X119125736Y-76940613D01*
X119027073Y-77207468D01*
X120000000Y-78180395D01*
X120972927Y-77207468D01*
X120915315Y-77051645D01*
X121044126Y-77105000D01*
X121455874Y-77105000D01*
X121790001Y-76966601D01*
X121790000Y-80590000D01*
X119483711Y-80590000D01*
X119366280Y-80472569D01*
X118985874Y-80315000D01*
X118574126Y-80315000D01*
X118193720Y-80472569D01*
X117902569Y-80763720D01*
X117745000Y-81144126D01*
X117745000Y-81555874D01*
X117902569Y-81936280D01*
X118193720Y-82227431D01*
X118448580Y-82332997D01*
X118365000Y-82534778D01*
X118365000Y-83141289D01*
X118096280Y-82872569D01*
X117715874Y-82715000D01*
X117304126Y-82715000D01*
X116923720Y-82872569D01*
X116632569Y-83163720D01*
X116475000Y-83544126D01*
X115146627Y-83544126D01*
X115147366Y-79512532D01*
X119027073Y-79512532D01*
X119125736Y-79779387D01*
X119735461Y-80005908D01*
X120385460Y-79981856D01*
X120874264Y-79779387D01*
X120972927Y-79512532D01*
X120000000Y-78539605D01*
X119027073Y-79512532D01*
X115147366Y-79512532D01*
X115147626Y-78095461D01*
X118354092Y-78095461D01*
X118378144Y-78745460D01*
X118580613Y-79234264D01*
X118847468Y-79332927D01*
X119820395Y-78360000D01*
X120179605Y-78360000D01*
X121152532Y-79332927D01*
X121419387Y-79234264D01*
X121645908Y-78624539D01*
X121621856Y-77974540D01*
X121419387Y-77485736D01*
X121152532Y-77387073D01*
X120179605Y-78360000D01*
X119820395Y-78360000D01*
X118847468Y-77387073D01*
X118580613Y-77485736D01*
X118354092Y-78095461D01*
X115147626Y-78095461D01*
X115148714Y-72165824D01*
X115985000Y-72165824D01*
X115985000Y-72856383D01*
X116081673Y-73089772D01*
X116260301Y-73268401D01*
X116493690Y-73365074D01*
X117184250Y-73365074D01*
X117343000Y-73206324D01*
X117343000Y-72007074D01*
X116143750Y-72007074D01*
X115985000Y-72165824D01*
X115148714Y-72165824D01*
X115148945Y-70903765D01*
X115985000Y-70903765D01*
X115985000Y-71594324D01*
X116143750Y-71753074D01*
X117343000Y-71753074D01*
X117343000Y-70553824D01*
X117184250Y-70395074D01*
X116493690Y-70395074D01*
X116260301Y-70491747D01*
X116081673Y-70670376D01*
X115985000Y-70903765D01*
X115148945Y-70903765D01*
X115149991Y-65206055D01*
X115217917Y-64537342D01*
X115362756Y-64075159D01*
X162625000Y-64075159D01*
X162625000Y-64864841D01*
X162927199Y-65594412D01*
X163485588Y-66152801D01*
X164215159Y-66455000D01*
X165004841Y-66455000D01*
X165734412Y-66152801D01*
X166292801Y-65594412D01*
X166595000Y-64864841D01*
X166595000Y-64075159D01*
X166292801Y-63345588D01*
X165734412Y-62787199D01*
X165004841Y-62485000D01*
X164215159Y-62485000D01*
X163485588Y-62787199D01*
X162927199Y-63345588D01*
X162625000Y-64075159D01*
X115362756Y-64075159D01*
X115408083Y-63930521D01*
X115716381Y-63374336D01*
X116130217Y-62891505D01*
X116632689Y-62501748D01*
X117203275Y-62220985D01*
X117827126Y-62058484D01*
X118327580Y-62019976D01*
X164414426Y-61980040D01*
X165082658Y-62047917D01*
G36*
X155724999Y-112800797D02*
X155725000Y-116785208D01*
X155509418Y-116641161D01*
X155076256Y-116555000D01*
X154783744Y-116555000D01*
X154563593Y-116598791D01*
X152025001Y-114060200D01*
X152025001Y-109100798D01*
X155724999Y-112800797D01*
X155724999Y-112800797D01*
G37*
X155724999Y-112800797D02*
X155725000Y-116785208D01*
X155509418Y-116641161D01*
X155076256Y-116555000D01*
X154783744Y-116555000D01*
X154563593Y-116598791D01*
X152025001Y-114060200D01*
X152025001Y-109100798D01*
X155724999Y-112800797D01*
G36*
X145480001Y-97245197D02*
X132696408Y-110028791D01*
X132476256Y-109985000D01*
X132183744Y-109985000D01*
X131866747Y-110048054D01*
X144859802Y-97055000D01*
X145025874Y-97055000D01*
X145406280Y-96897431D01*
X145480001Y-96823710D01*
X145480001Y-97245197D01*
X145480001Y-97245197D01*
G37*
X145480001Y-97245197D02*
X132696408Y-110028791D01*
X132476256Y-109985000D01*
X132183744Y-109985000D01*
X131866747Y-110048054D01*
X144859802Y-97055000D01*
X145025874Y-97055000D01*
X145406280Y-96897431D01*
X145480001Y-96823710D01*
X145480001Y-97245197D01*
G36*
X134583201Y-83955000D02*
X134424126Y-83955000D01*
X134043720Y-84112569D01*
X133752569Y-84403720D01*
X133595000Y-84784126D01*
X133595000Y-85195874D01*
X133752569Y-85576280D01*
X134043720Y-85867431D01*
X134424126Y-86025000D01*
X134835874Y-86025000D01*
X135216280Y-85867431D01*
X135507431Y-85576280D01*
X135665000Y-85195874D01*
X135665000Y-85036800D01*
X136884244Y-86256044D01*
X136885001Y-86259848D01*
X136885001Y-86259852D01*
X136929097Y-86481537D01*
X137097072Y-86732930D01*
X137160531Y-86775332D01*
X137355000Y-86969801D01*
X137355000Y-87135874D01*
X137420212Y-87293311D01*
X137373720Y-87312569D01*
X137240603Y-87445686D01*
X137097778Y-87474096D01*
X136846386Y-87642071D01*
X136803986Y-87705527D01*
X136545000Y-87964513D01*
X136545000Y-87784126D01*
X136387431Y-87403720D01*
X136096280Y-87112569D01*
X135715874Y-86955000D01*
X135304126Y-86955000D01*
X134923720Y-87112569D01*
X134632569Y-87403720D01*
X134475000Y-87784126D01*
X134475000Y-88195874D01*
X134607186Y-88515001D01*
X132931514Y-88515001D01*
X132985000Y-88385874D01*
X132985000Y-87974126D01*
X132827431Y-87593720D01*
X132536280Y-87302569D01*
X132155874Y-87145000D01*
X131744126Y-87145000D01*
X131363720Y-87302569D01*
X131246289Y-87420000D01*
X129833801Y-87420000D01*
X126884321Y-84470521D01*
X127426153Y-84246086D01*
X127886086Y-83786153D01*
X128135000Y-83185222D01*
X128135000Y-82534778D01*
X128041894Y-82310000D01*
X132938201Y-82310000D01*
X134583201Y-83955000D01*
X134583201Y-83955000D01*
G37*
X134583201Y-83955000D02*
X134424126Y-83955000D01*
X134043720Y-84112569D01*
X133752569Y-84403720D01*
X133595000Y-84784126D01*
X133595000Y-85195874D01*
X133752569Y-85576280D01*
X134043720Y-85867431D01*
X134424126Y-86025000D01*
X134835874Y-86025000D01*
X135216280Y-85867431D01*
X135507431Y-85576280D01*
X135665000Y-85195874D01*
X135665000Y-85036800D01*
X136884244Y-86256044D01*
X136885001Y-86259848D01*
X136885001Y-86259852D01*
X136929097Y-86481537D01*
X137097072Y-86732930D01*
X137160531Y-86775332D01*
X137355000Y-86969801D01*
X137355000Y-87135874D01*
X137420212Y-87293311D01*
X137373720Y-87312569D01*
X137240603Y-87445686D01*
X137097778Y-87474096D01*
X136846386Y-87642071D01*
X136803986Y-87705527D01*
X136545000Y-87964513D01*
X136545000Y-87784126D01*
X136387431Y-87403720D01*
X136096280Y-87112569D01*
X135715874Y-86955000D01*
X135304126Y-86955000D01*
X134923720Y-87112569D01*
X134632569Y-87403720D01*
X134475000Y-87784126D01*
X134475000Y-88195874D01*
X134607186Y-88515001D01*
X132931514Y-88515001D01*
X132985000Y-88385874D01*
X132985000Y-87974126D01*
X132827431Y-87593720D01*
X132536280Y-87302569D01*
X132155874Y-87145000D01*
X131744126Y-87145000D01*
X131363720Y-87302569D01*
X131246289Y-87420000D01*
X129833801Y-87420000D01*
X126884321Y-84470521D01*
X127426153Y-84246086D01*
X127886086Y-83786153D01*
X128135000Y-83185222D01*
X128135000Y-82534778D01*
X128041894Y-82310000D01*
X132938201Y-82310000D01*
X134583201Y-83955000D01*
G36*
X142470000Y-87095198D02*
X142230000Y-87335198D01*
X142230000Y-86934801D01*
X142470000Y-86694802D01*
X142470000Y-87095198D01*
X142470000Y-87095198D01*
G37*
X142470000Y-87095198D02*
X142230000Y-87335198D01*
X142230000Y-86934801D01*
X142470000Y-86694802D01*
X142470000Y-87095198D01*
G04 #@! TD*
M02*
