G04 #@! TF.GenerationSoftware,KiCad,Pcbnew,(5.0.0)*
G04 #@! TF.CreationDate,2020-04-23T21:24:48+10:00*
G04 #@! TF.ProjectId,Classification and Contol Board,436C617373696669636174696F6E2061,rev?*
G04 #@! TF.SameCoordinates,Original*
G04 #@! TF.FileFunction,Other,Fab,Bot*
%FSLAX46Y46*%
G04 Gerber Fmt 4.6, Leading zero omitted, Abs format (unit mm)*
G04 Created by KiCad (PCBNEW (5.0.0)) date 04/23/20 21:24:48*
%MOMM*%
%LPD*%
G01*
G04 APERTURE LIST*
%ADD10C,0.100000*%
%ADD11C,0.150000*%
G04 APERTURE END LIST*
D10*
G04 #@! TO.C,J9*
X151120000Y-108010000D02*
X151120000Y-115550000D01*
X151120000Y-115550000D02*
X152090000Y-116520000D01*
X152090000Y-116520000D02*
X166360000Y-116520000D01*
X166360000Y-116520000D02*
X166360000Y-108010000D01*
X166360000Y-108010000D02*
X151120000Y-108010000D01*
X152090000Y-118040000D02*
X152090000Y-116520000D01*
X152690000Y-116520000D02*
X152690000Y-118040000D01*
X152690000Y-118040000D02*
X152090000Y-118040000D01*
X154630000Y-118040000D02*
X154630000Y-116520000D01*
X155230000Y-116520000D02*
X155230000Y-118040000D01*
X155230000Y-118040000D02*
X154630000Y-118040000D01*
X157170000Y-118040000D02*
X157170000Y-116520000D01*
X157770000Y-116520000D02*
X157770000Y-118040000D01*
X157770000Y-118040000D02*
X157170000Y-118040000D01*
X159710000Y-118040000D02*
X159710000Y-116520000D01*
X160310000Y-116520000D02*
X160310000Y-118040000D01*
X160310000Y-118040000D02*
X159710000Y-118040000D01*
X162250000Y-118040000D02*
X162250000Y-116520000D01*
X162850000Y-116520000D02*
X162850000Y-118040000D01*
X162850000Y-118040000D02*
X162250000Y-118040000D01*
X164790000Y-118040000D02*
X164790000Y-116520000D01*
X165390000Y-116520000D02*
X165390000Y-118040000D01*
X165390000Y-118040000D02*
X164790000Y-118040000D01*
G04 #@! TD*
G04 #@! TO.C,J9*
D11*
X150242380Y-112011904D02*
X149242380Y-112011904D01*
X149718571Y-112011904D02*
X149718571Y-112583333D01*
X150242380Y-112583333D02*
X149242380Y-112583333D01*
X150147142Y-113630952D02*
X150194761Y-113583333D01*
X150242380Y-113440476D01*
X150242380Y-113345238D01*
X150194761Y-113202380D01*
X150099523Y-113107142D01*
X150004285Y-113059523D01*
X149813809Y-113011904D01*
X149670952Y-113011904D01*
X149480476Y-113059523D01*
X149385238Y-113107142D01*
X149290000Y-113202380D01*
X149242380Y-113345238D01*
X149242380Y-113440476D01*
X149290000Y-113583333D01*
X149337619Y-113630952D01*
X149242380Y-114250000D02*
X149242380Y-114345238D01*
X149290000Y-114440476D01*
X149337619Y-114488095D01*
X149432857Y-114535714D01*
X149623333Y-114583333D01*
X149861428Y-114583333D01*
X150051904Y-114535714D01*
X150147142Y-114488095D01*
X150194761Y-114440476D01*
X150242380Y-114345238D01*
X150242380Y-114250000D01*
X150194761Y-114154761D01*
X150147142Y-114107142D01*
X150051904Y-114059523D01*
X149861428Y-114011904D01*
X149623333Y-114011904D01*
X149432857Y-114059523D01*
X149337619Y-114107142D01*
X149290000Y-114154761D01*
X149242380Y-114250000D01*
X149242380Y-115488095D02*
X149242380Y-115011904D01*
X149718571Y-114964285D01*
X149670952Y-115011904D01*
X149623333Y-115107142D01*
X149623333Y-115345238D01*
X149670952Y-115440476D01*
X149718571Y-115488095D01*
X149813809Y-115535714D01*
X150051904Y-115535714D01*
X150147142Y-115488095D01*
X150194761Y-115440476D01*
X150242380Y-115345238D01*
X150242380Y-115107142D01*
X150194761Y-115011904D01*
X150147142Y-114964285D01*
X159073333Y-111717380D02*
X159073333Y-112431666D01*
X159120952Y-112574523D01*
X159216190Y-112669761D01*
X159359047Y-112717380D01*
X159454285Y-112717380D01*
X158549523Y-112717380D02*
X158359047Y-112717380D01*
X158263809Y-112669761D01*
X158216190Y-112622142D01*
X158120952Y-112479285D01*
X158073333Y-112288809D01*
X158073333Y-111907857D01*
X158120952Y-111812619D01*
X158168571Y-111765000D01*
X158263809Y-111717380D01*
X158454285Y-111717380D01*
X158549523Y-111765000D01*
X158597142Y-111812619D01*
X158644761Y-111907857D01*
X158644761Y-112145952D01*
X158597142Y-112241190D01*
X158549523Y-112288809D01*
X158454285Y-112336428D01*
X158263809Y-112336428D01*
X158168571Y-112288809D01*
X158120952Y-112241190D01*
X158073333Y-112145952D01*
G04 #@! TD*
M02*
