G04 #@! TF.GenerationSoftware,KiCad,Pcbnew,(5.0.0)*
G04 #@! TF.CreationDate,2020-03-24T23:03:23+11:00*
G04 #@! TF.ProjectId,Classification and Contol Board,436C617373696669636174696F6E2061,rev?*
G04 #@! TF.SameCoordinates,Original*
G04 #@! TF.FileFunction,Soldermask,Bot*
G04 #@! TF.FilePolarity,Negative*
%FSLAX46Y46*%
G04 Gerber Fmt 4.6, Leading zero omitted, Abs format (unit mm)*
G04 Created by KiCad (PCBNEW (5.0.0)) date 03/24/20 23:03:23*
%MOMM*%
%LPD*%
G01*
G04 APERTURE LIST*
%ADD10R,4.400000X2.400000*%
%ADD11O,3.700000X2.400000*%
%ADD12O,2.400000X3.900000*%
%ADD13C,2.000000*%
%ADD14C,2.400000*%
%ADD15O,2.100000X2.100000*%
%ADD16R,2.100000X2.100000*%
%ADD17O,1.850000X2.400000*%
%ADD18O,1.550000X2.200000*%
%ADD19O,1.200000X1.200000*%
%ADD20C,3.100000*%
G04 APERTURE END LIST*
D10*
G04 #@! TO.C,J2*
X121540000Y-105610000D03*
D11*
X121540000Y-111610000D03*
D12*
X117040000Y-112610000D03*
X126040000Y-112610000D03*
D13*
X121540000Y-114610000D03*
G04 #@! TD*
D14*
G04 #@! TO.C,SW1*
X126320000Y-83020000D03*
X126320000Y-78520000D03*
X119820000Y-78520000D03*
X119820000Y-83020000D03*
G04 #@! TD*
D15*
G04 #@! TO.C,J8*
X155945001Y-84045001D03*
X155945001Y-81505001D03*
D16*
X155945001Y-78965001D03*
G04 #@! TD*
G04 #@! TO.C,J7*
X155945001Y-70265001D03*
D15*
X155945001Y-72805001D03*
X155945001Y-75345001D03*
G04 #@! TD*
G04 #@! TO.C,J6*
X149052311Y-71880074D03*
X146512311Y-71880074D03*
D16*
X143972311Y-71880074D03*
G04 #@! TD*
G04 #@! TO.C,J5*
X134930000Y-71880074D03*
D15*
X137470000Y-71880074D03*
X140010000Y-71880074D03*
G04 #@! TD*
G04 #@! TO.C,J4*
X131280000Y-71880074D03*
X128740000Y-71880074D03*
D16*
X126200000Y-71880074D03*
G04 #@! TD*
G04 #@! TO.C,J3*
X117470000Y-71880074D03*
D15*
X120010000Y-71880074D03*
X122550000Y-71880074D03*
G04 #@! TD*
D16*
G04 #@! TO.C,J1*
X142490000Y-111470000D03*
D15*
X139950000Y-111470000D03*
X137410000Y-111470000D03*
X134870000Y-111470000D03*
X132330000Y-111470000D03*
X129790000Y-111470000D03*
G04 #@! TD*
D17*
G04 #@! TO.C,J10*
X141165000Y-116900000D03*
X148615000Y-116900000D03*
D18*
X141015000Y-120700000D03*
X148765000Y-120700000D03*
D19*
X142390000Y-117950000D03*
X147390000Y-117950000D03*
G04 #@! TD*
D20*
G04 #@! TO.C,MH1*
X126530000Y-93600000D03*
G04 #@! TD*
G04 #@! TO.C,MH2*
X131030000Y-119230000D03*
G04 #@! TD*
G04 #@! TO.C,MH3*
X164610000Y-64470000D03*
G04 #@! TD*
D16*
G04 #@! TO.C,J9*
X152390000Y-118040000D03*
D15*
X154930000Y-118040000D03*
X157470000Y-118040000D03*
X160010000Y-118040000D03*
X162550000Y-118040000D03*
X165090000Y-118040000D03*
G04 #@! TD*
M02*
