G04 #@! TF.GenerationSoftware,KiCad,Pcbnew,(5.0.0)*
G04 #@! TF.CreationDate,2019-10-27T09:20:16+11:00*
G04 #@! TF.ProjectId,Kineses_Board,4B696E657365735F426F6172642E6B69,rev?*
G04 #@! TF.SameCoordinates,Original*
G04 #@! TF.FileFunction,Soldermask,Bot*
G04 #@! TF.FilePolarity,Negative*
%FSLAX46Y46*%
G04 Gerber Fmt 4.6, Leading zero omitted, Abs format (unit mm)*
G04 Created by KiCad (PCBNEW (5.0.0)) date 10/27/19 09:20:16*
%MOMM*%
%LPD*%
G01*
G04 APERTURE LIST*
%ADD10R,2.100000X2.100000*%
%ADD11O,2.100000X2.100000*%
%ADD12C,2.600000*%
%ADD13R,2.000000X2.000000*%
%ADD14O,2.000000X2.000000*%
G04 APERTURE END LIST*
D10*
G04 #@! TO.C,J1*
X141970000Y-107310000D03*
D11*
X139430000Y-107310000D03*
G04 #@! TD*
D10*
G04 #@! TO.C,J6*
X158645000Y-112900000D03*
D11*
X156105000Y-112900000D03*
X153565000Y-112900000D03*
G04 #@! TD*
D12*
G04 #@! TO.C,MH1*
X159230000Y-95890000D03*
G04 #@! TD*
G04 #@! TO.C,MH2*
X159230000Y-63540000D03*
G04 #@! TD*
D13*
G04 #@! TO.C,A1*
X152010000Y-91600000D03*
D14*
X136770000Y-58580000D03*
X152010000Y-89060000D03*
X136770000Y-61120000D03*
X152010000Y-86520000D03*
X136770000Y-63660000D03*
X152010000Y-83980000D03*
X136770000Y-66200000D03*
X152010000Y-81440000D03*
X136770000Y-68740000D03*
X152010000Y-78900000D03*
X136770000Y-71280000D03*
X152010000Y-76360000D03*
X136770000Y-73820000D03*
X152010000Y-73820000D03*
X136770000Y-76360000D03*
X152010000Y-71280000D03*
X136770000Y-78900000D03*
X152010000Y-68740000D03*
X136770000Y-81440000D03*
X152010000Y-66200000D03*
X136770000Y-83980000D03*
X152010000Y-63660000D03*
X136770000Y-86520000D03*
X152010000Y-61120000D03*
X136770000Y-89060000D03*
X152010000Y-58580000D03*
X136770000Y-91600000D03*
X152010000Y-56040000D03*
X136770000Y-56040000D03*
G04 #@! TD*
D10*
G04 #@! TO.C,J2*
X158645000Y-116630000D03*
D11*
X156105000Y-116630000D03*
X153565000Y-116630000D03*
G04 #@! TD*
G04 #@! TO.C,J3*
X153565000Y-109120000D03*
X156105000Y-109120000D03*
D10*
X158645000Y-109120000D03*
G04 #@! TD*
G04 #@! TO.C,J4*
X158645000Y-105370000D03*
D11*
X156105000Y-105370000D03*
X153565000Y-105370000D03*
G04 #@! TD*
G04 #@! TO.C,J5*
X153565000Y-101590000D03*
X156105000Y-101590000D03*
D10*
X158645000Y-101590000D03*
G04 #@! TD*
D11*
G04 #@! TO.C,J7*
X157720000Y-53830000D03*
X157720000Y-56370000D03*
D10*
X157720000Y-58910000D03*
G04 #@! TD*
G04 #@! TO.C,J8*
X149500000Y-103480000D03*
D11*
X146960000Y-103480000D03*
X144420000Y-103480000D03*
X141880000Y-103480000D03*
X139340000Y-103480000D03*
X136800000Y-103480000D03*
G04 #@! TD*
M02*
