G04 #@! TF.GenerationSoftware,KiCad,Pcbnew,(5.0.0)*
G04 #@! TF.CreationDate,2019-10-27T09:20:16+11:00*
G04 #@! TF.ProjectId,Kineses_Board,4B696E657365735F426F6172642E6B69,rev?*
G04 #@! TF.SameCoordinates,Original*
G04 #@! TF.FileFunction,Copper,L1,Top,Signal*
G04 #@! TF.FilePolarity,Positive*
%FSLAX46Y46*%
G04 Gerber Fmt 4.6, Leading zero omitted, Abs format (unit mm)*
G04 Created by KiCad (PCBNEW (5.0.0)) date 10/27/19 09:20:16*
%MOMM*%
%LPD*%
G01*
G04 APERTURE LIST*
G04 #@! TA.AperFunction,SMDPad,CuDef*
%ADD10R,3.000000X1.600000*%
G04 #@! TD*
G04 #@! TA.AperFunction,ComponentPad*
%ADD11R,1.700000X1.700000*%
G04 #@! TD*
G04 #@! TA.AperFunction,ComponentPad*
%ADD12O,1.700000X1.700000*%
G04 #@! TD*
G04 #@! TA.AperFunction,ComponentPad*
%ADD13R,1.600000X1.600000*%
G04 #@! TD*
G04 #@! TA.AperFunction,ComponentPad*
%ADD14O,1.600000X1.600000*%
G04 #@! TD*
G04 #@! TA.AperFunction,Conductor*
%ADD15C,0.100000*%
G04 #@! TD*
G04 #@! TA.AperFunction,SMDPad,CuDef*
%ADD16C,0.590000*%
G04 #@! TD*
G04 #@! TA.AperFunction,Conductor*
%ADD17C,0.250000*%
G04 #@! TD*
G04 #@! TA.AperFunction,Conductor*
%ADD18C,0.500000*%
G04 #@! TD*
G04 #@! TA.AperFunction,Conductor*
%ADD19C,0.254000*%
G04 #@! TD*
G04 APERTURE END LIST*
D10*
G04 #@! TO.P,C1,1*
G04 #@! TO.N,/VIN*
X141020000Y-98670000D03*
G04 #@! TO.P,C1,2*
G04 #@! TO.N,/GND*
X145420000Y-98670000D03*
G04 #@! TD*
D11*
G04 #@! TO.P,J1,1*
G04 #@! TO.N,/GND*
X141970000Y-107310000D03*
D12*
G04 #@! TO.P,J1,2*
G04 #@! TO.N,/VIN*
X139430000Y-107310000D03*
G04 #@! TD*
D11*
G04 #@! TO.P,J6,1*
G04 #@! TO.N,/GND*
X158645000Y-112900000D03*
D12*
G04 #@! TO.P,J6,2*
G04 #@! TO.N,/VIN*
X156105000Y-112900000D03*
G04 #@! TO.P,J6,3*
G04 #@! TO.N,/Pinky*
X153565000Y-112900000D03*
G04 #@! TD*
D13*
G04 #@! TO.P,A1,1*
G04 #@! TO.N,Net-(A1-Pad1)*
X152010000Y-91600000D03*
D14*
G04 #@! TO.P,A1,17*
G04 #@! TO.N,Net-(A1-Pad17)*
X136770000Y-58580000D03*
G04 #@! TO.P,A1,2*
G04 #@! TO.N,/RX*
X152010000Y-89060000D03*
G04 #@! TO.P,A1,18*
G04 #@! TO.N,Net-(A1-Pad18)*
X136770000Y-61120000D03*
G04 #@! TO.P,A1,3*
G04 #@! TO.N,Net-(A1-Pad3)*
X152010000Y-86520000D03*
G04 #@! TO.P,A1,19*
G04 #@! TO.N,Net-(A1-Pad19)*
X136770000Y-63660000D03*
G04 #@! TO.P,A1,4*
G04 #@! TO.N,/GND*
X152010000Y-83980000D03*
G04 #@! TO.P,A1,20*
G04 #@! TO.N,Net-(A1-Pad20)*
X136770000Y-66200000D03*
G04 #@! TO.P,A1,5*
G04 #@! TO.N,Net-(A1-Pad5)*
X152010000Y-81440000D03*
G04 #@! TO.P,A1,21*
G04 #@! TO.N,Net-(A1-Pad21)*
X136770000Y-68740000D03*
G04 #@! TO.P,A1,6*
G04 #@! TO.N,/Wrist*
X152010000Y-78900000D03*
G04 #@! TO.P,A1,22*
G04 #@! TO.N,Net-(A1-Pad22)*
X136770000Y-71280000D03*
G04 #@! TO.P,A1,7*
G04 #@! TO.N,Net-(A1-Pad7)*
X152010000Y-76360000D03*
G04 #@! TO.P,A1,23*
G04 #@! TO.N,Net-(A1-Pad23)*
X136770000Y-73820000D03*
G04 #@! TO.P,A1,8*
G04 #@! TO.N,/Ring*
X152010000Y-73820000D03*
G04 #@! TO.P,A1,24*
G04 #@! TO.N,Net-(A1-Pad24)*
X136770000Y-76360000D03*
G04 #@! TO.P,A1,9*
G04 #@! TO.N,/Middle*
X152010000Y-71280000D03*
G04 #@! TO.P,A1,25*
G04 #@! TO.N,Net-(A1-Pad25)*
X136770000Y-78900000D03*
G04 #@! TO.P,A1,10*
G04 #@! TO.N,Net-(A1-Pad10)*
X152010000Y-68740000D03*
G04 #@! TO.P,A1,26*
G04 #@! TO.N,Net-(A1-Pad26)*
X136770000Y-81440000D03*
G04 #@! TO.P,A1,11*
G04 #@! TO.N,Net-(A1-Pad11)*
X152010000Y-66200000D03*
G04 #@! TO.P,A1,27*
G04 #@! TO.N,/+5V*
X136770000Y-83980000D03*
G04 #@! TO.P,A1,12*
G04 #@! TO.N,/Index*
X152010000Y-63660000D03*
G04 #@! TO.P,A1,28*
G04 #@! TO.N,Net-(A1-Pad28)*
X136770000Y-86520000D03*
G04 #@! TO.P,A1,13*
G04 #@! TO.N,/Pinky*
X152010000Y-61120000D03*
G04 #@! TO.P,A1,29*
G04 #@! TO.N,/GND*
X136770000Y-89060000D03*
G04 #@! TO.P,A1,14*
G04 #@! TO.N,/Thumb*
X152010000Y-58580000D03*
G04 #@! TO.P,A1,30*
G04 #@! TO.N,/VIN*
X136770000Y-91600000D03*
G04 #@! TO.P,A1,15*
G04 #@! TO.N,Net-(A1-Pad15)*
X152010000Y-56040000D03*
G04 #@! TO.P,A1,16*
G04 #@! TO.N,Net-(A1-Pad16)*
X136770000Y-56040000D03*
G04 #@! TD*
D15*
G04 #@! TO.N,/GND*
G04 #@! TO.C,C2*
G36*
X138666958Y-97110710D02*
X138681276Y-97112834D01*
X138695317Y-97116351D01*
X138708946Y-97121228D01*
X138722031Y-97127417D01*
X138734447Y-97134858D01*
X138746073Y-97143481D01*
X138756798Y-97153202D01*
X138766519Y-97163927D01*
X138775142Y-97175553D01*
X138782583Y-97187969D01*
X138788772Y-97201054D01*
X138793649Y-97214683D01*
X138797166Y-97228724D01*
X138799290Y-97243042D01*
X138800000Y-97257500D01*
X138800000Y-97552500D01*
X138799290Y-97566958D01*
X138797166Y-97581276D01*
X138793649Y-97595317D01*
X138788772Y-97608946D01*
X138782583Y-97622031D01*
X138775142Y-97634447D01*
X138766519Y-97646073D01*
X138756798Y-97656798D01*
X138746073Y-97666519D01*
X138734447Y-97675142D01*
X138722031Y-97682583D01*
X138708946Y-97688772D01*
X138695317Y-97693649D01*
X138681276Y-97697166D01*
X138666958Y-97699290D01*
X138652500Y-97700000D01*
X138307500Y-97700000D01*
X138293042Y-97699290D01*
X138278724Y-97697166D01*
X138264683Y-97693649D01*
X138251054Y-97688772D01*
X138237969Y-97682583D01*
X138225553Y-97675142D01*
X138213927Y-97666519D01*
X138203202Y-97656798D01*
X138193481Y-97646073D01*
X138184858Y-97634447D01*
X138177417Y-97622031D01*
X138171228Y-97608946D01*
X138166351Y-97595317D01*
X138162834Y-97581276D01*
X138160710Y-97566958D01*
X138160000Y-97552500D01*
X138160000Y-97257500D01*
X138160710Y-97243042D01*
X138162834Y-97228724D01*
X138166351Y-97214683D01*
X138171228Y-97201054D01*
X138177417Y-97187969D01*
X138184858Y-97175553D01*
X138193481Y-97163927D01*
X138203202Y-97153202D01*
X138213927Y-97143481D01*
X138225553Y-97134858D01*
X138237969Y-97127417D01*
X138251054Y-97121228D01*
X138264683Y-97116351D01*
X138278724Y-97112834D01*
X138293042Y-97110710D01*
X138307500Y-97110000D01*
X138652500Y-97110000D01*
X138666958Y-97110710D01*
X138666958Y-97110710D01*
G37*
D16*
G04 #@! TD*
G04 #@! TO.P,C2,1*
G04 #@! TO.N,/GND*
X138480000Y-97405000D03*
D15*
G04 #@! TO.N,/VIN*
G04 #@! TO.C,C2*
G36*
X138666958Y-96140710D02*
X138681276Y-96142834D01*
X138695317Y-96146351D01*
X138708946Y-96151228D01*
X138722031Y-96157417D01*
X138734447Y-96164858D01*
X138746073Y-96173481D01*
X138756798Y-96183202D01*
X138766519Y-96193927D01*
X138775142Y-96205553D01*
X138782583Y-96217969D01*
X138788772Y-96231054D01*
X138793649Y-96244683D01*
X138797166Y-96258724D01*
X138799290Y-96273042D01*
X138800000Y-96287500D01*
X138800000Y-96582500D01*
X138799290Y-96596958D01*
X138797166Y-96611276D01*
X138793649Y-96625317D01*
X138788772Y-96638946D01*
X138782583Y-96652031D01*
X138775142Y-96664447D01*
X138766519Y-96676073D01*
X138756798Y-96686798D01*
X138746073Y-96696519D01*
X138734447Y-96705142D01*
X138722031Y-96712583D01*
X138708946Y-96718772D01*
X138695317Y-96723649D01*
X138681276Y-96727166D01*
X138666958Y-96729290D01*
X138652500Y-96730000D01*
X138307500Y-96730000D01*
X138293042Y-96729290D01*
X138278724Y-96727166D01*
X138264683Y-96723649D01*
X138251054Y-96718772D01*
X138237969Y-96712583D01*
X138225553Y-96705142D01*
X138213927Y-96696519D01*
X138203202Y-96686798D01*
X138193481Y-96676073D01*
X138184858Y-96664447D01*
X138177417Y-96652031D01*
X138171228Y-96638946D01*
X138166351Y-96625317D01*
X138162834Y-96611276D01*
X138160710Y-96596958D01*
X138160000Y-96582500D01*
X138160000Y-96287500D01*
X138160710Y-96273042D01*
X138162834Y-96258724D01*
X138166351Y-96244683D01*
X138171228Y-96231054D01*
X138177417Y-96217969D01*
X138184858Y-96205553D01*
X138193481Y-96193927D01*
X138203202Y-96183202D01*
X138213927Y-96173481D01*
X138225553Y-96164858D01*
X138237969Y-96157417D01*
X138251054Y-96151228D01*
X138264683Y-96146351D01*
X138278724Y-96142834D01*
X138293042Y-96140710D01*
X138307500Y-96140000D01*
X138652500Y-96140000D01*
X138666958Y-96140710D01*
X138666958Y-96140710D01*
G37*
D16*
G04 #@! TD*
G04 #@! TO.P,C2,2*
G04 #@! TO.N,/VIN*
X138480000Y-96435000D03*
D15*
G04 #@! TO.N,/VIN*
G04 #@! TO.C,C3*
G36*
X137571958Y-96160710D02*
X137586276Y-96162834D01*
X137600317Y-96166351D01*
X137613946Y-96171228D01*
X137627031Y-96177417D01*
X137639447Y-96184858D01*
X137651073Y-96193481D01*
X137661798Y-96203202D01*
X137671519Y-96213927D01*
X137680142Y-96225553D01*
X137687583Y-96237969D01*
X137693772Y-96251054D01*
X137698649Y-96264683D01*
X137702166Y-96278724D01*
X137704290Y-96293042D01*
X137705000Y-96307500D01*
X137705000Y-96602500D01*
X137704290Y-96616958D01*
X137702166Y-96631276D01*
X137698649Y-96645317D01*
X137693772Y-96658946D01*
X137687583Y-96672031D01*
X137680142Y-96684447D01*
X137671519Y-96696073D01*
X137661798Y-96706798D01*
X137651073Y-96716519D01*
X137639447Y-96725142D01*
X137627031Y-96732583D01*
X137613946Y-96738772D01*
X137600317Y-96743649D01*
X137586276Y-96747166D01*
X137571958Y-96749290D01*
X137557500Y-96750000D01*
X137212500Y-96750000D01*
X137198042Y-96749290D01*
X137183724Y-96747166D01*
X137169683Y-96743649D01*
X137156054Y-96738772D01*
X137142969Y-96732583D01*
X137130553Y-96725142D01*
X137118927Y-96716519D01*
X137108202Y-96706798D01*
X137098481Y-96696073D01*
X137089858Y-96684447D01*
X137082417Y-96672031D01*
X137076228Y-96658946D01*
X137071351Y-96645317D01*
X137067834Y-96631276D01*
X137065710Y-96616958D01*
X137065000Y-96602500D01*
X137065000Y-96307500D01*
X137065710Y-96293042D01*
X137067834Y-96278724D01*
X137071351Y-96264683D01*
X137076228Y-96251054D01*
X137082417Y-96237969D01*
X137089858Y-96225553D01*
X137098481Y-96213927D01*
X137108202Y-96203202D01*
X137118927Y-96193481D01*
X137130553Y-96184858D01*
X137142969Y-96177417D01*
X137156054Y-96171228D01*
X137169683Y-96166351D01*
X137183724Y-96162834D01*
X137198042Y-96160710D01*
X137212500Y-96160000D01*
X137557500Y-96160000D01*
X137571958Y-96160710D01*
X137571958Y-96160710D01*
G37*
D16*
G04 #@! TD*
G04 #@! TO.P,C3,2*
G04 #@! TO.N,/VIN*
X137385000Y-96455000D03*
D15*
G04 #@! TO.N,/GND*
G04 #@! TO.C,C3*
G36*
X137571958Y-97130710D02*
X137586276Y-97132834D01*
X137600317Y-97136351D01*
X137613946Y-97141228D01*
X137627031Y-97147417D01*
X137639447Y-97154858D01*
X137651073Y-97163481D01*
X137661798Y-97173202D01*
X137671519Y-97183927D01*
X137680142Y-97195553D01*
X137687583Y-97207969D01*
X137693772Y-97221054D01*
X137698649Y-97234683D01*
X137702166Y-97248724D01*
X137704290Y-97263042D01*
X137705000Y-97277500D01*
X137705000Y-97572500D01*
X137704290Y-97586958D01*
X137702166Y-97601276D01*
X137698649Y-97615317D01*
X137693772Y-97628946D01*
X137687583Y-97642031D01*
X137680142Y-97654447D01*
X137671519Y-97666073D01*
X137661798Y-97676798D01*
X137651073Y-97686519D01*
X137639447Y-97695142D01*
X137627031Y-97702583D01*
X137613946Y-97708772D01*
X137600317Y-97713649D01*
X137586276Y-97717166D01*
X137571958Y-97719290D01*
X137557500Y-97720000D01*
X137212500Y-97720000D01*
X137198042Y-97719290D01*
X137183724Y-97717166D01*
X137169683Y-97713649D01*
X137156054Y-97708772D01*
X137142969Y-97702583D01*
X137130553Y-97695142D01*
X137118927Y-97686519D01*
X137108202Y-97676798D01*
X137098481Y-97666073D01*
X137089858Y-97654447D01*
X137082417Y-97642031D01*
X137076228Y-97628946D01*
X137071351Y-97615317D01*
X137067834Y-97601276D01*
X137065710Y-97586958D01*
X137065000Y-97572500D01*
X137065000Y-97277500D01*
X137065710Y-97263042D01*
X137067834Y-97248724D01*
X137071351Y-97234683D01*
X137076228Y-97221054D01*
X137082417Y-97207969D01*
X137089858Y-97195553D01*
X137098481Y-97183927D01*
X137108202Y-97173202D01*
X137118927Y-97163481D01*
X137130553Y-97154858D01*
X137142969Y-97147417D01*
X137156054Y-97141228D01*
X137169683Y-97136351D01*
X137183724Y-97132834D01*
X137198042Y-97130710D01*
X137212500Y-97130000D01*
X137557500Y-97130000D01*
X137571958Y-97130710D01*
X137571958Y-97130710D01*
G37*
D16*
G04 #@! TD*
G04 #@! TO.P,C3,1*
G04 #@! TO.N,/GND*
X137385000Y-97425000D03*
D15*
G04 #@! TO.N,/GND*
G04 #@! TO.C,C4*
G36*
X136476958Y-97130710D02*
X136491276Y-97132834D01*
X136505317Y-97136351D01*
X136518946Y-97141228D01*
X136532031Y-97147417D01*
X136544447Y-97154858D01*
X136556073Y-97163481D01*
X136566798Y-97173202D01*
X136576519Y-97183927D01*
X136585142Y-97195553D01*
X136592583Y-97207969D01*
X136598772Y-97221054D01*
X136603649Y-97234683D01*
X136607166Y-97248724D01*
X136609290Y-97263042D01*
X136610000Y-97277500D01*
X136610000Y-97572500D01*
X136609290Y-97586958D01*
X136607166Y-97601276D01*
X136603649Y-97615317D01*
X136598772Y-97628946D01*
X136592583Y-97642031D01*
X136585142Y-97654447D01*
X136576519Y-97666073D01*
X136566798Y-97676798D01*
X136556073Y-97686519D01*
X136544447Y-97695142D01*
X136532031Y-97702583D01*
X136518946Y-97708772D01*
X136505317Y-97713649D01*
X136491276Y-97717166D01*
X136476958Y-97719290D01*
X136462500Y-97720000D01*
X136117500Y-97720000D01*
X136103042Y-97719290D01*
X136088724Y-97717166D01*
X136074683Y-97713649D01*
X136061054Y-97708772D01*
X136047969Y-97702583D01*
X136035553Y-97695142D01*
X136023927Y-97686519D01*
X136013202Y-97676798D01*
X136003481Y-97666073D01*
X135994858Y-97654447D01*
X135987417Y-97642031D01*
X135981228Y-97628946D01*
X135976351Y-97615317D01*
X135972834Y-97601276D01*
X135970710Y-97586958D01*
X135970000Y-97572500D01*
X135970000Y-97277500D01*
X135970710Y-97263042D01*
X135972834Y-97248724D01*
X135976351Y-97234683D01*
X135981228Y-97221054D01*
X135987417Y-97207969D01*
X135994858Y-97195553D01*
X136003481Y-97183927D01*
X136013202Y-97173202D01*
X136023927Y-97163481D01*
X136035553Y-97154858D01*
X136047969Y-97147417D01*
X136061054Y-97141228D01*
X136074683Y-97136351D01*
X136088724Y-97132834D01*
X136103042Y-97130710D01*
X136117500Y-97130000D01*
X136462500Y-97130000D01*
X136476958Y-97130710D01*
X136476958Y-97130710D01*
G37*
D16*
G04 #@! TD*
G04 #@! TO.P,C4,1*
G04 #@! TO.N,/GND*
X136290000Y-97425000D03*
D15*
G04 #@! TO.N,/VIN*
G04 #@! TO.C,C4*
G36*
X136476958Y-96160710D02*
X136491276Y-96162834D01*
X136505317Y-96166351D01*
X136518946Y-96171228D01*
X136532031Y-96177417D01*
X136544447Y-96184858D01*
X136556073Y-96193481D01*
X136566798Y-96203202D01*
X136576519Y-96213927D01*
X136585142Y-96225553D01*
X136592583Y-96237969D01*
X136598772Y-96251054D01*
X136603649Y-96264683D01*
X136607166Y-96278724D01*
X136609290Y-96293042D01*
X136610000Y-96307500D01*
X136610000Y-96602500D01*
X136609290Y-96616958D01*
X136607166Y-96631276D01*
X136603649Y-96645317D01*
X136598772Y-96658946D01*
X136592583Y-96672031D01*
X136585142Y-96684447D01*
X136576519Y-96696073D01*
X136566798Y-96706798D01*
X136556073Y-96716519D01*
X136544447Y-96725142D01*
X136532031Y-96732583D01*
X136518946Y-96738772D01*
X136505317Y-96743649D01*
X136491276Y-96747166D01*
X136476958Y-96749290D01*
X136462500Y-96750000D01*
X136117500Y-96750000D01*
X136103042Y-96749290D01*
X136088724Y-96747166D01*
X136074683Y-96743649D01*
X136061054Y-96738772D01*
X136047969Y-96732583D01*
X136035553Y-96725142D01*
X136023927Y-96716519D01*
X136013202Y-96706798D01*
X136003481Y-96696073D01*
X135994858Y-96684447D01*
X135987417Y-96672031D01*
X135981228Y-96658946D01*
X135976351Y-96645317D01*
X135972834Y-96631276D01*
X135970710Y-96616958D01*
X135970000Y-96602500D01*
X135970000Y-96307500D01*
X135970710Y-96293042D01*
X135972834Y-96278724D01*
X135976351Y-96264683D01*
X135981228Y-96251054D01*
X135987417Y-96237969D01*
X135994858Y-96225553D01*
X136003481Y-96213927D01*
X136013202Y-96203202D01*
X136023927Y-96193481D01*
X136035553Y-96184858D01*
X136047969Y-96177417D01*
X136061054Y-96171228D01*
X136074683Y-96166351D01*
X136088724Y-96162834D01*
X136103042Y-96160710D01*
X136117500Y-96160000D01*
X136462500Y-96160000D01*
X136476958Y-96160710D01*
X136476958Y-96160710D01*
G37*
D16*
G04 #@! TD*
G04 #@! TO.P,C4,2*
G04 #@! TO.N,/VIN*
X136290000Y-96455000D03*
D11*
G04 #@! TO.P,J2,1*
G04 #@! TO.N,/GND*
X158645000Y-116630000D03*
D12*
G04 #@! TO.P,J2,2*
G04 #@! TO.N,/VIN*
X156105000Y-116630000D03*
G04 #@! TO.P,J2,3*
G04 #@! TO.N,/Thumb*
X153565000Y-116630000D03*
G04 #@! TD*
G04 #@! TO.P,J3,3*
G04 #@! TO.N,/Index*
X153565000Y-109120000D03*
G04 #@! TO.P,J3,2*
G04 #@! TO.N,/VIN*
X156105000Y-109120000D03*
D11*
G04 #@! TO.P,J3,1*
G04 #@! TO.N,/GND*
X158645000Y-109120000D03*
G04 #@! TD*
G04 #@! TO.P,J4,1*
G04 #@! TO.N,/GND*
X158645000Y-105370000D03*
D12*
G04 #@! TO.P,J4,2*
G04 #@! TO.N,/VIN*
X156105000Y-105370000D03*
G04 #@! TO.P,J4,3*
G04 #@! TO.N,/Middle*
X153565000Y-105370000D03*
G04 #@! TD*
G04 #@! TO.P,J5,3*
G04 #@! TO.N,/Ring*
X153565000Y-101590000D03*
G04 #@! TO.P,J5,2*
G04 #@! TO.N,/VIN*
X156105000Y-101590000D03*
D11*
G04 #@! TO.P,J5,1*
G04 #@! TO.N,/GND*
X158645000Y-101590000D03*
G04 #@! TD*
D12*
G04 #@! TO.P,J7,3*
G04 #@! TO.N,/Wrist*
X157720000Y-53830000D03*
G04 #@! TO.P,J7,2*
G04 #@! TO.N,/VIN*
X157720000Y-56370000D03*
D11*
G04 #@! TO.P,J7,1*
G04 #@! TO.N,/GND*
X157720000Y-58910000D03*
G04 #@! TD*
G04 #@! TO.P,J8,1*
G04 #@! TO.N,Net-(J8-Pad1)*
X149500000Y-103480000D03*
D12*
G04 #@! TO.P,J8,2*
G04 #@! TO.N,/TX*
X146960000Y-103480000D03*
G04 #@! TO.P,J8,3*
G04 #@! TO.N,/RX*
X144420000Y-103480000D03*
G04 #@! TO.P,J8,4*
G04 #@! TO.N,/GND*
X141880000Y-103480000D03*
G04 #@! TO.P,J8,5*
G04 #@! TO.N,/+5V*
X139340000Y-103480000D03*
G04 #@! TO.P,J8,6*
G04 #@! TO.N,Net-(J8-Pad6)*
X136800000Y-103480000D03*
G04 #@! TD*
D15*
G04 #@! TO.N,/GND*
G04 #@! TO.C,R1*
G36*
X155556958Y-96120710D02*
X155571276Y-96122834D01*
X155585317Y-96126351D01*
X155598946Y-96131228D01*
X155612031Y-96137417D01*
X155624447Y-96144858D01*
X155636073Y-96153481D01*
X155646798Y-96163202D01*
X155656519Y-96173927D01*
X155665142Y-96185553D01*
X155672583Y-96197969D01*
X155678772Y-96211054D01*
X155683649Y-96224683D01*
X155687166Y-96238724D01*
X155689290Y-96253042D01*
X155690000Y-96267500D01*
X155690000Y-96612500D01*
X155689290Y-96626958D01*
X155687166Y-96641276D01*
X155683649Y-96655317D01*
X155678772Y-96668946D01*
X155672583Y-96682031D01*
X155665142Y-96694447D01*
X155656519Y-96706073D01*
X155646798Y-96716798D01*
X155636073Y-96726519D01*
X155624447Y-96735142D01*
X155612031Y-96742583D01*
X155598946Y-96748772D01*
X155585317Y-96753649D01*
X155571276Y-96757166D01*
X155556958Y-96759290D01*
X155542500Y-96760000D01*
X155247500Y-96760000D01*
X155233042Y-96759290D01*
X155218724Y-96757166D01*
X155204683Y-96753649D01*
X155191054Y-96748772D01*
X155177969Y-96742583D01*
X155165553Y-96735142D01*
X155153927Y-96726519D01*
X155143202Y-96716798D01*
X155133481Y-96706073D01*
X155124858Y-96694447D01*
X155117417Y-96682031D01*
X155111228Y-96668946D01*
X155106351Y-96655317D01*
X155102834Y-96641276D01*
X155100710Y-96626958D01*
X155100000Y-96612500D01*
X155100000Y-96267500D01*
X155100710Y-96253042D01*
X155102834Y-96238724D01*
X155106351Y-96224683D01*
X155111228Y-96211054D01*
X155117417Y-96197969D01*
X155124858Y-96185553D01*
X155133481Y-96173927D01*
X155143202Y-96163202D01*
X155153927Y-96153481D01*
X155165553Y-96144858D01*
X155177969Y-96137417D01*
X155191054Y-96131228D01*
X155204683Y-96126351D01*
X155218724Y-96122834D01*
X155233042Y-96120710D01*
X155247500Y-96120000D01*
X155542500Y-96120000D01*
X155556958Y-96120710D01*
X155556958Y-96120710D01*
G37*
D16*
G04 #@! TD*
G04 #@! TO.P,R1,2*
G04 #@! TO.N,/GND*
X155395000Y-96440000D03*
D15*
G04 #@! TO.N,/TX*
G04 #@! TO.C,R1*
G36*
X154586958Y-96120710D02*
X154601276Y-96122834D01*
X154615317Y-96126351D01*
X154628946Y-96131228D01*
X154642031Y-96137417D01*
X154654447Y-96144858D01*
X154666073Y-96153481D01*
X154676798Y-96163202D01*
X154686519Y-96173927D01*
X154695142Y-96185553D01*
X154702583Y-96197969D01*
X154708772Y-96211054D01*
X154713649Y-96224683D01*
X154717166Y-96238724D01*
X154719290Y-96253042D01*
X154720000Y-96267500D01*
X154720000Y-96612500D01*
X154719290Y-96626958D01*
X154717166Y-96641276D01*
X154713649Y-96655317D01*
X154708772Y-96668946D01*
X154702583Y-96682031D01*
X154695142Y-96694447D01*
X154686519Y-96706073D01*
X154676798Y-96716798D01*
X154666073Y-96726519D01*
X154654447Y-96735142D01*
X154642031Y-96742583D01*
X154628946Y-96748772D01*
X154615317Y-96753649D01*
X154601276Y-96757166D01*
X154586958Y-96759290D01*
X154572500Y-96760000D01*
X154277500Y-96760000D01*
X154263042Y-96759290D01*
X154248724Y-96757166D01*
X154234683Y-96753649D01*
X154221054Y-96748772D01*
X154207969Y-96742583D01*
X154195553Y-96735142D01*
X154183927Y-96726519D01*
X154173202Y-96716798D01*
X154163481Y-96706073D01*
X154154858Y-96694447D01*
X154147417Y-96682031D01*
X154141228Y-96668946D01*
X154136351Y-96655317D01*
X154132834Y-96641276D01*
X154130710Y-96626958D01*
X154130000Y-96612500D01*
X154130000Y-96267500D01*
X154130710Y-96253042D01*
X154132834Y-96238724D01*
X154136351Y-96224683D01*
X154141228Y-96211054D01*
X154147417Y-96197969D01*
X154154858Y-96185553D01*
X154163481Y-96173927D01*
X154173202Y-96163202D01*
X154183927Y-96153481D01*
X154195553Y-96144858D01*
X154207969Y-96137417D01*
X154221054Y-96131228D01*
X154234683Y-96126351D01*
X154248724Y-96122834D01*
X154263042Y-96120710D01*
X154277500Y-96120000D01*
X154572500Y-96120000D01*
X154586958Y-96120710D01*
X154586958Y-96120710D01*
G37*
D16*
G04 #@! TD*
G04 #@! TO.P,R1,1*
G04 #@! TO.N,/TX*
X154425000Y-96440000D03*
D15*
G04 #@! TO.N,/TX*
G04 #@! TO.C,R2*
G36*
X154606958Y-94590710D02*
X154621276Y-94592834D01*
X154635317Y-94596351D01*
X154648946Y-94601228D01*
X154662031Y-94607417D01*
X154674447Y-94614858D01*
X154686073Y-94623481D01*
X154696798Y-94633202D01*
X154706519Y-94643927D01*
X154715142Y-94655553D01*
X154722583Y-94667969D01*
X154728772Y-94681054D01*
X154733649Y-94694683D01*
X154737166Y-94708724D01*
X154739290Y-94723042D01*
X154740000Y-94737500D01*
X154740000Y-95032500D01*
X154739290Y-95046958D01*
X154737166Y-95061276D01*
X154733649Y-95075317D01*
X154728772Y-95088946D01*
X154722583Y-95102031D01*
X154715142Y-95114447D01*
X154706519Y-95126073D01*
X154696798Y-95136798D01*
X154686073Y-95146519D01*
X154674447Y-95155142D01*
X154662031Y-95162583D01*
X154648946Y-95168772D01*
X154635317Y-95173649D01*
X154621276Y-95177166D01*
X154606958Y-95179290D01*
X154592500Y-95180000D01*
X154247500Y-95180000D01*
X154233042Y-95179290D01*
X154218724Y-95177166D01*
X154204683Y-95173649D01*
X154191054Y-95168772D01*
X154177969Y-95162583D01*
X154165553Y-95155142D01*
X154153927Y-95146519D01*
X154143202Y-95136798D01*
X154133481Y-95126073D01*
X154124858Y-95114447D01*
X154117417Y-95102031D01*
X154111228Y-95088946D01*
X154106351Y-95075317D01*
X154102834Y-95061276D01*
X154100710Y-95046958D01*
X154100000Y-95032500D01*
X154100000Y-94737500D01*
X154100710Y-94723042D01*
X154102834Y-94708724D01*
X154106351Y-94694683D01*
X154111228Y-94681054D01*
X154117417Y-94667969D01*
X154124858Y-94655553D01*
X154133481Y-94643927D01*
X154143202Y-94633202D01*
X154153927Y-94623481D01*
X154165553Y-94614858D01*
X154177969Y-94607417D01*
X154191054Y-94601228D01*
X154204683Y-94596351D01*
X154218724Y-94592834D01*
X154233042Y-94590710D01*
X154247500Y-94590000D01*
X154592500Y-94590000D01*
X154606958Y-94590710D01*
X154606958Y-94590710D01*
G37*
D16*
G04 #@! TD*
G04 #@! TO.P,R2,1*
G04 #@! TO.N,/TX*
X154420000Y-94885000D03*
D15*
G04 #@! TO.N,Net-(A1-Pad1)*
G04 #@! TO.C,R2*
G36*
X154606958Y-93620710D02*
X154621276Y-93622834D01*
X154635317Y-93626351D01*
X154648946Y-93631228D01*
X154662031Y-93637417D01*
X154674447Y-93644858D01*
X154686073Y-93653481D01*
X154696798Y-93663202D01*
X154706519Y-93673927D01*
X154715142Y-93685553D01*
X154722583Y-93697969D01*
X154728772Y-93711054D01*
X154733649Y-93724683D01*
X154737166Y-93738724D01*
X154739290Y-93753042D01*
X154740000Y-93767500D01*
X154740000Y-94062500D01*
X154739290Y-94076958D01*
X154737166Y-94091276D01*
X154733649Y-94105317D01*
X154728772Y-94118946D01*
X154722583Y-94132031D01*
X154715142Y-94144447D01*
X154706519Y-94156073D01*
X154696798Y-94166798D01*
X154686073Y-94176519D01*
X154674447Y-94185142D01*
X154662031Y-94192583D01*
X154648946Y-94198772D01*
X154635317Y-94203649D01*
X154621276Y-94207166D01*
X154606958Y-94209290D01*
X154592500Y-94210000D01*
X154247500Y-94210000D01*
X154233042Y-94209290D01*
X154218724Y-94207166D01*
X154204683Y-94203649D01*
X154191054Y-94198772D01*
X154177969Y-94192583D01*
X154165553Y-94185142D01*
X154153927Y-94176519D01*
X154143202Y-94166798D01*
X154133481Y-94156073D01*
X154124858Y-94144447D01*
X154117417Y-94132031D01*
X154111228Y-94118946D01*
X154106351Y-94105317D01*
X154102834Y-94091276D01*
X154100710Y-94076958D01*
X154100000Y-94062500D01*
X154100000Y-93767500D01*
X154100710Y-93753042D01*
X154102834Y-93738724D01*
X154106351Y-93724683D01*
X154111228Y-93711054D01*
X154117417Y-93697969D01*
X154124858Y-93685553D01*
X154133481Y-93673927D01*
X154143202Y-93663202D01*
X154153927Y-93653481D01*
X154165553Y-93644858D01*
X154177969Y-93637417D01*
X154191054Y-93631228D01*
X154204683Y-93626351D01*
X154218724Y-93622834D01*
X154233042Y-93620710D01*
X154247500Y-93620000D01*
X154592500Y-93620000D01*
X154606958Y-93620710D01*
X154606958Y-93620710D01*
G37*
D16*
G04 #@! TD*
G04 #@! TO.P,R2,2*
G04 #@! TO.N,Net-(A1-Pad1)*
X154420000Y-93915000D03*
D17*
G04 #@! TO.N,Net-(A1-Pad1)*
X154000000Y-93915000D02*
X154420000Y-93915000D01*
X153275000Y-93915000D02*
X154000000Y-93915000D01*
X152010000Y-92650000D02*
X153275000Y-93915000D01*
X152010000Y-91600000D02*
X152010000Y-92650000D01*
G04 #@! TO.N,/RX*
X150130000Y-90940000D02*
X152010000Y-89060000D01*
X150130000Y-97300000D02*
X150130000Y-90940000D01*
X150130000Y-97300000D02*
X148355001Y-99074999D01*
X148355001Y-99074999D02*
X148355001Y-99114999D01*
X148355001Y-99544999D02*
X148355001Y-99074999D01*
X144420000Y-103480000D02*
X148355001Y-99544999D01*
G04 #@! TO.N,/Wrist*
X152809999Y-78100001D02*
X152010000Y-78900000D01*
X154080000Y-76830000D02*
X152809999Y-78100001D01*
X154080000Y-57470000D02*
X154080000Y-76830000D01*
X157720000Y-53830000D02*
X154080000Y-57470000D01*
G04 #@! TO.N,/VIN*
X138900000Y-96435000D02*
X138480000Y-96435000D01*
D18*
X140055000Y-96435000D02*
X138900000Y-96435000D01*
X140750000Y-97130000D02*
X140055000Y-96435000D01*
X140750000Y-98180000D02*
X140750000Y-97130000D01*
D17*
X137405000Y-96435000D02*
X137385000Y-96455000D01*
D18*
X138480000Y-96435000D02*
X137405000Y-96435000D01*
X137385000Y-96455000D02*
X136290000Y-96455000D01*
X136290000Y-92080000D02*
X136770000Y-91600000D01*
X136290000Y-96455000D02*
X136290000Y-92080000D01*
D17*
G04 #@! TO.N,/TX*
X154420000Y-96435000D02*
X154425000Y-96440000D01*
X154420000Y-94885000D02*
X154420000Y-96435000D01*
X146960000Y-105070000D02*
X146960000Y-103480000D01*
X147650000Y-105760000D02*
X146960000Y-105070000D01*
X154759168Y-96774168D02*
X154759168Y-102134834D01*
X154425000Y-96440000D02*
X154759168Y-96774168D01*
X154759168Y-102134834D02*
X152273992Y-104620010D01*
X152273992Y-104620010D02*
X152259990Y-104620010D01*
X152259990Y-104620010D02*
X151120000Y-105760000D01*
X151120000Y-105760000D02*
X147650000Y-105760000D01*
G04 #@! TD*
D19*
G04 #@! TO.N,/GND*
G36*
X157055007Y-52488340D02*
X156649375Y-52759375D01*
X156321161Y-53250582D01*
X156205908Y-53830000D01*
X156278791Y-54196407D01*
X153595530Y-56879669D01*
X153532071Y-56922071D01*
X153364096Y-57173464D01*
X153320000Y-57395149D01*
X153320000Y-57395153D01*
X153305112Y-57470000D01*
X153320000Y-57544847D01*
X153320000Y-57957623D01*
X153044577Y-57545423D01*
X152692242Y-57310000D01*
X153044577Y-57074577D01*
X153361740Y-56599909D01*
X153473113Y-56040000D01*
X153361740Y-55480091D01*
X153044577Y-55005423D01*
X152569909Y-54688260D01*
X152151333Y-54605000D01*
X151868667Y-54605000D01*
X151450091Y-54688260D01*
X150975423Y-55005423D01*
X150658260Y-55480091D01*
X150546887Y-56040000D01*
X150658260Y-56599909D01*
X150975423Y-57074577D01*
X151327758Y-57310000D01*
X150975423Y-57545423D01*
X150658260Y-58020091D01*
X150546887Y-58580000D01*
X150658260Y-59139909D01*
X150975423Y-59614577D01*
X151327758Y-59850000D01*
X150975423Y-60085423D01*
X150658260Y-60560091D01*
X150546887Y-61120000D01*
X150658260Y-61679909D01*
X150975423Y-62154577D01*
X151327758Y-62390000D01*
X150975423Y-62625423D01*
X150658260Y-63100091D01*
X150546887Y-63660000D01*
X150658260Y-64219909D01*
X150975423Y-64694577D01*
X151327758Y-64930000D01*
X150975423Y-65165423D01*
X150658260Y-65640091D01*
X150546887Y-66200000D01*
X150658260Y-66759909D01*
X150975423Y-67234577D01*
X151327758Y-67470000D01*
X150975423Y-67705423D01*
X150658260Y-68180091D01*
X150546887Y-68740000D01*
X150658260Y-69299909D01*
X150975423Y-69774577D01*
X151327758Y-70010000D01*
X150975423Y-70245423D01*
X150658260Y-70720091D01*
X150546887Y-71280000D01*
X150658260Y-71839909D01*
X150975423Y-72314577D01*
X151327758Y-72550000D01*
X150975423Y-72785423D01*
X150658260Y-73260091D01*
X150546887Y-73820000D01*
X150658260Y-74379909D01*
X150975423Y-74854577D01*
X151327758Y-75090000D01*
X150975423Y-75325423D01*
X150658260Y-75800091D01*
X150546887Y-76360000D01*
X150658260Y-76919909D01*
X150975423Y-77394577D01*
X151327758Y-77630000D01*
X150975423Y-77865423D01*
X150658260Y-78340091D01*
X150546887Y-78900000D01*
X150658260Y-79459909D01*
X150975423Y-79934577D01*
X151327758Y-80170000D01*
X150975423Y-80405423D01*
X150658260Y-80880091D01*
X150546887Y-81440000D01*
X150658260Y-81999909D01*
X150975423Y-82474577D01*
X151359108Y-82730947D01*
X151154866Y-82827611D01*
X150778959Y-83242577D01*
X150618096Y-83630961D01*
X150740085Y-83853000D01*
X151883000Y-83853000D01*
X151883000Y-83833000D01*
X152137000Y-83833000D01*
X152137000Y-83853000D01*
X153279915Y-83853000D01*
X153401904Y-83630961D01*
X153241041Y-83242577D01*
X152865134Y-82827611D01*
X152660892Y-82730947D01*
X153044577Y-82474577D01*
X153361740Y-81999909D01*
X153473113Y-81440000D01*
X153361740Y-80880091D01*
X153044577Y-80405423D01*
X152692242Y-80170000D01*
X153044577Y-79934577D01*
X153361740Y-79459909D01*
X153473113Y-78900000D01*
X153408688Y-78576113D01*
X154564473Y-77420329D01*
X154627929Y-77377929D01*
X154795904Y-77126537D01*
X154840000Y-76904852D01*
X154840000Y-76904848D01*
X154854888Y-76830000D01*
X154840000Y-76755152D01*
X154840000Y-59195750D01*
X156235000Y-59195750D01*
X156235000Y-59886310D01*
X156331673Y-60119699D01*
X156510302Y-60298327D01*
X156743691Y-60395000D01*
X157434250Y-60395000D01*
X157593000Y-60236250D01*
X157593000Y-59037000D01*
X157847000Y-59037000D01*
X157847000Y-60236250D01*
X158005750Y-60395000D01*
X158696309Y-60395000D01*
X158929698Y-60298327D01*
X159108327Y-60119699D01*
X159205000Y-59886310D01*
X159205000Y-59195750D01*
X159046250Y-59037000D01*
X157847000Y-59037000D01*
X157593000Y-59037000D01*
X156393750Y-59037000D01*
X156235000Y-59195750D01*
X154840000Y-59195750D01*
X154840000Y-57784801D01*
X156214020Y-56410782D01*
X156321161Y-56949418D01*
X156649375Y-57440625D01*
X156671033Y-57455096D01*
X156510302Y-57521673D01*
X156331673Y-57700301D01*
X156235000Y-57933690D01*
X156235000Y-58624250D01*
X156393750Y-58783000D01*
X157593000Y-58783000D01*
X157593000Y-58763000D01*
X157847000Y-58763000D01*
X157847000Y-58783000D01*
X159046250Y-58783000D01*
X159205000Y-58624250D01*
X159205000Y-57933690D01*
X159108327Y-57700301D01*
X158929698Y-57521673D01*
X158768967Y-57455096D01*
X158790625Y-57440625D01*
X159118839Y-56949418D01*
X159234092Y-56370000D01*
X159118839Y-55790582D01*
X158790625Y-55299375D01*
X158492239Y-55100000D01*
X158790625Y-54900625D01*
X159118839Y-54409418D01*
X159234092Y-53830000D01*
X159118839Y-53250582D01*
X158790625Y-52759375D01*
X158385715Y-52488823D01*
X160920106Y-52489742D01*
X160921682Y-63090309D01*
X160700862Y-62557201D01*
X160212799Y-62069138D01*
X159575113Y-61805000D01*
X158884887Y-61805000D01*
X158247201Y-62069138D01*
X157759138Y-62557201D01*
X157495000Y-63194887D01*
X157495000Y-63885113D01*
X157759138Y-64522799D01*
X158247201Y-65010862D01*
X158884887Y-65275000D01*
X159575113Y-65275000D01*
X160212799Y-65010862D01*
X160700862Y-64522799D01*
X160921816Y-63989368D01*
X160926495Y-95451929D01*
X160700862Y-94907201D01*
X160212799Y-94419138D01*
X159575113Y-94155000D01*
X158884887Y-94155000D01*
X158247201Y-94419138D01*
X157759138Y-94907201D01*
X157495000Y-95544887D01*
X157495000Y-96235113D01*
X157759138Y-96872799D01*
X158247201Y-97360862D01*
X158884887Y-97625000D01*
X159575113Y-97625000D01*
X160212799Y-97360862D01*
X160700862Y-96872799D01*
X160926626Y-96327757D01*
X160929895Y-118310515D01*
X134779894Y-118329485D01*
X134779642Y-116630000D01*
X152050908Y-116630000D01*
X152166161Y-117209418D01*
X152494375Y-117700625D01*
X152985582Y-118028839D01*
X153418744Y-118115000D01*
X153711256Y-118115000D01*
X154144418Y-118028839D01*
X154635625Y-117700625D01*
X154835000Y-117402239D01*
X155034375Y-117700625D01*
X155525582Y-118028839D01*
X155958744Y-118115000D01*
X156251256Y-118115000D01*
X156684418Y-118028839D01*
X157175625Y-117700625D01*
X157190096Y-117678967D01*
X157256673Y-117839698D01*
X157435301Y-118018327D01*
X157668690Y-118115000D01*
X158359250Y-118115000D01*
X158518000Y-117956250D01*
X158518000Y-116757000D01*
X158772000Y-116757000D01*
X158772000Y-117956250D01*
X158930750Y-118115000D01*
X159621310Y-118115000D01*
X159854699Y-118018327D01*
X160033327Y-117839698D01*
X160130000Y-117606309D01*
X160130000Y-116915750D01*
X159971250Y-116757000D01*
X158772000Y-116757000D01*
X158518000Y-116757000D01*
X158498000Y-116757000D01*
X158498000Y-116503000D01*
X158518000Y-116503000D01*
X158518000Y-115303750D01*
X158772000Y-115303750D01*
X158772000Y-116503000D01*
X159971250Y-116503000D01*
X160130000Y-116344250D01*
X160130000Y-115653691D01*
X160033327Y-115420302D01*
X159854699Y-115241673D01*
X159621310Y-115145000D01*
X158930750Y-115145000D01*
X158772000Y-115303750D01*
X158518000Y-115303750D01*
X158359250Y-115145000D01*
X157668690Y-115145000D01*
X157435301Y-115241673D01*
X157256673Y-115420302D01*
X157190096Y-115581033D01*
X157175625Y-115559375D01*
X156684418Y-115231161D01*
X156251256Y-115145000D01*
X155958744Y-115145000D01*
X155525582Y-115231161D01*
X155034375Y-115559375D01*
X154835000Y-115857761D01*
X154635625Y-115559375D01*
X154144418Y-115231161D01*
X153711256Y-115145000D01*
X153418744Y-115145000D01*
X152985582Y-115231161D01*
X152494375Y-115559375D01*
X152166161Y-116050582D01*
X152050908Y-116630000D01*
X134779642Y-116630000D01*
X134779088Y-112900000D01*
X152050908Y-112900000D01*
X152166161Y-113479418D01*
X152494375Y-113970625D01*
X152985582Y-114298839D01*
X153418744Y-114385000D01*
X153711256Y-114385000D01*
X154144418Y-114298839D01*
X154635625Y-113970625D01*
X154835000Y-113672239D01*
X155034375Y-113970625D01*
X155525582Y-114298839D01*
X155958744Y-114385000D01*
X156251256Y-114385000D01*
X156684418Y-114298839D01*
X157175625Y-113970625D01*
X157190096Y-113948967D01*
X157256673Y-114109698D01*
X157435301Y-114288327D01*
X157668690Y-114385000D01*
X158359250Y-114385000D01*
X158518000Y-114226250D01*
X158518000Y-113027000D01*
X158772000Y-113027000D01*
X158772000Y-114226250D01*
X158930750Y-114385000D01*
X159621310Y-114385000D01*
X159854699Y-114288327D01*
X160033327Y-114109698D01*
X160130000Y-113876309D01*
X160130000Y-113185750D01*
X159971250Y-113027000D01*
X158772000Y-113027000D01*
X158518000Y-113027000D01*
X158498000Y-113027000D01*
X158498000Y-112773000D01*
X158518000Y-112773000D01*
X158518000Y-111573750D01*
X158772000Y-111573750D01*
X158772000Y-112773000D01*
X159971250Y-112773000D01*
X160130000Y-112614250D01*
X160130000Y-111923691D01*
X160033327Y-111690302D01*
X159854699Y-111511673D01*
X159621310Y-111415000D01*
X158930750Y-111415000D01*
X158772000Y-111573750D01*
X158518000Y-111573750D01*
X158359250Y-111415000D01*
X157668690Y-111415000D01*
X157435301Y-111511673D01*
X157256673Y-111690302D01*
X157190096Y-111851033D01*
X157175625Y-111829375D01*
X156684418Y-111501161D01*
X156251256Y-111415000D01*
X155958744Y-111415000D01*
X155525582Y-111501161D01*
X155034375Y-111829375D01*
X154835000Y-112127761D01*
X154635625Y-111829375D01*
X154144418Y-111501161D01*
X153711256Y-111415000D01*
X153418744Y-111415000D01*
X152985582Y-111501161D01*
X152494375Y-111829375D01*
X152166161Y-112320582D01*
X152050908Y-112900000D01*
X134779088Y-112900000D01*
X134778527Y-109120000D01*
X152050908Y-109120000D01*
X152166161Y-109699418D01*
X152494375Y-110190625D01*
X152985582Y-110518839D01*
X153418744Y-110605000D01*
X153711256Y-110605000D01*
X154144418Y-110518839D01*
X154635625Y-110190625D01*
X154835000Y-109892239D01*
X155034375Y-110190625D01*
X155525582Y-110518839D01*
X155958744Y-110605000D01*
X156251256Y-110605000D01*
X156684418Y-110518839D01*
X157175625Y-110190625D01*
X157190096Y-110168967D01*
X157256673Y-110329698D01*
X157435301Y-110508327D01*
X157668690Y-110605000D01*
X158359250Y-110605000D01*
X158518000Y-110446250D01*
X158518000Y-109247000D01*
X158772000Y-109247000D01*
X158772000Y-110446250D01*
X158930750Y-110605000D01*
X159621310Y-110605000D01*
X159854699Y-110508327D01*
X160033327Y-110329698D01*
X160130000Y-110096309D01*
X160130000Y-109405750D01*
X159971250Y-109247000D01*
X158772000Y-109247000D01*
X158518000Y-109247000D01*
X158498000Y-109247000D01*
X158498000Y-108993000D01*
X158518000Y-108993000D01*
X158518000Y-107793750D01*
X158772000Y-107793750D01*
X158772000Y-108993000D01*
X159971250Y-108993000D01*
X160130000Y-108834250D01*
X160130000Y-108143691D01*
X160033327Y-107910302D01*
X159854699Y-107731673D01*
X159621310Y-107635000D01*
X158930750Y-107635000D01*
X158772000Y-107793750D01*
X158518000Y-107793750D01*
X158359250Y-107635000D01*
X157668690Y-107635000D01*
X157435301Y-107731673D01*
X157256673Y-107910302D01*
X157190096Y-108071033D01*
X157175625Y-108049375D01*
X156684418Y-107721161D01*
X156251256Y-107635000D01*
X155958744Y-107635000D01*
X155525582Y-107721161D01*
X155034375Y-108049375D01*
X154835000Y-108347761D01*
X154635625Y-108049375D01*
X154144418Y-107721161D01*
X153711256Y-107635000D01*
X153418744Y-107635000D01*
X152985582Y-107721161D01*
X152494375Y-108049375D01*
X152166161Y-108540582D01*
X152050908Y-109120000D01*
X134778527Y-109120000D01*
X134778257Y-107310000D01*
X137915908Y-107310000D01*
X138031161Y-107889418D01*
X138359375Y-108380625D01*
X138850582Y-108708839D01*
X139283744Y-108795000D01*
X139576256Y-108795000D01*
X140009418Y-108708839D01*
X140500625Y-108380625D01*
X140515096Y-108358967D01*
X140581673Y-108519698D01*
X140760301Y-108698327D01*
X140993690Y-108795000D01*
X141684250Y-108795000D01*
X141843000Y-108636250D01*
X141843000Y-107437000D01*
X142097000Y-107437000D01*
X142097000Y-108636250D01*
X142255750Y-108795000D01*
X142946310Y-108795000D01*
X143179699Y-108698327D01*
X143358327Y-108519698D01*
X143455000Y-108286309D01*
X143455000Y-107595750D01*
X143296250Y-107437000D01*
X142097000Y-107437000D01*
X141843000Y-107437000D01*
X141823000Y-107437000D01*
X141823000Y-107183000D01*
X141843000Y-107183000D01*
X141843000Y-105983750D01*
X142097000Y-105983750D01*
X142097000Y-107183000D01*
X143296250Y-107183000D01*
X143455000Y-107024250D01*
X143455000Y-106333691D01*
X143358327Y-106100302D01*
X143179699Y-105921673D01*
X142946310Y-105825000D01*
X142255750Y-105825000D01*
X142097000Y-105983750D01*
X141843000Y-105983750D01*
X141684250Y-105825000D01*
X140993690Y-105825000D01*
X140760301Y-105921673D01*
X140581673Y-106100302D01*
X140515096Y-106261033D01*
X140500625Y-106239375D01*
X140009418Y-105911161D01*
X139576256Y-105825000D01*
X139283744Y-105825000D01*
X138850582Y-105911161D01*
X138359375Y-106239375D01*
X138031161Y-106730582D01*
X137915908Y-107310000D01*
X134778257Y-107310000D01*
X134777687Y-103480000D01*
X135285908Y-103480000D01*
X135401161Y-104059418D01*
X135729375Y-104550625D01*
X136220582Y-104878839D01*
X136653744Y-104965000D01*
X136946256Y-104965000D01*
X137379418Y-104878839D01*
X137870625Y-104550625D01*
X138070000Y-104252239D01*
X138269375Y-104550625D01*
X138760582Y-104878839D01*
X139193744Y-104965000D01*
X139486256Y-104965000D01*
X139919418Y-104878839D01*
X140410625Y-104550625D01*
X140623843Y-104231522D01*
X140684817Y-104361358D01*
X141113076Y-104751645D01*
X141523110Y-104921476D01*
X141753000Y-104800155D01*
X141753000Y-103607000D01*
X141733000Y-103607000D01*
X141733000Y-103353000D01*
X141753000Y-103353000D01*
X141753000Y-102159845D01*
X142007000Y-102159845D01*
X142007000Y-103353000D01*
X142027000Y-103353000D01*
X142027000Y-103607000D01*
X142007000Y-103607000D01*
X142007000Y-104800155D01*
X142236890Y-104921476D01*
X142646924Y-104751645D01*
X143075183Y-104361358D01*
X143136157Y-104231522D01*
X143349375Y-104550625D01*
X143840582Y-104878839D01*
X144273744Y-104965000D01*
X144566256Y-104965000D01*
X144999418Y-104878839D01*
X145490625Y-104550625D01*
X145690000Y-104252239D01*
X145889375Y-104550625D01*
X146200000Y-104758178D01*
X146200000Y-104995153D01*
X146185112Y-105070000D01*
X146200000Y-105144847D01*
X146200000Y-105144851D01*
X146244096Y-105366536D01*
X146412071Y-105617929D01*
X146475529Y-105660330D01*
X147059672Y-106244475D01*
X147102071Y-106307929D01*
X147165524Y-106350327D01*
X147165526Y-106350329D01*
X147290902Y-106434102D01*
X147353463Y-106475904D01*
X147575148Y-106520000D01*
X147575152Y-106520000D01*
X147649999Y-106534888D01*
X147724846Y-106520000D01*
X151045153Y-106520000D01*
X151120000Y-106534888D01*
X151194847Y-106520000D01*
X151194852Y-106520000D01*
X151416537Y-106475904D01*
X151667929Y-106307929D01*
X151710331Y-106244470D01*
X152139486Y-105815315D01*
X152166161Y-105949418D01*
X152494375Y-106440625D01*
X152985582Y-106768839D01*
X153418744Y-106855000D01*
X153711256Y-106855000D01*
X154144418Y-106768839D01*
X154635625Y-106440625D01*
X154835000Y-106142239D01*
X155034375Y-106440625D01*
X155525582Y-106768839D01*
X155958744Y-106855000D01*
X156251256Y-106855000D01*
X156684418Y-106768839D01*
X157175625Y-106440625D01*
X157190096Y-106418967D01*
X157256673Y-106579698D01*
X157435301Y-106758327D01*
X157668690Y-106855000D01*
X158359250Y-106855000D01*
X158518000Y-106696250D01*
X158518000Y-105497000D01*
X158772000Y-105497000D01*
X158772000Y-106696250D01*
X158930750Y-106855000D01*
X159621310Y-106855000D01*
X159854699Y-106758327D01*
X160033327Y-106579698D01*
X160130000Y-106346309D01*
X160130000Y-105655750D01*
X159971250Y-105497000D01*
X158772000Y-105497000D01*
X158518000Y-105497000D01*
X158498000Y-105497000D01*
X158498000Y-105243000D01*
X158518000Y-105243000D01*
X158518000Y-104043750D01*
X158772000Y-104043750D01*
X158772000Y-105243000D01*
X159971250Y-105243000D01*
X160130000Y-105084250D01*
X160130000Y-104393691D01*
X160033327Y-104160302D01*
X159854699Y-103981673D01*
X159621310Y-103885000D01*
X158930750Y-103885000D01*
X158772000Y-104043750D01*
X158518000Y-104043750D01*
X158359250Y-103885000D01*
X157668690Y-103885000D01*
X157435301Y-103981673D01*
X157256673Y-104160302D01*
X157190096Y-104321033D01*
X157175625Y-104299375D01*
X156684418Y-103971161D01*
X156251256Y-103885000D01*
X155958744Y-103885000D01*
X155525582Y-103971161D01*
X155034375Y-104299375D01*
X154835000Y-104597761D01*
X154635625Y-104299375D01*
X154144418Y-103971161D01*
X154021994Y-103946809D01*
X155198508Y-102770295D01*
X155525582Y-102988839D01*
X155958744Y-103075000D01*
X156251256Y-103075000D01*
X156684418Y-102988839D01*
X157175625Y-102660625D01*
X157190096Y-102638967D01*
X157256673Y-102799698D01*
X157435301Y-102978327D01*
X157668690Y-103075000D01*
X158359250Y-103075000D01*
X158518000Y-102916250D01*
X158518000Y-101717000D01*
X158772000Y-101717000D01*
X158772000Y-102916250D01*
X158930750Y-103075000D01*
X159621310Y-103075000D01*
X159854699Y-102978327D01*
X160033327Y-102799698D01*
X160130000Y-102566309D01*
X160130000Y-101875750D01*
X159971250Y-101717000D01*
X158772000Y-101717000D01*
X158518000Y-101717000D01*
X158498000Y-101717000D01*
X158498000Y-101463000D01*
X158518000Y-101463000D01*
X158518000Y-100263750D01*
X158772000Y-100263750D01*
X158772000Y-101463000D01*
X159971250Y-101463000D01*
X160130000Y-101304250D01*
X160130000Y-100613691D01*
X160033327Y-100380302D01*
X159854699Y-100201673D01*
X159621310Y-100105000D01*
X158930750Y-100105000D01*
X158772000Y-100263750D01*
X158518000Y-100263750D01*
X158359250Y-100105000D01*
X157668690Y-100105000D01*
X157435301Y-100201673D01*
X157256673Y-100380302D01*
X157190096Y-100541033D01*
X157175625Y-100519375D01*
X156684418Y-100191161D01*
X156251256Y-100105000D01*
X155958744Y-100105000D01*
X155525582Y-100191161D01*
X155519168Y-100195447D01*
X155519168Y-97395000D01*
X155522002Y-97395000D01*
X155522002Y-97236252D01*
X155680750Y-97395000D01*
X155816309Y-97395000D01*
X156049698Y-97298327D01*
X156228327Y-97119699D01*
X156325000Y-96886310D01*
X156325000Y-96725750D01*
X156166250Y-96567000D01*
X155522000Y-96567000D01*
X155522000Y-96587000D01*
X155496827Y-96587000D01*
X155475072Y-96477631D01*
X155367440Y-96316549D01*
X155367440Y-96267500D01*
X155306929Y-95963290D01*
X155268000Y-95905029D01*
X155268000Y-95643750D01*
X155522000Y-95643750D01*
X155522000Y-96313000D01*
X156166250Y-96313000D01*
X156325000Y-96154250D01*
X156325000Y-95993690D01*
X156228327Y-95760301D01*
X156049698Y-95581673D01*
X155816309Y-95485000D01*
X155680750Y-95485000D01*
X155522000Y-95643750D01*
X155268000Y-95643750D01*
X155180342Y-95556092D01*
X155326929Y-95336710D01*
X155387440Y-95032500D01*
X155387440Y-94737500D01*
X155326929Y-94433290D01*
X155304685Y-94400000D01*
X155326929Y-94366710D01*
X155387440Y-94062500D01*
X155387440Y-93767500D01*
X155326929Y-93463290D01*
X155154607Y-93205393D01*
X154896710Y-93033071D01*
X154592500Y-92972560D01*
X154247500Y-92972560D01*
X153943290Y-93033071D01*
X153760811Y-93155000D01*
X153589802Y-93155000D01*
X153277743Y-92842942D01*
X153408157Y-92647765D01*
X153457440Y-92400000D01*
X153457440Y-90800000D01*
X153408157Y-90552235D01*
X153267809Y-90342191D01*
X153057765Y-90201843D01*
X152923894Y-90175215D01*
X153044577Y-90094577D01*
X153361740Y-89619909D01*
X153473113Y-89060000D01*
X153361740Y-88500091D01*
X153044577Y-88025423D01*
X152692242Y-87790000D01*
X153044577Y-87554577D01*
X153361740Y-87079909D01*
X153473113Y-86520000D01*
X153361740Y-85960091D01*
X153044577Y-85485423D01*
X152660892Y-85229053D01*
X152865134Y-85132389D01*
X153241041Y-84717423D01*
X153401904Y-84329039D01*
X153279915Y-84107000D01*
X152137000Y-84107000D01*
X152137000Y-84127000D01*
X151883000Y-84127000D01*
X151883000Y-84107000D01*
X150740085Y-84107000D01*
X150618096Y-84329039D01*
X150778959Y-84717423D01*
X151154866Y-85132389D01*
X151359108Y-85229053D01*
X150975423Y-85485423D01*
X150658260Y-85960091D01*
X150546887Y-86520000D01*
X150658260Y-87079909D01*
X150975423Y-87554577D01*
X151327758Y-87790000D01*
X150975423Y-88025423D01*
X150658260Y-88500091D01*
X150546887Y-89060000D01*
X150611312Y-89383886D01*
X149645528Y-90349671D01*
X149582072Y-90392071D01*
X149539672Y-90455527D01*
X149539671Y-90455528D01*
X149414097Y-90643463D01*
X149355112Y-90940000D01*
X149370001Y-91014852D01*
X149370000Y-96985198D01*
X147870531Y-98484668D01*
X147807072Y-98527070D01*
X147706379Y-98677769D01*
X147639097Y-98778462D01*
X147595001Y-99000147D01*
X147595001Y-99000152D01*
X147580113Y-99074999D01*
X147595001Y-99149846D01*
X147595001Y-99230197D01*
X147555000Y-99270198D01*
X147555000Y-98955750D01*
X147396250Y-98797000D01*
X145547000Y-98797000D01*
X145547000Y-99946250D01*
X145705750Y-100105000D01*
X146720198Y-100105000D01*
X144786408Y-102038791D01*
X144566256Y-101995000D01*
X144273744Y-101995000D01*
X143840582Y-102081161D01*
X143349375Y-102409375D01*
X143136157Y-102728478D01*
X143075183Y-102598642D01*
X142646924Y-102208355D01*
X142236890Y-102038524D01*
X142007000Y-102159845D01*
X141753000Y-102159845D01*
X141523110Y-102038524D01*
X141113076Y-102208355D01*
X140684817Y-102598642D01*
X140623843Y-102728478D01*
X140410625Y-102409375D01*
X139919418Y-102081161D01*
X139486256Y-101995000D01*
X139193744Y-101995000D01*
X138760582Y-102081161D01*
X138269375Y-102409375D01*
X138070000Y-102707761D01*
X137870625Y-102409375D01*
X137379418Y-102081161D01*
X136946256Y-101995000D01*
X136653744Y-101995000D01*
X136220582Y-102081161D01*
X135729375Y-102409375D01*
X135401161Y-102900582D01*
X135285908Y-103480000D01*
X134777687Y-103480000D01*
X134776830Y-97710750D01*
X135335000Y-97710750D01*
X135335000Y-97846309D01*
X135431673Y-98079698D01*
X135610301Y-98258327D01*
X135843690Y-98355000D01*
X136004250Y-98355000D01*
X136163000Y-98196250D01*
X136163000Y-97552000D01*
X136417000Y-97552000D01*
X136417000Y-98196250D01*
X136575750Y-98355000D01*
X136736310Y-98355000D01*
X136837500Y-98313086D01*
X136938690Y-98355000D01*
X137099250Y-98355000D01*
X137258000Y-98196250D01*
X137258000Y-97552000D01*
X137512000Y-97552000D01*
X137512000Y-98196250D01*
X137670750Y-98355000D01*
X137831310Y-98355000D01*
X137956642Y-98303086D01*
X138033690Y-98335000D01*
X138194250Y-98335000D01*
X138353000Y-98176250D01*
X138353000Y-97532000D01*
X137683750Y-97532000D01*
X137663750Y-97552000D01*
X137512000Y-97552000D01*
X137258000Y-97552000D01*
X136417000Y-97552000D01*
X136163000Y-97552000D01*
X135493750Y-97552000D01*
X135335000Y-97710750D01*
X134776830Y-97710750D01*
X134775921Y-91600000D01*
X135306887Y-91600000D01*
X135395014Y-92043044D01*
X135387663Y-92080000D01*
X135405001Y-92167165D01*
X135405000Y-95970471D01*
X135383071Y-96003290D01*
X135322560Y-96307500D01*
X135322560Y-96602500D01*
X135380508Y-96893825D01*
X135335000Y-97003691D01*
X135335000Y-97139250D01*
X135493750Y-97298000D01*
X135755029Y-97298000D01*
X135813290Y-97336929D01*
X136117500Y-97397440D01*
X136462500Y-97397440D01*
X136751271Y-97340000D01*
X136923729Y-97340000D01*
X137212500Y-97397440D01*
X137557500Y-97397440D01*
X137861710Y-97336929D01*
X137887046Y-97320000D01*
X138018729Y-97320000D01*
X138307500Y-97377440D01*
X138627000Y-97377440D01*
X138627000Y-97532000D01*
X138607000Y-97532000D01*
X138607000Y-98176250D01*
X138765750Y-98335000D01*
X138872560Y-98335000D01*
X138872560Y-99470000D01*
X138921843Y-99717765D01*
X139062191Y-99927809D01*
X139272235Y-100068157D01*
X139520000Y-100117440D01*
X142520000Y-100117440D01*
X142767765Y-100068157D01*
X142977809Y-99927809D01*
X143118157Y-99717765D01*
X143167440Y-99470000D01*
X143167440Y-98955750D01*
X143285000Y-98955750D01*
X143285000Y-99596310D01*
X143381673Y-99829699D01*
X143560302Y-100008327D01*
X143793691Y-100105000D01*
X145134250Y-100105000D01*
X145293000Y-99946250D01*
X145293000Y-98797000D01*
X143443750Y-98797000D01*
X143285000Y-98955750D01*
X143167440Y-98955750D01*
X143167440Y-97870000D01*
X143142316Y-97743690D01*
X143285000Y-97743690D01*
X143285000Y-98384250D01*
X143443750Y-98543000D01*
X145293000Y-98543000D01*
X145293000Y-97393750D01*
X145547000Y-97393750D01*
X145547000Y-98543000D01*
X147396250Y-98543000D01*
X147555000Y-98384250D01*
X147555000Y-97743690D01*
X147458327Y-97510301D01*
X147279698Y-97331673D01*
X147046309Y-97235000D01*
X145705750Y-97235000D01*
X145547000Y-97393750D01*
X145293000Y-97393750D01*
X145134250Y-97235000D01*
X143793691Y-97235000D01*
X143560302Y-97331673D01*
X143381673Y-97510301D01*
X143285000Y-97743690D01*
X143142316Y-97743690D01*
X143118157Y-97622235D01*
X142977809Y-97412191D01*
X142767765Y-97271843D01*
X142520000Y-97222560D01*
X141635000Y-97222560D01*
X141635000Y-97217159D01*
X141652337Y-97129999D01*
X141635000Y-97042839D01*
X141635000Y-97042835D01*
X141583652Y-96784690D01*
X141461916Y-96602500D01*
X141437424Y-96565845D01*
X141437423Y-96565844D01*
X141388049Y-96491951D01*
X141314156Y-96442577D01*
X140742425Y-95870847D01*
X140693049Y-95796951D01*
X140400310Y-95601348D01*
X140142165Y-95550000D01*
X140142161Y-95550000D01*
X140055000Y-95532663D01*
X139967839Y-95550000D01*
X138941271Y-95550000D01*
X138652500Y-95492560D01*
X138307500Y-95492560D01*
X138018729Y-95550000D01*
X137745724Y-95550000D01*
X137557500Y-95512560D01*
X137212500Y-95512560D01*
X137175000Y-95520019D01*
X137175000Y-92982553D01*
X137329909Y-92951740D01*
X137804577Y-92634577D01*
X138121740Y-92159909D01*
X138233113Y-91600000D01*
X138121740Y-91040091D01*
X137804577Y-90565423D01*
X137420892Y-90309053D01*
X137625134Y-90212389D01*
X138001041Y-89797423D01*
X138161904Y-89409039D01*
X138039915Y-89187000D01*
X136897000Y-89187000D01*
X136897000Y-89207000D01*
X136643000Y-89207000D01*
X136643000Y-89187000D01*
X135500085Y-89187000D01*
X135378096Y-89409039D01*
X135538959Y-89797423D01*
X135914866Y-90212389D01*
X136119108Y-90309053D01*
X135735423Y-90565423D01*
X135418260Y-91040091D01*
X135306887Y-91600000D01*
X134775921Y-91600000D01*
X134770635Y-56040000D01*
X135306887Y-56040000D01*
X135418260Y-56599909D01*
X135735423Y-57074577D01*
X136087758Y-57310000D01*
X135735423Y-57545423D01*
X135418260Y-58020091D01*
X135306887Y-58580000D01*
X135418260Y-59139909D01*
X135735423Y-59614577D01*
X136087758Y-59850000D01*
X135735423Y-60085423D01*
X135418260Y-60560091D01*
X135306887Y-61120000D01*
X135418260Y-61679909D01*
X135735423Y-62154577D01*
X136087758Y-62390000D01*
X135735423Y-62625423D01*
X135418260Y-63100091D01*
X135306887Y-63660000D01*
X135418260Y-64219909D01*
X135735423Y-64694577D01*
X136087758Y-64930000D01*
X135735423Y-65165423D01*
X135418260Y-65640091D01*
X135306887Y-66200000D01*
X135418260Y-66759909D01*
X135735423Y-67234577D01*
X136087758Y-67470000D01*
X135735423Y-67705423D01*
X135418260Y-68180091D01*
X135306887Y-68740000D01*
X135418260Y-69299909D01*
X135735423Y-69774577D01*
X136087758Y-70010000D01*
X135735423Y-70245423D01*
X135418260Y-70720091D01*
X135306887Y-71280000D01*
X135418260Y-71839909D01*
X135735423Y-72314577D01*
X136087758Y-72550000D01*
X135735423Y-72785423D01*
X135418260Y-73260091D01*
X135306887Y-73820000D01*
X135418260Y-74379909D01*
X135735423Y-74854577D01*
X136087758Y-75090000D01*
X135735423Y-75325423D01*
X135418260Y-75800091D01*
X135306887Y-76360000D01*
X135418260Y-76919909D01*
X135735423Y-77394577D01*
X136087758Y-77630000D01*
X135735423Y-77865423D01*
X135418260Y-78340091D01*
X135306887Y-78900000D01*
X135418260Y-79459909D01*
X135735423Y-79934577D01*
X136087758Y-80170000D01*
X135735423Y-80405423D01*
X135418260Y-80880091D01*
X135306887Y-81440000D01*
X135418260Y-81999909D01*
X135735423Y-82474577D01*
X136087758Y-82710000D01*
X135735423Y-82945423D01*
X135418260Y-83420091D01*
X135306887Y-83980000D01*
X135418260Y-84539909D01*
X135735423Y-85014577D01*
X136087758Y-85250000D01*
X135735423Y-85485423D01*
X135418260Y-85960091D01*
X135306887Y-86520000D01*
X135418260Y-87079909D01*
X135735423Y-87554577D01*
X136119108Y-87810947D01*
X135914866Y-87907611D01*
X135538959Y-88322577D01*
X135378096Y-88710961D01*
X135500085Y-88933000D01*
X136643000Y-88933000D01*
X136643000Y-88913000D01*
X136897000Y-88913000D01*
X136897000Y-88933000D01*
X138039915Y-88933000D01*
X138161904Y-88710961D01*
X138001041Y-88322577D01*
X137625134Y-87907611D01*
X137420892Y-87810947D01*
X137804577Y-87554577D01*
X138121740Y-87079909D01*
X138233113Y-86520000D01*
X138121740Y-85960091D01*
X137804577Y-85485423D01*
X137452242Y-85250000D01*
X137804577Y-85014577D01*
X138121740Y-84539909D01*
X138233113Y-83980000D01*
X138121740Y-83420091D01*
X137804577Y-82945423D01*
X137452242Y-82710000D01*
X137804577Y-82474577D01*
X138121740Y-81999909D01*
X138233113Y-81440000D01*
X138121740Y-80880091D01*
X137804577Y-80405423D01*
X137452242Y-80170000D01*
X137804577Y-79934577D01*
X138121740Y-79459909D01*
X138233113Y-78900000D01*
X138121740Y-78340091D01*
X137804577Y-77865423D01*
X137452242Y-77630000D01*
X137804577Y-77394577D01*
X138121740Y-76919909D01*
X138233113Y-76360000D01*
X138121740Y-75800091D01*
X137804577Y-75325423D01*
X137452242Y-75090000D01*
X137804577Y-74854577D01*
X138121740Y-74379909D01*
X138233113Y-73820000D01*
X138121740Y-73260091D01*
X137804577Y-72785423D01*
X137452242Y-72550000D01*
X137804577Y-72314577D01*
X138121740Y-71839909D01*
X138233113Y-71280000D01*
X138121740Y-70720091D01*
X137804577Y-70245423D01*
X137452242Y-70010000D01*
X137804577Y-69774577D01*
X138121740Y-69299909D01*
X138233113Y-68740000D01*
X138121740Y-68180091D01*
X137804577Y-67705423D01*
X137452242Y-67470000D01*
X137804577Y-67234577D01*
X138121740Y-66759909D01*
X138233113Y-66200000D01*
X138121740Y-65640091D01*
X137804577Y-65165423D01*
X137452242Y-64930000D01*
X137804577Y-64694577D01*
X138121740Y-64219909D01*
X138233113Y-63660000D01*
X138121740Y-63100091D01*
X137804577Y-62625423D01*
X137452242Y-62390000D01*
X137804577Y-62154577D01*
X138121740Y-61679909D01*
X138233113Y-61120000D01*
X138121740Y-60560091D01*
X137804577Y-60085423D01*
X137452242Y-59850000D01*
X137804577Y-59614577D01*
X138121740Y-59139909D01*
X138233113Y-58580000D01*
X138121740Y-58020091D01*
X137804577Y-57545423D01*
X137452242Y-57310000D01*
X137804577Y-57074577D01*
X138121740Y-56599909D01*
X138233113Y-56040000D01*
X138121740Y-55480091D01*
X137804577Y-55005423D01*
X137329909Y-54688260D01*
X136911333Y-54605000D01*
X136628667Y-54605000D01*
X136210091Y-54688260D01*
X135735423Y-55005423D01*
X135418260Y-55480091D01*
X135306887Y-56040000D01*
X134770635Y-56040000D01*
X134770105Y-52480257D01*
X157055007Y-52488340D01*
X157055007Y-52488340D01*
G37*
X157055007Y-52488340D02*
X156649375Y-52759375D01*
X156321161Y-53250582D01*
X156205908Y-53830000D01*
X156278791Y-54196407D01*
X153595530Y-56879669D01*
X153532071Y-56922071D01*
X153364096Y-57173464D01*
X153320000Y-57395149D01*
X153320000Y-57395153D01*
X153305112Y-57470000D01*
X153320000Y-57544847D01*
X153320000Y-57957623D01*
X153044577Y-57545423D01*
X152692242Y-57310000D01*
X153044577Y-57074577D01*
X153361740Y-56599909D01*
X153473113Y-56040000D01*
X153361740Y-55480091D01*
X153044577Y-55005423D01*
X152569909Y-54688260D01*
X152151333Y-54605000D01*
X151868667Y-54605000D01*
X151450091Y-54688260D01*
X150975423Y-55005423D01*
X150658260Y-55480091D01*
X150546887Y-56040000D01*
X150658260Y-56599909D01*
X150975423Y-57074577D01*
X151327758Y-57310000D01*
X150975423Y-57545423D01*
X150658260Y-58020091D01*
X150546887Y-58580000D01*
X150658260Y-59139909D01*
X150975423Y-59614577D01*
X151327758Y-59850000D01*
X150975423Y-60085423D01*
X150658260Y-60560091D01*
X150546887Y-61120000D01*
X150658260Y-61679909D01*
X150975423Y-62154577D01*
X151327758Y-62390000D01*
X150975423Y-62625423D01*
X150658260Y-63100091D01*
X150546887Y-63660000D01*
X150658260Y-64219909D01*
X150975423Y-64694577D01*
X151327758Y-64930000D01*
X150975423Y-65165423D01*
X150658260Y-65640091D01*
X150546887Y-66200000D01*
X150658260Y-66759909D01*
X150975423Y-67234577D01*
X151327758Y-67470000D01*
X150975423Y-67705423D01*
X150658260Y-68180091D01*
X150546887Y-68740000D01*
X150658260Y-69299909D01*
X150975423Y-69774577D01*
X151327758Y-70010000D01*
X150975423Y-70245423D01*
X150658260Y-70720091D01*
X150546887Y-71280000D01*
X150658260Y-71839909D01*
X150975423Y-72314577D01*
X151327758Y-72550000D01*
X150975423Y-72785423D01*
X150658260Y-73260091D01*
X150546887Y-73820000D01*
X150658260Y-74379909D01*
X150975423Y-74854577D01*
X151327758Y-75090000D01*
X150975423Y-75325423D01*
X150658260Y-75800091D01*
X150546887Y-76360000D01*
X150658260Y-76919909D01*
X150975423Y-77394577D01*
X151327758Y-77630000D01*
X150975423Y-77865423D01*
X150658260Y-78340091D01*
X150546887Y-78900000D01*
X150658260Y-79459909D01*
X150975423Y-79934577D01*
X151327758Y-80170000D01*
X150975423Y-80405423D01*
X150658260Y-80880091D01*
X150546887Y-81440000D01*
X150658260Y-81999909D01*
X150975423Y-82474577D01*
X151359108Y-82730947D01*
X151154866Y-82827611D01*
X150778959Y-83242577D01*
X150618096Y-83630961D01*
X150740085Y-83853000D01*
X151883000Y-83853000D01*
X151883000Y-83833000D01*
X152137000Y-83833000D01*
X152137000Y-83853000D01*
X153279915Y-83853000D01*
X153401904Y-83630961D01*
X153241041Y-83242577D01*
X152865134Y-82827611D01*
X152660892Y-82730947D01*
X153044577Y-82474577D01*
X153361740Y-81999909D01*
X153473113Y-81440000D01*
X153361740Y-80880091D01*
X153044577Y-80405423D01*
X152692242Y-80170000D01*
X153044577Y-79934577D01*
X153361740Y-79459909D01*
X153473113Y-78900000D01*
X153408688Y-78576113D01*
X154564473Y-77420329D01*
X154627929Y-77377929D01*
X154795904Y-77126537D01*
X154840000Y-76904852D01*
X154840000Y-76904848D01*
X154854888Y-76830000D01*
X154840000Y-76755152D01*
X154840000Y-59195750D01*
X156235000Y-59195750D01*
X156235000Y-59886310D01*
X156331673Y-60119699D01*
X156510302Y-60298327D01*
X156743691Y-60395000D01*
X157434250Y-60395000D01*
X157593000Y-60236250D01*
X157593000Y-59037000D01*
X157847000Y-59037000D01*
X157847000Y-60236250D01*
X158005750Y-60395000D01*
X158696309Y-60395000D01*
X158929698Y-60298327D01*
X159108327Y-60119699D01*
X159205000Y-59886310D01*
X159205000Y-59195750D01*
X159046250Y-59037000D01*
X157847000Y-59037000D01*
X157593000Y-59037000D01*
X156393750Y-59037000D01*
X156235000Y-59195750D01*
X154840000Y-59195750D01*
X154840000Y-57784801D01*
X156214020Y-56410782D01*
X156321161Y-56949418D01*
X156649375Y-57440625D01*
X156671033Y-57455096D01*
X156510302Y-57521673D01*
X156331673Y-57700301D01*
X156235000Y-57933690D01*
X156235000Y-58624250D01*
X156393750Y-58783000D01*
X157593000Y-58783000D01*
X157593000Y-58763000D01*
X157847000Y-58763000D01*
X157847000Y-58783000D01*
X159046250Y-58783000D01*
X159205000Y-58624250D01*
X159205000Y-57933690D01*
X159108327Y-57700301D01*
X158929698Y-57521673D01*
X158768967Y-57455096D01*
X158790625Y-57440625D01*
X159118839Y-56949418D01*
X159234092Y-56370000D01*
X159118839Y-55790582D01*
X158790625Y-55299375D01*
X158492239Y-55100000D01*
X158790625Y-54900625D01*
X159118839Y-54409418D01*
X159234092Y-53830000D01*
X159118839Y-53250582D01*
X158790625Y-52759375D01*
X158385715Y-52488823D01*
X160920106Y-52489742D01*
X160921682Y-63090309D01*
X160700862Y-62557201D01*
X160212799Y-62069138D01*
X159575113Y-61805000D01*
X158884887Y-61805000D01*
X158247201Y-62069138D01*
X157759138Y-62557201D01*
X157495000Y-63194887D01*
X157495000Y-63885113D01*
X157759138Y-64522799D01*
X158247201Y-65010862D01*
X158884887Y-65275000D01*
X159575113Y-65275000D01*
X160212799Y-65010862D01*
X160700862Y-64522799D01*
X160921816Y-63989368D01*
X160926495Y-95451929D01*
X160700862Y-94907201D01*
X160212799Y-94419138D01*
X159575113Y-94155000D01*
X158884887Y-94155000D01*
X158247201Y-94419138D01*
X157759138Y-94907201D01*
X157495000Y-95544887D01*
X157495000Y-96235113D01*
X157759138Y-96872799D01*
X158247201Y-97360862D01*
X158884887Y-97625000D01*
X159575113Y-97625000D01*
X160212799Y-97360862D01*
X160700862Y-96872799D01*
X160926626Y-96327757D01*
X160929895Y-118310515D01*
X134779894Y-118329485D01*
X134779642Y-116630000D01*
X152050908Y-116630000D01*
X152166161Y-117209418D01*
X152494375Y-117700625D01*
X152985582Y-118028839D01*
X153418744Y-118115000D01*
X153711256Y-118115000D01*
X154144418Y-118028839D01*
X154635625Y-117700625D01*
X154835000Y-117402239D01*
X155034375Y-117700625D01*
X155525582Y-118028839D01*
X155958744Y-118115000D01*
X156251256Y-118115000D01*
X156684418Y-118028839D01*
X157175625Y-117700625D01*
X157190096Y-117678967D01*
X157256673Y-117839698D01*
X157435301Y-118018327D01*
X157668690Y-118115000D01*
X158359250Y-118115000D01*
X158518000Y-117956250D01*
X158518000Y-116757000D01*
X158772000Y-116757000D01*
X158772000Y-117956250D01*
X158930750Y-118115000D01*
X159621310Y-118115000D01*
X159854699Y-118018327D01*
X160033327Y-117839698D01*
X160130000Y-117606309D01*
X160130000Y-116915750D01*
X159971250Y-116757000D01*
X158772000Y-116757000D01*
X158518000Y-116757000D01*
X158498000Y-116757000D01*
X158498000Y-116503000D01*
X158518000Y-116503000D01*
X158518000Y-115303750D01*
X158772000Y-115303750D01*
X158772000Y-116503000D01*
X159971250Y-116503000D01*
X160130000Y-116344250D01*
X160130000Y-115653691D01*
X160033327Y-115420302D01*
X159854699Y-115241673D01*
X159621310Y-115145000D01*
X158930750Y-115145000D01*
X158772000Y-115303750D01*
X158518000Y-115303750D01*
X158359250Y-115145000D01*
X157668690Y-115145000D01*
X157435301Y-115241673D01*
X157256673Y-115420302D01*
X157190096Y-115581033D01*
X157175625Y-115559375D01*
X156684418Y-115231161D01*
X156251256Y-115145000D01*
X155958744Y-115145000D01*
X155525582Y-115231161D01*
X155034375Y-115559375D01*
X154835000Y-115857761D01*
X154635625Y-115559375D01*
X154144418Y-115231161D01*
X153711256Y-115145000D01*
X153418744Y-115145000D01*
X152985582Y-115231161D01*
X152494375Y-115559375D01*
X152166161Y-116050582D01*
X152050908Y-116630000D01*
X134779642Y-116630000D01*
X134779088Y-112900000D01*
X152050908Y-112900000D01*
X152166161Y-113479418D01*
X152494375Y-113970625D01*
X152985582Y-114298839D01*
X153418744Y-114385000D01*
X153711256Y-114385000D01*
X154144418Y-114298839D01*
X154635625Y-113970625D01*
X154835000Y-113672239D01*
X155034375Y-113970625D01*
X155525582Y-114298839D01*
X155958744Y-114385000D01*
X156251256Y-114385000D01*
X156684418Y-114298839D01*
X157175625Y-113970625D01*
X157190096Y-113948967D01*
X157256673Y-114109698D01*
X157435301Y-114288327D01*
X157668690Y-114385000D01*
X158359250Y-114385000D01*
X158518000Y-114226250D01*
X158518000Y-113027000D01*
X158772000Y-113027000D01*
X158772000Y-114226250D01*
X158930750Y-114385000D01*
X159621310Y-114385000D01*
X159854699Y-114288327D01*
X160033327Y-114109698D01*
X160130000Y-113876309D01*
X160130000Y-113185750D01*
X159971250Y-113027000D01*
X158772000Y-113027000D01*
X158518000Y-113027000D01*
X158498000Y-113027000D01*
X158498000Y-112773000D01*
X158518000Y-112773000D01*
X158518000Y-111573750D01*
X158772000Y-111573750D01*
X158772000Y-112773000D01*
X159971250Y-112773000D01*
X160130000Y-112614250D01*
X160130000Y-111923691D01*
X160033327Y-111690302D01*
X159854699Y-111511673D01*
X159621310Y-111415000D01*
X158930750Y-111415000D01*
X158772000Y-111573750D01*
X158518000Y-111573750D01*
X158359250Y-111415000D01*
X157668690Y-111415000D01*
X157435301Y-111511673D01*
X157256673Y-111690302D01*
X157190096Y-111851033D01*
X157175625Y-111829375D01*
X156684418Y-111501161D01*
X156251256Y-111415000D01*
X155958744Y-111415000D01*
X155525582Y-111501161D01*
X155034375Y-111829375D01*
X154835000Y-112127761D01*
X154635625Y-111829375D01*
X154144418Y-111501161D01*
X153711256Y-111415000D01*
X153418744Y-111415000D01*
X152985582Y-111501161D01*
X152494375Y-111829375D01*
X152166161Y-112320582D01*
X152050908Y-112900000D01*
X134779088Y-112900000D01*
X134778527Y-109120000D01*
X152050908Y-109120000D01*
X152166161Y-109699418D01*
X152494375Y-110190625D01*
X152985582Y-110518839D01*
X153418744Y-110605000D01*
X153711256Y-110605000D01*
X154144418Y-110518839D01*
X154635625Y-110190625D01*
X154835000Y-109892239D01*
X155034375Y-110190625D01*
X155525582Y-110518839D01*
X155958744Y-110605000D01*
X156251256Y-110605000D01*
X156684418Y-110518839D01*
X157175625Y-110190625D01*
X157190096Y-110168967D01*
X157256673Y-110329698D01*
X157435301Y-110508327D01*
X157668690Y-110605000D01*
X158359250Y-110605000D01*
X158518000Y-110446250D01*
X158518000Y-109247000D01*
X158772000Y-109247000D01*
X158772000Y-110446250D01*
X158930750Y-110605000D01*
X159621310Y-110605000D01*
X159854699Y-110508327D01*
X160033327Y-110329698D01*
X160130000Y-110096309D01*
X160130000Y-109405750D01*
X159971250Y-109247000D01*
X158772000Y-109247000D01*
X158518000Y-109247000D01*
X158498000Y-109247000D01*
X158498000Y-108993000D01*
X158518000Y-108993000D01*
X158518000Y-107793750D01*
X158772000Y-107793750D01*
X158772000Y-108993000D01*
X159971250Y-108993000D01*
X160130000Y-108834250D01*
X160130000Y-108143691D01*
X160033327Y-107910302D01*
X159854699Y-107731673D01*
X159621310Y-107635000D01*
X158930750Y-107635000D01*
X158772000Y-107793750D01*
X158518000Y-107793750D01*
X158359250Y-107635000D01*
X157668690Y-107635000D01*
X157435301Y-107731673D01*
X157256673Y-107910302D01*
X157190096Y-108071033D01*
X157175625Y-108049375D01*
X156684418Y-107721161D01*
X156251256Y-107635000D01*
X155958744Y-107635000D01*
X155525582Y-107721161D01*
X155034375Y-108049375D01*
X154835000Y-108347761D01*
X154635625Y-108049375D01*
X154144418Y-107721161D01*
X153711256Y-107635000D01*
X153418744Y-107635000D01*
X152985582Y-107721161D01*
X152494375Y-108049375D01*
X152166161Y-108540582D01*
X152050908Y-109120000D01*
X134778527Y-109120000D01*
X134778257Y-107310000D01*
X137915908Y-107310000D01*
X138031161Y-107889418D01*
X138359375Y-108380625D01*
X138850582Y-108708839D01*
X139283744Y-108795000D01*
X139576256Y-108795000D01*
X140009418Y-108708839D01*
X140500625Y-108380625D01*
X140515096Y-108358967D01*
X140581673Y-108519698D01*
X140760301Y-108698327D01*
X140993690Y-108795000D01*
X141684250Y-108795000D01*
X141843000Y-108636250D01*
X141843000Y-107437000D01*
X142097000Y-107437000D01*
X142097000Y-108636250D01*
X142255750Y-108795000D01*
X142946310Y-108795000D01*
X143179699Y-108698327D01*
X143358327Y-108519698D01*
X143455000Y-108286309D01*
X143455000Y-107595750D01*
X143296250Y-107437000D01*
X142097000Y-107437000D01*
X141843000Y-107437000D01*
X141823000Y-107437000D01*
X141823000Y-107183000D01*
X141843000Y-107183000D01*
X141843000Y-105983750D01*
X142097000Y-105983750D01*
X142097000Y-107183000D01*
X143296250Y-107183000D01*
X143455000Y-107024250D01*
X143455000Y-106333691D01*
X143358327Y-106100302D01*
X143179699Y-105921673D01*
X142946310Y-105825000D01*
X142255750Y-105825000D01*
X142097000Y-105983750D01*
X141843000Y-105983750D01*
X141684250Y-105825000D01*
X140993690Y-105825000D01*
X140760301Y-105921673D01*
X140581673Y-106100302D01*
X140515096Y-106261033D01*
X140500625Y-106239375D01*
X140009418Y-105911161D01*
X139576256Y-105825000D01*
X139283744Y-105825000D01*
X138850582Y-105911161D01*
X138359375Y-106239375D01*
X138031161Y-106730582D01*
X137915908Y-107310000D01*
X134778257Y-107310000D01*
X134777687Y-103480000D01*
X135285908Y-103480000D01*
X135401161Y-104059418D01*
X135729375Y-104550625D01*
X136220582Y-104878839D01*
X136653744Y-104965000D01*
X136946256Y-104965000D01*
X137379418Y-104878839D01*
X137870625Y-104550625D01*
X138070000Y-104252239D01*
X138269375Y-104550625D01*
X138760582Y-104878839D01*
X139193744Y-104965000D01*
X139486256Y-104965000D01*
X139919418Y-104878839D01*
X140410625Y-104550625D01*
X140623843Y-104231522D01*
X140684817Y-104361358D01*
X141113076Y-104751645D01*
X141523110Y-104921476D01*
X141753000Y-104800155D01*
X141753000Y-103607000D01*
X141733000Y-103607000D01*
X141733000Y-103353000D01*
X141753000Y-103353000D01*
X141753000Y-102159845D01*
X142007000Y-102159845D01*
X142007000Y-103353000D01*
X142027000Y-103353000D01*
X142027000Y-103607000D01*
X142007000Y-103607000D01*
X142007000Y-104800155D01*
X142236890Y-104921476D01*
X142646924Y-104751645D01*
X143075183Y-104361358D01*
X143136157Y-104231522D01*
X143349375Y-104550625D01*
X143840582Y-104878839D01*
X144273744Y-104965000D01*
X144566256Y-104965000D01*
X144999418Y-104878839D01*
X145490625Y-104550625D01*
X145690000Y-104252239D01*
X145889375Y-104550625D01*
X146200000Y-104758178D01*
X146200000Y-104995153D01*
X146185112Y-105070000D01*
X146200000Y-105144847D01*
X146200000Y-105144851D01*
X146244096Y-105366536D01*
X146412071Y-105617929D01*
X146475529Y-105660330D01*
X147059672Y-106244475D01*
X147102071Y-106307929D01*
X147165524Y-106350327D01*
X147165526Y-106350329D01*
X147290902Y-106434102D01*
X147353463Y-106475904D01*
X147575148Y-106520000D01*
X147575152Y-106520000D01*
X147649999Y-106534888D01*
X147724846Y-106520000D01*
X151045153Y-106520000D01*
X151120000Y-106534888D01*
X151194847Y-106520000D01*
X151194852Y-106520000D01*
X151416537Y-106475904D01*
X151667929Y-106307929D01*
X151710331Y-106244470D01*
X152139486Y-105815315D01*
X152166161Y-105949418D01*
X152494375Y-106440625D01*
X152985582Y-106768839D01*
X153418744Y-106855000D01*
X153711256Y-106855000D01*
X154144418Y-106768839D01*
X154635625Y-106440625D01*
X154835000Y-106142239D01*
X155034375Y-106440625D01*
X155525582Y-106768839D01*
X155958744Y-106855000D01*
X156251256Y-106855000D01*
X156684418Y-106768839D01*
X157175625Y-106440625D01*
X157190096Y-106418967D01*
X157256673Y-106579698D01*
X157435301Y-106758327D01*
X157668690Y-106855000D01*
X158359250Y-106855000D01*
X158518000Y-106696250D01*
X158518000Y-105497000D01*
X158772000Y-105497000D01*
X158772000Y-106696250D01*
X158930750Y-106855000D01*
X159621310Y-106855000D01*
X159854699Y-106758327D01*
X160033327Y-106579698D01*
X160130000Y-106346309D01*
X160130000Y-105655750D01*
X159971250Y-105497000D01*
X158772000Y-105497000D01*
X158518000Y-105497000D01*
X158498000Y-105497000D01*
X158498000Y-105243000D01*
X158518000Y-105243000D01*
X158518000Y-104043750D01*
X158772000Y-104043750D01*
X158772000Y-105243000D01*
X159971250Y-105243000D01*
X160130000Y-105084250D01*
X160130000Y-104393691D01*
X160033327Y-104160302D01*
X159854699Y-103981673D01*
X159621310Y-103885000D01*
X158930750Y-103885000D01*
X158772000Y-104043750D01*
X158518000Y-104043750D01*
X158359250Y-103885000D01*
X157668690Y-103885000D01*
X157435301Y-103981673D01*
X157256673Y-104160302D01*
X157190096Y-104321033D01*
X157175625Y-104299375D01*
X156684418Y-103971161D01*
X156251256Y-103885000D01*
X155958744Y-103885000D01*
X155525582Y-103971161D01*
X155034375Y-104299375D01*
X154835000Y-104597761D01*
X154635625Y-104299375D01*
X154144418Y-103971161D01*
X154021994Y-103946809D01*
X155198508Y-102770295D01*
X155525582Y-102988839D01*
X155958744Y-103075000D01*
X156251256Y-103075000D01*
X156684418Y-102988839D01*
X157175625Y-102660625D01*
X157190096Y-102638967D01*
X157256673Y-102799698D01*
X157435301Y-102978327D01*
X157668690Y-103075000D01*
X158359250Y-103075000D01*
X158518000Y-102916250D01*
X158518000Y-101717000D01*
X158772000Y-101717000D01*
X158772000Y-102916250D01*
X158930750Y-103075000D01*
X159621310Y-103075000D01*
X159854699Y-102978327D01*
X160033327Y-102799698D01*
X160130000Y-102566309D01*
X160130000Y-101875750D01*
X159971250Y-101717000D01*
X158772000Y-101717000D01*
X158518000Y-101717000D01*
X158498000Y-101717000D01*
X158498000Y-101463000D01*
X158518000Y-101463000D01*
X158518000Y-100263750D01*
X158772000Y-100263750D01*
X158772000Y-101463000D01*
X159971250Y-101463000D01*
X160130000Y-101304250D01*
X160130000Y-100613691D01*
X160033327Y-100380302D01*
X159854699Y-100201673D01*
X159621310Y-100105000D01*
X158930750Y-100105000D01*
X158772000Y-100263750D01*
X158518000Y-100263750D01*
X158359250Y-100105000D01*
X157668690Y-100105000D01*
X157435301Y-100201673D01*
X157256673Y-100380302D01*
X157190096Y-100541033D01*
X157175625Y-100519375D01*
X156684418Y-100191161D01*
X156251256Y-100105000D01*
X155958744Y-100105000D01*
X155525582Y-100191161D01*
X155519168Y-100195447D01*
X155519168Y-97395000D01*
X155522002Y-97395000D01*
X155522002Y-97236252D01*
X155680750Y-97395000D01*
X155816309Y-97395000D01*
X156049698Y-97298327D01*
X156228327Y-97119699D01*
X156325000Y-96886310D01*
X156325000Y-96725750D01*
X156166250Y-96567000D01*
X155522000Y-96567000D01*
X155522000Y-96587000D01*
X155496827Y-96587000D01*
X155475072Y-96477631D01*
X155367440Y-96316549D01*
X155367440Y-96267500D01*
X155306929Y-95963290D01*
X155268000Y-95905029D01*
X155268000Y-95643750D01*
X155522000Y-95643750D01*
X155522000Y-96313000D01*
X156166250Y-96313000D01*
X156325000Y-96154250D01*
X156325000Y-95993690D01*
X156228327Y-95760301D01*
X156049698Y-95581673D01*
X155816309Y-95485000D01*
X155680750Y-95485000D01*
X155522000Y-95643750D01*
X155268000Y-95643750D01*
X155180342Y-95556092D01*
X155326929Y-95336710D01*
X155387440Y-95032500D01*
X155387440Y-94737500D01*
X155326929Y-94433290D01*
X155304685Y-94400000D01*
X155326929Y-94366710D01*
X155387440Y-94062500D01*
X155387440Y-93767500D01*
X155326929Y-93463290D01*
X155154607Y-93205393D01*
X154896710Y-93033071D01*
X154592500Y-92972560D01*
X154247500Y-92972560D01*
X153943290Y-93033071D01*
X153760811Y-93155000D01*
X153589802Y-93155000D01*
X153277743Y-92842942D01*
X153408157Y-92647765D01*
X153457440Y-92400000D01*
X153457440Y-90800000D01*
X153408157Y-90552235D01*
X153267809Y-90342191D01*
X153057765Y-90201843D01*
X152923894Y-90175215D01*
X153044577Y-90094577D01*
X153361740Y-89619909D01*
X153473113Y-89060000D01*
X153361740Y-88500091D01*
X153044577Y-88025423D01*
X152692242Y-87790000D01*
X153044577Y-87554577D01*
X153361740Y-87079909D01*
X153473113Y-86520000D01*
X153361740Y-85960091D01*
X153044577Y-85485423D01*
X152660892Y-85229053D01*
X152865134Y-85132389D01*
X153241041Y-84717423D01*
X153401904Y-84329039D01*
X153279915Y-84107000D01*
X152137000Y-84107000D01*
X152137000Y-84127000D01*
X151883000Y-84127000D01*
X151883000Y-84107000D01*
X150740085Y-84107000D01*
X150618096Y-84329039D01*
X150778959Y-84717423D01*
X151154866Y-85132389D01*
X151359108Y-85229053D01*
X150975423Y-85485423D01*
X150658260Y-85960091D01*
X150546887Y-86520000D01*
X150658260Y-87079909D01*
X150975423Y-87554577D01*
X151327758Y-87790000D01*
X150975423Y-88025423D01*
X150658260Y-88500091D01*
X150546887Y-89060000D01*
X150611312Y-89383886D01*
X149645528Y-90349671D01*
X149582072Y-90392071D01*
X149539672Y-90455527D01*
X149539671Y-90455528D01*
X149414097Y-90643463D01*
X149355112Y-90940000D01*
X149370001Y-91014852D01*
X149370000Y-96985198D01*
X147870531Y-98484668D01*
X147807072Y-98527070D01*
X147706379Y-98677769D01*
X147639097Y-98778462D01*
X147595001Y-99000147D01*
X147595001Y-99000152D01*
X147580113Y-99074999D01*
X147595001Y-99149846D01*
X147595001Y-99230197D01*
X147555000Y-99270198D01*
X147555000Y-98955750D01*
X147396250Y-98797000D01*
X145547000Y-98797000D01*
X145547000Y-99946250D01*
X145705750Y-100105000D01*
X146720198Y-100105000D01*
X144786408Y-102038791D01*
X144566256Y-101995000D01*
X144273744Y-101995000D01*
X143840582Y-102081161D01*
X143349375Y-102409375D01*
X143136157Y-102728478D01*
X143075183Y-102598642D01*
X142646924Y-102208355D01*
X142236890Y-102038524D01*
X142007000Y-102159845D01*
X141753000Y-102159845D01*
X141523110Y-102038524D01*
X141113076Y-102208355D01*
X140684817Y-102598642D01*
X140623843Y-102728478D01*
X140410625Y-102409375D01*
X139919418Y-102081161D01*
X139486256Y-101995000D01*
X139193744Y-101995000D01*
X138760582Y-102081161D01*
X138269375Y-102409375D01*
X138070000Y-102707761D01*
X137870625Y-102409375D01*
X137379418Y-102081161D01*
X136946256Y-101995000D01*
X136653744Y-101995000D01*
X136220582Y-102081161D01*
X135729375Y-102409375D01*
X135401161Y-102900582D01*
X135285908Y-103480000D01*
X134777687Y-103480000D01*
X134776830Y-97710750D01*
X135335000Y-97710750D01*
X135335000Y-97846309D01*
X135431673Y-98079698D01*
X135610301Y-98258327D01*
X135843690Y-98355000D01*
X136004250Y-98355000D01*
X136163000Y-98196250D01*
X136163000Y-97552000D01*
X136417000Y-97552000D01*
X136417000Y-98196250D01*
X136575750Y-98355000D01*
X136736310Y-98355000D01*
X136837500Y-98313086D01*
X136938690Y-98355000D01*
X137099250Y-98355000D01*
X137258000Y-98196250D01*
X137258000Y-97552000D01*
X137512000Y-97552000D01*
X137512000Y-98196250D01*
X137670750Y-98355000D01*
X137831310Y-98355000D01*
X137956642Y-98303086D01*
X138033690Y-98335000D01*
X138194250Y-98335000D01*
X138353000Y-98176250D01*
X138353000Y-97532000D01*
X137683750Y-97532000D01*
X137663750Y-97552000D01*
X137512000Y-97552000D01*
X137258000Y-97552000D01*
X136417000Y-97552000D01*
X136163000Y-97552000D01*
X135493750Y-97552000D01*
X135335000Y-97710750D01*
X134776830Y-97710750D01*
X134775921Y-91600000D01*
X135306887Y-91600000D01*
X135395014Y-92043044D01*
X135387663Y-92080000D01*
X135405001Y-92167165D01*
X135405000Y-95970471D01*
X135383071Y-96003290D01*
X135322560Y-96307500D01*
X135322560Y-96602500D01*
X135380508Y-96893825D01*
X135335000Y-97003691D01*
X135335000Y-97139250D01*
X135493750Y-97298000D01*
X135755029Y-97298000D01*
X135813290Y-97336929D01*
X136117500Y-97397440D01*
X136462500Y-97397440D01*
X136751271Y-97340000D01*
X136923729Y-97340000D01*
X137212500Y-97397440D01*
X137557500Y-97397440D01*
X137861710Y-97336929D01*
X137887046Y-97320000D01*
X138018729Y-97320000D01*
X138307500Y-97377440D01*
X138627000Y-97377440D01*
X138627000Y-97532000D01*
X138607000Y-97532000D01*
X138607000Y-98176250D01*
X138765750Y-98335000D01*
X138872560Y-98335000D01*
X138872560Y-99470000D01*
X138921843Y-99717765D01*
X139062191Y-99927809D01*
X139272235Y-100068157D01*
X139520000Y-100117440D01*
X142520000Y-100117440D01*
X142767765Y-100068157D01*
X142977809Y-99927809D01*
X143118157Y-99717765D01*
X143167440Y-99470000D01*
X143167440Y-98955750D01*
X143285000Y-98955750D01*
X143285000Y-99596310D01*
X143381673Y-99829699D01*
X143560302Y-100008327D01*
X143793691Y-100105000D01*
X145134250Y-100105000D01*
X145293000Y-99946250D01*
X145293000Y-98797000D01*
X143443750Y-98797000D01*
X143285000Y-98955750D01*
X143167440Y-98955750D01*
X143167440Y-97870000D01*
X143142316Y-97743690D01*
X143285000Y-97743690D01*
X143285000Y-98384250D01*
X143443750Y-98543000D01*
X145293000Y-98543000D01*
X145293000Y-97393750D01*
X145547000Y-97393750D01*
X145547000Y-98543000D01*
X147396250Y-98543000D01*
X147555000Y-98384250D01*
X147555000Y-97743690D01*
X147458327Y-97510301D01*
X147279698Y-97331673D01*
X147046309Y-97235000D01*
X145705750Y-97235000D01*
X145547000Y-97393750D01*
X145293000Y-97393750D01*
X145134250Y-97235000D01*
X143793691Y-97235000D01*
X143560302Y-97331673D01*
X143381673Y-97510301D01*
X143285000Y-97743690D01*
X143142316Y-97743690D01*
X143118157Y-97622235D01*
X142977809Y-97412191D01*
X142767765Y-97271843D01*
X142520000Y-97222560D01*
X141635000Y-97222560D01*
X141635000Y-97217159D01*
X141652337Y-97129999D01*
X141635000Y-97042839D01*
X141635000Y-97042835D01*
X141583652Y-96784690D01*
X141461916Y-96602500D01*
X141437424Y-96565845D01*
X141437423Y-96565844D01*
X141388049Y-96491951D01*
X141314156Y-96442577D01*
X140742425Y-95870847D01*
X140693049Y-95796951D01*
X140400310Y-95601348D01*
X140142165Y-95550000D01*
X140142161Y-95550000D01*
X140055000Y-95532663D01*
X139967839Y-95550000D01*
X138941271Y-95550000D01*
X138652500Y-95492560D01*
X138307500Y-95492560D01*
X138018729Y-95550000D01*
X137745724Y-95550000D01*
X137557500Y-95512560D01*
X137212500Y-95512560D01*
X137175000Y-95520019D01*
X137175000Y-92982553D01*
X137329909Y-92951740D01*
X137804577Y-92634577D01*
X138121740Y-92159909D01*
X138233113Y-91600000D01*
X138121740Y-91040091D01*
X137804577Y-90565423D01*
X137420892Y-90309053D01*
X137625134Y-90212389D01*
X138001041Y-89797423D01*
X138161904Y-89409039D01*
X138039915Y-89187000D01*
X136897000Y-89187000D01*
X136897000Y-89207000D01*
X136643000Y-89207000D01*
X136643000Y-89187000D01*
X135500085Y-89187000D01*
X135378096Y-89409039D01*
X135538959Y-89797423D01*
X135914866Y-90212389D01*
X136119108Y-90309053D01*
X135735423Y-90565423D01*
X135418260Y-91040091D01*
X135306887Y-91600000D01*
X134775921Y-91600000D01*
X134770635Y-56040000D01*
X135306887Y-56040000D01*
X135418260Y-56599909D01*
X135735423Y-57074577D01*
X136087758Y-57310000D01*
X135735423Y-57545423D01*
X135418260Y-58020091D01*
X135306887Y-58580000D01*
X135418260Y-59139909D01*
X135735423Y-59614577D01*
X136087758Y-59850000D01*
X135735423Y-60085423D01*
X135418260Y-60560091D01*
X135306887Y-61120000D01*
X135418260Y-61679909D01*
X135735423Y-62154577D01*
X136087758Y-62390000D01*
X135735423Y-62625423D01*
X135418260Y-63100091D01*
X135306887Y-63660000D01*
X135418260Y-64219909D01*
X135735423Y-64694577D01*
X136087758Y-64930000D01*
X135735423Y-65165423D01*
X135418260Y-65640091D01*
X135306887Y-66200000D01*
X135418260Y-66759909D01*
X135735423Y-67234577D01*
X136087758Y-67470000D01*
X135735423Y-67705423D01*
X135418260Y-68180091D01*
X135306887Y-68740000D01*
X135418260Y-69299909D01*
X135735423Y-69774577D01*
X136087758Y-70010000D01*
X135735423Y-70245423D01*
X135418260Y-70720091D01*
X135306887Y-71280000D01*
X135418260Y-71839909D01*
X135735423Y-72314577D01*
X136087758Y-72550000D01*
X135735423Y-72785423D01*
X135418260Y-73260091D01*
X135306887Y-73820000D01*
X135418260Y-74379909D01*
X135735423Y-74854577D01*
X136087758Y-75090000D01*
X135735423Y-75325423D01*
X135418260Y-75800091D01*
X135306887Y-76360000D01*
X135418260Y-76919909D01*
X135735423Y-77394577D01*
X136087758Y-77630000D01*
X135735423Y-77865423D01*
X135418260Y-78340091D01*
X135306887Y-78900000D01*
X135418260Y-79459909D01*
X135735423Y-79934577D01*
X136087758Y-80170000D01*
X135735423Y-80405423D01*
X135418260Y-80880091D01*
X135306887Y-81440000D01*
X135418260Y-81999909D01*
X135735423Y-82474577D01*
X136087758Y-82710000D01*
X135735423Y-82945423D01*
X135418260Y-83420091D01*
X135306887Y-83980000D01*
X135418260Y-84539909D01*
X135735423Y-85014577D01*
X136087758Y-85250000D01*
X135735423Y-85485423D01*
X135418260Y-85960091D01*
X135306887Y-86520000D01*
X135418260Y-87079909D01*
X135735423Y-87554577D01*
X136119108Y-87810947D01*
X135914866Y-87907611D01*
X135538959Y-88322577D01*
X135378096Y-88710961D01*
X135500085Y-88933000D01*
X136643000Y-88933000D01*
X136643000Y-88913000D01*
X136897000Y-88913000D01*
X136897000Y-88933000D01*
X138039915Y-88933000D01*
X138161904Y-88710961D01*
X138001041Y-88322577D01*
X137625134Y-87907611D01*
X137420892Y-87810947D01*
X137804577Y-87554577D01*
X138121740Y-87079909D01*
X138233113Y-86520000D01*
X138121740Y-85960091D01*
X137804577Y-85485423D01*
X137452242Y-85250000D01*
X137804577Y-85014577D01*
X138121740Y-84539909D01*
X138233113Y-83980000D01*
X138121740Y-83420091D01*
X137804577Y-82945423D01*
X137452242Y-82710000D01*
X137804577Y-82474577D01*
X138121740Y-81999909D01*
X138233113Y-81440000D01*
X138121740Y-80880091D01*
X137804577Y-80405423D01*
X137452242Y-80170000D01*
X137804577Y-79934577D01*
X138121740Y-79459909D01*
X138233113Y-78900000D01*
X138121740Y-78340091D01*
X137804577Y-77865423D01*
X137452242Y-77630000D01*
X137804577Y-77394577D01*
X138121740Y-76919909D01*
X138233113Y-76360000D01*
X138121740Y-75800091D01*
X137804577Y-75325423D01*
X137452242Y-75090000D01*
X137804577Y-74854577D01*
X138121740Y-74379909D01*
X138233113Y-73820000D01*
X138121740Y-73260091D01*
X137804577Y-72785423D01*
X137452242Y-72550000D01*
X137804577Y-72314577D01*
X138121740Y-71839909D01*
X138233113Y-71280000D01*
X138121740Y-70720091D01*
X137804577Y-70245423D01*
X137452242Y-70010000D01*
X137804577Y-69774577D01*
X138121740Y-69299909D01*
X138233113Y-68740000D01*
X138121740Y-68180091D01*
X137804577Y-67705423D01*
X137452242Y-67470000D01*
X137804577Y-67234577D01*
X138121740Y-66759909D01*
X138233113Y-66200000D01*
X138121740Y-65640091D01*
X137804577Y-65165423D01*
X137452242Y-64930000D01*
X137804577Y-64694577D01*
X138121740Y-64219909D01*
X138233113Y-63660000D01*
X138121740Y-63100091D01*
X137804577Y-62625423D01*
X137452242Y-62390000D01*
X137804577Y-62154577D01*
X138121740Y-61679909D01*
X138233113Y-61120000D01*
X138121740Y-60560091D01*
X137804577Y-60085423D01*
X137452242Y-59850000D01*
X137804577Y-59614577D01*
X138121740Y-59139909D01*
X138233113Y-58580000D01*
X138121740Y-58020091D01*
X137804577Y-57545423D01*
X137452242Y-57310000D01*
X137804577Y-57074577D01*
X138121740Y-56599909D01*
X138233113Y-56040000D01*
X138121740Y-55480091D01*
X137804577Y-55005423D01*
X137329909Y-54688260D01*
X136911333Y-54605000D01*
X136628667Y-54605000D01*
X136210091Y-54688260D01*
X135735423Y-55005423D01*
X135418260Y-55480091D01*
X135306887Y-56040000D01*
X134770635Y-56040000D01*
X134770105Y-52480257D01*
X157055007Y-52488340D01*
G04 #@! TD*
M02*
