G04 #@! TF.GenerationSoftware,KiCad,Pcbnew,(5.0.0)*
G04 #@! TF.CreationDate,2019-10-27T09:20:16+11:00*
G04 #@! TF.ProjectId,Kineses_Board,4B696E657365735F426F6172642E6B69,rev?*
G04 #@! TF.SameCoordinates,Original*
G04 #@! TF.FileFunction,Soldermask,Top*
G04 #@! TF.FilePolarity,Negative*
%FSLAX46Y46*%
G04 Gerber Fmt 4.6, Leading zero omitted, Abs format (unit mm)*
G04 Created by KiCad (PCBNEW (5.0.0)) date 10/27/19 09:20:16*
%MOMM*%
%LPD*%
G01*
G04 APERTURE LIST*
%ADD10R,3.400000X2.000000*%
%ADD11R,2.100000X2.100000*%
%ADD12O,2.100000X2.100000*%
%ADD13C,2.600000*%
%ADD14R,2.000000X2.000000*%
%ADD15O,2.000000X2.000000*%
%ADD16C,0.100000*%
%ADD17C,0.990000*%
G04 APERTURE END LIST*
D10*
G04 #@! TO.C,C1*
X141020000Y-98670000D03*
X145420000Y-98670000D03*
G04 #@! TD*
D11*
G04 #@! TO.C,J1*
X141970000Y-107310000D03*
D12*
X139430000Y-107310000D03*
G04 #@! TD*
D11*
G04 #@! TO.C,J6*
X158645000Y-112900000D03*
D12*
X156105000Y-112900000D03*
X153565000Y-112900000D03*
G04 #@! TD*
D13*
G04 #@! TO.C,MH1*
X159230000Y-95890000D03*
G04 #@! TD*
G04 #@! TO.C,MH2*
X159230000Y-63540000D03*
G04 #@! TD*
D14*
G04 #@! TO.C,A1*
X152010000Y-91600000D03*
D15*
X136770000Y-58580000D03*
X152010000Y-89060000D03*
X136770000Y-61120000D03*
X152010000Y-86520000D03*
X136770000Y-63660000D03*
X152010000Y-83980000D03*
X136770000Y-66200000D03*
X152010000Y-81440000D03*
X136770000Y-68740000D03*
X152010000Y-78900000D03*
X136770000Y-71280000D03*
X152010000Y-76360000D03*
X136770000Y-73820000D03*
X152010000Y-73820000D03*
X136770000Y-76360000D03*
X152010000Y-71280000D03*
X136770000Y-78900000D03*
X152010000Y-68740000D03*
X136770000Y-81440000D03*
X152010000Y-66200000D03*
X136770000Y-83980000D03*
X152010000Y-63660000D03*
X136770000Y-86520000D03*
X152010000Y-61120000D03*
X136770000Y-89060000D03*
X152010000Y-58580000D03*
X136770000Y-91600000D03*
X152010000Y-56040000D03*
X136770000Y-56040000D03*
G04 #@! TD*
D16*
G04 #@! TO.C,C2*
G36*
X138776759Y-96911192D02*
X138800785Y-96914756D01*
X138824345Y-96920657D01*
X138847214Y-96928840D01*
X138869171Y-96939224D01*
X138890004Y-96951711D01*
X138909512Y-96966180D01*
X138927509Y-96982491D01*
X138943820Y-97000488D01*
X138958289Y-97019996D01*
X138970776Y-97040829D01*
X138981160Y-97062786D01*
X138989343Y-97085655D01*
X138995244Y-97109215D01*
X138998808Y-97133241D01*
X139000000Y-97157500D01*
X139000000Y-97652500D01*
X138998808Y-97676759D01*
X138995244Y-97700785D01*
X138989343Y-97724345D01*
X138981160Y-97747214D01*
X138970776Y-97769171D01*
X138958289Y-97790004D01*
X138943820Y-97809512D01*
X138927509Y-97827509D01*
X138909512Y-97843820D01*
X138890004Y-97858289D01*
X138869171Y-97870776D01*
X138847214Y-97881160D01*
X138824345Y-97889343D01*
X138800785Y-97895244D01*
X138776759Y-97898808D01*
X138752500Y-97900000D01*
X138207500Y-97900000D01*
X138183241Y-97898808D01*
X138159215Y-97895244D01*
X138135655Y-97889343D01*
X138112786Y-97881160D01*
X138090829Y-97870776D01*
X138069996Y-97858289D01*
X138050488Y-97843820D01*
X138032491Y-97827509D01*
X138016180Y-97809512D01*
X138001711Y-97790004D01*
X137989224Y-97769171D01*
X137978840Y-97747214D01*
X137970657Y-97724345D01*
X137964756Y-97700785D01*
X137961192Y-97676759D01*
X137960000Y-97652500D01*
X137960000Y-97157500D01*
X137961192Y-97133241D01*
X137964756Y-97109215D01*
X137970657Y-97085655D01*
X137978840Y-97062786D01*
X137989224Y-97040829D01*
X138001711Y-97019996D01*
X138016180Y-97000488D01*
X138032491Y-96982491D01*
X138050488Y-96966180D01*
X138069996Y-96951711D01*
X138090829Y-96939224D01*
X138112786Y-96928840D01*
X138135655Y-96920657D01*
X138159215Y-96914756D01*
X138183241Y-96911192D01*
X138207500Y-96910000D01*
X138752500Y-96910000D01*
X138776759Y-96911192D01*
X138776759Y-96911192D01*
G37*
D17*
X138480000Y-97405000D03*
D16*
G36*
X138776759Y-95941192D02*
X138800785Y-95944756D01*
X138824345Y-95950657D01*
X138847214Y-95958840D01*
X138869171Y-95969224D01*
X138890004Y-95981711D01*
X138909512Y-95996180D01*
X138927509Y-96012491D01*
X138943820Y-96030488D01*
X138958289Y-96049996D01*
X138970776Y-96070829D01*
X138981160Y-96092786D01*
X138989343Y-96115655D01*
X138995244Y-96139215D01*
X138998808Y-96163241D01*
X139000000Y-96187500D01*
X139000000Y-96682500D01*
X138998808Y-96706759D01*
X138995244Y-96730785D01*
X138989343Y-96754345D01*
X138981160Y-96777214D01*
X138970776Y-96799171D01*
X138958289Y-96820004D01*
X138943820Y-96839512D01*
X138927509Y-96857509D01*
X138909512Y-96873820D01*
X138890004Y-96888289D01*
X138869171Y-96900776D01*
X138847214Y-96911160D01*
X138824345Y-96919343D01*
X138800785Y-96925244D01*
X138776759Y-96928808D01*
X138752500Y-96930000D01*
X138207500Y-96930000D01*
X138183241Y-96928808D01*
X138159215Y-96925244D01*
X138135655Y-96919343D01*
X138112786Y-96911160D01*
X138090829Y-96900776D01*
X138069996Y-96888289D01*
X138050488Y-96873820D01*
X138032491Y-96857509D01*
X138016180Y-96839512D01*
X138001711Y-96820004D01*
X137989224Y-96799171D01*
X137978840Y-96777214D01*
X137970657Y-96754345D01*
X137964756Y-96730785D01*
X137961192Y-96706759D01*
X137960000Y-96682500D01*
X137960000Y-96187500D01*
X137961192Y-96163241D01*
X137964756Y-96139215D01*
X137970657Y-96115655D01*
X137978840Y-96092786D01*
X137989224Y-96070829D01*
X138001711Y-96049996D01*
X138016180Y-96030488D01*
X138032491Y-96012491D01*
X138050488Y-95996180D01*
X138069996Y-95981711D01*
X138090829Y-95969224D01*
X138112786Y-95958840D01*
X138135655Y-95950657D01*
X138159215Y-95944756D01*
X138183241Y-95941192D01*
X138207500Y-95940000D01*
X138752500Y-95940000D01*
X138776759Y-95941192D01*
X138776759Y-95941192D01*
G37*
D17*
X138480000Y-96435000D03*
G04 #@! TD*
D16*
G04 #@! TO.C,C3*
G36*
X137681759Y-95961192D02*
X137705785Y-95964756D01*
X137729345Y-95970657D01*
X137752214Y-95978840D01*
X137774171Y-95989224D01*
X137795004Y-96001711D01*
X137814512Y-96016180D01*
X137832509Y-96032491D01*
X137848820Y-96050488D01*
X137863289Y-96069996D01*
X137875776Y-96090829D01*
X137886160Y-96112786D01*
X137894343Y-96135655D01*
X137900244Y-96159215D01*
X137903808Y-96183241D01*
X137905000Y-96207500D01*
X137905000Y-96702500D01*
X137903808Y-96726759D01*
X137900244Y-96750785D01*
X137894343Y-96774345D01*
X137886160Y-96797214D01*
X137875776Y-96819171D01*
X137863289Y-96840004D01*
X137848820Y-96859512D01*
X137832509Y-96877509D01*
X137814512Y-96893820D01*
X137795004Y-96908289D01*
X137774171Y-96920776D01*
X137752214Y-96931160D01*
X137729345Y-96939343D01*
X137705785Y-96945244D01*
X137681759Y-96948808D01*
X137657500Y-96950000D01*
X137112500Y-96950000D01*
X137088241Y-96948808D01*
X137064215Y-96945244D01*
X137040655Y-96939343D01*
X137017786Y-96931160D01*
X136995829Y-96920776D01*
X136974996Y-96908289D01*
X136955488Y-96893820D01*
X136937491Y-96877509D01*
X136921180Y-96859512D01*
X136906711Y-96840004D01*
X136894224Y-96819171D01*
X136883840Y-96797214D01*
X136875657Y-96774345D01*
X136869756Y-96750785D01*
X136866192Y-96726759D01*
X136865000Y-96702500D01*
X136865000Y-96207500D01*
X136866192Y-96183241D01*
X136869756Y-96159215D01*
X136875657Y-96135655D01*
X136883840Y-96112786D01*
X136894224Y-96090829D01*
X136906711Y-96069996D01*
X136921180Y-96050488D01*
X136937491Y-96032491D01*
X136955488Y-96016180D01*
X136974996Y-96001711D01*
X136995829Y-95989224D01*
X137017786Y-95978840D01*
X137040655Y-95970657D01*
X137064215Y-95964756D01*
X137088241Y-95961192D01*
X137112500Y-95960000D01*
X137657500Y-95960000D01*
X137681759Y-95961192D01*
X137681759Y-95961192D01*
G37*
D17*
X137385000Y-96455000D03*
D16*
G36*
X137681759Y-96931192D02*
X137705785Y-96934756D01*
X137729345Y-96940657D01*
X137752214Y-96948840D01*
X137774171Y-96959224D01*
X137795004Y-96971711D01*
X137814512Y-96986180D01*
X137832509Y-97002491D01*
X137848820Y-97020488D01*
X137863289Y-97039996D01*
X137875776Y-97060829D01*
X137886160Y-97082786D01*
X137894343Y-97105655D01*
X137900244Y-97129215D01*
X137903808Y-97153241D01*
X137905000Y-97177500D01*
X137905000Y-97672500D01*
X137903808Y-97696759D01*
X137900244Y-97720785D01*
X137894343Y-97744345D01*
X137886160Y-97767214D01*
X137875776Y-97789171D01*
X137863289Y-97810004D01*
X137848820Y-97829512D01*
X137832509Y-97847509D01*
X137814512Y-97863820D01*
X137795004Y-97878289D01*
X137774171Y-97890776D01*
X137752214Y-97901160D01*
X137729345Y-97909343D01*
X137705785Y-97915244D01*
X137681759Y-97918808D01*
X137657500Y-97920000D01*
X137112500Y-97920000D01*
X137088241Y-97918808D01*
X137064215Y-97915244D01*
X137040655Y-97909343D01*
X137017786Y-97901160D01*
X136995829Y-97890776D01*
X136974996Y-97878289D01*
X136955488Y-97863820D01*
X136937491Y-97847509D01*
X136921180Y-97829512D01*
X136906711Y-97810004D01*
X136894224Y-97789171D01*
X136883840Y-97767214D01*
X136875657Y-97744345D01*
X136869756Y-97720785D01*
X136866192Y-97696759D01*
X136865000Y-97672500D01*
X136865000Y-97177500D01*
X136866192Y-97153241D01*
X136869756Y-97129215D01*
X136875657Y-97105655D01*
X136883840Y-97082786D01*
X136894224Y-97060829D01*
X136906711Y-97039996D01*
X136921180Y-97020488D01*
X136937491Y-97002491D01*
X136955488Y-96986180D01*
X136974996Y-96971711D01*
X136995829Y-96959224D01*
X137017786Y-96948840D01*
X137040655Y-96940657D01*
X137064215Y-96934756D01*
X137088241Y-96931192D01*
X137112500Y-96930000D01*
X137657500Y-96930000D01*
X137681759Y-96931192D01*
X137681759Y-96931192D01*
G37*
D17*
X137385000Y-97425000D03*
G04 #@! TD*
D16*
G04 #@! TO.C,C4*
G36*
X136586759Y-96931192D02*
X136610785Y-96934756D01*
X136634345Y-96940657D01*
X136657214Y-96948840D01*
X136679171Y-96959224D01*
X136700004Y-96971711D01*
X136719512Y-96986180D01*
X136737509Y-97002491D01*
X136753820Y-97020488D01*
X136768289Y-97039996D01*
X136780776Y-97060829D01*
X136791160Y-97082786D01*
X136799343Y-97105655D01*
X136805244Y-97129215D01*
X136808808Y-97153241D01*
X136810000Y-97177500D01*
X136810000Y-97672500D01*
X136808808Y-97696759D01*
X136805244Y-97720785D01*
X136799343Y-97744345D01*
X136791160Y-97767214D01*
X136780776Y-97789171D01*
X136768289Y-97810004D01*
X136753820Y-97829512D01*
X136737509Y-97847509D01*
X136719512Y-97863820D01*
X136700004Y-97878289D01*
X136679171Y-97890776D01*
X136657214Y-97901160D01*
X136634345Y-97909343D01*
X136610785Y-97915244D01*
X136586759Y-97918808D01*
X136562500Y-97920000D01*
X136017500Y-97920000D01*
X135993241Y-97918808D01*
X135969215Y-97915244D01*
X135945655Y-97909343D01*
X135922786Y-97901160D01*
X135900829Y-97890776D01*
X135879996Y-97878289D01*
X135860488Y-97863820D01*
X135842491Y-97847509D01*
X135826180Y-97829512D01*
X135811711Y-97810004D01*
X135799224Y-97789171D01*
X135788840Y-97767214D01*
X135780657Y-97744345D01*
X135774756Y-97720785D01*
X135771192Y-97696759D01*
X135770000Y-97672500D01*
X135770000Y-97177500D01*
X135771192Y-97153241D01*
X135774756Y-97129215D01*
X135780657Y-97105655D01*
X135788840Y-97082786D01*
X135799224Y-97060829D01*
X135811711Y-97039996D01*
X135826180Y-97020488D01*
X135842491Y-97002491D01*
X135860488Y-96986180D01*
X135879996Y-96971711D01*
X135900829Y-96959224D01*
X135922786Y-96948840D01*
X135945655Y-96940657D01*
X135969215Y-96934756D01*
X135993241Y-96931192D01*
X136017500Y-96930000D01*
X136562500Y-96930000D01*
X136586759Y-96931192D01*
X136586759Y-96931192D01*
G37*
D17*
X136290000Y-97425000D03*
D16*
G36*
X136586759Y-95961192D02*
X136610785Y-95964756D01*
X136634345Y-95970657D01*
X136657214Y-95978840D01*
X136679171Y-95989224D01*
X136700004Y-96001711D01*
X136719512Y-96016180D01*
X136737509Y-96032491D01*
X136753820Y-96050488D01*
X136768289Y-96069996D01*
X136780776Y-96090829D01*
X136791160Y-96112786D01*
X136799343Y-96135655D01*
X136805244Y-96159215D01*
X136808808Y-96183241D01*
X136810000Y-96207500D01*
X136810000Y-96702500D01*
X136808808Y-96726759D01*
X136805244Y-96750785D01*
X136799343Y-96774345D01*
X136791160Y-96797214D01*
X136780776Y-96819171D01*
X136768289Y-96840004D01*
X136753820Y-96859512D01*
X136737509Y-96877509D01*
X136719512Y-96893820D01*
X136700004Y-96908289D01*
X136679171Y-96920776D01*
X136657214Y-96931160D01*
X136634345Y-96939343D01*
X136610785Y-96945244D01*
X136586759Y-96948808D01*
X136562500Y-96950000D01*
X136017500Y-96950000D01*
X135993241Y-96948808D01*
X135969215Y-96945244D01*
X135945655Y-96939343D01*
X135922786Y-96931160D01*
X135900829Y-96920776D01*
X135879996Y-96908289D01*
X135860488Y-96893820D01*
X135842491Y-96877509D01*
X135826180Y-96859512D01*
X135811711Y-96840004D01*
X135799224Y-96819171D01*
X135788840Y-96797214D01*
X135780657Y-96774345D01*
X135774756Y-96750785D01*
X135771192Y-96726759D01*
X135770000Y-96702500D01*
X135770000Y-96207500D01*
X135771192Y-96183241D01*
X135774756Y-96159215D01*
X135780657Y-96135655D01*
X135788840Y-96112786D01*
X135799224Y-96090829D01*
X135811711Y-96069996D01*
X135826180Y-96050488D01*
X135842491Y-96032491D01*
X135860488Y-96016180D01*
X135879996Y-96001711D01*
X135900829Y-95989224D01*
X135922786Y-95978840D01*
X135945655Y-95970657D01*
X135969215Y-95964756D01*
X135993241Y-95961192D01*
X136017500Y-95960000D01*
X136562500Y-95960000D01*
X136586759Y-95961192D01*
X136586759Y-95961192D01*
G37*
D17*
X136290000Y-96455000D03*
G04 #@! TD*
D11*
G04 #@! TO.C,J2*
X158645000Y-116630000D03*
D12*
X156105000Y-116630000D03*
X153565000Y-116630000D03*
G04 #@! TD*
G04 #@! TO.C,J3*
X153565000Y-109120000D03*
X156105000Y-109120000D03*
D11*
X158645000Y-109120000D03*
G04 #@! TD*
G04 #@! TO.C,J4*
X158645000Y-105370000D03*
D12*
X156105000Y-105370000D03*
X153565000Y-105370000D03*
G04 #@! TD*
G04 #@! TO.C,J5*
X153565000Y-101590000D03*
X156105000Y-101590000D03*
D11*
X158645000Y-101590000D03*
G04 #@! TD*
D12*
G04 #@! TO.C,J7*
X157720000Y-53830000D03*
X157720000Y-56370000D03*
D11*
X157720000Y-58910000D03*
G04 #@! TD*
G04 #@! TO.C,J8*
X149500000Y-103480000D03*
D12*
X146960000Y-103480000D03*
X144420000Y-103480000D03*
X141880000Y-103480000D03*
X139340000Y-103480000D03*
X136800000Y-103480000D03*
G04 #@! TD*
D16*
G04 #@! TO.C,R1*
G36*
X155666759Y-95921192D02*
X155690785Y-95924756D01*
X155714345Y-95930657D01*
X155737214Y-95938840D01*
X155759171Y-95949224D01*
X155780004Y-95961711D01*
X155799512Y-95976180D01*
X155817509Y-95992491D01*
X155833820Y-96010488D01*
X155848289Y-96029996D01*
X155860776Y-96050829D01*
X155871160Y-96072786D01*
X155879343Y-96095655D01*
X155885244Y-96119215D01*
X155888808Y-96143241D01*
X155890000Y-96167500D01*
X155890000Y-96712500D01*
X155888808Y-96736759D01*
X155885244Y-96760785D01*
X155879343Y-96784345D01*
X155871160Y-96807214D01*
X155860776Y-96829171D01*
X155848289Y-96850004D01*
X155833820Y-96869512D01*
X155817509Y-96887509D01*
X155799512Y-96903820D01*
X155780004Y-96918289D01*
X155759171Y-96930776D01*
X155737214Y-96941160D01*
X155714345Y-96949343D01*
X155690785Y-96955244D01*
X155666759Y-96958808D01*
X155642500Y-96960000D01*
X155147500Y-96960000D01*
X155123241Y-96958808D01*
X155099215Y-96955244D01*
X155075655Y-96949343D01*
X155052786Y-96941160D01*
X155030829Y-96930776D01*
X155009996Y-96918289D01*
X154990488Y-96903820D01*
X154972491Y-96887509D01*
X154956180Y-96869512D01*
X154941711Y-96850004D01*
X154929224Y-96829171D01*
X154918840Y-96807214D01*
X154910657Y-96784345D01*
X154904756Y-96760785D01*
X154901192Y-96736759D01*
X154900000Y-96712500D01*
X154900000Y-96167500D01*
X154901192Y-96143241D01*
X154904756Y-96119215D01*
X154910657Y-96095655D01*
X154918840Y-96072786D01*
X154929224Y-96050829D01*
X154941711Y-96029996D01*
X154956180Y-96010488D01*
X154972491Y-95992491D01*
X154990488Y-95976180D01*
X155009996Y-95961711D01*
X155030829Y-95949224D01*
X155052786Y-95938840D01*
X155075655Y-95930657D01*
X155099215Y-95924756D01*
X155123241Y-95921192D01*
X155147500Y-95920000D01*
X155642500Y-95920000D01*
X155666759Y-95921192D01*
X155666759Y-95921192D01*
G37*
D17*
X155395000Y-96440000D03*
D16*
G36*
X154696759Y-95921192D02*
X154720785Y-95924756D01*
X154744345Y-95930657D01*
X154767214Y-95938840D01*
X154789171Y-95949224D01*
X154810004Y-95961711D01*
X154829512Y-95976180D01*
X154847509Y-95992491D01*
X154863820Y-96010488D01*
X154878289Y-96029996D01*
X154890776Y-96050829D01*
X154901160Y-96072786D01*
X154909343Y-96095655D01*
X154915244Y-96119215D01*
X154918808Y-96143241D01*
X154920000Y-96167500D01*
X154920000Y-96712500D01*
X154918808Y-96736759D01*
X154915244Y-96760785D01*
X154909343Y-96784345D01*
X154901160Y-96807214D01*
X154890776Y-96829171D01*
X154878289Y-96850004D01*
X154863820Y-96869512D01*
X154847509Y-96887509D01*
X154829512Y-96903820D01*
X154810004Y-96918289D01*
X154789171Y-96930776D01*
X154767214Y-96941160D01*
X154744345Y-96949343D01*
X154720785Y-96955244D01*
X154696759Y-96958808D01*
X154672500Y-96960000D01*
X154177500Y-96960000D01*
X154153241Y-96958808D01*
X154129215Y-96955244D01*
X154105655Y-96949343D01*
X154082786Y-96941160D01*
X154060829Y-96930776D01*
X154039996Y-96918289D01*
X154020488Y-96903820D01*
X154002491Y-96887509D01*
X153986180Y-96869512D01*
X153971711Y-96850004D01*
X153959224Y-96829171D01*
X153948840Y-96807214D01*
X153940657Y-96784345D01*
X153934756Y-96760785D01*
X153931192Y-96736759D01*
X153930000Y-96712500D01*
X153930000Y-96167500D01*
X153931192Y-96143241D01*
X153934756Y-96119215D01*
X153940657Y-96095655D01*
X153948840Y-96072786D01*
X153959224Y-96050829D01*
X153971711Y-96029996D01*
X153986180Y-96010488D01*
X154002491Y-95992491D01*
X154020488Y-95976180D01*
X154039996Y-95961711D01*
X154060829Y-95949224D01*
X154082786Y-95938840D01*
X154105655Y-95930657D01*
X154129215Y-95924756D01*
X154153241Y-95921192D01*
X154177500Y-95920000D01*
X154672500Y-95920000D01*
X154696759Y-95921192D01*
X154696759Y-95921192D01*
G37*
D17*
X154425000Y-96440000D03*
G04 #@! TD*
D16*
G04 #@! TO.C,R2*
G36*
X154716759Y-94391192D02*
X154740785Y-94394756D01*
X154764345Y-94400657D01*
X154787214Y-94408840D01*
X154809171Y-94419224D01*
X154830004Y-94431711D01*
X154849512Y-94446180D01*
X154867509Y-94462491D01*
X154883820Y-94480488D01*
X154898289Y-94499996D01*
X154910776Y-94520829D01*
X154921160Y-94542786D01*
X154929343Y-94565655D01*
X154935244Y-94589215D01*
X154938808Y-94613241D01*
X154940000Y-94637500D01*
X154940000Y-95132500D01*
X154938808Y-95156759D01*
X154935244Y-95180785D01*
X154929343Y-95204345D01*
X154921160Y-95227214D01*
X154910776Y-95249171D01*
X154898289Y-95270004D01*
X154883820Y-95289512D01*
X154867509Y-95307509D01*
X154849512Y-95323820D01*
X154830004Y-95338289D01*
X154809171Y-95350776D01*
X154787214Y-95361160D01*
X154764345Y-95369343D01*
X154740785Y-95375244D01*
X154716759Y-95378808D01*
X154692500Y-95380000D01*
X154147500Y-95380000D01*
X154123241Y-95378808D01*
X154099215Y-95375244D01*
X154075655Y-95369343D01*
X154052786Y-95361160D01*
X154030829Y-95350776D01*
X154009996Y-95338289D01*
X153990488Y-95323820D01*
X153972491Y-95307509D01*
X153956180Y-95289512D01*
X153941711Y-95270004D01*
X153929224Y-95249171D01*
X153918840Y-95227214D01*
X153910657Y-95204345D01*
X153904756Y-95180785D01*
X153901192Y-95156759D01*
X153900000Y-95132500D01*
X153900000Y-94637500D01*
X153901192Y-94613241D01*
X153904756Y-94589215D01*
X153910657Y-94565655D01*
X153918840Y-94542786D01*
X153929224Y-94520829D01*
X153941711Y-94499996D01*
X153956180Y-94480488D01*
X153972491Y-94462491D01*
X153990488Y-94446180D01*
X154009996Y-94431711D01*
X154030829Y-94419224D01*
X154052786Y-94408840D01*
X154075655Y-94400657D01*
X154099215Y-94394756D01*
X154123241Y-94391192D01*
X154147500Y-94390000D01*
X154692500Y-94390000D01*
X154716759Y-94391192D01*
X154716759Y-94391192D01*
G37*
D17*
X154420000Y-94885000D03*
D16*
G36*
X154716759Y-93421192D02*
X154740785Y-93424756D01*
X154764345Y-93430657D01*
X154787214Y-93438840D01*
X154809171Y-93449224D01*
X154830004Y-93461711D01*
X154849512Y-93476180D01*
X154867509Y-93492491D01*
X154883820Y-93510488D01*
X154898289Y-93529996D01*
X154910776Y-93550829D01*
X154921160Y-93572786D01*
X154929343Y-93595655D01*
X154935244Y-93619215D01*
X154938808Y-93643241D01*
X154940000Y-93667500D01*
X154940000Y-94162500D01*
X154938808Y-94186759D01*
X154935244Y-94210785D01*
X154929343Y-94234345D01*
X154921160Y-94257214D01*
X154910776Y-94279171D01*
X154898289Y-94300004D01*
X154883820Y-94319512D01*
X154867509Y-94337509D01*
X154849512Y-94353820D01*
X154830004Y-94368289D01*
X154809171Y-94380776D01*
X154787214Y-94391160D01*
X154764345Y-94399343D01*
X154740785Y-94405244D01*
X154716759Y-94408808D01*
X154692500Y-94410000D01*
X154147500Y-94410000D01*
X154123241Y-94408808D01*
X154099215Y-94405244D01*
X154075655Y-94399343D01*
X154052786Y-94391160D01*
X154030829Y-94380776D01*
X154009996Y-94368289D01*
X153990488Y-94353820D01*
X153972491Y-94337509D01*
X153956180Y-94319512D01*
X153941711Y-94300004D01*
X153929224Y-94279171D01*
X153918840Y-94257214D01*
X153910657Y-94234345D01*
X153904756Y-94210785D01*
X153901192Y-94186759D01*
X153900000Y-94162500D01*
X153900000Y-93667500D01*
X153901192Y-93643241D01*
X153904756Y-93619215D01*
X153910657Y-93595655D01*
X153918840Y-93572786D01*
X153929224Y-93550829D01*
X153941711Y-93529996D01*
X153956180Y-93510488D01*
X153972491Y-93492491D01*
X153990488Y-93476180D01*
X154009996Y-93461711D01*
X154030829Y-93449224D01*
X154052786Y-93438840D01*
X154075655Y-93430657D01*
X154099215Y-93424756D01*
X154123241Y-93421192D01*
X154147500Y-93420000D01*
X154692500Y-93420000D01*
X154716759Y-93421192D01*
X154716759Y-93421192D01*
G37*
D17*
X154420000Y-93915000D03*
G04 #@! TD*
M02*
