M48
;DRILL file {KiCad (5.0.0)} date 10/23/19 21:11:15
;FORMAT={-:-/ absolute / metric / decimal}
FMAT,2
METRIC,TZ
T1C0.800
T2C1.000
%
G90
G05
M71
T1
X136.77Y-56.04
X136.77Y-58.58
X136.77Y-61.12
X136.77Y-63.66
X136.77Y-66.2
X136.77Y-68.74
X136.77Y-71.28
X136.77Y-73.82
X136.77Y-76.36
X136.77Y-78.9
X136.77Y-81.44
X136.77Y-83.98
X136.77Y-86.52
X136.77Y-89.06
X136.77Y-91.6
X152.01Y-56.04
X152.01Y-58.58
X152.01Y-61.12
X152.01Y-63.66
X152.01Y-66.2
X152.01Y-68.74
X152.01Y-71.28
X152.01Y-73.82
X152.01Y-76.36
X152.01Y-78.9
X152.01Y-81.44
X152.01Y-83.98
X152.01Y-86.52
X152.01Y-89.06
X152.01Y-91.6
T2
X153.565Y-112.9
X156.105Y-112.9
X158.645Y-112.9
X153.565Y-101.59
X156.105Y-101.59
X158.645Y-101.59
X139.43Y-107.31
X141.97Y-107.31
X153.565Y-105.37
X156.105Y-105.37
X158.645Y-105.37
X136.82Y-103.03
X139.36Y-103.03
X141.9Y-103.03
X144.44Y-103.03
X146.98Y-103.03
X149.52Y-103.03
X153.565Y-109.12
X156.105Y-109.12
X158.645Y-109.12
X157.72Y-53.83
X157.72Y-56.37
X157.72Y-58.91
X153.565Y-116.63
X156.105Y-116.63
X158.645Y-116.63
T0
M30
