G04 #@! TF.GenerationSoftware,KiCad,Pcbnew,(5.0.0)*
G04 #@! TF.CreationDate,2019-10-27T09:20:16+11:00*
G04 #@! TF.ProjectId,Kineses_Board,4B696E657365735F426F6172642E6B69,rev?*
G04 #@! TF.SameCoordinates,Original*
G04 #@! TF.FileFunction,Paste,Top*
G04 #@! TF.FilePolarity,Positive*
%FSLAX46Y46*%
G04 Gerber Fmt 4.6, Leading zero omitted, Abs format (unit mm)*
G04 Created by KiCad (PCBNEW (5.0.0)) date 10/27/19 09:20:16*
%MOMM*%
%LPD*%
G01*
G04 APERTURE LIST*
%ADD10R,3.000000X1.600000*%
%ADD11C,0.100000*%
%ADD12C,0.590000*%
G04 APERTURE END LIST*
D10*
G04 #@! TO.C,C1*
X141020000Y-98670000D03*
X145420000Y-98670000D03*
G04 #@! TD*
D11*
G04 #@! TO.C,C2*
G36*
X138666958Y-97110710D02*
X138681276Y-97112834D01*
X138695317Y-97116351D01*
X138708946Y-97121228D01*
X138722031Y-97127417D01*
X138734447Y-97134858D01*
X138746073Y-97143481D01*
X138756798Y-97153202D01*
X138766519Y-97163927D01*
X138775142Y-97175553D01*
X138782583Y-97187969D01*
X138788772Y-97201054D01*
X138793649Y-97214683D01*
X138797166Y-97228724D01*
X138799290Y-97243042D01*
X138800000Y-97257500D01*
X138800000Y-97552500D01*
X138799290Y-97566958D01*
X138797166Y-97581276D01*
X138793649Y-97595317D01*
X138788772Y-97608946D01*
X138782583Y-97622031D01*
X138775142Y-97634447D01*
X138766519Y-97646073D01*
X138756798Y-97656798D01*
X138746073Y-97666519D01*
X138734447Y-97675142D01*
X138722031Y-97682583D01*
X138708946Y-97688772D01*
X138695317Y-97693649D01*
X138681276Y-97697166D01*
X138666958Y-97699290D01*
X138652500Y-97700000D01*
X138307500Y-97700000D01*
X138293042Y-97699290D01*
X138278724Y-97697166D01*
X138264683Y-97693649D01*
X138251054Y-97688772D01*
X138237969Y-97682583D01*
X138225553Y-97675142D01*
X138213927Y-97666519D01*
X138203202Y-97656798D01*
X138193481Y-97646073D01*
X138184858Y-97634447D01*
X138177417Y-97622031D01*
X138171228Y-97608946D01*
X138166351Y-97595317D01*
X138162834Y-97581276D01*
X138160710Y-97566958D01*
X138160000Y-97552500D01*
X138160000Y-97257500D01*
X138160710Y-97243042D01*
X138162834Y-97228724D01*
X138166351Y-97214683D01*
X138171228Y-97201054D01*
X138177417Y-97187969D01*
X138184858Y-97175553D01*
X138193481Y-97163927D01*
X138203202Y-97153202D01*
X138213927Y-97143481D01*
X138225553Y-97134858D01*
X138237969Y-97127417D01*
X138251054Y-97121228D01*
X138264683Y-97116351D01*
X138278724Y-97112834D01*
X138293042Y-97110710D01*
X138307500Y-97110000D01*
X138652500Y-97110000D01*
X138666958Y-97110710D01*
X138666958Y-97110710D01*
G37*
D12*
X138480000Y-97405000D03*
D11*
G36*
X138666958Y-96140710D02*
X138681276Y-96142834D01*
X138695317Y-96146351D01*
X138708946Y-96151228D01*
X138722031Y-96157417D01*
X138734447Y-96164858D01*
X138746073Y-96173481D01*
X138756798Y-96183202D01*
X138766519Y-96193927D01*
X138775142Y-96205553D01*
X138782583Y-96217969D01*
X138788772Y-96231054D01*
X138793649Y-96244683D01*
X138797166Y-96258724D01*
X138799290Y-96273042D01*
X138800000Y-96287500D01*
X138800000Y-96582500D01*
X138799290Y-96596958D01*
X138797166Y-96611276D01*
X138793649Y-96625317D01*
X138788772Y-96638946D01*
X138782583Y-96652031D01*
X138775142Y-96664447D01*
X138766519Y-96676073D01*
X138756798Y-96686798D01*
X138746073Y-96696519D01*
X138734447Y-96705142D01*
X138722031Y-96712583D01*
X138708946Y-96718772D01*
X138695317Y-96723649D01*
X138681276Y-96727166D01*
X138666958Y-96729290D01*
X138652500Y-96730000D01*
X138307500Y-96730000D01*
X138293042Y-96729290D01*
X138278724Y-96727166D01*
X138264683Y-96723649D01*
X138251054Y-96718772D01*
X138237969Y-96712583D01*
X138225553Y-96705142D01*
X138213927Y-96696519D01*
X138203202Y-96686798D01*
X138193481Y-96676073D01*
X138184858Y-96664447D01*
X138177417Y-96652031D01*
X138171228Y-96638946D01*
X138166351Y-96625317D01*
X138162834Y-96611276D01*
X138160710Y-96596958D01*
X138160000Y-96582500D01*
X138160000Y-96287500D01*
X138160710Y-96273042D01*
X138162834Y-96258724D01*
X138166351Y-96244683D01*
X138171228Y-96231054D01*
X138177417Y-96217969D01*
X138184858Y-96205553D01*
X138193481Y-96193927D01*
X138203202Y-96183202D01*
X138213927Y-96173481D01*
X138225553Y-96164858D01*
X138237969Y-96157417D01*
X138251054Y-96151228D01*
X138264683Y-96146351D01*
X138278724Y-96142834D01*
X138293042Y-96140710D01*
X138307500Y-96140000D01*
X138652500Y-96140000D01*
X138666958Y-96140710D01*
X138666958Y-96140710D01*
G37*
D12*
X138480000Y-96435000D03*
G04 #@! TD*
D11*
G04 #@! TO.C,C3*
G36*
X137571958Y-96160710D02*
X137586276Y-96162834D01*
X137600317Y-96166351D01*
X137613946Y-96171228D01*
X137627031Y-96177417D01*
X137639447Y-96184858D01*
X137651073Y-96193481D01*
X137661798Y-96203202D01*
X137671519Y-96213927D01*
X137680142Y-96225553D01*
X137687583Y-96237969D01*
X137693772Y-96251054D01*
X137698649Y-96264683D01*
X137702166Y-96278724D01*
X137704290Y-96293042D01*
X137705000Y-96307500D01*
X137705000Y-96602500D01*
X137704290Y-96616958D01*
X137702166Y-96631276D01*
X137698649Y-96645317D01*
X137693772Y-96658946D01*
X137687583Y-96672031D01*
X137680142Y-96684447D01*
X137671519Y-96696073D01*
X137661798Y-96706798D01*
X137651073Y-96716519D01*
X137639447Y-96725142D01*
X137627031Y-96732583D01*
X137613946Y-96738772D01*
X137600317Y-96743649D01*
X137586276Y-96747166D01*
X137571958Y-96749290D01*
X137557500Y-96750000D01*
X137212500Y-96750000D01*
X137198042Y-96749290D01*
X137183724Y-96747166D01*
X137169683Y-96743649D01*
X137156054Y-96738772D01*
X137142969Y-96732583D01*
X137130553Y-96725142D01*
X137118927Y-96716519D01*
X137108202Y-96706798D01*
X137098481Y-96696073D01*
X137089858Y-96684447D01*
X137082417Y-96672031D01*
X137076228Y-96658946D01*
X137071351Y-96645317D01*
X137067834Y-96631276D01*
X137065710Y-96616958D01*
X137065000Y-96602500D01*
X137065000Y-96307500D01*
X137065710Y-96293042D01*
X137067834Y-96278724D01*
X137071351Y-96264683D01*
X137076228Y-96251054D01*
X137082417Y-96237969D01*
X137089858Y-96225553D01*
X137098481Y-96213927D01*
X137108202Y-96203202D01*
X137118927Y-96193481D01*
X137130553Y-96184858D01*
X137142969Y-96177417D01*
X137156054Y-96171228D01*
X137169683Y-96166351D01*
X137183724Y-96162834D01*
X137198042Y-96160710D01*
X137212500Y-96160000D01*
X137557500Y-96160000D01*
X137571958Y-96160710D01*
X137571958Y-96160710D01*
G37*
D12*
X137385000Y-96455000D03*
D11*
G36*
X137571958Y-97130710D02*
X137586276Y-97132834D01*
X137600317Y-97136351D01*
X137613946Y-97141228D01*
X137627031Y-97147417D01*
X137639447Y-97154858D01*
X137651073Y-97163481D01*
X137661798Y-97173202D01*
X137671519Y-97183927D01*
X137680142Y-97195553D01*
X137687583Y-97207969D01*
X137693772Y-97221054D01*
X137698649Y-97234683D01*
X137702166Y-97248724D01*
X137704290Y-97263042D01*
X137705000Y-97277500D01*
X137705000Y-97572500D01*
X137704290Y-97586958D01*
X137702166Y-97601276D01*
X137698649Y-97615317D01*
X137693772Y-97628946D01*
X137687583Y-97642031D01*
X137680142Y-97654447D01*
X137671519Y-97666073D01*
X137661798Y-97676798D01*
X137651073Y-97686519D01*
X137639447Y-97695142D01*
X137627031Y-97702583D01*
X137613946Y-97708772D01*
X137600317Y-97713649D01*
X137586276Y-97717166D01*
X137571958Y-97719290D01*
X137557500Y-97720000D01*
X137212500Y-97720000D01*
X137198042Y-97719290D01*
X137183724Y-97717166D01*
X137169683Y-97713649D01*
X137156054Y-97708772D01*
X137142969Y-97702583D01*
X137130553Y-97695142D01*
X137118927Y-97686519D01*
X137108202Y-97676798D01*
X137098481Y-97666073D01*
X137089858Y-97654447D01*
X137082417Y-97642031D01*
X137076228Y-97628946D01*
X137071351Y-97615317D01*
X137067834Y-97601276D01*
X137065710Y-97586958D01*
X137065000Y-97572500D01*
X137065000Y-97277500D01*
X137065710Y-97263042D01*
X137067834Y-97248724D01*
X137071351Y-97234683D01*
X137076228Y-97221054D01*
X137082417Y-97207969D01*
X137089858Y-97195553D01*
X137098481Y-97183927D01*
X137108202Y-97173202D01*
X137118927Y-97163481D01*
X137130553Y-97154858D01*
X137142969Y-97147417D01*
X137156054Y-97141228D01*
X137169683Y-97136351D01*
X137183724Y-97132834D01*
X137198042Y-97130710D01*
X137212500Y-97130000D01*
X137557500Y-97130000D01*
X137571958Y-97130710D01*
X137571958Y-97130710D01*
G37*
D12*
X137385000Y-97425000D03*
G04 #@! TD*
D11*
G04 #@! TO.C,C4*
G36*
X136476958Y-97130710D02*
X136491276Y-97132834D01*
X136505317Y-97136351D01*
X136518946Y-97141228D01*
X136532031Y-97147417D01*
X136544447Y-97154858D01*
X136556073Y-97163481D01*
X136566798Y-97173202D01*
X136576519Y-97183927D01*
X136585142Y-97195553D01*
X136592583Y-97207969D01*
X136598772Y-97221054D01*
X136603649Y-97234683D01*
X136607166Y-97248724D01*
X136609290Y-97263042D01*
X136610000Y-97277500D01*
X136610000Y-97572500D01*
X136609290Y-97586958D01*
X136607166Y-97601276D01*
X136603649Y-97615317D01*
X136598772Y-97628946D01*
X136592583Y-97642031D01*
X136585142Y-97654447D01*
X136576519Y-97666073D01*
X136566798Y-97676798D01*
X136556073Y-97686519D01*
X136544447Y-97695142D01*
X136532031Y-97702583D01*
X136518946Y-97708772D01*
X136505317Y-97713649D01*
X136491276Y-97717166D01*
X136476958Y-97719290D01*
X136462500Y-97720000D01*
X136117500Y-97720000D01*
X136103042Y-97719290D01*
X136088724Y-97717166D01*
X136074683Y-97713649D01*
X136061054Y-97708772D01*
X136047969Y-97702583D01*
X136035553Y-97695142D01*
X136023927Y-97686519D01*
X136013202Y-97676798D01*
X136003481Y-97666073D01*
X135994858Y-97654447D01*
X135987417Y-97642031D01*
X135981228Y-97628946D01*
X135976351Y-97615317D01*
X135972834Y-97601276D01*
X135970710Y-97586958D01*
X135970000Y-97572500D01*
X135970000Y-97277500D01*
X135970710Y-97263042D01*
X135972834Y-97248724D01*
X135976351Y-97234683D01*
X135981228Y-97221054D01*
X135987417Y-97207969D01*
X135994858Y-97195553D01*
X136003481Y-97183927D01*
X136013202Y-97173202D01*
X136023927Y-97163481D01*
X136035553Y-97154858D01*
X136047969Y-97147417D01*
X136061054Y-97141228D01*
X136074683Y-97136351D01*
X136088724Y-97132834D01*
X136103042Y-97130710D01*
X136117500Y-97130000D01*
X136462500Y-97130000D01*
X136476958Y-97130710D01*
X136476958Y-97130710D01*
G37*
D12*
X136290000Y-97425000D03*
D11*
G36*
X136476958Y-96160710D02*
X136491276Y-96162834D01*
X136505317Y-96166351D01*
X136518946Y-96171228D01*
X136532031Y-96177417D01*
X136544447Y-96184858D01*
X136556073Y-96193481D01*
X136566798Y-96203202D01*
X136576519Y-96213927D01*
X136585142Y-96225553D01*
X136592583Y-96237969D01*
X136598772Y-96251054D01*
X136603649Y-96264683D01*
X136607166Y-96278724D01*
X136609290Y-96293042D01*
X136610000Y-96307500D01*
X136610000Y-96602500D01*
X136609290Y-96616958D01*
X136607166Y-96631276D01*
X136603649Y-96645317D01*
X136598772Y-96658946D01*
X136592583Y-96672031D01*
X136585142Y-96684447D01*
X136576519Y-96696073D01*
X136566798Y-96706798D01*
X136556073Y-96716519D01*
X136544447Y-96725142D01*
X136532031Y-96732583D01*
X136518946Y-96738772D01*
X136505317Y-96743649D01*
X136491276Y-96747166D01*
X136476958Y-96749290D01*
X136462500Y-96750000D01*
X136117500Y-96750000D01*
X136103042Y-96749290D01*
X136088724Y-96747166D01*
X136074683Y-96743649D01*
X136061054Y-96738772D01*
X136047969Y-96732583D01*
X136035553Y-96725142D01*
X136023927Y-96716519D01*
X136013202Y-96706798D01*
X136003481Y-96696073D01*
X135994858Y-96684447D01*
X135987417Y-96672031D01*
X135981228Y-96658946D01*
X135976351Y-96645317D01*
X135972834Y-96631276D01*
X135970710Y-96616958D01*
X135970000Y-96602500D01*
X135970000Y-96307500D01*
X135970710Y-96293042D01*
X135972834Y-96278724D01*
X135976351Y-96264683D01*
X135981228Y-96251054D01*
X135987417Y-96237969D01*
X135994858Y-96225553D01*
X136003481Y-96213927D01*
X136013202Y-96203202D01*
X136023927Y-96193481D01*
X136035553Y-96184858D01*
X136047969Y-96177417D01*
X136061054Y-96171228D01*
X136074683Y-96166351D01*
X136088724Y-96162834D01*
X136103042Y-96160710D01*
X136117500Y-96160000D01*
X136462500Y-96160000D01*
X136476958Y-96160710D01*
X136476958Y-96160710D01*
G37*
D12*
X136290000Y-96455000D03*
G04 #@! TD*
D11*
G04 #@! TO.C,R1*
G36*
X155556958Y-96120710D02*
X155571276Y-96122834D01*
X155585317Y-96126351D01*
X155598946Y-96131228D01*
X155612031Y-96137417D01*
X155624447Y-96144858D01*
X155636073Y-96153481D01*
X155646798Y-96163202D01*
X155656519Y-96173927D01*
X155665142Y-96185553D01*
X155672583Y-96197969D01*
X155678772Y-96211054D01*
X155683649Y-96224683D01*
X155687166Y-96238724D01*
X155689290Y-96253042D01*
X155690000Y-96267500D01*
X155690000Y-96612500D01*
X155689290Y-96626958D01*
X155687166Y-96641276D01*
X155683649Y-96655317D01*
X155678772Y-96668946D01*
X155672583Y-96682031D01*
X155665142Y-96694447D01*
X155656519Y-96706073D01*
X155646798Y-96716798D01*
X155636073Y-96726519D01*
X155624447Y-96735142D01*
X155612031Y-96742583D01*
X155598946Y-96748772D01*
X155585317Y-96753649D01*
X155571276Y-96757166D01*
X155556958Y-96759290D01*
X155542500Y-96760000D01*
X155247500Y-96760000D01*
X155233042Y-96759290D01*
X155218724Y-96757166D01*
X155204683Y-96753649D01*
X155191054Y-96748772D01*
X155177969Y-96742583D01*
X155165553Y-96735142D01*
X155153927Y-96726519D01*
X155143202Y-96716798D01*
X155133481Y-96706073D01*
X155124858Y-96694447D01*
X155117417Y-96682031D01*
X155111228Y-96668946D01*
X155106351Y-96655317D01*
X155102834Y-96641276D01*
X155100710Y-96626958D01*
X155100000Y-96612500D01*
X155100000Y-96267500D01*
X155100710Y-96253042D01*
X155102834Y-96238724D01*
X155106351Y-96224683D01*
X155111228Y-96211054D01*
X155117417Y-96197969D01*
X155124858Y-96185553D01*
X155133481Y-96173927D01*
X155143202Y-96163202D01*
X155153927Y-96153481D01*
X155165553Y-96144858D01*
X155177969Y-96137417D01*
X155191054Y-96131228D01*
X155204683Y-96126351D01*
X155218724Y-96122834D01*
X155233042Y-96120710D01*
X155247500Y-96120000D01*
X155542500Y-96120000D01*
X155556958Y-96120710D01*
X155556958Y-96120710D01*
G37*
D12*
X155395000Y-96440000D03*
D11*
G36*
X154586958Y-96120710D02*
X154601276Y-96122834D01*
X154615317Y-96126351D01*
X154628946Y-96131228D01*
X154642031Y-96137417D01*
X154654447Y-96144858D01*
X154666073Y-96153481D01*
X154676798Y-96163202D01*
X154686519Y-96173927D01*
X154695142Y-96185553D01*
X154702583Y-96197969D01*
X154708772Y-96211054D01*
X154713649Y-96224683D01*
X154717166Y-96238724D01*
X154719290Y-96253042D01*
X154720000Y-96267500D01*
X154720000Y-96612500D01*
X154719290Y-96626958D01*
X154717166Y-96641276D01*
X154713649Y-96655317D01*
X154708772Y-96668946D01*
X154702583Y-96682031D01*
X154695142Y-96694447D01*
X154686519Y-96706073D01*
X154676798Y-96716798D01*
X154666073Y-96726519D01*
X154654447Y-96735142D01*
X154642031Y-96742583D01*
X154628946Y-96748772D01*
X154615317Y-96753649D01*
X154601276Y-96757166D01*
X154586958Y-96759290D01*
X154572500Y-96760000D01*
X154277500Y-96760000D01*
X154263042Y-96759290D01*
X154248724Y-96757166D01*
X154234683Y-96753649D01*
X154221054Y-96748772D01*
X154207969Y-96742583D01*
X154195553Y-96735142D01*
X154183927Y-96726519D01*
X154173202Y-96716798D01*
X154163481Y-96706073D01*
X154154858Y-96694447D01*
X154147417Y-96682031D01*
X154141228Y-96668946D01*
X154136351Y-96655317D01*
X154132834Y-96641276D01*
X154130710Y-96626958D01*
X154130000Y-96612500D01*
X154130000Y-96267500D01*
X154130710Y-96253042D01*
X154132834Y-96238724D01*
X154136351Y-96224683D01*
X154141228Y-96211054D01*
X154147417Y-96197969D01*
X154154858Y-96185553D01*
X154163481Y-96173927D01*
X154173202Y-96163202D01*
X154183927Y-96153481D01*
X154195553Y-96144858D01*
X154207969Y-96137417D01*
X154221054Y-96131228D01*
X154234683Y-96126351D01*
X154248724Y-96122834D01*
X154263042Y-96120710D01*
X154277500Y-96120000D01*
X154572500Y-96120000D01*
X154586958Y-96120710D01*
X154586958Y-96120710D01*
G37*
D12*
X154425000Y-96440000D03*
G04 #@! TD*
D11*
G04 #@! TO.C,R2*
G36*
X154606958Y-94590710D02*
X154621276Y-94592834D01*
X154635317Y-94596351D01*
X154648946Y-94601228D01*
X154662031Y-94607417D01*
X154674447Y-94614858D01*
X154686073Y-94623481D01*
X154696798Y-94633202D01*
X154706519Y-94643927D01*
X154715142Y-94655553D01*
X154722583Y-94667969D01*
X154728772Y-94681054D01*
X154733649Y-94694683D01*
X154737166Y-94708724D01*
X154739290Y-94723042D01*
X154740000Y-94737500D01*
X154740000Y-95032500D01*
X154739290Y-95046958D01*
X154737166Y-95061276D01*
X154733649Y-95075317D01*
X154728772Y-95088946D01*
X154722583Y-95102031D01*
X154715142Y-95114447D01*
X154706519Y-95126073D01*
X154696798Y-95136798D01*
X154686073Y-95146519D01*
X154674447Y-95155142D01*
X154662031Y-95162583D01*
X154648946Y-95168772D01*
X154635317Y-95173649D01*
X154621276Y-95177166D01*
X154606958Y-95179290D01*
X154592500Y-95180000D01*
X154247500Y-95180000D01*
X154233042Y-95179290D01*
X154218724Y-95177166D01*
X154204683Y-95173649D01*
X154191054Y-95168772D01*
X154177969Y-95162583D01*
X154165553Y-95155142D01*
X154153927Y-95146519D01*
X154143202Y-95136798D01*
X154133481Y-95126073D01*
X154124858Y-95114447D01*
X154117417Y-95102031D01*
X154111228Y-95088946D01*
X154106351Y-95075317D01*
X154102834Y-95061276D01*
X154100710Y-95046958D01*
X154100000Y-95032500D01*
X154100000Y-94737500D01*
X154100710Y-94723042D01*
X154102834Y-94708724D01*
X154106351Y-94694683D01*
X154111228Y-94681054D01*
X154117417Y-94667969D01*
X154124858Y-94655553D01*
X154133481Y-94643927D01*
X154143202Y-94633202D01*
X154153927Y-94623481D01*
X154165553Y-94614858D01*
X154177969Y-94607417D01*
X154191054Y-94601228D01*
X154204683Y-94596351D01*
X154218724Y-94592834D01*
X154233042Y-94590710D01*
X154247500Y-94590000D01*
X154592500Y-94590000D01*
X154606958Y-94590710D01*
X154606958Y-94590710D01*
G37*
D12*
X154420000Y-94885000D03*
D11*
G36*
X154606958Y-93620710D02*
X154621276Y-93622834D01*
X154635317Y-93626351D01*
X154648946Y-93631228D01*
X154662031Y-93637417D01*
X154674447Y-93644858D01*
X154686073Y-93653481D01*
X154696798Y-93663202D01*
X154706519Y-93673927D01*
X154715142Y-93685553D01*
X154722583Y-93697969D01*
X154728772Y-93711054D01*
X154733649Y-93724683D01*
X154737166Y-93738724D01*
X154739290Y-93753042D01*
X154740000Y-93767500D01*
X154740000Y-94062500D01*
X154739290Y-94076958D01*
X154737166Y-94091276D01*
X154733649Y-94105317D01*
X154728772Y-94118946D01*
X154722583Y-94132031D01*
X154715142Y-94144447D01*
X154706519Y-94156073D01*
X154696798Y-94166798D01*
X154686073Y-94176519D01*
X154674447Y-94185142D01*
X154662031Y-94192583D01*
X154648946Y-94198772D01*
X154635317Y-94203649D01*
X154621276Y-94207166D01*
X154606958Y-94209290D01*
X154592500Y-94210000D01*
X154247500Y-94210000D01*
X154233042Y-94209290D01*
X154218724Y-94207166D01*
X154204683Y-94203649D01*
X154191054Y-94198772D01*
X154177969Y-94192583D01*
X154165553Y-94185142D01*
X154153927Y-94176519D01*
X154143202Y-94166798D01*
X154133481Y-94156073D01*
X154124858Y-94144447D01*
X154117417Y-94132031D01*
X154111228Y-94118946D01*
X154106351Y-94105317D01*
X154102834Y-94091276D01*
X154100710Y-94076958D01*
X154100000Y-94062500D01*
X154100000Y-93767500D01*
X154100710Y-93753042D01*
X154102834Y-93738724D01*
X154106351Y-93724683D01*
X154111228Y-93711054D01*
X154117417Y-93697969D01*
X154124858Y-93685553D01*
X154133481Y-93673927D01*
X154143202Y-93663202D01*
X154153927Y-93653481D01*
X154165553Y-93644858D01*
X154177969Y-93637417D01*
X154191054Y-93631228D01*
X154204683Y-93626351D01*
X154218724Y-93622834D01*
X154233042Y-93620710D01*
X154247500Y-93620000D01*
X154592500Y-93620000D01*
X154606958Y-93620710D01*
X154606958Y-93620710D01*
G37*
D12*
X154420000Y-93915000D03*
G04 #@! TD*
M02*
