G04 #@! TF.GenerationSoftware,KiCad,Pcbnew,(5.0.0)*
G04 #@! TF.CreationDate,2020-03-24T20:16:55+11:00*
G04 #@! TF.ProjectId,DAQ Board,44415120426F6172642E6B696361645F,rev?*
G04 #@! TF.SameCoordinates,Original*
G04 #@! TF.FileFunction,Copper,L2,Bot,Signal*
G04 #@! TF.FilePolarity,Positive*
%FSLAX46Y46*%
G04 Gerber Fmt 4.6, Leading zero omitted, Abs format (unit mm)*
G04 Created by KiCad (PCBNEW (5.0.0)) date 03/24/20 20:16:55*
%MOMM*%
%LPD*%
G01*
G04 APERTURE LIST*
G04 #@! TA.AperFunction,ComponentPad*
%ADD10O,1.700000X1.700000*%
G04 #@! TD*
G04 #@! TA.AperFunction,ComponentPad*
%ADD11R,1.700000X1.700000*%
G04 #@! TD*
G04 #@! TA.AperFunction,ViaPad*
%ADD12C,0.800000*%
G04 #@! TD*
G04 #@! TA.AperFunction,Conductor*
%ADD13C,0.250000*%
G04 #@! TD*
G04 #@! TA.AperFunction,Conductor*
%ADD14C,0.300000*%
G04 #@! TD*
G04 #@! TA.AperFunction,Conductor*
%ADD15C,0.254000*%
G04 #@! TD*
G04 APERTURE END LIST*
D10*
G04 #@! TO.P,J1,16*
G04 #@! TO.N,/VCAP3*
X78740000Y-119358750D03*
G04 #@! TO.P,J1,15*
G04 #@! TO.N,/AVDD*
X78740000Y-116818750D03*
G04 #@! TO.P,J1,14*
G04 #@! TO.N,/DVDD*
X78740000Y-114278750D03*
G04 #@! TO.P,J1,13*
X78740000Y-111738750D03*
G04 #@! TO.P,J1,12*
G04 #@! TO.N,/~DRDY*
X78740000Y-109198750D03*
G04 #@! TO.P,J1,11*
G04 #@! TO.N,/MISO*
X78740000Y-106658750D03*
G04 #@! TO.P,J1,10*
G04 #@! TO.N,/SCLK*
X78740000Y-104118750D03*
G04 #@! TO.P,J1,9*
G04 #@! TO.N,/~CS*
X78740000Y-101578750D03*
G04 #@! TO.P,J1,8*
G04 #@! TO.N,/START*
X78740000Y-99038750D03*
G04 #@! TO.P,J1,7*
G04 #@! TO.N,/~RESET*
X78740000Y-96498750D03*
G04 #@! TO.P,J1,6*
G04 #@! TO.N,/~PWDN*
X78740000Y-93958750D03*
G04 #@! TO.P,J1,5*
G04 #@! TO.N,/MOSI*
X78740000Y-91418750D03*
G04 #@! TO.P,J1,4*
G04 #@! TO.N,Net-(J1-Pad4)*
X78740000Y-88878750D03*
G04 #@! TO.P,J1,3*
G04 #@! TO.N,Net-(J1-Pad3)*
X78740000Y-86338750D03*
G04 #@! TO.P,J1,2*
G04 #@! TO.N,/AVSS*
X78740000Y-83798750D03*
D11*
G04 #@! TO.P,J1,1*
G04 #@! TO.N,/VIN*
X78740000Y-81258750D03*
G04 #@! TD*
G04 #@! TO.P,J2,1*
G04 #@! TO.N,/VCAP4*
X124460000Y-119380000D03*
D10*
G04 #@! TO.P,J2,2*
G04 #@! TO.N,/VREFP*
X124460000Y-116840000D03*
G04 #@! TO.P,J2,3*
G04 #@! TO.N,Net-(J2-Pad3)*
X124460000Y-114300000D03*
G04 #@! TO.P,J2,4*
G04 #@! TO.N,Net-(J2-Pad4)*
X124460000Y-111760000D03*
G04 #@! TO.P,J2,5*
G04 #@! TO.N,/IN1*
X124460000Y-109220000D03*
G04 #@! TO.P,J2,6*
G04 #@! TO.N,/IN2*
X124460000Y-106680000D03*
G04 #@! TO.P,J2,7*
G04 #@! TO.N,/IN3*
X124460000Y-104140000D03*
G04 #@! TO.P,J2,8*
G04 #@! TO.N,/IN4*
X124460000Y-101600000D03*
G04 #@! TO.P,J2,9*
G04 #@! TO.N,/IN5*
X124460000Y-99060000D03*
G04 #@! TO.P,J2,10*
G04 #@! TO.N,/IN6*
X124460000Y-96520000D03*
G04 #@! TO.P,J2,11*
G04 #@! TO.N,/IN7*
X124460000Y-93980000D03*
G04 #@! TO.P,J2,12*
G04 #@! TO.N,/IN8*
X124460000Y-91440000D03*
G04 #@! TO.P,J2,13*
G04 #@! TO.N,/REF*
X124460000Y-88900000D03*
G04 #@! TO.P,J2,14*
G04 #@! TO.N,/VCAP1*
X124460000Y-86360000D03*
G04 #@! TO.P,J2,15*
G04 #@! TO.N,/VCAP2*
X124460000Y-83820000D03*
G04 #@! TO.P,J2,16*
G04 #@! TO.N,Net-(J2-Pad16)*
X124460000Y-81280000D03*
G04 #@! TD*
D12*
G04 #@! TO.N,Net-(ADC1-Pad17)*
X108960000Y-111280000D03*
X110470000Y-114240000D03*
X109030000Y-108230000D03*
X109210000Y-104240000D03*
X109170000Y-99800000D03*
X109130000Y-95480000D03*
X108810000Y-89150000D03*
X108910000Y-84530000D03*
G04 #@! TO.N,/AVSS*
X101940000Y-104500000D03*
X100930000Y-108070000D03*
X91200000Y-100140000D03*
X98460000Y-104480000D03*
X94170000Y-117880000D03*
X92900000Y-114890000D03*
X101960000Y-94570000D03*
X102050000Y-96910000D03*
X90040000Y-95370000D03*
X89810000Y-91650000D03*
X91520000Y-89730000D03*
G04 #@! TO.N,/AVDD*
X103970000Y-107710000D03*
X94350000Y-116310000D03*
X103110000Y-118080000D03*
X105140000Y-101530000D03*
X94790000Y-98630000D03*
X103110000Y-91590000D03*
X107060000Y-113110000D03*
G04 #@! TO.N,/DVDD*
X88320000Y-117540000D03*
X96490000Y-111500000D03*
X94350000Y-112690000D03*
X91330000Y-101630000D03*
X101150000Y-93060000D03*
G04 #@! TD*
D13*
G04 #@! TO.N,Net-(ADC1-Pad17)*
X108910000Y-89050000D02*
X108810000Y-89150000D01*
X108910000Y-84530000D02*
X108910000Y-89050000D01*
X108810000Y-95160000D02*
X109130000Y-95480000D01*
X108810000Y-89150000D02*
X108810000Y-95160000D01*
X109130000Y-99760000D02*
X109170000Y-99800000D01*
X109130000Y-95480000D02*
X109130000Y-99760000D01*
X109170000Y-104200000D02*
X109210000Y-104240000D01*
X109170000Y-99800000D02*
X109170000Y-104200000D01*
X109210000Y-108050000D02*
X109030000Y-108230000D01*
X109210000Y-104240000D02*
X109210000Y-108050000D01*
X109030000Y-111210000D02*
X108960000Y-111280000D01*
X109030000Y-108230000D02*
X109030000Y-111210000D01*
X110470000Y-112790000D02*
X110470000Y-114240000D01*
X108960000Y-111280000D02*
X110470000Y-112790000D01*
D14*
G04 #@! TO.N,/AVSS*
X98490000Y-104510000D02*
X98460000Y-104480000D01*
X92900000Y-115455685D02*
X92900000Y-114890000D01*
X92900000Y-116044315D02*
X92900000Y-115455685D01*
X94170000Y-117314315D02*
X92900000Y-116044315D01*
X94170000Y-117880000D02*
X94170000Y-117314315D01*
X101960000Y-96820000D02*
X102050000Y-96910000D01*
X101960000Y-94570000D02*
X101960000Y-96820000D01*
X91520000Y-89940000D02*
X89810000Y-91650000D01*
X91520000Y-89730000D02*
X91520000Y-89940000D01*
X90950000Y-96280000D02*
X90040000Y-95370000D01*
X90950000Y-99324315D02*
X90950000Y-96280000D01*
X91200000Y-99574315D02*
X90950000Y-99324315D01*
X91200000Y-100140000D02*
X91200000Y-99574315D01*
X98460000Y-105600000D02*
X98460000Y-104480000D01*
X100930000Y-108070000D02*
X98460000Y-105600000D01*
X98480000Y-104500000D02*
X98460000Y-104480000D01*
X101940000Y-104500000D02*
X98480000Y-104500000D01*
G04 #@! TD*
D15*
G04 #@! TO.N,/DVDD*
G36*
X101809710Y-93845353D02*
X101548187Y-93953679D01*
X101343679Y-94158187D01*
X101233000Y-94425391D01*
X101233000Y-94688646D01*
X88940782Y-94613002D01*
X88892122Y-94622370D01*
X88850752Y-94649647D01*
X88822969Y-94690678D01*
X88813000Y-94740157D01*
X88820570Y-100850135D01*
X88830298Y-100898724D01*
X88857879Y-100939892D01*
X88899115Y-100967371D01*
X88947569Y-100976978D01*
X92242531Y-100976999D01*
X92233464Y-103434105D01*
X88936492Y-103463032D01*
X88887978Y-103473125D01*
X88847019Y-103501016D01*
X88819851Y-103542457D01*
X88810607Y-103590417D01*
X88833001Y-110880390D01*
X88842817Y-110928961D01*
X88870474Y-110970078D01*
X88911760Y-110997481D01*
X88961096Y-111006995D01*
X98103380Y-110928097D01*
X98113513Y-114343361D01*
X93397184Y-114359050D01*
X93311813Y-114273679D01*
X93044609Y-114163000D01*
X92755391Y-114163000D01*
X92488187Y-114273679D01*
X92399497Y-114362369D01*
X92209578Y-114363001D01*
X92161009Y-114372830D01*
X92119899Y-114400497D01*
X92092506Y-114441790D01*
X92083047Y-114486530D01*
X91897798Y-121264953D01*
X77081811Y-121267920D01*
X77080917Y-119358750D01*
X77539942Y-119358750D01*
X77631291Y-119817992D01*
X77891431Y-120207319D01*
X78280758Y-120467459D01*
X78624080Y-120535750D01*
X78855920Y-120535750D01*
X79199242Y-120467459D01*
X79588569Y-120207319D01*
X79848709Y-119817992D01*
X79940058Y-119358750D01*
X79848709Y-118899508D01*
X79588569Y-118510181D01*
X79199242Y-118250041D01*
X78855920Y-118181750D01*
X78624080Y-118181750D01*
X78280758Y-118250041D01*
X77891431Y-118510181D01*
X77631291Y-118899508D01*
X77539942Y-119358750D01*
X77080917Y-119358750D01*
X77078702Y-114635640D01*
X77298524Y-114635640D01*
X77468355Y-115045674D01*
X77858642Y-115473933D01*
X78337406Y-115698773D01*
X78280758Y-115710041D01*
X77891431Y-115970181D01*
X77631291Y-116359508D01*
X77539942Y-116818750D01*
X77631291Y-117277992D01*
X77891431Y-117667319D01*
X78280758Y-117927459D01*
X78624080Y-117995750D01*
X78855920Y-117995750D01*
X79199242Y-117927459D01*
X79588569Y-117667319D01*
X79848709Y-117277992D01*
X79940058Y-116818750D01*
X79848709Y-116359508D01*
X79588569Y-115970181D01*
X79199242Y-115710041D01*
X79142594Y-115698773D01*
X79621358Y-115473933D01*
X80011645Y-115045674D01*
X80181476Y-114635640D01*
X80060155Y-114405750D01*
X78867000Y-114405750D01*
X78867000Y-114425750D01*
X78613000Y-114425750D01*
X78613000Y-114405750D01*
X77419845Y-114405750D01*
X77298524Y-114635640D01*
X77078702Y-114635640D01*
X77077512Y-112095640D01*
X77298524Y-112095640D01*
X77468355Y-112505674D01*
X77858642Y-112933933D01*
X78017954Y-113008750D01*
X77858642Y-113083567D01*
X77468355Y-113511826D01*
X77298524Y-113921860D01*
X77419845Y-114151750D01*
X78613000Y-114151750D01*
X78613000Y-111865750D01*
X78867000Y-111865750D01*
X78867000Y-114151750D01*
X80060155Y-114151750D01*
X80181476Y-113921860D01*
X80011645Y-113511826D01*
X79621358Y-113083567D01*
X79462046Y-113008750D01*
X79621358Y-112933933D01*
X80011645Y-112505674D01*
X80181476Y-112095640D01*
X80060155Y-111865750D01*
X78867000Y-111865750D01*
X78613000Y-111865750D01*
X77419845Y-111865750D01*
X77298524Y-112095640D01*
X77077512Y-112095640D01*
X77077178Y-111381860D01*
X77298524Y-111381860D01*
X77419845Y-111611750D01*
X78613000Y-111611750D01*
X78613000Y-111591750D01*
X78867000Y-111591750D01*
X78867000Y-111611750D01*
X80060155Y-111611750D01*
X80181476Y-111381860D01*
X80011645Y-110971826D01*
X79621358Y-110543567D01*
X79142594Y-110318727D01*
X79199242Y-110307459D01*
X79588569Y-110047319D01*
X79848709Y-109657992D01*
X79940058Y-109198750D01*
X79848709Y-108739508D01*
X79588569Y-108350181D01*
X79199242Y-108090041D01*
X78855920Y-108021750D01*
X78624080Y-108021750D01*
X78280758Y-108090041D01*
X77891431Y-108350181D01*
X77631291Y-108739508D01*
X77539942Y-109198750D01*
X77631291Y-109657992D01*
X77891431Y-110047319D01*
X78280758Y-110307459D01*
X78337406Y-110318727D01*
X77858642Y-110543567D01*
X77468355Y-110971826D01*
X77298524Y-111381860D01*
X77077178Y-111381860D01*
X77074964Y-106658750D01*
X77539942Y-106658750D01*
X77631291Y-107117992D01*
X77891431Y-107507319D01*
X78280758Y-107767459D01*
X78624080Y-107835750D01*
X78855920Y-107835750D01*
X79199242Y-107767459D01*
X79588569Y-107507319D01*
X79848709Y-107117992D01*
X79940058Y-106658750D01*
X79848709Y-106199508D01*
X79588569Y-105810181D01*
X79199242Y-105550041D01*
X78855920Y-105481750D01*
X78624080Y-105481750D01*
X78280758Y-105550041D01*
X77891431Y-105810181D01*
X77631291Y-106199508D01*
X77539942Y-106658750D01*
X77074964Y-106658750D01*
X77073774Y-104118750D01*
X77539942Y-104118750D01*
X77631291Y-104577992D01*
X77891431Y-104967319D01*
X78280758Y-105227459D01*
X78624080Y-105295750D01*
X78855920Y-105295750D01*
X79199242Y-105227459D01*
X79588569Y-104967319D01*
X79848709Y-104577992D01*
X79940058Y-104118750D01*
X79848709Y-103659508D01*
X79588569Y-103270181D01*
X79199242Y-103010041D01*
X78855920Y-102941750D01*
X78624080Y-102941750D01*
X78280758Y-103010041D01*
X77891431Y-103270181D01*
X77631291Y-103659508D01*
X77539942Y-104118750D01*
X77073774Y-104118750D01*
X77072583Y-101578750D01*
X77539942Y-101578750D01*
X77631291Y-102037992D01*
X77891431Y-102427319D01*
X78280758Y-102687459D01*
X78624080Y-102755750D01*
X78855920Y-102755750D01*
X79199242Y-102687459D01*
X79588569Y-102427319D01*
X79848709Y-102037992D01*
X79940058Y-101578750D01*
X79848709Y-101119508D01*
X79588569Y-100730181D01*
X79199242Y-100470041D01*
X78855920Y-100401750D01*
X78624080Y-100401750D01*
X78280758Y-100470041D01*
X77891431Y-100730181D01*
X77631291Y-101119508D01*
X77539942Y-101578750D01*
X77072583Y-101578750D01*
X77071392Y-99038750D01*
X77539942Y-99038750D01*
X77631291Y-99497992D01*
X77891431Y-99887319D01*
X78280758Y-100147459D01*
X78624080Y-100215750D01*
X78855920Y-100215750D01*
X79199242Y-100147459D01*
X79588569Y-99887319D01*
X79848709Y-99497992D01*
X79940058Y-99038750D01*
X79848709Y-98579508D01*
X79588569Y-98190181D01*
X79199242Y-97930041D01*
X78855920Y-97861750D01*
X78624080Y-97861750D01*
X78280758Y-97930041D01*
X77891431Y-98190181D01*
X77631291Y-98579508D01*
X77539942Y-99038750D01*
X77071392Y-99038750D01*
X77070201Y-96498750D01*
X77539942Y-96498750D01*
X77631291Y-96957992D01*
X77891431Y-97347319D01*
X78280758Y-97607459D01*
X78624080Y-97675750D01*
X78855920Y-97675750D01*
X79199242Y-97607459D01*
X79588569Y-97347319D01*
X79848709Y-96957992D01*
X79940058Y-96498750D01*
X79848709Y-96039508D01*
X79588569Y-95650181D01*
X79199242Y-95390041D01*
X78855920Y-95321750D01*
X78624080Y-95321750D01*
X78280758Y-95390041D01*
X77891431Y-95650181D01*
X77631291Y-96039508D01*
X77539942Y-96498750D01*
X77070201Y-96498750D01*
X77069010Y-93958750D01*
X77539942Y-93958750D01*
X77631291Y-94417992D01*
X77891431Y-94807319D01*
X78280758Y-95067459D01*
X78624080Y-95135750D01*
X78855920Y-95135750D01*
X79199242Y-95067459D01*
X79588569Y-94807319D01*
X79848709Y-94417992D01*
X79940058Y-93958750D01*
X79848709Y-93499508D01*
X79588569Y-93110181D01*
X79199242Y-92850041D01*
X78855920Y-92781750D01*
X78624080Y-92781750D01*
X78280758Y-92850041D01*
X77891431Y-93110181D01*
X77631291Y-93499508D01*
X77539942Y-93958750D01*
X77069010Y-93958750D01*
X77067819Y-91418750D01*
X77539942Y-91418750D01*
X77631291Y-91877992D01*
X77891431Y-92267319D01*
X78280758Y-92527459D01*
X78624080Y-92595750D01*
X78855920Y-92595750D01*
X79199242Y-92527459D01*
X79588569Y-92267319D01*
X79848709Y-91877992D01*
X79922824Y-91505391D01*
X89083000Y-91505391D01*
X89083000Y-91794609D01*
X89193679Y-92061813D01*
X89398187Y-92266321D01*
X89665391Y-92377000D01*
X89954609Y-92377000D01*
X90221813Y-92266321D01*
X90426321Y-92061813D01*
X90537000Y-91794609D01*
X90537000Y-91597579D01*
X91686752Y-90447828D01*
X91931813Y-90346321D01*
X92136321Y-90141813D01*
X92247000Y-89874609D01*
X92247000Y-89585391D01*
X92136321Y-89318187D01*
X91931813Y-89113679D01*
X91664609Y-89003000D01*
X91375391Y-89003000D01*
X91108187Y-89113679D01*
X90903679Y-89318187D01*
X90793000Y-89585391D01*
X90793000Y-89874609D01*
X90827506Y-89957914D01*
X89862421Y-90923000D01*
X89665391Y-90923000D01*
X89398187Y-91033679D01*
X89193679Y-91238187D01*
X89083000Y-91505391D01*
X79922824Y-91505391D01*
X79940058Y-91418750D01*
X79848709Y-90959508D01*
X79588569Y-90570181D01*
X79199242Y-90310041D01*
X78855920Y-90241750D01*
X78624080Y-90241750D01*
X78280758Y-90310041D01*
X77891431Y-90570181D01*
X77631291Y-90959508D01*
X77539942Y-91418750D01*
X77067819Y-91418750D01*
X77066628Y-88878750D01*
X77539942Y-88878750D01*
X77631291Y-89337992D01*
X77891431Y-89727319D01*
X78280758Y-89987459D01*
X78624080Y-90055750D01*
X78855920Y-90055750D01*
X79199242Y-89987459D01*
X79588569Y-89727319D01*
X79848709Y-89337992D01*
X79940058Y-88878750D01*
X79848709Y-88419508D01*
X79588569Y-88030181D01*
X79199242Y-87770041D01*
X78855920Y-87701750D01*
X78624080Y-87701750D01*
X78280758Y-87770041D01*
X77891431Y-88030181D01*
X77631291Y-88419508D01*
X77539942Y-88878750D01*
X77066628Y-88878750D01*
X77065437Y-86338750D01*
X77539942Y-86338750D01*
X77631291Y-86797992D01*
X77891431Y-87187319D01*
X78280758Y-87447459D01*
X78624080Y-87515750D01*
X78855920Y-87515750D01*
X79199242Y-87447459D01*
X79588569Y-87187319D01*
X79848709Y-86797992D01*
X79940058Y-86338750D01*
X79848709Y-85879508D01*
X79588569Y-85490181D01*
X79199242Y-85230041D01*
X78855920Y-85161750D01*
X78624080Y-85161750D01*
X78280758Y-85230041D01*
X77891431Y-85490181D01*
X77631291Y-85879508D01*
X77539942Y-86338750D01*
X77065437Y-86338750D01*
X77064246Y-83798750D01*
X77539942Y-83798750D01*
X77631291Y-84257992D01*
X77891431Y-84647319D01*
X78280758Y-84907459D01*
X78624080Y-84975750D01*
X78855920Y-84975750D01*
X79199242Y-84907459D01*
X79588569Y-84647319D01*
X79848709Y-84257992D01*
X79940058Y-83798750D01*
X79848709Y-83339508D01*
X79588569Y-82950181D01*
X79199242Y-82690041D01*
X78855920Y-82621750D01*
X78624080Y-82621750D01*
X78280758Y-82690041D01*
X77891431Y-82950181D01*
X77631291Y-83339508D01*
X77539942Y-83798750D01*
X77064246Y-83798750D01*
X77062656Y-80408750D01*
X77556594Y-80408750D01*
X77556594Y-82108750D01*
X77581973Y-82236339D01*
X77654246Y-82344504D01*
X77762411Y-82416777D01*
X77890000Y-82442156D01*
X79590000Y-82442156D01*
X79717589Y-82416777D01*
X79825754Y-82344504D01*
X79898027Y-82236339D01*
X79923406Y-82108750D01*
X79923406Y-80408750D01*
X79898027Y-80281161D01*
X79825754Y-80172996D01*
X79717589Y-80100723D01*
X79590000Y-80075344D01*
X77890000Y-80075344D01*
X77762411Y-80100723D01*
X77654246Y-80172996D01*
X77581973Y-80281161D01*
X77556594Y-80408750D01*
X77062656Y-80408750D01*
X77062188Y-79411758D01*
X101760953Y-79396915D01*
X101809710Y-93845353D01*
X101809710Y-93845353D01*
G37*
X101809710Y-93845353D02*
X101548187Y-93953679D01*
X101343679Y-94158187D01*
X101233000Y-94425391D01*
X101233000Y-94688646D01*
X88940782Y-94613002D01*
X88892122Y-94622370D01*
X88850752Y-94649647D01*
X88822969Y-94690678D01*
X88813000Y-94740157D01*
X88820570Y-100850135D01*
X88830298Y-100898724D01*
X88857879Y-100939892D01*
X88899115Y-100967371D01*
X88947569Y-100976978D01*
X92242531Y-100976999D01*
X92233464Y-103434105D01*
X88936492Y-103463032D01*
X88887978Y-103473125D01*
X88847019Y-103501016D01*
X88819851Y-103542457D01*
X88810607Y-103590417D01*
X88833001Y-110880390D01*
X88842817Y-110928961D01*
X88870474Y-110970078D01*
X88911760Y-110997481D01*
X88961096Y-111006995D01*
X98103380Y-110928097D01*
X98113513Y-114343361D01*
X93397184Y-114359050D01*
X93311813Y-114273679D01*
X93044609Y-114163000D01*
X92755391Y-114163000D01*
X92488187Y-114273679D01*
X92399497Y-114362369D01*
X92209578Y-114363001D01*
X92161009Y-114372830D01*
X92119899Y-114400497D01*
X92092506Y-114441790D01*
X92083047Y-114486530D01*
X91897798Y-121264953D01*
X77081811Y-121267920D01*
X77080917Y-119358750D01*
X77539942Y-119358750D01*
X77631291Y-119817992D01*
X77891431Y-120207319D01*
X78280758Y-120467459D01*
X78624080Y-120535750D01*
X78855920Y-120535750D01*
X79199242Y-120467459D01*
X79588569Y-120207319D01*
X79848709Y-119817992D01*
X79940058Y-119358750D01*
X79848709Y-118899508D01*
X79588569Y-118510181D01*
X79199242Y-118250041D01*
X78855920Y-118181750D01*
X78624080Y-118181750D01*
X78280758Y-118250041D01*
X77891431Y-118510181D01*
X77631291Y-118899508D01*
X77539942Y-119358750D01*
X77080917Y-119358750D01*
X77078702Y-114635640D01*
X77298524Y-114635640D01*
X77468355Y-115045674D01*
X77858642Y-115473933D01*
X78337406Y-115698773D01*
X78280758Y-115710041D01*
X77891431Y-115970181D01*
X77631291Y-116359508D01*
X77539942Y-116818750D01*
X77631291Y-117277992D01*
X77891431Y-117667319D01*
X78280758Y-117927459D01*
X78624080Y-117995750D01*
X78855920Y-117995750D01*
X79199242Y-117927459D01*
X79588569Y-117667319D01*
X79848709Y-117277992D01*
X79940058Y-116818750D01*
X79848709Y-116359508D01*
X79588569Y-115970181D01*
X79199242Y-115710041D01*
X79142594Y-115698773D01*
X79621358Y-115473933D01*
X80011645Y-115045674D01*
X80181476Y-114635640D01*
X80060155Y-114405750D01*
X78867000Y-114405750D01*
X78867000Y-114425750D01*
X78613000Y-114425750D01*
X78613000Y-114405750D01*
X77419845Y-114405750D01*
X77298524Y-114635640D01*
X77078702Y-114635640D01*
X77077512Y-112095640D01*
X77298524Y-112095640D01*
X77468355Y-112505674D01*
X77858642Y-112933933D01*
X78017954Y-113008750D01*
X77858642Y-113083567D01*
X77468355Y-113511826D01*
X77298524Y-113921860D01*
X77419845Y-114151750D01*
X78613000Y-114151750D01*
X78613000Y-111865750D01*
X78867000Y-111865750D01*
X78867000Y-114151750D01*
X80060155Y-114151750D01*
X80181476Y-113921860D01*
X80011645Y-113511826D01*
X79621358Y-113083567D01*
X79462046Y-113008750D01*
X79621358Y-112933933D01*
X80011645Y-112505674D01*
X80181476Y-112095640D01*
X80060155Y-111865750D01*
X78867000Y-111865750D01*
X78613000Y-111865750D01*
X77419845Y-111865750D01*
X77298524Y-112095640D01*
X77077512Y-112095640D01*
X77077178Y-111381860D01*
X77298524Y-111381860D01*
X77419845Y-111611750D01*
X78613000Y-111611750D01*
X78613000Y-111591750D01*
X78867000Y-111591750D01*
X78867000Y-111611750D01*
X80060155Y-111611750D01*
X80181476Y-111381860D01*
X80011645Y-110971826D01*
X79621358Y-110543567D01*
X79142594Y-110318727D01*
X79199242Y-110307459D01*
X79588569Y-110047319D01*
X79848709Y-109657992D01*
X79940058Y-109198750D01*
X79848709Y-108739508D01*
X79588569Y-108350181D01*
X79199242Y-108090041D01*
X78855920Y-108021750D01*
X78624080Y-108021750D01*
X78280758Y-108090041D01*
X77891431Y-108350181D01*
X77631291Y-108739508D01*
X77539942Y-109198750D01*
X77631291Y-109657992D01*
X77891431Y-110047319D01*
X78280758Y-110307459D01*
X78337406Y-110318727D01*
X77858642Y-110543567D01*
X77468355Y-110971826D01*
X77298524Y-111381860D01*
X77077178Y-111381860D01*
X77074964Y-106658750D01*
X77539942Y-106658750D01*
X77631291Y-107117992D01*
X77891431Y-107507319D01*
X78280758Y-107767459D01*
X78624080Y-107835750D01*
X78855920Y-107835750D01*
X79199242Y-107767459D01*
X79588569Y-107507319D01*
X79848709Y-107117992D01*
X79940058Y-106658750D01*
X79848709Y-106199508D01*
X79588569Y-105810181D01*
X79199242Y-105550041D01*
X78855920Y-105481750D01*
X78624080Y-105481750D01*
X78280758Y-105550041D01*
X77891431Y-105810181D01*
X77631291Y-106199508D01*
X77539942Y-106658750D01*
X77074964Y-106658750D01*
X77073774Y-104118750D01*
X77539942Y-104118750D01*
X77631291Y-104577992D01*
X77891431Y-104967319D01*
X78280758Y-105227459D01*
X78624080Y-105295750D01*
X78855920Y-105295750D01*
X79199242Y-105227459D01*
X79588569Y-104967319D01*
X79848709Y-104577992D01*
X79940058Y-104118750D01*
X79848709Y-103659508D01*
X79588569Y-103270181D01*
X79199242Y-103010041D01*
X78855920Y-102941750D01*
X78624080Y-102941750D01*
X78280758Y-103010041D01*
X77891431Y-103270181D01*
X77631291Y-103659508D01*
X77539942Y-104118750D01*
X77073774Y-104118750D01*
X77072583Y-101578750D01*
X77539942Y-101578750D01*
X77631291Y-102037992D01*
X77891431Y-102427319D01*
X78280758Y-102687459D01*
X78624080Y-102755750D01*
X78855920Y-102755750D01*
X79199242Y-102687459D01*
X79588569Y-102427319D01*
X79848709Y-102037992D01*
X79940058Y-101578750D01*
X79848709Y-101119508D01*
X79588569Y-100730181D01*
X79199242Y-100470041D01*
X78855920Y-100401750D01*
X78624080Y-100401750D01*
X78280758Y-100470041D01*
X77891431Y-100730181D01*
X77631291Y-101119508D01*
X77539942Y-101578750D01*
X77072583Y-101578750D01*
X77071392Y-99038750D01*
X77539942Y-99038750D01*
X77631291Y-99497992D01*
X77891431Y-99887319D01*
X78280758Y-100147459D01*
X78624080Y-100215750D01*
X78855920Y-100215750D01*
X79199242Y-100147459D01*
X79588569Y-99887319D01*
X79848709Y-99497992D01*
X79940058Y-99038750D01*
X79848709Y-98579508D01*
X79588569Y-98190181D01*
X79199242Y-97930041D01*
X78855920Y-97861750D01*
X78624080Y-97861750D01*
X78280758Y-97930041D01*
X77891431Y-98190181D01*
X77631291Y-98579508D01*
X77539942Y-99038750D01*
X77071392Y-99038750D01*
X77070201Y-96498750D01*
X77539942Y-96498750D01*
X77631291Y-96957992D01*
X77891431Y-97347319D01*
X78280758Y-97607459D01*
X78624080Y-97675750D01*
X78855920Y-97675750D01*
X79199242Y-97607459D01*
X79588569Y-97347319D01*
X79848709Y-96957992D01*
X79940058Y-96498750D01*
X79848709Y-96039508D01*
X79588569Y-95650181D01*
X79199242Y-95390041D01*
X78855920Y-95321750D01*
X78624080Y-95321750D01*
X78280758Y-95390041D01*
X77891431Y-95650181D01*
X77631291Y-96039508D01*
X77539942Y-96498750D01*
X77070201Y-96498750D01*
X77069010Y-93958750D01*
X77539942Y-93958750D01*
X77631291Y-94417992D01*
X77891431Y-94807319D01*
X78280758Y-95067459D01*
X78624080Y-95135750D01*
X78855920Y-95135750D01*
X79199242Y-95067459D01*
X79588569Y-94807319D01*
X79848709Y-94417992D01*
X79940058Y-93958750D01*
X79848709Y-93499508D01*
X79588569Y-93110181D01*
X79199242Y-92850041D01*
X78855920Y-92781750D01*
X78624080Y-92781750D01*
X78280758Y-92850041D01*
X77891431Y-93110181D01*
X77631291Y-93499508D01*
X77539942Y-93958750D01*
X77069010Y-93958750D01*
X77067819Y-91418750D01*
X77539942Y-91418750D01*
X77631291Y-91877992D01*
X77891431Y-92267319D01*
X78280758Y-92527459D01*
X78624080Y-92595750D01*
X78855920Y-92595750D01*
X79199242Y-92527459D01*
X79588569Y-92267319D01*
X79848709Y-91877992D01*
X79922824Y-91505391D01*
X89083000Y-91505391D01*
X89083000Y-91794609D01*
X89193679Y-92061813D01*
X89398187Y-92266321D01*
X89665391Y-92377000D01*
X89954609Y-92377000D01*
X90221813Y-92266321D01*
X90426321Y-92061813D01*
X90537000Y-91794609D01*
X90537000Y-91597579D01*
X91686752Y-90447828D01*
X91931813Y-90346321D01*
X92136321Y-90141813D01*
X92247000Y-89874609D01*
X92247000Y-89585391D01*
X92136321Y-89318187D01*
X91931813Y-89113679D01*
X91664609Y-89003000D01*
X91375391Y-89003000D01*
X91108187Y-89113679D01*
X90903679Y-89318187D01*
X90793000Y-89585391D01*
X90793000Y-89874609D01*
X90827506Y-89957914D01*
X89862421Y-90923000D01*
X89665391Y-90923000D01*
X89398187Y-91033679D01*
X89193679Y-91238187D01*
X89083000Y-91505391D01*
X79922824Y-91505391D01*
X79940058Y-91418750D01*
X79848709Y-90959508D01*
X79588569Y-90570181D01*
X79199242Y-90310041D01*
X78855920Y-90241750D01*
X78624080Y-90241750D01*
X78280758Y-90310041D01*
X77891431Y-90570181D01*
X77631291Y-90959508D01*
X77539942Y-91418750D01*
X77067819Y-91418750D01*
X77066628Y-88878750D01*
X77539942Y-88878750D01*
X77631291Y-89337992D01*
X77891431Y-89727319D01*
X78280758Y-89987459D01*
X78624080Y-90055750D01*
X78855920Y-90055750D01*
X79199242Y-89987459D01*
X79588569Y-89727319D01*
X79848709Y-89337992D01*
X79940058Y-88878750D01*
X79848709Y-88419508D01*
X79588569Y-88030181D01*
X79199242Y-87770041D01*
X78855920Y-87701750D01*
X78624080Y-87701750D01*
X78280758Y-87770041D01*
X77891431Y-88030181D01*
X77631291Y-88419508D01*
X77539942Y-88878750D01*
X77066628Y-88878750D01*
X77065437Y-86338750D01*
X77539942Y-86338750D01*
X77631291Y-86797992D01*
X77891431Y-87187319D01*
X78280758Y-87447459D01*
X78624080Y-87515750D01*
X78855920Y-87515750D01*
X79199242Y-87447459D01*
X79588569Y-87187319D01*
X79848709Y-86797992D01*
X79940058Y-86338750D01*
X79848709Y-85879508D01*
X79588569Y-85490181D01*
X79199242Y-85230041D01*
X78855920Y-85161750D01*
X78624080Y-85161750D01*
X78280758Y-85230041D01*
X77891431Y-85490181D01*
X77631291Y-85879508D01*
X77539942Y-86338750D01*
X77065437Y-86338750D01*
X77064246Y-83798750D01*
X77539942Y-83798750D01*
X77631291Y-84257992D01*
X77891431Y-84647319D01*
X78280758Y-84907459D01*
X78624080Y-84975750D01*
X78855920Y-84975750D01*
X79199242Y-84907459D01*
X79588569Y-84647319D01*
X79848709Y-84257992D01*
X79940058Y-83798750D01*
X79848709Y-83339508D01*
X79588569Y-82950181D01*
X79199242Y-82690041D01*
X78855920Y-82621750D01*
X78624080Y-82621750D01*
X78280758Y-82690041D01*
X77891431Y-82950181D01*
X77631291Y-83339508D01*
X77539942Y-83798750D01*
X77064246Y-83798750D01*
X77062656Y-80408750D01*
X77556594Y-80408750D01*
X77556594Y-82108750D01*
X77581973Y-82236339D01*
X77654246Y-82344504D01*
X77762411Y-82416777D01*
X77890000Y-82442156D01*
X79590000Y-82442156D01*
X79717589Y-82416777D01*
X79825754Y-82344504D01*
X79898027Y-82236339D01*
X79923406Y-82108750D01*
X79923406Y-80408750D01*
X79898027Y-80281161D01*
X79825754Y-80172996D01*
X79717589Y-80100723D01*
X79590000Y-80075344D01*
X77890000Y-80075344D01*
X77762411Y-80100723D01*
X77654246Y-80172996D01*
X77581973Y-80281161D01*
X77556594Y-80408750D01*
X77062656Y-80408750D01*
X77062188Y-79411758D01*
X101760953Y-79396915D01*
X101809710Y-93845353D01*
G04 #@! TO.N,/AVDD*
G36*
X126207717Y-121258081D02*
X92650013Y-121264802D01*
X92739061Y-116557955D01*
X93601486Y-117420380D01*
X93553679Y-117468187D01*
X93443000Y-117735391D01*
X93443000Y-118024609D01*
X93553679Y-118291813D01*
X93758187Y-118496321D01*
X94025391Y-118607000D01*
X94314609Y-118607000D01*
X94500504Y-118530000D01*
X123276594Y-118530000D01*
X123276594Y-120230000D01*
X123301973Y-120357589D01*
X123374246Y-120465754D01*
X123482411Y-120538027D01*
X123610000Y-120563406D01*
X125310000Y-120563406D01*
X125437589Y-120538027D01*
X125545754Y-120465754D01*
X125618027Y-120357589D01*
X125643406Y-120230000D01*
X125643406Y-118530000D01*
X125618027Y-118402411D01*
X125545754Y-118294246D01*
X125437589Y-118221973D01*
X125310000Y-118196594D01*
X123610000Y-118196594D01*
X123482411Y-118221973D01*
X123374246Y-118294246D01*
X123301973Y-118402411D01*
X123276594Y-118530000D01*
X94500504Y-118530000D01*
X94581813Y-118496321D01*
X94786321Y-118291813D01*
X94897000Y-118024609D01*
X94897000Y-117735391D01*
X94786321Y-117468187D01*
X94652379Y-117334245D01*
X94656343Y-117314314D01*
X94647000Y-117267343D01*
X94647000Y-117267340D01*
X94619323Y-117128199D01*
X94513897Y-116970418D01*
X94474074Y-116943809D01*
X94370265Y-116840000D01*
X123259942Y-116840000D01*
X123351291Y-117299242D01*
X123611431Y-117688569D01*
X124000758Y-117948709D01*
X124344080Y-118017000D01*
X124575920Y-118017000D01*
X124919242Y-117948709D01*
X125308569Y-117688569D01*
X125568709Y-117299242D01*
X125660058Y-116840000D01*
X125568709Y-116380758D01*
X125308569Y-115991431D01*
X124919242Y-115731291D01*
X124575920Y-115663000D01*
X124344080Y-115663000D01*
X124000758Y-115731291D01*
X123611431Y-115991431D01*
X123351291Y-116380758D01*
X123259942Y-116840000D01*
X94370265Y-116840000D01*
X93377000Y-115846736D01*
X93377000Y-115441134D01*
X93516321Y-115301813D01*
X93564922Y-115184479D01*
X98793145Y-115056961D01*
X98841495Y-115046112D01*
X98882014Y-115017585D01*
X98908531Y-114975724D01*
X98917045Y-114929143D01*
X98886997Y-110469144D01*
X98877003Y-110420610D01*
X98849196Y-110379594D01*
X98807809Y-110352343D01*
X98760000Y-110343000D01*
X89658176Y-110343000D01*
X89713545Y-104335391D01*
X97733000Y-104335391D01*
X97733000Y-104624609D01*
X97843679Y-104891813D01*
X97983001Y-105031135D01*
X97983000Y-105553028D01*
X97973657Y-105600000D01*
X97983000Y-105646971D01*
X97983000Y-105646974D01*
X98010677Y-105786115D01*
X98116103Y-105943897D01*
X98155929Y-105970508D01*
X100203000Y-108017579D01*
X100203000Y-108214609D01*
X100313679Y-108481813D01*
X100518187Y-108686321D01*
X100785391Y-108797000D01*
X101074609Y-108797000D01*
X101341813Y-108686321D01*
X101546321Y-108481813D01*
X101657000Y-108214609D01*
X101657000Y-107925391D01*
X101546321Y-107658187D01*
X101341813Y-107453679D01*
X101074609Y-107343000D01*
X100877579Y-107343000D01*
X98937000Y-105402421D01*
X98937000Y-105031134D01*
X98991134Y-104977000D01*
X101388866Y-104977000D01*
X101528187Y-105116321D01*
X101795391Y-105227000D01*
X102084609Y-105227000D01*
X102351813Y-105116321D01*
X102556321Y-104911813D01*
X102667000Y-104644609D01*
X102667000Y-104355391D01*
X102556321Y-104088187D01*
X102351813Y-103883679D01*
X102084609Y-103773000D01*
X101795391Y-103773000D01*
X101528187Y-103883679D01*
X101388866Y-104023000D01*
X99031134Y-104023000D01*
X98871813Y-103863679D01*
X98604609Y-103753000D01*
X98315391Y-103753000D01*
X98048187Y-103863679D01*
X97843679Y-104068187D01*
X97733000Y-104335391D01*
X89713545Y-104335391D01*
X89715758Y-104095338D01*
X92851861Y-104296739D01*
X92900981Y-104290206D01*
X92943863Y-104265373D01*
X92973977Y-104226021D01*
X92986984Y-104167974D01*
X92926984Y-100407974D01*
X92916542Y-100359533D01*
X92888358Y-100318776D01*
X92846723Y-100291907D01*
X92800000Y-100283000D01*
X91927000Y-100283000D01*
X91927000Y-99995391D01*
X91816321Y-99728187D01*
X91682379Y-99594245D01*
X91686343Y-99574314D01*
X91677000Y-99527344D01*
X91677000Y-99527340D01*
X91649323Y-99388199D01*
X91543897Y-99230418D01*
X91504069Y-99203806D01*
X91427000Y-99126737D01*
X91427000Y-96326969D01*
X91436343Y-96279999D01*
X91427000Y-96233029D01*
X91427000Y-96233025D01*
X91399323Y-96093884D01*
X91293897Y-95936103D01*
X91254074Y-95909494D01*
X90767000Y-95422421D01*
X90767000Y-95363545D01*
X101483000Y-95338966D01*
X101483001Y-96448865D01*
X101433679Y-96498187D01*
X101323000Y-96765391D01*
X101323000Y-97054609D01*
X101433679Y-97321813D01*
X101638187Y-97526321D01*
X101905391Y-97637000D01*
X102194609Y-97637000D01*
X102461813Y-97526321D01*
X102666321Y-97321813D01*
X102777000Y-97054609D01*
X102777000Y-96765391D01*
X102666321Y-96498187D01*
X102461813Y-96293679D01*
X102437000Y-96283401D01*
X102437000Y-95289080D01*
X102457444Y-95258332D01*
X102466997Y-95210844D01*
X102467798Y-95090336D01*
X102576321Y-94981813D01*
X102687000Y-94714609D01*
X102687000Y-94425391D01*
X102576321Y-94158187D01*
X102474667Y-94056533D01*
X102508229Y-89005391D01*
X108083000Y-89005391D01*
X108083000Y-89294609D01*
X108193679Y-89561813D01*
X108358000Y-89726134D01*
X108358001Y-95115477D01*
X108349145Y-95160000D01*
X108384225Y-95336361D01*
X108384226Y-95336362D01*
X108403000Y-95364459D01*
X108403000Y-95624609D01*
X108513679Y-95891813D01*
X108678000Y-96056134D01*
X108678001Y-99263865D01*
X108553679Y-99388187D01*
X108443000Y-99655391D01*
X108443000Y-99944609D01*
X108553679Y-100211813D01*
X108718000Y-100376134D01*
X108718001Y-103703865D01*
X108593679Y-103828187D01*
X108483000Y-104095391D01*
X108483000Y-104384609D01*
X108593679Y-104651813D01*
X108758000Y-104816134D01*
X108758001Y-107555766D01*
X108618187Y-107613679D01*
X108413679Y-107818187D01*
X108303000Y-108085391D01*
X108303000Y-108374609D01*
X108413679Y-108641813D01*
X108578000Y-108806134D01*
X108578001Y-110651330D01*
X108548187Y-110663679D01*
X108343679Y-110868187D01*
X108233000Y-111135391D01*
X108233000Y-111424609D01*
X108343679Y-111691813D01*
X108548187Y-111896321D01*
X108815391Y-112007000D01*
X109047776Y-112007000D01*
X110018000Y-112977224D01*
X110018001Y-113663865D01*
X109853679Y-113828187D01*
X109743000Y-114095391D01*
X109743000Y-114384609D01*
X109853679Y-114651813D01*
X110058187Y-114856321D01*
X110325391Y-114967000D01*
X110614609Y-114967000D01*
X110881813Y-114856321D01*
X111086321Y-114651813D01*
X111197000Y-114384609D01*
X111197000Y-114300000D01*
X123259942Y-114300000D01*
X123351291Y-114759242D01*
X123611431Y-115148569D01*
X124000758Y-115408709D01*
X124344080Y-115477000D01*
X124575920Y-115477000D01*
X124919242Y-115408709D01*
X125308569Y-115148569D01*
X125568709Y-114759242D01*
X125660058Y-114300000D01*
X125568709Y-113840758D01*
X125308569Y-113451431D01*
X124919242Y-113191291D01*
X124575920Y-113123000D01*
X124344080Y-113123000D01*
X124000758Y-113191291D01*
X123611431Y-113451431D01*
X123351291Y-113840758D01*
X123259942Y-114300000D01*
X111197000Y-114300000D01*
X111197000Y-114095391D01*
X111086321Y-113828187D01*
X110922000Y-113663866D01*
X110922000Y-112834516D01*
X110930855Y-112789999D01*
X110922000Y-112745482D01*
X110895775Y-112613638D01*
X110795874Y-112464126D01*
X110758131Y-112438907D01*
X110079224Y-111760000D01*
X123259942Y-111760000D01*
X123351291Y-112219242D01*
X123611431Y-112608569D01*
X124000758Y-112868709D01*
X124344080Y-112937000D01*
X124575920Y-112937000D01*
X124919242Y-112868709D01*
X125308569Y-112608569D01*
X125568709Y-112219242D01*
X125660058Y-111760000D01*
X125568709Y-111300758D01*
X125308569Y-110911431D01*
X124919242Y-110651291D01*
X124575920Y-110583000D01*
X124344080Y-110583000D01*
X124000758Y-110651291D01*
X123611431Y-110911431D01*
X123351291Y-111300758D01*
X123259942Y-111760000D01*
X110079224Y-111760000D01*
X109687000Y-111367776D01*
X109687000Y-111135391D01*
X109576321Y-110868187D01*
X109482000Y-110773866D01*
X109482000Y-109220000D01*
X123259942Y-109220000D01*
X123351291Y-109679242D01*
X123611431Y-110068569D01*
X124000758Y-110328709D01*
X124344080Y-110397000D01*
X124575920Y-110397000D01*
X124919242Y-110328709D01*
X125308569Y-110068569D01*
X125568709Y-109679242D01*
X125660058Y-109220000D01*
X125568709Y-108760758D01*
X125308569Y-108371431D01*
X124919242Y-108111291D01*
X124575920Y-108043000D01*
X124344080Y-108043000D01*
X124000758Y-108111291D01*
X123611431Y-108371431D01*
X123351291Y-108760758D01*
X123259942Y-109220000D01*
X109482000Y-109220000D01*
X109482000Y-108806134D01*
X109646321Y-108641813D01*
X109757000Y-108374609D01*
X109757000Y-108085391D01*
X109662000Y-107856040D01*
X109662000Y-106680000D01*
X123259942Y-106680000D01*
X123351291Y-107139242D01*
X123611431Y-107528569D01*
X124000758Y-107788709D01*
X124344080Y-107857000D01*
X124575920Y-107857000D01*
X124919242Y-107788709D01*
X125308569Y-107528569D01*
X125568709Y-107139242D01*
X125660058Y-106680000D01*
X125568709Y-106220758D01*
X125308569Y-105831431D01*
X124919242Y-105571291D01*
X124575920Y-105503000D01*
X124344080Y-105503000D01*
X124000758Y-105571291D01*
X123611431Y-105831431D01*
X123351291Y-106220758D01*
X123259942Y-106680000D01*
X109662000Y-106680000D01*
X109662000Y-104816134D01*
X109826321Y-104651813D01*
X109937000Y-104384609D01*
X109937000Y-104140000D01*
X123259942Y-104140000D01*
X123351291Y-104599242D01*
X123611431Y-104988569D01*
X124000758Y-105248709D01*
X124344080Y-105317000D01*
X124575920Y-105317000D01*
X124919242Y-105248709D01*
X125308569Y-104988569D01*
X125568709Y-104599242D01*
X125660058Y-104140000D01*
X125568709Y-103680758D01*
X125308569Y-103291431D01*
X124919242Y-103031291D01*
X124575920Y-102963000D01*
X124344080Y-102963000D01*
X124000758Y-103031291D01*
X123611431Y-103291431D01*
X123351291Y-103680758D01*
X123259942Y-104140000D01*
X109937000Y-104140000D01*
X109937000Y-104095391D01*
X109826321Y-103828187D01*
X109622000Y-103623866D01*
X109622000Y-101600000D01*
X123259942Y-101600000D01*
X123351291Y-102059242D01*
X123611431Y-102448569D01*
X124000758Y-102708709D01*
X124344080Y-102777000D01*
X124575920Y-102777000D01*
X124919242Y-102708709D01*
X125308569Y-102448569D01*
X125568709Y-102059242D01*
X125660058Y-101600000D01*
X125568709Y-101140758D01*
X125308569Y-100751431D01*
X124919242Y-100491291D01*
X124575920Y-100423000D01*
X124344080Y-100423000D01*
X124000758Y-100491291D01*
X123611431Y-100751431D01*
X123351291Y-101140758D01*
X123259942Y-101600000D01*
X109622000Y-101600000D01*
X109622000Y-100376134D01*
X109786321Y-100211813D01*
X109897000Y-99944609D01*
X109897000Y-99655391D01*
X109786321Y-99388187D01*
X109582000Y-99183866D01*
X109582000Y-99060000D01*
X123259942Y-99060000D01*
X123351291Y-99519242D01*
X123611431Y-99908569D01*
X124000758Y-100168709D01*
X124344080Y-100237000D01*
X124575920Y-100237000D01*
X124919242Y-100168709D01*
X125308569Y-99908569D01*
X125568709Y-99519242D01*
X125660058Y-99060000D01*
X125568709Y-98600758D01*
X125308569Y-98211431D01*
X124919242Y-97951291D01*
X124575920Y-97883000D01*
X124344080Y-97883000D01*
X124000758Y-97951291D01*
X123611431Y-98211431D01*
X123351291Y-98600758D01*
X123259942Y-99060000D01*
X109582000Y-99060000D01*
X109582000Y-96520000D01*
X123259942Y-96520000D01*
X123351291Y-96979242D01*
X123611431Y-97368569D01*
X124000758Y-97628709D01*
X124344080Y-97697000D01*
X124575920Y-97697000D01*
X124919242Y-97628709D01*
X125308569Y-97368569D01*
X125568709Y-96979242D01*
X125660058Y-96520000D01*
X125568709Y-96060758D01*
X125308569Y-95671431D01*
X124919242Y-95411291D01*
X124575920Y-95343000D01*
X124344080Y-95343000D01*
X124000758Y-95411291D01*
X123611431Y-95671431D01*
X123351291Y-96060758D01*
X123259942Y-96520000D01*
X109582000Y-96520000D01*
X109582000Y-96056134D01*
X109746321Y-95891813D01*
X109857000Y-95624609D01*
X109857000Y-95335391D01*
X109746321Y-95068187D01*
X109541813Y-94863679D01*
X109274609Y-94753000D01*
X109262000Y-94753000D01*
X109262000Y-93980000D01*
X123259942Y-93980000D01*
X123351291Y-94439242D01*
X123611431Y-94828569D01*
X124000758Y-95088709D01*
X124344080Y-95157000D01*
X124575920Y-95157000D01*
X124919242Y-95088709D01*
X125308569Y-94828569D01*
X125568709Y-94439242D01*
X125660058Y-93980000D01*
X125568709Y-93520758D01*
X125308569Y-93131431D01*
X124919242Y-92871291D01*
X124575920Y-92803000D01*
X124344080Y-92803000D01*
X124000758Y-92871291D01*
X123611431Y-93131431D01*
X123351291Y-93520758D01*
X123259942Y-93980000D01*
X109262000Y-93980000D01*
X109262000Y-91440000D01*
X123259942Y-91440000D01*
X123351291Y-91899242D01*
X123611431Y-92288569D01*
X124000758Y-92548709D01*
X124344080Y-92617000D01*
X124575920Y-92617000D01*
X124919242Y-92548709D01*
X125308569Y-92288569D01*
X125568709Y-91899242D01*
X125660058Y-91440000D01*
X125568709Y-90980758D01*
X125308569Y-90591431D01*
X124919242Y-90331291D01*
X124575920Y-90263000D01*
X124344080Y-90263000D01*
X124000758Y-90331291D01*
X123611431Y-90591431D01*
X123351291Y-90980758D01*
X123259942Y-91440000D01*
X109262000Y-91440000D01*
X109262000Y-89726134D01*
X109426321Y-89561813D01*
X109537000Y-89294609D01*
X109537000Y-89005391D01*
X109493346Y-88900000D01*
X123259942Y-88900000D01*
X123351291Y-89359242D01*
X123611431Y-89748569D01*
X124000758Y-90008709D01*
X124344080Y-90077000D01*
X124575920Y-90077000D01*
X124919242Y-90008709D01*
X125308569Y-89748569D01*
X125568709Y-89359242D01*
X125660058Y-88900000D01*
X125568709Y-88440758D01*
X125308569Y-88051431D01*
X124919242Y-87791291D01*
X124575920Y-87723000D01*
X124344080Y-87723000D01*
X124000758Y-87791291D01*
X123611431Y-88051431D01*
X123351291Y-88440758D01*
X123259942Y-88900000D01*
X109493346Y-88900000D01*
X109426321Y-88738187D01*
X109362000Y-88673866D01*
X109362000Y-86360000D01*
X123259942Y-86360000D01*
X123351291Y-86819242D01*
X123611431Y-87208569D01*
X124000758Y-87468709D01*
X124344080Y-87537000D01*
X124575920Y-87537000D01*
X124919242Y-87468709D01*
X125308569Y-87208569D01*
X125568709Y-86819242D01*
X125660058Y-86360000D01*
X125568709Y-85900758D01*
X125308569Y-85511431D01*
X124919242Y-85251291D01*
X124575920Y-85183000D01*
X124344080Y-85183000D01*
X124000758Y-85251291D01*
X123611431Y-85511431D01*
X123351291Y-85900758D01*
X123259942Y-86360000D01*
X109362000Y-86360000D01*
X109362000Y-85106134D01*
X109526321Y-84941813D01*
X109637000Y-84674609D01*
X109637000Y-84385391D01*
X109526321Y-84118187D01*
X109321813Y-83913679D01*
X109095651Y-83820000D01*
X123259942Y-83820000D01*
X123351291Y-84279242D01*
X123611431Y-84668569D01*
X124000758Y-84928709D01*
X124344080Y-84997000D01*
X124575920Y-84997000D01*
X124919242Y-84928709D01*
X125308569Y-84668569D01*
X125568709Y-84279242D01*
X125660058Y-83820000D01*
X125568709Y-83360758D01*
X125308569Y-82971431D01*
X124919242Y-82711291D01*
X124575920Y-82643000D01*
X124344080Y-82643000D01*
X124000758Y-82711291D01*
X123611431Y-82971431D01*
X123351291Y-83360758D01*
X123259942Y-83820000D01*
X109095651Y-83820000D01*
X109054609Y-83803000D01*
X108765391Y-83803000D01*
X108498187Y-83913679D01*
X108293679Y-84118187D01*
X108183000Y-84385391D01*
X108183000Y-84674609D01*
X108293679Y-84941813D01*
X108458000Y-85106134D01*
X108458001Y-88508903D01*
X108398187Y-88533679D01*
X108193679Y-88738187D01*
X108083000Y-89005391D01*
X102508229Y-89005391D01*
X102559560Y-81280000D01*
X123259942Y-81280000D01*
X123351291Y-81739242D01*
X123611431Y-82128569D01*
X124000758Y-82388709D01*
X124344080Y-82457000D01*
X124575920Y-82457000D01*
X124919242Y-82388709D01*
X125308569Y-82128569D01*
X125568709Y-81739242D01*
X125660058Y-81280000D01*
X125568709Y-80820758D01*
X125308569Y-80431431D01*
X124919242Y-80171291D01*
X124575920Y-80103000D01*
X124344080Y-80103000D01*
X124000758Y-80171291D01*
X123611431Y-80431431D01*
X123351291Y-80820758D01*
X123259942Y-81280000D01*
X102559560Y-81280000D01*
X102572076Y-79396427D01*
X126178283Y-79382241D01*
X126207717Y-121258081D01*
X126207717Y-121258081D01*
G37*
X126207717Y-121258081D02*
X92650013Y-121264802D01*
X92739061Y-116557955D01*
X93601486Y-117420380D01*
X93553679Y-117468187D01*
X93443000Y-117735391D01*
X93443000Y-118024609D01*
X93553679Y-118291813D01*
X93758187Y-118496321D01*
X94025391Y-118607000D01*
X94314609Y-118607000D01*
X94500504Y-118530000D01*
X123276594Y-118530000D01*
X123276594Y-120230000D01*
X123301973Y-120357589D01*
X123374246Y-120465754D01*
X123482411Y-120538027D01*
X123610000Y-120563406D01*
X125310000Y-120563406D01*
X125437589Y-120538027D01*
X125545754Y-120465754D01*
X125618027Y-120357589D01*
X125643406Y-120230000D01*
X125643406Y-118530000D01*
X125618027Y-118402411D01*
X125545754Y-118294246D01*
X125437589Y-118221973D01*
X125310000Y-118196594D01*
X123610000Y-118196594D01*
X123482411Y-118221973D01*
X123374246Y-118294246D01*
X123301973Y-118402411D01*
X123276594Y-118530000D01*
X94500504Y-118530000D01*
X94581813Y-118496321D01*
X94786321Y-118291813D01*
X94897000Y-118024609D01*
X94897000Y-117735391D01*
X94786321Y-117468187D01*
X94652379Y-117334245D01*
X94656343Y-117314314D01*
X94647000Y-117267343D01*
X94647000Y-117267340D01*
X94619323Y-117128199D01*
X94513897Y-116970418D01*
X94474074Y-116943809D01*
X94370265Y-116840000D01*
X123259942Y-116840000D01*
X123351291Y-117299242D01*
X123611431Y-117688569D01*
X124000758Y-117948709D01*
X124344080Y-118017000D01*
X124575920Y-118017000D01*
X124919242Y-117948709D01*
X125308569Y-117688569D01*
X125568709Y-117299242D01*
X125660058Y-116840000D01*
X125568709Y-116380758D01*
X125308569Y-115991431D01*
X124919242Y-115731291D01*
X124575920Y-115663000D01*
X124344080Y-115663000D01*
X124000758Y-115731291D01*
X123611431Y-115991431D01*
X123351291Y-116380758D01*
X123259942Y-116840000D01*
X94370265Y-116840000D01*
X93377000Y-115846736D01*
X93377000Y-115441134D01*
X93516321Y-115301813D01*
X93564922Y-115184479D01*
X98793145Y-115056961D01*
X98841495Y-115046112D01*
X98882014Y-115017585D01*
X98908531Y-114975724D01*
X98917045Y-114929143D01*
X98886997Y-110469144D01*
X98877003Y-110420610D01*
X98849196Y-110379594D01*
X98807809Y-110352343D01*
X98760000Y-110343000D01*
X89658176Y-110343000D01*
X89713545Y-104335391D01*
X97733000Y-104335391D01*
X97733000Y-104624609D01*
X97843679Y-104891813D01*
X97983001Y-105031135D01*
X97983000Y-105553028D01*
X97973657Y-105600000D01*
X97983000Y-105646971D01*
X97983000Y-105646974D01*
X98010677Y-105786115D01*
X98116103Y-105943897D01*
X98155929Y-105970508D01*
X100203000Y-108017579D01*
X100203000Y-108214609D01*
X100313679Y-108481813D01*
X100518187Y-108686321D01*
X100785391Y-108797000D01*
X101074609Y-108797000D01*
X101341813Y-108686321D01*
X101546321Y-108481813D01*
X101657000Y-108214609D01*
X101657000Y-107925391D01*
X101546321Y-107658187D01*
X101341813Y-107453679D01*
X101074609Y-107343000D01*
X100877579Y-107343000D01*
X98937000Y-105402421D01*
X98937000Y-105031134D01*
X98991134Y-104977000D01*
X101388866Y-104977000D01*
X101528187Y-105116321D01*
X101795391Y-105227000D01*
X102084609Y-105227000D01*
X102351813Y-105116321D01*
X102556321Y-104911813D01*
X102667000Y-104644609D01*
X102667000Y-104355391D01*
X102556321Y-104088187D01*
X102351813Y-103883679D01*
X102084609Y-103773000D01*
X101795391Y-103773000D01*
X101528187Y-103883679D01*
X101388866Y-104023000D01*
X99031134Y-104023000D01*
X98871813Y-103863679D01*
X98604609Y-103753000D01*
X98315391Y-103753000D01*
X98048187Y-103863679D01*
X97843679Y-104068187D01*
X97733000Y-104335391D01*
X89713545Y-104335391D01*
X89715758Y-104095338D01*
X92851861Y-104296739D01*
X92900981Y-104290206D01*
X92943863Y-104265373D01*
X92973977Y-104226021D01*
X92986984Y-104167974D01*
X92926984Y-100407974D01*
X92916542Y-100359533D01*
X92888358Y-100318776D01*
X92846723Y-100291907D01*
X92800000Y-100283000D01*
X91927000Y-100283000D01*
X91927000Y-99995391D01*
X91816321Y-99728187D01*
X91682379Y-99594245D01*
X91686343Y-99574314D01*
X91677000Y-99527344D01*
X91677000Y-99527340D01*
X91649323Y-99388199D01*
X91543897Y-99230418D01*
X91504069Y-99203806D01*
X91427000Y-99126737D01*
X91427000Y-96326969D01*
X91436343Y-96279999D01*
X91427000Y-96233029D01*
X91427000Y-96233025D01*
X91399323Y-96093884D01*
X91293897Y-95936103D01*
X91254074Y-95909494D01*
X90767000Y-95422421D01*
X90767000Y-95363545D01*
X101483000Y-95338966D01*
X101483001Y-96448865D01*
X101433679Y-96498187D01*
X101323000Y-96765391D01*
X101323000Y-97054609D01*
X101433679Y-97321813D01*
X101638187Y-97526321D01*
X101905391Y-97637000D01*
X102194609Y-97637000D01*
X102461813Y-97526321D01*
X102666321Y-97321813D01*
X102777000Y-97054609D01*
X102777000Y-96765391D01*
X102666321Y-96498187D01*
X102461813Y-96293679D01*
X102437000Y-96283401D01*
X102437000Y-95289080D01*
X102457444Y-95258332D01*
X102466997Y-95210844D01*
X102467798Y-95090336D01*
X102576321Y-94981813D01*
X102687000Y-94714609D01*
X102687000Y-94425391D01*
X102576321Y-94158187D01*
X102474667Y-94056533D01*
X102508229Y-89005391D01*
X108083000Y-89005391D01*
X108083000Y-89294609D01*
X108193679Y-89561813D01*
X108358000Y-89726134D01*
X108358001Y-95115477D01*
X108349145Y-95160000D01*
X108384225Y-95336361D01*
X108384226Y-95336362D01*
X108403000Y-95364459D01*
X108403000Y-95624609D01*
X108513679Y-95891813D01*
X108678000Y-96056134D01*
X108678001Y-99263865D01*
X108553679Y-99388187D01*
X108443000Y-99655391D01*
X108443000Y-99944609D01*
X108553679Y-100211813D01*
X108718000Y-100376134D01*
X108718001Y-103703865D01*
X108593679Y-103828187D01*
X108483000Y-104095391D01*
X108483000Y-104384609D01*
X108593679Y-104651813D01*
X108758000Y-104816134D01*
X108758001Y-107555766D01*
X108618187Y-107613679D01*
X108413679Y-107818187D01*
X108303000Y-108085391D01*
X108303000Y-108374609D01*
X108413679Y-108641813D01*
X108578000Y-108806134D01*
X108578001Y-110651330D01*
X108548187Y-110663679D01*
X108343679Y-110868187D01*
X108233000Y-111135391D01*
X108233000Y-111424609D01*
X108343679Y-111691813D01*
X108548187Y-111896321D01*
X108815391Y-112007000D01*
X109047776Y-112007000D01*
X110018000Y-112977224D01*
X110018001Y-113663865D01*
X109853679Y-113828187D01*
X109743000Y-114095391D01*
X109743000Y-114384609D01*
X109853679Y-114651813D01*
X110058187Y-114856321D01*
X110325391Y-114967000D01*
X110614609Y-114967000D01*
X110881813Y-114856321D01*
X111086321Y-114651813D01*
X111197000Y-114384609D01*
X111197000Y-114300000D01*
X123259942Y-114300000D01*
X123351291Y-114759242D01*
X123611431Y-115148569D01*
X124000758Y-115408709D01*
X124344080Y-115477000D01*
X124575920Y-115477000D01*
X124919242Y-115408709D01*
X125308569Y-115148569D01*
X125568709Y-114759242D01*
X125660058Y-114300000D01*
X125568709Y-113840758D01*
X125308569Y-113451431D01*
X124919242Y-113191291D01*
X124575920Y-113123000D01*
X124344080Y-113123000D01*
X124000758Y-113191291D01*
X123611431Y-113451431D01*
X123351291Y-113840758D01*
X123259942Y-114300000D01*
X111197000Y-114300000D01*
X111197000Y-114095391D01*
X111086321Y-113828187D01*
X110922000Y-113663866D01*
X110922000Y-112834516D01*
X110930855Y-112789999D01*
X110922000Y-112745482D01*
X110895775Y-112613638D01*
X110795874Y-112464126D01*
X110758131Y-112438907D01*
X110079224Y-111760000D01*
X123259942Y-111760000D01*
X123351291Y-112219242D01*
X123611431Y-112608569D01*
X124000758Y-112868709D01*
X124344080Y-112937000D01*
X124575920Y-112937000D01*
X124919242Y-112868709D01*
X125308569Y-112608569D01*
X125568709Y-112219242D01*
X125660058Y-111760000D01*
X125568709Y-111300758D01*
X125308569Y-110911431D01*
X124919242Y-110651291D01*
X124575920Y-110583000D01*
X124344080Y-110583000D01*
X124000758Y-110651291D01*
X123611431Y-110911431D01*
X123351291Y-111300758D01*
X123259942Y-111760000D01*
X110079224Y-111760000D01*
X109687000Y-111367776D01*
X109687000Y-111135391D01*
X109576321Y-110868187D01*
X109482000Y-110773866D01*
X109482000Y-109220000D01*
X123259942Y-109220000D01*
X123351291Y-109679242D01*
X123611431Y-110068569D01*
X124000758Y-110328709D01*
X124344080Y-110397000D01*
X124575920Y-110397000D01*
X124919242Y-110328709D01*
X125308569Y-110068569D01*
X125568709Y-109679242D01*
X125660058Y-109220000D01*
X125568709Y-108760758D01*
X125308569Y-108371431D01*
X124919242Y-108111291D01*
X124575920Y-108043000D01*
X124344080Y-108043000D01*
X124000758Y-108111291D01*
X123611431Y-108371431D01*
X123351291Y-108760758D01*
X123259942Y-109220000D01*
X109482000Y-109220000D01*
X109482000Y-108806134D01*
X109646321Y-108641813D01*
X109757000Y-108374609D01*
X109757000Y-108085391D01*
X109662000Y-107856040D01*
X109662000Y-106680000D01*
X123259942Y-106680000D01*
X123351291Y-107139242D01*
X123611431Y-107528569D01*
X124000758Y-107788709D01*
X124344080Y-107857000D01*
X124575920Y-107857000D01*
X124919242Y-107788709D01*
X125308569Y-107528569D01*
X125568709Y-107139242D01*
X125660058Y-106680000D01*
X125568709Y-106220758D01*
X125308569Y-105831431D01*
X124919242Y-105571291D01*
X124575920Y-105503000D01*
X124344080Y-105503000D01*
X124000758Y-105571291D01*
X123611431Y-105831431D01*
X123351291Y-106220758D01*
X123259942Y-106680000D01*
X109662000Y-106680000D01*
X109662000Y-104816134D01*
X109826321Y-104651813D01*
X109937000Y-104384609D01*
X109937000Y-104140000D01*
X123259942Y-104140000D01*
X123351291Y-104599242D01*
X123611431Y-104988569D01*
X124000758Y-105248709D01*
X124344080Y-105317000D01*
X124575920Y-105317000D01*
X124919242Y-105248709D01*
X125308569Y-104988569D01*
X125568709Y-104599242D01*
X125660058Y-104140000D01*
X125568709Y-103680758D01*
X125308569Y-103291431D01*
X124919242Y-103031291D01*
X124575920Y-102963000D01*
X124344080Y-102963000D01*
X124000758Y-103031291D01*
X123611431Y-103291431D01*
X123351291Y-103680758D01*
X123259942Y-104140000D01*
X109937000Y-104140000D01*
X109937000Y-104095391D01*
X109826321Y-103828187D01*
X109622000Y-103623866D01*
X109622000Y-101600000D01*
X123259942Y-101600000D01*
X123351291Y-102059242D01*
X123611431Y-102448569D01*
X124000758Y-102708709D01*
X124344080Y-102777000D01*
X124575920Y-102777000D01*
X124919242Y-102708709D01*
X125308569Y-102448569D01*
X125568709Y-102059242D01*
X125660058Y-101600000D01*
X125568709Y-101140758D01*
X125308569Y-100751431D01*
X124919242Y-100491291D01*
X124575920Y-100423000D01*
X124344080Y-100423000D01*
X124000758Y-100491291D01*
X123611431Y-100751431D01*
X123351291Y-101140758D01*
X123259942Y-101600000D01*
X109622000Y-101600000D01*
X109622000Y-100376134D01*
X109786321Y-100211813D01*
X109897000Y-99944609D01*
X109897000Y-99655391D01*
X109786321Y-99388187D01*
X109582000Y-99183866D01*
X109582000Y-99060000D01*
X123259942Y-99060000D01*
X123351291Y-99519242D01*
X123611431Y-99908569D01*
X124000758Y-100168709D01*
X124344080Y-100237000D01*
X124575920Y-100237000D01*
X124919242Y-100168709D01*
X125308569Y-99908569D01*
X125568709Y-99519242D01*
X125660058Y-99060000D01*
X125568709Y-98600758D01*
X125308569Y-98211431D01*
X124919242Y-97951291D01*
X124575920Y-97883000D01*
X124344080Y-97883000D01*
X124000758Y-97951291D01*
X123611431Y-98211431D01*
X123351291Y-98600758D01*
X123259942Y-99060000D01*
X109582000Y-99060000D01*
X109582000Y-96520000D01*
X123259942Y-96520000D01*
X123351291Y-96979242D01*
X123611431Y-97368569D01*
X124000758Y-97628709D01*
X124344080Y-97697000D01*
X124575920Y-97697000D01*
X124919242Y-97628709D01*
X125308569Y-97368569D01*
X125568709Y-96979242D01*
X125660058Y-96520000D01*
X125568709Y-96060758D01*
X125308569Y-95671431D01*
X124919242Y-95411291D01*
X124575920Y-95343000D01*
X124344080Y-95343000D01*
X124000758Y-95411291D01*
X123611431Y-95671431D01*
X123351291Y-96060758D01*
X123259942Y-96520000D01*
X109582000Y-96520000D01*
X109582000Y-96056134D01*
X109746321Y-95891813D01*
X109857000Y-95624609D01*
X109857000Y-95335391D01*
X109746321Y-95068187D01*
X109541813Y-94863679D01*
X109274609Y-94753000D01*
X109262000Y-94753000D01*
X109262000Y-93980000D01*
X123259942Y-93980000D01*
X123351291Y-94439242D01*
X123611431Y-94828569D01*
X124000758Y-95088709D01*
X124344080Y-95157000D01*
X124575920Y-95157000D01*
X124919242Y-95088709D01*
X125308569Y-94828569D01*
X125568709Y-94439242D01*
X125660058Y-93980000D01*
X125568709Y-93520758D01*
X125308569Y-93131431D01*
X124919242Y-92871291D01*
X124575920Y-92803000D01*
X124344080Y-92803000D01*
X124000758Y-92871291D01*
X123611431Y-93131431D01*
X123351291Y-93520758D01*
X123259942Y-93980000D01*
X109262000Y-93980000D01*
X109262000Y-91440000D01*
X123259942Y-91440000D01*
X123351291Y-91899242D01*
X123611431Y-92288569D01*
X124000758Y-92548709D01*
X124344080Y-92617000D01*
X124575920Y-92617000D01*
X124919242Y-92548709D01*
X125308569Y-92288569D01*
X125568709Y-91899242D01*
X125660058Y-91440000D01*
X125568709Y-90980758D01*
X125308569Y-90591431D01*
X124919242Y-90331291D01*
X124575920Y-90263000D01*
X124344080Y-90263000D01*
X124000758Y-90331291D01*
X123611431Y-90591431D01*
X123351291Y-90980758D01*
X123259942Y-91440000D01*
X109262000Y-91440000D01*
X109262000Y-89726134D01*
X109426321Y-89561813D01*
X109537000Y-89294609D01*
X109537000Y-89005391D01*
X109493346Y-88900000D01*
X123259942Y-88900000D01*
X123351291Y-89359242D01*
X123611431Y-89748569D01*
X124000758Y-90008709D01*
X124344080Y-90077000D01*
X124575920Y-90077000D01*
X124919242Y-90008709D01*
X125308569Y-89748569D01*
X125568709Y-89359242D01*
X125660058Y-88900000D01*
X125568709Y-88440758D01*
X125308569Y-88051431D01*
X124919242Y-87791291D01*
X124575920Y-87723000D01*
X124344080Y-87723000D01*
X124000758Y-87791291D01*
X123611431Y-88051431D01*
X123351291Y-88440758D01*
X123259942Y-88900000D01*
X109493346Y-88900000D01*
X109426321Y-88738187D01*
X109362000Y-88673866D01*
X109362000Y-86360000D01*
X123259942Y-86360000D01*
X123351291Y-86819242D01*
X123611431Y-87208569D01*
X124000758Y-87468709D01*
X124344080Y-87537000D01*
X124575920Y-87537000D01*
X124919242Y-87468709D01*
X125308569Y-87208569D01*
X125568709Y-86819242D01*
X125660058Y-86360000D01*
X125568709Y-85900758D01*
X125308569Y-85511431D01*
X124919242Y-85251291D01*
X124575920Y-85183000D01*
X124344080Y-85183000D01*
X124000758Y-85251291D01*
X123611431Y-85511431D01*
X123351291Y-85900758D01*
X123259942Y-86360000D01*
X109362000Y-86360000D01*
X109362000Y-85106134D01*
X109526321Y-84941813D01*
X109637000Y-84674609D01*
X109637000Y-84385391D01*
X109526321Y-84118187D01*
X109321813Y-83913679D01*
X109095651Y-83820000D01*
X123259942Y-83820000D01*
X123351291Y-84279242D01*
X123611431Y-84668569D01*
X124000758Y-84928709D01*
X124344080Y-84997000D01*
X124575920Y-84997000D01*
X124919242Y-84928709D01*
X125308569Y-84668569D01*
X125568709Y-84279242D01*
X125660058Y-83820000D01*
X125568709Y-83360758D01*
X125308569Y-82971431D01*
X124919242Y-82711291D01*
X124575920Y-82643000D01*
X124344080Y-82643000D01*
X124000758Y-82711291D01*
X123611431Y-82971431D01*
X123351291Y-83360758D01*
X123259942Y-83820000D01*
X109095651Y-83820000D01*
X109054609Y-83803000D01*
X108765391Y-83803000D01*
X108498187Y-83913679D01*
X108293679Y-84118187D01*
X108183000Y-84385391D01*
X108183000Y-84674609D01*
X108293679Y-84941813D01*
X108458000Y-85106134D01*
X108458001Y-88508903D01*
X108398187Y-88533679D01*
X108193679Y-88738187D01*
X108083000Y-89005391D01*
X102508229Y-89005391D01*
X102559560Y-81280000D01*
X123259942Y-81280000D01*
X123351291Y-81739242D01*
X123611431Y-82128569D01*
X124000758Y-82388709D01*
X124344080Y-82457000D01*
X124575920Y-82457000D01*
X124919242Y-82388709D01*
X125308569Y-82128569D01*
X125568709Y-81739242D01*
X125660058Y-81280000D01*
X125568709Y-80820758D01*
X125308569Y-80431431D01*
X124919242Y-80171291D01*
X124575920Y-80103000D01*
X124344080Y-80103000D01*
X124000758Y-80171291D01*
X123611431Y-80431431D01*
X123351291Y-80820758D01*
X123259942Y-81280000D01*
X102559560Y-81280000D01*
X102572076Y-79396427D01*
X126178283Y-79382241D01*
X126207717Y-121258081D01*
G04 #@! TD*
M02*
